<svg preserveAspectRatio="none" width="100%" height="100%" overflow="visible" style="display: block;" viewBox="0 0 504 723" fill="none" xmlns="http://www.w3.org/2000/svg">
<g id="Frame 2131328739">
<g clip-path="url(#clip0_333_57)">
<rect width="504" height="723" rx="45" fill="var(--fill-0, black)"/>
<g id="Star 1" filter="url(#filter0_f_333_57)">
<path d="M0.5 -106L36.3368 122.755L181.75 -57.4342L98.4079 158.592L314.434 75.25L134.245 220.663L363 256.5L134.245 292.337L314.434 437.75L98.4079 354.408L181.75 570.434L36.3368 390.245L0.5 619L-35.3368 390.245L-180.75 570.434L-97.4079 354.408L-313.434 437.75L-133.245 292.337L-362 256.5L-133.245 220.663L-313.434 75.25L-97.4079 158.592L-180.75 -57.4342L-35.3368 122.755L0.5 -106Z" fill="var(--fill-0, #FF7F30)"/>
</g>
<g id="Star 2" filter="url(#filter1_f_333_57)">
<path d="M552.5 360L588.337 588.755L733.75 408.566L650.408 624.592L866.434 541.25L686.245 686.663L915 722.5L686.245 758.337L866.434 903.75L650.408 820.408L733.75 1036.43L588.337 856.245L552.5 1085L516.663 856.245L371.25 1036.43L454.592 820.408L238.566 903.75L418.755 758.337L190 722.5L418.755 686.663L238.566 541.25L454.592 624.592L371.25 408.566L516.663 588.755L552.5 360Z" fill="var(--fill-0, #FF7F30)"/>
</g>
<g id="Vector">
<path d="M163 326.626V335.233C163 339.141 166.204 342.309 170.157 342.309H178.863C182.815 342.309 186.019 339.141 186.019 335.233V326.626C186.019 322.718 182.815 319.55 178.863 319.55H170.157C166.204 319.55 163 322.718 163 326.626Z" fill="url(#paint0_linear_333_57)"/>
<path d="M163 349.385V357.992C163 361.9 166.204 365.068 170.157 365.068H178.863C182.815 365.068 186.019 361.9 186.019 357.992V349.385C186.019 345.477 182.815 342.309 178.863 342.309H170.157C166.204 342.309 163 345.477 163 349.385Z" fill="url(#paint1_linear_333_57)"/>
<path d="M163 372.144V380.752C163 384.66 166.204 387.828 170.157 387.828H178.863C182.815 387.828 186.019 384.66 186.019 380.752V372.144C186.019 368.236 182.815 365.068 178.863 365.068H170.157C166.204 365.068 163 368.236 163 372.144Z" fill="url(#paint2_linear_333_57)"/>
<path d="M163 394.904V403.512C163 407.42 166.204 410.588 170.157 410.588H178.863C182.815 410.588 186.019 407.42 186.019 403.512V394.904C186.019 390.996 182.815 387.828 178.863 387.828H170.157C166.204 387.828 163 390.996 163 394.904Z" fill="url(#paint3_linear_333_57)"/>
<path d="M186.021 303.866V312.474C186.021 316.382 189.226 319.55 193.178 319.55H201.884C205.837 319.55 209.041 316.382 209.041 312.474V303.866C209.041 299.958 205.837 296.79 201.884 296.79H193.178C189.226 296.79 186.021 299.958 186.021 303.866Z" fill="url(#paint4_linear_333_57)"/>
<path d="M186.053 326.626V335.233C186.053 339.141 189.257 342.309 193.209 342.309H201.915C205.868 342.309 209.072 339.141 209.072 335.233V326.626C209.072 322.718 205.868 319.55 201.915 319.55H193.209C189.257 319.55 186.053 322.718 186.053 326.626Z" fill="url(#paint5_linear_333_57)"/>
<path d="M186.019 349.385V357.992C186.019 361.9 189.226 365.068 193.178 365.068H201.884C205.837 365.068 209.041 361.9 209.041 357.993V349.385C209.041 345.477 205.837 342.309 201.884 342.309H193.178C189.226 342.309 186.019 345.477 186.019 349.385Z" fill="url(#paint6_linear_333_57)"/>
<path d="M186.019 372.144V380.752C186.019 384.66 189.226 387.828 193.178 387.828H201.884C205.837 387.828 209.041 384.66 209.041 380.752V372.145C209.041 368.237 205.837 365.068 201.884 365.068H193.178C189.226 365.068 186.019 368.236 186.019 372.144Z" fill="url(#paint7_linear_333_57)"/>
<path d="M209.035 303.866V312.474C209.035 316.382 212.239 319.55 216.192 319.55H224.898C228.85 319.55 232.055 316.382 232.055 312.474V303.866C232.055 299.958 228.85 296.79 224.898 296.79H216.192C212.239 296.79 209.035 299.958 209.035 303.866Z" fill="url(#paint8_linear_333_57)"/>
<path d="M209.035 281.107V289.714C209.035 293.622 212.239 296.79 216.192 296.79H224.898C228.85 296.79 232.055 293.622 232.055 289.714V281.107C232.055 277.199 228.85 274.031 224.898 274.031H216.192C212.239 274.031 209.035 277.199 209.035 281.107Z" fill="url(#paint9_linear_333_57)"/>
<path d="M209.066 326.626V335.233C209.066 339.141 212.27 342.309 216.223 342.309H224.929C228.881 342.309 232.086 339.141 232.086 335.233V326.626C232.086 322.718 228.881 319.55 224.929 319.55H216.223C212.27 319.55 209.066 322.718 209.066 326.626Z" fill="url(#paint10_linear_333_57)"/>
<path d="M232.057 303.835V312.443C232.057 316.351 235.261 319.519 239.213 319.519H247.919C251.872 319.519 255.076 316.351 255.076 312.443V303.835C255.076 299.927 251.872 296.759 247.919 296.759H239.213C235.261 296.759 232.057 299.927 232.057 303.835Z" fill="url(#paint11_linear_333_57)"/>
<path d="M232.088 281.076V289.684C232.088 293.591 235.292 296.76 239.244 296.76H247.95C251.903 296.76 255.107 293.591 255.107 289.684V281.076C255.107 277.168 251.903 274 247.95 274H239.244C235.292 274 232.088 277.168 232.088 281.076Z" fill="url(#paint12_linear_333_57)"/>
<path d="M232.088 326.595V335.202C232.088 339.11 235.292 342.278 239.244 342.278H247.95C251.903 342.278 255.107 339.11 255.107 335.202V326.595C255.107 322.687 251.903 319.519 247.95 319.519H239.244C235.292 319.519 232.088 322.687 232.088 326.595Z" fill="url(#paint13_linear_333_57)"/>
<path d="M255.107 281.076V289.684C255.107 293.591 258.313 296.76 262.266 296.76H270.972C274.924 296.76 278.129 293.592 278.129 289.684V281.076C278.129 277.168 274.924 274 270.972 274H262.266C258.313 274 255.107 277.168 255.107 281.076Z" fill="url(#paint14_linear_333_57)"/>
<path d="M188.56 418.613V425.352C188.56 428.397 191.057 430.866 194.136 430.866H200.952C204.032 430.866 206.529 428.397 206.529 425.352V418.613C206.529 415.568 204.032 413.099 200.952 413.099H194.136C191.057 413.099 188.56 415.568 188.56 418.613Z" fill="url(#paint15_linear_333_57)"/>
<path d="M188.56 395.854V402.593C188.56 405.638 191.057 408.106 194.136 408.106H200.952C204.032 408.106 206.529 405.638 206.529 402.593V395.854C206.529 392.808 204.032 390.34 200.952 390.34H194.136C191.057 390.34 188.56 392.808 188.56 395.854Z" fill="url(#paint16_linear_333_57)"/>
<path d="M213.56 419.379V424.617C213.56 426.986 215.502 428.906 217.898 428.906H223.196C225.591 428.906 227.533 426.986 227.533 424.617V419.379C227.533 417.011 225.591 415.091 223.196 415.091H217.898C215.502 415.091 213.56 417.011 213.56 419.379Z" fill="url(#paint17_linear_333_57)"/>
<path d="M216.285 443.149V446.335C216.285 447.79 217.478 448.969 218.949 448.969H222.171C223.643 448.969 224.836 447.79 224.836 446.335V443.149C224.836 441.694 223.643 440.515 222.171 440.515H218.949C217.478 440.515 216.285 441.694 216.285 443.149Z" fill="url(#paint18_linear_333_57)"/>
<path d="M209.066 349.385V357.993C209.066 361.9 212.27 365.068 216.223 365.068H224.929C228.881 365.068 232.086 361.9 232.086 357.993V349.385C232.086 345.477 228.881 342.309 224.929 342.309H216.223C212.27 342.309 209.066 345.477 209.066 349.385Z" fill="url(#paint19_linear_333_57)"/>
<path d="M211.581 373.094V379.833C211.581 382.878 214.078 385.347 217.158 385.347H223.974C227.054 385.347 229.55 382.878 229.55 379.833V373.094C229.55 370.049 227.054 367.58 223.974 367.58H217.158C214.078 367.58 211.581 370.049 211.581 373.094Z" fill="url(#paint20_linear_333_57)"/>
<path d="M211.581 395.854V402.593C211.581 405.638 214.078 408.106 217.158 408.106H223.974C227.054 408.106 229.55 405.638 229.55 402.593V395.854C229.55 392.808 227.054 390.34 223.974 390.34H217.158C214.078 390.34 211.581 392.808 211.581 395.854Z" fill="url(#paint21_linear_333_57)"/>
<path d="M236.581 419.348V424.586C236.581 426.955 238.523 428.875 240.919 428.875H246.216C248.612 428.875 250.554 426.955 250.554 424.586V419.348C250.554 416.98 248.612 415.06 246.216 415.06H240.919C238.523 415.06 236.581 416.98 236.581 419.348Z" fill="url(#paint22_linear_333_57)"/>
<path d="M239.306 443.18V446.366C239.306 447.821 240.499 449 241.971 449H245.193C246.664 449 247.857 447.821 247.857 446.366V443.18C247.857 441.725 246.664 440.546 245.193 440.546H241.971C240.499 440.546 239.306 441.725 239.306 443.18Z" fill="url(#paint23_linear_333_57)"/>
<path d="M234.595 350.335V357.074C234.595 360.119 237.092 362.587 240.171 362.587H246.987C250.067 362.587 252.564 360.119 252.564 357.074V350.335C252.564 347.289 250.067 344.821 246.987 344.821H240.171C237.092 344.821 234.595 347.289 234.595 350.335Z" fill="url(#paint24_linear_333_57)"/>
<path d="M234.626 373.094V379.833C234.626 382.878 237.123 385.347 240.202 385.347H247.018C250.098 385.347 252.595 382.878 252.595 379.833V373.094C252.595 370.049 250.098 367.58 247.018 367.58H240.202C237.123 367.58 234.626 370.049 234.626 373.094Z" fill="url(#paint25_linear_333_57)"/>
<path d="M236.581 396.589V401.827C236.581 404.195 238.523 406.115 240.919 406.115H246.216C248.612 406.115 250.554 404.195 250.554 401.827V396.589C250.554 394.22 248.612 392.3 246.216 392.3H240.919C238.523 392.3 236.581 394.22 236.581 396.589Z" fill="url(#paint26_linear_333_57)"/>
<path d="M262.327 420.39V423.576C262.327 425.031 263.52 426.21 264.991 426.21H268.213C269.685 426.21 270.878 425.031 270.878 423.576V420.39C270.878 418.935 269.685 417.756 268.213 417.756H264.991C263.52 417.756 262.327 418.935 262.327 420.39Z" fill="url(#paint27_linear_333_57)"/>
<path d="M262.327 443.149V446.335C262.327 447.79 263.52 448.969 264.991 448.969H268.213C269.685 448.969 270.878 447.79 270.878 446.335V443.149C270.878 441.694 269.685 440.515 268.213 440.515H264.991C263.52 440.515 262.327 441.694 262.327 443.149Z" fill="url(#paint28_linear_333_57)"/>
<path d="M257.647 304.754V311.493C257.647 314.539 260.144 317.007 263.224 317.007H270.04C273.12 317.007 275.617 314.539 275.617 311.493V304.754C275.617 301.709 273.12 299.241 270.04 299.241H263.224C260.144 299.241 257.647 301.709 257.647 304.754Z" fill="url(#paint29_linear_333_57)"/>
<path d="M257.616 327.545V334.284C257.616 337.329 260.113 339.797 263.193 339.797H270.009C273.089 339.797 275.586 337.329 275.586 334.284V327.545C275.586 324.499 273.089 322.031 270.009 322.031H263.193C260.113 322.031 257.616 324.499 257.616 327.545Z" fill="url(#paint30_linear_333_57)"/>
<path d="M257.616 350.304V357.043C257.616 360.088 260.113 362.557 263.193 362.557H270.009C273.089 362.557 275.586 360.088 275.586 357.043V350.304C275.586 347.259 273.089 344.79 270.009 344.79H263.193C260.113 344.79 257.616 347.259 257.616 350.304Z" fill="url(#paint31_linear_333_57)"/>
<path d="M259.634 373.829V379.067C259.634 381.436 261.576 383.356 263.972 383.356H269.27C271.665 383.356 273.607 381.436 273.607 379.067V373.829C273.607 371.461 271.665 369.541 269.27 369.541H263.972C261.576 369.541 259.634 371.461 259.634 373.829Z" fill="url(#paint32_linear_333_57)"/>
<path d="M259.634 396.589V401.827C259.634 404.195 261.576 406.115 263.972 406.115H269.27C271.665 406.115 273.607 404.195 273.607 401.827V396.589C273.607 394.22 271.665 392.3 269.27 392.3H263.972C261.576 392.3 259.634 394.22 259.634 396.589Z" fill="url(#paint33_linear_333_57)"/>
<path d="M285.38 420.39V423.576C285.38 425.03 286.573 426.21 288.045 426.21H291.267C292.738 426.21 293.931 425.03 293.931 423.576V420.39C293.931 418.935 292.738 417.756 291.267 417.756H288.045C286.573 417.756 285.38 418.935 285.38 420.39Z" fill="url(#paint34_linear_333_57)"/>
<path d="M285.349 443.149V446.335C285.349 447.79 286.542 448.969 288.014 448.969H291.236C292.707 448.969 293.9 447.79 293.9 446.335V443.149C293.9 441.694 292.707 440.515 291.236 440.515H288.014C286.542 440.515 285.349 441.694 285.349 443.149Z" fill="url(#paint35_linear_333_57)"/>
<path d="M280.669 304.785V311.524C280.669 314.569 283.166 317.038 286.246 317.038H293.061C296.141 317.038 298.638 314.569 298.638 311.524V304.785C298.638 301.74 296.141 299.271 293.061 299.271H286.246C283.166 299.271 280.669 301.74 280.669 304.785Z" fill="url(#paint36_linear_333_57)"/>
<path d="M280.669 281.995V288.734C280.669 291.779 283.166 294.247 286.245 294.247H293.061C296.141 294.247 298.638 291.779 298.638 288.734V281.995C298.638 278.949 296.141 276.481 293.061 276.481H286.245C283.166 276.481 280.669 278.949 280.669 281.995Z" fill="url(#paint37_linear_333_57)"/>
<path d="M282.648 328.31V333.548C282.648 335.917 284.59 337.837 286.986 337.837H292.283C294.679 337.837 296.621 335.917 296.621 333.548V328.31C296.621 325.942 294.679 324.022 292.283 324.022H286.986C284.59 324.022 282.648 325.942 282.648 328.31Z" fill="url(#paint38_linear_333_57)"/>
<path d="M282.648 351.07V356.308C282.648 358.676 284.59 360.596 286.986 360.596H292.283C294.679 360.596 296.621 358.676 296.621 356.308V351.07C296.621 348.701 294.679 346.781 292.283 346.781H286.986C284.59 346.781 282.648 348.701 282.648 351.07Z" fill="url(#paint39_linear_333_57)"/>
<path d="M282.648 373.829V379.067C282.648 381.436 284.59 383.356 286.985 383.356H292.283C294.679 383.356 296.621 381.436 296.621 379.067V373.829C296.621 371.461 294.679 369.541 292.283 369.541H286.985C284.59 369.541 282.648 371.461 282.648 373.829Z" fill="url(#paint40_linear_333_57)"/>
<path d="M285.38 397.63V400.816C285.38 402.271 286.573 403.45 288.045 403.45H291.267C292.738 403.45 293.931 402.271 293.931 400.816V397.63C293.931 396.175 292.738 394.996 291.267 394.996H288.045C286.573 394.996 285.38 396.175 285.38 397.63Z" fill="url(#paint41_linear_333_57)"/>
<path d="M339.969 400.816V397.63C339.969 396.176 338.776 394.996 337.305 394.996H334.082C332.611 394.996 331.418 396.176 331.418 397.63V400.816C331.418 402.271 332.611 403.451 334.082 403.451H337.305C338.776 403.451 339.969 402.271 339.969 400.816Z" fill="url(#paint42_linear_333_57)"/>
<path d="M339.969 378.026V374.84C339.969 373.385 338.776 372.206 337.305 372.206H334.082C332.611 372.206 331.418 373.385 331.418 374.84V378.026C331.418 379.481 332.611 380.66 334.082 380.66H337.305C338.776 380.66 339.969 379.481 339.969 378.026Z" fill="url(#paint43_linear_333_57)"/>
<path d="M340 355.266V352.081C340 350.626 338.807 349.446 337.336 349.446H334.114C332.642 349.446 331.449 350.626 331.449 352.081V355.266C331.449 356.721 332.642 357.901 334.114 357.901H337.336C338.807 357.901 340 356.721 340 355.266Z" fill="url(#paint44_linear_333_57)"/>
<path d="M339.969 332.507V329.321C339.969 327.866 338.776 326.687 337.305 326.687H334.082C332.611 326.687 331.418 327.866 331.418 329.321V332.507C331.418 333.962 332.611 335.141 334.082 335.141H337.305C338.776 335.141 339.969 333.962 339.969 332.507Z" fill="url(#paint45_linear_333_57)"/>
<path d="M319.672 310.758V305.52C319.672 303.152 317.73 301.232 315.334 301.232H310.037C307.641 301.232 305.699 303.152 305.699 305.52V310.758C305.699 313.127 307.641 315.047 310.037 315.047H315.334C317.73 315.047 319.672 313.127 319.672 310.758Z" fill="url(#paint46_linear_333_57)"/>
<path d="M316.947 423.576V420.39C316.947 418.935 315.754 417.756 314.283 417.756H311.061C309.589 417.756 308.396 418.935 308.396 420.39V423.576C308.396 425.031 309.589 426.21 311.061 426.21H314.283C315.754 426.21 316.947 425.031 316.947 423.576Z" fill="url(#paint47_linear_333_57)"/>
<path d="M316.947 400.816V397.63C316.947 396.175 315.754 394.996 314.283 394.996H311.061C309.589 394.996 308.396 396.175 308.396 397.63V400.816C308.396 402.271 309.589 403.45 311.061 403.45H314.283C315.754 403.45 316.947 402.271 316.947 400.816Z" fill="url(#paint48_linear_333_57)"/>
<path d="M316.947 378.057V374.871C316.947 373.416 315.754 372.237 314.283 372.237H311.061C309.589 372.237 308.396 373.416 308.396 374.871V378.057C308.396 379.512 309.589 380.691 311.061 380.691H314.283C315.754 380.691 316.947 379.512 316.947 378.057Z" fill="url(#paint49_linear_333_57)"/>
<path d="M316.947 355.266V352.081C316.947 350.626 315.754 349.446 314.283 349.446H311.061C309.589 349.446 308.396 350.626 308.396 352.081V355.266C308.396 356.721 309.589 357.901 311.061 357.901H314.283C315.754 357.901 316.947 356.721 316.947 355.266Z" fill="url(#paint50_linear_333_57)"/>
<path d="M319.672 333.517V328.279C319.672 325.911 317.73 323.991 315.334 323.991H310.037C307.641 323.991 305.699 325.911 305.699 328.279V333.517C305.699 335.886 307.641 337.806 310.037 337.806H315.334C317.73 337.806 319.672 335.886 319.672 333.517Z" fill="url(#paint51_linear_333_57)"/>
</g>
</g>
</g>
<defs>
<filter id="filter0_f_333_57" x="-490" y="-234" width="981" height="981" filterUnits="userSpaceOnUse" color-interpolation-filters="sRGB">
<feFlood flood-opacity="0" result="BackgroundImageFix"/>
<feBlend mode="normal" in="SourceGraphic" in2="BackgroundImageFix" result="shape"/>
<feGaussianBlur stdDeviation="64" result="effect1_foregroundBlur_333_57"/>
</filter>
<filter id="filter1_f_333_57" x="62" y="232" width="981" height="981" filterUnits="userSpaceOnUse" color-interpolation-filters="sRGB">
<feFlood flood-opacity="0" result="BackgroundImageFix"/>
<feBlend mode="normal" in="SourceGraphic" in2="BackgroundImageFix" result="shape"/>
<feGaussianBlur stdDeviation="64" result="effect1_foregroundBlur_333_57"/>
</filter>
<linearGradient id="paint0_linear_333_57" x1="195.561" y1="265.25" x2="310.876" y2="456.692" gradientUnits="userSpaceOnUse">
<stop stop-color="#E0FFB9"/>
<stop offset="1" stop-color="#FF7F30"/>
</linearGradient>
<linearGradient id="paint1_linear_333_57" x1="195.561" y1="265.25" x2="310.876" y2="456.692" gradientUnits="userSpaceOnUse">
<stop stop-color="#E0FFB9"/>
<stop offset="1" stop-color="#FF7F30"/>
</linearGradient>
<linearGradient id="paint2_linear_333_57" x1="195.561" y1="265.25" x2="310.876" y2="456.692" gradientUnits="userSpaceOnUse">
<stop stop-color="#E0FFB9"/>
<stop offset="1" stop-color="#FF7F30"/>
</linearGradient>
<linearGradient id="paint3_linear_333_57" x1="195.561" y1="265.25" x2="310.876" y2="456.692" gradientUnits="userSpaceOnUse">
<stop stop-color="#E0FFB9"/>
<stop offset="1" stop-color="#FF7F30"/>
</linearGradient>
<linearGradient id="paint4_linear_333_57" x1="195.561" y1="265.25" x2="310.876" y2="456.692" gradientUnits="userSpaceOnUse">
<stop stop-color="#E0FFB9"/>
<stop offset="1" stop-color="#FF7F30"/>
</linearGradient>
<linearGradient id="paint5_linear_333_57" x1="195.561" y1="265.25" x2="310.876" y2="456.692" gradientUnits="userSpaceOnUse">
<stop stop-color="#E0FFB9"/>
<stop offset="1" stop-color="#FF7F30"/>
</linearGradient>
<linearGradient id="paint6_linear_333_57" x1="195.561" y1="265.25" x2="310.876" y2="456.692" gradientUnits="userSpaceOnUse">
<stop stop-color="#E0FFB9"/>
<stop offset="1" stop-color="#FF7F30"/>
</linearGradient>
<linearGradient id="paint7_linear_333_57" x1="195.561" y1="265.25" x2="310.876" y2="456.692" gradientUnits="userSpaceOnUse">
<stop stop-color="#E0FFB9"/>
<stop offset="1" stop-color="#FF7F30"/>
</linearGradient>
<linearGradient id="paint8_linear_333_57" x1="195.561" y1="265.25" x2="310.876" y2="456.692" gradientUnits="userSpaceOnUse">
<stop stop-color="#E0FFB9"/>
<stop offset="1" stop-color="#FF7F30"/>
</linearGradient>
<linearGradient id="paint9_linear_333_57" x1="195.561" y1="265.25" x2="310.876" y2="456.692" gradientUnits="userSpaceOnUse">
<stop stop-color="#E0FFB9"/>
<stop offset="1" stop-color="#FF7F30"/>
</linearGradient>
<linearGradient id="paint10_linear_333_57" x1="195.561" y1="265.25" x2="310.876" y2="456.692" gradientUnits="userSpaceOnUse">
<stop stop-color="#E0FFB9"/>
<stop offset="1" stop-color="#FF7F30"/>
</linearGradient>
<linearGradient id="paint11_linear_333_57" x1="195.561" y1="265.25" x2="310.876" y2="456.692" gradientUnits="userSpaceOnUse">
<stop stop-color="#E0FFB9"/>
<stop offset="1" stop-color="#FF7F30"/>
</linearGradient>
<linearGradient id="paint12_linear_333_57" x1="195.561" y1="265.25" x2="310.876" y2="456.692" gradientUnits="userSpaceOnUse">
<stop stop-color="#E0FFB9"/>
<stop offset="1" stop-color="#FF7F30"/>
</linearGradient>
<linearGradient id="paint13_linear_333_57" x1="195.561" y1="265.25" x2="310.876" y2="456.692" gradientUnits="userSpaceOnUse">
<stop stop-color="#E0FFB9"/>
<stop offset="1" stop-color="#FF7F30"/>
</linearGradient>
<linearGradient id="paint14_linear_333_57" x1="195.561" y1="265.25" x2="310.876" y2="456.692" gradientUnits="userSpaceOnUse">
<stop stop-color="#E0FFB9"/>
<stop offset="1" stop-color="#FF7F30"/>
</linearGradient>
<linearGradient id="paint15_linear_333_57" x1="195.561" y1="265.25" x2="310.876" y2="456.692" gradientUnits="userSpaceOnUse">
<stop stop-color="#E0FFB9"/>
<stop offset="1" stop-color="#FF7F30"/>
</linearGradient>
<linearGradient id="paint16_linear_333_57" x1="195.561" y1="265.25" x2="310.876" y2="456.692" gradientUnits="userSpaceOnUse">
<stop stop-color="#E0FFB9"/>
<stop offset="1" stop-color="#FF7F30"/>
</linearGradient>
<linearGradient id="paint17_linear_333_57" x1="195.561" y1="265.25" x2="310.876" y2="456.692" gradientUnits="userSpaceOnUse">
<stop stop-color="#E0FFB9"/>
<stop offset="1" stop-color="#FF7F30"/>
</linearGradient>
<linearGradient id="paint18_linear_333_57" x1="195.561" y1="265.25" x2="310.876" y2="456.692" gradientUnits="userSpaceOnUse">
<stop stop-color="#E0FFB9"/>
<stop offset="1" stop-color="#FF7F30"/>
</linearGradient>
<linearGradient id="paint19_linear_333_57" x1="195.561" y1="265.25" x2="310.876" y2="456.692" gradientUnits="userSpaceOnUse">
<stop stop-color="#E0FFB9"/>
<stop offset="1" stop-color="#FF7F30"/>
</linearGradient>
<linearGradient id="paint20_linear_333_57" x1="195.561" y1="265.25" x2="310.876" y2="456.692" gradientUnits="userSpaceOnUse">
<stop stop-color="#E0FFB9"/>
<stop offset="1" stop-color="#FF7F30"/>
</linearGradient>
<linearGradient id="paint21_linear_333_57" x1="195.561" y1="265.25" x2="310.876" y2="456.692" gradientUnits="userSpaceOnUse">
<stop stop-color="#E0FFB9"/>
<stop offset="1" stop-color="#FF7F30"/>
</linearGradient>
<linearGradient id="paint22_linear_333_57" x1="195.561" y1="265.25" x2="310.876" y2="456.692" gradientUnits="userSpaceOnUse">
<stop stop-color="#E0FFB9"/>
<stop offset="1" stop-color="#FF7F30"/>
</linearGradient>
<linearGradient id="paint23_linear_333_57" x1="195.561" y1="265.25" x2="310.876" y2="456.692" gradientUnits="userSpaceOnUse">
<stop stop-color="#E0FFB9"/>
<stop offset="1" stop-color="#FF7F30"/>
</linearGradient>
<linearGradient id="paint24_linear_333_57" x1="195.561" y1="265.25" x2="310.876" y2="456.692" gradientUnits="userSpaceOnUse">
<stop stop-color="#E0FFB9"/>
<stop offset="1" stop-color="#FF7F30"/>
</linearGradient>
<linearGradient id="paint25_linear_333_57" x1="195.561" y1="265.25" x2="310.876" y2="456.692" gradientUnits="userSpaceOnUse">
<stop stop-color="#E0FFB9"/>
<stop offset="1" stop-color="#FF7F30"/>
</linearGradient>
<linearGradient id="paint26_linear_333_57" x1="195.561" y1="265.25" x2="310.876" y2="456.692" gradientUnits="userSpaceOnUse">
<stop stop-color="#E0FFB9"/>
<stop offset="1" stop-color="#FF7F30"/>
</linearGradient>
<linearGradient id="paint27_linear_333_57" x1="195.561" y1="265.25" x2="310.876" y2="456.692" gradientUnits="userSpaceOnUse">
<stop stop-color="#E0FFB9"/>
<stop offset="1" stop-color="#FF7F30"/>
</linearGradient>
<linearGradient id="paint28_linear_333_57" x1="195.561" y1="265.25" x2="310.876" y2="456.692" gradientUnits="userSpaceOnUse">
<stop stop-color="#E0FFB9"/>
<stop offset="1" stop-color="#FF7F30"/>
</linearGradient>
<linearGradient id="paint29_linear_333_57" x1="195.561" y1="265.25" x2="310.876" y2="456.692" gradientUnits="userSpaceOnUse">
<stop stop-color="#E0FFB9"/>
<stop offset="1" stop-color="#FF7F30"/>
</linearGradient>
<linearGradient id="paint30_linear_333_57" x1="195.561" y1="265.25" x2="310.876" y2="456.692" gradientUnits="userSpaceOnUse">
<stop stop-color="#E0FFB9"/>
<stop offset="1" stop-color="#FF7F30"/>
</linearGradient>
<linearGradient id="paint31_linear_333_57" x1="195.561" y1="265.25" x2="310.876" y2="456.692" gradientUnits="userSpaceOnUse">
<stop stop-color="#E0FFB9"/>
<stop offset="1" stop-color="#FF7F30"/>
</linearGradient>
<linearGradient id="paint32_linear_333_57" x1="195.561" y1="265.25" x2="310.876" y2="456.692" gradientUnits="userSpaceOnUse">
<stop stop-color="#E0FFB9"/>
<stop offset="1" stop-color="#FF7F30"/>
</linearGradient>
<linearGradient id="paint33_linear_333_57" x1="195.561" y1="265.25" x2="310.876" y2="456.692" gradientUnits="userSpaceOnUse">
<stop stop-color="#E0FFB9"/>
<stop offset="1" stop-color="#FF7F30"/>
</linearGradient>
<linearGradient id="paint34_linear_333_57" x1="195.561" y1="265.25" x2="310.876" y2="456.692" gradientUnits="userSpaceOnUse">
<stop stop-color="#E0FFB9"/>
<stop offset="1" stop-color="#FF7F30"/>
</linearGradient>
<linearGradient id="paint35_linear_333_57" x1="195.561" y1="265.25" x2="310.876" y2="456.692" gradientUnits="userSpaceOnUse">
<stop stop-color="#E0FFB9"/>
<stop offset="1" stop-color="#FF7F30"/>
</linearGradient>
<linearGradient id="paint36_linear_333_57" x1="195.561" y1="265.25" x2="310.876" y2="456.692" gradientUnits="userSpaceOnUse">
<stop stop-color="#E0FFB9"/>
<stop offset="1" stop-color="#FF7F30"/>
</linearGradient>
<linearGradient id="paint37_linear_333_57" x1="195.561" y1="265.25" x2="310.876" y2="456.692" gradientUnits="userSpaceOnUse">
<stop stop-color="#E0FFB9"/>
<stop offset="1" stop-color="#FF7F30"/>
</linearGradient>
<linearGradient id="paint38_linear_333_57" x1="195.561" y1="265.25" x2="310.876" y2="456.692" gradientUnits="userSpaceOnUse">
<stop stop-color="#E0FFB9"/>
<stop offset="1" stop-color="#FF7F30"/>
</linearGradient>
<linearGradient id="paint39_linear_333_57" x1="195.561" y1="265.25" x2="310.876" y2="456.692" gradientUnits="userSpaceOnUse">
<stop stop-color="#E0FFB9"/>
<stop offset="1" stop-color="#FF7F30"/>
</linearGradient>
<linearGradient id="paint40_linear_333_57" x1="195.561" y1="265.25" x2="310.876" y2="456.692" gradientUnits="userSpaceOnUse">
<stop stop-color="#E0FFB9"/>
<stop offset="1" stop-color="#FF7F30"/>
</linearGradient>
<linearGradient id="paint41_linear_333_57" x1="195.561" y1="265.25" x2="310.876" y2="456.692" gradientUnits="userSpaceOnUse">
<stop stop-color="#E0FFB9"/>
<stop offset="1" stop-color="#FF7F30"/>
</linearGradient>
<linearGradient id="paint42_linear_333_57" x1="195.561" y1="265.25" x2="310.876" y2="456.692" gradientUnits="userSpaceOnUse">
<stop stop-color="#E0FFB9"/>
<stop offset="1" stop-color="#FF7F30"/>
</linearGradient>
<linearGradient id="paint43_linear_333_57" x1="195.561" y1="265.25" x2="310.876" y2="456.692" gradientUnits="userSpaceOnUse">
<stop stop-color="#E0FFB9"/>
<stop offset="1" stop-color="#FF7F30"/>
</linearGradient>
<linearGradient id="paint44_linear_333_57" x1="195.561" y1="265.25" x2="310.876" y2="456.692" gradientUnits="userSpaceOnUse">
<stop stop-color="#E0FFB9"/>
<stop offset="1" stop-color="#FF7F30"/>
</linearGradient>
<linearGradient id="paint45_linear_333_57" x1="195.561" y1="265.25" x2="310.876" y2="456.692" gradientUnits="userSpaceOnUse">
<stop stop-color="#E0FFB9"/>
<stop offset="1" stop-color="#FF7F30"/>
</linearGradient>
<linearGradient id="paint46_linear_333_57" x1="195.561" y1="265.25" x2="310.876" y2="456.692" gradientUnits="userSpaceOnUse">
<stop stop-color="#E0FFB9"/>
<stop offset="1" stop-color="#FF7F30"/>
</linearGradient>
<linearGradient id="paint47_linear_333_57" x1="195.561" y1="265.25" x2="310.876" y2="456.692" gradientUnits="userSpaceOnUse">
<stop stop-color="#E0FFB9"/>
<stop offset="1" stop-color="#FF7F30"/>
</linearGradient>
<linearGradient id="paint48_linear_333_57" x1="195.561" y1="265.25" x2="310.876" y2="456.692" gradientUnits="userSpaceOnUse">
<stop stop-color="#E0FFB9"/>
<stop offset="1" stop-color="#FF7F30"/>
</linearGradient>
<linearGradient id="paint49_linear_333_57" x1="195.561" y1="265.25" x2="310.876" y2="456.692" gradientUnits="userSpaceOnUse">
<stop stop-color="#E0FFB9"/>
<stop offset="1" stop-color="#FF7F30"/>
</linearGradient>
<linearGradient id="paint50_linear_333_57" x1="195.561" y1="265.25" x2="310.876" y2="456.692" gradientUnits="userSpaceOnUse">
<stop stop-color="#E0FFB9"/>
<stop offset="1" stop-color="#FF7F30"/>
</linearGradient>
<linearGradient id="paint51_linear_333_57" x1="195.561" y1="265.25" x2="310.876" y2="456.692" gradientUnits="userSpaceOnUse">
<stop stop-color="#E0FFB9"/>
<stop offset="1" stop-color="#FF7F30"/>
</linearGradient>
<clipPath id="clip0_333_57">
<rect width="504" height="723" rx="45" fill="white"/>
</clipPath>
</defs>
</svg>
