<svg width="48" height="48" viewBox="0 0 48 48" fill="none" xmlns="http://www.w3.org/2000/svg">
<path d="M0 23.9712C0 35.1552 8.0285 45.133 18.9611 47.4725C24.4237 48.6414 30.2324 47.854 35.1758 45.2463C39.9322 42.7365 43.7773 38.6219 45.9561 33.6992C48.223 28.5786 48.618 22.7001 47.0721 17.3181C45.5813 12.1259 42.3091 7.52213 37.9166 4.38784C28.7336 -2.16545 15.835 -1.28927 7.60595 6.42063C2.78298 10.9387 0 17.3573 0 23.9712ZM12.5029 22.6731L19.2057 15.9625C20.8781 14.2873 23.4734 16.8852 21.7997 18.5604L18.4327 21.931H34.0005C35.111 21.931 36.0381 22.8599 36.0381 23.9718C36.0381 25.0837 35.111 26.0125 34.0005 26.0125H18.3551L21.656 29.3979C23.3065 31.089 20.688 33.663 19.0308 31.9639L12.4876 25.2545C11.7856 24.5357 11.7923 23.3846 12.5029 22.6731Z" fill="#7E8B9B" fill-opacity="0.5"/>
</svg>
