<svg width="48" height="48" viewBox="0 0 48 48" fill="none" xmlns="http://www.w3.org/2000/svg">
<path d="M48 23.9712C48 35.1552 39.9715 45.133 29.0389 47.4725C23.5763 48.6414 17.7676 47.854 12.8242 45.2463C8.06784 42.7365 4.22267 38.6219 2.04386 33.6992C-0.223003 28.5786 -0.618038 22.7001 0.927856 17.3181C2.41872 12.1259 5.6909 7.52213 10.0834 4.38784C19.2664 -2.16545 32.165 -1.28927 40.394 6.42063C45.217 10.9387 48 17.3573 48 23.9712ZM35.4971 22.6731L28.7943 15.9625C27.1219 14.2873 24.5266 16.8852 26.2003 18.5604L29.5673 21.931H13.9995C12.889 21.931 11.9619 22.8599 11.9619 23.9718C11.9619 25.0837 12.889 26.0125 13.9995 26.0125H29.6449L26.344 29.3979C24.6935 31.089 27.312 33.663 28.9692 31.9639L35.5124 25.2545C36.2144 24.5357 36.2077 23.3846 35.4971 22.6731Z" fill="#7E8B9B" fill-opacity="0.5"/>
</svg>
