<svg width="236" height="16" viewBox="0 0 236 16" fill="none" xmlns="http://www.w3.org/2000/svg">
<mask id="mask0_1_759" style="mask-type:luminance" maskUnits="userSpaceOnUse" x="0" y="0" width="236" height="16">
<path d="M236 0H0V16H236V0Z" fill="white"/>
</mask>
<g mask="url(#mask0_1_759)">
<g style="mix-blend-mode:hard-light" opacity="0.76" filter="url(#filter0_d_1_759)">
<path d="M3.5 6.25718V6.74904C3.5 6.97236 3.68103 7.15339 3.90434 7.15339H4.39619C4.6195 7.15339 4.80053 6.97236 4.80053 6.74904V6.25718C4.80053 6.03387 4.6195 5.85284 4.39619 5.85284H3.90434C3.68103 5.85284 3.5 6.03387 3.5 6.25718Z" fill="black"/>
<path d="M3.5 7.55771V8.04957C3.5 8.27288 3.68103 8.45391 3.90434 8.45391H4.39619C4.6195 8.45391 4.80052 8.27288 4.80052 8.04957V7.55771C4.80052 7.33439 4.6195 7.15339 4.39619 7.15339H3.90434C3.68103 7.15339 3.5 7.33439 3.5 7.55771Z" fill="black"/>
<path d="M3.5 8.85825V9.35011C3.5 9.57343 3.68103 9.75446 3.90434 9.75446H4.39619C4.6195 9.75446 4.80053 9.57343 4.80053 9.35011V8.85825C4.80053 8.63494 4.6195 8.45391 4.39619 8.45391H3.90434C3.68103 8.45391 3.5 8.63494 3.5 8.85825Z" fill="black"/>
<path d="M3.5 10.1588V10.6507C3.5 10.874 3.68103 11.055 3.90434 11.055H4.39619C4.6195 11.055 4.80052 10.874 4.80052 10.6507V10.1588C4.80052 9.93549 4.6195 9.75446 4.39619 9.75446H3.90434C3.68103 9.75446 3.5 9.93549 3.5 10.1588Z" fill="black"/>
<path d="M4.80065 4.95663V5.4485C4.80065 5.67181 4.98168 5.85284 5.20499 5.85284H5.69684C5.92015 5.85284 6.10117 5.67181 6.10117 5.4485V4.95663C6.10117 4.73332 5.92015 4.55229 5.69684 4.55229H5.20499C4.98168 4.55229 4.80065 4.73332 4.80065 4.95663Z" fill="black"/>
<path d="M4.8024 6.25718V6.74904C4.8024 6.97235 4.98343 7.15338 5.20674 7.15338H5.69859C5.9219 7.15338 6.10293 6.97235 6.10293 6.74904V6.25718C6.10293 6.03387 5.9219 5.85284 5.69859 5.85284H5.20674C4.98343 5.85284 4.8024 6.03387 4.8024 6.25718Z" fill="black"/>
<path d="M4.80052 7.55771V8.04957C4.80052 8.27288 4.98168 8.45391 5.20498 8.45391H5.69684C5.92015 8.45391 6.10117 8.27288 6.10117 8.04957V7.55771C6.10117 7.3344 5.92015 7.15337 5.69684 7.15337H5.20498C4.98168 7.15337 4.80052 7.33439 4.80052 7.55771Z" fill="black"/>
<path d="M4.80053 8.85825V9.35011C4.80053 9.57343 4.98168 9.75446 5.20498 9.75446H5.69684C5.92015 9.75446 6.10118 9.57343 6.10118 9.35012V8.85826C6.10118 8.63495 5.92015 8.45391 5.69684 8.45391H5.20498C4.98168 8.45391 4.80053 8.63494 4.80053 8.85825Z" fill="black"/>
<path d="M6.10086 4.95663V5.4485C6.10086 5.67181 6.28189 5.85284 6.5052 5.85284H6.99705C7.22036 5.85284 7.40138 5.67181 7.40138 5.4485V4.95663C7.40138 4.73332 7.22036 4.55229 6.99705 4.55229H6.5052C6.28189 4.55229 6.10086 4.73332 6.10086 4.95663Z" fill="black"/>
<path d="M6.10086 3.65609V4.14795C6.10086 4.37126 6.28189 4.55229 6.5052 4.55229H6.99705C7.22036 4.55229 7.40138 4.37126 7.40138 4.14795V3.65609C7.40138 3.43278 7.22036 3.25175 6.99705 3.25175H6.50519C6.28189 3.25175 6.10086 3.43278 6.10086 3.65609Z" fill="black"/>
<path d="M6.10261 6.25718V6.74904C6.10261 6.97235 6.28364 7.15338 6.50695 7.15338H6.99881C7.22211 7.15338 7.40314 6.97235 7.40314 6.74904V6.25718C7.40314 6.03387 7.22211 5.85284 6.99881 5.85284H6.50695C6.28364 5.85284 6.10261 6.03387 6.10261 6.25718Z" fill="black"/>
<path d="M7.40151 4.95487V5.44673C7.40151 5.67004 7.58254 5.85108 7.80584 5.85108H8.2977C8.52101 5.85108 8.70203 5.67004 8.70203 5.44673V4.95487C8.70203 4.73156 8.52101 4.55053 8.2977 4.55053H7.80584C7.58254 4.55053 7.40151 4.73156 7.40151 4.95487Z" fill="black"/>
<path d="M7.40326 3.65434V4.1462C7.40326 4.36951 7.58429 4.55054 7.8076 4.55054H8.29945C8.52276 4.55054 8.70379 4.36951 8.70379 4.1462V3.65434C8.70379 3.43103 8.52276 3.25 8.29945 3.25H7.8076C7.58429 3.25 7.40326 3.43103 7.40326 3.65434Z" fill="black"/>
<path d="M7.40326 6.25542V6.74728C7.40326 6.97059 7.58429 7.15162 7.8076 7.15162H8.29945C8.52276 7.15162 8.70379 6.97059 8.70379 6.74728V6.25542C8.70379 6.03211 8.52276 5.85108 8.29945 5.85108H7.8076C7.58429 5.85108 7.40326 6.03211 7.40326 6.25542Z" fill="black"/>
<path d="M8.70379 3.65434V4.1462C8.70379 4.36951 8.88494 4.55054 9.10825 4.55054H9.6001C9.82341 4.55054 10.0044 4.36951 10.0044 4.1462V3.65434C10.0044 3.43103 9.82341 3.25 9.6001 3.25H9.10825C8.88494 3.25 8.70379 3.43103 8.70379 3.65434Z" fill="black"/>
<path d="M4.94406 11.5136V11.8987C4.94406 12.0727 5.08511 12.2138 5.25912 12.2138H5.6442C5.81821 12.2138 5.95927 12.0727 5.95927 11.8987V11.5136C5.95927 11.3396 5.81821 11.1985 5.6442 11.1985H5.25912C5.08511 11.1985 4.94406 11.3396 4.94406 11.5136Z" fill="black"/>
<path d="M4.94406 10.2131V10.5982C4.94406 10.7722 5.08512 10.9132 5.25912 10.9132H5.6442C5.81821 10.9132 5.95927 10.7722 5.95927 10.5982V10.2131C5.95927 10.0391 5.81821 9.89799 5.6442 9.89799H5.25912C5.08512 9.89799 4.94406 10.0391 4.94406 10.2131Z" fill="black"/>
<path d="M6.35652 11.5574V11.8567C6.35652 11.992 6.46623 12.1017 6.60157 12.1017H6.90088C7.03622 12.1017 7.14593 11.992 7.14593 11.8567V11.5574C7.14593 11.422 7.03622 11.3123 6.90088 11.3123H6.60157C6.46623 11.3123 6.35652 11.422 6.35652 11.5574Z" fill="black"/>
<path d="M6.51044 12.9157V13.0977C6.51044 13.1809 6.57783 13.2483 6.66097 13.2483H6.84301C6.92614 13.2483 6.99354 13.1809 6.99354 13.0977V12.9157C6.99354 12.8325 6.92614 12.7651 6.84301 12.7651H6.66097C6.57783 12.7651 6.51044 12.8325 6.51044 12.9157Z" fill="black"/>
<path d="M6.10261 7.55771V8.04957C6.10261 8.27288 6.28364 8.45391 6.50695 8.45391H6.9988C7.22211 8.45391 7.40314 8.27288 7.40314 8.04957V7.55771C7.40314 7.3344 7.22211 7.15338 6.99881 7.15338H6.50695C6.28364 7.15338 6.10261 7.3344 6.10261 7.55771Z" fill="black"/>
<path d="M6.24469 8.91251V9.2976C6.24469 9.47161 6.38575 9.61267 6.55976 9.61267H6.94484C7.11885 9.61267 7.25991 9.47161 7.25991 9.2976V8.91251C7.25991 8.7385 7.11885 8.59744 6.94484 8.59744H6.55976C6.38575 8.59744 6.24469 8.7385 6.24469 8.91251Z" fill="black"/>
<path d="M6.24469 10.2131V10.5981C6.24469 10.7722 6.38575 10.9132 6.55976 10.9132H6.94484C7.11885 10.9132 7.25991 10.7722 7.25991 10.5981V10.2131C7.25991 10.039 7.11885 9.89799 6.94484 9.89799H6.55976C6.38575 9.89799 6.24469 10.039 6.24469 10.2131Z" fill="black"/>
<path d="M7.65713 11.5556V11.8549C7.65713 11.9903 7.76684 12.1 7.90218 12.1H8.2015C8.33683 12.1 8.44655 11.9903 8.44655 11.8549V11.5556C8.44655 11.4203 8.33683 11.3106 8.2015 11.3106H7.90218C7.76684 11.3106 7.65713 11.4203 7.65713 11.5556Z" fill="black"/>
<path d="M7.81109 12.9174V13.0995C7.81109 13.1826 7.87848 13.25 7.96162 13.25H8.14366C8.22679 13.25 8.29419 13.1826 8.29419 13.0995V12.9174C8.29419 12.8343 8.22679 12.7669 8.14366 12.7669H7.96162C7.87848 12.7669 7.81109 12.8343 7.81109 12.9174Z" fill="black"/>
<path d="M7.5449 7.61198V7.99707C7.5449 8.17108 7.68597 8.31214 7.85997 8.31214H8.24505C8.41906 8.31214 8.56012 8.17108 8.56012 7.99707V7.61198C8.56012 7.43797 8.41906 7.29691 8.24505 7.29691H7.85997C7.68597 7.29691 7.5449 7.43797 7.5449 7.61198Z" fill="black"/>
<path d="M7.54666 8.91251V9.2976C7.54666 9.47161 7.68772 9.61267 7.86172 9.61267H8.24681C8.42081 9.61267 8.56187 9.47161 8.56187 9.2976V8.91251C8.56187 8.7385 8.42081 8.59744 8.24681 8.59744H7.86172C7.68772 8.59744 7.54666 8.7385 7.54666 8.91251Z" fill="black"/>
<path d="M7.65713 10.2551V10.5544C7.65713 10.6897 7.76685 10.7994 7.90218 10.7994H8.2015C8.33683 10.7994 8.44655 10.6897 8.44655 10.5544V10.2551C8.44655 10.1197 8.33683 10.01 8.2015 10.01H7.90218C7.76685 10.01 7.65713 10.1197 7.65713 10.2551Z" fill="black"/>
<path d="M9.11169 11.6151V11.7972C9.11169 11.8803 9.17908 11.9477 9.26222 11.9477H9.44426C9.5274 11.9477 9.59479 11.8803 9.59479 11.7972V11.6151C9.59479 11.532 9.5274 11.4646 9.44426 11.4646H9.26222C9.17908 11.4646 9.11169 11.532 9.11169 11.6151Z" fill="black"/>
<path d="M9.11169 12.9157V13.0977C9.11169 13.1809 9.17908 13.2482 9.26222 13.2482H9.44426C9.52739 13.2482 9.59479 13.1809 9.59479 13.0977V12.9157C9.59479 12.8325 9.52739 12.7651 9.44426 12.7651H9.26222C9.17908 12.7651 9.11169 12.8325 9.11169 12.9157Z" fill="black"/>
<path d="M8.84731 5.0074V5.39248C8.84731 5.56649 8.98837 5.70755 9.16237 5.70755H9.54746C9.72146 5.70755 9.86252 5.56649 9.86252 5.39248V5.0074C9.86252 4.83339 9.72146 4.69232 9.54746 4.69232H9.16237C8.98837 4.69232 8.84731 4.83339 8.84731 5.0074Z" fill="black"/>
<path d="M8.84555 6.30969V6.69477C8.84555 6.86878 8.98661 7.00985 9.16062 7.00985H9.5457C9.71971 7.00985 9.86077 6.86878 9.86077 6.69477V6.30969C9.86077 6.13568 9.71971 5.99462 9.5457 5.99462H9.16062C8.98661 5.99462 8.84555 6.13568 8.84555 6.30969Z" fill="black"/>
<path d="M8.84555 7.61023V7.99532C8.84555 8.16933 8.98661 8.31039 9.16062 8.31039H9.5457C9.71971 8.31039 9.86077 8.16933 9.86077 7.99532V7.61023C9.86077 7.43622 9.71971 7.29516 9.5457 7.29516H9.16062C8.98661 7.29516 8.84555 7.43622 8.84555 7.61023Z" fill="black"/>
<path d="M8.95957 8.95452V9.25384C8.95957 9.38918 9.06928 9.4989 9.20462 9.4989H9.50393C9.63927 9.4989 9.74898 9.38918 9.74898 9.25384V8.95452C9.74898 8.81918 9.63927 8.70947 9.50393 8.70947H9.20462C9.06928 8.70947 8.95957 8.81918 8.95957 8.95452Z" fill="black"/>
<path d="M8.95957 10.2551V10.5544C8.95957 10.6897 9.06928 10.7994 9.20462 10.7994H9.50393C9.63927 10.7994 9.74899 10.6897 9.74899 10.5544V10.2551C9.74899 10.1197 9.63927 10.01 9.50393 10.01H9.20462C9.06928 10.01 8.95957 10.1197 8.95957 10.2551Z" fill="black"/>
<path d="M10.4141 11.6151V11.7972C10.4141 11.8803 10.4815 11.9477 10.5647 11.9477H10.7467C10.8298 11.9477 10.8972 11.8803 10.8972 11.7972V11.6151C10.8972 11.532 10.8298 11.4646 10.7467 11.4646H10.5647C10.4815 11.4646 10.4141 11.532 10.4141 11.6151Z" fill="black"/>
<path d="M10.4124 12.9157V13.0977C10.4124 13.1809 10.4798 13.2483 10.5629 13.2483H10.745C10.8281 13.2483 10.8955 13.1809 10.8955 13.0977V12.9157C10.8955 12.8325 10.8281 12.7651 10.745 12.7651H10.5629C10.4798 12.7651 10.4124 12.8325 10.4124 12.9157Z" fill="black"/>
<path d="M10.148 5.00916V5.39424C10.148 5.56825 10.289 5.70931 10.463 5.70931H10.8481C11.0221 5.70931 11.1632 5.56825 11.1632 5.39424V5.00916C11.1632 4.83515 11.0221 4.69408 10.8481 4.69408H10.463C10.289 4.69408 10.148 4.83515 10.148 5.00916Z" fill="black"/>
<path d="M10.148 3.70684V4.09192C10.148 4.26593 10.289 4.40699 10.463 4.40699H10.8481C11.0221 4.40699 11.1632 4.26593 11.1632 4.09192V3.70684C11.1632 3.53283 11.0221 3.39176 10.8481 3.39176H10.463C10.289 3.39176 10.148 3.53283 10.148 3.70684Z" fill="black"/>
<path d="M10.2598 6.35345V6.65276C10.2598 6.7881 10.3695 6.89782 10.5048 6.89782H10.8041C10.9395 6.89782 11.0492 6.7881 11.0492 6.65276V6.35345C11.0492 6.2181 10.9395 6.10839 10.8041 6.10839H10.5048C10.3695 6.10839 10.2598 6.2181 10.2598 6.35345Z" fill="black"/>
<path d="M10.2598 7.65399V7.95331C10.2598 8.08865 10.3695 8.19836 10.5048 8.19836H10.8041C10.9395 8.19836 11.0492 8.08865 11.0492 7.95331V7.65399C11.0492 7.51865 10.9395 7.40894 10.8041 7.40894H10.5048C10.3695 7.40894 10.2598 7.51865 10.2598 7.65399Z" fill="black"/>
<path d="M10.2598 8.95452V9.25384C10.2598 9.38918 10.3695 9.4989 10.5048 9.4989H10.8041C10.9395 9.4989 11.0492 9.38918 11.0492 9.25384V8.95452C11.0492 8.81918 10.9395 8.70947 10.8041 8.70947H10.5048C10.3695 8.70947 10.2598 8.81918 10.2598 8.95452Z" fill="black"/>
<path d="M10.4141 10.3146V10.4966C10.4141 10.5798 10.4815 10.6472 10.5647 10.6472H10.7467C10.8298 10.6472 10.8972 10.5798 10.8972 10.4966V10.3146C10.8972 10.2315 10.8298 10.1641 10.7467 10.1641H10.5647C10.4815 10.1641 10.4141 10.2315 10.4141 10.3146Z" fill="black"/>
<path d="M13.4982 10.4966V10.3146C13.4982 10.2315 13.4309 10.1641 13.3477 10.1641H13.1657C13.0825 10.1641 13.0151 10.2315 13.0151 10.3146V10.4966C13.0151 10.5798 13.0825 10.6472 13.1657 10.6472H13.3477C13.4309 10.6472 13.4982 10.5798 13.4982 10.4966Z" fill="black"/>
<path d="M13.4982 9.19433V9.01229C13.4982 8.92915 13.4309 8.86176 13.3477 8.86176H13.1657C13.0825 8.86176 13.0151 8.92915 13.0151 9.01229V9.19433C13.0151 9.27747 13.0825 9.34487 13.1657 9.34487H13.3477C13.4309 9.34487 13.4982 9.27747 13.4982 9.19433Z" fill="black"/>
<path d="M13.5 7.89379V7.71175C13.5 7.62861 13.4326 7.56121 13.3495 7.56121H13.1674C13.0843 7.56121 13.0169 7.62861 13.0169 7.71175V7.89379C13.0169 7.97692 13.0843 8.04432 13.1674 8.04432H13.3495C13.4326 8.04432 13.5 7.97692 13.5 7.89379Z" fill="black"/>
<path d="M13.4982 6.59325V6.41121C13.4982 6.32808 13.4309 6.26068 13.3477 6.26068H13.1657C13.0825 6.26068 13.0151 6.32808 13.0151 6.41121V6.59325C13.0151 6.67639 13.0825 6.74379 13.1657 6.74379H13.3477C13.4309 6.74379 13.4982 6.67639 13.4982 6.59325Z" fill="black"/>
<path d="M12.3515 5.35048V5.05116C12.3515 4.91582 12.2418 4.80611 12.1065 4.80611H11.8072C11.6718 4.80611 11.5621 4.91582 11.5621 5.05116V5.35048C11.5621 5.48582 11.6718 5.59554 11.8072 5.59554H12.1065C12.2418 5.59554 12.3515 5.48582 12.3515 5.35048Z" fill="black"/>
<path d="M12.1976 11.7972V11.6151C12.1976 11.532 12.1302 11.4646 12.0471 11.4646H11.865C11.7819 11.4646 11.7145 11.532 11.7145 11.6151V11.7972C11.7145 11.8803 11.7819 11.9477 11.865 11.9477H12.0471C12.1302 11.9477 12.1976 11.8803 12.1976 11.7972Z" fill="black"/>
<path d="M12.1976 10.4966V10.3146C12.1976 10.2315 12.1302 10.1641 12.0471 10.1641H11.865C11.7819 10.1641 11.7145 10.2315 11.7145 10.3146V10.4966C11.7145 10.5798 11.7819 10.6472 11.865 10.6472H12.0471C12.1302 10.6472 12.1976 10.5798 12.1976 10.4966Z" fill="black"/>
<path d="M12.1976 9.1961V9.01406C12.1976 8.93092 12.1302 8.86352 12.0471 8.86352H11.865C11.7819 8.86352 11.7145 8.93092 11.7145 9.01406V9.1961C11.7145 9.27923 11.7819 9.34663 11.865 9.34663H12.0471C12.1302 9.34663 12.1976 9.27923 12.1976 9.1961Z" fill="black"/>
<path d="M12.1976 7.89379V7.71175C12.1976 7.62861 12.1302 7.56121 12.0471 7.56121H11.865C11.7819 7.56121 11.7145 7.62861 11.7145 7.71175V7.89379C11.7145 7.97692 11.7819 8.04432 11.865 8.04432H12.0471C12.1302 8.04432 12.1976 7.97692 12.1976 7.89379Z" fill="black"/>
<path d="M12.3515 6.651V6.35168C12.3515 6.21634 12.2418 6.10663 12.1065 6.10663H11.8072C11.6718 6.10663 11.5621 6.21634 11.5621 6.35168V6.651C11.5621 6.78634 11.6718 6.89606 11.8072 6.89606H12.1065C12.2418 6.89606 12.3515 6.78634 12.3515 6.651Z" fill="black"/>
</g>
<g style="mix-blend-mode:hard-light" opacity="0.76" filter="url(#filter1_d_1_759)">
<path d="M24.6836 11H25.8626V8.78123H28.1556V7.84773H25.8626V6.33593H28.3746V5.36333H24.6836V11ZM30.0936 6.03913C30.4446 6.03913 30.7336 5.75783 30.7336 5.40623C30.7336 5.05083 30.4446 4.76953 30.0936 4.76953C29.7416 4.76953 29.4486 5.05083 29.4486 5.40623C29.4486 5.75783 29.7416 6.03913 30.0936 6.03913ZM29.5186 11H30.6596V6.69923H29.5186V11ZM31.9676 11H33.1086V8.51173C33.1086 7.92973 33.4286 7.55083 33.9566 7.55083C34.4956 7.55083 34.7456 7.87113 34.7456 8.47663V11H35.8856V8.21883C35.8856 7.19143 35.3706 6.60553 34.4136 6.60553C33.7996 6.60553 33.3746 6.89843 33.1786 7.36333H33.1086V6.69923H31.9676V11ZM38.6866 11.0664C39.2916 11.0664 39.7496 10.7969 39.9716 10.332H40.0416V11H41.1826V5.05473H40.0416V7.38673H39.9716C39.7566 6.91803 39.2766 6.62893 38.6866 6.62893C37.5966 6.62893 36.9406 7.46093 36.9406 8.84383V8.85163C36.9406 10.2266 37.6126 11.0664 38.6866 11.0664ZM39.0736 10.1211C38.4716 10.1211 38.1006 9.64453 38.1006 8.85163V8.84383C38.1006 8.05863 38.4716 7.57423 39.0736 7.57423C39.6746 7.57423 40.0536 8.05863 40.0536 8.84773V8.85553C40.0536 9.64453 39.6786 10.1211 39.0736 10.1211ZM44.4126 11.0898C45.6706 11.0898 46.2256 10.3633 46.3586 9.82423L46.3666 9.78523H45.3036L45.2916 9.80863C45.2136 9.97273 44.9366 10.2383 44.4366 10.2383C43.8306 10.2383 43.4516 9.82813 43.4406 9.12113H46.4016V8.76563C46.4016 7.46483 45.6196 6.60553 44.3666 6.60553C43.1126 6.60553 42.3116 7.48443 42.3116 8.85163V8.85553C42.3116 10.2344 43.1046 11.0898 44.4126 11.0898ZM44.3856 7.46093C44.8816 7.46093 45.2376 7.78123 45.3076 8.40623H43.4516C43.5226 7.79693 43.8896 7.46093 44.3856 7.46093ZM47.4946 11H48.6356V8.59383C48.6356 7.98443 49.0456 7.61333 49.6946 7.61333C49.8696 7.61333 50.0456 7.64063 50.2176 7.67973V6.68363C50.1046 6.65233 49.9446 6.62893 49.7916 6.62893C49.2336 6.62893 48.8426 6.90233 48.7056 7.36723H48.6356V6.69923H47.4946V11Z" fill="black"/>
</g>
<g style="mix-blend-mode:hard-light" opacity="0.76" filter="url(#filter2_d_1_759)">
<path d="M63.707 11H64.582V8.64061H67.004V7.90231H64.582V6.11721H67.227V5.36331H63.707V11ZM68.707 6.00001C68.996 6.00001 69.238 5.76171 69.238 5.47271C69.238 5.17971 68.996 4.94141 68.707 4.94141C68.414 4.94141 68.176 5.17971 68.176 5.47271C68.176 5.76171 68.414 6.00001 68.707 6.00001ZM68.281 11H69.125V6.7578H68.281V11ZM70.398 11H71.246V5.09381H70.398V11ZM74.289 11.082C75.375 11.082 75.961 10.457 76.102 9.89841L76.109 9.86331L75.293 9.86721L75.277 9.89841C75.176 10.1172 74.852 10.3867 74.309 10.3867C73.609 10.3867 73.164 9.91411 73.148 9.10161H76.156V8.80471C76.156 7.53121 75.43 6.67581 74.246 6.67581C73.062 6.67581 72.297 7.56251 72.297 8.88671V8.89061C72.297 10.2344 73.047 11.082 74.289 11.082ZM74.25 7.37111C74.824 7.37111 75.25 7.73831 75.316 8.49611H73.16C73.234 7.76561 73.672 7.37111 74.25 7.37111Z" fill="black"/>
</g>
<g style="mix-blend-mode:hard-light" opacity="0.76" filter="url(#filter3_d_1_759)">
<path d="M89.707 11H93.285V10.2461H90.582V8.49221H93.141V7.76561H90.582V6.11721H93.285V5.36331H89.707V11ZM96 11.0703C96.594 11.0703 97.059 10.7969 97.305 10.332H97.371V11H98.215V5.09381H97.371V7.42971H97.305C97.078 6.97271 96.582 6.68361 96 6.68361C94.922 6.68361 94.242 7.53121 94.242 8.87501V8.8828C94.242 10.2148 94.934 11.0703 96 11.0703ZM96.242 10.3477C95.531 10.3477 95.105 9.793 95.105 8.8828V8.87501C95.105 7.96481 95.531 7.41021 96.242 7.41021C96.945 7.41021 97.383 7.96881 97.383 8.87501V8.8828C97.383 9.7891 96.949 10.3477 96.242 10.3477ZM99.918 6.00001C100.207 6.00001 100.449 5.76171 100.449 5.47271C100.449 5.17971 100.207 4.94141 99.918 4.94141C99.625 4.94141 99.387 5.17971 99.387 5.47271C99.387 5.76171 99.625 6.00001 99.918 6.00001ZM99.492 11H100.336V6.7578H99.492V11ZM103.172 11.0273C103.336 11.0273 103.492 11.0078 103.629 10.9844V10.3086C103.512 10.3203 103.438 10.3242 103.309 10.3242C102.891 10.3242 102.719 10.1367 102.719 9.67971V7.42581H103.629V6.7578H102.719V5.68751H101.855V6.7578H101.191V7.42581H101.855V9.8828C101.855 10.6992 102.238 11.0273 103.172 11.0273Z" fill="black"/>
</g>
<g style="mix-blend-mode:hard-light" opacity="0.76" filter="url(#filter4_d_1_759)">
<path d="M119.281 11H120.246L122.254 5.36331H121.305L119.797 9.9453H119.73L118.223 5.36331H117.273L119.281 11ZM123.582 6.00001C123.871 6.00001 124.113 5.76171 124.113 5.47271C124.113 5.17971 123.871 4.94141 123.582 4.94141C123.289 4.94141 123.051 5.17971 123.051 5.47271C123.051 5.76171 123.289 6.00001 123.582 6.00001ZM123.156 11H124V6.7578H123.156V11ZM127.016 11.082C128.102 11.082 128.688 10.457 128.828 9.89841L128.836 9.86331L128.02 9.86721L128.004 9.89841C127.902 10.1172 127.578 10.3867 127.035 10.3867C126.336 10.3867 125.891 9.91411 125.875 9.10161H128.883V8.80471C128.883 7.53121 128.156 6.67581 126.973 6.67581C125.789 6.67581 125.023 7.56251 125.023 8.88671V8.89061C125.023 10.2344 125.773 11.082 127.016 11.082ZM126.977 7.37111C127.551 7.37111 127.977 7.73831 128.043 8.49611H125.887C125.961 7.76561 126.398 7.37111 126.977 7.37111ZM130.676 11H131.539L132.414 7.83591H132.48L133.359 11H134.23L135.398 6.7578H134.559L133.801 10.0312H133.734L132.859 6.7578H132.055L131.18 10.0312H131.117L130.355 6.7578H129.504L130.676 11Z" fill="black"/>
</g>
<g style="mix-blend-mode:hard-light" opacity="0.76" filter="url(#filter5_d_1_759)">
<path d="M151.082 11.1367C152.559 11.1367 153.516 10.2109 153.516 8.78116V8.08196H151.203V8.78906H152.652V8.91406C152.645 9.78116 152.016 10.3633 151.094 10.3633C150.035 10.3633 149.371 9.52726 149.371 8.17966V8.17186C149.371 6.84376 150.031 5.99996 151.074 5.99996C151.848 5.99996 152.387 6.37496 152.59 7.04296L152.602 7.08196H153.477L153.469 7.04296C153.266 5.95306 152.355 5.22656 151.074 5.22656C149.496 5.22656 148.477 6.38666 148.477 8.17576V8.18356C148.477 9.99606 149.484 11.1367 151.082 11.1367ZM156.422 11.082C157.664 11.082 158.426 10.25 158.426 8.88276V8.87496C158.426 7.50776 157.66 6.67576 156.422 6.67576C155.18 6.67576 154.414 7.51166 154.414 8.87496V8.88276C154.414 10.25 155.176 11.082 156.422 11.082ZM156.422 10.375C155.691 10.375 155.281 9.82416 155.281 8.88276V8.87496C155.281 7.93356 155.691 7.38276 156.422 7.38276C157.148 7.38276 157.562 7.93356 157.562 8.87496V8.88276C157.562 9.82026 157.148 10.375 156.422 10.375Z" fill="black"/>
</g>
<g style="mix-blend-mode:hard-light" opacity="0.76" filter="url(#filter6_d_1_759)">
<path d="M172.867 11H173.695L174.902 6.78521H174.957L176.168 11H176.992L178.516 5.36331H177.605L176.574 9.74611H176.52L175.336 5.36331H174.523L173.348 9.74611H173.293L172.258 5.36331H171.348L172.867 11ZM179.918 6.00001C180.207 6.00001 180.449 5.76171 180.449 5.47271C180.449 5.17971 180.207 4.94141 179.918 4.94141C179.625 4.94141 179.387 5.17971 179.387 5.47271C179.387 5.76171 179.625 6.00001 179.918 6.00001ZM179.492 11H180.336V6.7578H179.492V11ZM181.57 11H182.418V8.51171C182.418 7.82811 182.805 7.40231 183.426 7.40231C184.047 7.40231 184.34 7.75001 184.34 8.45311V11H185.184V8.25391C185.184 7.24221 184.66 6.67581 183.711 6.67581C183.094 6.67581 182.688 6.94921 182.48 7.40231H182.418V6.7578H181.57V11ZM187.914 11.0703C188.508 11.0703 188.973 10.7969 189.219 10.332H189.285V11H190.129V5.09381H189.285V7.42971H189.219C188.992 6.97271 188.496 6.68361 187.914 6.68361C186.836 6.68361 186.156 7.53121 186.156 8.87501V8.8828C186.156 10.2148 186.848 11.0703 187.914 11.0703ZM188.156 10.3477C187.445 10.3477 187.02 9.793 187.02 8.8828V8.87501C187.02 7.96481 187.445 7.41021 188.156 7.41021C188.859 7.41021 189.297 7.96881 189.297 8.87501V8.8828C189.297 9.7891 188.863 10.3477 188.156 10.3477ZM193.188 11.082C194.43 11.082 195.191 10.25 195.191 8.8828V8.87501C195.191 7.50781 194.426 6.67581 193.188 6.67581C191.945 6.67581 191.18 7.51171 191.18 8.87501V8.8828C191.18 10.25 191.941 11.082 193.188 11.082ZM193.188 10.375C192.457 10.375 192.047 9.8242 192.047 8.8828V8.87501C192.047 7.93361 192.457 7.3828 193.188 7.3828C193.914 7.3828 194.328 7.93361 194.328 8.87501V8.8828C194.328 9.8203 193.914 10.375 193.188 10.375ZM196.855 11H197.719L198.594 7.83591H198.66L199.539 11H200.41L201.578 6.7578H200.738L199.98 10.0312H199.914L199.039 6.7578H198.234L197.359 10.0312H197.297L196.535 6.7578H195.684L196.855 11Z" fill="black"/>
</g>
<g style="mix-blend-mode:hard-light" opacity="0.76" filter="url(#filter7_d_1_759)">
<path d="M214.707 11H215.582V8.50385H218.477V11H219.348V5.36325H218.477V7.74605H215.582V5.36325H214.707V11ZM222.445 11.082C223.531 11.082 224.117 10.4569 224.258 9.89835L224.266 9.86325L223.449 9.86715L223.434 9.89835C223.332 10.1171 223.008 10.3867 222.465 10.3867C221.766 10.3867 221.32 9.91405 221.305 9.10155H224.312V8.80465C224.312 7.53115 223.586 6.67575 222.402 6.67575C221.219 6.67575 220.453 7.56245 220.453 8.88665V8.89055C220.453 10.2344 221.203 11.082 222.445 11.082ZM222.406 7.37105C222.98 7.37105 223.406 7.73825 223.473 8.49605H221.316C221.391 7.76555 221.828 7.37105 222.406 7.37105ZM225.359 11H226.207V5.09375H225.359V11ZM227.469 12.4141H228.316V10.3281H228.379C228.605 10.7852 229.102 11.0702 229.684 11.0702C230.762 11.0702 231.441 10.2265 231.441 8.88275V8.87495C231.441 7.53905 230.754 6.68355 229.684 6.68355C229.09 6.68355 228.625 6.96085 228.379 7.42575H228.316V6.75775H227.469V12.4141ZM229.445 10.3477C228.738 10.3477 228.301 9.78905 228.301 8.88275V8.87495C228.301 7.96875 228.738 7.41015 229.445 7.41015C230.152 7.41015 230.578 7.96085 230.578 8.87495V8.88275C230.578 9.79295 230.152 10.3477 229.445 10.3477Z" fill="black"/>
</g>
</g>
<defs>
<filter id="filter0_d_1_759" x="0.73714" y="1.86857" width="15.5257" height="15.5257" filterUnits="userSpaceOnUse" color-interpolation-filters="sRGB">
<feFlood flood-opacity="0" result="BackgroundImageFix"/>
<feColorMatrix in="SourceAlpha" type="matrix" values="0 0 0 0 0 0 0 0 0 0 0 0 0 0 0 0 0 0 127 0" result="hardAlpha"/>
<feOffset dy="1.38143"/>
<feGaussianBlur stdDeviation="1.38143"/>
<feColorMatrix type="matrix" values="0 0 0 0 0 0 0 0 0 0 0 0 0 0 0 0 0 0 0.15 0"/>
<feBlend mode="normal" in2="BackgroundImageFix" result="effect1_dropShadow_1_759"/>
<feBlend mode="normal" in="SourceGraphic" in2="effect1_dropShadow_1_759" result="shape"/>
</filter>
<filter id="filter1_d_1_759" x="21.9207" y="3.3881" width="31.0597" height="11.846" filterUnits="userSpaceOnUse" color-interpolation-filters="sRGB">
<feFlood flood-opacity="0" result="BackgroundImageFix"/>
<feColorMatrix in="SourceAlpha" type="matrix" values="0 0 0 0 0 0 0 0 0 0 0 0 0 0 0 0 0 0 127 0" result="hardAlpha"/>
<feOffset dy="1.38143"/>
<feGaussianBlur stdDeviation="1.38143"/>
<feColorMatrix type="matrix" values="0 0 0 0 0 0 0 0 0 0 0 0 0 0 0 0 0 0 0.15 0"/>
<feBlend mode="normal" in2="BackgroundImageFix" result="effect1_dropShadow_1_759"/>
<feBlend mode="normal" in="SourceGraphic" in2="effect1_dropShadow_1_759" result="shape"/>
</filter>
<filter id="filter2_d_1_759" x="60.9442" y="3.55998" width="17.9747" height="11.6663" filterUnits="userSpaceOnUse" color-interpolation-filters="sRGB">
<feFlood flood-opacity="0" result="BackgroundImageFix"/>
<feColorMatrix in="SourceAlpha" type="matrix" values="0 0 0 0 0 0 0 0 0 0 0 0 0 0 0 0 0 0 127 0" result="hardAlpha"/>
<feOffset dy="1.38143"/>
<feGaussianBlur stdDeviation="1.38143"/>
<feColorMatrix type="matrix" values="0 0 0 0 0 0 0 0 0 0 0 0 0 0 0 0 0 0 0.15 0"/>
<feBlend mode="normal" in2="BackgroundImageFix" result="effect1_dropShadow_1_759"/>
<feBlend mode="normal" in="SourceGraphic" in2="effect1_dropShadow_1_759" result="shape"/>
</filter>
<filter id="filter3_d_1_759" x="86.9442" y="3.55998" width="19.4477" height="11.6546" filterUnits="userSpaceOnUse" color-interpolation-filters="sRGB">
<feFlood flood-opacity="0" result="BackgroundImageFix"/>
<feColorMatrix in="SourceAlpha" type="matrix" values="0 0 0 0 0 0 0 0 0 0 0 0 0 0 0 0 0 0 127 0" result="hardAlpha"/>
<feOffset dy="1.38143"/>
<feGaussianBlur stdDeviation="1.38143"/>
<feColorMatrix type="matrix" values="0 0 0 0 0 0 0 0 0 0 0 0 0 0 0 0 0 0 0.15 0"/>
<feBlend mode="normal" in2="BackgroundImageFix" result="effect1_dropShadow_1_759"/>
<feBlend mode="normal" in="SourceGraphic" in2="effect1_dropShadow_1_759" result="shape"/>
</filter>
<filter id="filter4_d_1_759" x="114.511" y="3.55998" width="23.6507" height="11.6663" filterUnits="userSpaceOnUse" color-interpolation-filters="sRGB">
<feFlood flood-opacity="0" result="BackgroundImageFix"/>
<feColorMatrix in="SourceAlpha" type="matrix" values="0 0 0 0 0 0 0 0 0 0 0 0 0 0 0 0 0 0 127 0" result="hardAlpha"/>
<feOffset dy="1.38143"/>
<feGaussianBlur stdDeviation="1.38143"/>
<feColorMatrix type="matrix" values="0 0 0 0 0 0 0 0 0 0 0 0 0 0 0 0 0 0 0.15 0"/>
<feBlend mode="normal" in2="BackgroundImageFix" result="effect1_dropShadow_1_759"/>
<feBlend mode="normal" in="SourceGraphic" in2="effect1_dropShadow_1_759" result="shape"/>
</filter>
<filter id="filter5_d_1_759" x="145.714" y="3.84513" width="15.4747" height="11.4359" filterUnits="userSpaceOnUse" color-interpolation-filters="sRGB">
<feFlood flood-opacity="0" result="BackgroundImageFix"/>
<feColorMatrix in="SourceAlpha" type="matrix" values="0 0 0 0 0 0 0 0 0 0 0 0 0 0 0 0 0 0 127 0" result="hardAlpha"/>
<feOffset dy="1.38143"/>
<feGaussianBlur stdDeviation="1.38143"/>
<feColorMatrix type="matrix" values="0 0 0 0 0 0 0 0 0 0 0 0 0 0 0 0 0 0 0.15 0"/>
<feBlend mode="normal" in2="BackgroundImageFix" result="effect1_dropShadow_1_759"/>
<feBlend mode="normal" in="SourceGraphic" in2="effect1_dropShadow_1_759" result="shape"/>
</filter>
<filter id="filter6_d_1_759" x="168.585" y="3.55998" width="35.7557" height="11.6663" filterUnits="userSpaceOnUse" color-interpolation-filters="sRGB">
<feFlood flood-opacity="0" result="BackgroundImageFix"/>
<feColorMatrix in="SourceAlpha" type="matrix" values="0 0 0 0 0 0 0 0 0 0 0 0 0 0 0 0 0 0 127 0" result="hardAlpha"/>
<feOffset dy="1.38143"/>
<feGaussianBlur stdDeviation="1.38143"/>
<feColorMatrix type="matrix" values="0 0 0 0 0 0 0 0 0 0 0 0 0 0 0 0 0 0 0.15 0"/>
<feBlend mode="normal" in2="BackgroundImageFix" result="effect1_dropShadow_1_759"/>
<feBlend mode="normal" in="SourceGraphic" in2="effect1_dropShadow_1_759" result="shape"/>
</filter>
<filter id="filter7_d_1_759" x="211.944" y="3.71232" width="22.2597" height="12.846" filterUnits="userSpaceOnUse" color-interpolation-filters="sRGB">
<feFlood flood-opacity="0" result="BackgroundImageFix"/>
<feColorMatrix in="SourceAlpha" type="matrix" values="0 0 0 0 0 0 0 0 0 0 0 0 0 0 0 0 0 0 127 0" result="hardAlpha"/>
<feOffset dy="1.38143"/>
<feGaussianBlur stdDeviation="1.38143"/>
<feColorMatrix type="matrix" values="0 0 0 0 0 0 0 0 0 0 0 0 0 0 0 0 0 0 0.15 0"/>
<feBlend mode="normal" in2="BackgroundImageFix" result="effect1_dropShadow_1_759"/>
<feBlend mode="normal" in="SourceGraphic" in2="effect1_dropShadow_1_759" result="shape"/>
</filter>
</defs>
</svg>
