<svg preserveAspectRatio="none" width="100%" height="100%" overflow="visible" style="display: block;" viewBox="0 0 43 667" fill="none" xmlns="http://www.w3.org/2000/svg">
<g id="Icons">
<path id="Vector" d="M34.9362 13.5172L32.6221 25.1172C32.4031 26.2119 31.8128 27.1968 30.9516 27.9046C30.0903 28.6124 29.0112 28.9995 27.8976 29H4.82101C3.5424 29 2.31615 28.4908 1.41204 27.5844C0.507926 26.6779 0 25.4485 0 24.1667V4.83333C0 3.55145 0.507926 2.32208 1.41204 1.41565C2.31615 0.509225 3.5424 0 4.82101 0H11.249C11.564 0.00246633 11.8714 0.09771 12.1329 0.273889L16.5521 3.22222H25.712C26.9906 3.22222 28.2169 3.73145 29.121 4.63787C29.6427 5.16096 30.0326 5.7916 30.269 6.47782C30.558 7.31695 29.8136 8.05556 28.926 8.05556H28.5838C27.8853 8.05556 27.3416 7.41087 26.8484 6.91633C26.547 6.61419 26.1382 6.44444 25.712 6.44444H16.07C15.755 6.44198 15.4476 6.34674 15.1862 6.17056L11.0189 3.39036C10.8546 3.28073 10.6615 3.22222 10.464 3.22222H4.82101C4.3948 3.22222 3.98605 3.39196 3.68468 3.69411C3.38331 3.99625 3.214 4.40604 3.214 4.83333V24.1667C3.214 24.594 3.38331 25.0038 3.68468 25.3059C3.98605 25.608 4.3948 25.7778 4.82101 25.7778C4.98919 25.7778 5.13398 25.659 5.16693 25.4941L7.55291 13.5494C7.77192 12.4548 8.36221 11.4698 9.22347 10.762C10.0847 10.0542 11.1638 9.66719 12.2775 9.66667H31.7865C32.2627 9.66548 32.7331 9.77038 33.1639 9.97378C33.5947 10.1772 33.975 10.474 34.2773 10.8428C34.5775 11.212 34.7923 11.6434 34.9062 12.1059C35.0202 12.5683 35.0304 13.0503 34.9362 13.5172Z" fill="var(--fill-0, #FF7F30)"/>
<path id="Vector_2" d="M28.1563 120H5.84375C2.62438 120 0 122.658 0 125.919V143.081C-6.0842e-07 146.342 2.62437 149 5.84375 149H28.1563C31.3756 149 34 146.342 34 143.081V125.919C34 122.658 31.3756 120 28.1563 120ZM30.8125 143.081C30.8125 144.566 29.6225 145.771 28.1563 145.771H5.84375C4.3775 145.771 3.1875 144.566 3.1875 143.081V129.683H30.8125V143.081ZM5.08658 124.054C5.68158 123.451 6.74408 123.451 7.33908 124.054C7.63658 124.355 7.80658 124.775 7.80658 125.195C7.80658 125.614 7.63658 126.034 7.33908 126.335C7.04158 126.637 6.6272 126.809 6.21283 126.809C5.79845 126.809 5.38408 126.637 5.08658 126.335C4.78908 126.034 4.61908 125.614 4.61908 125.195C4.61908 124.775 4.78908 124.355 5.08658 124.054ZM9.50674 124.054C10.1017 123.451 11.1642 123.451 11.7592 124.054C12.0567 124.355 12.2267 124.775 12.2267 125.195C12.2267 125.614 12.0567 126.034 11.7592 126.335C11.4617 126.637 11.0474 126.809 10.633 126.809C10.2186 126.809 9.80424 126.637 9.50674 126.335C9.20924 126.034 9.03924 125.614 9.03924 125.195C9.03924 124.775 9.20924 124.355 9.50674 124.054ZM13.9269 124.054C14.5219 123.451 15.5844 123.451 16.1794 124.054C16.4769 124.355 16.6469 124.775 16.6469 125.195C16.6469 125.614 16.4769 126.034 16.1794 126.335C15.8819 126.637 15.4675 126.809 15.0532 126.809C14.6388 126.809 14.2244 126.637 13.9269 126.335C13.6294 126.034 13.4594 125.614 13.4594 125.195C13.4594 124.775 13.6294 124.355 13.9269 124.054Z" fill="var(--fill-0, #FF7F30)"/>
<path id="Vector_3" d="M34.4867 282.218L28.8444 267.299C28.8429 267.296 28.8429 267.293 28.8415 267.29L28.84 267.289C28.0963 265.321 26.1756 264 24.0625 264C21.9494 264 20.0288 265.321 19.2835 267.29C19.0677 267.861 18.9583 268.463 18.9583 269.075V275.6H16.0417V269.075C16.0417 266.277 13.7521 264 10.9375 264C8.82437 264 6.90375 265.321 6.15854 267.29C6.15708 267.293 6.15708 267.296 6.15563 267.299L0.513333 282.213L0.511875 282.215C0.172083 283.115 0 284.059 0 285.025C0 289.423 3.59917 293 8.02083 293C12.4425 293 16.0417 289.423 16.0417 285.025V284.3H18.9583V285.025C18.9583 289.423 22.5575 293 26.9792 293C31.4008 293 35 289.423 35 285.025C35 284.059 34.8279 283.115 34.4867 282.218ZM8.02083 290.1C5.20625 290.1 2.91667 287.824 2.91667 285.025C2.91667 284.41 3.02604 283.808 3.24188 283.239C3.98563 281.272 5.90625 279.95 8.02083 279.95C10.8354 279.95 13.125 282.227 13.125 285.025C13.125 287.824 10.8354 290.1 8.02083 290.1ZM26.9792 290.1C24.1646 290.1 21.875 287.824 21.875 285.025C21.875 282.227 24.1646 279.95 26.9792 279.95C29.0938 279.95 31.0144 281.272 31.7581 283.239C31.974 283.808 32.0833 284.41 32.0833 285.025C32.0833 287.824 29.7938 290.1 26.9792 290.1Z" fill="var(--fill-0, #FF7F30)"/>
<g id="Vector_4">
<path d="M6.56452 416.28H23.7158C27.3442 416.28 30.2803 413.344 30.2803 409.716V392.565C30.2803 388.948 27.3442 386 23.7158 386H6.56452C2.94803 386 0 388.948 0 392.565V409.716C0 413.344 2.94803 416.28 6.56452 416.28ZM9.78711 399.356H13.3558V395.787C13.3558 394.796 14.1555 393.997 15.1461 393.997C16.1368 393.997 16.9365 394.796 16.9365 395.787V399.356H20.4932C21.4839 399.356 22.2835 400.155 22.2835 401.146C22.2835 402.137 21.4839 402.936 20.4932 402.936H16.9365V406.493C16.9365 407.484 16.1368 408.284 15.1461 408.284C14.1555 408.284 13.3558 407.484 13.3558 406.493V402.936H9.78711C8.79644 402.936 7.99679 402.137 7.99679 401.146C7.99679 400.155 8.79645 399.356 9.78711 399.356Z" fill="var(--fill-0, #FF7F30)"/>
<path d="M35.2097 399.352C34.2213 399.352 33.4194 400.153 33.4194 401.142V414.048C33.4194 417.01 31.0101 419.419 28.0484 419.419H15.142C14.153 419.419 13.3517 420.221 13.3517 421.21C13.3517 422.199 14.153 423 15.142 423H28.0484C32.9846 423 37 418.985 37 414.048V401.142C37 400.153 36.1981 399.352 35.2097 399.352Z" fill="var(--fill-0, #FF7F30)"/>
</g>
<path id="Vector_5" d="M8.58596 643.748C7.80468 642.968 7.80468 641.7 8.58596 640.92L11.2525 638.253C11.8258 637.68 12.6857 637.509 13.4323 637.82C14.1803 638.129 14.6669 638.859 14.6669 639.668V651.668C14.6669 652.773 13.771 653.668 12.667 653.668C11.5631 653.668 10.6672 652.773 10.6672 651.668V644.221C9.96454 644.469 9.14859 644.309 8.58596 643.748ZM27.9994 645.667V640.333C27.9994 637.392 30.3912 635 33.3324 635C36.2735 635 38.6654 637.392 38.6654 640.333V645.667C38.6654 648.608 36.2735 651 33.3324 651C30.3912 651 27.9994 648.608 27.9994 645.667ZM31.9991 645.667C31.9991 646.401 32.5964 647 33.3324 647C34.0683 647 34.6656 646.401 34.6656 645.667V640.333C34.6656 639.599 34.0683 639 33.3324 639C32.5964 639 31.9991 639.599 31.9991 640.333V645.667ZM16.0002 647V641.667C16.0002 638.725 18.392 636.333 21.3331 636.333C24.2743 636.333 26.6661 638.725 26.6661 641.667V647C26.6661 649.941 24.2743 652.333 21.3331 652.333C18.392 652.333 16.0002 649.941 16.0002 647ZM19.9999 647C19.9999 647.735 20.5972 648.333 21.3331 648.333C22.0691 648.333 22.6664 647.735 22.6664 647V641.667C22.6664 640.932 22.0691 640.333 21.3331 640.333C20.5972 640.333 19.9999 640.932 19.9999 641.667V647ZM39.964 653.959C39.7586 652.873 38.7014 652.16 37.6254 652.368L9.62723 657.701C8.54197 657.908 7.82868 658.955 8.03666 660.04C8.21932 660.999 9.05793 661.667 9.99921 661.667C10.1245 661.667 10.2499 661.655 10.3752 661.631L38.3734 656.297C39.4586 656.091 40.1719 655.044 39.964 653.959ZM37.6214 659.703L20.2892 663.036C19.2053 663.245 18.4933 664.293 18.704 665.377C18.888 666.335 19.7252 667 20.6652 667C20.7905 667 20.9172 666.988 21.0452 666.964L38.3774 663.631C39.4613 663.421 40.1733 662.373 39.9626 661.289C39.7546 660.205 38.7067 659.493 37.6214 659.703Z" fill="var(--fill-0, #FF7F30)"/>
<path id="Vector_6" d="M42.1561 538.841L37.5136 543.207C36.4022 544.33 34.8248 545 33.1399 545C31.455 545 29.8955 544.348 28.6946 543.134L24.1237 538.823C23.0303 537.791 22.9765 536.088 23.9983 534.983C25.02 533.878 26.7228 533.824 27.7983 534.856L30.4512 537.356V525.981C30.4512 523.481 28.4436 521.452 25.97 521.452H24.1775C22.6897 521.452 21.4888 520.239 21.4888 518.735C21.4888 517.232 22.6897 516.018 24.1775 516.018H25.97C31.4012 516.018 35.8286 520.492 35.8286 525.981V537.356L38.4815 534.856C39.557 533.824 41.2598 533.896 42.2816 534.983C43.2853 536.088 43.2316 537.791 42.1561 538.823V538.841ZM18.818 539.566H17.0255C14.5519 539.566 12.5443 537.537 12.5443 535.037V523.662L15.1972 526.162C15.717 526.651 16.3802 526.886 17.0255 526.886C17.7425 526.886 18.4595 526.597 18.9972 526.017C20.001 524.912 19.9472 523.209 18.8718 522.177L14.3009 517.866C13.1179 516.67 11.5405 516 9.85559 516C8.17065 516 6.6112 516.652 5.48193 517.793L0.857333 522.177C-0.23608 523.209 -0.289854 524.912 0.73186 526.017C1.75357 527.122 3.43851 527.176 4.53192 526.144L7.18479 523.644V535.019C7.18479 540.508 11.6122 544.982 17.0434 544.982H18.8359C20.3237 544.982 21.5246 543.768 21.5246 542.265C21.5246 540.761 20.3237 539.548 18.8359 539.548L18.818 539.566Z" fill="var(--fill-0, #FF7F30)"/>
</g>
</svg>
