<svg preserveAspectRatio="none" width="100%" height="100%" overflow="visible" style="display: block;" viewBox="0 0 47 47" fill="none" xmlns="http://www.w3.org/2000/svg">
<g id="&#208;&#146;&#209;&#139;&#209;&#136;&#208;&#181; &#209;&#129;&#209;&#128;&#208;&#181;&#208;&#180;&#208;&#189;&#208;&#181;&#208;&#179;&#208;&#190; &#208;&#183;&#208;&#189;&#208;&#176;&#209;&#135;&#208;&#181;&#208;&#189;&#208;&#184;&#208;&#181;">
<rect width="47" height="47" rx="23.5" fill="var(--fill-0, #4D6BFE)"/>
<path id="Vector" d="M36.7167 15.6786C36.4307 15.5376 36.3076 15.8064 36.1403 15.9429C36.0831 15.987 36.0347 16.0442 35.9863 16.0971C35.5683 16.5464 35.0799 16.8417 34.4419 16.8064C33.5091 16.7535 32.7127 17.0487 32.0087 17.7669C31.8591 16.8813 31.3619 16.3526 30.6051 16.0134C30.2091 15.8371 29.8087 15.6609 29.5314 15.2775C29.3378 15.0045 29.285 14.7005 29.1882 14.4008C29.1266 14.2202 29.065 14.0351 28.8582 14.0043C28.6338 13.9691 28.5458 14.1584 28.4578 14.3171C28.1058 14.9648 27.9694 15.6786 27.9826 16.4011C28.0134 18.0269 28.6954 19.3221 30.0506 20.243C30.2046 20.3487 30.2442 20.4544 30.1958 20.6087C30.1034 20.9259 29.9934 21.2343 29.8966 21.5515C29.835 21.7542 29.7425 21.7983 29.527 21.7101C28.7834 21.3973 28.1409 20.9347 27.5733 20.3752C26.6097 19.4367 25.7385 18.4014 24.6517 17.5907C24.3965 17.4012 24.1413 17.2251 23.8773 17.0575C22.7684 15.9738 24.0225 15.0837 24.3129 14.9781C24.6165 14.8679 24.4185 14.4889 23.4373 14.4934C22.456 14.4978 21.5584 14.8283 20.4144 15.2688C20.2473 15.3349 20.0712 15.3833 19.8908 15.423C18.8524 15.2248 17.7744 15.1806 16.648 15.3085C14.5271 15.5464 12.8331 16.5553 11.5879 18.278C10.092 20.3487 9.73996 22.7014 10.1712 25.1555C10.6244 27.7416 11.9356 29.8828 13.9508 31.5571C16.0409 33.2929 18.4477 34.1433 21.1933 33.9803C22.861 33.8834 24.7178 33.6587 26.8122 31.8743C27.3402 32.1387 27.8946 32.2444 28.8142 32.3237C29.5227 32.3898 30.2047 32.2885 30.7327 32.1784C31.5599 32.0021 31.5027 31.2311 31.2035 31.0901C28.7791 29.9534 29.3114 30.416 28.8275 30.0415C30.0595 28.5744 31.9163 27.0499 32.6423 22.111C32.6995 21.7189 32.6511 21.4721 32.6423 21.1549C32.6379 20.9611 32.6819 20.8863 32.9019 20.8642C33.5091 20.7937 34.0987 20.6263 34.6399 20.3267C36.2108 19.4632 36.8443 18.0445 36.9939 16.3439C37.016 16.0839 36.9896 15.8151 36.7167 15.6786ZM23.0281 30.9843C20.6785 29.1251 19.5389 28.5127 19.0681 28.5391C18.6281 28.5656 18.7073 29.0722 18.8041 29.4027C18.9053 29.7287 19.0373 29.9534 19.2221 30.2398C19.3497 30.4292 19.4377 30.7111 19.0945 30.9227C18.3377 31.3941 17.0221 30.764 16.9604 30.7332C15.4293 29.8256 14.1488 28.6272 13.2468 26.9883C12.3756 25.4109 11.8696 23.7192 11.786 21.9128C11.764 21.4766 11.8916 21.3223 12.3228 21.2431C12.8904 21.1374 13.4756 21.1153 14.0432 21.199C16.4413 21.5515 18.4829 22.6309 20.1945 24.3404C21.1713 25.314 21.9105 26.4772 22.6717 27.6139C23.4813 28.821 24.3525 29.971 25.4613 30.9138C25.8529 31.2443 26.1653 31.4954 26.4645 31.6805C25.5626 31.7818 24.0577 31.8039 23.0281 30.9843ZM24.1545 23.6927C24.1545 23.4989 24.3086 23.3447 24.5022 23.3447C24.5462 23.3447 24.5858 23.3534 24.621 23.3666C24.6694 23.3843 24.7134 23.4108 24.7486 23.4503C24.8103 23.5121 24.8454 23.6001 24.8454 23.6927C24.8454 23.8865 24.6914 24.0407 24.4979 24.0407C24.3043 24.0407 24.1545 23.8866 24.1545 23.6927ZM27.6526 25.4991C27.4282 25.5917 27.2038 25.6709 26.9882 25.6797C26.6538 25.6973 26.2886 25.5607 26.0906 25.3933C25.7826 25.1334 25.5626 24.988 25.4702 24.5342C25.4306 24.3404 25.4526 24.0407 25.4879 23.869C25.567 23.4989 25.479 23.261 25.2195 23.045C25.0082 22.8688 24.7398 22.8204 24.445 22.8204C24.335 22.8204 24.2339 22.7719 24.159 22.7322C24.0358 22.6706 23.9347 22.5164 24.0314 22.3269C24.0622 22.2653 24.2119 22.1154 24.2471 22.089C24.6475 21.8599 25.1095 21.9348 25.5363 22.1066C25.9323 22.2696 26.2315 22.5693 26.6627 22.9922C27.1027 23.5032 27.1819 23.6443 27.4327 24.0275C27.6308 24.3272 27.8112 24.6355 27.9343 24.988C28.0091 25.2084 27.9122 25.389 27.6526 25.4991Z" fill="var(--fill-0, white)"/>
</g>
</svg>
