<svg width="64" height="64" viewBox="0 0 64 64" fill="none" xmlns="http://www.w3.org/2000/svg">
<rect width="64" height="64" rx="32" fill="#FF7F30"/>
<path d="M14.2422 24.8259V26.5966C14.2422 27.4005 14.9011 28.0522 15.714 28.0522H17.5044C18.3172 28.0522 18.9762 27.4005 18.9762 26.5966V24.8259C18.9762 24.0219 18.3172 23.3702 17.5044 23.3702H15.714C14.9011 23.3702 14.2422 24.0219 14.2422 24.8259Z" fill="white"/>
<path d="M14.2422 29.5077V31.2784C14.2422 32.0824 14.9011 32.7341 15.714 32.7341H17.5044C18.3172 32.7341 18.9762 32.0824 18.9762 31.2784V29.5077C18.9762 28.7038 18.3172 28.0522 17.5044 28.0522H15.714C14.9011 28.0522 14.2422 28.7038 14.2422 29.5077Z" fill="white"/>
<path d="M14.2422 34.1897V35.9604C14.2422 36.7643 14.9011 37.416 15.714 37.416H17.5044C18.3172 37.416 18.9762 36.7643 18.9762 35.9604V34.1897C18.9762 33.3858 18.3172 32.7341 17.5044 32.7341H15.714C14.9011 32.7341 14.2422 33.3858 14.2422 34.1897Z" fill="white"/>
<path d="M14.2422 38.8717V40.6424C14.2422 41.4463 14.9011 42.098 15.714 42.098H17.5044C18.3172 42.098 18.9762 41.4463 18.9762 40.6424V38.8717C18.9762 38.0678 18.3172 37.416 17.5044 37.416H15.714C14.9011 37.416 14.2422 38.0678 14.2422 38.8717Z" fill="white"/>
<path d="M18.9766 20.1439V21.9146C18.9766 22.7185 19.6356 23.3702 20.4484 23.3702H22.2388C23.0517 23.3702 23.7106 22.7185 23.7106 21.9146V20.1439C23.7106 19.34 23.0517 18.6883 22.2388 18.6883H20.4484C19.6356 18.6883 18.9766 19.34 18.9766 20.1439Z" fill="white"/>
<path d="M18.983 24.8258V26.5965C18.983 27.4005 19.642 28.0522 20.4548 28.0522H22.2452C23.0581 28.0522 23.717 27.4005 23.717 26.5965V24.8258C23.717 24.0219 23.0581 23.3702 22.2452 23.3702H20.4548C19.642 23.3702 18.983 24.0219 18.983 24.8258Z" fill="white"/>
<path d="M18.9762 29.5077V31.2784C18.9762 32.0824 19.6356 32.7341 20.4484 32.7341H22.2388C23.0517 32.7341 23.7106 32.0824 23.7106 31.2785V29.5078C23.7106 28.7038 23.0517 28.0521 22.2388 28.0521H20.4484C19.6356 28.0521 18.9762 28.7038 18.9762 29.5077Z" fill="white"/>
<path d="M18.9762 34.1897V35.9604C18.9762 36.7643 19.6356 37.4161 20.4484 37.4161H22.2388C23.0517 37.4161 23.7106 36.7644 23.7106 35.9604V34.1897C23.7106 33.3858 23.0517 32.7341 22.2388 32.7341H20.4484C19.6356 32.7341 18.9762 33.3858 18.9762 34.1897Z" fill="white"/>
<path d="M23.7095 20.1439V21.9146C23.7095 22.7185 24.3684 23.3702 25.1813 23.3702H26.9717C27.7845 23.3702 28.4435 22.7185 28.4435 21.9146V20.1439C28.4435 19.34 27.7845 18.6883 26.9717 18.6883H25.1813C24.3684 18.6883 23.7095 19.34 23.7095 20.1439Z" fill="white"/>
<path d="M23.7095 15.4619V17.2326C23.7095 18.0365 24.3684 18.6883 25.1813 18.6883H26.9717C27.7845 18.6883 28.4435 18.0365 28.4435 17.2326V15.4619C28.4435 14.658 27.7845 14.0063 26.9717 14.0063H25.1813C24.3684 14.0063 23.7095 14.658 23.7095 15.4619Z" fill="white"/>
<path d="M23.7159 24.8258V26.5965C23.7159 27.4005 24.3748 28.0522 25.1877 28.0522H26.9781C27.7909 28.0522 28.4499 27.4005 28.4499 26.5965V24.8258C28.4499 24.0219 27.7909 23.3702 26.9781 23.3702H25.1877C24.3748 23.3702 23.7159 24.0219 23.7159 24.8258Z" fill="white"/>
<path d="M28.4439 20.1375V21.9082C28.4439 22.7122 29.1029 23.3639 29.9157 23.3639H31.7061C32.519 23.3639 33.1779 22.7122 33.1779 21.9082V20.1375C33.1779 19.3336 32.519 18.6819 31.7061 18.6819H29.9157C29.1029 18.6819 28.4439 19.3336 28.4439 20.1375Z" fill="white"/>
<path d="M28.4503 15.4556V17.2263C28.4503 18.0302 29.1093 18.682 29.9221 18.682H31.7125C32.5253 18.682 33.1843 18.0302 33.1843 17.2263V15.4556C33.1843 14.6517 32.5253 14 31.7125 14H29.9221C29.1093 14 28.4503 14.6517 28.4503 15.4556Z" fill="white"/>
<path d="M28.4503 24.8195V26.5902C28.4503 27.3941 29.1093 28.0458 29.9221 28.0458H31.7125C32.5254 28.0458 33.1843 27.3941 33.1843 26.5902V24.8195C33.1843 24.0156 32.5254 23.3639 31.7125 23.3639H29.9221C29.1093 23.3639 28.4503 24.0156 28.4503 24.8195Z" fill="white"/>
<path d="M33.1843 15.4556V17.2263C33.1843 18.0302 33.8437 18.682 34.6565 18.682H36.4469C37.2598 18.682 37.9187 18.0303 37.9187 17.2263V15.4556C37.9187 14.6517 37.2598 14 36.4469 14H34.6565C33.8437 14 33.1843 14.6517 33.1843 15.4556Z" fill="white"/>
<path d="M19.4986 43.749V45.1353C19.4986 45.7617 20.0121 46.2696 20.6455 46.2696H22.0472C22.6806 46.2696 23.1941 45.7617 23.1941 45.1353V43.749C23.1941 43.1226 22.6806 42.6147 22.0472 42.6147H20.6455C20.0121 42.6147 19.4986 43.1226 19.4986 43.749Z" fill="white"/>
<path d="M19.4986 39.067V40.4533C19.4986 41.0798 20.0121 41.5876 20.6455 41.5876H22.0472C22.6806 41.5876 23.1941 41.0798 23.1941 40.4533V39.067C23.1941 38.4406 22.6806 37.9328 22.0472 37.9328H20.6455C20.0121 37.9328 19.4986 38.4406 19.4986 39.067Z" fill="white"/>
<path d="M24.6401 43.9065V44.9841C24.6401 45.4713 25.0394 45.8663 25.5321 45.8663H26.6216C27.1142 45.8663 27.5136 45.4713 27.5136 44.9841V43.9065C27.5136 43.4193 27.1142 43.0244 26.6216 43.0244H25.5321C25.0394 43.0244 24.6401 43.4193 24.6401 43.9065Z" fill="white"/>
<path d="M25.2004 48.7964V49.4518C25.2004 49.7511 25.4457 49.9937 25.7483 49.9937H26.4109C26.7136 49.9937 26.9589 49.7511 26.9589 49.4518V48.7964C26.9589 48.4972 26.7136 48.2545 26.4109 48.2545H25.7483C25.4457 48.2545 25.2004 48.4972 25.2004 48.7964Z" fill="white"/>
<path d="M23.7159 29.5078V31.2785C23.7159 32.0824 24.3748 32.7341 25.1877 32.7341H26.978C27.7909 32.7341 28.4498 32.0824 28.4498 31.2785V29.5078C28.4498 28.7038 27.7909 28.0522 26.9781 28.0522H25.1877C24.3748 28.0522 23.7159 28.7038 23.7159 29.5078Z" fill="white"/>
<path d="M24.233 34.385V35.7714C24.233 36.3978 24.7465 36.9056 25.3799 36.9056H26.7816C27.415 36.9056 27.9285 36.3978 27.9285 35.7714V34.385C27.9285 33.7586 27.415 33.2508 26.7816 33.2508H25.3799C24.7465 33.2508 24.233 33.7586 24.233 34.385Z" fill="white"/>
<path d="M24.233 39.067V40.4533C24.233 41.0798 24.7465 41.5876 25.3799 41.5876H26.7816C27.415 41.5876 27.9285 41.0798 27.9285 40.4533V39.067C27.9285 38.4406 27.415 37.9328 26.7816 37.9328H25.3799C24.7465 37.9328 24.233 38.4406 24.233 39.067Z" fill="white"/>
<path d="M29.3744 43.9002V44.9777C29.3744 45.465 29.7738 45.8599 30.2664 45.8599H31.3559C31.8486 45.8599 32.2479 45.465 32.2479 44.9777V43.9002C32.2479 43.413 31.8486 43.018 31.3559 43.018H30.2664C29.7738 43.018 29.3744 43.413 29.3744 43.9002Z" fill="white"/>
<path d="M29.9348 48.8027V49.4581C29.9348 49.7574 30.1801 50 30.4827 50H31.1454C31.448 50 31.6933 49.7574 31.6933 49.4581V48.8027C31.6933 48.5034 31.448 48.2608 31.1454 48.2608H30.4827C30.1801 48.2608 29.9348 48.5034 29.9348 48.8027Z" fill="white"/>
<path d="M28.9659 29.7031V31.0894C28.9659 31.7159 29.4794 32.2237 30.1128 32.2237H31.5145C32.1479 32.2237 32.6613 31.7159 32.6613 31.0894V29.7031C32.6613 29.0767 32.1479 28.5689 31.5145 28.5689H30.1128C29.4794 28.5689 28.9659 29.0767 28.9659 29.7031Z" fill="white"/>
<path d="M28.9723 34.385V35.7714C28.9723 36.3978 29.4857 36.9056 30.1191 36.9056H31.5209C32.1542 36.9056 32.6677 36.3978 32.6677 35.7714V34.385C32.6677 33.7586 32.1542 33.2508 31.5209 33.2508H30.1191C29.4857 33.2508 28.9723 33.7586 28.9723 34.385Z" fill="white"/>
<path d="M29.3744 39.2183V40.2958C29.3744 40.783 29.7738 41.178 30.2664 41.178H31.3559C31.8486 41.178 32.2479 40.783 32.2479 40.2958V39.2183C32.2479 38.731 31.8486 38.3361 31.3559 38.3361H30.2664C29.7738 38.3361 29.3744 38.731 29.3744 39.2183Z" fill="white"/>
<path d="M34.6691 44.1145V44.7698C34.6691 45.0691 34.9144 45.3118 35.217 45.3118H35.8797C36.1823 45.3118 36.4276 45.0691 36.4276 44.7698V44.1145C36.4276 43.8152 36.1823 43.5726 35.8797 43.5726H35.217C34.9144 43.5726 34.6691 43.8152 34.6691 44.1145Z" fill="white"/>
<path d="M34.6691 48.7964V49.4518C34.6691 49.7511 34.9144 49.9937 35.217 49.9937H35.8797C36.1823 49.9937 36.4276 49.7511 36.4276 49.4518V48.7964C36.4276 48.4971 36.1823 48.2545 35.8797 48.2545H35.217C34.9144 48.2545 34.6691 48.4971 34.6691 48.7964Z" fill="white"/>
<path d="M33.7067 20.3266V21.7129C33.7067 22.3394 34.2202 22.8472 34.8536 22.8472H36.2553C36.8887 22.8472 37.4022 22.3394 37.4022 21.7129V20.3266C37.4022 19.7002 36.8887 19.1924 36.2553 19.1924H34.8536C34.2202 19.1924 33.7067 19.7002 33.7067 20.3266Z" fill="white"/>
<path d="M33.7003 25.0149V26.4012C33.7003 27.0276 34.2138 27.5354 34.8472 27.5354H36.2489C36.8823 27.5354 37.3958 27.0276 37.3958 26.4012V25.0149C37.3958 24.3884 36.8823 23.8806 36.2489 23.8806H34.8472C34.2138 23.8806 33.7003 24.3884 33.7003 25.0149Z" fill="white"/>
<path d="M33.7003 29.6968V31.0832C33.7003 31.7096 34.2138 32.2174 34.8472 32.2174H36.2489C36.8823 32.2174 37.3958 31.7096 37.3958 31.0832V29.6968C37.3958 29.0704 36.8823 28.5626 36.2489 28.5626H34.8472C34.2138 28.5626 33.7003 29.0704 33.7003 29.6968Z" fill="white"/>
<path d="M34.1154 34.5363V35.6138C34.1154 36.101 34.5147 36.496 35.0073 36.496H36.0969C36.5895 36.496 36.9889 36.101 36.9889 35.6138V34.5363C36.9889 34.0491 36.5895 33.6541 36.0969 33.6541H35.0073C34.5147 33.6541 34.1154 34.0491 34.1154 34.5363Z" fill="white"/>
<path d="M34.1154 39.2182V40.2958C34.1154 40.783 34.5147 41.178 35.0074 41.178H36.0969C36.5895 41.178 36.9889 40.783 36.9889 40.2958V39.2182C36.9889 38.731 36.5895 38.336 36.0969 38.336H35.0074C34.5147 38.336 34.1154 38.731 34.1154 39.2182Z" fill="white"/>
<path d="M39.4101 44.1145V44.7698C39.4101 45.0691 39.6554 45.3117 39.958 45.3117H40.6207C40.9233 45.3117 41.1686 45.0691 41.1686 44.7698V44.1145C41.1686 43.8152 40.9233 43.5726 40.6207 43.5726H39.958C39.6554 43.5726 39.4101 43.8152 39.4101 44.1145Z" fill="white"/>
<path d="M39.4037 48.7964V49.4518C39.4037 49.7511 39.649 49.9937 39.9516 49.9937H40.6143C40.9169 49.9937 41.1622 49.7511 41.1622 49.4518V48.7964C41.1622 48.4972 40.9169 48.2545 40.6143 48.2545H39.9516C39.649 48.2545 39.4037 48.4972 39.4037 48.7964Z" fill="white"/>
<path d="M38.4412 20.333V21.7193C38.4412 22.3457 38.9546 22.8535 39.588 22.8535H40.9897C41.6231 22.8535 42.1366 22.3457 42.1366 21.7193V20.333C42.1366 19.7065 41.6231 19.1987 40.9897 19.1987H39.588C38.9546 19.1987 38.4412 19.7065 38.4412 20.333Z" fill="white"/>
<path d="M38.4412 15.6446V17.0309C38.4412 17.6574 38.9546 18.1652 39.588 18.1652H40.9897C41.6231 18.1652 42.1366 17.6574 42.1366 17.0309V15.6446C42.1366 15.0182 41.6231 14.5104 40.9897 14.5104H39.588C38.9546 14.5104 38.4412 15.0182 38.4412 15.6446Z" fill="white"/>
<path d="M38.8482 25.1724V26.2499C38.8482 26.7372 39.2476 27.1321 39.7402 27.1321H40.8297C41.3224 27.1321 41.7217 26.7372 41.7217 26.2499V25.1724C41.7217 24.6852 41.3224 24.2902 40.8297 24.2902H39.7402C39.2476 24.2902 38.8482 24.6852 38.8482 25.1724Z" fill="white"/>
<path d="M38.8482 29.8544V30.9319C38.8482 31.4191 39.2476 31.8141 39.7402 31.8141H40.8297C41.3224 31.8141 41.7217 31.4191 41.7217 30.9319V29.8544C41.7217 29.3671 41.3224 28.9722 40.8297 28.9722H39.7402C39.2476 28.9722 38.8482 29.3671 38.8482 29.8544Z" fill="white"/>
<path d="M38.8482 34.5363V35.6138C38.8482 36.1011 39.2476 36.496 39.7402 36.496H40.8297C41.3224 36.496 41.7217 36.1011 41.7217 35.6138V34.5363C41.7217 34.0491 41.3224 33.6541 40.8297 33.6541H39.7402C39.2476 33.6541 38.8482 34.0491 38.8482 34.5363Z" fill="white"/>
<path d="M39.4101 39.4325V40.0879C39.4101 40.3872 39.6554 40.6298 39.958 40.6298H40.6206C40.9233 40.6298 41.1686 40.3872 41.1686 40.0879V39.4325C41.1686 39.1332 40.9233 38.8906 40.6206 38.8906H39.958C39.6554 38.8906 39.4101 39.1332 39.4101 39.4325Z" fill="white"/>
<path d="M50.6364 40.0879V39.4326C50.6364 39.1333 50.3911 38.8906 50.0885 38.8906H49.4258C49.1232 38.8906 48.8779 39.1333 48.8779 39.4326V40.0879C48.8779 40.3872 49.1232 40.6298 49.4258 40.6298H50.0885C50.3911 40.6298 50.6364 40.3872 50.6364 40.0879Z" fill="white"/>
<path d="M50.6364 35.3996V34.7443C50.6364 34.445 50.3911 34.2023 50.0885 34.2023H49.4258C49.1232 34.2023 48.8779 34.445 48.8779 34.7443V35.3996C48.8779 35.6989 49.1232 35.9415 49.4258 35.9415H50.0885C50.3911 35.9415 50.6364 35.6989 50.6364 35.3996Z" fill="white"/>
<path d="M50.6428 30.7176V30.0623C50.6428 29.763 50.3975 29.5204 50.0949 29.5204H49.4322C49.1296 29.5204 48.8843 29.763 48.8843 30.0623V30.7176C48.8843 31.0169 49.1296 31.2596 49.4322 31.2596H50.0949C50.3975 31.2596 50.6428 31.0169 50.6428 30.7176Z" fill="white"/>
<path d="M50.6364 26.0357V25.3804C50.6364 25.0811 50.3911 24.8384 50.0885 24.8384H49.4258C49.1232 24.8384 48.8779 25.0811 48.8779 25.3804V26.0357C48.8779 26.335 49.1232 26.5776 49.4258 26.5776H50.0885C50.3911 26.5776 50.6364 26.335 50.6364 26.0357Z" fill="white"/>
<path d="M46.4622 21.5617V20.4842C46.4622 19.997 46.0629 19.602 45.5703 19.602H44.4807C43.9881 19.602 43.5887 19.997 43.5887 20.4842V21.5617C43.5887 22.049 43.9881 22.4439 44.4807 22.4439H45.5703C46.0629 22.4439 46.4622 22.049 46.4622 21.5617Z" fill="white"/>
<path d="M45.9019 44.7698V44.1145C45.9019 43.8152 45.6566 43.5726 45.354 43.5726H44.6914C44.3887 43.5726 44.1434 43.8152 44.1434 44.1145V44.7698C44.1434 45.0691 44.3887 45.3118 44.6914 45.3118H45.354C45.6566 45.3118 45.9019 45.0691 45.9019 44.7698Z" fill="white"/>
<path d="M45.9019 40.0879V39.4325C45.9019 39.1332 45.6566 38.8906 45.354 38.8906H44.6914C44.3887 38.8906 44.1434 39.1332 44.1434 39.4325V40.0879C44.1434 40.3872 44.3887 40.6298 44.6914 40.6298H45.354C45.6566 40.6298 45.9019 40.3872 45.9019 40.0879Z" fill="white"/>
<path d="M45.9019 35.4059V34.7506C45.9019 34.4513 45.6566 34.2087 45.354 34.2087H44.6914C44.3887 34.2087 44.1434 34.4513 44.1434 34.7506V35.4059C44.1434 35.7052 44.3887 35.9479 44.6914 35.9479H45.354C45.6566 35.9479 45.9019 35.7052 45.9019 35.4059Z" fill="white"/>
<path d="M45.9019 30.7176V30.0623C45.9019 29.763 45.6566 29.5204 45.354 29.5204H44.6914C44.3887 29.5204 44.1434 29.763 44.1434 30.0623V30.7176C44.1434 31.0169 44.3887 31.2596 44.6914 31.2596H45.354C45.6566 31.2596 45.9019 31.0169 45.9019 30.7176Z" fill="white"/>
<path d="M46.4622 26.2436V25.1661C46.4622 24.6788 46.0629 24.2839 45.5702 24.2839H44.4807C43.9881 24.2839 43.5887 24.6788 43.5887 25.1661V26.2436C43.5887 26.7308 43.9881 27.1258 44.4807 27.1258H45.5702C46.0629 27.1258 46.4622 26.7308 46.4622 26.2436Z" fill="white"/>
</svg>
