<svg width="48" height="48" viewBox="0 0 48 48" fill="none" xmlns="http://www.w3.org/2000/svg">
<rect width="48" height="48" rx="24" fill="#FF7F30"/>
<path d="M23.7504 27.7863C26.368 27.7863 28.6346 26.8607 30.4866 25.0344C32.3386 23.2083 33.2774 20.9741 33.2774 18.3929C33.2774 15.8126 32.3386 13.578 30.4863 11.7514C28.634 9.92566 26.3677 9 23.7504 9C21.1326 9 18.8666 9.92566 17.0146 11.7517C15.1626 13.5777 14.2235 15.8123 14.2235 18.3929C14.2235 20.9741 15.1626 23.2086 17.0149 25.0347C18.8672 26.8604 21.1335 27.7863 23.7504 27.7863Z" fill="white"/>
<path d="M40.42 38.9889C40.3666 38.2289 40.2586 37.4 40.0995 36.5246C39.939 35.6427 39.7323 34.809 39.4848 34.047C39.2292 33.2594 38.8816 32.4816 38.4519 31.7362C38.0059 30.9626 37.482 30.289 36.8941 29.7347C36.2794 29.1547 35.5268 28.6885 34.6565 28.3484C33.7892 28.0101 32.828 27.8387 31.7999 27.8387C31.3961 27.8387 31.0056 28.0021 30.2515 28.4862C29.7874 28.7846 29.2445 29.1298 28.6385 29.5115C28.1204 29.837 27.4185 30.142 26.5515 30.4181C25.7056 30.688 24.8468 30.8249 23.9991 30.8249C23.1514 30.8249 22.2929 30.688 21.4461 30.4181C20.58 30.1423 19.8781 29.8373 19.3606 29.5118C18.7603 29.1336 18.2171 28.7885 17.7461 28.4859C16.9928 28.0018 16.6021 27.8384 16.1983 27.8384C15.1698 27.8384 14.209 28.0101 13.342 28.3487C12.4723 28.6882 11.7194 29.1544 11.1041 29.735C10.5165 30.2896 9.99234 30.9629 9.54692 31.7362C9.1175 32.4816 8.76986 33.2591 8.51395 34.0473C8.2668 34.8093 8.06009 35.6427 7.89955 36.5246C7.74051 37.3988 7.63248 38.2281 7.57906 38.9898C7.52656 39.736 7.5 40.5105 7.5 41.2928C7.5 43.3286 8.15635 44.9767 9.45066 46.1921C10.729 47.3915 12.4204 48 14.4773 48H33.5227C35.5796 48 37.2704 47.3918 38.549 46.1921C39.8436 44.9775 40.5 43.3292 40.5 41.2925C40.4997 40.5066 40.4728 39.7315 40.42 38.9889Z" fill="white"/>
</svg>
