<svg width="16" height="16" viewBox="0 0 16 16" fill="none" xmlns="http://www.w3.org/2000/svg">
<rect width="16" height="16" rx="8" fill="#FF7F30"/>
<path d="M12.6224 7.35366C12.4542 6.13103 11.806 5.02511 10.8204 4.27919C9.83478 3.53328 8.59246 3.20847 7.36674 3.37621C6.14102 3.54396 5.03231 4.19053 4.28451 5.17368C3.53671 6.15683 3.21108 7.39602 3.37925 8.61866C3.5178 9.6306 3.98401 10.5697 4.70691 11.293C5.42981 12.0163 6.36983 12.4842 7.38389 12.6255C7.59139 12.6526 7.80044 12.6663 8.00971 12.6663C8.85522 12.6677 9.68488 12.4376 10.4083 12.001C10.4591 11.9705 10.5033 11.9303 10.5385 11.8827C10.5737 11.8352 10.5992 11.7811 10.6135 11.7238C10.6277 11.6664 10.6305 11.6068 10.6217 11.5483C10.6129 11.4898 10.5926 11.4337 10.562 11.383C10.5314 11.3324 10.4912 11.2882 10.4435 11.2531C10.3958 11.218 10.3416 11.1926 10.2841 11.1784C10.1679 11.1496 10.0451 11.1681 9.94253 11.2297C9.42763 11.538 8.8462 11.7188 8.24689 11.757C7.64758 11.7952 7.04781 11.6897 6.49775 11.4493C5.94769 11.2089 5.46334 10.8406 5.08522 10.3753C4.70709 9.90989 4.44618 9.36097 4.32432 8.77441C4.20246 8.18785 4.22318 7.58071 4.38476 7.00378C4.54634 6.42684 4.84408 5.8969 5.25307 5.45826C5.66205 5.01963 6.17039 4.68507 6.73557 4.48256C7.30075 4.28005 7.90632 4.21549 8.50164 4.29427C9.05459 4.36761 9.58427 4.56272 10.0523 4.86546C10.5203 5.16821 10.915 5.57102 11.2076 6.04469C11.5003 6.51837 11.6837 7.05105 11.7445 7.60416C11.8053 8.15726 11.742 8.71692 11.5591 9.2426C11.5117 9.36901 11.426 9.47755 11.3139 9.55316C11.2018 9.62878 11.0689 9.66771 10.9336 9.66456C10.7553 9.66433 10.5844 9.59358 10.4584 9.46784C10.3323 9.3421 10.2614 9.17163 10.2612 8.9938V6.21322C10.2612 6.09383 10.2136 5.97932 10.129 5.8949C10.0443 5.81047 9.92954 5.76304 9.80984 5.76304C9.69015 5.76304 9.57535 5.81047 9.49072 5.8949C9.40608 5.97932 9.35853 6.09383 9.35853 6.21322V6.21742C9.01639 5.95984 8.60778 5.8048 8.18052 5.77043C7.75326 5.73606 7.32502 5.82378 6.94593 6.02334C6.56683 6.2229 6.25256 6.52604 6.03989 6.89727C5.82722 7.26851 5.72495 7.69248 5.74505 8.11958C5.76515 8.54668 5.9068 8.95923 6.1534 9.30896C6.4 9.65868 6.74137 9.93112 7.13754 10.0944C7.53371 10.2576 7.96831 10.3049 8.39046 10.2308C8.81262 10.1566 9.20487 9.96409 9.5213 9.67567C9.64915 9.94129 9.84946 10.1656 10.0992 10.3229C10.349 10.4802 10.6382 10.564 10.9336 10.5649C11.2565 10.568 11.5724 10.4707 11.8373 10.2866C12.1023 10.1024 12.3032 9.84056 12.4121 9.53731C12.6553 8.83648 12.7274 8.08787 12.6224 7.35366ZM8.0046 9.36445C7.73681 9.36445 7.47504 9.28524 7.25239 9.13684C7.02974 8.98844 6.8562 8.77752 6.75372 8.53075C6.65125 8.28397 6.62443 8.01242 6.67668 7.75045C6.72892 7.48847 6.85787 7.24783 7.04722 7.05895C7.23657 6.87008 7.47782 6.74146 7.74046 6.68934C8.00309 6.63723 8.27532 6.66398 8.52272 6.7662C8.77012 6.86842 8.98158 7.04152 9.13035 7.26361C9.27912 7.4857 9.35853 7.74681 9.35853 8.01392C9.35813 8.37198 9.21536 8.71526 8.96153 8.96845C8.70771 9.22164 8.36356 9.36405 8.0046 9.36445Z" fill="white"/>
</svg>
