<svg preserveAspectRatio="none" width="100%" height="100%" overflow="visible" style="display: block;" viewBox="0 0 70 70" fill="none" xmlns="http://www.w3.org/2000/svg">
<g id="Frame 2131328735">
<g id="Vector">
<path d="M35 17C25.0742 17 17 25.0742 17 35C17 44.9258 25.0742 53 35 53C44.9258 53 53 44.9244 53 35C53 25.0756 44.9258 17 35 17ZM35 50.2115C26.6135 50.2115 19.7885 43.3879 19.7885 35C19.7885 26.6121 26.6135 19.7885 35 19.7885C43.3879 19.7885 50.2115 26.6121 50.2115 35C50.2115 43.3879 43.3865 50.2115 35 50.2115Z" fill="var(--fill-0, #84909F)"/>
<path d="M42.9613 36.9241L35.9899 29.9528C35.4461 29.4118 34.5678 29.4118 34.024 29.9528L27.0526 36.9241C26.6051 37.4455 26.6051 38.2166 27.0526 38.738C27.5532 39.3222 28.4344 39.3905 29.0186 38.89L35 32.9086L40.9953 38.89C41.5391 39.431 42.4175 39.431 42.9613 38.89C43.5023 38.3462 43.5023 37.4678 42.9613 36.9241Z" fill="var(--fill-0, #84909F)"/>
</g>
</g>
</svg>
