<svg width="70" height="70" viewBox="0 0 70 70" fill="none" xmlns="http://www.w3.org/2000/svg">
<path d="M35 53C25.0742 53 17 44.9258 17 35C17 25.0742 25.0742 17 35 17C44.9258 17 53 25.0756 53 35C53 44.9244 44.9258 53 35 53ZM35 19.7885C26.6135 19.7885 19.7885 26.6121 19.7885 35C19.7885 43.3879 26.6135 50.2115 35 50.2115C43.3879 50.2115 50.2115 43.3879 50.2115 35C50.2115 26.6121 43.3865 19.7885 35 19.7885Z" fill="#84909F"/>
<path d="M42.9613 33.0759L35.9899 40.0472C35.4461 40.5882 34.5678 40.5882 34.024 40.0472L27.0526 33.0759C26.6051 32.5545 26.6051 31.7834 27.0526 31.262C27.5532 30.6777 28.4344 30.6095 29.0186 31.11L35 37.0914L40.9953 31.11C41.5391 30.569 42.4175 30.569 42.9613 31.11C43.5023 31.6538 43.5023 32.5322 42.9613 33.0759Z" fill="#84909F"/>
</svg>
