<svg width="80" height="80" viewBox="0 0 80 80" fill="none" xmlns="http://www.w3.org/2000/svg">
<rect width="80" height="80" rx="40" fill="#FF7F30"/>
<path d="M58.0886 38.4249C58.1082 38.1473 58.12 37.8697 58.12 37.5882C58.12 30.0953 51.9636 24 44.4 24C38.9395 24 34.0218 27.2243 31.8482 32.1238C31.1465 31.8851 30.4272 31.7647 29.7 31.7647C26.1975 31.7647 23.2986 34.3775 22.8968 37.8153C18.3418 38.7025 15 42.6411 15 47.2941C15 52.6459 19.3963 57 24.8 57H54.2C59.6018 57 64 52.6459 64 47.2941C64 43.4273 61.6538 39.9526 58.0886 38.4249Z" fill="white"/>
</svg>
