<svg width="45" height="45" viewBox="0 0 45 45" fill="none" xmlns="http://www.w3.org/2000/svg">
<path d="M0 13.2467L0 15.4133C0 16.3969 0.806276 17.1943 1.80087 17.1943H3.99155C4.98615 17.1943 5.79242 16.3969 5.79242 15.4133V13.2467C5.79242 12.263 4.98615 11.4656 3.99155 11.4656H1.80087C0.806276 11.4656 0 12.263 0 13.2467Z" fill="#FF7F30"/>
<path d="M0 18.9752L0 21.1418C0 22.1254 0.806276 22.9229 1.80087 22.9229H3.99154C4.98614 22.9229 5.79241 22.1254 5.79241 21.1418V18.9752C5.79241 17.9915 4.98614 17.1941 3.99154 17.1941H1.80087C0.806276 17.1941 0 17.9915 0 18.9752Z" fill="#FF7F30"/>
<path d="M0 24.7037L0 26.8703C0 27.8539 0.806276 28.6514 1.80087 28.6514H3.99154C4.98614 28.6514 5.79242 27.8539 5.79242 26.8703V24.7037C5.79242 23.72 4.98614 22.9226 3.99154 22.9226H1.80087C0.806276 22.9226 0 23.72 0 24.7037Z" fill="#FF7F30"/>
<path d="M0 30.4322L0 32.5988C0 33.5825 0.806276 34.3799 1.80087 34.3799H3.99154C4.98614 34.3799 5.79241 33.5825 5.79241 32.5988V30.4322C5.79241 29.4486 4.98614 28.6511 3.99154 28.6511H1.80087C0.806276 28.6511 0 29.4486 0 30.4322Z" fill="#FF7F30"/>
<path d="M5.79297 7.51717V9.68377C5.79297 10.6674 6.59925 11.4648 7.59385 11.4648H9.78452C10.7791 11.4648 11.5854 10.6674 11.5854 9.68377V7.51717C11.5854 6.53351 10.7791 5.7361 9.78452 5.7361H7.59385C6.59925 5.7361 5.79297 6.53351 5.79297 7.51717Z" fill="#FF7F30"/>
<path d="M5.80078 13.2467V15.4133C5.80078 16.3969 6.60706 17.1943 7.60165 17.1943H9.79233C10.7869 17.1943 11.5932 16.3969 11.5932 15.4133V13.2467C11.5932 12.263 10.7869 11.4656 9.79233 11.4656H7.60165C6.60706 11.4656 5.80078 12.263 5.80078 13.2467Z" fill="#FF7F30"/>
<path d="M5.79297 18.9752V21.1418C5.79297 22.1254 6.59925 22.9229 7.59384 22.9229H9.78451C10.7791 22.9229 11.5854 22.1254 11.5854 21.1418V18.9752C11.5854 17.9915 10.7791 17.1941 9.78451 17.1941H7.59384C6.59925 17.1941 5.79297 17.9915 5.79297 18.9752Z" fill="#FF7F30"/>
<path d="M5.79297 24.7037V26.8703C5.79297 27.854 6.59925 28.6514 7.59384 28.6514H9.78451C10.7791 28.6514 11.5854 27.854 11.5854 26.8703V24.7037C11.5854 23.72 10.7791 22.9226 9.78451 22.9226H7.59384C6.59925 22.9226 5.79297 23.72 5.79297 24.7037Z" fill="#FF7F30"/>
<path d="M11.584 7.51717V9.68377C11.584 10.6674 12.3903 11.4648 13.3849 11.4648H15.5755C16.5701 11.4648 17.3764 10.6674 17.3764 9.68377V7.51717C17.3764 6.53351 16.5701 5.7361 15.5755 5.7361H13.3849C12.3903 5.7361 11.584 6.53351 11.584 7.51717Z" fill="#FF7F30"/>
<path d="M11.584 1.78866V3.95525C11.584 4.93891 12.3903 5.73633 13.3849 5.73633H15.5755C16.5701 5.73633 17.3764 4.93891 17.3764 3.95525V1.78866C17.3764 0.804997 16.5701 0.0075841 15.5755 0.0075841H13.3849C12.3903 0.0075841 11.584 0.804997 11.584 1.78866Z" fill="#FF7F30"/>
<path d="M11.5918 13.2467V15.4133C11.5918 16.3969 12.3981 17.1943 13.3927 17.1943H15.5834C16.5779 17.1943 17.3842 16.3969 17.3842 15.4133V13.2467C17.3842 12.263 16.5779 11.4656 15.5834 11.4656H13.3927C12.3981 11.4656 11.5918 12.263 11.5918 13.2467Z" fill="#FF7F30"/>
<path d="M17.377 7.50936V9.67594C17.377 10.6596 18.1832 11.457 19.1778 11.457H21.3685C22.3631 11.457 23.1694 10.6596 23.1694 9.67594V7.50936C23.1694 6.52569 22.3631 5.72828 21.3685 5.72828H19.1778C18.1832 5.72828 17.377 6.52569 17.377 7.50936Z" fill="#FF7F30"/>
<path d="M17.3848 1.78084V3.94743C17.3848 4.93109 18.191 5.72852 19.1856 5.72852H21.3763C22.3709 5.72852 23.1772 4.93109 23.1772 3.94743V1.78084C23.1772 0.797179 22.3709 -0.000234604 21.3763 -0.000234604H19.1856C18.191 -0.000234604 17.3848 0.797179 17.3848 1.78084Z" fill="#FF7F30"/>
<path d="M17.3848 13.2388V15.4054C17.3848 16.3891 18.191 17.1865 19.1856 17.1865H21.3763C22.3709 17.1865 23.1772 16.3891 23.1772 15.4054V13.2388C23.1772 12.2552 22.3709 11.4578 21.3763 11.4578H19.1856C18.191 11.4578 17.3848 12.2552 17.3848 13.2388Z" fill="#FF7F30"/>
<path d="M23.1777 1.78085V3.94744C23.1777 4.9311 23.984 5.72852 24.9786 5.72852H27.1693C28.1639 5.72852 28.9702 4.9311 28.9702 3.94744V1.78085C28.9702 0.79719 28.1639 -0.000222683 27.1693 -0.000222683H24.9786C23.984 -0.000222683 23.1777 0.79719 23.1777 1.78085Z" fill="#FF7F30"/>
<path d="M6.43169 36.4003V38.0965C6.43169 38.863 7.05995 39.4844 7.83496 39.4844H9.55009C10.3251 39.4844 10.9534 38.863 10.9534 38.0965V36.4003C10.9534 35.6338 10.3251 35.0124 9.55009 35.0124H7.83496C7.05995 35.0124 6.43169 35.6338 6.43169 36.4003Z" fill="#FF7F30"/>
<path d="M6.43169 30.6717V32.368C6.43169 33.1345 7.05997 33.7559 7.83497 33.7559H9.55009C10.3251 33.7559 10.9534 33.1345 10.9534 32.368V30.6717C10.9534 29.9053 10.3251 29.2839 9.55009 29.2839H7.83497C7.05997 29.2839 6.43169 29.9053 6.43169 30.6717Z" fill="#FF7F30"/>
<path d="M12.7227 36.5933V37.9118C12.7227 38.5079 13.2113 38.9912 13.8141 38.9912H15.1472C15.75 38.9912 16.2386 38.5079 16.2386 37.9118V36.5933C16.2386 35.9972 15.75 35.5139 15.1472 35.5139H13.8141C13.2113 35.5139 12.7227 35.9972 12.7227 36.5933Z" fill="#FF7F30"/>
<path d="M13.4082 42.5761V43.3779C13.4082 43.7441 13.7084 44.041 14.0787 44.041H14.8894C15.2597 44.041 15.5599 43.7441 15.5599 43.3779V42.5761C15.5599 42.2099 15.2597 41.913 14.8894 41.913H14.0787C13.7084 41.913 13.4082 42.2099 13.4082 42.5761Z" fill="#FF7F30"/>
<path d="M11.5918 18.9752V21.1418C11.5918 22.1254 12.3981 22.9229 13.3927 22.9229H15.5833C16.5779 22.9229 17.3842 22.1254 17.3842 21.1418V18.9752C17.3842 17.9915 16.5779 17.1941 15.5833 17.1941H13.3927C12.3981 17.1941 11.5918 17.9915 11.5918 18.9752Z" fill="#FF7F30"/>
<path d="M12.2246 24.9432V26.6395C12.2246 27.406 12.8529 28.0273 13.6279 28.0273H15.343C16.118 28.0273 16.7463 27.406 16.7463 26.6395V24.9432C16.7463 24.1767 16.118 23.5554 15.343 23.5554H13.6279C12.8529 23.5554 12.2246 24.1767 12.2246 24.9432Z" fill="#FF7F30"/>
<path d="M12.2246 30.6717V32.368C12.2246 33.1345 12.8529 33.7559 13.6279 33.7559H15.343C16.118 33.7559 16.7463 33.1345 16.7463 32.368V30.6717C16.7463 29.9053 16.118 29.2839 15.343 29.2839H13.6279C12.8529 29.2839 12.2246 29.9053 12.2246 30.6717Z" fill="#FF7F30"/>
<path d="M18.5155 36.5855V37.904C18.5155 38.5001 19.0041 38.9834 19.6069 38.9834H20.94C21.5428 38.9834 22.0315 38.5001 22.0315 37.904V36.5855C22.0315 35.9893 21.5428 35.5061 20.94 35.5061H19.6069C19.0041 35.5061 18.5155 35.9893 18.5155 36.5855Z" fill="#FF7F30"/>
<path d="M19.2012 42.5839V43.3857C19.2012 43.752 19.5013 44.0488 19.8716 44.0488H20.6824C21.0527 44.0488 21.3529 43.752 21.3529 43.3857V42.5839C21.3529 42.2177 21.0527 41.9208 20.6824 41.9208H19.8716C19.5013 41.9208 19.2012 42.2177 19.2012 42.5839Z" fill="#FF7F30"/>
<path d="M18.0156 19.2137V20.91C18.0156 21.6765 18.6439 22.2979 19.4189 22.2979H21.134C21.909 22.2979 22.5373 21.6765 22.5373 20.91V19.2137C22.5373 18.4472 21.909 17.8259 21.134 17.8259H19.4189C18.6439 17.8259 18.0156 18.4472 18.0156 19.2137Z" fill="#FF7F30"/>
<path d="M18.0234 24.9432V26.6395C18.0234 27.406 18.6517 28.0273 19.4267 28.0273H21.1418C21.9168 28.0273 22.5451 27.406 22.5451 26.6395V24.9432C22.5451 24.1767 21.9168 23.5554 21.1418 23.5554H19.4267C18.6517 23.5554 18.0234 24.1767 18.0234 24.9432Z" fill="#FF7F30"/>
<path d="M18.5155 30.857V32.1754C18.5155 32.7716 19.0041 33.2549 19.6069 33.2549H20.94C21.5428 33.2549 22.0315 32.7716 22.0315 32.1754V30.857C22.0315 30.2608 21.5428 29.7775 20.94 29.7775H19.6069C19.0041 29.7775 18.5155 30.2608 18.5155 30.857Z" fill="#FF7F30"/>
<path d="M24.9939 36.8475V37.6494C24.9939 38.0156 25.2941 38.3125 25.6644 38.3125H26.4752C26.8455 38.3125 27.1456 38.0156 27.1456 37.6494V36.8475C27.1456 36.4813 26.8455 36.1845 26.4752 36.1845H25.6644C25.2941 36.1845 24.9939 36.4813 24.9939 36.8475Z" fill="#FF7F30"/>
<path d="M24.9939 42.5761V43.3779C24.9939 43.7441 25.2941 44.041 25.6644 44.041H26.4752C26.8454 44.041 27.1456 43.7441 27.1456 43.3779V42.5761C27.1456 42.2098 26.8454 41.913 26.4752 41.913H25.6644C25.2941 41.913 24.9939 42.2098 24.9939 42.5761Z" fill="#FF7F30"/>
<path d="M23.8164 7.74108V9.43734C23.8164 10.2038 24.4447 10.8252 25.2197 10.8252H26.9348C27.7098 10.8252 28.3381 10.2038 28.3381 9.43734V7.74108C28.3381 6.97459 27.7098 6.35323 26.9348 6.35323H25.2197C24.4447 6.35323 23.8164 6.97459 23.8164 7.74108Z" fill="#FF7F30"/>
<path d="M23.8086 13.4774V15.1737C23.8086 15.9402 24.4369 16.5615 25.2119 16.5615H26.927C27.702 16.5615 28.3303 15.9402 28.3303 15.1737V13.4774C28.3303 12.7109 27.702 12.0896 26.927 12.0896H25.2119C24.4369 12.0896 23.8086 12.7109 23.8086 13.4774Z" fill="#FF7F30"/>
<path d="M23.8086 19.2059V20.9022C23.8086 21.6687 24.4369 22.29 25.2119 22.29H26.927C27.702 22.29 28.3303 21.6687 28.3303 20.9022V19.2059C28.3303 18.4394 27.702 17.8181 26.927 17.8181H25.2119C24.4369 17.8181 23.8086 18.4394 23.8086 19.2059Z" fill="#FF7F30"/>
<path d="M24.3164 25.1275V26.4459C24.3164 27.0421 24.8051 27.5254 25.4078 27.5254H26.741C27.3437 27.5254 27.8324 27.0421 27.8324 26.4459V25.1275C27.8324 24.5313 27.3437 24.048 26.741 24.048H25.4078C24.8051 24.048 24.3164 24.5313 24.3164 25.1275Z" fill="#FF7F30"/>
<path d="M24.3164 30.857V32.1754C24.3164 32.7716 24.8051 33.2549 25.4079 33.2549H26.741C27.3437 33.2549 27.8324 32.7716 27.8324 32.1754V30.857C27.8324 30.2608 27.3437 29.7775 26.741 29.7775H25.4079C24.8051 29.7775 24.3164 30.2608 24.3164 30.857Z" fill="#FF7F30"/>
<path d="M30.7949 36.8475V37.6494C30.7949 38.0156 31.0951 38.3125 31.4654 38.3125H32.2762C32.6464 38.3125 32.9466 38.0156 32.9466 37.6494V36.8475C32.9466 36.4813 32.6464 36.1845 32.2762 36.1845H31.4654C31.0951 36.1845 30.7949 36.4813 30.7949 36.8475Z" fill="#FF7F30"/>
<path d="M30.7871 42.5761V43.3779C30.7871 43.7441 31.0873 44.041 31.4576 44.041H32.2683C32.6386 44.041 32.9388 43.7441 32.9388 43.3779V42.5761C32.9388 42.2099 32.6386 41.913 32.2683 41.913H31.4576C31.0873 41.913 30.7871 42.2099 30.7871 42.5761Z" fill="#FF7F30"/>
<path d="M29.6094 7.74889V9.44515C29.6094 10.2116 30.2376 10.833 31.0127 10.833H32.7278C33.5028 10.833 34.131 10.2116 34.131 9.44515V7.74889C34.131 6.9824 33.5028 6.36104 32.7278 6.36104H31.0127C30.2376 6.36104 29.6094 6.9824 29.6094 7.74889Z" fill="#FF7F30"/>
<path d="M29.6094 2.01256V3.70883C29.6094 4.47531 30.2376 5.09668 31.0126 5.09668H32.7278C33.5028 5.09668 34.131 4.47531 34.131 3.70883V2.01256C34.131 1.24607 33.5028 0.62471 32.7278 0.62471H31.0126C30.2376 0.62471 29.6094 1.24607 29.6094 2.01256Z" fill="#FF7F30"/>
<path d="M30.1074 13.6705V14.9889C30.1074 15.5851 30.5961 16.0684 31.1989 16.0684H32.532C33.1348 16.0684 33.6234 15.5851 33.6234 14.9889V13.6705C33.6234 13.0743 33.1348 12.591 32.532 12.591H31.1989C30.5961 12.591 30.1074 13.0743 30.1074 13.6705Z" fill="#FF7F30"/>
<path d="M30.1074 19.399V20.7174C30.1074 21.3136 30.5961 21.7969 31.1989 21.7969H32.532C33.1348 21.7969 33.6234 21.3136 33.6234 20.7174V19.399C33.6234 18.8028 33.1348 18.3195 32.532 18.3195H31.1989C30.5961 18.3195 30.1074 18.8028 30.1074 19.399Z" fill="#FF7F30"/>
<path d="M30.1074 25.1275V26.446C30.1074 27.0421 30.5961 27.5254 31.1989 27.5254H32.532C33.1348 27.5254 33.6234 27.0421 33.6234 26.446V25.1275C33.6234 24.5313 33.1348 24.0481 32.532 24.0481H31.1989C30.5961 24.0481 30.1074 24.5313 30.1074 25.1275Z" fill="#FF7F30"/>
<path d="M30.7949 31.119V31.9209C30.7949 32.2871 31.0951 32.584 31.4654 32.584H32.2762C32.6464 32.584 32.9466 32.2871 32.9466 31.9209V31.119C32.9466 30.7528 32.6464 30.4559 32.2762 30.4559H31.4654C31.0951 30.4559 30.7949 30.7528 30.7949 31.119Z" fill="#FF7F30"/>
<path d="M44.5312 31.921V31.1191C44.5312 30.7529 44.2311 30.4561 43.8608 30.4561H43.05C42.6797 30.4561 42.3796 30.7529 42.3796 31.1191V31.921C42.3796 32.2872 42.6797 32.5841 43.05 32.5841H43.8608C44.2311 32.5841 44.5312 32.2872 44.5312 31.921Z" fill="#FF7F30"/>
<path d="M44.5312 26.1837V25.3818C44.5312 25.0156 44.2311 24.7188 43.8608 24.7188H43.05C42.6797 24.7188 42.3795 25.0156 42.3795 25.3818V26.1837C42.3795 26.5499 42.6797 26.8468 43.05 26.8468H43.8608C44.2311 26.8468 44.5312 26.5499 44.5312 26.1837Z" fill="#FF7F30"/>
<path d="M44.5391 20.4552V19.6533C44.5391 19.2871 44.2389 18.9902 43.8686 18.9902H43.0578C42.6875 18.9902 42.3874 19.2871 42.3874 19.6533V20.4552C42.3874 20.8214 42.6875 21.1183 43.0578 21.1183H43.8686C44.2389 21.1183 44.5391 20.8214 44.5391 20.4552Z" fill="#FF7F30"/>
<path d="M44.5312 14.7267V13.9248C44.5312 13.5586 44.2311 13.2617 43.8608 13.2617H43.05C42.6797 13.2617 42.3796 13.5586 42.3796 13.9248V14.7267C42.3796 15.0929 42.6797 15.3898 43.05 15.3898H43.8608C44.2311 15.3898 44.5312 15.0929 44.5312 14.7267Z" fill="#FF7F30"/>
<path d="M39.4238 9.25239V7.93394C39.4238 7.33778 38.9352 6.85449 38.3324 6.85449H36.9993C36.3965 6.85449 35.9078 7.33778 35.9078 7.93394V9.25239C35.9078 9.84855 36.3965 10.3318 36.9993 10.3318H38.3324C38.9352 10.3318 39.4238 9.84855 39.4238 9.25239Z" fill="#FF7F30"/>
<path d="M38.7383 37.6495V36.8477C38.7383 36.4814 38.4381 36.1846 38.0678 36.1846H37.257C36.8867 36.1846 36.5866 36.4814 36.5866 36.8477V37.6495C36.5866 38.0157 36.8867 38.3126 37.257 38.3126H38.0678C38.4381 38.3126 38.7383 38.0157 38.7383 37.6495Z" fill="#FF7F30"/>
<path d="M38.7383 31.921V31.1191C38.7383 30.7529 38.4381 30.4561 38.0678 30.4561H37.257C36.8867 30.4561 36.5866 30.7529 36.5866 31.1191V31.921C36.5866 32.2872 36.8867 32.5841 37.257 32.5841H38.0678C38.4381 32.5841 38.7383 32.2872 38.7383 31.921Z" fill="#FF7F30"/>
<path d="M38.7383 26.1915V25.3896C38.7383 25.0234 38.4381 24.7266 38.0678 24.7266H37.257C36.8867 24.7266 36.5866 25.0234 36.5866 25.3896V26.1915C36.5866 26.5577 36.8867 26.8546 37.257 26.8546H38.0678C38.4381 26.8546 38.7383 26.5577 38.7383 26.1915Z" fill="#FF7F30"/>
<path d="M38.7383 20.4552V19.6533C38.7383 19.2871 38.4381 18.9902 38.0678 18.9902H37.257C36.8867 18.9902 36.5866 19.2871 36.5866 19.6533V20.4552C36.5866 20.8214 36.8867 21.1183 37.257 21.1183H38.0678C38.4381 21.1183 38.7383 20.8214 38.7383 20.4552Z" fill="#FF7F30"/>
<path d="M39.4238 14.9809V13.6625C39.4238 13.0663 38.9352 12.583 38.3324 12.583H36.9993C36.3965 12.583 35.9078 13.0663 35.9078 13.6625V14.9809C35.9078 15.5771 36.3965 16.0604 36.9993 16.0604H38.3324C38.9352 16.0604 39.4238 15.5771 39.4238 14.9809Z" fill="#FF7F30"/>
</svg>
