<svg width="271" height="614" viewBox="0 0 271 614" fill="none" xmlns="http://www.w3.org/2000/svg">
<path d="M-431.637 485.301V451.166C-431.637 435.668 -418.934 423.105 -403.264 423.105H-368.749C-353.079 423.105 -340.376 435.668 -340.376 451.166V485.301C-340.376 500.799 -353.079 513.363 -368.749 513.363H-403.264C-418.934 513.363 -431.637 500.799 -431.637 485.301Z" fill="url(#paint0_linear_1_347)" fill-opacity="0.1"/>
<path d="M-431.637 395.045V360.91C-431.637 345.412 -418.934 332.849 -403.264 332.849H-368.749C-353.079 332.849 -340.376 345.412 -340.376 360.91V395.045C-340.376 410.543 -353.079 423.105 -368.749 423.105H-403.264C-418.934 423.105 -431.637 410.543 -431.637 395.045Z" fill="url(#paint1_linear_1_347)" fill-opacity="0.1"/>
<path d="M-431.637 304.787V270.652C-431.637 255.154 -418.934 242.591 -403.264 242.591H-368.749C-353.079 242.591 -340.376 255.154 -340.376 270.652V304.787C-340.376 320.285 -353.079 332.849 -368.749 332.849H-403.264C-418.934 332.849 -431.637 320.285 -431.637 304.787Z" fill="url(#paint2_linear_1_347)" fill-opacity="0.1"/>
<path d="M-431.637 214.529V180.394C-431.637 164.896 -418.934 152.333 -403.264 152.333H-368.749C-353.079 152.333 -340.376 164.896 -340.376 180.394V214.529C-340.376 230.027 -353.079 242.591 -368.749 242.591H-403.264C-418.934 242.591 -431.637 230.027 -431.637 214.529Z" fill="url(#paint3_linear_1_347)" fill-opacity="0.1"/>
<path d="M-340.367 575.56V541.424C-340.367 525.927 -327.664 513.363 -311.994 513.363H-277.479C-261.809 513.363 -249.106 525.927 -249.106 541.424V575.56C-249.106 591.057 -261.809 603.621 -277.479 603.621H-311.994C-327.664 603.621 -340.367 591.057 -340.367 575.56Z" fill="url(#paint4_linear_1_347)" fill-opacity="0.1"/>
<path d="M-340.244 485.302V451.167C-340.244 435.669 -327.541 423.105 -311.871 423.105H-277.356C-261.686 423.105 -248.983 435.669 -248.983 451.167V485.302C-248.983 500.8 -261.686 513.363 -277.356 513.363H-311.871C-327.541 513.363 -340.244 500.8 -340.244 485.302Z" fill="url(#paint5_linear_1_347)" fill-opacity="0.1"/>
<path d="M-340.376 395.045V360.91C-340.376 345.412 -327.664 332.848 -311.994 332.848H-277.48C-261.809 332.848 -249.106 345.412 -249.106 360.91V395.045C-249.106 410.543 -261.809 423.106 -277.48 423.106H-311.994C-327.664 423.106 -340.376 410.543 -340.376 395.045Z" fill="url(#paint6_linear_1_347)" fill-opacity="0.1"/>
<path d="M-340.376 304.787V270.652C-340.376 255.154 -327.664 242.59 -311.994 242.59H-277.48C-261.809 242.59 -249.106 255.154 -249.106 270.652V304.787C-249.106 320.285 -261.809 332.848 -277.48 332.848H-311.994C-327.664 332.848 -340.376 320.285 -340.376 304.787Z" fill="url(#paint7_linear_1_347)" fill-opacity="0.1"/>
<path d="M-249.128 575.56V541.424C-249.128 525.927 -236.425 513.363 -220.755 513.363H-186.241C-170.571 513.363 -157.868 525.927 -157.868 541.424V575.56C-157.868 591.057 -170.571 603.621 -186.241 603.621H-220.755C-236.425 603.621 -249.128 591.057 -249.128 575.56Z" fill="url(#paint8_linear_1_347)" fill-opacity="0.1"/>
<path d="M-249.128 665.818V631.682C-249.128 616.185 -236.425 603.621 -220.755 603.621H-186.241C-170.571 603.621 -157.868 616.185 -157.868 631.682V665.818C-157.868 681.315 -170.571 693.879 -186.241 693.879H-220.755C-236.425 693.879 -249.128 681.315 -249.128 665.818Z" fill="url(#paint9_linear_1_347)" fill-opacity="0.1"/>
<path d="M-249.005 485.302V451.167C-249.005 435.669 -236.302 423.105 -220.632 423.105H-186.118C-170.447 423.105 -157.744 435.669 -157.744 451.167V485.302C-157.744 500.8 -170.447 513.363 -186.118 513.363H-220.632C-236.302 513.363 -249.005 500.8 -249.005 485.302Z" fill="url(#paint10_linear_1_347)" fill-opacity="0.1"/>
<path d="M-157.859 575.682V541.547C-157.859 526.049 -145.156 513.485 -129.486 513.485H-94.9712C-79.3011 513.485 -66.5981 526.049 -66.5981 541.547V575.682C-66.5981 591.18 -79.3011 603.743 -94.9712 603.743H-129.486C-145.156 603.743 -157.859 591.18 -157.859 575.682Z" fill="url(#paint11_linear_1_347)" fill-opacity="0.1"/>
<path d="M-157.736 665.939V631.804C-157.736 616.306 -145.033 603.742 -129.363 603.742H-94.8482C-79.1781 603.742 -66.475 616.306 -66.475 631.804V665.939C-66.475 681.437 -79.1781 694 -94.8482 694H-129.363C-145.033 694 -157.736 681.437 -157.736 665.939Z" fill="url(#paint12_linear_1_347)" fill-opacity="0.1"/>
<path d="M-157.736 485.424V451.289C-157.736 435.791 -145.033 423.227 -129.363 423.227H-94.848C-79.1779 423.227 -66.4749 435.791 -66.4749 451.289V485.424C-66.4749 500.922 -79.1779 513.485 -94.848 513.485H-129.363C-145.033 513.485 -157.736 500.922 -157.736 485.424Z" fill="url(#paint13_linear_1_347)" fill-opacity="0.1"/>
<path d="M-66.475 665.939V631.804C-66.475 616.306 -53.7633 603.742 -38.0932 603.742H-3.5787C12.0914 603.742 24.7945 616.306 24.7945 631.803V665.939C24.7945 681.436 12.0914 694 -3.5787 694H-38.0932C-53.7633 694 -66.475 681.437 -66.475 665.939Z" fill="url(#paint14_linear_1_347)" fill-opacity="0.1"/>
<path d="M-330.304 120.505V93.7803C-330.304 81.704 -320.406 71.9144 -308.195 71.9144H-281.173C-268.963 71.9144 -259.064 81.704 -259.064 93.7803V120.505C-259.064 132.581 -268.963 142.371 -281.173 142.371H-308.195C-320.406 142.371 -330.304 132.581 -330.304 120.505Z" fill="url(#paint15_linear_1_347)" fill-opacity="0.1"/>
<path d="M-330.304 210.763V184.038C-330.304 171.962 -320.405 162.172 -308.195 162.172H-281.173C-268.963 162.172 -259.064 171.962 -259.064 184.038V210.763C-259.064 222.84 -268.963 232.629 -281.173 232.629H-308.195C-320.405 232.629 -330.304 222.84 -330.304 210.763Z" fill="url(#paint16_linear_1_347)" fill-opacity="0.1"/>
<path d="M-231.188 117.468V96.6957C-231.188 87.303 -223.49 79.6887 -213.993 79.6887H-192.989C-183.492 79.6887 -175.793 87.303 -175.793 96.6957V117.468C-175.793 126.861 -183.492 134.475 -192.989 134.475H-213.993C-223.49 134.475 -231.188 126.861 -231.188 117.468Z" fill="url(#paint17_linear_1_347)" fill-opacity="0.1"/>
<path d="M-220.387 23.2018V10.5682C-220.387 4.79846 -215.658 0.121155 -209.824 0.121155H-197.05C-191.216 0.121155 -186.487 4.79846 -186.487 10.5682V23.2018C-186.487 28.9716 -191.216 33.6489 -197.05 33.6489H-209.824C-215.658 33.6489 -220.387 28.9716 -220.387 23.2018Z" fill="url(#paint18_linear_1_347)" fill-opacity="0.1"/>
<path d="M-249.005 395.045V360.91C-249.005 345.412 -236.302 332.848 -220.632 332.848H-186.118C-170.448 332.848 -157.745 345.412 -157.745 360.91V395.045C-157.745 410.543 -170.447 423.105 -186.118 423.105H-220.632C-236.302 423.105 -249.005 410.543 -249.005 395.045Z" fill="url(#paint19_linear_1_347)" fill-opacity="0.1"/>
<path d="M-239.035 301.022V274.297C-239.035 262.22 -229.137 252.431 -216.926 252.431H-189.904C-177.694 252.431 -167.795 262.22 -167.795 274.297V301.022C-167.795 313.098 -177.694 322.888 -189.904 322.888H-216.926C-229.137 322.888 -239.035 313.098 -239.035 301.022Z" fill="url(#paint20_linear_1_347)" fill-opacity="0.1"/>
<path d="M-239.035 210.764V184.039C-239.035 171.963 -229.137 162.173 -216.926 162.173H-189.904C-177.694 162.173 -167.795 171.963 -167.795 184.039V210.764C-167.795 222.84 -177.694 232.63 -189.904 232.63H-216.926C-229.137 232.63 -239.035 222.84 -239.035 210.764Z" fill="url(#paint21_linear_1_347)" fill-opacity="0.1"/>
<path d="M-139.921 117.591V96.818C-139.921 87.4254 -132.223 79.8113 -122.726 79.8113H-101.722C-92.225 79.8113 -84.5262 87.4254 -84.5262 96.818V117.591C-84.5262 126.983 -92.225 134.597 -101.722 134.597H-122.726C-132.223 134.597 -139.921 126.983 -139.921 117.591Z" fill="url(#paint22_linear_1_347)" fill-opacity="0.1"/>
<path d="M-129.118 23.0808V10.4471C-129.118 4.67731 -124.389 0 -118.555 0H-105.781C-99.9469 0 -95.2176 4.67731 -95.2176 10.4471V23.0808C-95.2176 28.8506 -99.9469 33.5279 -105.781 33.5279H-118.555C-124.389 33.5279 -129.118 28.8506 -129.118 23.0808Z" fill="url(#paint23_linear_1_347)" fill-opacity="0.1"/>
<path d="M-147.797 391.279V364.553C-147.797 352.477 -137.898 342.688 -125.688 342.688H-98.6655C-86.455 342.688 -76.5565 352.477 -76.5565 364.553V391.279C-76.5565 403.355 -86.455 413.144 -98.6655 413.144H-125.688C-137.898 413.144 -147.797 403.355 -147.797 391.279Z" fill="url(#paint24_linear_1_347)" fill-opacity="0.1"/>
<path d="M-147.673 301.022V274.297C-147.673 262.22 -137.775 252.431 -125.565 252.431H-98.5424C-86.332 252.431 -76.4336 262.22 -76.4336 274.297V301.022C-76.4336 313.098 -86.332 322.887 -98.5424 322.887H-125.565C-137.775 322.887 -147.673 313.098 -147.673 301.022Z" fill="url(#paint25_linear_1_347)" fill-opacity="0.1"/>
<path d="M-139.921 207.848V187.075C-139.921 177.682 -132.222 170.068 -122.725 170.068H-101.722C-92.225 170.068 -84.5261 177.682 -84.5261 187.075V207.848C-84.5261 217.24 -92.225 224.855 -101.722 224.855H-122.725C-132.222 224.855 -139.921 217.24 -139.921 207.848Z" fill="url(#paint26_linear_1_347)" fill-opacity="0.1"/>
<path d="M-37.8517 113.459V100.826C-37.8517 95.056 -33.1223 90.3787 -27.2885 90.3787H-14.5143C-8.68042 90.3787 -3.95111 95.056 -3.95111 100.826V113.459C-3.95111 119.229 -8.68042 123.906 -14.5143 123.906H-27.2885C-33.1223 123.906 -37.8517 119.229 -37.8517 113.459Z" fill="url(#paint27_linear_1_347)" fill-opacity="0.1"/>
<path d="M-37.8517 23.2024V10.5687C-37.8517 4.79889 -33.1223 0.121643 -27.2885 0.121643H-14.5145C-8.6806 0.121643 -3.95132 4.79889 -3.95132 10.5687V23.2024C-3.95132 28.9722 -8.6806 33.6493 -14.5145 33.6493H-27.2885C-33.1223 33.6493 -37.8517 28.9722 -37.8517 23.2024Z" fill="url(#paint28_linear_1_347)" fill-opacity="0.1"/>
<path d="M-56.4039 572.037V545.312C-56.4039 533.236 -46.5053 523.446 -34.2949 523.446H-7.27289C4.93756 523.446 14.8361 533.236 14.8361 545.312V572.037C14.8361 584.113 4.93756 593.903 -7.27289 593.903H-34.2949C-46.5053 593.903 -56.4039 584.113 -56.4039 572.037Z" fill="url(#paint29_linear_1_347)" fill-opacity="0.1"/>
<path d="M-56.527 481.658V454.933C-56.527 442.856 -46.6284 433.067 -34.418 433.067H-7.39597C4.81448 433.067 14.713 442.856 14.713 454.933V481.658C14.713 493.734 4.81448 503.524 -7.39597 503.524H-34.418C-46.6284 503.524 -56.527 493.734 -56.527 481.658Z" fill="url(#paint30_linear_1_347)" fill-opacity="0.1"/>
<path d="M-56.527 391.4V364.675C-56.527 352.599 -46.6284 342.809 -34.418 342.809H-7.39597C4.81448 342.809 14.713 352.599 14.713 364.675V391.4C14.713 403.476 4.81448 413.266 -7.39597 413.266H-34.418C-46.6284 413.266 -56.527 403.476 -56.527 391.4Z" fill="url(#paint31_linear_1_347)" fill-opacity="0.1"/>
<path d="M-48.5263 298.106V277.334C-48.5263 267.941 -40.8275 260.327 -31.3305 260.327H-10.3269C-0.829895 260.327 6.86887 267.941 6.86887 277.334V298.106C6.86887 307.499 -0.829895 315.113 -10.3269 315.113H-31.3305C-40.8275 315.113 -48.5263 307.499 -48.5263 298.106Z" fill="url(#paint32_linear_1_347)" fill-opacity="0.1"/>
<path d="M-48.5263 207.848V187.076C-48.5263 177.683 -40.8273 170.069 -31.3303 170.069H-10.3269C-0.829895 170.069 6.86905 177.683 6.86905 187.076V207.848C6.86905 217.241 -0.829895 224.855 -10.3269 224.855H-31.3303C-40.8273 224.855 -48.5263 217.241 -48.5263 207.848Z" fill="url(#paint33_linear_1_347)" fill-opacity="0.1"/>
<path d="M53.5442 113.46V100.826C53.5442 95.0563 58.2735 90.379 64.1074 90.379H76.8815C82.7154 90.379 87.4447 95.0563 87.4447 100.826V113.46C87.4447 119.229 82.7154 123.907 76.8815 123.907H64.1074C58.2735 123.907 53.5442 119.229 53.5442 113.46Z" fill="url(#paint34_linear_1_347)" fill-opacity="0.1"/>
<path d="M53.4211 23.2018V10.5682C53.4211 4.79846 58.1504 0.121155 63.9843 0.121155H76.7582C82.5921 0.121155 87.3214 4.79846 87.3214 10.5682V23.2018C87.3214 28.9716 82.5921 33.6489 76.7582 33.6489H63.9843C58.1504 33.6489 53.4211 28.9716 53.4211 23.2018Z" fill="url(#paint35_linear_1_347)" fill-opacity="0.1"/>
<path d="M34.8656 571.915V545.19C34.8656 533.113 44.7642 523.324 56.9746 523.324H83.9966C96.207 523.324 106.106 533.113 106.106 545.19V571.915C106.106 583.991 96.207 593.781 83.9966 593.781H56.9746C44.7642 593.781 34.8656 583.991 34.8656 571.915Z" fill="url(#paint36_linear_1_347)" fill-opacity="0.1"/>
<path d="M34.8656 662.296V635.571C34.8656 623.494 44.7641 613.705 56.9745 613.705H83.9966C96.207 613.705 106.106 623.494 106.106 635.571V662.296C106.106 674.372 96.207 684.162 83.9966 684.162H56.9745C44.7641 684.162 34.8656 674.372 34.8656 662.296Z" fill="url(#paint37_linear_1_347)" fill-opacity="0.1"/>
<path d="M42.7125 478.621V457.848C42.7125 448.456 50.4114 440.841 59.9084 440.841H80.9119C90.4089 440.841 98.1078 448.456 98.1078 457.848V478.621C98.1078 488.014 90.4089 495.628 80.9119 495.628H59.9084C50.4114 495.628 42.7125 488.014 42.7125 478.621Z" fill="url(#paint38_linear_1_347)" fill-opacity="0.1"/>
<path d="M42.7125 388.363V367.59C42.7125 358.198 50.4114 350.584 59.9084 350.584H80.9119C90.4089 350.584 98.1078 358.198 98.1078 367.59V388.363C98.1078 397.756 90.4089 405.37 80.9119 405.37H59.9084C50.4114 405.37 42.7125 397.756 42.7125 388.363Z" fill="url(#paint39_linear_1_347)" fill-opacity="0.1"/>
<path d="M42.7125 298.106V277.333C42.7125 267.941 50.4112 260.327 59.9082 260.327H80.9119C90.4089 260.327 98.1076 267.941 98.1076 277.333V298.106C98.1076 307.499 90.4089 315.113 80.9119 315.113H59.9082C50.4112 315.113 42.7125 307.499 42.7125 298.106Z" fill="url(#paint40_linear_1_347)" fill-opacity="0.1"/>
<path d="M53.5442 203.718V191.084C53.5442 185.314 58.2735 180.637 64.1074 180.637H76.8813C82.7152 180.637 87.4445 185.314 87.4445 191.084V203.718C87.4445 209.487 82.7152 214.165 76.8813 214.165H64.1074C58.2735 214.165 53.5442 209.487 53.5442 203.718Z" fill="url(#paint41_linear_1_347)" fill-opacity="0.1"/>
<path d="M269.963 191.083V203.717C269.963 209.487 265.234 214.164 259.4 214.164H246.626C240.792 214.164 236.063 209.487 236.063 203.717V191.083C236.063 185.314 240.792 180.636 246.626 180.636H259.4C265.234 180.636 269.963 185.314 269.963 191.083Z" fill="url(#paint42_linear_1_347)" fill-opacity="0.1"/>
<path d="M269.963 281.463V294.097C269.963 299.867 265.234 304.544 259.4 304.544H246.626C240.792 304.544 236.063 299.867 236.063 294.097V281.463C236.063 275.694 240.792 271.016 246.626 271.016H259.4C265.234 271.016 269.963 275.694 269.963 281.463Z" fill="url(#paint43_linear_1_347)" fill-opacity="0.1"/>
<path d="M270.086 371.721V384.355C270.086 390.125 265.357 394.802 259.523 394.802H246.749C240.915 394.802 236.186 390.125 236.186 384.355V371.721C236.186 365.952 240.915 361.274 246.749 361.274H259.523C265.357 361.274 270.086 365.952 270.086 371.721Z" fill="url(#paint44_linear_1_347)" fill-opacity="0.1"/>
<path d="M269.963 461.978V474.612C269.963 480.381 265.234 485.059 259.4 485.059H246.626C240.792 485.059 236.063 480.381 236.063 474.612V461.978C236.063 456.208 240.792 451.531 246.626 451.531H259.4C265.234 451.531 269.963 456.208 269.963 461.978Z" fill="url(#paint45_linear_1_347)" fill-opacity="0.1"/>
<path d="M189.495 548.227V568.999C189.495 578.392 181.796 586.006 172.299 586.006H151.295C141.798 586.006 134.099 578.392 134.099 568.999V548.227C134.099 538.834 141.798 531.22 151.295 531.22H172.299C181.796 531.22 189.495 538.834 189.495 548.227Z" fill="url(#paint46_linear_1_347)" fill-opacity="0.1"/>
<path d="M178.693 100.826V113.459C178.693 119.229 173.964 123.906 168.13 123.906H155.356C149.522 123.906 144.792 119.229 144.792 113.459V100.826C144.792 95.056 149.522 90.3787 155.356 90.3787H168.13C173.964 90.3787 178.693 95.056 178.693 100.826Z" fill="url(#paint47_linear_1_347)" fill-opacity="0.1"/>
<path d="M178.693 191.084V203.717C178.693 209.487 173.964 214.164 168.13 214.164H155.356C149.522 214.164 144.793 209.487 144.793 203.717V191.084C144.793 185.314 149.522 180.637 155.356 180.637H168.13C173.964 180.637 178.693 185.314 178.693 191.084Z" fill="url(#paint48_linear_1_347)" fill-opacity="0.1"/>
<path d="M178.693 281.341V293.974C178.693 299.744 173.964 304.422 168.13 304.422H155.356C149.522 304.422 144.792 299.744 144.792 293.974V281.341C144.792 275.571 149.522 270.894 155.356 270.894H168.13C173.964 270.894 178.693 275.571 178.693 281.341Z" fill="url(#paint49_linear_1_347)" fill-opacity="0.1"/>
<path d="M178.693 371.721V384.355C178.693 390.125 173.964 394.802 168.13 394.802H155.356C149.522 394.802 144.793 390.125 144.793 384.355V371.721C144.793 365.952 149.522 361.274 155.356 361.274H168.13C173.964 361.274 178.693 365.952 178.693 371.721Z" fill="url(#paint50_linear_1_347)" fill-opacity="0.1"/>
<path d="M189.495 457.971V478.743C189.495 488.136 181.796 495.75 172.299 495.75H151.295C141.798 495.75 134.099 488.136 134.099 478.743V457.971C134.099 448.578 141.798 440.964 151.295 440.964H172.299C181.796 440.964 189.495 448.578 189.495 457.971Z" fill="url(#paint51_linear_1_347)" fill-opacity="0.1"/>
<defs>
<linearGradient id="paint0_linear_1_347" x1="-80.7753" y1="694" x2="-80.7753" y2="0" gradientUnits="userSpaceOnUse">
<stop stop-color="white"/>
<stop offset="1" stop-color="#FF7F30"/>
</linearGradient>
<linearGradient id="paint1_linear_1_347" x1="-80.7753" y1="694" x2="-80.7753" y2="0" gradientUnits="userSpaceOnUse">
<stop stop-color="white"/>
<stop offset="1" stop-color="#FF7F30"/>
</linearGradient>
<linearGradient id="paint2_linear_1_347" x1="-80.7753" y1="694" x2="-80.7753" y2="0" gradientUnits="userSpaceOnUse">
<stop stop-color="white"/>
<stop offset="1" stop-color="#FF7F30"/>
</linearGradient>
<linearGradient id="paint3_linear_1_347" x1="-80.7753" y1="694" x2="-80.7753" y2="0" gradientUnits="userSpaceOnUse">
<stop stop-color="white"/>
<stop offset="1" stop-color="#FF7F30"/>
</linearGradient>
<linearGradient id="paint4_linear_1_347" x1="-80.7753" y1="694" x2="-80.7753" y2="0" gradientUnits="userSpaceOnUse">
<stop stop-color="white"/>
<stop offset="1" stop-color="#FF7F30"/>
</linearGradient>
<linearGradient id="paint5_linear_1_347" x1="-80.7753" y1="694" x2="-80.7753" y2="0" gradientUnits="userSpaceOnUse">
<stop stop-color="white"/>
<stop offset="1" stop-color="#FF7F30"/>
</linearGradient>
<linearGradient id="paint6_linear_1_347" x1="-80.7753" y1="694" x2="-80.7753" y2="0" gradientUnits="userSpaceOnUse">
<stop stop-color="white"/>
<stop offset="1" stop-color="#FF7F30"/>
</linearGradient>
<linearGradient id="paint7_linear_1_347" x1="-80.7753" y1="694" x2="-80.7753" y2="0" gradientUnits="userSpaceOnUse">
<stop stop-color="white"/>
<stop offset="1" stop-color="#FF7F30"/>
</linearGradient>
<linearGradient id="paint8_linear_1_347" x1="-80.7753" y1="694" x2="-80.7753" y2="0" gradientUnits="userSpaceOnUse">
<stop stop-color="white"/>
<stop offset="1" stop-color="#FF7F30"/>
</linearGradient>
<linearGradient id="paint9_linear_1_347" x1="-80.7753" y1="694" x2="-80.7753" y2="0" gradientUnits="userSpaceOnUse">
<stop stop-color="white"/>
<stop offset="1" stop-color="#FF7F30"/>
</linearGradient>
<linearGradient id="paint10_linear_1_347" x1="-80.7753" y1="694" x2="-80.7753" y2="0" gradientUnits="userSpaceOnUse">
<stop stop-color="white"/>
<stop offset="1" stop-color="#FF7F30"/>
</linearGradient>
<linearGradient id="paint11_linear_1_347" x1="-80.7753" y1="694" x2="-80.7753" y2="0" gradientUnits="userSpaceOnUse">
<stop stop-color="white"/>
<stop offset="1" stop-color="#FF7F30"/>
</linearGradient>
<linearGradient id="paint12_linear_1_347" x1="-80.7753" y1="694" x2="-80.7753" y2="0" gradientUnits="userSpaceOnUse">
<stop stop-color="white"/>
<stop offset="1" stop-color="#FF7F30"/>
</linearGradient>
<linearGradient id="paint13_linear_1_347" x1="-80.7753" y1="694" x2="-80.7753" y2="0" gradientUnits="userSpaceOnUse">
<stop stop-color="white"/>
<stop offset="1" stop-color="#FF7F30"/>
</linearGradient>
<linearGradient id="paint14_linear_1_347" x1="-80.7753" y1="694" x2="-80.7753" y2="0" gradientUnits="userSpaceOnUse">
<stop stop-color="white"/>
<stop offset="1" stop-color="#FF7F30"/>
</linearGradient>
<linearGradient id="paint15_linear_1_347" x1="-80.7753" y1="694" x2="-80.7753" y2="0" gradientUnits="userSpaceOnUse">
<stop stop-color="white"/>
<stop offset="1" stop-color="#FF7F30"/>
</linearGradient>
<linearGradient id="paint16_linear_1_347" x1="-80.7753" y1="694" x2="-80.7753" y2="0" gradientUnits="userSpaceOnUse">
<stop stop-color="white"/>
<stop offset="1" stop-color="#FF7F30"/>
</linearGradient>
<linearGradient id="paint17_linear_1_347" x1="-80.7753" y1="694" x2="-80.7753" y2="0" gradientUnits="userSpaceOnUse">
<stop stop-color="white"/>
<stop offset="1" stop-color="#FF7F30"/>
</linearGradient>
<linearGradient id="paint18_linear_1_347" x1="-80.7753" y1="694" x2="-80.7753" y2="0" gradientUnits="userSpaceOnUse">
<stop stop-color="white"/>
<stop offset="1" stop-color="#FF7F30"/>
</linearGradient>
<linearGradient id="paint19_linear_1_347" x1="-80.7753" y1="694" x2="-80.7753" y2="0" gradientUnits="userSpaceOnUse">
<stop stop-color="white"/>
<stop offset="1" stop-color="#FF7F30"/>
</linearGradient>
<linearGradient id="paint20_linear_1_347" x1="-80.7753" y1="694" x2="-80.7753" y2="0" gradientUnits="userSpaceOnUse">
<stop stop-color="white"/>
<stop offset="1" stop-color="#FF7F30"/>
</linearGradient>
<linearGradient id="paint21_linear_1_347" x1="-80.7753" y1="694" x2="-80.7753" y2="0" gradientUnits="userSpaceOnUse">
<stop stop-color="white"/>
<stop offset="1" stop-color="#FF7F30"/>
</linearGradient>
<linearGradient id="paint22_linear_1_347" x1="-80.7753" y1="694" x2="-80.7753" y2="0" gradientUnits="userSpaceOnUse">
<stop stop-color="white"/>
<stop offset="1" stop-color="#FF7F30"/>
</linearGradient>
<linearGradient id="paint23_linear_1_347" x1="-80.7753" y1="694" x2="-80.7753" y2="0" gradientUnits="userSpaceOnUse">
<stop stop-color="white"/>
<stop offset="1" stop-color="#FF7F30"/>
</linearGradient>
<linearGradient id="paint24_linear_1_347" x1="-80.7753" y1="694" x2="-80.7753" y2="0" gradientUnits="userSpaceOnUse">
<stop stop-color="white"/>
<stop offset="1" stop-color="#FF7F30"/>
</linearGradient>
<linearGradient id="paint25_linear_1_347" x1="-80.7753" y1="694" x2="-80.7753" y2="0" gradientUnits="userSpaceOnUse">
<stop stop-color="white"/>
<stop offset="1" stop-color="#FF7F30"/>
</linearGradient>
<linearGradient id="paint26_linear_1_347" x1="-80.7753" y1="694" x2="-80.7753" y2="0" gradientUnits="userSpaceOnUse">
<stop stop-color="white"/>
<stop offset="1" stop-color="#FF7F30"/>
</linearGradient>
<linearGradient id="paint27_linear_1_347" x1="-80.7753" y1="694" x2="-80.7753" y2="0" gradientUnits="userSpaceOnUse">
<stop stop-color="white"/>
<stop offset="1" stop-color="#FF7F30"/>
</linearGradient>
<linearGradient id="paint28_linear_1_347" x1="-80.7753" y1="694" x2="-80.7753" y2="0" gradientUnits="userSpaceOnUse">
<stop stop-color="white"/>
<stop offset="1" stop-color="#FF7F30"/>
</linearGradient>
<linearGradient id="paint29_linear_1_347" x1="-80.7753" y1="694" x2="-80.7753" y2="0" gradientUnits="userSpaceOnUse">
<stop stop-color="white"/>
<stop offset="1" stop-color="#FF7F30"/>
</linearGradient>
<linearGradient id="paint30_linear_1_347" x1="-80.7753" y1="694" x2="-80.7753" y2="0" gradientUnits="userSpaceOnUse">
<stop stop-color="white"/>
<stop offset="1" stop-color="#FF7F30"/>
</linearGradient>
<linearGradient id="paint31_linear_1_347" x1="-80.7753" y1="694" x2="-80.7753" y2="0" gradientUnits="userSpaceOnUse">
<stop stop-color="white"/>
<stop offset="1" stop-color="#FF7F30"/>
</linearGradient>
<linearGradient id="paint32_linear_1_347" x1="-80.7753" y1="694" x2="-80.7753" y2="0" gradientUnits="userSpaceOnUse">
<stop stop-color="white"/>
<stop offset="1" stop-color="#FF7F30"/>
</linearGradient>
<linearGradient id="paint33_linear_1_347" x1="-80.7753" y1="694" x2="-80.7753" y2="0" gradientUnits="userSpaceOnUse">
<stop stop-color="white"/>
<stop offset="1" stop-color="#FF7F30"/>
</linearGradient>
<linearGradient id="paint34_linear_1_347" x1="-80.7753" y1="694" x2="-80.7753" y2="0" gradientUnits="userSpaceOnUse">
<stop stop-color="white"/>
<stop offset="1" stop-color="#FF7F30"/>
</linearGradient>
<linearGradient id="paint35_linear_1_347" x1="-80.7753" y1="694" x2="-80.7753" y2="0" gradientUnits="userSpaceOnUse">
<stop stop-color="white"/>
<stop offset="1" stop-color="#FF7F30"/>
</linearGradient>
<linearGradient id="paint36_linear_1_347" x1="-80.7753" y1="694" x2="-80.7753" y2="0" gradientUnits="userSpaceOnUse">
<stop stop-color="white"/>
<stop offset="1" stop-color="#FF7F30"/>
</linearGradient>
<linearGradient id="paint37_linear_1_347" x1="-80.7753" y1="694" x2="-80.7753" y2="0" gradientUnits="userSpaceOnUse">
<stop stop-color="white"/>
<stop offset="1" stop-color="#FF7F30"/>
</linearGradient>
<linearGradient id="paint38_linear_1_347" x1="-80.7753" y1="694" x2="-80.7753" y2="0" gradientUnits="userSpaceOnUse">
<stop stop-color="white"/>
<stop offset="1" stop-color="#FF7F30"/>
</linearGradient>
<linearGradient id="paint39_linear_1_347" x1="-80.7753" y1="694" x2="-80.7753" y2="0" gradientUnits="userSpaceOnUse">
<stop stop-color="white"/>
<stop offset="1" stop-color="#FF7F30"/>
</linearGradient>
<linearGradient id="paint40_linear_1_347" x1="-80.7753" y1="694" x2="-80.7753" y2="0" gradientUnits="userSpaceOnUse">
<stop stop-color="white"/>
<stop offset="1" stop-color="#FF7F30"/>
</linearGradient>
<linearGradient id="paint41_linear_1_347" x1="-80.7753" y1="694" x2="-80.7753" y2="0" gradientUnits="userSpaceOnUse">
<stop stop-color="white"/>
<stop offset="1" stop-color="#FF7F30"/>
</linearGradient>
<linearGradient id="paint42_linear_1_347" x1="-80.7753" y1="694" x2="-80.7753" y2="0" gradientUnits="userSpaceOnUse">
<stop stop-color="white"/>
<stop offset="1" stop-color="#FF7F30"/>
</linearGradient>
<linearGradient id="paint43_linear_1_347" x1="-80.7753" y1="694" x2="-80.7753" y2="0" gradientUnits="userSpaceOnUse">
<stop stop-color="white"/>
<stop offset="1" stop-color="#FF7F30"/>
</linearGradient>
<linearGradient id="paint44_linear_1_347" x1="-80.7753" y1="694" x2="-80.7753" y2="0" gradientUnits="userSpaceOnUse">
<stop stop-color="white"/>
<stop offset="1" stop-color="#FF7F30"/>
</linearGradient>
<linearGradient id="paint45_linear_1_347" x1="-80.7753" y1="694" x2="-80.7753" y2="0" gradientUnits="userSpaceOnUse">
<stop stop-color="white"/>
<stop offset="1" stop-color="#FF7F30"/>
</linearGradient>
<linearGradient id="paint46_linear_1_347" x1="-80.7753" y1="694" x2="-80.7753" y2="0" gradientUnits="userSpaceOnUse">
<stop stop-color="white"/>
<stop offset="1" stop-color="#FF7F30"/>
</linearGradient>
<linearGradient id="paint47_linear_1_347" x1="-80.7753" y1="694" x2="-80.7753" y2="0" gradientUnits="userSpaceOnUse">
<stop stop-color="white"/>
<stop offset="1" stop-color="#FF7F30"/>
</linearGradient>
<linearGradient id="paint48_linear_1_347" x1="-80.7753" y1="694" x2="-80.7753" y2="0" gradientUnits="userSpaceOnUse">
<stop stop-color="white"/>
<stop offset="1" stop-color="#FF7F30"/>
</linearGradient>
<linearGradient id="paint49_linear_1_347" x1="-80.7753" y1="694" x2="-80.7753" y2="0" gradientUnits="userSpaceOnUse">
<stop stop-color="white"/>
<stop offset="1" stop-color="#FF7F30"/>
</linearGradient>
<linearGradient id="paint50_linear_1_347" x1="-80.7753" y1="694" x2="-80.7753" y2="0" gradientUnits="userSpaceOnUse">
<stop stop-color="white"/>
<stop offset="1" stop-color="#FF7F30"/>
</linearGradient>
<linearGradient id="paint51_linear_1_347" x1="-80.7753" y1="694" x2="-80.7753" y2="0" gradientUnits="userSpaceOnUse">
<stop stop-color="white"/>
<stop offset="1" stop-color="#FF7F30"/>
</linearGradient>
</defs>
</svg>
