<svg width="177" height="175" viewBox="0 0 177 175" fill="none" xmlns="http://www.w3.org/2000/svg">
<path d="M0 52.6257V61.2333C0 65.1412 3.20417 68.3093 7.15673 68.3093H15.8626C19.8151 68.3093 23.0193 65.1412 23.0193 61.2333V52.6257C23.0193 48.7178 19.8151 45.5498 15.8626 45.5498H7.15673C3.20417 45.5498 0 48.7178 0 52.6257Z" fill="url(#paint0_linear_1_923)"/>
<path d="M0 75.3848V83.9924C0 87.9004 3.20417 91.0684 7.15673 91.0684H15.8625C19.8151 91.0684 23.0193 87.9004 23.0193 83.9924V75.3848C23.0193 71.4769 19.8151 68.3093 15.8626 68.3093H7.15673C3.20417 68.3093 0 71.4769 0 75.3848Z" fill="url(#paint1_linear_1_923)"/>
<path d="M0 98.1444V106.752C0 110.66 3.20417 113.828 7.15673 113.828H15.8625C19.8151 113.828 23.0193 110.66 23.0193 106.752V98.1444C23.0193 94.2365 19.8151 91.0684 15.8625 91.0684H7.15673C3.20417 91.0684 0 94.2365 0 98.1444Z" fill="url(#paint2_linear_1_923)"/>
<path d="M0 120.904V129.512C0 133.42 3.20417 136.588 7.15673 136.588H15.8625C19.8151 136.588 23.0193 133.42 23.0193 129.512V120.904C23.0193 116.996 19.8151 113.828 15.8625 113.828H7.15673C3.20417 113.828 0 116.996 0 120.904Z" fill="url(#paint3_linear_1_923)"/>
<path d="M23.0215 29.8661V38.4737C23.0215 42.3816 26.2257 45.5496 30.1782 45.5496H38.8841C42.8366 45.5496 46.0408 42.3816 46.0408 38.4737V29.8661C46.0408 25.9581 42.8366 22.7901 38.8841 22.7901H30.1782C26.2257 22.7901 23.0215 25.9581 23.0215 29.8661Z" fill="url(#paint4_linear_1_923)"/>
<path d="M23.0525 52.6256V61.2332C23.0525 65.1412 26.2567 68.3092 30.2093 68.3092H38.9151C42.8677 68.3092 46.0719 65.1412 46.0719 61.2332V52.6256C46.0719 48.7177 42.8677 45.5497 38.9151 45.5497H30.2093C26.2567 45.5497 23.0525 48.7177 23.0525 52.6256Z" fill="url(#paint5_linear_1_923)"/>
<path d="M23.0193 75.3848V83.9924C23.0193 87.9003 26.2257 91.0685 30.1782 91.0685H38.884C42.8366 91.0685 46.0408 87.9005 46.0408 83.9925V75.385C46.0408 71.477 42.8366 68.309 38.884 68.309H30.1782C26.2257 68.309 23.0193 71.4769 23.0193 75.3848Z" fill="url(#paint6_linear_1_923)"/>
<path d="M23.0193 98.1444V106.752C23.0193 110.66 26.2257 113.828 30.1782 113.828H38.884C42.8366 113.828 46.0408 110.66 46.0408 106.752V98.1445C46.0408 94.2366 42.8366 91.0685 38.884 91.0685H30.1782C26.2257 91.0685 23.0193 94.2365 23.0193 98.1444Z" fill="url(#paint7_linear_1_923)"/>
<path d="M46.0352 29.8661V38.4737C46.0352 42.3816 49.2394 45.5496 53.192 45.5496H61.8978C65.8503 45.5496 69.0545 42.3816 69.0545 38.4737V29.8661C69.0545 25.9581 65.8503 22.7901 61.8978 22.7901H53.192C49.2394 22.7901 46.0352 25.9581 46.0352 29.8661Z" fill="url(#paint8_linear_1_923)"/>
<path d="M46.0352 7.10654V15.7141C46.0352 19.6221 49.2394 22.7901 53.192 22.7901H61.8978C65.8503 22.7901 69.0545 19.6221 69.0545 15.7141V7.10654C69.0545 3.19859 65.8503 0.0305776 61.8978 0.0305776H53.1919C49.2394 0.0305776 46.0352 3.19859 46.0352 7.10654Z" fill="url(#paint9_linear_1_923)"/>
<path d="M46.0663 52.6256V61.2332C46.0663 65.1412 49.2704 68.3092 53.223 68.3092H61.9288C65.8814 68.3092 69.0856 65.1412 69.0856 61.2332V52.6256C69.0856 48.7177 65.8814 45.5497 61.9288 45.5497H53.223C49.2704 45.5497 46.0663 48.7177 46.0663 52.6256Z" fill="url(#paint10_linear_1_923)"/>
<path d="M69.0567 29.8353V38.4428C69.0567 42.3508 72.2609 45.5188 76.2135 45.5188H84.9193C88.8718 45.5188 92.076 42.3508 92.076 38.4428V29.8353C92.076 25.9273 88.8718 22.7593 84.9193 22.7593H76.2135C72.2609 22.7593 69.0567 25.9273 69.0567 29.8353Z" fill="url(#paint11_linear_1_923)"/>
<path d="M69.0877 7.07596V15.6835C69.0877 19.5915 72.2919 22.7595 76.2445 22.7595H84.9503C88.9028 22.7595 92.107 19.5915 92.107 15.6835V7.07596C92.107 3.16801 88.9028 0 84.9503 0H76.2445C72.2919 0 69.0877 3.16801 69.0877 7.07596Z" fill="url(#paint12_linear_1_923)"/>
<path d="M69.0877 52.5948V61.2024C69.0877 65.1103 72.2919 68.2784 76.2445 68.2784H84.9503C88.9029 68.2784 92.1071 65.1103 92.1071 61.2024V52.5948C92.1071 48.6869 88.9029 45.5189 84.9503 45.5189H76.2445C72.2919 45.5189 69.0877 48.6869 69.0877 52.5948Z" fill="url(#paint13_linear_1_923)"/>
<path d="M92.107 7.07596V15.6835C92.107 19.5915 95.3134 22.7595 99.266 22.7595H107.972C111.924 22.7595 115.129 19.5915 115.129 15.6836V7.07601C115.129 3.16806 111.924 4.73602e-05 107.972 4.73602e-05H99.266C95.3134 4.73602e-05 92.107 3.16801 92.107 7.07596Z" fill="url(#paint14_linear_1_923)"/>
<path d="M25.5598 144.613V151.352C25.5598 154.397 28.0565 156.866 31.1364 156.866H37.9524C41.0323 156.866 43.5291 154.397 43.5291 151.352V144.613C43.5291 141.568 41.0323 139.099 37.9524 139.099H31.1364C28.0565 139.099 25.5598 141.568 25.5598 144.613Z" fill="url(#paint15_linear_1_923)"/>
<path d="M25.5598 121.854V128.593C25.5598 131.638 28.0566 134.106 31.1365 134.106H37.9524C41.0323 134.106 43.5291 131.638 43.5291 128.593V121.854C43.5291 118.808 41.0323 116.34 37.9524 116.34H31.1365C28.0566 116.34 25.5598 118.808 25.5598 121.854Z" fill="url(#paint16_linear_1_923)"/>
<path d="M50.5603 145.379V150.617C50.5603 152.986 52.5023 154.906 54.8977 154.906H60.1956C62.5911 154.906 64.533 152.986 64.533 150.617V145.379C64.533 143.011 62.5911 141.091 60.1956 141.091H54.8977C52.5023 141.091 50.5603 143.011 50.5603 145.379Z" fill="url(#paint17_linear_1_923)"/>
<path d="M53.2847 169.149V172.335C53.2847 173.79 54.4776 174.969 55.9491 174.969H59.1712C60.6427 174.969 61.8356 173.79 61.8356 172.335V169.149C61.8356 167.695 60.6427 166.515 59.1712 166.515H55.9491C54.4776 166.515 53.2847 167.695 53.2847 169.149Z" fill="url(#paint18_linear_1_923)"/>
<path d="M46.0663 75.385V83.9925C46.0663 87.9005 49.2704 91.0685 53.223 91.0685H61.9288C65.8814 91.0685 69.0855 87.9005 69.0855 83.9925V75.385C69.0855 71.477 65.8814 68.3092 61.9288 68.3092H53.223C49.2704 68.3092 46.0663 71.477 46.0663 75.385Z" fill="url(#paint19_linear_1_923)"/>
<path d="M48.5811 99.094V105.833C48.5811 108.878 51.0778 111.347 54.1577 111.347H60.9737C64.0536 111.347 66.5504 108.878 66.5504 105.833V99.094C66.5504 96.0488 64.0536 93.5802 60.9737 93.5802H54.1577C51.0778 93.5802 48.5811 96.0488 48.5811 99.094Z" fill="url(#paint20_linear_1_923)"/>
<path d="M48.5811 121.854V128.593C48.5811 131.638 51.0779 134.106 54.1578 134.106H60.9737C64.0536 134.106 66.5504 131.638 66.5504 128.593V121.854C66.5504 118.808 64.0536 116.34 60.9737 116.34H54.1578C51.0779 116.34 48.5811 118.808 48.5811 121.854Z" fill="url(#paint21_linear_1_923)"/>
<path d="M73.5812 145.348V150.586C73.5812 152.955 75.5231 154.875 77.9186 154.875H83.2165C85.612 154.875 87.5539 152.955 87.5539 150.586V145.348C87.5539 142.98 85.612 141.06 83.2165 141.06H77.9186C75.5231 141.06 73.5812 142.98 73.5812 145.348Z" fill="url(#paint22_linear_1_923)"/>
<path d="M76.3062 169.18V172.366C76.3062 173.821 77.4991 175 78.9706 175H82.1927C83.6642 175 84.8571 173.821 84.8571 172.366V169.18C84.8571 167.725 83.6642 166.546 82.1927 166.546H78.9706C77.4991 166.546 76.3062 167.725 76.3062 169.18Z" fill="url(#paint23_linear_1_923)"/>
<path d="M71.5948 76.3346V83.0737C71.5948 86.1189 74.0916 88.5874 77.1715 88.5874H83.9874C87.0673 88.5874 89.5641 86.1189 89.5641 83.0737V76.3346C89.5641 73.2895 87.0673 70.8209 83.9874 70.8209H77.1715C74.0916 70.8209 71.5948 73.2895 71.5948 76.3346Z" fill="url(#paint24_linear_1_923)"/>
<path d="M71.6259 99.094V105.833C71.6259 108.878 74.1226 111.347 77.2025 111.347H84.0185C87.0984 111.347 89.5951 108.878 89.5951 105.833V99.094C89.5951 96.0488 87.0984 93.5803 84.0185 93.5803H77.2025C74.1226 93.5803 71.6259 96.0488 71.6259 99.094Z" fill="url(#paint25_linear_1_923)"/>
<path d="M73.5812 122.589V127.827C73.5812 130.195 75.5232 132.115 77.9186 132.115H83.2165C85.612 132.115 87.5539 130.195 87.5539 127.827V122.589C87.5539 120.22 85.612 118.3 83.2165 118.3H77.9186C75.5232 118.3 73.5812 120.22 73.5812 122.589Z" fill="url(#paint26_linear_1_923)"/>
<path d="M99.3269 146.39V149.576C99.3269 151.031 100.52 152.21 101.991 152.21H105.213C106.685 152.21 107.878 151.031 107.878 149.576V146.39C107.878 144.935 106.685 143.756 105.213 143.756H101.991C100.52 143.756 99.3269 144.935 99.3269 146.39Z" fill="url(#paint27_linear_1_923)"/>
<path d="M99.3269 169.149V172.335C99.3269 173.79 100.52 174.969 101.991 174.969H105.213C106.685 174.969 107.878 173.79 107.878 172.335V169.149C107.878 167.694 106.685 166.515 105.213 166.515H101.991C100.52 166.515 99.3269 167.694 99.3269 169.149Z" fill="url(#paint28_linear_1_923)"/>
<path d="M94.6473 30.7544V37.4934C94.6473 40.5386 97.1441 43.0072 100.224 43.0072H107.04C110.12 43.0072 112.617 40.5386 112.617 37.4934V30.7544C112.617 27.7093 110.12 25.2407 107.04 25.2407H100.224C97.1441 25.2407 94.6473 27.7093 94.6473 30.7544Z" fill="url(#paint29_linear_1_923)"/>
<path d="M94.6163 53.5445V60.2835C94.6163 63.3287 97.1131 65.7973 100.193 65.7973H107.009C110.089 65.7973 112.586 63.3287 112.586 60.2835V53.5445C112.586 50.4994 110.089 48.0308 107.009 48.0308H100.193C97.1131 48.0308 94.6163 50.4994 94.6163 53.5445Z" fill="url(#paint30_linear_1_923)"/>
<path d="M94.6163 76.3041V83.0431C94.6163 86.0882 97.1131 88.5568 100.193 88.5568H107.009C110.089 88.5568 112.586 86.0882 112.586 83.0431V76.3041C112.586 73.2589 110.089 70.7903 107.009 70.7903H100.193C97.1131 70.7903 94.6163 73.2589 94.6163 76.3041Z" fill="url(#paint31_linear_1_923)"/>
<path d="M96.6344 99.8292V105.067C96.6344 107.436 98.5763 109.356 100.972 109.356H106.27C108.665 109.356 110.607 107.436 110.607 105.067V99.8292C110.607 97.4607 108.665 95.5407 106.27 95.5407H100.972C98.5763 95.5407 96.6344 97.4607 96.6344 99.8292Z" fill="url(#paint32_linear_1_923)"/>
<path d="M96.6344 122.589V127.827C96.6344 130.195 98.5763 132.115 100.972 132.115H106.27C108.665 132.115 110.607 130.195 110.607 127.827V122.589C110.607 120.22 108.665 118.3 106.27 118.3H100.972C98.5763 118.3 96.6344 120.22 96.6344 122.589Z" fill="url(#paint33_linear_1_923)"/>
<path d="M122.38 146.39V149.576C122.38 151.03 123.573 152.21 125.045 152.21H128.267C129.738 152.21 130.931 151.03 130.931 149.576V146.39C130.931 144.935 129.738 143.756 128.267 143.756H125.045C123.573 143.756 122.38 144.935 122.38 146.39Z" fill="url(#paint34_linear_1_923)"/>
<path d="M122.349 169.149V172.335C122.349 173.79 123.542 174.969 125.014 174.969H128.236C129.707 174.969 130.9 173.79 130.9 172.335V169.149C130.9 167.695 129.707 166.515 128.236 166.515H125.014C123.542 166.515 122.349 167.695 122.349 169.149Z" fill="url(#paint35_linear_1_923)"/>
<path d="M117.669 30.7852V37.5242C117.669 40.5694 120.166 43.038 123.246 43.038H130.061C133.141 43.038 135.638 40.5694 135.638 37.5242V30.7852C135.638 27.7401 133.141 25.2715 130.061 25.2715H123.246C120.166 25.2715 117.669 27.7401 117.669 30.7852Z" fill="url(#paint36_linear_1_923)"/>
<path d="M117.669 7.99463V14.7336C117.669 17.7788 120.166 20.2474 123.245 20.2474H130.061C133.141 20.2474 135.638 17.7788 135.638 14.7336V7.99463C135.638 4.94947 133.141 2.48088 130.061 2.48088H123.245C120.166 2.48088 117.669 4.94947 117.669 7.99463Z" fill="url(#paint37_linear_1_923)"/>
<path d="M119.648 54.3103V59.5484C119.648 61.9168 121.59 63.8368 123.986 63.8368H129.283C131.679 63.8368 133.621 61.9168 133.621 59.5484V54.3103C133.621 51.9418 131.679 50.0218 129.283 50.0218H123.986C121.59 50.0218 119.648 51.9418 119.648 54.3103Z" fill="url(#paint38_linear_1_923)"/>
<path d="M119.648 77.0698V82.3079C119.648 84.6764 121.59 86.5964 123.986 86.5964H129.283C131.679 86.5964 133.621 84.6764 133.621 82.3079V77.0698C133.621 74.7014 131.679 72.7814 129.283 72.7814H123.986C121.59 72.7814 119.648 74.7014 119.648 77.0698Z" fill="url(#paint39_linear_1_923)"/>
<path d="M119.648 99.8292V105.067C119.648 107.436 121.59 109.356 123.985 109.356H129.283C131.679 109.356 133.621 107.436 133.621 105.067V99.8292C133.621 97.4607 131.679 95.5407 129.283 95.5407H123.985C121.59 95.5407 119.648 97.4607 119.648 99.8292Z" fill="url(#paint40_linear_1_923)"/>
<path d="M122.38 123.63V126.816C122.38 128.271 123.573 129.45 125.045 129.45H128.267C129.738 129.45 130.931 128.271 130.931 126.816V123.63C130.931 122.175 129.738 120.996 128.267 120.996H125.045C123.573 120.996 122.38 122.175 122.38 123.63Z" fill="url(#paint41_linear_1_923)"/>
<path d="M176.969 126.816V123.63C176.969 122.176 175.776 120.996 174.305 120.996H171.082C169.611 120.996 168.418 122.176 168.418 123.63V126.816C168.418 128.271 169.611 129.451 171.082 129.451H174.305C175.776 129.451 176.969 128.271 176.969 126.816Z" fill="url(#paint42_linear_1_923)"/>
<path d="M176.969 104.026V100.84C176.969 99.3852 175.776 98.2058 174.305 98.2058H171.082C169.611 98.2058 168.418 99.3852 168.418 100.84V104.026C168.418 105.481 169.611 106.66 171.082 106.66H174.305C175.776 106.66 176.969 105.481 176.969 104.026Z" fill="url(#paint43_linear_1_923)"/>
<path d="M177 81.2663V78.0806C177 76.6257 175.807 75.4462 174.336 75.4462H171.114C169.642 75.4462 168.449 76.6257 168.449 78.0806V81.2663C168.449 82.7212 169.642 83.9006 171.114 83.9006H174.336C175.807 83.9006 177 82.7212 177 81.2663Z" fill="url(#paint44_linear_1_923)"/>
<path d="M176.969 58.5069V55.3212C176.969 53.8663 175.776 52.6869 174.305 52.6869H171.082C169.611 52.6869 168.418 53.8663 168.418 55.3212V58.5069C168.418 59.9619 169.611 61.1413 171.082 61.1413H174.305C175.776 61.1413 176.969 59.9619 176.969 58.5069Z" fill="url(#paint45_linear_1_923)"/>
<path d="M156.672 36.7584V31.5204C156.672 29.1519 154.73 27.2319 152.334 27.2319H147.037C144.641 27.2319 142.699 29.1519 142.699 31.5204V36.7584C142.699 39.1269 144.641 41.0469 147.037 41.0469H152.334C154.73 41.0469 156.672 39.1269 156.672 36.7584Z" fill="url(#paint46_linear_1_923)"/>
<path d="M153.947 149.576V146.39C153.947 144.935 152.754 143.756 151.283 143.756H148.061C146.589 143.756 145.396 144.935 145.396 146.39V149.576C145.396 151.031 146.589 152.21 148.061 152.21H151.283C152.754 152.21 153.947 151.031 153.947 149.576Z" fill="url(#paint47_linear_1_923)"/>
<path d="M153.947 126.816V123.63C153.947 122.175 152.754 120.996 151.283 120.996H148.061C146.589 120.996 145.396 122.175 145.396 123.63V126.816C145.396 128.271 146.589 129.45 148.061 129.45H151.283C152.754 129.45 153.947 128.271 153.947 126.816Z" fill="url(#paint48_linear_1_923)"/>
<path d="M153.947 104.057V100.871C153.947 99.4161 152.754 98.2366 151.283 98.2366H148.061C146.589 98.2366 145.396 99.4161 145.396 100.871V104.057C145.396 105.512 146.589 106.691 148.061 106.691H151.283C152.754 106.691 153.947 105.512 153.947 104.057Z" fill="url(#paint49_linear_1_923)"/>
<path d="M153.947 81.2663V78.0806C153.947 76.6257 152.754 75.4462 151.283 75.4462H148.061C146.589 75.4462 145.396 76.6257 145.396 78.0806V81.2663C145.396 82.7212 146.589 83.9006 148.061 83.9006H151.283C152.754 83.9006 153.947 82.7212 153.947 81.2663Z" fill="url(#paint50_linear_1_923)"/>
<path d="M156.672 59.5175V54.2795C156.672 51.911 154.73 49.991 152.334 49.991H147.037C144.641 49.991 142.699 51.911 142.699 54.2795V59.5175C142.699 61.8859 144.641 63.806 147.037 63.806H152.334C154.73 63.806 156.672 61.8859 156.672 59.5175Z" fill="url(#paint51_linear_1_923)"/>
<defs>
<linearGradient id="paint0_linear_1_923" x1="32.5613" y1="-8.75" x2="147.876" y2="182.692" gradientUnits="userSpaceOnUse">
<stop stop-color="#E0FFB9"/>
<stop offset="1" stop-color="#FF7F30"/>
</linearGradient>
<linearGradient id="paint1_linear_1_923" x1="32.5613" y1="-8.75" x2="147.876" y2="182.692" gradientUnits="userSpaceOnUse">
<stop stop-color="#E0FFB9"/>
<stop offset="1" stop-color="#FF7F30"/>
</linearGradient>
<linearGradient id="paint2_linear_1_923" x1="32.5613" y1="-8.75" x2="147.876" y2="182.692" gradientUnits="userSpaceOnUse">
<stop stop-color="#E0FFB9"/>
<stop offset="1" stop-color="#FF7F30"/>
</linearGradient>
<linearGradient id="paint3_linear_1_923" x1="32.5613" y1="-8.75" x2="147.876" y2="182.692" gradientUnits="userSpaceOnUse">
<stop stop-color="#E0FFB9"/>
<stop offset="1" stop-color="#FF7F30"/>
</linearGradient>
<linearGradient id="paint4_linear_1_923" x1="32.5613" y1="-8.75" x2="147.876" y2="182.692" gradientUnits="userSpaceOnUse">
<stop stop-color="#E0FFB9"/>
<stop offset="1" stop-color="#FF7F30"/>
</linearGradient>
<linearGradient id="paint5_linear_1_923" x1="32.5613" y1="-8.75" x2="147.876" y2="182.692" gradientUnits="userSpaceOnUse">
<stop stop-color="#E0FFB9"/>
<stop offset="1" stop-color="#FF7F30"/>
</linearGradient>
<linearGradient id="paint6_linear_1_923" x1="32.5613" y1="-8.75" x2="147.876" y2="182.692" gradientUnits="userSpaceOnUse">
<stop stop-color="#E0FFB9"/>
<stop offset="1" stop-color="#FF7F30"/>
</linearGradient>
<linearGradient id="paint7_linear_1_923" x1="32.5613" y1="-8.75" x2="147.876" y2="182.692" gradientUnits="userSpaceOnUse">
<stop stop-color="#E0FFB9"/>
<stop offset="1" stop-color="#FF7F30"/>
</linearGradient>
<linearGradient id="paint8_linear_1_923" x1="32.5613" y1="-8.75" x2="147.876" y2="182.692" gradientUnits="userSpaceOnUse">
<stop stop-color="#E0FFB9"/>
<stop offset="1" stop-color="#FF7F30"/>
</linearGradient>
<linearGradient id="paint9_linear_1_923" x1="32.5613" y1="-8.75" x2="147.876" y2="182.692" gradientUnits="userSpaceOnUse">
<stop stop-color="#E0FFB9"/>
<stop offset="1" stop-color="#FF7F30"/>
</linearGradient>
<linearGradient id="paint10_linear_1_923" x1="32.5613" y1="-8.75" x2="147.876" y2="182.692" gradientUnits="userSpaceOnUse">
<stop stop-color="#E0FFB9"/>
<stop offset="1" stop-color="#FF7F30"/>
</linearGradient>
<linearGradient id="paint11_linear_1_923" x1="32.5613" y1="-8.75" x2="147.876" y2="182.692" gradientUnits="userSpaceOnUse">
<stop stop-color="#E0FFB9"/>
<stop offset="1" stop-color="#FF7F30"/>
</linearGradient>
<linearGradient id="paint12_linear_1_923" x1="32.5613" y1="-8.75" x2="147.876" y2="182.692" gradientUnits="userSpaceOnUse">
<stop stop-color="#E0FFB9"/>
<stop offset="1" stop-color="#FF7F30"/>
</linearGradient>
<linearGradient id="paint13_linear_1_923" x1="32.5613" y1="-8.75" x2="147.876" y2="182.692" gradientUnits="userSpaceOnUse">
<stop stop-color="#E0FFB9"/>
<stop offset="1" stop-color="#FF7F30"/>
</linearGradient>
<linearGradient id="paint14_linear_1_923" x1="32.5613" y1="-8.75" x2="147.876" y2="182.692" gradientUnits="userSpaceOnUse">
<stop stop-color="#E0FFB9"/>
<stop offset="1" stop-color="#FF7F30"/>
</linearGradient>
<linearGradient id="paint15_linear_1_923" x1="32.5613" y1="-8.75" x2="147.876" y2="182.692" gradientUnits="userSpaceOnUse">
<stop stop-color="#E0FFB9"/>
<stop offset="1" stop-color="#FF7F30"/>
</linearGradient>
<linearGradient id="paint16_linear_1_923" x1="32.5613" y1="-8.75" x2="147.876" y2="182.692" gradientUnits="userSpaceOnUse">
<stop stop-color="#E0FFB9"/>
<stop offset="1" stop-color="#FF7F30"/>
</linearGradient>
<linearGradient id="paint17_linear_1_923" x1="32.5613" y1="-8.75" x2="147.876" y2="182.692" gradientUnits="userSpaceOnUse">
<stop stop-color="#E0FFB9"/>
<stop offset="1" stop-color="#FF7F30"/>
</linearGradient>
<linearGradient id="paint18_linear_1_923" x1="32.5613" y1="-8.75" x2="147.876" y2="182.692" gradientUnits="userSpaceOnUse">
<stop stop-color="#E0FFB9"/>
<stop offset="1" stop-color="#FF7F30"/>
</linearGradient>
<linearGradient id="paint19_linear_1_923" x1="32.5613" y1="-8.75" x2="147.876" y2="182.692" gradientUnits="userSpaceOnUse">
<stop stop-color="#E0FFB9"/>
<stop offset="1" stop-color="#FF7F30"/>
</linearGradient>
<linearGradient id="paint20_linear_1_923" x1="32.5613" y1="-8.75" x2="147.876" y2="182.692" gradientUnits="userSpaceOnUse">
<stop stop-color="#E0FFB9"/>
<stop offset="1" stop-color="#FF7F30"/>
</linearGradient>
<linearGradient id="paint21_linear_1_923" x1="32.5613" y1="-8.75" x2="147.876" y2="182.692" gradientUnits="userSpaceOnUse">
<stop stop-color="#E0FFB9"/>
<stop offset="1" stop-color="#FF7F30"/>
</linearGradient>
<linearGradient id="paint22_linear_1_923" x1="32.5613" y1="-8.75" x2="147.876" y2="182.692" gradientUnits="userSpaceOnUse">
<stop stop-color="#E0FFB9"/>
<stop offset="1" stop-color="#FF7F30"/>
</linearGradient>
<linearGradient id="paint23_linear_1_923" x1="32.5613" y1="-8.75" x2="147.876" y2="182.692" gradientUnits="userSpaceOnUse">
<stop stop-color="#E0FFB9"/>
<stop offset="1" stop-color="#FF7F30"/>
</linearGradient>
<linearGradient id="paint24_linear_1_923" x1="32.5613" y1="-8.75" x2="147.876" y2="182.692" gradientUnits="userSpaceOnUse">
<stop stop-color="#E0FFB9"/>
<stop offset="1" stop-color="#FF7F30"/>
</linearGradient>
<linearGradient id="paint25_linear_1_923" x1="32.5613" y1="-8.75" x2="147.876" y2="182.692" gradientUnits="userSpaceOnUse">
<stop stop-color="#E0FFB9"/>
<stop offset="1" stop-color="#FF7F30"/>
</linearGradient>
<linearGradient id="paint26_linear_1_923" x1="32.5613" y1="-8.75" x2="147.876" y2="182.692" gradientUnits="userSpaceOnUse">
<stop stop-color="#E0FFB9"/>
<stop offset="1" stop-color="#FF7F30"/>
</linearGradient>
<linearGradient id="paint27_linear_1_923" x1="32.5613" y1="-8.75" x2="147.876" y2="182.692" gradientUnits="userSpaceOnUse">
<stop stop-color="#E0FFB9"/>
<stop offset="1" stop-color="#FF7F30"/>
</linearGradient>
<linearGradient id="paint28_linear_1_923" x1="32.5613" y1="-8.75" x2="147.876" y2="182.692" gradientUnits="userSpaceOnUse">
<stop stop-color="#E0FFB9"/>
<stop offset="1" stop-color="#FF7F30"/>
</linearGradient>
<linearGradient id="paint29_linear_1_923" x1="32.5613" y1="-8.75" x2="147.876" y2="182.692" gradientUnits="userSpaceOnUse">
<stop stop-color="#E0FFB9"/>
<stop offset="1" stop-color="#FF7F30"/>
</linearGradient>
<linearGradient id="paint30_linear_1_923" x1="32.5613" y1="-8.75" x2="147.876" y2="182.692" gradientUnits="userSpaceOnUse">
<stop stop-color="#E0FFB9"/>
<stop offset="1" stop-color="#FF7F30"/>
</linearGradient>
<linearGradient id="paint31_linear_1_923" x1="32.5613" y1="-8.75" x2="147.876" y2="182.692" gradientUnits="userSpaceOnUse">
<stop stop-color="#E0FFB9"/>
<stop offset="1" stop-color="#FF7F30"/>
</linearGradient>
<linearGradient id="paint32_linear_1_923" x1="32.5613" y1="-8.75" x2="147.876" y2="182.692" gradientUnits="userSpaceOnUse">
<stop stop-color="#E0FFB9"/>
<stop offset="1" stop-color="#FF7F30"/>
</linearGradient>
<linearGradient id="paint33_linear_1_923" x1="32.5613" y1="-8.75" x2="147.876" y2="182.692" gradientUnits="userSpaceOnUse">
<stop stop-color="#E0FFB9"/>
<stop offset="1" stop-color="#FF7F30"/>
</linearGradient>
<linearGradient id="paint34_linear_1_923" x1="32.5613" y1="-8.75" x2="147.876" y2="182.692" gradientUnits="userSpaceOnUse">
<stop stop-color="#E0FFB9"/>
<stop offset="1" stop-color="#FF7F30"/>
</linearGradient>
<linearGradient id="paint35_linear_1_923" x1="32.5613" y1="-8.75" x2="147.876" y2="182.692" gradientUnits="userSpaceOnUse">
<stop stop-color="#E0FFB9"/>
<stop offset="1" stop-color="#FF7F30"/>
</linearGradient>
<linearGradient id="paint36_linear_1_923" x1="32.5613" y1="-8.75" x2="147.876" y2="182.692" gradientUnits="userSpaceOnUse">
<stop stop-color="#E0FFB9"/>
<stop offset="1" stop-color="#FF7F30"/>
</linearGradient>
<linearGradient id="paint37_linear_1_923" x1="32.5613" y1="-8.75" x2="147.876" y2="182.692" gradientUnits="userSpaceOnUse">
<stop stop-color="#E0FFB9"/>
<stop offset="1" stop-color="#FF7F30"/>
</linearGradient>
<linearGradient id="paint38_linear_1_923" x1="32.5613" y1="-8.75" x2="147.876" y2="182.692" gradientUnits="userSpaceOnUse">
<stop stop-color="#E0FFB9"/>
<stop offset="1" stop-color="#FF7F30"/>
</linearGradient>
<linearGradient id="paint39_linear_1_923" x1="32.5613" y1="-8.75" x2="147.876" y2="182.692" gradientUnits="userSpaceOnUse">
<stop stop-color="#E0FFB9"/>
<stop offset="1" stop-color="#FF7F30"/>
</linearGradient>
<linearGradient id="paint40_linear_1_923" x1="32.5613" y1="-8.75" x2="147.876" y2="182.692" gradientUnits="userSpaceOnUse">
<stop stop-color="#E0FFB9"/>
<stop offset="1" stop-color="#FF7F30"/>
</linearGradient>
<linearGradient id="paint41_linear_1_923" x1="32.5613" y1="-8.75" x2="147.876" y2="182.692" gradientUnits="userSpaceOnUse">
<stop stop-color="#E0FFB9"/>
<stop offset="1" stop-color="#FF7F30"/>
</linearGradient>
<linearGradient id="paint42_linear_1_923" x1="32.5613" y1="-8.75" x2="147.876" y2="182.692" gradientUnits="userSpaceOnUse">
<stop stop-color="#E0FFB9"/>
<stop offset="1" stop-color="#FF7F30"/>
</linearGradient>
<linearGradient id="paint43_linear_1_923" x1="32.5613" y1="-8.75" x2="147.876" y2="182.692" gradientUnits="userSpaceOnUse">
<stop stop-color="#E0FFB9"/>
<stop offset="1" stop-color="#FF7F30"/>
</linearGradient>
<linearGradient id="paint44_linear_1_923" x1="32.5613" y1="-8.75" x2="147.876" y2="182.692" gradientUnits="userSpaceOnUse">
<stop stop-color="#E0FFB9"/>
<stop offset="1" stop-color="#FF7F30"/>
</linearGradient>
<linearGradient id="paint45_linear_1_923" x1="32.5613" y1="-8.75" x2="147.876" y2="182.692" gradientUnits="userSpaceOnUse">
<stop stop-color="#E0FFB9"/>
<stop offset="1" stop-color="#FF7F30"/>
</linearGradient>
<linearGradient id="paint46_linear_1_923" x1="32.5613" y1="-8.75" x2="147.876" y2="182.692" gradientUnits="userSpaceOnUse">
<stop stop-color="#E0FFB9"/>
<stop offset="1" stop-color="#FF7F30"/>
</linearGradient>
<linearGradient id="paint47_linear_1_923" x1="32.5613" y1="-8.75" x2="147.876" y2="182.692" gradientUnits="userSpaceOnUse">
<stop stop-color="#E0FFB9"/>
<stop offset="1" stop-color="#FF7F30"/>
</linearGradient>
<linearGradient id="paint48_linear_1_923" x1="32.5613" y1="-8.75" x2="147.876" y2="182.692" gradientUnits="userSpaceOnUse">
<stop stop-color="#E0FFB9"/>
<stop offset="1" stop-color="#FF7F30"/>
</linearGradient>
<linearGradient id="paint49_linear_1_923" x1="32.5613" y1="-8.75" x2="147.876" y2="182.692" gradientUnits="userSpaceOnUse">
<stop stop-color="#E0FFB9"/>
<stop offset="1" stop-color="#FF7F30"/>
</linearGradient>
<linearGradient id="paint50_linear_1_923" x1="32.5613" y1="-8.75" x2="147.876" y2="182.692" gradientUnits="userSpaceOnUse">
<stop stop-color="#E0FFB9"/>
<stop offset="1" stop-color="#FF7F30"/>
</linearGradient>
<linearGradient id="paint51_linear_1_923" x1="32.5613" y1="-8.75" x2="147.876" y2="182.692" gradientUnits="userSpaceOnUse">
<stop stop-color="#E0FFB9"/>
<stop offset="1" stop-color="#FF7F30"/>
</linearGradient>
</defs>
</svg>
