<svg width="1008" height="623" viewBox="0 0 1008 623" fill="none" xmlns="http://www.w3.org/2000/svg">
<g filter="url(#filter0_f_6_26)">
<ellipse cx="504.5" cy="574" rx="452.5" ry="5" fill="black"/>
</g>
<path d="M126 1H886C900.912 1.00001 913 13.0883 913 28V550C913 551.657 911.657 553 910 553H102C100.343 553 99 551.657 99 550V28C99 13.0883 111.088 1 126 1Z" stroke="#4A5568" stroke-width="2"/>
<path d="M127 3.5H885C899.083 3.5 910.5 14.9167 910.5 29V547.5H101.5V29C101.5 14.9167 112.917 3.5 127 3.5Z" stroke="black" stroke-width="5"/>
<path d="M0 552C0 550.895 0.895431 550 2 550H1006C1007.1 550 1008 550.895 1008 552V556H0V552Z" fill="#A3ACB1"/>
<path d="M0 552C0 550.895 0.895431 550 2 550H1006C1007.1 550 1008 550.895 1008 552V556H0V552Z" fill="url(#paint0_linear_6_26)"/>
<path d="M0 556H1008L987.646 560.105C961.613 565.355 935.123 568 908.566 568H97.9089C68.724 568 39.6267 564.806 11.1367 558.475L0 556Z" fill="#647279"/>
<path d="M0 556H1008L987.646 560.105C961.613 565.355 935.123 568 908.566 568H97.9089C68.724 568 39.6267 564.806 11.1367 558.475L0 556Z" fill="url(#paint1_linear_6_26)"/>
<path fill-rule="evenodd" clip-rule="evenodd" d="M430.033 550C430.547 553.351 428.052 556 436 556H573C580.948 556 578.453 553.351 578.967 550H430.033Z" fill="#96A1A8"/>
<path fill-rule="evenodd" clip-rule="evenodd" d="M430.033 550C430.547 553.351 428.052 556 436 556H573C580.948 556 578.453 553.351 578.967 550H430.033Z" fill="url(#paint2_linear_6_26)"/>
<defs>
<filter id="filter0_f_6_26" x="8" y="525" width="993" height="98" filterUnits="userSpaceOnUse" color-interpolation-filters="sRGB">
<feFlood flood-opacity="0" result="BackgroundImageFix"/>
<feBlend mode="normal" in="SourceGraphic" in2="BackgroundImageFix" result="shape"/>
<feGaussianBlur stdDeviation="22" result="effect1_foregroundBlur_6_26"/>
</filter>
<linearGradient id="paint0_linear_6_26" x1="-1.94452e-10" y1="553" x2="1008" y2="553" gradientUnits="userSpaceOnUse">
<stop stop-color="#0D1012"/>
<stop offset="0.0295345" stop-color="#CAD4DB"/>
<stop offset="0.0625" stop-color="#242729"/>
<stop offset="0.133609" stop-color="#A3ACB1"/>
<stop offset="0.865967" stop-color="#A3ACB1"/>
<stop offset="0.941937" stop-color="#242729"/>
<stop offset="0.971275" stop-color="#CAD4DB"/>
<stop offset="0.996436" stop-color="#0D1012"/>
</linearGradient>
<linearGradient id="paint1_linear_6_26" x1="504" y1="556" x2="504" y2="568" gradientUnits="userSpaceOnUse">
<stop stop-color="#7A7F83"/>
<stop offset="1" stop-color="#0B0B0E"/>
</linearGradient>
<linearGradient id="paint2_linear_6_26" x1="437.5" y1="553.643" x2="574.5" y2="553.643" gradientUnits="userSpaceOnUse">
<stop stop-color="#3C3C3C"/>
<stop offset="0.317518" stop-color="#3C3C3C" stop-opacity="0"/>
<stop offset="0.660584" stop-color="#3C3C3C" stop-opacity="0"/>
<stop offset="1" stop-color="#444444"/>
</linearGradient>
</defs>
</svg>
