<svg width="92" height="92" viewBox="0 0 92 92" fill="none" xmlns="http://www.w3.org/2000/svg">
<path fill-rule="evenodd" clip-rule="evenodd" d="M45.9835 68.8716C41.5673 68.8716 39.515 68.2241 35.9477 65.6341C33.6912 68.5478 26.5458 70.8249 26.2342 66.9291C26.2342 64.0046 25.5895 61.5333 24.8589 58.8354C23.9885 55.5116 23 51.81 23 46.4466C23 33.6369 33.4656 24 45.8653 24C58.2757 24 67.9999 34.1118 67.9999 46.5653C68.0415 58.8262 58.1913 68.8062 45.9835 68.8716ZM46.1661 35.0722C40.1275 34.7593 35.4212 38.9572 34.3789 45.5401C33.5193 50.9899 35.0451 57.6267 36.3452 57.972C36.9684 58.1231 38.5372 56.8497 39.515 55.8677C41.1318 56.9895 43.0146 57.6632 44.9734 57.821C51.2305 58.1232 56.5769 53.339 56.997 47.0617C57.2416 40.7711 52.424 35.443 46.1661 35.083L46.1661 35.0722Z" fill="white"/>
</svg>
