<svg preserveAspectRatio="none" width="100%" height="100%" overflow="visible" style="display: block;" viewBox="0 0 18 18" fill="none" xmlns="http://www.w3.org/2000/svg">
<path id="Vector" fill-rule="evenodd" clip-rule="evenodd" d="M3.85714 1.28571V16.7143C3.85714 17.424 4.43314 18 5.14286 18C5.85257 18 6.42857 17.424 6.42857 16.7143V1.28571C6.42857 0.576 5.85257 0 5.14286 0C4.43314 0 3.85714 0.576 3.85714 1.28571ZM11.5714 1.28571V16.7143C11.5714 17.424 12.1474 18 12.8571 18C13.5669 18 14.1429 17.424 14.1429 16.7143V1.28571C14.1429 0.576 13.5669 0 12.8571 0C12.1474 0 11.5714 0.576 11.5714 1.28571ZM0 4.5V13.5C0 14.2097 0.576 14.7857 1.28571 14.7857C1.99543 14.7857 2.57143 14.2097 2.57143 13.5V4.5C2.57143 3.79029 1.99543 3.21429 1.28571 3.21429C0.576 3.21429 0 3.79029 0 4.5ZM15.4286 4.5V13.5C15.4286 14.2097 16.0046 14.7857 16.7143 14.7857C17.424 14.7857 18 14.2097 18 13.5V4.5C18 3.79029 17.424 3.21429 16.7143 3.21429C16.0046 3.21429 15.4286 3.79029 15.4286 4.5ZM7.71429 6.42857V11.5714C7.71429 12.2811 8.29029 12.8571 9 12.8571C9.70971 12.8571 10.2857 12.2811 10.2857 11.5714V6.42857C10.2857 5.71886 9.70971 5.14286 9 5.14286C8.29029 5.14286 7.71429 5.71886 7.71429 6.42857Z" fill="var(--fill-0, #84909F)"/>
</svg>
