<svg preserveAspectRatio="none" width="100%" height="100%" overflow="visible" style="display: block;" viewBox="0 0 255 255" fill="none" xmlns="http://www.w3.org/2000/svg">
<g id="Group 1597881173">
<rect id="Rectangle 3737" x="19.9024" y="89.561" width="216.439" height="149.268" fill="var(--fill-0, white)"/>
<path id="Vector" d="M51 255H204C217.522 254.986 230.486 249.608 240.047 240.047C249.608 230.486 254.986 217.522 255 204V76.5C254.986 62.9783 249.608 50.0145 240.047 40.4532C230.486 30.8919 217.522 25.5142 204 25.5H191.25V12.75C191.25 9.36849 189.907 6.12548 187.516 3.73439C185.125 1.3433 181.882 0 178.5 0C175.119 0 171.875 1.3433 169.484 3.73439C167.093 6.12548 165.75 9.36849 165.75 12.75V25.5H89.25V12.75C89.25 9.36849 87.9067 6.12548 85.5156 3.73439C83.1245 1.3433 79.8815 0 76.5 0C73.1185 0 69.8755 1.3433 67.4844 3.73439C65.0933 6.12548 63.75 9.36849 63.75 12.75V25.5H51C37.4786 25.5152 24.5154 30.8933 14.9543 40.4543C5.39326 50.0154 0.0151859 62.9786 0 76.5V204C0.0151859 217.521 5.39326 230.485 14.9543 240.046C24.5154 249.607 37.4786 254.985 51 255ZM25.5 114.75H229.5V204C229.492 210.761 226.803 217.242 222.023 222.023C217.242 226.803 210.761 229.492 204 229.5H51C44.2391 229.493 37.757 226.805 32.9762 222.024C28.1955 217.243 25.5068 210.761 25.5 204V114.75Z" fill="var(--fill-0, white)"/>
<g id="Vector_2">
<path d="M103 79.9626V82.4099C103 83.521 103.901 84.4217 105.012 84.4217H107.459C108.57 84.4217 109.471 83.521 109.471 82.4099V79.9626C109.471 78.8515 108.57 77.9507 107.459 77.9507H105.012C103.901 77.9507 103 78.8515 103 79.9626Z" fill="var(--fill-0, #FF7F30)"/>
<path d="M103 86.4335V88.8808C103 89.9919 103.901 90.8926 105.012 90.8926H107.459C108.57 90.8926 109.471 89.9919 109.471 88.8808V86.4335C109.471 85.3224 108.57 84.4217 107.459 84.4217H105.012C103.901 84.4217 103 85.3224 103 86.4335Z" fill="var(--fill-0, #FF7F30)"/>
<path d="M103 92.9045V95.3518C103 96.4629 103.901 97.3636 105.012 97.3636H107.459C108.57 97.3636 109.471 96.4629 109.471 95.3518V92.9045C109.471 91.7934 108.57 90.8926 107.459 90.8926H105.012C103.901 90.8926 103 91.7934 103 92.9045Z" fill="var(--fill-0, #FF7F30)"/>
<path d="M103 99.3755V101.823C103 102.934 103.901 103.835 105.012 103.835H107.459C108.57 103.835 109.471 102.934 109.471 101.823V99.3755C109.471 98.2644 108.57 97.3636 107.459 97.3636H105.012C103.901 97.3636 103 98.2644 103 99.3755Z" fill="var(--fill-0, #FF7F30)"/>
<path d="M109.472 73.4915V75.9389C109.472 77.05 110.372 77.9507 111.483 77.9507H113.931C115.042 77.9507 115.942 77.05 115.942 75.9389V73.4915C115.942 72.3804 115.042 71.4797 113.931 71.4797H111.483C110.372 71.4797 109.472 72.3804 109.472 73.4915Z" fill="var(--fill-0, #FF7F30)"/>
<path d="M109.48 79.9626V82.4099C109.48 83.521 110.381 84.4217 111.492 84.4217H113.939C115.05 84.4217 115.951 83.521 115.951 82.4099V79.9626C115.951 78.8514 115.05 77.9507 113.939 77.9507H111.492C110.381 77.9507 109.48 78.8514 109.48 79.9626Z" fill="var(--fill-0, #FF7F30)"/>
<path d="M109.471 86.4335V88.8808C109.471 89.9919 110.372 90.8926 111.483 90.8926H113.931C115.042 90.8926 115.942 89.9919 115.942 88.8808V86.4335C115.942 85.3224 115.042 84.4217 113.931 84.4217H111.483C110.372 84.4217 109.471 85.3224 109.471 86.4335Z" fill="var(--fill-0, #FF7F30)"/>
<path d="M109.471 92.9045V95.3518C109.471 96.4629 110.372 97.3637 111.483 97.3637H113.931C115.042 97.3637 115.942 96.4629 115.942 95.3518V92.9045C115.942 91.7934 115.042 90.8926 113.931 90.8926H111.483C110.372 90.8926 109.471 91.7934 109.471 92.9045Z" fill="var(--fill-0, #FF7F30)"/>
<path d="M115.941 73.4915V75.9389C115.941 77.05 116.842 77.9507 117.953 77.9507H120.4C121.511 77.9507 122.412 77.05 122.412 75.9389V73.4915C122.412 72.3804 121.511 71.4797 120.4 71.4797H117.953C116.842 71.4797 115.941 72.3804 115.941 73.4915Z" fill="var(--fill-0, #FF7F30)"/>
<path d="M115.941 67.0205V69.4678C115.941 70.579 116.842 71.4797 117.953 71.4797H120.4C121.511 71.4797 122.412 70.579 122.412 69.4678V67.0205C122.412 65.9094 121.511 65.0087 120.4 65.0087H117.953C116.842 65.0087 115.941 65.9094 115.941 67.0205Z" fill="var(--fill-0, #FF7F30)"/>
<path d="M115.95 79.9626V82.4099C115.95 83.521 116.85 84.4217 117.961 84.4217H120.409C121.52 84.4217 122.421 83.521 122.421 82.4099V79.9626C122.421 78.8514 121.52 77.9507 120.409 77.9507H117.961C116.85 77.9507 115.95 78.8514 115.95 79.9626Z" fill="var(--fill-0, #FF7F30)"/>
<path d="M122.412 73.4828V75.9301C122.412 77.0412 123.313 77.9419 124.424 77.9419H126.871C127.983 77.9419 128.883 77.0412 128.883 75.9301V73.4828C128.883 72.3717 127.983 71.4709 126.871 71.4709H124.424C123.313 71.4709 122.412 72.3717 122.412 73.4828Z" fill="var(--fill-0, #FF7F30)"/>
<path d="M122.421 67.0118V69.4591C122.421 70.5703 123.322 71.471 124.433 71.471H126.88C127.991 71.471 128.892 70.5703 128.892 69.4591V67.0118C128.892 65.9007 127.991 65 126.88 65H124.433C123.322 65 122.421 65.9007 122.421 67.0118Z" fill="var(--fill-0, #FF7F30)"/>
<path d="M122.421 79.9538V82.4011C122.421 83.5122 123.322 84.4129 124.433 84.4129H126.88C127.991 84.4129 128.892 83.5122 128.892 82.4011V79.9538C128.892 78.8427 127.991 77.9419 126.88 77.9419H124.433C123.322 77.9419 122.421 78.8427 122.421 79.9538Z" fill="var(--fill-0, #FF7F30)"/>
<path d="M128.892 67.0118V69.4591C128.892 70.5703 129.793 71.471 130.904 71.471H133.352C134.463 71.471 135.364 70.5703 135.364 69.4592V67.0119C135.364 65.9007 134.463 65 133.352 65H130.904C129.793 65 128.892 65.9007 128.892 67.0118Z" fill="var(--fill-0, #FF7F30)"/>
<path d="M110.185 106.117V108.033C110.185 108.898 110.887 109.6 111.753 109.6H113.669C114.535 109.6 115.236 108.898 115.236 108.033V106.117C115.236 105.251 114.535 104.549 113.669 104.549H111.753C110.887 104.549 110.185 105.251 110.185 106.117Z" fill="var(--fill-0, #FF7F30)"/>
<path d="M110.185 99.6455V101.562C110.185 102.427 110.887 103.129 111.753 103.129H113.669C114.535 103.129 115.236 102.427 115.236 101.562V99.6455C115.236 98.7797 114.535 98.0778 113.669 98.0778H111.753C110.887 98.0778 110.185 98.7797 110.185 99.6455Z" fill="var(--fill-0, #FF7F30)"/>
<path d="M117.213 106.334V107.824C117.213 108.497 117.759 109.043 118.432 109.043H119.921C120.595 109.043 121.141 108.497 121.141 107.824V106.334C121.141 105.661 120.595 105.115 119.921 105.115H118.432C117.759 105.115 117.213 105.661 117.213 106.334Z" fill="var(--fill-0, #FF7F30)"/>
<path d="M117.979 113.093V113.998C117.979 114.412 118.314 114.747 118.728 114.747H119.633C120.047 114.747 120.382 114.412 120.382 113.998V113.093C120.382 112.679 120.047 112.344 119.633 112.344H118.728C118.314 112.344 117.979 112.679 117.979 113.093Z" fill="var(--fill-0, #FF7F30)"/>
<path d="M115.95 86.4335V88.8808C115.95 89.9919 116.85 90.8926 117.961 90.8926H120.409C121.52 90.8926 122.42 89.9919 122.42 88.8808V86.4335C122.42 85.3224 121.52 84.4217 120.409 84.4217H117.961C116.85 84.4217 115.95 85.3224 115.95 86.4335Z" fill="var(--fill-0, #FF7F30)"/>
<path d="M116.657 93.1744V95.0905C116.657 95.9563 117.358 96.6582 118.224 96.6582H120.14C121.006 96.6582 121.708 95.9563 121.708 95.0905V93.1744C121.708 92.3086 121.006 91.6068 120.14 91.6068H118.224C117.358 91.6068 116.657 92.3086 116.657 93.1744Z" fill="var(--fill-0, #FF7F30)"/>
<path d="M116.657 99.6455V101.561C116.657 102.427 117.358 103.129 118.224 103.129H120.14C121.006 103.129 121.708 102.427 121.708 101.561V99.6455C121.708 98.7797 121.006 98.0778 120.14 98.0778H118.224C117.358 98.0778 116.657 98.7797 116.657 99.6455Z" fill="var(--fill-0, #FF7F30)"/>
<path d="M123.684 106.325V107.815C123.684 108.488 124.23 109.034 124.904 109.034H126.393C127.066 109.034 127.612 108.488 127.612 107.815V106.325C127.612 105.652 127.066 105.106 126.393 105.106H124.904C124.23 105.106 123.684 105.652 123.684 106.325Z" fill="var(--fill-0, #FF7F30)"/>
<path d="M124.45 113.101V114.007C124.45 114.421 124.786 114.756 125.199 114.756H126.105C126.519 114.756 126.854 114.421 126.854 114.007V113.101C126.854 112.688 126.519 112.352 126.105 112.352H125.199C124.786 112.352 124.45 112.688 124.45 113.101Z" fill="var(--fill-0, #FF7F30)"/>
<path d="M123.126 86.7035V88.6196C123.126 89.4854 123.828 90.1872 124.694 90.1872H126.61C127.475 90.1872 128.177 89.4854 128.177 88.6196V86.7035C128.177 85.8377 127.475 85.1358 126.61 85.1358H124.694C123.828 85.1358 123.126 85.8377 123.126 86.7035Z" fill="var(--fill-0, #FF7F30)"/>
<path d="M123.135 93.1744V95.0905C123.135 95.9563 123.836 96.6582 124.702 96.6582H126.618C127.484 96.6582 128.186 95.9563 128.186 95.0905V93.1744C128.186 92.3086 127.484 91.6068 126.618 91.6068H124.702C123.836 91.6068 123.135 92.3086 123.135 93.1744Z" fill="var(--fill-0, #FF7F30)"/>
<path d="M123.684 99.8545V101.344C123.684 102.017 124.23 102.563 124.904 102.563H126.393C127.066 102.563 127.612 102.017 127.612 101.344V99.8545C127.612 99.1811 127.066 98.6352 126.393 98.6352H124.904C124.23 98.6352 123.684 99.1811 123.684 99.8545Z" fill="var(--fill-0, #FF7F30)"/>
<path d="M130.922 106.622V107.527C130.922 107.941 131.257 108.276 131.671 108.276H132.576C132.99 108.276 133.325 107.941 133.325 107.527V106.622C133.325 106.208 132.99 105.873 132.576 105.873H131.671C131.257 105.873 130.922 106.208 130.922 106.622Z" fill="var(--fill-0, #FF7F30)"/>
<path d="M130.922 113.093V113.998C130.922 114.412 131.257 114.747 131.671 114.747H132.576C132.99 114.747 133.325 114.412 133.325 113.998V113.093C133.325 112.679 132.99 112.344 132.576 112.344H131.671C131.257 112.344 130.922 112.679 130.922 113.093Z" fill="var(--fill-0, #FF7F30)"/>
<path d="M129.606 73.7441V75.6602C129.606 76.526 130.308 77.2278 131.174 77.2278H133.09C133.956 77.2278 134.657 76.526 134.657 75.6602V73.7441C134.657 72.8783 133.956 72.1764 133.09 72.1764H131.174C130.308 72.1764 129.606 72.8783 129.606 73.7441Z" fill="var(--fill-0, #FF7F30)"/>
<path d="M129.597 80.2238V82.1398C129.597 83.0056 130.299 83.7075 131.165 83.7075H133.081C133.947 83.7075 134.649 83.0056 134.649 82.1398V80.2238C134.649 79.358 133.947 78.6561 133.081 78.6561H131.165C130.299 78.6561 129.597 79.358 129.597 80.2238Z" fill="var(--fill-0, #FF7F30)"/>
<path d="M129.597 86.6948V88.6109C129.597 89.4767 130.299 90.1785 131.165 90.1785H133.081C133.947 90.1785 134.649 89.4767 134.649 88.6109V86.6948C134.649 85.829 133.947 85.1271 133.081 85.1271H131.165C130.299 85.1271 129.597 85.829 129.597 86.6948Z" fill="var(--fill-0, #FF7F30)"/>
<path d="M130.165 93.3835V94.8728C130.165 95.5462 130.711 96.0921 131.384 96.0921H132.873C133.547 96.0921 134.093 95.5462 134.093 94.8728V93.3835C134.093 92.7101 133.547 92.1642 132.873 92.1642H131.384C130.711 92.1642 130.165 92.7101 130.165 93.3835Z" fill="var(--fill-0, #FF7F30)"/>
<path d="M130.165 99.8545V101.344C130.165 102.017 130.711 102.563 131.384 102.563H132.873C133.547 102.563 134.093 102.017 134.093 101.344V99.8545C134.093 99.1811 133.547 98.6352 132.873 98.6352H131.384C130.711 98.6352 130.165 99.1811 130.165 99.8545Z" fill="var(--fill-0, #FF7F30)"/>
<path d="M137.402 106.622V107.527C137.402 107.941 137.737 108.276 138.151 108.276H139.057C139.47 108.276 139.806 107.941 139.806 107.527V106.622C139.806 106.208 139.47 105.873 139.057 105.873H138.151C137.737 105.873 137.402 106.208 137.402 106.622Z" fill="var(--fill-0, #FF7F30)"/>
<path d="M137.393 113.093V113.998C137.393 114.412 137.729 114.747 138.142 114.747H139.048C139.462 114.747 139.797 114.412 139.797 113.998V113.093C139.797 112.679 139.462 112.344 139.048 112.344H138.142C137.729 112.344 137.393 112.679 137.393 113.093Z" fill="var(--fill-0, #FF7F30)"/>
<path d="M136.078 73.7529V75.6689C136.078 76.5347 136.779 77.2366 137.645 77.2366H139.561C140.427 77.2366 141.129 76.5347 141.129 75.6689V73.7529C141.129 72.8871 140.427 72.1852 139.561 72.1852H137.645C136.779 72.1852 136.078 72.8871 136.078 73.7529Z" fill="var(--fill-0, #FF7F30)"/>
<path d="M136.078 67.273V69.1891C136.078 70.0549 136.779 70.7567 137.645 70.7567H139.561C140.427 70.7567 141.129 70.0549 141.129 69.1891V67.273C141.129 66.4072 140.427 65.7054 139.561 65.7054H137.645C136.779 65.7054 136.078 66.4072 136.078 67.273Z" fill="var(--fill-0, #FF7F30)"/>
<path d="M136.634 80.4415V81.9308C136.634 82.6042 137.18 83.1501 137.853 83.1501H139.343C140.016 83.1501 140.562 82.6042 140.562 81.9308V80.4415C140.562 79.7681 140.016 79.2222 139.343 79.2222H137.853C137.18 79.2222 136.634 79.7681 136.634 80.4415Z" fill="var(--fill-0, #FF7F30)"/>
<path d="M136.634 86.9125V88.4018C136.634 89.0752 137.18 89.6211 137.853 89.6211H139.343C140.016 89.6211 140.562 89.0752 140.562 88.4018V86.9125C140.562 86.2391 140.016 85.6932 139.343 85.6932H137.853C137.18 85.6932 136.634 86.2391 136.634 86.9125Z" fill="var(--fill-0, #FF7F30)"/>
<path d="M136.634 93.3835V94.8728C136.634 95.5462 137.18 96.0921 137.853 96.0921H139.343C140.016 96.0921 140.562 95.5462 140.562 94.8728V93.3835C140.562 92.7101 140.016 92.1642 139.343 92.1642H137.853C137.18 92.1642 136.634 92.7101 136.634 93.3835Z" fill="var(--fill-0, #FF7F30)"/>
<path d="M137.402 100.151V101.056C137.402 101.47 137.737 101.805 138.151 101.805H139.057C139.47 101.805 139.806 101.47 139.806 101.056V100.151C139.806 99.737 139.47 99.4016 139.057 99.4016H138.151C137.737 99.4016 137.402 99.737 137.402 100.151Z" fill="var(--fill-0, #FF7F30)"/>
<path d="M152.747 101.056V100.151C152.747 99.737 152.412 99.4017 151.998 99.4017H151.093C150.679 99.4017 150.344 99.737 150.344 100.151V101.056C150.344 101.47 150.679 101.805 151.093 101.805H151.998C152.412 101.805 152.747 101.47 152.747 101.056Z" fill="var(--fill-0, #FF7F30)"/>
<path d="M152.747 94.5767V93.6709C152.747 93.2573 152.412 92.9219 151.998 92.9219H151.093C150.679 92.9219 150.344 93.2573 150.344 93.6709V94.5767C150.344 94.9903 150.679 95.3257 151.093 95.3257H151.998C152.412 95.3257 152.747 94.9903 152.747 94.5767Z" fill="var(--fill-0, #FF7F30)"/>
<path d="M152.756 88.1057V87.1999C152.756 86.7862 152.421 86.4509 152.007 86.4509H151.101C150.688 86.4509 150.352 86.7862 150.352 87.1999V88.1057C150.352 88.5193 150.688 88.8547 151.101 88.8547H152.007C152.421 88.8547 152.756 88.5193 152.756 88.1057Z" fill="var(--fill-0, #FF7F30)"/>
<path d="M152.747 81.6347V80.729C152.747 80.3153 152.412 79.98 151.998 79.98H151.093C150.679 79.98 150.344 80.3153 150.344 80.729V81.6347C150.344 82.0484 150.679 82.3837 151.093 82.3837H151.998C152.412 82.3837 152.747 82.0484 152.747 81.6347Z" fill="var(--fill-0, #FF7F30)"/>
<path d="M147.042 75.4512V73.9619C147.042 73.2885 146.496 72.7426 145.822 72.7426H144.333C143.66 72.7426 143.114 73.2885 143.114 73.9619V75.4512C143.114 76.1246 143.66 76.6705 144.333 76.6705H145.822C146.496 76.6705 147.042 76.1246 147.042 75.4512Z" fill="var(--fill-0, #FF7F30)"/>
<path d="M146.276 107.527V106.622C146.276 106.208 145.94 105.873 145.527 105.873H144.621C144.207 105.873 143.872 106.208 143.872 106.622V107.527C143.872 107.941 144.207 108.276 144.621 108.276H145.527C145.94 108.276 146.276 107.941 146.276 107.527Z" fill="var(--fill-0, #FF7F30)"/>
<path d="M146.276 101.056V100.151C146.276 99.737 145.94 99.4016 145.527 99.4016H144.621C144.207 99.4016 143.872 99.737 143.872 100.151V101.056C143.872 101.47 144.207 101.805 144.621 101.805H145.527C145.94 101.805 146.276 101.47 146.276 101.056Z" fill="var(--fill-0, #FF7F30)"/>
<path d="M146.276 94.5855V93.6797C146.276 93.266 145.94 92.9307 145.527 92.9307H144.621C144.207 92.9307 143.872 93.266 143.872 93.6797V94.5855C143.872 94.9991 144.207 95.3345 144.621 95.3345H145.527C145.94 95.3345 146.276 94.9991 146.276 94.5855Z" fill="var(--fill-0, #FF7F30)"/>
<path d="M146.276 88.1057V87.1999C146.276 86.7862 145.94 86.4509 145.527 86.4509H144.621C144.207 86.4509 143.872 86.7862 143.872 87.1999V88.1057C143.872 88.5193 144.207 88.8547 144.621 88.8547H145.527C145.94 88.8547 146.276 88.5193 146.276 88.1057Z" fill="var(--fill-0, #FF7F30)"/>
<path d="M147.042 81.922V80.4328C147.042 79.7594 146.496 79.2135 145.822 79.2135H144.333C143.66 79.2135 143.114 79.7594 143.114 80.4328V81.922C143.114 82.5954 143.66 83.1413 144.333 83.1413H145.822C146.496 83.1413 147.042 82.5954 147.042 81.922Z" fill="var(--fill-0, #FF7F30)"/>
</g>
</g>
</svg>
