<svg preserveAspectRatio="none" width="100%" height="100%" overflow="visible" style="display: block;" viewBox="0 0 192 257.28" fill="none" xmlns="http://www.w3.org/2000/svg">
<g id="Vrstva_x0020_1_15_">
<path id="Vector" fill-rule="evenodd" clip-rule="evenodd" d="M33.4219 0.000107422H119.254L192 75.9884V223.786C192 242.301 177.053 257.28 158.642 257.28H33.4219C14.9468 257.28 5.27954e-09 242.301 5.27954e-09 223.786V33.494C-0.000324369 14.9791 14.9465 0.000107422 33.4219 0.000107422Z" fill="var(--fill-0, #3E4855)"/>
<g id="Vector_2">
<path d="M62 115.449V118.794C62 120.312 63.231 121.543 64.7495 121.543H68.0941C69.6126 121.543 70.8436 120.312 70.8436 118.794V115.449C70.8436 113.931 69.6126 112.7 68.0941 112.7H64.7495C63.231 112.7 62 113.931 62 115.449Z" fill="var(--fill-0, white)"/>
<path d="M62 124.293V127.637C62 129.156 63.231 130.387 64.7495 130.387H68.0941C69.6126 130.387 70.8436 129.156 70.8436 127.637V124.293C70.8436 122.774 69.6126 121.543 68.0941 121.543H64.7495C63.231 121.543 62 122.774 62 124.293Z" fill="var(--fill-0, white)"/>
<path d="M62 133.136V136.481C62 138 63.231 139.231 64.7495 139.231H68.0941C69.6126 139.231 70.8436 138 70.8436 136.481V133.136C70.8436 131.618 69.6126 130.387 68.0941 130.387H64.7495C63.231 130.387 62 131.618 62 133.136Z" fill="var(--fill-0, white)"/>
<path d="M62 141.98V145.325C62 146.843 63.231 148.074 64.7495 148.074H68.0941C69.6126 148.074 70.8436 146.843 70.8436 145.325V141.98C70.8436 140.462 69.6126 139.231 68.0941 139.231H64.7495C63.231 139.231 62 140.462 62 141.98Z" fill="var(--fill-0, white)"/>
<path d="M70.8444 106.605V109.95C70.8444 111.469 72.0754 112.699 73.5939 112.699H76.9385C78.457 112.699 79.688 111.469 79.688 109.95V106.605C79.688 105.087 78.457 103.856 76.9385 103.856H73.5939C72.0754 103.856 70.8444 105.087 70.8444 106.605Z" fill="var(--fill-0, white)"/>
<path d="M70.8563 115.449V118.794C70.8563 120.312 72.0873 121.543 73.6058 121.543H76.9504C78.4689 121.543 79.6999 120.312 79.6999 118.794V115.449C79.6999 113.931 78.4689 112.7 76.9504 112.7H73.6058C72.0873 112.7 70.8563 113.931 70.8563 115.449Z" fill="var(--fill-0, white)"/>
<path d="M70.8436 124.293V127.637C70.8436 129.156 72.0754 130.387 73.5939 130.387H76.9385C78.457 130.387 79.688 129.156 79.688 127.637V124.293C79.688 122.774 78.457 121.543 76.9385 121.543H73.5939C72.0754 121.543 70.8436 122.774 70.8436 124.293Z" fill="var(--fill-0, white)"/>
<path d="M70.8436 133.136V136.481C70.8436 138 72.0754 139.231 73.5939 139.231H76.9385C78.457 139.231 79.688 138 79.688 136.481V133.136C79.688 131.618 78.457 130.387 76.9385 130.387H73.5939C72.0754 130.387 70.8436 131.618 70.8436 133.136Z" fill="var(--fill-0, white)"/>
<path d="M79.6858 106.605V109.95C79.6858 111.469 80.9168 112.699 82.4353 112.699H85.7799C87.2984 112.699 88.5294 111.469 88.5294 109.95V106.605C88.5294 105.087 87.2984 103.856 85.7799 103.856H82.4353C80.9168 103.856 79.6858 105.087 79.6858 106.605Z" fill="var(--fill-0, white)"/>
<path d="M79.6858 97.7616V101.106C79.6858 102.625 80.9168 103.856 82.4353 103.856H85.7799C87.2984 103.856 88.5294 102.625 88.5294 101.106V97.7616C88.5294 96.2431 87.2984 95.0121 85.7799 95.0121H82.4353C80.9168 95.0121 79.6858 96.2431 79.6858 97.7616Z" fill="var(--fill-0, white)"/>
<path d="M79.6978 115.449V118.794C79.6978 120.312 80.9288 121.543 82.4473 121.543H85.7919C87.3104 121.543 88.5414 120.312 88.5414 118.794V115.449C88.5414 113.931 87.3104 112.7 85.7919 112.7H82.4473C80.9288 112.7 79.6978 113.931 79.6978 115.449Z" fill="var(--fill-0, white)"/>
<path d="M88.5303 106.593V109.938C88.5303 111.457 89.7612 112.688 91.2797 112.688H94.6244C96.1428 112.688 97.3738 111.457 97.3738 109.938V106.593C97.3738 105.075 96.1428 103.844 94.6244 103.844H91.2797C89.7612 103.844 88.5303 105.075 88.5303 106.593Z" fill="var(--fill-0, white)"/>
<path d="M88.5422 97.7497V101.094C88.5422 102.613 89.7732 103.844 91.2917 103.844H94.6363C96.1548 103.844 97.3858 102.613 97.3858 101.094V97.7497C97.3858 96.2312 96.1548 95.0002 94.6363 95.0002H91.2917C89.7732 95.0002 88.5422 96.2312 88.5422 97.7497Z" fill="var(--fill-0, white)"/>
<path d="M88.5422 115.437V118.782C88.5422 120.3 89.7732 121.531 91.2917 121.531H94.6363C96.1548 121.531 97.3858 120.3 97.3858 118.782V115.437C97.3858 113.919 96.1548 112.688 94.6363 112.688H91.2917C89.7732 112.688 88.5422 113.919 88.5422 115.437Z" fill="var(--fill-0, white)"/>
<path d="M97.3858 97.7497V101.094C97.3858 102.613 98.6176 103.844 100.136 103.844H103.481C104.999 103.844 106.23 102.613 106.23 101.094V97.7497C106.23 96.2312 104.999 95.0002 103.481 95.0002H100.136C98.6176 95.0002 97.3858 96.2312 97.3858 97.7497Z" fill="var(--fill-0, white)"/>
<path d="M71.8196 151.193V153.811C71.8196 154.995 72.7788 155.954 73.962 155.954H76.5806C77.7638 155.954 78.723 154.995 78.723 153.811V151.193C78.723 150.01 77.7638 149.05 76.5806 149.05H73.962C72.7788 149.05 71.8196 150.01 71.8196 151.193Z" fill="var(--fill-0, white)"/>
<path d="M71.8196 142.349V144.968C71.8196 146.151 72.7788 147.11 73.962 147.11H76.5806C77.7638 147.11 78.7231 146.151 78.7231 144.968V142.349C78.7231 141.166 77.7638 140.207 76.5806 140.207H73.962C72.7788 140.207 71.8196 141.166 71.8196 142.349Z" fill="var(--fill-0, white)"/>
<path d="M81.4243 151.49V153.526C81.4243 154.446 82.1704 155.192 83.0907 155.192H85.126C86.0463 155.192 86.7923 154.446 86.7923 153.526V151.49C86.7923 150.57 86.0463 149.824 85.126 149.824H83.0907C82.1704 149.824 81.4243 150.57 81.4243 151.49Z" fill="var(--fill-0, white)"/>
<path d="M82.471 160.727V161.965C82.471 162.53 82.9293 162.988 83.4946 162.988H84.7324C85.2978 162.988 85.7561 162.53 85.7561 161.965V160.727C85.7561 160.162 85.2978 159.703 84.7324 159.703H83.4946C82.9293 159.703 82.471 160.162 82.471 160.727Z" fill="var(--fill-0, white)"/>
<path d="M79.6978 124.293V127.637C79.6978 129.156 80.9288 130.387 82.4473 130.387H85.7919C87.3104 130.387 88.5413 129.156 88.5413 127.637V124.293C88.5413 122.774 87.3104 121.543 85.7919 121.543H82.4473C80.9288 121.543 79.6978 122.774 79.6978 124.293Z" fill="var(--fill-0, white)"/>
<path d="M80.6639 133.505V136.124C80.6639 137.307 81.6231 138.266 82.8064 138.266H85.4249C86.6082 138.266 87.5674 137.307 87.5674 136.124V133.505C87.5674 132.322 86.6082 131.363 85.4249 131.363H82.8064C81.6231 131.363 80.6639 132.322 80.6639 133.505Z" fill="var(--fill-0, white)"/>
<path d="M80.6639 142.349V144.968C80.6639 146.151 81.6231 147.11 82.8064 147.11H85.4249C86.6082 147.11 87.5674 146.151 87.5674 144.968V142.349C87.5674 141.166 86.6082 140.207 85.4249 140.207H82.8064C81.6231 140.207 80.6639 141.166 80.6639 142.349Z" fill="var(--fill-0, white)"/>
<path d="M90.2685 151.478V153.514C90.2685 154.434 91.0145 155.18 91.9348 155.18H93.9702C94.8905 155.18 95.6365 154.434 95.6365 153.514V151.478C95.6365 150.558 94.8905 149.812 93.9702 149.812H91.9348C91.0145 149.812 90.2685 150.558 90.2685 151.478Z" fill="var(--fill-0, white)"/>
<path d="M91.3154 160.739V161.977C91.3154 162.542 91.7737 163 92.339 163H93.5769C94.1422 163 94.6005 162.542 94.6005 161.977V160.739C94.6005 160.173 94.1422 159.715 93.5769 159.715H92.339C91.7737 159.715 91.3154 160.173 91.3154 160.739Z" fill="var(--fill-0, white)"/>
<path d="M89.5054 124.662V127.28C89.5054 128.464 90.4646 129.423 91.6478 129.423H94.2664C95.4496 129.423 96.4088 128.464 96.4088 127.28V124.662C96.4088 123.478 95.4496 122.519 94.2664 122.519H91.6478C90.4646 122.519 89.5054 123.478 89.5054 124.662Z" fill="var(--fill-0, white)"/>
<path d="M89.5173 133.505V136.124C89.5173 137.307 90.4765 138.266 91.6597 138.266H94.2783C95.4615 138.266 96.4207 137.307 96.4207 136.124V133.505C96.4207 132.322 95.4615 131.363 94.2783 131.363H91.6597C90.4765 131.363 89.5173 132.322 89.5173 133.505Z" fill="var(--fill-0, white)"/>
<path d="M90.2685 142.635V144.67C90.2685 145.59 91.0145 146.336 91.9348 146.336H93.9702C94.8905 146.336 95.6365 145.59 95.6365 144.67V142.635C95.6365 141.714 94.8905 140.968 93.9702 140.968H91.9348C91.0145 140.968 90.2685 141.714 90.2685 142.635Z" fill="var(--fill-0, white)"/>
<path d="M100.159 151.883V153.121C100.159 153.686 100.618 154.145 101.183 154.145H102.421C102.986 154.145 103.445 153.686 103.445 153.121V151.883C103.445 151.318 102.986 150.86 102.421 150.86H101.183C100.618 150.86 100.159 151.318 100.159 151.883Z" fill="var(--fill-0, white)"/>
<path d="M100.159 160.727V161.965C100.159 162.53 100.618 162.988 101.183 162.988H102.421C102.986 162.988 103.445 162.53 103.445 161.965V160.727C103.445 160.161 102.986 159.703 102.421 159.703H101.183C100.618 159.703 100.159 160.161 100.159 160.727Z" fill="var(--fill-0, white)"/>
<path d="M98.3617 106.951V109.569C98.3617 110.752 99.3209 111.712 100.504 111.712H103.123C104.306 111.712 105.265 110.752 105.265 109.569V106.951C105.265 105.767 104.306 104.808 103.123 104.808H100.504C99.3209 104.808 98.3617 105.767 98.3617 106.951Z" fill="var(--fill-0, white)"/>
<path d="M98.3498 115.806V118.425C98.3498 119.608 99.309 120.567 100.492 120.567H103.111C104.294 120.567 105.253 119.608 105.253 118.425V115.806C105.253 114.623 104.294 113.664 103.111 113.664H100.492C99.309 113.664 98.3498 114.623 98.3498 115.806Z" fill="var(--fill-0, white)"/>
<path d="M98.3498 124.65V127.268C98.3498 128.452 99.309 129.411 100.492 129.411H103.111C104.294 129.411 105.253 128.452 105.253 127.268V124.65C105.253 123.467 104.294 122.507 103.111 122.507H100.492C99.309 122.507 98.3498 123.467 98.3498 124.65Z" fill="var(--fill-0, white)"/>
<path d="M99.1251 133.791V135.826C99.1251 136.747 99.8711 137.493 100.791 137.493H102.827C103.747 137.493 104.493 136.747 104.493 135.826V133.791C104.493 132.871 103.747 132.125 102.827 132.125H100.791C99.8711 132.125 99.1251 132.871 99.1251 133.791Z" fill="var(--fill-0, white)"/>
<path d="M99.1251 142.635V144.67C99.1251 145.59 99.8711 146.336 100.791 146.336H102.827C103.747 146.336 104.493 145.59 104.493 144.67V142.635C104.493 141.714 103.747 140.968 102.827 140.968H100.791C99.8711 140.968 99.1251 141.714 99.1251 142.635Z" fill="var(--fill-0, white)"/>
<path d="M109.016 151.883V153.121C109.016 153.686 109.474 154.145 110.04 154.145H111.278C111.843 154.145 112.301 153.686 112.301 153.121V151.883C112.301 151.318 111.843 150.859 111.278 150.859H110.04C109.474 150.859 109.016 151.318 109.016 151.883Z" fill="var(--fill-0, white)"/>
<path d="M109.004 160.727V161.965C109.004 162.53 109.463 162.988 110.028 162.988H111.266C111.831 162.988 112.289 162.53 112.289 161.965V160.727C112.289 160.162 111.831 159.703 111.266 159.703H110.028C109.463 159.703 109.004 160.162 109.004 160.727Z" fill="var(--fill-0, white)"/>
<path d="M107.206 106.962V109.581C107.206 110.764 108.165 111.724 109.349 111.724H111.967C113.15 111.724 114.11 110.764 114.11 109.581V106.962C114.11 105.779 113.15 104.82 111.967 104.82H109.349C108.165 104.82 107.206 105.779 107.206 106.962Z" fill="var(--fill-0, white)"/>
<path d="M107.206 98.1067V100.725C107.206 101.909 108.165 102.868 109.349 102.868H111.967C113.15 102.868 114.11 101.909 114.11 100.725V98.1067C114.11 96.9234 113.15 95.9642 111.967 95.9642H109.349C108.165 95.9642 107.206 96.9234 107.206 98.1067Z" fill="var(--fill-0, white)"/>
<path d="M107.966 116.104V118.139C107.966 119.059 108.713 119.805 109.633 119.805H111.668C112.588 119.805 113.335 119.059 113.335 118.139V116.104C113.335 115.183 112.588 114.437 111.668 114.437H109.633C108.713 114.437 107.966 115.183 107.966 116.104Z" fill="var(--fill-0, white)"/>
<path d="M107.966 124.947V126.983C107.966 127.903 108.713 128.649 109.633 128.649H111.668C112.588 128.649 113.335 127.903 113.335 126.983V124.947C113.335 124.027 112.588 123.281 111.668 123.281H109.633C108.713 123.281 107.966 124.027 107.966 124.947Z" fill="var(--fill-0, white)"/>
<path d="M107.966 133.791V135.826C107.966 136.747 108.713 137.493 109.633 137.493H111.668C112.588 137.493 113.335 136.747 113.335 135.826V133.791C113.335 132.871 112.588 132.125 111.668 132.125H109.633C108.713 132.125 107.966 132.871 107.966 133.791Z" fill="var(--fill-0, white)"/>
<path d="M109.016 143.039V144.277C109.016 144.843 109.474 145.301 110.04 145.301H111.278C111.843 145.301 112.301 144.843 112.301 144.277V143.039C112.301 142.474 111.843 142.016 111.278 142.016H110.04C109.474 142.016 109.016 142.474 109.016 143.039Z" fill="var(--fill-0, white)"/>
<path d="M129.988 144.277V143.039C129.988 142.474 129.53 142.016 128.964 142.016H127.727C127.161 142.016 126.703 142.474 126.703 143.039V144.277C126.703 144.843 127.161 145.301 127.727 145.301H128.964C129.53 145.301 129.988 144.843 129.988 144.277Z" fill="var(--fill-0, white)"/>
<path d="M129.988 135.422V134.184C129.988 133.618 129.53 133.16 128.964 133.16H127.727C127.161 133.16 126.703 133.618 126.703 134.184V135.422C126.703 135.987 127.161 136.445 127.727 136.445H128.964C129.53 136.445 129.988 135.987 129.988 135.422Z" fill="var(--fill-0, white)"/>
<path d="M130 126.578V125.34C130 124.775 129.542 124.316 128.976 124.316H127.739C127.173 124.316 126.715 124.775 126.715 125.34V126.578C126.715 127.143 127.173 127.602 127.739 127.602H128.976C129.542 127.602 130 127.143 130 126.578Z" fill="var(--fill-0, white)"/>
<path d="M129.988 117.734V116.496C129.988 115.931 129.53 115.473 128.964 115.473H127.727C127.161 115.473 126.703 115.931 126.703 116.496V117.734C126.703 118.3 127.161 118.758 127.727 118.758H128.964C129.53 118.758 129.988 118.3 129.988 117.734Z" fill="var(--fill-0, white)"/>
<path d="M122.19 109.283V107.248C122.19 106.328 121.444 105.582 120.524 105.582H118.489C117.568 105.582 116.822 106.328 116.822 107.248V109.283C116.822 110.204 117.568 110.95 118.489 110.95H120.524C121.444 110.95 122.19 110.204 122.19 109.283Z" fill="var(--fill-0, white)"/>
<path d="M121.144 153.121V151.883C121.144 151.318 120.685 150.86 120.12 150.86H118.882C118.317 150.86 117.858 151.318 117.858 151.883V153.121C117.858 153.686 118.317 154.145 118.882 154.145H120.12C120.685 154.145 121.144 153.686 121.144 153.121Z" fill="var(--fill-0, white)"/>
<path d="M121.144 144.277V143.039C121.144 142.474 120.685 142.016 120.12 142.016H118.882C118.317 142.016 117.859 142.474 117.859 143.039V144.277C117.859 144.843 118.317 145.301 118.882 145.301H120.12C120.685 145.301 121.144 144.843 121.144 144.277Z" fill="var(--fill-0, white)"/>
<path d="M121.144 135.434V134.196C121.144 133.63 120.685 133.172 120.12 133.172H118.882C118.317 133.172 117.858 133.63 117.858 134.196V135.434C117.858 135.999 118.317 136.457 118.882 136.457H120.12C120.685 136.457 121.144 135.999 121.144 135.434Z" fill="var(--fill-0, white)"/>
<path d="M121.144 126.578V125.34C121.144 124.775 120.685 124.316 120.12 124.316H118.882C118.317 124.316 117.859 124.775 117.859 125.34V126.578C117.859 127.143 118.317 127.602 118.882 127.602H120.12C120.685 127.602 121.144 127.143 121.144 126.578Z" fill="var(--fill-0, white)"/>
<path d="M122.19 118.127V116.092C122.19 115.171 121.444 114.425 120.524 114.425H118.489C117.568 114.425 116.822 115.171 116.822 116.092V118.127C116.822 119.047 117.568 119.793 118.489 119.793H120.524C121.444 119.793 122.19 119.047 122.19 118.127Z" fill="var(--fill-0, white)"/>
</g>
<g id="Group">
<path id="Vector_3" opacity="0.302" fill-rule="evenodd" clip-rule="evenodd" d="M119.186 0V75.4097H191.996L119.186 0Z" fill="var(--fill-0, black)"/>
</g>
</g>
</svg>
