<svg preserveAspectRatio="none" width="100%" height="100%" overflow="visible" style="display: block;" viewBox="0 0 208.002 208.006" fill="none" xmlns="http://www.w3.org/2000/svg">
<g id="Flat Color">
<path id="Vector" d="M140.481 0.000922099H67.5209C65.3828 -0.0220334 63.2617 0.383828 61.283 1.19453C59.3044 2.00522 57.5083 3.20431 56.0009 4.72092L4.72092 56.0009C3.20431 57.5083 2.00522 59.3044 1.19453 61.283C0.383828 63.2617 -0.0220334 65.3828 0.000922099 67.5209V140.481C-0.0220334 142.619 0.383828 144.74 1.19453 146.719C2.00522 148.697 3.20431 150.494 4.72092 152.001L56.0009 203.281C58.9877 206.286 63.0443 207.983 67.2809 208.001H140.241C142.419 208.056 144.586 207.666 146.608 206.855C148.63 206.043 150.465 204.827 152.001 203.281L203.281 152.001C204.798 150.494 205.997 148.697 206.807 146.719C207.618 144.74 208.024 142.619 208.001 140.481V67.5209C208.024 65.3828 207.618 63.2617 206.807 61.283C205.997 59.3044 204.798 57.5083 203.281 56.0009L152.001 4.72092C150.494 3.20431 148.697 2.00522 146.719 1.19453C144.74 0.383828 142.619 -0.0220334 140.481 0.000922099Z" fill="var(--fill-0, #FF7F30)"/>
<g id="Group">
<path id="Vector_2" d="M104.002 176.001C112.839 176.001 120.002 168.837 120.002 160.001C120.002 151.164 112.839 144.001 104.002 144.001C95.1654 144.001 88.002 151.164 88.002 160.001C88.002 168.837 95.1654 176.001 104.002 176.001Z" fill="var(--fill-0, white)"/>
<path id="Vector_3" d="M112.802 112.001H95.2018C93.2117 112.011 91.2893 111.279 89.81 109.947C88.3307 108.616 87.4008 106.781 87.2018 104.801L80.8018 40.801C80.6897 39.6851 80.8134 38.5582 81.1649 37.4933C81.5164 36.4284 82.0878 35.4493 82.8422 34.6195C83.5966 33.7897 84.5169 33.1278 85.5436 32.6766C86.5703 32.2255 87.6804 31.9953 88.8018 32.001H119.202C120.323 31.9953 121.433 32.2255 122.46 32.6766C123.487 33.1278 124.407 33.7897 125.161 34.6195C125.916 35.4493 126.487 36.4284 126.839 37.4933C127.19 38.5582 127.314 39.6851 127.202 40.801L120.802 104.801C120.603 106.781 119.673 108.616 118.194 109.947C116.714 111.279 114.792 112.011 112.802 112.001Z" fill="var(--fill-0, white)"/>
</g>
</g>
</svg>
