<svg preserveAspectRatio="none" width="100%" height="100%" overflow="visible" style="display: block;" viewBox="0 0 149.889 200.42" fill="none" xmlns="http://www.w3.org/2000/svg">
<g id="Vrstva_x0020_1_15_">
<path id="Vector" fill-rule="evenodd" clip-rule="evenodd" d="M26.0916 0H93.0986L149.889 59.1946V174.329C149.889 188.752 138.221 200.42 123.848 200.42H26.0916C11.6686 200.42 4.1216e-09 188.752 4.1216e-09 174.329V26.0916C-0.000253226 11.6686 11.6683 0 26.0916 0Z" fill="var(--fill-0, #00C230)"/>
<path id="Vector_2" d="M40 85V132H108V85H40ZM69.7503 123.607H48.5003V112.696H69.7503V123.607ZM69.7503 104.304H48.5003V93.3929H69.7503V104.304ZM99.5003 123.607H78.2503V112.696H99.5003V123.607ZM99.5003 104.304H78.2503V93.3929H99.5003V104.304Z" fill="var(--fill-0, #FBFFFF)"/>
<g id="Group">
<path id="Vector_3" opacity="0.302" fill-rule="evenodd" clip-rule="evenodd" d="M93.043 0V58.7439H149.884L93.043 0Z" fill="var(--fill-0, black)"/>
</g>
</g>
</svg>
