<svg preserveAspectRatio="none" width="100%" height="100%" overflow="visible" style="display: block;" viewBox="0 0 27 30" fill="none" xmlns="http://www.w3.org/2000/svg">
<g id="AUDIO">
<g id="Vector">
<path d="M16.7219 5.58H9.27812C8.42073 5.58 7.83614 4.7 8.14792 3.88L8.38175 3.29L8.96634 1.78C9.15146 1.31 9.59965 1 10.0965 1H15.9035C16.4004 1 16.8485 1.31 17.0337 1.78L17.6182 3.29L17.8521 3.88C18.1639 4.7 17.5793 5.58 16.7219 5.58Z" fill="var(--fill-0, #FF7F30)"/>
<path d="M20.6581 3.29H19.1966L19.2064 3.314C19.5357 4.183 19.4295 5.136 18.9316 5.885C18.4328 6.634 17.6075 7.08 16.7219 7.08H9.27812C8.39247 7.08 7.56723 6.634 7.06838 5.885C6.56953 5.136 6.4643 4.183 6.78583 3.335L6.80434 3.29H5.3419C3.50044 3.29 2 4.83 2 6.72V25.57C2 27.46 3.50044 29 5.3419 29H20.6581C22.4996 29 24 27.46 24 25.57V6.72C24 4.83 22.4996 3.29 20.6581 3.29ZM8.69646 23.551H7.26129C6.77706 23.551 6.38441 23.148 6.38441 22.651C6.38441 22.154 6.77706 21.751 7.26129 21.751H8.69743C9.18166 21.751 9.57431 22.154 9.57431 22.651C9.57431 23.148 9.18166 23.551 8.69646 23.551ZM8.69646 18.19H7.26129C6.77706 18.19 6.38441 17.787 6.38441 17.29C6.38441 16.793 6.77706 16.39 7.26129 16.39H8.69743C9.18166 16.39 9.57431 16.793 9.57431 17.29C9.57431 17.787 9.18166 18.19 8.69646 18.19ZM8.69646 12.841H7.26129C6.77706 12.841 6.38441 12.438 6.38441 11.941C6.38441 11.444 6.77706 11.041 7.26129 11.041H8.69743C9.18166 11.041 9.57431 11.444 9.57431 11.941C9.57431 12.438 9.18166 12.841 8.69646 12.841ZM18.7387 23.551H12.1884C11.7042 23.551 11.3115 23.148 11.3115 22.651C11.3115 22.154 11.7042 21.751 12.1884 21.751H18.7387C19.2229 21.751 19.6156 22.154 19.6156 22.651C19.6156 23.148 19.2229 23.551 18.7387 23.551ZM18.7387 18.19H12.1884C11.7042 18.19 11.3115 17.787 11.3115 17.29C11.3115 16.793 11.7042 16.39 12.1884 16.39H18.7387C19.2229 16.39 19.6156 16.793 19.6156 17.29C19.6156 17.787 19.2229 18.19 18.7387 18.19ZM18.7387 12.841H12.1884C11.7042 12.841 11.3115 12.438 11.3115 11.941C11.3115 11.444 11.7042 11.041 12.1884 11.041H18.7387C19.2229 11.041 19.6156 11.444 19.6156 11.941C19.6156 12.438 19.2229 12.841 18.7387 12.841Z" fill="var(--fill-0, #FF7F30)"/>
</g>
</g>
</svg>
