<svg preserveAspectRatio="none" width="100%" height="100%" overflow="visible" style="display: block;" viewBox="0 0 28 28" fill="none" xmlns="http://www.w3.org/2000/svg">
<g id="Vector">
<path d="M4.75222 0H23.2477C24.4783 0 25.585 0.774511 26.042 1.95568L27.7927 6.4806C28.112 7.3057 28.1106 8.28865 27.4444 8.85005C25.4879 10.4983 21.5209 10.5308 19.4851 8.94768C18.9896 8.5624 18.0489 8.56915 17.5631 8.9675C15.7041 10.4923 12.2961 10.4923 10.4369 8.9675C9.95123 8.56915 9.01036 8.5624 8.51492 8.94768C6.47914 10.5308 2.5121 10.4983 0.555704 8.85005C-0.110637 8.28865 -0.111976 7.3057 0.207261 6.48062L1.95807 1.95568C2.41508 0.774511 3.52166 0 4.75222 0Z" fill="var(--fill-0, #FF7F30)"/>
<path fill-rule="evenodd" clip-rule="evenodd" d="M26.0376 24.8889V13.7029C26.0376 13.1247 25.432 12.7134 24.8922 12.8654C24.2411 13.0485 23.3425 13.2222 22.2759 13.2222C20.8586 13.2222 19.738 12.6089 19.1003 12.1525C18.7586 11.9079 18.2666 11.9045 17.916 12.1349C17.2193 12.593 15.914 13.2222 14 13.2222C12.086 13.2222 10.7807 12.593 10.084 12.1349C9.73341 11.9045 9.24135 11.9079 8.89972 12.1525C8.26203 12.6089 7.14142 13.2222 5.72415 13.2222C4.65753 13.2222 3.75893 13.0485 3.10775 12.8654C2.56809 12.7134 1.9624 13.1247 1.9624 13.7029V24.8889C1.9624 26.6072 3.30976 28 4.9718 28H7.22886C7.64438 28 7.98121 27.6519 7.98121 27.2222V18.6667C7.98121 17.8075 8.65489 17.1111 9.48591 17.1111H10.9906C11.8217 17.1111 12.4953 17.8075 12.4953 18.6667V27.2222C12.4953 27.6519 12.8322 28 13.2477 28H23.0282C24.6903 28 26.0376 26.6072 26.0376 24.8889ZM17.0094 18.6667C17.0094 17.8075 17.6831 17.1111 18.5141 17.1111H20.0188C20.8499 17.1111 21.5235 17.8075 21.5235 18.6667C21.5235 19.5258 20.8499 20.2222 20.0188 20.2222H18.5141C17.6831 20.2222 17.0094 19.5258 17.0094 18.6667Z" fill="var(--fill-0, #FF7F30)"/>
</g>
</svg>
