<svg preserveAspectRatio="none" width="100%" height="100%" overflow="visible" style="display: block;" viewBox="0 0 28 29" fill="none" xmlns="http://www.w3.org/2000/svg">
<g id="AUDIO">
<path id="Vector" fill-rule="evenodd" clip-rule="evenodd" d="M14 1C6.273 1 0 7.273 0 15C0 22.727 6.273 29 14 29C21.727 29 28 22.727 28 15C28 7.273 21.727 1 14 1ZM10 23H18C18.552 23 19 22.552 19 22C19 21.448 18.552 21 18 21H10C9.448 21 9 21.448 9 22C9 22.552 9.448 23 10 23ZM13 15.495L9.255 11.553C8.875 11.153 8.242 11.137 7.841 11.517C7.441 11.897 7.425 12.531 7.805 12.931L13.275 18.689C13.655 19.089 14.287 19.105 14.688 18.726L20.158 13.544C20.558 13.164 20.575 12.531 20.196 12.13C19.816 11.73 19.183 11.712 18.782 12.092L15 15.675V8C15 7.448 14.552 7 14 7C13.448 7 13 7.448 13 8V15.495Z" fill="var(--fill-0, #FF7F30)"/>
</g>
</svg>
