<svg preserveAspectRatio="none" width="100%" height="100%" overflow="visible" style="display: block;" viewBox="0 0 28 28" fill="none" xmlns="http://www.w3.org/2000/svg">
<path id="Vector" d="M14 0C6.268 0 0 6.268 0 14C0 21.732 6.268 28 14 28C21.732 28 28 21.732 28 14C28 6.268 21.732 0 14 0ZM14.338 20.275H11.648C10.049 20.275 8.748 18.974 8.748 17.375V11.549L8.072 12.225C7.896 12.401 7.666 12.489 7.436 12.489C7.206 12.489 6.975 12.401 6.8 12.225C6.448 11.873 6.448 11.304 6.8 10.953L9.012 8.741C9.364 8.389 9.933 8.389 10.284 8.741L12.496 10.953C12.848 11.304 12.848 11.874 12.496 12.225C12.144 12.577 11.575 12.577 11.224 12.225L10.548 11.549V17.375C10.548 17.981 11.042 18.475 11.648 18.475H14.338C14.835 18.475 15.238 18.878 15.238 19.375C15.238 19.872 14.835 20.275 14.338 20.275ZM21.201 17.047L18.989 19.259C18.813 19.435 18.583 19.523 18.353 19.523C18.123 19.523 17.893 19.435 17.717 19.259L15.505 17.047C15.153 16.696 15.153 16.126 15.505 15.775C15.857 15.423 16.426 15.423 16.777 15.775L17.453 16.451V10.625C17.453 10.019 16.959 9.525 16.353 9.525H13.663C13.166 9.525 12.763 9.122 12.763 8.625C12.763 8.128 13.166 7.725 13.663 7.725H16.353C17.952 7.725 19.253 9.026 19.253 10.625V16.451L19.929 15.775C20.281 15.423 20.851 15.423 21.201 15.775C21.552 16.126 21.552 16.696 21.201 17.047Z" fill="var(--fill-0, #FF7F30)"/>
</svg>
