<svg preserveAspectRatio="none" width="100%" height="100%" overflow="visible" style="display: block;" viewBox="0 0 27 30" fill="none" xmlns="http://www.w3.org/2000/svg">
<g id="AUDIO">
<g id="Vector">
<path d="M6.52839 5.03003C5.13729 5.03003 4 6.23999 4 7.72003V24.31C4 25.79 5.13729 27 6.52839 27H19.4714C20.8625 27 22 25.79 22 24.31V7.72003C22 6.23999 20.8625 5.03003 19.4714 5.03003H18.8699V8.07001C18.8699 9.45001 17.8077 10.57 16.5201 10.57C15.2228 10.57 14.1702 9.45001 14.1702 8.07001V5.03003H11.8298V8.07001C11.8298 9.45001 10.7769 10.57 9.47993 10.57C8.1921 10.57 7.13008 9.45001 7.13008 8.07001V5.03003H6.52839ZM9.91226 14.1H16.0877C16.614 14.1 17.0277 14.55 17.0277 15.1C17.0277 15.65 16.614 16.1 16.0877 16.1H9.91226C9.39525 16.1 8.97232 15.65 8.97232 15.1C8.97232 14.55 9.39525 14.1 9.91226 14.1ZM9.91226 19.73H13.0047C13.5216 19.73 13.9446 20.17 13.9446 20.73C13.9446 21.28 13.5216 21.73 13.0047 21.73H9.91226C9.39525 21.73 8.97232 21.28 8.97232 20.73C8.97232 20.17 9.39525 19.73 9.91226 19.73Z" fill="var(--fill-0, #FF7F30)"/>
<path d="M10.4199 8.07001C10.4199 7.91933 10.4199 3.88323 10.4199 4C10.4199 3.44 10.0062 3 9.47993 3C8.96291 3 8.53999 3.44 8.53999 4C8.53999 4.21471 8.53999 8.21945 8.53999 8.07001C8.53999 8.62 8.96291 9.07001 9.47993 9.07001C10.0062 9.07001 10.4199 8.62 10.4199 8.07001Z" fill="var(--fill-0, #FF7F30)"/>
<path d="M17.46 8.07001C17.46 7.91933 17.46 3.88323 17.46 4C17.46 3.44 17.037 3 16.5201 3C15.9937 3 15.5801 3.44 15.5801 4C15.5801 4.21471 15.5801 8.21945 15.5801 8.07001C15.5801 8.62 15.9937 9.07001 16.5201 9.07001C17.037 9.07001 17.46 8.62 17.46 8.07001Z" fill="var(--fill-0, #FF7F30)"/>
</g>
</g>
</svg>
