<svg preserveAspectRatio="none" width="100%" height="100%" overflow="visible" style="display: block;" viewBox="0 0 27 28" fill="none" xmlns="http://www.w3.org/2000/svg">
<path id="Vector" d="M24.1074 4.04151C23.2185 3.57612 22.2982 3.12823 21.3674 2.70386C17.6916 3.88291 13.3818 5.43548 9.03724 7.36374C8.61953 7.54674 8.26169 7.84173 8.00403 8.21546C7.74638 8.58919 7.59915 9.02682 7.57895 9.47903C7.51108 11.5571 7.49011 13.702 7.5177 15.8227C7.51993 15.8849 7.50197 15.9462 7.46647 15.9975C7.43096 16.0488 7.37979 16.0875 7.32046 16.1079C7.26113 16.1283 7.19677 16.1293 7.13683 16.1107C7.0769 16.0922 7.02454 16.055 6.98746 16.0048C6.5284 15.4215 6.07927 14.8447 5.64007 14.2745C5.6077 14.23 5.5596 14.1991 5.50532 14.188C5.45104 14.177 5.39455 14.1866 5.34709 14.2149C5.0061 14.4151 4.67118 14.613 4.34233 14.8088C4.15805 14.9182 3.93127 14.7722 3.93017 14.5474C3.91914 12.4349 3.97266 10.3168 4.08632 8.26389C4.13432 7.39819 4.68222 6.58281 5.4933 6.18578C9.65963 4.14815 14.1051 2.48183 17.8985 1.24864C17.0157 0.906304 16.1378 0.592401 15.2809 0.294904C14.1256 -0.0983013 12.8709 -0.0983013 11.7155 0.294904C8.85627 1.27216 5.73387 2.54855 2.88956 4.04151C1.1609 4.94001 0.130767 6.75835 0.0849707 8.56959C-0.0283236 12.1899 -0.0283236 15.8101 0.0849707 19.4304C0.129111 21.2416 1.1609 23.06 2.88956 23.9585C5.73387 25.4514 8.85627 26.7278 11.7177 27.7051C12.8731 28.0983 14.1278 28.0983 15.2831 27.7051C18.1424 26.7284 21.2648 25.4514 24.1113 23.9585C25.8388 23.06 26.8701 21.2416 26.9153 19.4304C27.0282 15.8101 27.0282 12.1899 26.9153 8.56959C26.8679 6.75835 25.8355 4.94001 24.1074 4.04151Z" fill="var(--fill-0, #FF7F30)"/>
</svg>
