<svg preserveAspectRatio="none" width="100%" height="100%" overflow="visible" style="display: block;" viewBox="0 0 28 28" fill="none" xmlns="http://www.w3.org/2000/svg">
<g id="AUDIO">
<g id="Vector">
<path d="M7.69644 18.0144C7.69644 17.5494 7.37089 17.2721 6.79649 17.2721C6.56194 17.2721 6.40309 17.295 6.32 17.317V18.8089C6.41838 18.8308 6.53932 18.8382 6.70602 18.8382C7.31828 18.8382 7.69644 18.5316 7.69644 18.0144Z" fill="var(--fill-0, #FF7F30)"/>
<path d="M11.2523 17.2877C10.995 17.2877 10.8288 17.3097 10.7305 17.3325V20.6367C10.8289 20.6596 10.9877 20.6596 11.1313 20.6596C12.1748 20.6669 12.8554 20.0976 12.8554 18.8913C12.8628 17.8423 12.2426 17.2877 11.2523 17.2877Z" fill="var(--fill-0, #FF7F30)"/>
<path d="M18.2017 0.338753C17.9821 0.121812 17.6846 0 17.3745 0H6.51207C4.85443 0 3.50529 1.3381 3.50529 2.98009V14H3.21162C2.54259 14 2 14.5372 2 15.2009V22.4837C2 23.1473 2.54253 23.6845 3.21162 23.6845H3.50529V25.0199C3.50529 26.6637 4.85443 28 6.51207 28H21.9941C23.6507 28 25 26.6636 25 25.0199V7.53539C25 7.22664 24.876 6.93059 24.6553 6.71266L18.2017 0.338753ZM5.17858 16.5152C5.53366 16.4557 6.03277 16.4109 6.73596 16.4109C7.4466 16.4109 7.95309 16.5453 8.29341 16.8154C8.61849 17.0698 8.83787 17.4899 8.83787 17.9842C8.83787 18.4784 8.67163 18.8986 8.36917 19.1832C7.97576 19.5503 7.39398 19.715 6.7134 19.715C6.56194 19.715 6.42617 19.7076 6.32 19.693V21.4989H5.17858V16.5152ZM21.9941 26.1749H6.51207C5.87023 26.1749 5.34756 25.6569 5.34756 25.0199V23.6845H19.78C20.4491 23.6845 20.9917 23.1473 20.9917 22.4837V15.2009C20.9917 14.5372 20.4491 14 19.78 14H5.34756V2.98009C5.34756 2.34488 5.87029 1.82685 6.51207 1.82685L17.1698 1.81582V5.72034C17.1698 6.86081 18.1035 7.78704 19.255 7.78704L23.1142 7.77606L23.1576 25.0198C23.1576 25.6569 22.6359 26.1749 21.9941 26.1749ZM9.57387 21.476V16.5152C9.99722 16.4484 10.549 16.4109 11.1313 16.4109C12.0991 16.4109 12.7266 16.583 13.2183 16.9499C13.7475 17.3398 14.0799 17.9614 14.0799 18.8537C14.0799 19.8202 13.7248 20.4875 13.233 20.8993C12.6965 21.3413 11.8797 21.551 10.8819 21.551C10.2844 21.551 9.86104 21.5135 9.57387 21.476ZM17.8256 18.5389V19.4679H15.9957V21.4989H14.839V16.4484H17.9539V17.3847H15.9957V18.5389H17.8256Z" fill="var(--fill-0, #FF7F30)"/>
</g>
</g>
</svg>
