<svg preserveAspectRatio="none" width="100%" height="100%" overflow="visible" style="display: block;" viewBox="0 0 28 30" fill="none" xmlns="http://www.w3.org/2000/svg">
<g id="AUDIO">
<g id="Vector">
<path d="M27.4638 13.6393L21.9234 8.16178C21.1489 7.38779 19.9574 7.38779 19.183 8.16178C18.4085 8.93577 18.4085 10.1265 19.183 10.9005L23.3532 15.0682L19.183 19.2358C18.4085 20.0098 18.4085 21.2006 19.183 21.9745C19.5404 22.3318 20.0766 22.5104 20.5532 22.5104C21.0298 22.5104 21.5064 22.3318 21.9234 21.9745L27.4638 16.4971C27.8213 16.1398 28 15.6635 28 15.1277C28 14.4728 27.8213 13.9965 27.4638 13.6393Z" fill="var(--fill-0, #FF7F30)"/>
<path d="M8.81702 19.1763L4.64681 15.0086L8.81702 10.841C9.59149 10.067 9.59149 8.87624 8.81702 8.10224C8.04255 7.32825 6.85106 7.32825 6.0766 8.10224L0.53617 13.5797C0.178723 13.9369 0 14.4132 0 14.9491C0 15.4849 0.178723 15.9612 0.53617 16.3185L6.0766 21.7959C6.43404 22.1532 6.97021 22.3318 7.44681 22.3318C7.9234 22.3318 8.45957 22.1532 8.81702 21.7959C9.53191 21.141 9.53191 19.8907 8.81702 19.1763Z" fill="var(--fill-0, #FF7F30)"/>
<path d="M17.9319 1.07679C16.9191 0.7791 15.8468 1.37448 15.5489 2.38662L8.75745 26.559C8.45957 27.5711 9.05532 28.6428 10.0681 28.9405C10.2468 29 10.4255 29 10.6043 29C11.4383 29 12.2128 28.4642 12.4511 27.6306L19.2426 3.4583C19.5404 2.44616 18.9447 1.37448 17.9319 1.07679Z" fill="var(--fill-0, #FF7F30)"/>
</g>
</g>
</svg>
