<svg preserveAspectRatio="none" width="100%" height="100%" overflow="visible" style="display: block;" viewBox="0 0 223 130" fill="none" xmlns="http://www.w3.org/2000/svg">
<g id="Vector">
<path fill-rule="evenodd" clip-rule="evenodd" d="M212.524 9.05842C212.898 6.80161 212.255 4.4928 210.782 2.7456C209.298 1.0088 207.131 0 204.849 0H18.1512C15.8693 0 13.7015 1.0088 12.2183 2.7456C10.7455 4.4928 10.1024 6.80161 10.4758 9.05842C10.4758 9.05842 21.0761 73.9961 26.2933 106.018C28.5544 119.85 40.4719 130 54.4431 130H168.557C182.528 130 194.446 119.85 196.707 106.018L212.524 9.05842ZM103.721 44.2001V85.8002C103.721 90.1058 107.206 93.6002 111.5 93.6002C115.794 93.6002 119.279 90.1058 119.279 85.8002V44.2001C119.279 39.8945 115.794 36.4001 111.5 36.4001C107.206 36.4001 103.721 39.8945 103.721 44.2001ZM145.209 44.2001V85.8002C145.209 90.1058 148.694 93.6002 152.988 93.6002C157.282 93.6002 160.767 90.1058 160.767 85.8002V44.2001C160.767 39.8945 157.282 36.4001 152.988 36.4001C148.694 36.4001 145.209 39.8945 145.209 44.2001ZM62.2326 44.2001V85.8002C62.2326 90.1058 65.7176 93.6002 70.0116 93.6002C74.3057 93.6002 77.7907 90.1058 77.7907 85.8002V44.2001C77.7907 39.8945 74.3057 36.4001 70.0116 36.4001C65.7176 36.4001 62.2326 39.8945 62.2326 44.2001Z" fill="var(--fill-0, #FF7F30)"/>
<path fill-rule="evenodd" clip-rule="evenodd" d="M215.221 0H7.77907C3.48502 0 0 3.4944 0 7.80001C0 12.1056 3.48502 15.6 7.77907 15.6H215.221C219.515 15.6 223 12.1056 223 7.80001C223 3.4944 219.515 0 215.221 0Z" fill="var(--fill-0, #FF7F30)"/>
</g>
</svg>
