<svg preserveAspectRatio="none" width="100%" height="100%" overflow="visible" style="display: block;" viewBox="0 0 28 30" fill="none" xmlns="http://www.w3.org/2000/svg">
<g id="AUDIO">
<path id="Vector" d="M27.949 14.7206L26.0977 23.9206C25.9225 24.7888 25.4503 25.5699 24.7613 26.1313C24.0723 26.6926 23.209 26.9996 22.318 27H3.8568C2.83392 27 1.85292 26.5961 1.12963 25.8772C0.406341 25.1584 0 24.1833 0 23.1667V7.83333C0 6.81667 0.406341 5.84165 1.12963 5.12276C1.85292 4.40387 2.83392 4 3.8568 4H8.99921C9.25123 4.00196 9.49712 4.07749 9.70629 4.21722L13.2417 6.55556H20.5696C21.5925 6.55556 22.5735 6.95942 23.2968 7.67831C23.7116 8.09061 24.0222 8.58716 24.2116 9.12749C24.4466 9.79752 23.8508 10.3889 23.1408 10.3889H22.8599C22.305 10.3889 21.8722 9.87651 21.4787 9.48536C21.2376 9.24573 20.9106 9.11111 20.5696 9.11111H12.856C12.604 9.10916 12.3581 9.03362 12.1489 8.89389L8.8644 6.72149C8.70078 6.61326 8.50893 6.55556 8.31275 6.55556H3.8568C3.51584 6.55556 3.18884 6.69018 2.94775 6.92981C2.70665 7.16944 2.5712 7.49445 2.5712 7.83333V23.1667C2.5712 23.5056 2.70665 23.8306 2.94775 24.0702C3.18884 24.3098 3.51584 24.4444 3.8568 24.4444C3.9914 24.4444 4.10733 24.3495 4.13392 24.2176L6.04233 14.7461C6.21754 13.8779 6.68977 13.0968 7.37877 12.5354C8.06778 11.974 8.93108 11.6671 9.822 11.6667H25.4292C25.8101 11.6657 26.1865 11.7489 26.5311 11.9102C26.8757 12.0716 27.18 12.307 27.4219 12.5994C27.662 12.8923 27.8338 13.2344 27.925 13.6012C28.0161 13.968 28.0243 14.3503 27.949 14.7206Z" fill="var(--fill-0, #FF7F30)"/>
</g>
</svg>
