<svg preserveAspectRatio="none" width="100%" height="100%" overflow="visible" style="display: block;" viewBox="0 0 28 30" fill="none" xmlns="http://www.w3.org/2000/svg">
<g id="AUDIO">
<g id="Vector">
<path d="M15.3213 22.4262C15.3213 20.5286 16.0601 18.7441 17.4021 17.4021C18.7441 16.0601 20.528 15.3213 22.4262 15.3213C23.9843 15.3213 25.4658 15.82 26.6891 16.7409C26.757 15.75 26.7991 14.6415 26.8007 13.4006C26.7974 10.2796 26.5355 7.99422 26.256 6.31477C25.7671 3.54758 23.2537 1.03414 20.4865 0.545234C18.807 0.265234 16.5216 0.00328125 13.4001 0C10.2791 0.00328125 7.99312 0.265234 6.31367 0.544688C3.54703 1.03359 1.03359 3.54703 0.544688 6.31422C0.265234 7.99367 0.00382813 10.2791 0 13.4001C0.00382813 16.5211 0.265234 18.807 0.544688 20.4865C1.03359 23.2537 3.54703 25.7671 6.31422 26.256C7.99367 26.5355 10.2791 26.7969 13.4006 26.8007C14.6415 26.7991 15.75 26.757 16.7409 26.6891C15.82 25.4658 15.3213 23.9848 15.3213 22.4262ZM6.77906 6.47609H20.0216C20.878 6.47609 21.5726 7.17062 21.5726 8.02703C21.5726 8.88344 20.878 9.57797 20.0216 9.57797H6.77906C5.92266 9.57797 5.22812 8.88344 5.22812 8.02703C5.22812 7.17062 5.92266 6.47609 6.77906 6.47609ZM6.77906 16.0546C5.92266 16.0546 5.22812 15.3601 5.22812 14.5037C5.22812 13.6473 5.92266 12.9527 6.77906 12.9527H14.5529C15.4093 12.9527 16.1038 13.6473 16.1038 14.5037C16.1038 15.3601 15.4093 16.0546 14.5529 16.0546H6.77906Z" fill="var(--fill-0, #FF7F30)"/>
<path d="M22.4262 16.8525C19.3479 16.8525 16.8525 19.3479 16.8525 22.4262C16.8525 25.5046 19.3479 28 22.4262 28C25.5046 28 28 25.5046 28 22.4262C28 19.3479 25.5046 16.8525 22.4262 16.8525ZM23.4653 25.1918C23.4653 25.7655 22.9999 26.2309 22.4262 26.2309C21.8526 26.2309 21.3872 25.7655 21.3872 25.1918V22.4503C21.3872 21.8766 21.8526 21.4112 22.4262 21.4112C22.9999 21.4112 23.4653 21.8766 23.4653 22.4503V25.1918ZM23.4227 20.2262C23.3844 20.4427 23.1875 20.6396 22.9709 20.6779C22.8397 20.6998 22.6603 20.72 22.4159 20.7205C22.1714 20.7205 21.9926 20.6998 21.8608 20.6779C21.6442 20.6396 21.4473 20.4427 21.4091 20.2262C21.3872 20.0949 21.367 19.9155 21.3664 19.6711C21.3664 19.4266 21.3872 19.2478 21.4091 19.116C21.4473 18.8995 21.6442 18.7026 21.8608 18.6643C21.992 18.6424 22.1714 18.6222 22.4159 18.6216C22.6603 18.6216 22.8391 18.6424 22.9709 18.6643C23.1875 18.7026 23.3844 18.8995 23.4227 19.116C23.4445 19.2473 23.4648 19.4266 23.4653 19.6711C23.4653 19.9155 23.4445 20.0944 23.4227 20.2262Z" fill="var(--fill-0, #FF7F30)"/>
</g>
</g>
</svg>
