<svg preserveAspectRatio="none" width="100%" height="100%" overflow="visible" style="display: block;" viewBox="0 0 360.833 38.6667" fill="none" xmlns="http://www.w3.org/2000/svg">
<path id="Vector 54" d="M0 2.66667C0 4.13943 1.19391 5.33333 2.66667 5.33333C4.13943 5.33333 5.33333 4.13943 5.33333 2.66667C5.33333 1.19391 4.13943 0 2.66667 0C1.19391 0 0 1.19391 0 2.66667ZM180.5 2.66667C180.5 4.13943 181.694 5.33333 183.167 5.33333C184.639 5.33333 185.833 4.13943 185.833 2.66667C185.833 1.19391 184.639 0 183.167 0C181.694 0 180.5 1.19391 180.5 2.66667ZM355.5 2.66667C355.5 4.13943 356.694 5.33333 358.167 5.33333C359.639 5.33333 360.833 4.13943 360.833 2.66667C360.833 1.19391 359.639 0 358.167 0C356.694 0 355.5 1.19391 355.5 2.66667ZM38.1667 38.1667V38.6667H183.167V38.1667V37.6667H38.1667V38.1667ZM183.167 38.1667H183.667V2.66667H183.167H182.667V38.1667H183.167ZM183.167 38.1667V38.6667H322.667V38.1667V37.6667H183.167V38.1667ZM322.667 38.1667V38.6667C342.549 38.6667 358.667 22.5489 358.667 2.66667H358.167H357.667C357.667 21.9966 341.997 37.6667 322.667 37.6667V38.1667ZM2.66667 2.66667H2.16667C2.16667 22.5489 18.2844 38.6667 38.1667 38.6667V38.1667V37.6667C18.8367 37.6667 3.16667 21.9966 3.16667 2.66667H2.66667Z" fill="var(--stroke-0, #B9B9B9)"/>
</svg>
