<svg preserveAspectRatio="none" width="100%" height="100%" overflow="visible" style="display: block;" viewBox="0 0 166 166" fill="none" xmlns="http://www.w3.org/2000/svg">
<g id="Group 1597881170">
<ellipse id="Ellipse 1746" cx="83.5" cy="80" rx="63.5" ry="60" fill="var(--fill-0, white)"/>
<path id="Vector" fill-rule="evenodd" clip-rule="evenodd" d="M83 166C37.2336 166 0 128.766 0 83C0 37.2336 37.2336 0 83 0C128.766 0 166 37.2336 166 83C166 128.766 128.766 166 83 166ZM98.2587 127.124C110.055 123.033 119.72 114.339 125.088 103.199H106.078C105.012 109.608 103.434 115.518 101.395 120.615C100.434 123.017 99.3844 125.188 98.2587 127.124ZM40.9122 103.199C46.2803 114.339 55.9446 123.033 67.7413 127.125C66.6159 125.188 65.5658 123.017 64.6048 120.615C62.5658 115.518 60.9881 109.608 59.9221 103.199H40.9122ZM67.7413 38.8758C55.9446 42.9668 46.2803 51.661 40.9122 62.8012H59.9221C60.9881 56.3923 62.5658 50.4825 64.6048 45.3854C65.5658 42.9833 66.6156 40.8117 67.7413 38.8758ZM83 36.3125C79.5964 36.3125 75.6023 41.0114 72.577 48.5745C70.9079 52.7475 69.5848 57.5637 68.6345 62.8012H97.3658C96.4155 57.5641 95.0927 52.7475 93.4233 48.5745C90.3977 41.0114 86.4036 36.3125 83 36.3125ZM36.3125 83C36.3125 87.0077 36.8206 90.8986 37.7747 94.6129H58.835C58.4939 90.8357 58.313 86.9496 58.313 83C58.313 79.0504 58.4939 75.1643 58.835 71.3871H37.7747C36.8206 75.1014 36.3125 78.9923 36.3125 83ZM67.4511 94.6129H98.5492C98.9117 90.8597 99.101 86.9688 99.101 83C99.101 79.0312 98.912 75.1403 98.5492 71.3871H67.4511C67.0886 75.1403 66.8993 79.0312 66.8993 83C66.8993 86.9688 67.0883 90.8597 67.4511 94.6129ZM83 129.688C86.4036 129.688 90.3977 124.989 93.423 117.426C95.0924 113.253 96.4152 108.436 97.3655 103.199H68.6342C69.5845 108.436 70.9076 113.253 72.5767 117.426C75.6023 124.989 79.5964 129.688 83 129.688ZM129.688 83C129.688 78.9923 129.179 75.1014 128.225 71.3871H107.165C107.506 75.1643 107.687 79.0504 107.687 83C107.687 86.9496 107.506 90.8357 107.165 94.6129H128.225C129.179 90.8986 129.688 87.0077 129.688 83ZM125.088 62.8008C119.72 51.6607 110.055 42.9664 98.2584 38.8754C99.3837 40.8117 100.434 42.9833 101.395 45.3854C103.434 50.4825 105.012 56.392 106.078 62.8012L125.088 62.8008ZM138.274 83C138.274 113.478 113.478 138.274 83 138.274C52.5218 138.274 27.7262 113.478 27.7262 83C27.7262 52.5221 52.5218 27.7262 83 27.7262C113.478 27.7262 138.274 52.5221 138.274 83Z" fill="var(--fill-0, #FF7F30)"/>
</g>
</svg>
