<svg preserveAspectRatio="none" width="100%" height="100%" overflow="visible" style="display: block;" viewBox="0 0 28 28" fill="none" xmlns="http://www.w3.org/2000/svg">
<g id="AUDIO">
<g id="Vector">
<path d="M23.3681 8.66979H19.7797C18.3286 8.66979 17.148 7.51348 17.148 6.0922V2.57672C17.148 1.15128 15.97 0 14.5171 0H10.8087C9.34139 0 8.17692 1.16621 8.17692 2.57759V18.3932C8.17692 19.8303 9.36764 20.9708 10.8087 20.9708H23.3682C24.8388 20.9708 26 19.8011 26 18.3932V11.2474C25.9999 9.82611 24.8193 8.66979 23.3681 8.66979ZM20.4766 11.8191L16.8882 17.091C16.5717 17.5741 15.8109 17.5739 15.4944 17.091L13.7002 14.455C13.4435 14.0781 13.5476 13.5688 13.9325 13.3175C14.3173 13.0661 14.8373 13.168 15.0939 13.545L16.1913 15.1571L19.0828 10.909C19.3394 10.5321 19.8594 10.4302 20.2443 10.6815C20.6293 10.9328 20.7333 11.4422 20.4766 11.8191Z" fill="var(--fill-0, #FF7F30)"/>
<path d="M2.91336 21.9079V7.12793C1.82465 7.43139 1 8.40642 1 9.60675V25.4224C1 26.8437 2.18061 28 3.63175 28H16.1913C17.3934 28 18.4091 27.2063 18.7226 26.126H7.22021C4.84542 26.1261 2.91336 24.2338 2.91336 21.9079Z" fill="var(--fill-0, #FF7F30)"/>
<path d="M6.50176 18.3932V3.61337C5.41306 3.91689 4.58846 4.89203 4.58846 6.0922V21.9079C4.58846 23.3291 5.76907 24.4854 7.22021 24.4854H19.7798C20.9818 24.4854 21.9975 23.6917 22.311 22.6115H10.8087C8.43388 22.6115 6.50176 20.7192 6.50176 18.3932Z" fill="var(--fill-0, #FF7F30)"/>
<path d="M18.8231 6.0922C18.8231 6.60883 19.2522 7.02916 19.7797 7.02916H23.3682C24.1828 7.02916 24.9452 7.25191 25.5956 7.63838C25.3394 7.04371 24.9661 6.49716 24.4862 6.02707L19.8463 1.48269C19.3665 1.01271 18.8086 0.647228 18.2017 0.396321C18.5959 1.03299 18.8231 1.77932 18.8231 2.57672V6.0922H18.8231Z" fill="var(--fill-0, #FF7F30)"/>
</g>
</g>
</svg>
