<svg preserveAspectRatio="none" width="100%" height="100%" overflow="visible" style="display: block;" viewBox="0 0 44 44" fill="none" xmlns="http://www.w3.org/2000/svg">
<g id="Vector">
<path d="M0 13.2316V15.3958C0 16.3784 0.796518 17.1749 1.77907 17.1749H3.94324C4.9258 17.1749 5.72232 16.3784 5.72232 15.3958V13.2316C5.72232 12.249 4.9258 11.4525 3.94324 11.4525H1.77907C0.796518 11.4525 0 12.249 0 13.2316Z" fill="var(--fill-0, #FF7F30)"/>
<path d="M0 18.9539V21.1181C0 22.1007 0.796518 22.8972 1.77907 22.8972H3.94323C4.92579 22.8972 5.72231 22.1007 5.72231 21.1181V18.9539C5.72231 17.9713 4.9258 17.1749 3.94324 17.1749H1.77907C0.796518 17.1749 0 17.9713 0 18.9539Z" fill="var(--fill-0, #FF7F30)"/>
<path d="M0 24.6763V26.8405C0 27.8231 0.796518 28.6196 1.77907 28.6196H3.94323C4.92579 28.6196 5.72232 27.8231 5.72232 26.8405V24.6763C5.72232 23.6937 4.92579 22.8972 3.94323 22.8972H1.77907C0.796518 22.8972 0 23.6937 0 24.6763Z" fill="var(--fill-0, #FF7F30)"/>
<path d="M0 30.3987V32.5629C0 33.5455 0.796518 34.342 1.77907 34.342H3.94323C4.92579 34.342 5.72231 33.5455 5.72231 32.5629V30.3987C5.72231 29.4162 4.92579 28.6196 3.94323 28.6196H1.77907C0.796518 28.6196 0 29.4162 0 30.3987Z" fill="var(--fill-0, #FF7F30)"/>
<path d="M5.72286 7.50919V9.67338C5.72286 10.6559 6.51938 11.4525 7.50194 11.4525H9.66609C10.6486 11.4525 11.4452 10.6559 11.4452 9.67338V7.50919C11.4452 6.52662 10.6486 5.73009 9.66609 5.73009H7.50194C6.51938 5.73009 5.72286 6.52662 5.72286 7.50919Z" fill="var(--fill-0, #FF7F30)"/>
<path d="M5.73057 13.2316V15.3958C5.73057 16.3784 6.52709 17.1749 7.50965 17.1749H9.67382C10.6564 17.1749 11.4529 16.3784 11.4529 15.3958V13.2316C11.4529 12.249 10.6564 11.4525 9.67382 11.4525H7.50965C6.52709 11.4525 5.73057 12.249 5.73057 13.2316Z" fill="var(--fill-0, #FF7F30)"/>
<path d="M5.72231 18.9539V21.1181C5.72231 22.1007 6.51937 22.8972 7.50193 22.8972H9.66609C10.6486 22.8972 11.4452 22.1007 11.4452 21.1181V18.9539C11.4452 17.9714 10.6486 17.1748 9.66609 17.1748H7.50193C6.51937 17.1748 5.72231 17.9713 5.72231 18.9539Z" fill="var(--fill-0, #FF7F30)"/>
<path d="M5.72232 24.6763V26.8405C5.72232 27.8231 6.51937 28.6196 7.50193 28.6196H9.66609C10.6486 28.6196 11.4452 27.8231 11.4452 26.8405V24.6763C11.4452 23.6938 10.6486 22.8972 9.66609 22.8972H7.50193C6.51937 22.8972 5.72232 23.6937 5.72232 24.6763Z" fill="var(--fill-0, #FF7F30)"/>
<path d="M11.4438 7.50919V9.67338C11.4438 10.6559 12.2403 11.4525 13.2229 11.4525H15.387C16.3696 11.4525 17.1661 10.6559 17.1661 9.67338V7.50919C17.1661 6.52662 16.3696 5.73009 15.387 5.73009H13.2229C12.2403 5.73009 11.4438 6.52662 11.4438 7.50919Z" fill="var(--fill-0, #FF7F30)"/>
<path d="M11.4438 1.78679V3.95098C11.4438 4.93355 12.2403 5.73009 13.2229 5.73009H15.387C16.3696 5.73009 17.1661 4.93355 17.1661 3.95098V1.78679C17.1661 0.804217 16.3696 0.00768809 15.387 0.00768809H13.2229C12.2403 0.00768809 11.4438 0.804217 11.4438 1.78679Z" fill="var(--fill-0, #FF7F30)"/>
<path d="M11.4515 13.2316V15.3958C11.4515 16.3784 12.248 17.1749 13.2306 17.1749H15.3947C16.3773 17.1749 17.1738 16.3784 17.1738 15.3958V13.2316C17.1738 12.249 16.3773 11.4525 15.3947 11.4525H13.2306C12.248 11.4525 11.4515 12.249 11.4515 13.2316Z" fill="var(--fill-0, #FF7F30)"/>
<path d="M17.1666 7.50144V9.66562C17.1666 10.6482 17.9632 11.4447 18.9457 11.4447H21.1099C22.0924 11.4447 22.8889 10.6482 22.8889 9.66562V7.50144C22.8889 6.51887 22.0924 5.72234 21.1099 5.72234H18.9457C17.9632 5.72234 17.1666 6.51887 17.1666 7.50144Z" fill="var(--fill-0, #FF7F30)"/>
<path d="M17.1744 1.7791V3.94328C17.1744 4.92585 17.9709 5.72239 18.9534 5.72239H21.1176C22.1001 5.72239 22.8967 4.92585 22.8967 3.94328V1.7791C22.8967 0.796528 22.1001 0 21.1176 0H18.9534C17.9709 0 17.1744 0.796528 17.1744 1.7791Z" fill="var(--fill-0, #FF7F30)"/>
<path d="M17.1744 13.2238V15.388C17.1744 16.3706 17.9709 17.1671 18.9534 17.1671H21.1176C22.1002 17.1671 22.8967 16.3706 22.8967 15.388V13.2238C22.8967 12.2413 22.1002 11.4447 21.1176 11.4447H18.9534C17.9709 11.4447 17.1744 12.2413 17.1744 13.2238Z" fill="var(--fill-0, #FF7F30)"/>
<path d="M22.8967 1.7791V3.94328C22.8967 4.92585 23.6937 5.72239 24.6763 5.72239H26.8404C27.823 5.72239 28.6195 4.92586 28.6195 3.94329V1.77911C28.6195 0.79654 27.823 1.19077e-05 26.8404 1.19077e-05H24.6763C23.6937 1.19077e-05 22.8967 0.796528 22.8967 1.7791Z" fill="var(--fill-0, #FF7F30)"/>
<path d="M6.35385 36.3599V38.0543C6.35385 38.8199 6.9745 39.4406 7.74013 39.4406H9.4345C10.2001 39.4406 10.8208 38.8199 10.8208 38.0543V36.3599C10.8208 35.5943 10.2001 34.9736 9.4345 34.9736H7.74013C6.9745 34.9736 6.35385 35.5943 6.35385 36.3599Z" fill="var(--fill-0, #FF7F30)"/>
<path d="M6.35385 30.6375V32.3319C6.35385 33.0975 6.97452 33.7182 7.74014 33.7182H9.4345C10.2001 33.7182 10.8208 33.0975 10.8208 32.3319V30.6375C10.8208 29.8718 10.2001 29.2512 9.4345 29.2512H7.74014C6.97452 29.2512 6.35385 29.8718 6.35385 30.6375Z" fill="var(--fill-0, #FF7F30)"/>
<path d="M12.5687 36.5524V37.8694C12.5687 38.4649 13.0514 38.9477 13.6469 38.9477H14.9639C15.5594 38.9477 16.0421 38.4649 16.0421 37.8694V36.5524C16.0421 35.957 15.5594 35.4742 14.9639 35.4742H13.6469C13.0514 35.4742 12.5687 35.957 12.5687 36.5524Z" fill="var(--fill-0, #FF7F30)"/>
<path d="M13.2459 42.529V43.33C13.2459 43.6958 13.5425 43.9923 13.9083 43.9923H14.7092C15.075 43.9923 15.3716 43.6958 15.3716 43.33V42.529C15.3716 42.1632 15.075 41.8666 14.7092 41.8666H13.9083C13.5425 41.8666 13.2459 42.1632 13.2459 42.529Z" fill="var(--fill-0, #FF7F30)"/>
<path d="M11.4515 18.9539V21.1181C11.4515 22.1007 12.248 22.8972 13.2306 22.8972H15.3947C16.3773 22.8972 17.1738 22.1007 17.1738 21.1181V18.9539C17.1738 17.9714 16.3773 17.1749 15.3947 17.1749H13.2306C12.248 17.1749 11.4515 17.9714 11.4515 18.9539Z" fill="var(--fill-0, #FF7F30)"/>
<path d="M12.0767 24.9151V26.6094C12.0767 27.3751 12.6973 27.9957 13.4629 27.9957H15.1573C15.9229 27.9957 16.5436 27.3751 16.5436 26.6094V24.9151C16.5436 24.1494 15.9229 23.5287 15.1573 23.5287H13.4629C12.6973 23.5287 12.0767 24.1494 12.0767 24.9151Z" fill="var(--fill-0, #FF7F30)"/>
<path d="M12.0767 30.6375V32.3318C12.0767 33.0975 12.6973 33.7181 13.4629 33.7181H15.1573C15.9229 33.7181 16.5436 33.0975 16.5436 32.3318V30.6375C16.5436 29.8718 15.9229 29.2511 15.1573 29.2511H13.4629C12.6973 29.2511 12.0767 29.8718 12.0767 30.6375Z" fill="var(--fill-0, #FF7F30)"/>
<path d="M18.2914 36.5447V37.8617C18.2914 38.4572 18.7741 38.9399 19.3696 38.9399H20.6866C21.2821 38.9399 21.7648 38.4572 21.7648 37.8617V36.5447C21.7648 35.9492 21.2821 35.4664 20.6866 35.4664H19.3696C18.7741 35.4664 18.2914 35.9492 18.2914 36.5447Z" fill="var(--fill-0, #FF7F30)"/>
<path d="M18.9688 42.5367V43.3376C18.9688 43.7035 19.2653 44 19.6311 44H20.4321C20.7979 44 21.0944 43.7035 21.0944 43.3376V42.5367C21.0944 42.1709 20.7979 41.8743 20.4321 41.8743H19.6311C19.2653 41.8743 18.9688 42.1709 18.9688 42.5367Z" fill="var(--fill-0, #FF7F30)"/>
<path d="M17.7976 19.1927V20.8871C17.7976 21.6527 18.4182 22.2734 19.1839 22.2734H20.8782C21.6439 22.2734 22.2645 21.6527 22.2645 20.8871V19.1927C22.2645 18.4271 21.6439 17.8064 20.8782 17.8064H19.1839C18.4182 17.8064 17.7976 18.4271 17.7976 19.1927Z" fill="var(--fill-0, #FF7F30)"/>
<path d="M17.8053 24.9151V26.6094C17.8053 27.3751 18.426 27.9957 19.1916 27.9957H20.8859C21.6516 27.9957 22.2722 27.3751 22.2722 26.6094V24.9151C22.2722 24.1494 21.6516 23.5287 20.8859 23.5287H19.1916C18.426 23.5287 17.8053 24.1494 17.8053 24.9151Z" fill="var(--fill-0, #FF7F30)"/>
<path d="M18.2914 30.8223V32.1393C18.2914 32.7348 18.7741 33.2176 19.3696 33.2176H20.6866C21.2821 33.2176 21.7648 32.7348 21.7648 32.1393V30.8223C21.7648 30.2268 21.2821 29.7441 20.6866 29.7441H19.3696C18.7741 29.7441 18.2914 30.2268 18.2914 30.8223Z" fill="var(--fill-0, #FF7F30)"/>
<path d="M24.6914 36.8066V37.6076C24.6914 37.9734 24.988 38.2699 25.3538 38.2699H26.1547C26.5205 38.2699 26.8171 37.9734 26.8171 37.6076V36.8066C26.8171 36.4408 26.5205 36.1443 26.1547 36.1443H25.3538C24.988 36.1443 24.6914 36.4408 24.6914 36.8066Z" fill="var(--fill-0, #FF7F30)"/>
<path d="M24.6914 42.529V43.3299C24.6914 43.6957 24.988 43.9923 25.3538 43.9923H26.1547C26.5205 43.9923 26.8171 43.6957 26.8171 43.3299V42.529C26.8171 42.1631 26.5205 41.8666 26.1547 41.8666H25.3538C24.988 41.8666 24.6914 42.1631 24.6914 42.529Z" fill="var(--fill-0, #FF7F30)"/>
<path d="M23.5282 7.73254V9.42692C23.5282 10.1926 24.1488 10.8132 24.9144 10.8132H26.6088C27.3744 10.8132 27.9951 10.1926 27.9951 9.42692V7.73254C27.9951 6.9669 27.3744 6.34623 26.6088 6.34623H24.9144C24.1488 6.34623 23.5282 6.9669 23.5282 7.73254Z" fill="var(--fill-0, #FF7F30)"/>
<path d="M23.5204 13.4626V15.157C23.5204 15.9226 24.1411 16.5433 24.9067 16.5433H26.6011C27.3667 16.5433 27.9874 15.9226 27.9874 15.157V13.4626C27.9874 12.697 27.3667 12.0763 26.6011 12.0763H24.9067C24.1411 12.0763 23.5204 12.697 23.5204 13.4626Z" fill="var(--fill-0, #FF7F30)"/>
<path d="M23.5204 19.185V20.8794C23.5204 21.645 24.1411 22.2657 24.9067 22.2657H26.6011C27.3667 22.2657 27.9874 21.645 27.9874 20.8794V19.185C27.9874 18.4194 27.3667 17.7987 26.6011 17.7987H24.9067C24.1411 17.7987 23.5204 18.4194 23.5204 19.185Z" fill="var(--fill-0, #FF7F30)"/>
<path d="M24.0221 25.0999V26.4169C24.0221 27.0124 24.5048 27.4951 25.1003 27.4951H26.4173C27.0128 27.4951 27.4955 27.0124 27.4955 26.4169V25.0999C27.4955 24.5044 27.0128 24.0217 26.4173 24.0217H25.1003C24.5048 24.0217 24.0221 24.5044 24.0221 25.0999Z" fill="var(--fill-0, #FF7F30)"/>
<path d="M24.0221 30.8223V32.1393C24.0221 32.7348 24.5048 33.2175 25.1003 33.2175H26.4173C27.0128 33.2175 27.4955 32.7348 27.4955 32.1393V30.8223C27.4955 30.2268 27.0128 29.7441 26.4173 29.7441H25.1003C24.5048 29.7441 24.0221 30.2268 24.0221 30.8223Z" fill="var(--fill-0, #FF7F30)"/>
<path d="M30.4222 36.8066V37.6076C30.4222 37.9734 30.7187 38.2699 31.0845 38.2699H31.8855C32.2513 38.2699 32.5479 37.9734 32.5479 37.6076V36.8066C32.5479 36.4408 32.2513 36.1442 31.8855 36.1442H31.0845C30.7187 36.1442 30.4222 36.4408 30.4222 36.8066Z" fill="var(--fill-0, #FF7F30)"/>
<path d="M30.4145 42.529V43.33C30.4145 43.6958 30.711 43.9923 31.0768 43.9923H31.8778C32.2436 43.9923 32.5401 43.6958 32.5401 43.33V42.529C32.5401 42.1632 32.2436 41.8666 31.8778 41.8666H31.0768C30.711 41.8666 30.4145 42.1632 30.4145 42.529Z" fill="var(--fill-0, #FF7F30)"/>
<path d="M29.251 7.74028V9.43466C29.251 10.2003 29.8717 10.821 30.6373 10.821H32.3317C33.0973 10.821 33.718 10.2003 33.718 9.43466V7.74028C33.718 6.97465 33.0973 6.35397 32.3317 6.35397H30.6373C29.8717 6.35397 29.251 6.97465 29.251 7.74028Z" fill="var(--fill-0, #FF7F30)"/>
<path d="M29.251 2.01008V3.70446C29.251 4.4701 29.8717 5.09077 30.6373 5.09077H32.3317C33.0973 5.09077 33.7179 4.4701 33.7179 3.70446V2.01008C33.7179 1.24444 33.0973 0.623763 32.3317 0.623763H30.6373C29.8717 0.623763 29.251 1.24444 29.251 2.01008Z" fill="var(--fill-0, #FF7F30)"/>
<path d="M29.743 13.6552V14.9722C29.743 15.5677 30.2258 16.0504 30.8213 16.0504H32.1382C32.7337 16.0504 33.2165 15.5677 33.2165 14.9722V13.6552C33.2165 13.0597 32.7337 12.5769 32.1382 12.5769H30.8213C30.2258 12.5769 29.743 13.0597 29.743 13.6552Z" fill="var(--fill-0, #FF7F30)"/>
<path d="M29.743 19.3776V20.6946C29.743 21.2901 30.2258 21.7728 30.8213 21.7728H32.1382C32.7337 21.7728 33.2165 21.2901 33.2165 20.6946V19.3776C33.2165 18.7821 32.7337 18.2993 32.1382 18.2993H30.8213C30.2258 18.2993 29.743 18.7821 29.743 19.3776Z" fill="var(--fill-0, #FF7F30)"/>
<path d="M29.743 25.0999V26.4169C29.743 27.0124 30.2258 27.4951 30.8213 27.4951H32.1382C32.7337 27.4951 33.2165 27.0124 33.2165 26.4169V25.0999C33.2165 24.5044 32.7337 24.0217 32.1382 24.0217H30.8213C30.2258 24.0217 29.743 24.5044 29.743 25.0999Z" fill="var(--fill-0, #FF7F30)"/>
<path d="M30.4222 31.0842V31.8852C30.4222 32.251 30.7187 32.5475 31.0845 32.5475H31.8855C32.2513 32.5475 32.5479 32.251 32.5479 31.8852V31.0842C32.5479 30.7184 32.2513 30.4218 31.8855 30.4218H31.0845C30.7187 30.4218 30.4222 30.7184 30.4222 31.0842Z" fill="var(--fill-0, #FF7F30)"/>
<path d="M43.9923 31.8852V31.0842C43.9923 30.7184 43.6957 30.4219 43.3299 30.4219H42.529C42.1632 30.4219 41.8666 30.7184 41.8666 31.0842V31.8852C41.8666 32.251 42.1632 32.5476 42.529 32.5476H43.3299C43.6957 32.5476 43.9923 32.251 43.9923 31.8852Z" fill="var(--fill-0, #FF7F30)"/>
<path d="M43.9923 26.1551V25.3541C43.9923 24.9883 43.6957 24.6917 43.3299 24.6917H42.529C42.1632 24.6917 41.8666 24.9883 41.8666 25.3541V26.1551C41.8666 26.5209 42.1632 26.8174 42.529 26.8174H43.3299C43.6957 26.8174 43.9923 26.5209 43.9923 26.1551Z" fill="var(--fill-0, #FF7F30)"/>
<path d="M44 20.4327V19.6317C44 19.2659 43.7035 18.9693 43.3377 18.9693H42.5367C42.1709 18.9693 41.8744 19.2659 41.8744 19.6317V20.4327C41.8744 20.7985 42.1709 21.095 42.5367 21.095H43.3377C43.7035 21.095 44 20.7985 44 20.4327Z" fill="var(--fill-0, #FF7F30)"/>
<path d="M43.9923 14.7103V13.9093C43.9923 13.5435 43.6957 13.247 43.3299 13.247H42.529C42.1632 13.247 41.8666 13.5435 41.8666 13.9093V14.7103C41.8666 15.0761 42.1632 15.3727 42.529 15.3727H43.3299C43.6957 15.3727 43.9923 15.0761 43.9923 14.7103Z" fill="var(--fill-0, #FF7F30)"/>
<path d="M38.9467 9.24211V7.92513C38.9467 7.32963 38.4639 6.84688 37.8685 6.84688H36.5515C35.956 6.84688 35.4732 7.32963 35.4732 7.92513V9.24211C35.4732 9.83761 35.956 10.3204 36.5515 10.3204H37.8685C38.4639 10.3204 38.9467 9.83761 38.9467 9.24211Z" fill="var(--fill-0, #FF7F30)"/>
<path d="M38.2694 37.6076V36.8066C38.2694 36.4408 37.9728 36.1443 37.607 36.1443H36.8061C36.4403 36.1443 36.1437 36.4408 36.1437 36.8066V37.6076C36.1437 37.9734 36.4403 38.2699 36.8061 38.2699H37.607C37.9728 38.2699 38.2694 37.9734 38.2694 37.6076Z" fill="var(--fill-0, #FF7F30)"/>
<path d="M38.2694 31.8852V31.0842C38.2694 30.7184 37.9728 30.4219 37.607 30.4219H36.8061C36.4403 30.4219 36.1437 30.7184 36.1437 31.0842V31.8852C36.1437 32.251 36.4403 32.5475 36.8061 32.5475H37.607C37.9728 32.5475 38.2694 32.251 38.2694 31.8852Z" fill="var(--fill-0, #FF7F30)"/>
<path d="M38.2694 26.1628V25.3619C38.2694 24.996 37.9728 24.6995 37.607 24.6995H36.8061C36.4403 24.6995 36.1437 24.996 36.1437 25.3619V26.1628C36.1437 26.5286 36.4403 26.8252 36.8061 26.8252H37.607C37.9728 26.8252 38.2694 26.5286 38.2694 26.1628Z" fill="var(--fill-0, #FF7F30)"/>
<path d="M38.2694 20.4327V19.6317C38.2694 19.2659 37.9728 18.9693 37.607 18.9693H36.8061C36.4403 18.9693 36.1437 19.2659 36.1437 19.6317V20.4327C36.1437 20.7985 36.4403 21.095 36.8061 21.095H37.607C37.9728 21.095 38.2694 20.7985 38.2694 20.4327Z" fill="var(--fill-0, #FF7F30)"/>
<path d="M38.9467 14.9644V13.6474C38.9467 13.0519 38.4639 12.5692 37.8684 12.5692H36.5515C35.956 12.5692 35.4732 13.0519 35.4732 13.6474V14.9644C35.4732 15.5599 35.956 16.0426 36.5515 16.0426H37.8684C38.4639 16.0426 38.9467 15.5599 38.9467 14.9644Z" fill="var(--fill-0, #FF7F30)"/>
</g>
</svg>
