<svg preserveAspectRatio="none" width="100%" height="100%" overflow="visible" style="display: block;" viewBox="0 0 28 28" fill="none" xmlns="http://www.w3.org/2000/svg">
<g id="AUDIO">
<g id="Vector">
<path fill-rule="evenodd" clip-rule="evenodd" d="M14.9346 24.6388C14.1294 24.803 13.2969 24.8889 12.4444 24.8889C5.57636 24.8889 0 19.3125 0 12.4444C0 5.57636 5.57636 0 12.4444 0C19.3125 0 24.8889 5.57636 24.8889 12.4444C24.8889 12.6025 24.8864 12.7605 24.8802 12.9173C23.9008 12.6212 22.7285 12.4444 21.4667 12.4444C19.4108 12.4444 17.594 12.9136 16.464 13.5993C15.4448 14.2165 14.9333 15.0428 14.9333 15.8667V24.5778C14.9333 24.5977 14.9333 24.6188 14.9346 24.6388ZM11.8222 5.28889V11.8384L6.776 14.0809C6.3056 14.29 6.09404 14.8412 6.30311 15.3129C6.51218 15.7833 7.06347 15.9948 7.53511 15.7858L13.1351 13.2969C13.4711 13.1476 13.6889 12.8128 13.6889 12.4444V5.28889C13.6889 4.77369 13.2708 4.35556 12.7556 4.35556C12.2404 4.35556 11.8222 4.77369 11.8222 5.28889Z" fill="var(--fill-0, #FF7F30)"/>
<path fill-rule="evenodd" clip-rule="evenodd" d="M21.4667 12.4444C23.5225 12.4444 25.3394 12.9136 26.4693 13.5993C27.4885 14.2165 28 15.0428 28 15.8667C28 16.6905 27.4885 17.5168 26.4693 18.134C25.3394 18.8197 23.5225 19.2889 21.4667 19.2889C19.4108 19.2889 17.594 18.8197 16.464 18.134C15.4448 17.5168 14.9333 16.6905 14.9333 15.8667C14.9333 15.0428 15.4448 14.2165 16.464 13.5993C17.594 12.9136 19.4108 12.4444 21.4667 12.4444ZM21.4667 14.3111C19.8128 14.3111 18.3406 14.6446 17.4309 15.1959C17.2443 15.3092 17.0837 15.4299 16.963 15.563C16.8747 15.6601 16.8 15.7547 16.8 15.8667C16.8 15.9787 16.8747 16.0732 16.963 16.1703C17.0837 16.3035 17.2443 16.4242 17.4309 16.5374C18.3406 17.0887 19.8128 17.4222 21.4667 17.4222C23.1205 17.4222 24.5927 17.0887 25.5024 16.5374C25.6891 16.4242 25.8496 16.3035 25.9703 16.1703C26.0587 16.0732 26.1333 15.9787 26.1333 15.8667C26.1333 15.7547 26.0587 15.6601 25.9703 15.563C25.8496 15.4299 25.6891 15.3092 25.5024 15.1959C24.5927 14.6446 23.1205 14.3111 21.4667 14.3111Z" fill="var(--fill-0, #FF7F30)"/>
<path fill-rule="evenodd" clip-rule="evenodd" d="M26.1333 20.2222C26.1333 19.707 26.5515 19.2889 27.0667 19.2889C27.5819 19.2889 28 19.707 28 20.2222C28 21.046 27.4885 21.8724 26.4693 22.4896C25.3394 23.1753 23.5225 23.6444 21.4667 23.6444C19.4108 23.6444 17.594 23.1753 16.464 22.4896C15.4448 21.8724 14.9333 21.046 14.9333 20.2222C14.9333 19.707 15.3515 19.2889 15.8667 19.2889C16.3819 19.2889 16.8 19.707 16.8 20.2222C16.8 20.3342 16.8747 20.4288 16.963 20.5259C17.0837 20.659 17.2443 20.7797 17.4309 20.893C18.3406 21.4443 19.8128 21.7778 21.4667 21.7778C23.1205 21.7778 24.5927 21.4443 25.5024 20.893C25.6891 20.7797 25.8496 20.659 25.9703 20.5259C26.0587 20.4288 26.1333 20.3342 26.1333 20.2222Z" fill="var(--fill-0, #FF7F30)"/>
<path fill-rule="evenodd" clip-rule="evenodd" d="M26.1333 15.8667C26.1333 15.3515 26.5515 14.9333 27.0667 14.9333C27.5819 14.9333 28 15.3515 28 15.8667V24.5778C28 25.4016 27.4885 26.2279 26.4693 26.8452C25.3394 27.5308 23.5225 28 21.4667 28C19.4108 28 17.594 27.5308 16.464 26.8452C15.4448 26.2279 14.9333 25.4016 14.9333 24.5778V15.8667C14.9333 15.3515 15.3515 14.9333 15.8667 14.9333C16.3819 14.9333 16.8 15.3515 16.8 15.8667V24.5778C16.8 24.6898 16.8747 24.7844 16.963 24.8814C17.0837 25.0146 17.2443 25.1353 17.4309 25.2485C18.3406 25.7998 19.8128 26.1333 21.4667 26.1333C23.1205 26.1333 24.5927 25.7998 25.5024 25.2485C25.6891 25.1353 25.8496 25.0146 25.9703 24.8814C26.0587 24.7844 26.1333 24.6898 26.1333 24.5778V15.8667Z" fill="var(--fill-0, #FF7F30)"/>
</g>
</g>
</svg>
