<svg preserveAspectRatio="none" width="100%" height="100%" overflow="visible" style="display: block;" viewBox="0 0 22 28" fill="none" xmlns="http://www.w3.org/2000/svg">
<g id="AUDIO">
<path id="Vector" d="M20.1447 19.709C19.6183 19.1843 18.1269 18.1349 16.6355 17.3478C18.6533 13.9371 18.1269 9.47691 15.2319 6.59093C11.8105 3.18022 6.10817 3.09277 2.59905 6.59093C-0.822346 10.0016 -0.910074 15.6861 2.59905 19.1843C5.40634 21.9828 9.88047 22.595 13.3896 20.5836C14.1791 22.0703 15.1442 23.4696 15.7583 24.0817C16.9864 25.3061 18.9165 25.3061 20.1447 24.0817C21.2851 22.8574 21.2851 20.9334 20.1447 19.709ZM13.5651 11.9256L10.5823 14.9865C10.2314 15.4238 9.61729 15.3363 9.26638 14.8991L7.59954 12.6253L5.66953 14.8991C5.31862 15.2489 4.79225 15.3363 4.44134 14.9865C4.09042 14.7242 4.0027 14.112 4.35361 13.7622L6.98545 10.6138C7.42409 10.1765 8.03818 10.264 8.3891 10.7013L10.1437 12.9751L12.4246 10.6138C12.7755 10.264 13.3019 10.264 13.6528 10.6138C13.8282 11.0511 13.8282 11.5758 13.5651 11.9256Z" fill="var(--fill-0, #FF7F30)"/>
</g>
</svg>
