<svg preserveAspectRatio="none" width="100%" height="100%" overflow="visible" style="display: block;" viewBox="0 0 124 124" fill="none" xmlns="http://www.w3.org/2000/svg">
<g id="Group 1597881170">
<ellipse id="Ellipse 1746" cx="62.3751" cy="59.759" rx="47.4337" ry="44.8193" fill="var(--fill-0, white)"/>
<path id="Vector" fill-rule="evenodd" clip-rule="evenodd" d="M62 124C27.8131 124 0 96.1869 0 62C0 27.8131 27.8131 0 62 0C96.1869 0 124 27.8131 124 62C124 96.1869 96.1869 124 62 124ZM73.3981 94.9603C82.2101 91.9043 89.4294 85.4101 93.4393 77.0883H79.2389C78.4426 81.8756 77.2639 86.2902 75.741 90.0976C75.0231 91.892 74.2389 93.5142 73.3981 94.9603ZM30.5609 77.0885C34.5708 85.4098 41.7899 91.9043 50.6019 94.9605C49.7613 93.5142 48.9769 91.892 48.259 90.0979C46.7359 86.2904 45.5574 81.8758 44.7611 77.0885H30.5609ZM50.6019 29.0397C41.7899 32.0957 34.5708 38.5902 30.5609 46.9117H44.7611C45.5574 42.1244 46.7359 37.7098 48.259 33.9024C48.9769 32.108 49.7611 30.4858 50.6019 29.0397ZM62 27.125C59.4575 27.125 56.474 30.635 54.2142 36.2845C52.9674 39.4017 51.979 42.9994 51.2692 46.9117H72.7311C72.0212 42.9997 71.0331 39.4017 69.7861 36.2845C67.526 30.635 64.5425 27.125 62 27.125ZM27.125 62C27.125 64.9937 27.5045 67.9002 28.2173 70.6747H43.949C43.6943 67.8532 43.5591 64.9503 43.5591 62C43.5591 59.0497 43.6943 56.1468 43.949 53.3253H28.2173C27.5045 56.0998 27.125 59.0063 27.125 62ZM50.3852 70.6747H73.6151C73.8858 67.8711 74.0273 64.9646 74.0273 62C74.0273 59.0354 73.8861 56.1289 73.6151 53.3253H50.3852C50.1144 56.1289 49.973 59.0354 49.973 62C49.973 64.9646 50.1142 67.8711 50.3852 70.6747ZM62 96.875C64.5425 96.875 67.526 93.365 69.7858 87.7155C71.0329 84.5983 72.021 81.0006 72.7308 77.0883H51.2689C51.9788 81.0003 52.9671 84.5983 54.2139 87.7155C56.474 93.365 59.4575 96.875 62 96.875ZM96.875 62C96.875 59.0063 96.4955 56.0998 95.7827 53.3253H80.0507C80.3055 56.1468 80.4406 59.0497 80.4406 62C80.4406 64.9503 80.3055 67.8532 80.0507 70.6747H95.7827C96.4955 67.9002 96.875 64.9937 96.875 62ZM93.4391 46.9115C89.4294 38.5899 82.2101 32.0954 73.3978 29.0395C74.2385 30.4858 75.0229 32.108 75.7407 33.9024C77.2639 37.7098 78.4423 42.1242 79.2387 46.9117L93.4391 46.9115ZM103.289 62C103.289 84.7666 84.7666 103.289 62 103.289C39.2332 103.289 20.7111 84.7666 20.7111 62C20.7111 39.2334 39.2332 20.7111 62 20.7111C84.7668 20.7111 103.289 39.2334 103.289 62Z" fill="var(--fill-0, #FF7F30)"/>
</g>
</svg>
