<svg preserveAspectRatio="none" width="100%" height="100%" overflow="visible" style="display: block;" viewBox="0 0 28 28" fill="none" xmlns="http://www.w3.org/2000/svg">
<g id="AUDIO">
<path id="Vector" d="M3 28C2.73478 28 2.48043 27.8946 2.29289 27.7071C2.10536 27.5196 2 27.2652 2 27V2.25812C2.00007 1.99611 2.06877 1.73869 2.19926 1.51149C2.32975 1.28428 2.51748 1.09522 2.74375 0.963125C3.5 0.52375 5.02375 0 8 0C10.3256 0 12.9269 0.919375 15.2219 1.73C17.07 2.38313 18.8156 3 20 3C21.5246 2.99532 23.0331 2.68726 24.4375 2.09375C24.6085 2.02156 24.7947 1.99281 24.9796 2.01007C25.1644 2.02732 25.3421 2.09004 25.4968 2.19264C25.6515 2.29524 25.7784 2.43452 25.8662 2.59808C25.954 2.76163 26 2.94437 26 3.13V16.84C25.9998 17.083 25.9287 17.3207 25.7955 17.5239C25.6623 17.7272 25.4727 17.8872 25.25 17.9844C24.7056 18.2225 22.7181 19 20 19C18.4913 19 16.6012 18.5538 14.6006 18.0806C12.3519 17.5494 10.0269 17 8 17C5.69563 17 4.51625 17.3487 4 17.5694V27C4 27.2652 3.89464 27.5196 3.70711 27.7071C3.51957 27.8946 3.26522 28 3 28Z" fill="var(--fill-0, #FF7F30)"/>
</g>
</svg>
