<svg preserveAspectRatio="none" width="100%" height="100%" overflow="visible" style="display: block;" viewBox="0 0 157 200.42" fill="none" xmlns="http://www.w3.org/2000/svg">
<g id="Vrstva_x0020_1_15_">
<path id="Vector" fill-rule="evenodd" clip-rule="evenodd" d="M26.0916 0H93.0986L149.889 59.1946V174.329C149.889 188.752 138.221 200.42 123.848 200.42H26.0916C11.6686 200.42 4.1216e-09 188.752 4.1216e-09 174.329V26.0916C-0.000253226 11.6686 11.6683 0 26.0916 0Z" fill="var(--fill-0, #7E8B9B)"/>
<g id="Group 1597881165">
<g id="background">
<path id="Vector_2" d="M125 200C142.673 200 157 185.673 157 168C157 150.327 142.673 136 125 136C107.327 136 93 150.327 93 168C93 185.673 107.327 200 125 200Z" fill="var(--fill-0, #77CC00)"/>
</g>
<path id="Vector_3" d="M143.296 159.338L125.972 176.663L124.999 177.635L119.784 182.849L113.597 176.663L106.703 169.768L112.891 163.58L119.784 170.475L124.999 165.26L137.108 153.151L143.296 159.338Z" fill="var(--fill-0, #FFF5F5)"/>
</g>
<g id="Group">
<path id="Vector_4" opacity="0.302" fill-rule="evenodd" clip-rule="evenodd" d="M93.043 0V58.7439H149.884L93.043 0Z" fill="var(--fill-0, black)"/>
</g>
</g>
</svg>
