<svg preserveAspectRatio="none" width="100%" height="100%" overflow="visible" style="display: block;" viewBox="0 0 28 28" fill="none" xmlns="http://www.w3.org/2000/svg">
<g id="Vector">
<path d="M0 8.42012V9.79732C0 10.4226 0.506875 10.9295 1.13214 10.9295H2.50934C3.1346 10.9295 3.64147 10.4226 3.64147 9.79732V8.42012C3.64147 7.79485 3.1346 7.28796 2.50934 7.28796H1.13214C0.506875 7.28796 0 7.79485 0 8.42012Z" fill="var(--fill-0, #FF7F30)"/>
<path d="M0 12.0616V13.4388C0 14.0641 0.506875 14.5709 1.13214 14.5709H2.50933C3.13459 14.5709 3.64147 14.0641 3.64147 13.4388V12.0616C3.64147 11.4363 3.1346 10.9295 2.50934 10.9295H1.13214C0.506875 10.9295 0 11.4363 0 12.0616Z" fill="var(--fill-0, #FF7F30)"/>
<path d="M0 15.7031V17.0803C0 17.7056 0.506875 18.2125 1.13214 18.2125H2.50933C3.13459 18.2125 3.64147 17.7056 3.64147 17.0803V15.7031C3.64147 15.0778 3.13459 14.5709 2.50933 14.5709H1.13214C0.506875 14.5709 0 15.0778 0 15.7031Z" fill="var(--fill-0, #FF7F30)"/>
<path d="M0 19.3446V20.7219C0 21.3471 0.506875 21.854 1.13214 21.854H2.50933C3.13459 21.854 3.64147 21.3471 3.64147 20.7219V19.3446C3.64147 18.7194 3.13459 18.2125 2.50933 18.2125H1.13214C0.506875 18.2125 0 18.7194 0 19.3446Z" fill="var(--fill-0, #FF7F30)"/>
<path d="M3.64182 4.77857V6.15579C3.64182 6.78106 4.1487 7.28794 4.77396 7.28794H6.15115C6.77641 7.28794 7.28329 6.78106 7.28329 6.15579V4.77857C7.28329 4.1533 6.77641 3.64642 6.15115 3.64642H4.77396C4.1487 3.64642 3.64182 4.1533 3.64182 4.77857Z" fill="var(--fill-0, #FF7F30)"/>
<path d="M3.64673 8.4201V9.79732C3.64673 10.4226 4.1536 10.9295 4.77887 10.9295H6.15607C6.78133 10.9295 7.2882 10.4226 7.2882 9.79732V8.4201C7.2882 7.79483 6.78133 7.28795 6.15607 7.28795H4.77887C4.1536 7.28795 3.64673 7.79483 3.64673 8.4201Z" fill="var(--fill-0, #FF7F30)"/>
<path d="M3.64147 12.0616V13.4388C3.64147 14.0641 4.14869 14.571 4.77396 14.571H6.15115C6.77641 14.571 7.28328 14.0641 7.28328 13.4388V12.0616C7.28328 11.4363 6.77641 10.9294 6.15115 10.9294H4.77396C4.14869 10.9294 3.64147 11.4363 3.64147 12.0616Z" fill="var(--fill-0, #FF7F30)"/>
<path d="M3.64147 15.7031V17.0803C3.64147 17.7056 4.14869 18.2125 4.77396 18.2125H6.15115C6.77641 18.2125 7.28329 17.7056 7.28329 17.0803V15.7031C7.28329 15.0778 6.77641 14.571 6.15115 14.571H4.77396C4.14869 14.571 3.64147 15.0778 3.64147 15.7031Z" fill="var(--fill-0, #FF7F30)"/>
<path d="M7.28241 4.77857V6.15579C7.28241 6.78106 7.78929 7.28794 8.41455 7.28794H9.79174C10.417 7.28794 10.9239 6.78106 10.9239 6.15579V4.77857C10.9239 4.1533 10.417 3.64642 9.79174 3.64642H8.41455C7.78929 3.64642 7.28241 4.1533 7.28241 4.77857Z" fill="var(--fill-0, #FF7F30)"/>
<path d="M7.28241 1.13705V2.51426C7.28241 3.13953 7.78929 3.64642 8.41455 3.64642H9.79174C10.417 3.64642 10.9239 3.13953 10.9239 2.51426V1.13705C10.9239 0.511774 10.417 0.00489242 9.79174 0.00489242H8.41454C7.78928 0.00489242 7.28241 0.511774 7.28241 1.13705Z" fill="var(--fill-0, #FF7F30)"/>
<path d="M7.28732 8.4201V9.79732C7.28732 10.4226 7.79419 10.9295 8.41946 10.9295H9.79665C10.4219 10.9295 10.9288 10.4226 10.9288 9.79732V8.4201C10.9288 7.79483 10.4219 7.28795 9.79665 7.28795H8.41946C7.79419 7.28795 7.28732 7.79483 7.28732 8.4201Z" fill="var(--fill-0, #FF7F30)"/>
<path d="M10.9242 4.77364V6.15085C10.9242 6.77612 11.4311 7.28301 12.0564 7.28301H13.4336C14.0588 7.28301 14.5657 6.77612 14.5657 6.15085V4.77364C14.5657 4.14837 14.0588 3.64149 13.4336 3.64149H12.0564C11.4311 3.64149 10.9242 4.14837 10.9242 4.77364Z" fill="var(--fill-0, #FF7F30)"/>
<path d="M10.9291 1.13215V2.50936C10.9291 3.13463 11.436 3.64152 12.0613 3.64152H13.4385C14.0637 3.64152 14.5706 3.13463 14.5706 2.50936V1.13215C14.5706 0.506882 14.0637 0 13.4385 0H12.0613C11.436 0 10.9291 0.506882 10.9291 1.13215Z" fill="var(--fill-0, #FF7F30)"/>
<path d="M10.9291 8.41517V9.79238C10.9291 10.4177 11.436 10.9245 12.0613 10.9245H13.4385C14.0637 10.9245 14.5706 10.4177 14.5706 9.79238V8.41517C14.5706 7.7899 14.0637 7.28302 13.4385 7.28302H12.0613C11.436 7.28302 10.9291 7.7899 10.9291 8.41517Z" fill="var(--fill-0, #FF7F30)"/>
<path d="M14.5706 1.13215V2.50936C14.5706 3.13463 15.0778 3.64152 15.7031 3.64152H17.0803C17.7055 3.64152 18.2124 3.13464 18.2124 2.50937V1.13216C18.2124 0.506889 17.7055 7.57763e-06 17.0803 7.57763e-06H15.7031C15.0778 7.57763e-06 14.5706 0.506882 14.5706 1.13215Z" fill="var(--fill-0, #FF7F30)"/>
<path d="M4.04336 23.1381V24.2164C4.04336 24.7036 4.43832 25.0986 4.92554 25.0986H6.00377C6.49099 25.0986 6.88595 24.7036 6.88595 24.2164V23.1381C6.88595 22.6509 6.49099 22.2559 6.00377 22.2559H4.92554C4.43832 22.2559 4.04336 22.6509 4.04336 23.1381Z" fill="var(--fill-0, #FF7F30)"/>
<path d="M4.04336 19.4966V20.5748C4.04336 21.062 4.43833 21.457 4.92555 21.457H6.00377C6.49099 21.457 6.88596 21.062 6.88596 20.5748V19.4966C6.88596 19.0094 6.49099 18.6144 6.00377 18.6144H4.92555C4.43833 18.6144 4.04336 19.0094 4.04336 19.4966Z" fill="var(--fill-0, #FF7F30)"/>
<path d="M7.99825 23.2606V24.0987C7.99825 24.4777 8.30544 24.7849 8.68439 24.7849H9.52247C9.90142 24.7849 10.2086 24.4777 10.2086 24.0987V23.2606C10.2086 22.8817 9.90142 22.5745 9.52247 22.5745H8.68439C8.30544 22.5745 7.99825 22.8817 7.99825 23.2606Z" fill="var(--fill-0, #FF7F30)"/>
<path d="M8.42922 27.0639V27.5736C8.42922 27.8064 8.61793 27.9951 8.85071 27.9951H9.36042C9.5932 27.9951 9.78191 27.8064 9.78191 27.5736V27.0639C9.78191 26.8311 9.5932 26.6424 9.36042 26.6424H8.85071C8.61793 26.6424 8.42922 26.8311 8.42922 27.0639Z" fill="var(--fill-0, #FF7F30)"/>
<path d="M7.28732 12.0616V13.4388C7.28732 14.0641 7.79419 14.571 8.41946 14.571H9.79665C10.4219 14.571 10.9288 14.0641 10.9288 13.4388V12.0616C10.9288 11.4363 10.4219 10.9295 9.79665 10.9295H8.41946C7.79419 10.9295 7.28732 11.4363 7.28732 12.0616Z" fill="var(--fill-0, #FF7F30)"/>
<path d="M7.68514 15.855V16.9333C7.68514 17.4205 8.08011 17.8155 8.56732 17.8155H9.64556C10.1328 17.8155 10.5277 17.4205 10.5277 16.9333V15.855C10.5277 15.3678 10.1328 14.9728 9.64556 14.9728H8.56732C8.08011 14.9728 7.68514 15.3678 7.68514 15.855Z" fill="var(--fill-0, #FF7F30)"/>
<path d="M7.68514 19.4966V20.5748C7.68514 21.062 8.08011 21.457 8.56733 21.457H9.64556C10.1328 21.457 10.5277 21.062 10.5277 20.5748V19.4966C10.5277 19.0093 10.1328 18.6144 9.64556 18.6144H8.56733C8.08011 18.6144 7.68514 19.0093 7.68514 19.4966Z" fill="var(--fill-0, #FF7F30)"/>
<path d="M11.64 23.2557V24.0938C11.64 24.4727 11.9472 24.7799 12.3261 24.7799H13.1642C13.5431 24.7799 13.8503 24.4727 13.8503 24.0938V23.2557C13.8503 22.8768 13.5431 22.5696 13.1642 22.5696H12.3261C11.9472 22.5696 11.64 22.8768 11.64 23.2557Z" fill="var(--fill-0, #FF7F30)"/>
<path d="M12.071 27.0688V27.5785C12.071 27.8113 12.2597 28 12.4925 28H13.0022C13.235 28 13.4237 27.8113 13.4237 27.5785V27.0688C13.4237 26.836 13.235 26.6473 13.0022 26.6473H12.4925C12.2597 26.6473 12.071 26.836 12.071 27.0688Z" fill="var(--fill-0, #FF7F30)"/>
<path d="M11.3257 12.2135V13.2918C11.3257 13.779 11.7207 14.174 12.2079 14.174H13.2861C13.7734 14.174 14.1683 13.779 14.1683 13.2918V12.2135C14.1683 11.7263 13.7734 11.3313 13.2861 11.3313H12.2079C11.7207 11.3313 11.3257 11.7263 11.3257 12.2135Z" fill="var(--fill-0, #FF7F30)"/>
<path d="M11.3306 15.855V16.9333C11.3306 17.4205 11.7256 17.8155 12.2128 17.8155H13.2911C13.7783 17.8155 14.1732 17.4205 14.1732 16.9333V15.855C14.1732 15.3678 13.7783 14.9728 13.2911 14.9728H12.2128C11.7256 14.9728 11.3306 15.3678 11.3306 15.855Z" fill="var(--fill-0, #FF7F30)"/>
<path d="M11.64 19.6142V20.4523C11.64 20.8313 11.9472 21.1385 12.3261 21.1385H13.1642C13.5431 21.1385 13.8503 20.8313 13.8503 20.4523V19.6142C13.8503 19.2353 13.5431 18.9281 13.1642 18.9281H12.3261C11.9472 18.9281 11.64 19.2353 11.64 19.6142Z" fill="var(--fill-0, #FF7F30)"/>
<path d="M15.7127 23.4224V23.9321C15.7127 24.1649 15.9014 24.3536 16.1342 24.3536H16.6439C16.8767 24.3536 17.0654 24.1649 17.0654 23.9321V23.4224C17.0654 23.1896 16.8767 23.0009 16.6439 23.0009H16.1342C15.9014 23.0009 15.7127 23.1896 15.7127 23.4224Z" fill="var(--fill-0, #FF7F30)"/>
<path d="M15.7127 27.0639V27.5736C15.7127 27.8064 15.9014 27.9951 16.1342 27.9951H16.6439C16.8767 27.9951 17.0654 27.8064 17.0654 27.5736V27.0639C17.0654 26.8311 16.8767 26.6424 16.6439 26.6424H16.1342C15.9014 26.6424 15.7127 26.8311 15.7127 27.0639Z" fill="var(--fill-0, #FF7F30)"/>
<path d="M14.9725 4.92071V5.99895C14.9725 6.48617 15.3674 6.88115 15.8546 6.88115H16.9329C17.4201 6.88115 17.8151 6.48617 17.8151 5.99895V4.92071C17.8151 4.43348 17.4201 4.03851 16.9329 4.03851H15.8546C15.3674 4.03851 14.9725 4.43348 14.9725 4.92071Z" fill="var(--fill-0, #FF7F30)"/>
<path d="M14.9675 8.56713V9.64537C14.9675 10.1326 15.3625 10.5276 15.8497 10.5276H16.928C17.4152 10.5276 17.8102 10.1326 17.8102 9.64537V8.56713C17.8102 8.0799 17.4152 7.68493 16.928 7.68493H15.8497C15.3625 7.68493 14.9675 8.0799 14.9675 8.56713Z" fill="var(--fill-0, #FF7F30)"/>
<path d="M14.9675 12.2087V13.2869C14.9675 13.7741 15.3625 14.1691 15.8497 14.1691H16.928C17.4152 14.1691 17.8102 13.7741 17.8102 13.2869V12.2087C17.8102 11.7214 17.4152 11.3265 16.928 11.3265H15.8497C15.3625 11.3265 14.9675 11.7214 14.9675 12.2087Z" fill="var(--fill-0, #FF7F30)"/>
<path d="M15.2868 15.9727V16.8107C15.2868 17.1897 15.594 17.4969 15.9729 17.4969H16.811C17.19 17.4969 17.4972 17.1897 17.4972 16.8107V15.9727C17.4972 15.5937 17.19 15.2865 16.811 15.2865H15.9729C15.594 15.2865 15.2868 15.5937 15.2868 15.9727Z" fill="var(--fill-0, #FF7F30)"/>
<path d="M15.2868 19.6142V20.4523C15.2868 20.8312 15.594 21.1384 15.9729 21.1384H16.811C17.19 21.1384 17.4972 20.8312 17.4972 20.4523V19.6142C17.4972 19.2352 17.19 18.928 16.811 18.928H15.9729C15.594 18.928 15.2868 19.2352 15.2868 19.6142Z" fill="var(--fill-0, #FF7F30)"/>
<path d="M19.3596 23.4224V23.9321C19.3596 24.1649 19.5483 24.3536 19.7811 24.3536H20.2908C20.5236 24.3536 20.7123 24.1649 20.7123 23.9321V23.4224C20.7123 23.1896 20.5236 23.0009 20.2908 23.0009H19.7811C19.5483 23.0009 19.3596 23.1896 19.3596 23.4224Z" fill="var(--fill-0, #FF7F30)"/>
<path d="M19.3547 27.0639V27.5736C19.3547 27.8064 19.5434 27.9951 19.7762 27.9951H20.2859C20.5187 27.9951 20.7074 27.8064 20.7074 27.5736V27.0639C20.7074 26.8311 20.5187 26.6424 20.2859 26.6424H19.7762C19.5434 26.6424 19.3547 26.8311 19.3547 27.0639Z" fill="var(--fill-0, #FF7F30)"/>
<path d="M18.6143 4.92564V6.00388C18.6143 6.4911 19.0092 6.88608 19.4965 6.88608H20.5747C21.0619 6.88608 21.4569 6.4911 21.4569 6.00388V4.92564C21.4569 4.43841 21.0619 4.04344 20.5747 4.04344H19.4965C19.0092 4.04344 18.6143 4.43841 18.6143 4.92564Z" fill="var(--fill-0, #FF7F30)"/>
<path d="M18.6143 1.27914V2.35738C18.6143 2.84461 19.0092 3.23958 19.4965 3.23958H20.5747C21.0619 3.23958 21.4569 2.84461 21.4569 2.35738V1.27914C21.4569 0.791916 21.0619 0.39694 20.5747 0.39694H19.4965C19.0092 0.39694 18.6143 0.791916 18.6143 1.27914Z" fill="var(--fill-0, #FF7F30)"/>
<path d="M18.9274 8.68965V9.52774C18.9274 9.90669 19.2346 10.2139 19.6135 10.2139H20.4516C20.8306 10.2139 21.1378 9.90669 21.1378 9.52774V8.68965C21.1378 8.31069 20.8306 8.00349 20.4516 8.00349H19.6135C19.2346 8.00349 18.9274 8.31069 18.9274 8.68965Z" fill="var(--fill-0, #FF7F30)"/>
<path d="M18.9274 12.3312V13.1693C18.9274 13.5482 19.2346 13.8554 19.6135 13.8554H20.4516C20.8306 13.8554 21.1378 13.5482 21.1378 13.1693V12.3312C21.1378 11.9522 20.8306 11.645 20.4516 11.645H19.6135C19.2346 11.645 18.9274 11.9522 18.9274 12.3312Z" fill="var(--fill-0, #FF7F30)"/>
<path d="M18.9274 15.9727V16.8108C18.9274 17.1897 19.2346 17.4969 19.6135 17.4969H20.4516C20.8306 17.4969 21.1377 17.1897 21.1377 16.8108V15.9727C21.1377 15.5937 20.8306 15.2865 20.4516 15.2865H19.6135C19.2346 15.2865 18.9274 15.5937 18.9274 15.9727Z" fill="var(--fill-0, #FF7F30)"/>
<path d="M19.3596 19.7808V20.2906C19.3596 20.5233 19.5483 20.7121 19.7811 20.7121H20.2908C20.5236 20.7121 20.7123 20.5233 20.7123 20.2906V19.7808C20.7123 19.5481 20.5236 19.3594 20.2908 19.3594H19.7811C19.5483 19.3594 19.3596 19.5481 19.3596 19.7808Z" fill="var(--fill-0, #FF7F30)"/>
<path d="M27.9951 20.2906V19.7809C27.9951 19.5481 27.8064 19.3594 27.5736 19.3594H27.0639C26.8311 19.3594 26.6424 19.5481 26.6424 19.7809V20.2906C26.6424 20.5234 26.8311 20.7121 27.0639 20.7121H27.5736C27.8064 20.7121 27.9951 20.5234 27.9951 20.2906Z" fill="var(--fill-0, #FF7F30)"/>
<path d="M27.9951 16.6441V16.1344C27.9951 15.9016 27.8064 15.7129 27.5736 15.7129H27.0639C26.8311 15.7129 26.6424 15.9016 26.6424 16.1344V16.6441C26.6424 16.8769 26.8311 17.0656 27.0639 17.0656H27.5736C27.8064 17.0656 27.9951 16.8769 27.9951 16.6441Z" fill="var(--fill-0, #FF7F30)"/>
<path d="M28 13.0026V12.4929C28 12.2601 27.8113 12.0714 27.5785 12.0714H27.0688C26.836 12.0714 26.6473 12.2601 26.6473 12.4929V13.0026C26.6473 13.2354 26.836 13.4241 27.0688 13.4241H27.5785C27.8113 13.4241 28 13.2354 28 13.0026Z" fill="var(--fill-0, #FF7F30)"/>
<path d="M27.9951 9.36111V8.8514C27.9951 8.61861 27.8064 8.4299 27.5736 8.4299H27.0639C26.8311 8.4299 26.6424 8.61861 26.6424 8.8514V9.36111C26.6424 9.5939 26.8311 9.78261 27.0639 9.78261H27.5736C27.8064 9.78261 27.9951 9.5939 27.9951 9.36111Z" fill="var(--fill-0, #FF7F30)"/>
<path d="M24.7842 5.88135V5.04326C24.7842 4.66431 24.4771 4.3571 24.0981 4.3571H23.26C22.8811 4.3571 22.5739 4.66431 22.5739 5.04326V5.88135C22.5739 6.2603 22.8811 6.5675 23.26 6.5675H24.0981C24.4771 6.5675 24.7842 6.2603 24.7842 5.88135Z" fill="var(--fill-0, #FF7F30)"/>
<path d="M24.3532 23.9321V23.4224C24.3532 23.1896 24.1645 23.0009 23.9318 23.0009H23.422C23.1893 23.0009 23.0006 23.1896 23.0006 23.4224V23.9321C23.0006 24.1649 23.1893 24.3536 23.422 24.3536H23.9318C24.1645 24.3536 24.3532 24.1649 24.3532 23.9321Z" fill="var(--fill-0, #FF7F30)"/>
<path d="M24.3532 20.2906V19.7809C24.3532 19.5481 24.1645 19.3594 23.9318 19.3594H23.4221C23.1893 19.3594 23.0006 19.5481 23.0006 19.7809V20.2906C23.0006 20.5234 23.1893 20.7121 23.4221 20.7121H23.9318C24.1645 20.7121 24.3532 20.5234 24.3532 20.2906Z" fill="var(--fill-0, #FF7F30)"/>
<path d="M24.3532 16.6491V16.1394C24.3532 15.9066 24.1645 15.7179 23.9318 15.7179H23.422C23.1893 15.7179 23.0006 15.9066 23.0006 16.1394V16.6491C23.0006 16.8819 23.1893 17.0706 23.422 17.0706H23.9318C24.1645 17.0706 24.3532 16.8819 24.3532 16.6491Z" fill="var(--fill-0, #FF7F30)"/>
<path d="M24.3532 13.0026V12.4929C24.3532 12.2601 24.1645 12.0714 23.9318 12.0714H23.4221C23.1893 12.0714 23.0006 12.2601 23.0006 12.4929V13.0026C23.0006 13.2354 23.1893 13.4241 23.4221 13.4241H23.9318C24.1645 13.4241 24.3532 13.2354 24.3532 13.0026Z" fill="var(--fill-0, #FF7F30)"/>
<path d="M24.7842 9.5228V8.68471C24.7842 8.30576 24.477 7.99855 24.0981 7.99855H23.26C22.8811 7.99855 22.5739 8.30576 22.5739 8.68471V9.5228C22.5739 9.90175 22.8811 10.209 23.26 10.209H24.0981C24.477 10.209 24.7842 9.90175 24.7842 9.5228Z" fill="var(--fill-0, #FF7F30)"/>
</g>
</svg>
