<svg preserveAspectRatio="none" width="100%" height="100%" overflow="visible" style="display: block;" viewBox="0 0 256 256" fill="none" xmlns="http://www.w3.org/2000/svg">
<g id="Dialog 7">
<rect width="256" height="256" rx="128" fill="var(--fill-0, #FF7F30)"/>
<g id="Vector">
<path d="M55 99.3035V106.386C55 109.602 57.6358 112.209 60.8872 112.209H68.0488C71.3002 112.209 73.936 109.602 73.936 106.386V99.3035C73.936 96.0878 71.3002 93.481 68.0488 93.481H60.8872C57.6358 93.481 55 96.0878 55 99.3035Z" fill="var(--fill-0, white)"/>
<path d="M55 118.031V125.114C55 128.329 57.6358 130.936 60.8872 130.936H68.0487C71.3002 130.936 73.9359 128.329 73.9359 125.114V118.031C73.9359 114.815 71.3002 112.209 68.0488 112.209H60.8872C57.6358 112.209 55 114.815 55 118.031Z" fill="var(--fill-0, white)"/>
<path d="M55 136.759V143.842C55 147.057 57.6358 149.664 60.8872 149.664H68.0487C71.3002 149.664 73.936 147.057 73.936 143.842V136.759C73.936 133.543 71.3002 130.936 68.0487 130.936H60.8872C57.6358 130.936 55 133.543 55 136.759Z" fill="var(--fill-0, white)"/>
<path d="M55 155.487V162.57C55 165.785 57.6358 168.392 60.8872 168.392H68.0487C71.3002 168.392 73.9359 165.785 73.9359 162.57V155.487C73.9359 152.271 71.3002 149.664 68.0487 149.664H60.8872C57.6358 149.664 55 152.271 55 155.487Z" fill="var(--fill-0, white)"/>
<path d="M73.9378 80.5755V87.6583C73.9378 90.874 76.5736 93.4808 79.825 93.4808H86.9865C90.2379 93.4808 92.8737 90.874 92.8737 87.6583V80.5755C92.8737 77.3598 90.2379 74.753 86.9865 74.753H79.825C76.5736 74.753 73.9378 77.3598 73.9378 80.5755Z" fill="var(--fill-0, white)"/>
<path d="M73.9633 99.3034V106.386C73.9633 109.602 76.5991 112.209 79.8505 112.209H87.0121C90.2635 112.209 92.8993 109.602 92.8993 106.386V99.3034C92.8993 96.0877 90.2635 93.4809 87.0121 93.4809H79.8505C76.5991 93.4809 73.9633 96.0877 73.9633 99.3034Z" fill="var(--fill-0, white)"/>
<path d="M73.9359 118.031V125.114C73.9359 128.329 76.5736 130.936 79.825 130.936H86.9865C90.2379 130.936 92.8737 128.33 92.8737 125.114V118.031C92.8737 114.815 90.2379 112.209 86.9865 112.209H79.825C76.5736 112.209 73.9359 114.815 73.9359 118.031Z" fill="var(--fill-0, white)"/>
<path d="M73.936 136.759V143.842C73.936 147.057 76.5736 149.664 79.825 149.664H86.9865C90.2379 149.664 92.8738 147.057 92.8738 143.842V136.759C92.8738 133.543 90.2379 130.936 86.9865 130.936H79.825C76.5736 130.936 73.936 133.543 73.936 136.759Z" fill="var(--fill-0, white)"/>
<path d="M92.8692 80.5755V87.6583C92.8692 90.874 95.505 93.4808 98.7564 93.4808H105.918C109.169 93.4808 111.805 90.874 111.805 87.6583V80.5755C111.805 77.3598 109.169 74.753 105.918 74.753H98.7564C95.505 74.753 92.8692 77.3598 92.8692 80.5755Z" fill="var(--fill-0, white)"/>
<path d="M92.8692 61.8477V68.9305C92.8692 72.1462 95.505 74.753 98.7564 74.753H105.918C109.169 74.753 111.805 72.1462 111.805 68.9305V61.8477C111.805 58.632 109.169 56.0252 105.918 56.0252H98.7564C95.5049 56.0252 92.8692 58.632 92.8692 61.8477Z" fill="var(--fill-0, white)"/>
<path d="M92.8947 99.3034V106.386C92.8947 109.602 95.5305 112.209 98.7819 112.209H105.943C109.195 112.209 111.831 109.602 111.831 106.386V99.3034C111.831 96.0877 109.195 93.4809 105.943 93.4809H98.7819C95.5305 93.4809 92.8947 96.0877 92.8947 99.3034Z" fill="var(--fill-0, white)"/>
<path d="M111.807 80.5502V87.633C111.807 90.8486 114.443 93.4555 117.694 93.4555H124.856C128.107 93.4555 130.743 90.8486 130.743 87.633V80.5502C130.743 77.3345 128.107 74.7277 124.856 74.7277H117.694C114.443 74.7277 111.807 77.3345 111.807 80.5502Z" fill="var(--fill-0, white)"/>
<path d="M111.832 61.8225V68.9053C111.832 72.121 114.468 74.7278 117.72 74.7278H124.881C128.133 74.7278 130.768 72.121 130.768 68.9053V61.8225C130.768 58.6068 128.133 56 124.881 56H117.72C114.468 56 111.832 58.6068 111.832 61.8225Z" fill="var(--fill-0, white)"/>
<path d="M111.832 99.278V106.361C111.832 109.576 114.468 112.183 117.72 112.183H124.881C128.133 112.183 130.768 109.576 130.768 106.361V99.278C130.768 96.0623 128.133 93.4555 124.881 93.4555H117.72C114.468 93.4555 111.832 96.0623 111.832 99.278Z" fill="var(--fill-0, white)"/>
<path d="M130.768 61.8225V68.9053C130.768 72.121 133.406 74.7278 136.657 74.7278H143.819C147.07 74.7278 149.706 72.121 149.706 68.9053V61.8225C149.706 58.6069 147.07 56 143.819 56H136.657C133.406 56 130.768 58.6068 130.768 61.8225Z" fill="var(--fill-0, white)"/>
<path d="M76.0258 174.996V180.541C76.0258 183.047 78.0797 185.078 80.6132 185.078H86.2201C88.7537 185.078 90.8076 183.047 90.8076 180.541V174.996C90.8076 172.49 88.7537 170.459 86.2201 170.459H80.6132C78.0797 170.459 76.0258 172.49 76.0258 174.996Z" fill="var(--fill-0, white)"/>
<path d="M76.0258 156.268V161.813C76.0258 164.319 78.0797 166.35 80.6133 166.35H86.2201C88.7537 166.35 90.8076 164.319 90.8076 161.813V156.268C90.8076 153.762 88.7537 151.731 86.2201 151.731H80.6133C78.0797 151.731 76.0258 153.762 76.0258 156.268Z" fill="var(--fill-0, white)"/>
<path d="M96.5916 175.626V179.936C96.5916 181.885 98.189 183.465 100.16 183.465H104.518C106.488 183.465 108.086 181.885 108.086 179.936V175.626C108.086 173.677 106.488 172.097 104.518 172.097H100.16C98.189 172.097 96.5916 173.677 96.5916 175.626Z" fill="var(--fill-0, white)"/>
<path d="M98.8327 195.186V197.807C98.8327 199.004 99.814 199.975 101.024 199.975H103.675C104.885 199.975 105.867 199.004 105.867 197.807V195.186C105.867 193.989 104.885 193.018 103.675 193.018H101.024C99.814 193.018 98.8327 193.989 98.8327 195.186Z" fill="var(--fill-0, white)"/>
<path d="M92.8947 118.031V125.114C92.8947 128.33 95.5305 130.936 98.7819 130.936H105.943C109.195 130.936 111.831 128.33 111.831 125.114V118.031C111.831 114.815 109.195 112.209 105.943 112.209H98.7819C95.5305 112.209 92.8947 114.815 92.8947 118.031Z" fill="var(--fill-0, white)"/>
<path d="M94.9634 137.54V143.085C94.9634 145.591 97.0173 147.622 99.5508 147.622H105.158C107.691 147.622 109.745 145.591 109.745 143.085V137.54C109.745 135.034 107.691 133.003 105.158 133.003H99.5508C97.0173 133.003 94.9634 135.034 94.9634 137.54Z" fill="var(--fill-0, white)"/>
<path d="M94.9634 156.268V161.813C94.9634 164.319 97.0173 166.35 99.5509 166.35H105.158C107.691 166.35 109.745 164.319 109.745 161.813V156.268C109.745 153.762 107.691 151.731 105.158 151.731H99.5509C97.0173 151.731 94.9634 153.762 94.9634 156.268Z" fill="var(--fill-0, white)"/>
<path d="M115.529 175.601V179.911C115.529 181.86 117.126 183.44 119.097 183.44H123.455C125.425 183.44 127.023 181.86 127.023 179.911V175.601C127.023 173.652 125.425 172.072 123.455 172.072H119.097C117.126 172.072 115.529 173.652 115.529 175.601Z" fill="var(--fill-0, white)"/>
<path d="M117.77 195.211V197.832C117.77 199.029 118.752 200 119.962 200H122.613C123.823 200 124.805 199.029 124.805 197.832V195.211C124.805 194.014 123.823 193.043 122.613 193.043H119.962C118.752 193.043 117.77 194.014 117.77 195.211Z" fill="var(--fill-0, white)"/>
<path d="M113.895 118.813V124.358C113.895 126.864 115.949 128.895 118.482 128.895H124.089C126.623 128.895 128.677 126.864 128.677 124.358V118.813C128.677 116.307 126.623 114.276 124.089 114.276H118.482C115.949 114.276 113.895 116.307 113.895 118.813Z" fill="var(--fill-0, white)"/>
<path d="M113.92 137.54V143.085C113.92 145.591 115.974 147.622 118.508 147.622H124.115C126.648 147.622 128.702 145.591 128.702 143.085V137.54C128.702 135.034 126.648 133.003 124.115 133.003H118.508C115.974 133.003 113.92 135.034 113.92 137.54Z" fill="var(--fill-0, white)"/>
<path d="M115.529 156.873V161.183C115.529 163.132 117.126 164.712 119.097 164.712H123.455C125.425 164.712 127.023 163.132 127.023 161.183V156.873C127.023 154.924 125.425 153.344 123.455 153.344H119.097C117.126 153.344 115.529 154.924 115.529 156.873Z" fill="var(--fill-0, white)"/>
<path d="M136.708 176.458V179.079C136.708 180.277 137.689 181.247 138.899 181.247H141.55C142.76 181.247 143.742 180.277 143.742 179.079V176.458C143.742 175.261 142.76 174.29 141.55 174.29H138.899C137.689 174.29 136.708 175.261 136.708 176.458Z" fill="var(--fill-0, white)"/>
<path d="M136.708 195.186V197.807C136.708 199.004 137.689 199.975 138.899 199.975H141.55C142.76 199.975 143.742 199.004 143.742 197.807V195.186C143.742 193.988 142.76 193.018 141.55 193.018H138.899C137.689 193.018 136.708 193.988 136.708 195.186Z" fill="var(--fill-0, white)"/>
<path d="M132.858 81.3065V86.8517C132.858 89.3575 134.912 91.3888 137.446 91.3888H143.052C145.586 91.3888 147.64 89.3575 147.64 86.8517V81.3065C147.64 78.8008 145.586 76.7695 143.052 76.7695H137.446C134.912 76.7695 132.858 78.8008 132.858 81.3065Z" fill="var(--fill-0, white)"/>
<path d="M132.833 100.06V105.605C132.833 108.11 134.886 110.142 137.42 110.142H143.027C145.56 110.142 147.614 108.11 147.614 105.605V100.06C147.614 97.5538 145.56 95.5225 143.027 95.5225H137.42C134.886 95.5225 132.833 97.5538 132.833 100.06Z" fill="var(--fill-0, white)"/>
<path d="M132.833 118.787V124.333C132.833 126.838 134.886 128.87 137.42 128.87H143.027C145.56 128.87 147.614 126.838 147.614 124.333V118.787C147.614 116.282 145.56 114.25 143.027 114.25H137.42C134.886 114.25 132.833 116.282 132.833 118.787Z" fill="var(--fill-0, white)"/>
<path d="M134.493 138.145V142.455C134.493 144.404 136.09 145.984 138.061 145.984H142.419C144.389 145.984 145.987 144.404 145.987 142.455V138.145C145.987 136.196 144.389 134.616 142.419 134.616H138.061C136.09 134.616 134.493 136.196 134.493 138.145Z" fill="var(--fill-0, white)"/>
<path d="M134.493 156.873V161.183C134.493 163.132 136.09 164.712 138.061 164.712H142.419C144.389 164.712 145.987 163.132 145.987 161.183V156.873C145.987 154.924 144.389 153.344 142.419 153.344H138.061C136.09 153.344 134.493 154.924 134.493 156.873Z" fill="var(--fill-0, white)"/>
<path d="M155.672 176.458V179.079C155.672 180.276 156.653 181.247 157.863 181.247H160.514C161.724 181.247 162.706 180.276 162.706 179.079V176.458C162.706 175.261 161.724 174.29 160.514 174.29H157.863C156.653 174.29 155.672 175.261 155.672 176.458Z" fill="var(--fill-0, white)"/>
<path d="M155.646 195.186V197.807C155.646 199.004 156.627 199.975 157.838 199.975H160.488C161.699 199.975 162.68 199.004 162.68 197.807V195.186C162.68 193.989 161.699 193.018 160.488 193.018H157.838C156.627 193.018 155.646 193.989 155.646 195.186Z" fill="var(--fill-0, white)"/>
<path d="M151.796 81.3318V86.8771C151.796 89.3828 153.85 91.4141 156.383 91.4141H161.99C164.524 91.4141 166.578 89.3828 166.578 86.8771V81.3318C166.578 78.8261 164.524 76.7948 161.99 76.7948H156.383C153.85 76.7948 151.796 78.8261 151.796 81.3318Z" fill="var(--fill-0, white)"/>
<path d="M151.796 62.5784V68.1237C151.796 70.6294 153.85 72.6607 156.383 72.6607H161.99C164.524 72.6607 166.578 70.6294 166.578 68.1237V62.5784C166.578 60.0727 164.524 58.0414 161.99 58.0414H156.383C153.85 58.0414 151.796 60.0727 151.796 62.5784Z" fill="var(--fill-0, white)"/>
<path d="M153.424 100.69V105C153.424 106.949 155.022 108.529 156.992 108.529H161.35C163.321 108.529 164.918 106.949 164.918 105V100.69C164.918 98.7407 163.321 97.1608 161.35 97.1608H156.992C155.022 97.1608 153.424 98.7407 153.424 100.69Z" fill="var(--fill-0, white)"/>
<path d="M153.424 119.417V123.728C153.424 125.677 155.022 127.256 156.992 127.256H161.35C163.321 127.256 164.918 125.677 164.918 123.728V119.417C164.918 117.469 163.321 115.889 161.35 115.889H156.992C155.022 115.889 153.424 117.469 153.424 119.417Z" fill="var(--fill-0, white)"/>
<path d="M153.424 138.145V142.455C153.424 144.404 155.021 145.984 156.992 145.984H161.35C163.321 145.984 164.918 144.404 164.918 142.455V138.145C164.918 136.196 163.321 134.616 161.35 134.616H156.992C155.021 134.616 153.424 136.196 153.424 138.145Z" fill="var(--fill-0, white)"/>
<path d="M155.672 157.73V160.351C155.672 161.549 156.653 162.519 157.863 162.519H160.514C161.724 162.519 162.706 161.549 162.706 160.351V157.73C162.706 156.533 161.724 155.562 160.514 155.562H157.863C156.653 155.562 155.672 156.533 155.672 157.73Z" fill="var(--fill-0, white)"/>
<path d="M200.577 160.352V157.73C200.577 156.533 199.596 155.563 198.385 155.563H195.735C194.524 155.563 193.543 156.533 193.543 157.73V160.352C193.543 161.549 194.524 162.519 195.735 162.519H198.385C199.596 162.519 200.577 161.549 200.577 160.352Z" fill="var(--fill-0, white)"/>
<path d="M200.577 141.598V138.977C200.577 137.78 199.596 136.809 198.385 136.809H195.735C194.524 136.809 193.543 137.78 193.543 138.977V141.598C193.543 142.796 194.524 143.766 195.735 143.766H198.385C199.596 143.766 200.577 142.796 200.577 141.598Z" fill="var(--fill-0, white)"/>
<path d="M200.602 122.871V120.249C200.602 119.052 199.621 118.081 198.411 118.081H195.76C194.55 118.081 193.568 119.052 193.568 120.249V122.871C193.568 124.068 194.55 125.038 195.76 125.038H198.411C199.621 125.038 200.602 124.068 200.602 122.871Z" fill="var(--fill-0, white)"/>
<path d="M200.577 104.143V101.521C200.577 100.324 199.596 99.3538 198.385 99.3538H195.735C194.524 99.3538 193.543 100.324 193.543 101.521V104.143C193.543 105.34 194.524 106.311 195.735 106.311H198.385C199.596 106.311 200.577 105.34 200.577 104.143Z" fill="var(--fill-0, white)"/>
<path d="M183.88 86.2469V81.9368C183.88 79.9879 182.283 78.408 180.312 78.408H175.954C173.984 78.408 172.386 79.9879 172.386 81.9368V86.2469C172.386 88.1958 173.984 89.7757 175.954 89.7757H180.312C182.283 89.7757 183.88 88.1958 183.88 86.2469Z" fill="var(--fill-0, white)"/>
<path d="M181.639 179.079V176.458C181.639 175.261 180.658 174.29 179.447 174.29H176.797C175.586 174.29 174.605 175.261 174.605 176.458V179.079C174.605 180.277 175.586 181.247 176.797 181.247H179.447C180.658 181.247 181.639 180.277 181.639 179.079Z" fill="var(--fill-0, white)"/>
<path d="M181.639 160.351V157.73C181.639 156.533 180.658 155.562 179.447 155.562H176.797C175.586 155.562 174.605 156.533 174.605 157.73V160.351C174.605 161.549 175.586 162.519 176.797 162.519H179.447C180.658 162.519 181.639 161.549 181.639 160.351Z" fill="var(--fill-0, white)"/>
<path d="M181.639 141.624V139.002C181.639 137.805 180.658 136.835 179.447 136.835H176.797C175.586 136.835 174.605 137.805 174.605 139.002V141.624C174.605 142.821 175.586 143.791 176.797 143.791H179.447C180.658 143.791 181.639 142.821 181.639 141.624Z" fill="var(--fill-0, white)"/>
<path d="M181.639 122.871V120.249C181.639 119.052 180.658 118.081 179.447 118.081H176.797C175.586 118.081 174.605 119.052 174.605 120.249V122.871C174.605 124.068 175.586 125.038 176.797 125.038H179.447C180.658 125.038 181.639 124.068 181.639 122.871Z" fill="var(--fill-0, white)"/>
<path d="M183.88 104.974V100.664C183.88 98.7153 182.283 97.1354 180.312 97.1354H175.954C173.984 97.1354 172.386 98.7153 172.386 100.664V104.974C172.386 106.923 173.984 108.503 175.954 108.503H180.312C182.283 108.503 183.88 106.923 183.88 104.974Z" fill="var(--fill-0, white)"/>
</g>
</g>
</svg>
