<svg preserveAspectRatio="none" width="100%" height="100%" overflow="visible" style="display: block;" viewBox="0 0 64.1426 63.6029" fill="none" xmlns="http://www.w3.org/2000/svg">
<g id="Loading">
<path id="Vector" d="M14.0036 31.3074L3.03682 32.969C1.35963 33.2231 0.206005 34.7888 0.460125 36.466L0.537187 36.9746C0.791307 38.6518 2.35695 39.8054 4.03414 39.5513L15.0009 37.8897C16.6781 37.6355 17.8317 36.0699 17.5776 34.3927L17.5005 33.8841C17.2464 32.2069 15.6807 31.0533 14.0036 31.3074Z" fill="var(--fill-0, #E7E7E7)"/>
<path id="Vector_2" d="M16.3367 41.1575L7.98428 48.4244C6.70691 49.5357 6.57232 51.4722 7.68367 52.7495L8.02069 53.1369C9.13204 54.4143 11.0685 54.5489 12.3459 53.4375L20.6983 46.1707C21.9757 45.0593 22.1103 43.1229 20.9989 41.8455L20.6619 41.4581C19.5505 40.1808 17.6141 40.0462 16.3367 41.1575Z" fill="var(--fill-0, #C8C8C8)" fill-opacity="0.15"/>
<path id="Vector_3" d="M23.6836 48.0643L20.4933 58.6766C20.0054 60.2995 20.9255 62.0108 22.5485 62.4987L23.0407 62.6466C24.6637 63.1345 26.3749 62.2144 26.8628 60.5914L30.0531 49.9792C30.541 48.3562 29.6209 46.645 27.9979 46.1571L27.5057 46.0091C25.8827 45.5212 24.1715 46.4413 23.6836 48.0643Z" fill="var(--fill-0, #C8C8C8)" fill-opacity="0.25"/>
<path id="Vector_4" d="M36.5226 46.0819L36.0305 46.2298C34.4075 46.7178 33.4873 48.429 33.9752 50.0519L37.1656 60.6642C37.6535 62.2872 39.3647 63.2073 40.9877 62.7194L41.4798 62.5715C43.1028 62.0835 44.023 60.3723 43.5351 58.7494L40.3447 48.1371C39.8568 46.5141 38.1456 45.594 36.5226 46.0819Z" fill="var(--fill-0, #C8C8C8)" fill-opacity="0.35"/>
<path id="Vector_5" d="M43.2848 41.4749L42.9478 41.8623C41.8365 43.1397 41.9711 45.0761 43.2484 46.1875L51.6009 53.4543C52.8783 54.5657 54.8147 54.4311 55.9261 53.1537L56.2631 52.7663C57.3744 51.489 57.2398 49.5525 55.9625 48.4412L47.61 41.1743C46.3326 40.063 44.3962 40.1976 43.2848 41.4749Z" fill="var(--fill-0, #C8C8C8)" fill-opacity="0.45"/>
<path id="Vector_6" d="M46.6685 33.9417L46.593 34.4498C46.344 36.1253 47.5004 37.6855 49.1758 37.9345L60.1315 39.5629C61.807 39.8119 63.3671 38.6556 63.6162 36.9801L63.6917 36.472C63.9407 34.7965 62.7844 33.2363 61.1089 32.9873L50.1532 31.3589C48.4777 31.1099 46.9176 32.2662 46.6685 33.9417Z" fill="var(--fill-0, #C8C8C8)" fill-opacity="0.55"/>
<path id="Vector_7" d="M56.849 16.7859L46.8018 21.4606C45.2652 22.1756 44.5991 24.0008 45.314 25.5374L45.5308 26.0033C46.2457 27.5399 48.0709 28.206 49.6075 27.4911L59.6548 22.8164C61.1914 22.1014 61.8575 20.2762 61.1426 18.7396L60.9258 18.2737C60.2108 16.7371 58.3856 16.071 56.849 16.7859Z" fill="var(--fill-0, #C8C8C8)" fill-opacity="0.65"/>
<path id="Vector_8" d="M44.9517 5.92844L38.9145 15.2114C37.9912 16.6311 38.3936 18.5304 39.8132 19.4537L40.2438 19.7337C41.6634 20.657 43.5628 20.2546 44.4861 18.835L50.5234 9.55201C51.4467 8.13233 51.0443 6.23296 49.6246 5.30966L49.1941 5.02966C47.7744 4.10636 45.875 4.50876 44.9517 5.92844Z" fill="var(--fill-0, #C8C8C8)" fill-opacity="0.75"/>
<path id="Vector_9" d="M32.2639 0H31.7501C30.056 0 28.6826 1.37337 28.6826 3.0675V14.145C28.6826 15.8391 30.056 17.2125 31.7501 17.2125H32.2639C33.958 17.2125 35.3314 15.8391 35.3314 14.145V3.0675C35.3314 1.37337 33.958 0 32.2639 0Z" fill="var(--fill-0, #C8C8C8)"/>
</g>
</svg>
