<svg preserveAspectRatio="none" width="100%" height="100%" overflow="visible" style="display: block;" viewBox="0 0 80 80" fill="none" xmlns="http://www.w3.org/2000/svg">
<g id="Frame 2131328722">
<rect width="80" height="80" rx="40" fill="var(--fill-0, #FF7F30)"/>
<path id="Vector" d="M55.2437 24.7554C53.1384 22.6508 50.3667 21.344 47.4035 21.0589C44.4404 20.7739 41.4704 21.5284 39.0025 23.1932C36.5347 24.8579 34.7227 27.3292 33.8772 30.1835C33.0316 33.0378 33.2052 36.0973 34.368 38.8377C29.5197 43.08 24.9494 47.6299 20.6853 52.4591C20.1902 53.0174 19.9518 53.7921 20.0081 54.582C20.0939 55.7912 20.1582 56.9775 20.2008 58.1409C20.2118 58.5774 20.3902 58.9931 20.6989 59.3018C21.0077 59.6106 21.4233 59.7889 21.8599 59.7999C23.0207 59.8396 24.209 59.9066 25.4178 59.9919C26.2077 60.0483 26.9824 59.8091 27.5438 59.3132C27.8109 59.0771 28.0773 58.8402 28.3428 58.6025C28.5447 58.4223 28.6751 58.1754 28.71 57.907C28.7989 57.2519 28.8819 56.5902 28.9591 55.9219C29.0771 54.9012 30.0026 54.2347 31.0789 54.4312C33.0541 54.7953 34.608 53.281 34.2515 51.3081V51.2929C34.0595 50.2173 34.7337 49.2971 35.7681 49.195C36.4353 49.1285 37.0988 49.0584 37.7585 48.9848C38.0312 48.9562 38.2843 48.8295 38.4707 48.6283C39.3817 47.6426 40.2795 46.6442 41.1641 45.6331C43.9045 46.7957 46.964 46.9689 49.8181 46.1231C52.6722 45.2772 55.1432 43.4649 56.8076 40.9968C58.4721 38.5287 59.2263 35.5586 58.9409 32.5954C58.6556 29.6322 57.3485 26.8605 55.2437 24.7554ZM51.9158 33.1003C51.4197 33.5961 50.7878 33.9338 50.0998 34.0705C49.4119 34.2072 48.6989 34.1369 48.0509 33.8684C47.403 33.5999 46.8492 33.1453 46.4595 32.5621C46.0699 31.9789 45.8619 31.2933 45.8619 30.5919C45.8619 29.8905 46.0699 29.2048 46.4595 28.6216C46.8492 28.0384 47.403 27.5838 48.0509 27.3153C48.6989 27.0468 49.4119 26.9765 50.0998 27.1132C50.7878 27.25 51.4197 27.5876 51.9158 28.0835C52.2452 28.4128 52.5066 28.8039 52.6849 29.2343C52.8633 29.6647 52.9551 30.126 52.9551 30.5919C52.9551 31.0577 52.8633 31.5191 52.6849 31.9495C52.5066 32.3799 52.2452 32.7709 51.9158 33.1003Z" fill="var(--fill-0, white)"/>
</g>
</svg>
