<svg preserveAspectRatio="none" width="100%" height="100%" overflow="visible" style="display: block;" viewBox="0 0 80 80" fill="none" xmlns="http://www.w3.org/2000/svg">
<g id="Frame 2131328722">
<rect width="80" height="80" rx="40" fill="var(--fill-0, #FF7F30)"/>
<path id="XMLID_487_" d="M39.5 60C46.9439 60 53 53.9031 53 46.4091C53 42.8907 51.6649 39.6803 49.4783 37.2643V31.0455C49.4783 25.5064 45.002 21 39.5 21C33.998 21 29.5219 25.5064 29.5219 31.0455V37.2641C27.3351 39.6803 26 42.8907 26 46.4091C26 53.9031 32.0561 60 39.5 60ZM41.2609 46.9983V49.3636C41.2609 50.3427 40.4725 51.1364 39.5 51.1364C38.5275 51.1364 37.7391 50.3427 37.7391 49.3636V46.9983C37.0268 46.4588 36.5652 45.601 36.5652 44.6364C36.5652 43.0072 37.8818 41.6818 39.5 41.6818C41.1182 41.6818 42.4348 43.0072 42.4348 44.6364C42.4348 45.601 41.9732 46.4588 41.2609 46.9983ZM33.0436 31.0455C33.0436 27.4614 35.94 24.5455 39.5 24.5455C43.0601 24.5455 45.9565 27.4614 45.9565 31.0455V34.4762C44.0374 33.4195 41.8373 32.8182 39.5 32.8182C37.1629 32.8182 34.9627 33.4195 33.0436 34.476V31.0455Z" fill="var(--fill-0, white)"/>
</g>
</svg>
