<svg preserveAspectRatio="none" width="100%" height="100%" overflow="visible" style="display: block;" viewBox="0 0 80 80" fill="none" xmlns="http://www.w3.org/2000/svg">
<g id="Frame 2131328722">
<rect width="80" height="80" rx="40" fill="var(--fill-0, #FF7F30)"/>
<g id="Vector">
<path d="M39.2504 39.7863C41.868 39.7863 44.1346 38.8607 45.9866 37.0344C47.8386 35.2083 48.7774 32.9741 48.7774 30.3929C48.7774 27.8126 47.8386 25.578 45.9863 23.7514C44.134 21.9257 41.8677 21 39.2504 21C36.6326 21 34.3666 21.9257 32.5146 23.7517C30.6626 25.5777 29.7235 27.8123 29.7235 30.3929C29.7235 32.9741 30.6626 35.2086 32.5149 37.0347C34.3672 38.8604 36.6335 39.7863 39.2504 39.7863Z" fill="var(--fill-0, white)"/>
<path d="M55.92 50.9889C55.8666 50.2289 55.7586 49.4 55.5995 48.5246C55.439 47.6427 55.2323 46.809 54.9848 46.047C54.7292 45.2594 54.3816 44.4816 53.9519 43.7362C53.5059 42.9626 52.982 42.289 52.3941 41.7347C51.7794 41.1547 51.0268 40.6885 50.1565 40.3484C49.2892 40.0101 48.328 39.8387 47.2999 39.8387C46.8961 39.8387 46.5056 40.0021 45.7515 40.4862C45.2874 40.7846 44.7445 41.1298 44.1385 41.5115C43.6204 41.837 42.9185 42.142 42.0515 42.4181C41.2056 42.688 40.3468 42.8249 39.4991 42.8249C38.6514 42.8249 37.7929 42.688 36.9461 42.4181C36.08 42.1423 35.3781 41.8373 34.8606 41.5118C34.2603 41.1336 33.7171 40.7885 33.2461 40.4859C32.4928 40.0018 32.1021 39.8384 31.6983 39.8384C30.6698 39.8384 29.709 40.0101 28.842 40.3487C27.9723 40.6882 27.2194 41.1544 26.6041 41.735C26.0165 42.2896 25.4923 42.9629 25.0469 43.7362C24.6175 44.4816 24.2699 45.2591 24.014 46.0473C23.7668 46.8093 23.5601 47.6427 23.3995 48.5246C23.2405 49.3988 23.1325 50.2281 23.0791 50.9898C23.0266 51.736 23 52.5105 23 53.2928C23 55.3286 23.6564 56.9767 24.9507 58.1921C26.229 59.3915 27.9204 60 29.9773 60H49.0227C51.0796 60 52.7704 59.3918 54.049 58.1921C55.3436 56.9775 56 55.3292 56 53.2925C55.9997 52.5066 55.9728 51.7315 55.92 50.9889Z" fill="var(--fill-0, white)"/>
</g>
</g>
</svg>
