<svg width="92" height="92" viewBox="0 0 92 92" fill="none" xmlns="http://www.w3.org/2000/svg">
<path fill-rule="evenodd" clip-rule="evenodd" d="M46 21C32.1934 21 21 32.1934 21 46C21 59.8066 32.1934 71 46 71C59.8066 71 71 59.8066 71 46C71 32.1934 59.8066 21 46 21ZM57.5879 38.002C57.2119 41.9551 55.584 51.5479 54.7559 55.9756C54.4053 57.8496 53.7148 58.4775 53.0469 58.5391C51.5957 58.6729 50.4932 57.5791 49.0869 56.6572C46.8867 55.2148 45.6436 54.3174 43.5078 52.9102C41.0391 51.2832 42.6396 50.3896 44.0459 48.9287C44.4141 48.5459 50.8105 42.7275 50.9346 42.2002C50.9502 42.1338 50.9648 41.8877 50.8184 41.7578C50.6719 41.6279 50.4561 41.6729 50.3008 41.708C50.0801 41.7578 46.5645 44.0811 39.7559 48.6777C38.7578 49.3633 37.8545 49.6963 37.0439 49.6797C36.1514 49.6602 34.4346 49.1748 33.1582 48.7598C31.5928 48.251 30.3486 47.9814 30.457 47.1172C30.5127 46.667 31.1328 46.207 32.3164 45.7363C39.6045 42.5605 44.4639 40.4678 46.8955 39.4561C53.8388 36.5685 55.2812 36.0664 56.2216 36.0498C57.3995 36.029 57.6838 37.0013 57.5879 38.002Z" fill="white"/>
</svg>
