<svg width="37" height="37" viewBox="0 0 37 37" fill="none" xmlns="http://www.w3.org/2000/svg">
<path d="M6.56452 30.2803H23.7158C27.3442 30.2803 30.2803 27.3442 30.2803 23.7158V6.56452C30.2803 2.94803 27.3442 0 23.7158 0H6.56452C2.94803 0 0 2.94803 0 6.56452V23.7158C0 27.3442 2.94803 30.2803 6.56452 30.2803ZM9.78711 13.3558H13.3558V9.78711C13.3558 8.79644 14.1555 7.99679 15.1461 7.99679C16.1368 7.99679 16.9365 8.79644 16.9365 9.78711V13.3558H20.4932C21.4839 13.3558 22.2835 14.1555 22.2835 15.1461C22.2835 16.1367 21.4839 16.9365 20.4932 16.9365H16.9365V20.4932C16.9365 21.4839 16.1368 22.2835 15.1461 22.2835C14.1555 22.2835 13.3558 21.4839 13.3558 20.4932V16.9365H9.78711C8.79644 16.9365 7.99679 16.1367 7.99679 15.1461C7.99679 14.1555 8.79645 13.3558 9.78711 13.3558Z" fill="#FF7F30"/>
<path d="M35.2097 13.3517C34.2213 13.3517 33.4194 14.153 33.4194 15.142V28.0484C33.4194 31.0101 31.0101 33.4194 28.0484 33.4194H15.142C14.153 33.4194 13.3517 34.2207 13.3517 35.2097C13.3517 36.1987 14.153 37 15.142 37H28.0484C32.9846 37 37 32.9846 37 28.0484V15.142C37 14.153 36.1981 13.3517 35.2097 13.3517Z" fill="#FF7F30"/>
</svg>
