<svg width="19" height="16" viewBox="0 0 19 16" fill="none" xmlns="http://www.w3.org/2000/svg">
<path d="M15.5936 10.8504C15.5921 12.2158 15.051 13.5248 14.089 14.4902C13.127 15.4556 11.8227 15.9986 10.4622 16H5.13094C3.77059 15.9985 2.46638 15.4555 1.50447 14.4901C0.542554 13.5246 0.00149364 12.2157 0 10.8504V5.4997C0.00147538 4.13435 0.542514 2.82534 1.50442 1.85985C2.46632 0.894351 3.77054 0.351222 5.13094 0.349614H12.7374C12.9933 0.353424 13.2376 0.458155 13.4172 0.641179C13.5969 0.824203 13.6976 1.07083 13.6976 1.32776C13.6976 1.5847 13.5969 1.83132 13.4172 2.01435C13.2376 2.19737 12.9933 2.3021 12.7374 2.30591H5.13094C4.28732 2.30692 3.47855 2.64375 2.88206 3.2425C2.28557 3.84125 1.95009 4.65301 1.94921 5.4997V10.8504C1.95019 11.697 2.28572 12.5087 2.8822 13.1073C3.47868 13.706 4.2874 14.0427 5.13094 14.0437H10.4622C11.3058 14.0427 12.1146 13.706 12.7112 13.1074C13.3077 12.5087 13.6434 11.6971 13.6444 10.8504C13.6444 10.591 13.7471 10.3422 13.9299 10.1587C14.1127 9.97529 14.3606 9.87224 14.619 9.87224C14.8775 9.87224 15.1254 9.97529 15.3082 10.1587C15.491 10.3422 15.5936 10.591 15.5936 10.8504ZM18.7145 0.286572C18.624 0.195721 18.5166 0.123651 18.3983 0.0744797C18.2801 0.0253086 18.1534 0 18.0254 0C17.8974 0 17.7707 0.0253086 17.6525 0.0744797C17.5342 0.123651 17.4268 0.195721 17.3363 0.286572L8.8728 8.7809L5.56494 4.67964C5.40058 4.4837 5.1662 4.36028 4.91215 4.33589C4.6581 4.31149 4.40465 4.38808 4.20625 4.54919C4.00785 4.7103 3.88033 4.94308 3.85107 5.19753C3.82182 5.45198 3.89316 5.70779 4.04979 5.91002L8.03858 10.8561C8.12447 10.9627 8.23175 11.05 8.35345 11.1123C8.47514 11.1746 8.60853 11.2106 8.74495 11.2178C8.88137 11.225 9.01778 11.2033 9.14532 11.1542C9.27286 11.105 9.38867 11.0295 9.48525 10.9325L18.7145 1.66973C18.805 1.57893 18.8768 1.47112 18.9258 1.35245C18.9748 1.23379 19 1.1066 19 0.978153C19 0.849705 18.9748 0.722516 18.9258 0.603852C18.8768 0.485189 18.805 0.377375 18.7145 0.286572Z" fill="#FF7F30"/>
</svg>
