<svg width="6" height="206" viewBox="0 0 6 206" fill="none" xmlns="http://www.w3.org/2000/svg">
<path d="M2.02656e-05 2.66663C2.02656e-05 4.13939 1.19393 5.33329 2.66669 5.33329C4.13945 5.33329 5.33335 4.13939 5.33335 2.66663C5.33335 1.19387 4.13945 -4.07696e-05 2.66669 -4.07696e-05C1.19393 -4.07696e-05 2.02656e-05 1.19387 2.02656e-05 2.66663ZM2.02656e-05 202.667C2.02656e-05 204.139 1.19393 205.333 2.66669 205.333C4.13945 205.333 5.33335 204.139 5.33335 202.667C5.33335 201.194 4.13945 200 2.66669 200C1.19393 200 2.02656e-05 201.194 2.02656e-05 202.667ZM2.66669 2.66663H2.16669V202.667H2.66669H3.16669V2.66663H2.66669Z" fill="#84909F"/>
</svg>
