<svg width="212" height="210" viewBox="0 0 212 210" fill="none" xmlns="http://www.w3.org/2000/svg">
<path d="M0 63.1509V73.4799C0 78.1695 3.83777 81.9711 8.57191 81.9711H18.9993C23.7334 81.9711 27.5712 78.1695 27.5712 73.4799V63.1509C27.5712 58.4613 23.7334 54.6597 18.9993 54.6597H8.57191C3.83777 54.6597 0 58.4613 0 63.1509Z" fill="url(#paint0_linear_1_751)"/>
<path d="M0 90.4618V100.791C0 105.48 3.83777 109.282 8.57191 109.282H18.9992C23.7333 109.282 27.5711 105.48 27.5711 100.791V90.4618C27.5711 85.7723 23.7334 81.9711 18.9993 81.9711H8.57191C3.83777 81.9711 0 85.7723 0 90.4618Z" fill="url(#paint1_linear_1_751)"/>
<path d="M0 117.773V128.102C0 132.792 3.83777 136.594 8.57191 136.594H18.9992C23.7333 136.594 27.5712 132.792 27.5712 128.102V117.773C27.5712 113.084 23.7333 109.282 18.9992 109.282H8.57191C3.83777 109.282 0 113.084 0 117.773Z" fill="url(#paint2_linear_1_751)"/>
<path d="M0 145.085V155.414C0 160.103 3.83777 163.905 8.57191 163.905H18.9992C23.7333 163.905 27.5711 160.103 27.5711 155.414V145.085C27.5711 140.395 23.7333 136.594 18.9992 136.594H8.57191C3.83777 136.594 0 140.395 0 145.085Z" fill="url(#paint3_linear_1_751)"/>
<path d="M27.5738 35.8393V46.1684C27.5738 50.8579 31.4116 54.6595 36.1457 54.6595H46.573C51.3071 54.6595 55.1449 50.8579 55.1449 46.1684V35.8393C55.1449 31.1498 51.3071 27.3482 46.573 27.3482H36.1457C31.4116 27.3482 27.5738 31.1498 27.5738 35.8393Z" fill="url(#paint4_linear_1_751)"/>
<path d="M27.6109 63.1508V73.4799C27.6109 78.1694 31.4487 81.971 36.1828 81.971H46.6102C51.3443 81.971 55.1821 78.1694 55.1821 73.4799V63.1508C55.1821 58.4612 51.3443 54.6596 46.6102 54.6596H36.1828C31.4487 54.6596 27.6109 58.4612 27.6109 63.1508Z" fill="url(#paint5_linear_1_751)"/>
<path d="M27.5711 90.4618V100.791C27.5711 105.48 31.4115 109.282 36.1457 109.282H46.573C51.3071 109.282 55.1449 105.481 55.1449 100.791V90.4619C55.1449 85.7724 51.3071 81.9708 46.573 81.9708H36.1457C31.4115 81.9708 27.5711 85.7723 27.5711 90.4618Z" fill="url(#paint6_linear_1_751)"/>
<path d="M27.5712 117.773V128.102C27.5712 132.792 31.4115 136.594 36.1457 136.594H46.573C51.3071 136.594 55.1449 132.792 55.1449 128.103V117.773C55.1449 113.084 51.3071 109.282 46.573 109.282H36.1457C31.4115 109.282 27.5712 113.084 27.5712 117.773Z" fill="url(#paint7_linear_1_751)"/>
<path d="M55.1382 35.8393V46.1684C55.1382 50.8579 58.976 54.6595 63.7102 54.6595H74.1375C78.8716 54.6595 82.7094 50.8579 82.7094 46.1684V35.8393C82.7094 31.1498 78.8716 27.3482 74.1375 27.3482H63.7102C58.976 27.3482 55.1382 31.1498 55.1382 35.8393Z" fill="url(#paint8_linear_1_751)"/>
<path d="M55.1382 8.52784V18.8569C55.1382 23.5465 58.976 27.3482 63.7102 27.3482H74.1375C78.8716 27.3482 82.7094 23.5465 82.7094 18.8569V8.52784C82.7094 3.83831 78.8716 0.0366931 74.1374 0.0366931H63.7101C58.976 0.0366931 55.1382 3.83831 55.1382 8.52784Z" fill="url(#paint9_linear_1_751)"/>
<path d="M55.1754 63.1508V73.4799C55.1754 78.1694 59.0132 81.971 63.7473 81.971H74.1747C78.9088 81.971 82.7466 78.1694 82.7466 73.4799V63.1508C82.7466 58.4612 78.9088 54.6596 74.1747 54.6596H63.7473C59.0132 54.6596 55.1754 58.4612 55.1754 63.1508Z" fill="url(#paint10_linear_1_751)"/>
<path d="M82.712 35.8023V46.1314C82.712 50.8209 86.5498 54.6226 91.2839 54.6226H101.711C106.445 54.6226 110.283 50.8209 110.283 46.1314V35.8023C110.283 31.1128 106.445 27.3112 101.711 27.3112H91.2839C86.5498 27.3112 82.712 31.1128 82.712 35.8023Z" fill="url(#paint11_linear_1_751)"/>
<path d="M82.7492 8.49115V18.8202C82.7492 23.5098 86.5869 27.3114 91.3211 27.3114H101.748C106.483 27.3114 110.32 23.5098 110.32 18.8202V8.49115C110.32 3.80161 106.483 0 101.748 0H91.3211C86.5869 0 82.7492 3.80161 82.7492 8.49115Z" fill="url(#paint12_linear_1_751)"/>
<path d="M82.7492 63.1138V73.4429C82.7492 78.1324 86.5869 81.9341 91.3211 81.9341H101.748C106.483 81.9341 110.32 78.1324 110.32 73.4429V63.1138C110.32 58.4243 106.483 54.6226 101.748 54.6226H91.3211C86.5869 54.6226 82.7492 58.4243 82.7492 63.1138Z" fill="url(#paint13_linear_1_751)"/>
<path d="M110.32 8.49115V18.8202C110.32 23.5098 114.161 27.3114 118.895 27.3114H129.322C134.056 27.3114 137.894 23.5098 137.894 18.8203V8.49121C137.894 3.80167 134.056 5.68322e-05 129.322 5.68322e-05H118.895C114.161 5.68322e-05 110.32 3.80161 110.32 8.49115Z" fill="url(#paint14_linear_1_751)"/>
<path d="M30.614 173.536V181.623C30.614 185.277 33.6044 188.239 37.2934 188.239H45.4571C49.1461 188.239 52.1365 185.277 52.1365 181.623V173.536C52.1365 169.882 49.1461 166.919 45.4571 166.919H37.2934C33.6044 166.919 30.614 169.882 30.614 173.536Z" fill="url(#paint15_linear_1_751)"/>
<path d="M30.614 146.224V154.311C30.614 157.965 33.6045 160.928 37.2934 160.928H45.4571C49.1461 160.928 52.1366 157.965 52.1366 154.311V146.224C52.1366 142.57 49.1461 139.608 45.4571 139.608H37.2934C33.6045 139.608 30.614 142.57 30.614 146.224Z" fill="url(#paint16_linear_1_751)"/>
<path d="M60.5581 174.455V180.741C60.5581 183.583 62.8841 185.887 65.7532 185.887H72.0987C74.9679 185.887 77.2938 183.583 77.2938 180.741V174.455C77.2938 171.613 74.9679 169.309 72.0987 169.309H65.7532C62.8841 169.309 60.5581 171.613 60.5581 174.455Z" fill="url(#paint17_linear_1_751)"/>
<path d="M63.8213 202.979V206.802C63.8213 208.548 65.25 209.963 67.0125 209.963H70.8717C72.6342 209.963 74.063 208.548 74.063 206.802V202.979C74.063 201.233 72.6342 199.818 70.8717 199.818H67.0125C65.25 199.818 63.8213 201.233 63.8213 202.979Z" fill="url(#paint18_linear_1_751)"/>
<path d="M55.1754 90.4619V100.791C55.1754 105.481 59.0132 109.282 63.7473 109.282H74.1746C78.9088 109.282 82.7465 105.481 82.7465 100.791V90.4619C82.7465 85.7724 78.9088 81.971 74.1747 81.971H63.7473C59.0132 81.971 55.1754 85.7724 55.1754 90.4619Z" fill="url(#paint19_linear_1_751)"/>
<path d="M58.1875 118.913V127C58.1875 130.654 61.1779 133.616 64.8669 133.616H73.0307C76.7196 133.616 79.71 130.654 79.71 127V118.913C79.71 115.259 76.7196 112.296 73.0307 112.296H64.8669C61.1779 112.296 58.1875 115.259 58.1875 118.913Z" fill="url(#paint20_linear_1_751)"/>
<path d="M58.1875 146.224V154.311C58.1875 157.965 61.178 160.928 64.8669 160.928H73.0307C76.7196 160.928 79.7101 157.965 79.7101 154.311V146.224C79.7101 142.57 76.7196 139.608 73.0307 139.608H64.8669C61.178 139.608 58.1875 142.57 58.1875 146.224Z" fill="url(#paint21_linear_1_751)"/>
<path d="M88.1312 174.418V180.703C88.1312 183.546 90.4571 185.85 93.3262 185.85H99.6717C102.541 185.85 104.867 183.546 104.867 180.703V174.418C104.867 171.576 102.541 169.272 99.6717 169.272H93.3262C90.4571 169.272 88.1312 171.576 88.1312 174.418Z" fill="url(#paint22_linear_1_751)"/>
<path d="M91.395 203.016V206.839C91.395 208.585 92.8238 210 94.5863 210H98.4455C100.208 210 101.637 208.585 101.637 206.839V203.016C101.637 201.27 100.208 199.855 98.4455 199.855H94.5863C92.8238 199.855 91.395 201.27 91.395 203.016Z" fill="url(#paint23_linear_1_751)"/>
<path d="M85.752 91.6016V99.6884C85.752 103.343 88.7425 106.305 92.4314 106.305H100.595C104.284 106.305 107.275 103.343 107.275 99.6884V91.6016C107.275 87.9474 104.284 84.9851 100.595 84.9851H92.4314C88.7425 84.9851 85.752 87.9474 85.752 91.6016Z" fill="url(#paint24_linear_1_751)"/>
<path d="M85.7892 118.913V127C85.7892 130.654 88.7796 133.616 92.4685 133.616H100.632C104.321 133.616 107.312 130.654 107.312 127V118.913C107.312 115.259 104.321 112.296 100.632 112.296H92.4685C88.7796 112.296 85.7892 115.259 85.7892 118.913Z" fill="url(#paint25_linear_1_751)"/>
<path d="M88.1312 147.107V153.392C88.1312 156.234 90.4571 158.538 93.3263 158.538H99.6717C102.541 158.538 104.867 156.234 104.867 153.392V147.107C104.867 144.264 102.541 141.96 99.6717 141.96H93.3263C90.4571 141.96 88.1312 144.264 88.1312 147.107Z" fill="url(#paint26_linear_1_751)"/>
<path d="M118.968 175.668V179.491C118.968 181.237 120.397 182.652 122.159 182.652H126.018C127.781 182.652 129.21 181.237 129.21 179.491V175.668C129.21 173.922 127.781 172.507 126.018 172.507H122.159C120.397 172.507 118.968 173.922 118.968 175.668Z" fill="url(#paint27_linear_1_751)"/>
<path d="M118.968 202.979V206.802C118.968 208.548 120.397 209.963 122.159 209.963H126.018C127.781 209.963 129.21 208.548 129.21 206.802V202.979C129.21 201.233 127.781 199.818 126.018 199.818H122.159C120.397 199.818 118.968 201.233 118.968 202.979Z" fill="url(#paint28_linear_1_751)"/>
<path d="M113.363 36.9053V44.9921C113.363 48.6463 116.353 51.6086 120.042 51.6086H128.206C131.895 51.6086 134.885 48.6463 134.885 44.9921V36.9053C134.885 33.2511 131.895 30.2888 128.206 30.2888H120.042C116.353 30.2888 113.363 33.2511 113.363 36.9053Z" fill="url(#paint29_linear_1_751)"/>
<path d="M113.326 64.2534V72.3402C113.326 75.9944 116.316 78.9567 120.005 78.9567H128.169C131.858 78.9567 134.848 75.9944 134.848 72.3402V64.2534C134.848 60.5993 131.858 57.6369 128.169 57.6369H120.005C116.316 57.6369 113.326 60.5993 113.326 64.2534Z" fill="url(#paint30_linear_1_751)"/>
<path d="M113.326 91.5649V99.6517C113.326 103.306 116.316 106.268 120.005 106.268H128.169C131.858 106.268 134.848 103.306 134.848 99.6517V91.5649C134.848 87.9107 131.858 84.9484 128.169 84.9484H120.005C116.316 84.9484 113.326 87.9107 113.326 91.5649Z" fill="url(#paint31_linear_1_751)"/>
<path d="M115.743 119.795V126.081C115.743 128.923 118.069 131.227 120.938 131.227H127.283C130.153 131.227 132.478 128.923 132.478 126.081V119.795C132.478 116.953 130.153 114.649 127.283 114.649H120.938C118.069 114.649 115.743 116.953 115.743 119.795Z" fill="url(#paint32_linear_1_751)"/>
<path d="M115.743 147.106V153.392C115.743 156.234 118.069 158.538 120.938 158.538H127.283C130.153 158.538 132.479 156.234 132.479 153.392V147.106C132.479 144.264 130.153 141.96 127.283 141.96H120.938C118.069 141.96 115.743 144.264 115.743 147.106Z" fill="url(#paint33_linear_1_751)"/>
<path d="M146.58 175.668V179.491C146.58 181.237 148.009 182.652 149.771 182.652H153.63C155.393 182.652 156.822 181.237 156.822 179.491V175.668C156.822 173.922 155.393 172.507 153.63 172.507H149.771C148.009 172.507 146.58 173.922 146.58 175.668Z" fill="url(#paint34_linear_1_751)"/>
<path d="M146.543 202.979V206.802C146.543 208.548 147.971 209.963 149.734 209.963H153.593C155.355 209.963 156.784 208.548 156.784 206.802V202.979C156.784 201.233 155.355 199.818 153.593 199.818H149.734C147.971 199.818 146.543 201.233 146.543 202.979Z" fill="url(#paint35_linear_1_751)"/>
<path d="M140.937 36.9423V45.0291C140.937 48.6833 143.927 51.6456 147.616 51.6456H155.78C159.469 51.6456 162.459 48.6833 162.459 45.0291V36.9423C162.459 33.2881 159.469 30.3258 155.78 30.3258H147.616C143.927 30.3258 140.937 33.2881 140.937 36.9423Z" fill="url(#paint36_linear_1_751)"/>
<path d="M140.937 9.59355V17.6804C140.937 21.3345 143.927 24.2969 147.616 24.2969H155.78C159.469 24.2969 162.459 21.3345 162.459 17.6804V9.59355C162.459 5.93937 159.469 2.97705 155.78 2.97705H147.616C143.927 2.97705 140.937 5.93937 140.937 9.59355Z" fill="url(#paint37_linear_1_751)"/>
<path d="M143.307 65.1723V71.458C143.307 74.3002 145.633 76.6042 148.502 76.6042H154.848C157.717 76.6042 160.043 74.3002 160.043 71.458V65.1723C160.043 62.3302 157.717 60.0262 154.848 60.0262H148.502C145.633 60.0262 143.307 62.3302 143.307 65.1723Z" fill="url(#paint38_linear_1_751)"/>
<path d="M143.307 92.4838V98.7695C143.307 101.612 145.633 103.916 148.502 103.916H154.848C157.717 103.916 160.043 101.612 160.043 98.7695V92.4838C160.043 89.6417 157.717 87.3377 154.848 87.3377H148.502C145.633 87.3377 143.307 89.6417 143.307 92.4838Z" fill="url(#paint39_linear_1_751)"/>
<path d="M143.307 119.795V126.081C143.307 128.923 145.633 131.227 148.502 131.227H154.848C157.717 131.227 160.043 128.923 160.043 126.081V119.795C160.043 116.953 157.717 114.649 154.848 114.649H148.502C145.633 114.649 143.307 116.953 143.307 119.795Z" fill="url(#paint40_linear_1_751)"/>
<path d="M146.58 148.356V152.179C146.58 153.925 148.009 155.34 149.771 155.34H153.63C155.393 155.34 156.821 153.925 156.821 152.179V148.356C156.821 146.61 155.393 145.195 153.63 145.195H149.771C148.009 145.195 146.58 146.61 146.58 148.356Z" fill="url(#paint41_linear_1_751)"/>
<path d="M211.963 152.179V148.357C211.963 146.611 210.534 145.195 208.772 145.195H204.912C203.15 145.195 201.721 146.611 201.721 148.357V152.179C201.721 153.925 203.15 155.341 204.912 155.341H208.772C210.534 155.341 211.963 153.925 211.963 152.179Z" fill="url(#paint42_linear_1_751)"/>
<path d="M211.963 124.831V121.008C211.963 119.262 210.534 117.847 208.772 117.847H204.912C203.15 117.847 201.721 119.262 201.721 121.008V124.831C201.721 126.577 203.15 127.992 204.912 127.992H208.772C210.534 127.992 211.963 126.577 211.963 124.831Z" fill="url(#paint43_linear_1_751)"/>
<path d="M212 97.5195V93.6967C212 91.9508 210.571 90.5355 208.809 90.5355H204.95C203.187 90.5355 201.758 91.9508 201.758 93.6967V97.5195C201.758 99.2654 203.187 100.681 204.95 100.681H208.809C210.571 100.681 212 99.2654 212 97.5195Z" fill="url(#paint44_linear_1_751)"/>
<path d="M211.963 70.2083V66.3855C211.963 64.6396 210.534 63.2243 208.772 63.2243H204.912C203.15 63.2243 201.721 64.6396 201.721 66.3855V70.2083C201.721 71.9542 203.15 73.3695 204.912 73.3695H208.772C210.534 73.3695 211.963 71.9542 211.963 70.2083Z" fill="url(#paint45_linear_1_751)"/>
<path d="M187.652 44.1101V37.8245C187.652 34.9823 185.326 32.6783 182.457 32.6783H176.112C173.242 32.6783 170.917 34.9823 170.917 37.8245V44.1101C170.917 46.9522 173.242 49.2563 176.112 49.2563H182.457C185.326 49.2563 187.652 46.9522 187.652 44.1101Z" fill="url(#paint46_linear_1_751)"/>
<path d="M184.389 179.491V175.668C184.389 173.922 182.96 172.507 181.198 172.507H177.338C175.576 172.507 174.147 173.922 174.147 175.668V179.491C174.147 181.237 175.576 182.652 177.338 182.652H181.198C182.96 182.652 184.389 181.237 184.389 179.491Z" fill="url(#paint47_linear_1_751)"/>
<path d="M184.389 152.179V148.356C184.389 146.611 182.96 145.195 181.198 145.195H177.338C175.576 145.195 174.147 146.611 174.147 148.356V152.179C174.147 153.925 175.576 155.34 177.338 155.34H181.198C182.96 155.34 184.389 153.925 184.389 152.179Z" fill="url(#paint48_linear_1_751)"/>
<path d="M184.389 124.868V121.045C184.389 119.299 182.96 117.884 181.198 117.884H177.338C175.576 117.884 174.147 119.299 174.147 121.045V124.868C174.147 126.614 175.576 128.029 177.338 128.029H181.198C182.96 128.029 184.389 126.614 184.389 124.868Z" fill="url(#paint49_linear_1_751)"/>
<path d="M184.389 97.5195V93.6967C184.389 91.9508 182.96 90.5355 181.198 90.5355H177.338C175.576 90.5355 174.147 91.9508 174.147 93.6967V97.5195C174.147 99.2654 175.576 100.681 177.338 100.681H181.198C182.96 100.681 184.389 99.2654 184.389 97.5195Z" fill="url(#paint50_linear_1_751)"/>
<path d="M187.652 71.421V65.1353C187.652 62.2932 185.326 59.9892 182.457 59.9892H176.112C173.242 59.9892 170.916 62.2932 170.916 65.1353V71.421C170.916 74.2631 173.242 76.5672 176.112 76.5672H182.457C185.326 76.5672 187.652 74.2631 187.652 71.421Z" fill="url(#paint51_linear_1_751)"/>
<defs>
<linearGradient id="paint0_linear_1_751" x1="39" y1="-10.5" x2="177.5" y2="219" gradientUnits="userSpaceOnUse">
<stop stop-color="#E0FFB9"/>
<stop offset="1" stop-color="#FF7F30"/>
</linearGradient>
<linearGradient id="paint1_linear_1_751" x1="39" y1="-10.5" x2="177.5" y2="219" gradientUnits="userSpaceOnUse">
<stop stop-color="#E0FFB9"/>
<stop offset="1" stop-color="#FF7F30"/>
</linearGradient>
<linearGradient id="paint2_linear_1_751" x1="39" y1="-10.5" x2="177.5" y2="219" gradientUnits="userSpaceOnUse">
<stop stop-color="#E0FFB9"/>
<stop offset="1" stop-color="#FF7F30"/>
</linearGradient>
<linearGradient id="paint3_linear_1_751" x1="39" y1="-10.5" x2="177.5" y2="219" gradientUnits="userSpaceOnUse">
<stop stop-color="#E0FFB9"/>
<stop offset="1" stop-color="#FF7F30"/>
</linearGradient>
<linearGradient id="paint4_linear_1_751" x1="39" y1="-10.5" x2="177.5" y2="219" gradientUnits="userSpaceOnUse">
<stop stop-color="#E0FFB9"/>
<stop offset="1" stop-color="#FF7F30"/>
</linearGradient>
<linearGradient id="paint5_linear_1_751" x1="39" y1="-10.5" x2="177.5" y2="219" gradientUnits="userSpaceOnUse">
<stop stop-color="#E0FFB9"/>
<stop offset="1" stop-color="#FF7F30"/>
</linearGradient>
<linearGradient id="paint6_linear_1_751" x1="39" y1="-10.5" x2="177.5" y2="219" gradientUnits="userSpaceOnUse">
<stop stop-color="#E0FFB9"/>
<stop offset="1" stop-color="#FF7F30"/>
</linearGradient>
<linearGradient id="paint7_linear_1_751" x1="39" y1="-10.5" x2="177.5" y2="219" gradientUnits="userSpaceOnUse">
<stop stop-color="#E0FFB9"/>
<stop offset="1" stop-color="#FF7F30"/>
</linearGradient>
<linearGradient id="paint8_linear_1_751" x1="39" y1="-10.5" x2="177.5" y2="219" gradientUnits="userSpaceOnUse">
<stop stop-color="#E0FFB9"/>
<stop offset="1" stop-color="#FF7F30"/>
</linearGradient>
<linearGradient id="paint9_linear_1_751" x1="39" y1="-10.5" x2="177.5" y2="219" gradientUnits="userSpaceOnUse">
<stop stop-color="#E0FFB9"/>
<stop offset="1" stop-color="#FF7F30"/>
</linearGradient>
<linearGradient id="paint10_linear_1_751" x1="39" y1="-10.5" x2="177.5" y2="219" gradientUnits="userSpaceOnUse">
<stop stop-color="#E0FFB9"/>
<stop offset="1" stop-color="#FF7F30"/>
</linearGradient>
<linearGradient id="paint11_linear_1_751" x1="39" y1="-10.5" x2="177.5" y2="219" gradientUnits="userSpaceOnUse">
<stop stop-color="#E0FFB9"/>
<stop offset="1" stop-color="#FF7F30"/>
</linearGradient>
<linearGradient id="paint12_linear_1_751" x1="39" y1="-10.5" x2="177.5" y2="219" gradientUnits="userSpaceOnUse">
<stop stop-color="#E0FFB9"/>
<stop offset="1" stop-color="#FF7F30"/>
</linearGradient>
<linearGradient id="paint13_linear_1_751" x1="39" y1="-10.5" x2="177.5" y2="219" gradientUnits="userSpaceOnUse">
<stop stop-color="#E0FFB9"/>
<stop offset="1" stop-color="#FF7F30"/>
</linearGradient>
<linearGradient id="paint14_linear_1_751" x1="39" y1="-10.5" x2="177.5" y2="219" gradientUnits="userSpaceOnUse">
<stop stop-color="#E0FFB9"/>
<stop offset="1" stop-color="#FF7F30"/>
</linearGradient>
<linearGradient id="paint15_linear_1_751" x1="39" y1="-10.5" x2="177.5" y2="219" gradientUnits="userSpaceOnUse">
<stop stop-color="#E0FFB9"/>
<stop offset="1" stop-color="#FF7F30"/>
</linearGradient>
<linearGradient id="paint16_linear_1_751" x1="39" y1="-10.5" x2="177.5" y2="219" gradientUnits="userSpaceOnUse">
<stop stop-color="#E0FFB9"/>
<stop offset="1" stop-color="#FF7F30"/>
</linearGradient>
<linearGradient id="paint17_linear_1_751" x1="39" y1="-10.5" x2="177.5" y2="219" gradientUnits="userSpaceOnUse">
<stop stop-color="#E0FFB9"/>
<stop offset="1" stop-color="#FF7F30"/>
</linearGradient>
<linearGradient id="paint18_linear_1_751" x1="39" y1="-10.5" x2="177.5" y2="219" gradientUnits="userSpaceOnUse">
<stop stop-color="#E0FFB9"/>
<stop offset="1" stop-color="#FF7F30"/>
</linearGradient>
<linearGradient id="paint19_linear_1_751" x1="39" y1="-10.5" x2="177.5" y2="219" gradientUnits="userSpaceOnUse">
<stop stop-color="#E0FFB9"/>
<stop offset="1" stop-color="#FF7F30"/>
</linearGradient>
<linearGradient id="paint20_linear_1_751" x1="39" y1="-10.5" x2="177.5" y2="219" gradientUnits="userSpaceOnUse">
<stop stop-color="#E0FFB9"/>
<stop offset="1" stop-color="#FF7F30"/>
</linearGradient>
<linearGradient id="paint21_linear_1_751" x1="39" y1="-10.5" x2="177.5" y2="219" gradientUnits="userSpaceOnUse">
<stop stop-color="#E0FFB9"/>
<stop offset="1" stop-color="#FF7F30"/>
</linearGradient>
<linearGradient id="paint22_linear_1_751" x1="39" y1="-10.5" x2="177.5" y2="219" gradientUnits="userSpaceOnUse">
<stop stop-color="#E0FFB9"/>
<stop offset="1" stop-color="#FF7F30"/>
</linearGradient>
<linearGradient id="paint23_linear_1_751" x1="39" y1="-10.5" x2="177.5" y2="219" gradientUnits="userSpaceOnUse">
<stop stop-color="#E0FFB9"/>
<stop offset="1" stop-color="#FF7F30"/>
</linearGradient>
<linearGradient id="paint24_linear_1_751" x1="39" y1="-10.5" x2="177.5" y2="219" gradientUnits="userSpaceOnUse">
<stop stop-color="#E0FFB9"/>
<stop offset="1" stop-color="#FF7F30"/>
</linearGradient>
<linearGradient id="paint25_linear_1_751" x1="39" y1="-10.5" x2="177.5" y2="219" gradientUnits="userSpaceOnUse">
<stop stop-color="#E0FFB9"/>
<stop offset="1" stop-color="#FF7F30"/>
</linearGradient>
<linearGradient id="paint26_linear_1_751" x1="39" y1="-10.5" x2="177.5" y2="219" gradientUnits="userSpaceOnUse">
<stop stop-color="#E0FFB9"/>
<stop offset="1" stop-color="#FF7F30"/>
</linearGradient>
<linearGradient id="paint27_linear_1_751" x1="39" y1="-10.5" x2="177.5" y2="219" gradientUnits="userSpaceOnUse">
<stop stop-color="#E0FFB9"/>
<stop offset="1" stop-color="#FF7F30"/>
</linearGradient>
<linearGradient id="paint28_linear_1_751" x1="39" y1="-10.5" x2="177.5" y2="219" gradientUnits="userSpaceOnUse">
<stop stop-color="#E0FFB9"/>
<stop offset="1" stop-color="#FF7F30"/>
</linearGradient>
<linearGradient id="paint29_linear_1_751" x1="39" y1="-10.5" x2="177.5" y2="219" gradientUnits="userSpaceOnUse">
<stop stop-color="#E0FFB9"/>
<stop offset="1" stop-color="#FF7F30"/>
</linearGradient>
<linearGradient id="paint30_linear_1_751" x1="39" y1="-10.5" x2="177.5" y2="219" gradientUnits="userSpaceOnUse">
<stop stop-color="#E0FFB9"/>
<stop offset="1" stop-color="#FF7F30"/>
</linearGradient>
<linearGradient id="paint31_linear_1_751" x1="39" y1="-10.5" x2="177.5" y2="219" gradientUnits="userSpaceOnUse">
<stop stop-color="#E0FFB9"/>
<stop offset="1" stop-color="#FF7F30"/>
</linearGradient>
<linearGradient id="paint32_linear_1_751" x1="39" y1="-10.5" x2="177.5" y2="219" gradientUnits="userSpaceOnUse">
<stop stop-color="#E0FFB9"/>
<stop offset="1" stop-color="#FF7F30"/>
</linearGradient>
<linearGradient id="paint33_linear_1_751" x1="39" y1="-10.5" x2="177.5" y2="219" gradientUnits="userSpaceOnUse">
<stop stop-color="#E0FFB9"/>
<stop offset="1" stop-color="#FF7F30"/>
</linearGradient>
<linearGradient id="paint34_linear_1_751" x1="39" y1="-10.5" x2="177.5" y2="219" gradientUnits="userSpaceOnUse">
<stop stop-color="#E0FFB9"/>
<stop offset="1" stop-color="#FF7F30"/>
</linearGradient>
<linearGradient id="paint35_linear_1_751" x1="39" y1="-10.5" x2="177.5" y2="219" gradientUnits="userSpaceOnUse">
<stop stop-color="#E0FFB9"/>
<stop offset="1" stop-color="#FF7F30"/>
</linearGradient>
<linearGradient id="paint36_linear_1_751" x1="39" y1="-10.5" x2="177.5" y2="219" gradientUnits="userSpaceOnUse">
<stop stop-color="#E0FFB9"/>
<stop offset="1" stop-color="#FF7F30"/>
</linearGradient>
<linearGradient id="paint37_linear_1_751" x1="39" y1="-10.5" x2="177.5" y2="219" gradientUnits="userSpaceOnUse">
<stop stop-color="#E0FFB9"/>
<stop offset="1" stop-color="#FF7F30"/>
</linearGradient>
<linearGradient id="paint38_linear_1_751" x1="39" y1="-10.5" x2="177.5" y2="219" gradientUnits="userSpaceOnUse">
<stop stop-color="#E0FFB9"/>
<stop offset="1" stop-color="#FF7F30"/>
</linearGradient>
<linearGradient id="paint39_linear_1_751" x1="39" y1="-10.5" x2="177.5" y2="219" gradientUnits="userSpaceOnUse">
<stop stop-color="#E0FFB9"/>
<stop offset="1" stop-color="#FF7F30"/>
</linearGradient>
<linearGradient id="paint40_linear_1_751" x1="39" y1="-10.5" x2="177.5" y2="219" gradientUnits="userSpaceOnUse">
<stop stop-color="#E0FFB9"/>
<stop offset="1" stop-color="#FF7F30"/>
</linearGradient>
<linearGradient id="paint41_linear_1_751" x1="39" y1="-10.5" x2="177.5" y2="219" gradientUnits="userSpaceOnUse">
<stop stop-color="#E0FFB9"/>
<stop offset="1" stop-color="#FF7F30"/>
</linearGradient>
<linearGradient id="paint42_linear_1_751" x1="39" y1="-10.5" x2="177.5" y2="219" gradientUnits="userSpaceOnUse">
<stop stop-color="#E0FFB9"/>
<stop offset="1" stop-color="#FF7F30"/>
</linearGradient>
<linearGradient id="paint43_linear_1_751" x1="39" y1="-10.5" x2="177.5" y2="219" gradientUnits="userSpaceOnUse">
<stop stop-color="#E0FFB9"/>
<stop offset="1" stop-color="#FF7F30"/>
</linearGradient>
<linearGradient id="paint44_linear_1_751" x1="39" y1="-10.5" x2="177.5" y2="219" gradientUnits="userSpaceOnUse">
<stop stop-color="#E0FFB9"/>
<stop offset="1" stop-color="#FF7F30"/>
</linearGradient>
<linearGradient id="paint45_linear_1_751" x1="39" y1="-10.5" x2="177.5" y2="219" gradientUnits="userSpaceOnUse">
<stop stop-color="#E0FFB9"/>
<stop offset="1" stop-color="#FF7F30"/>
</linearGradient>
<linearGradient id="paint46_linear_1_751" x1="39" y1="-10.5" x2="177.5" y2="219" gradientUnits="userSpaceOnUse">
<stop stop-color="#E0FFB9"/>
<stop offset="1" stop-color="#FF7F30"/>
</linearGradient>
<linearGradient id="paint47_linear_1_751" x1="39" y1="-10.5" x2="177.5" y2="219" gradientUnits="userSpaceOnUse">
<stop stop-color="#E0FFB9"/>
<stop offset="1" stop-color="#FF7F30"/>
</linearGradient>
<linearGradient id="paint48_linear_1_751" x1="39" y1="-10.5" x2="177.5" y2="219" gradientUnits="userSpaceOnUse">
<stop stop-color="#E0FFB9"/>
<stop offset="1" stop-color="#FF7F30"/>
</linearGradient>
<linearGradient id="paint49_linear_1_751" x1="39" y1="-10.5" x2="177.5" y2="219" gradientUnits="userSpaceOnUse">
<stop stop-color="#E0FFB9"/>
<stop offset="1" stop-color="#FF7F30"/>
</linearGradient>
<linearGradient id="paint50_linear_1_751" x1="39" y1="-10.5" x2="177.5" y2="219" gradientUnits="userSpaceOnUse">
<stop stop-color="#E0FFB9"/>
<stop offset="1" stop-color="#FF7F30"/>
</linearGradient>
<linearGradient id="paint51_linear_1_751" x1="39" y1="-10.5" x2="177.5" y2="219" gradientUnits="userSpaceOnUse">
<stop stop-color="#E0FFB9"/>
<stop offset="1" stop-color="#FF7F30"/>
</linearGradient>
</defs>
</svg>
