<svg width="99" height="122" viewBox="0 0 99 122" fill="none" xmlns="http://www.w3.org/2000/svg">
<path d="M162 10.115V17.9847C162 21.5577 159.067 24.4542 155.45 24.4542H147.482C143.864 24.4542 140.931 21.5577 140.931 17.9847V10.115C140.931 6.54197 143.864 3.6455 147.482 3.6455H155.45C159.067 3.6455 162 6.54197 162 10.115Z" fill="url(#paint0_linear_1_447)" fill-opacity="0.1"/>
<path d="M162 30.9233V38.7931C162 42.366 159.067 45.2625 155.45 45.2625H147.482C143.864 45.2625 140.932 42.366 140.932 38.7931V30.9233C140.932 27.3503 143.864 24.4542 147.482 24.4542H155.45C159.067 24.4542 162 27.3503 162 30.9233Z" fill="url(#paint1_linear_1_447)" fill-opacity="0.1"/>
<path d="M162 51.7321V59.6018C162 63.1748 159.067 66.0713 155.45 66.0713H147.482C143.864 66.0713 140.931 63.1748 140.931 59.6018V51.7321C140.931 48.1591 143.864 45.2625 147.482 45.2625H155.45C159.067 45.2625 162 48.1591 162 51.7321Z" fill="url(#paint2_linear_1_447)" fill-opacity="0.1"/>
<path d="M162 72.5408V80.4106C162 83.9836 159.067 86.8801 155.45 86.8801H147.482C143.864 86.8801 140.932 83.9836 140.932 80.4106V72.5408C140.932 68.9679 143.864 66.0713 147.482 66.0713H155.45C159.067 66.0713 162 68.9679 162 72.5408Z" fill="url(#paint3_linear_1_447)" fill-opacity="0.1"/>
<path d="M140.929 -10.6939V-2.82407C140.929 0.748905 137.997 3.64537 134.379 3.64537H126.411C122.794 3.64537 119.861 0.748905 119.861 -2.82407V-10.6939C119.861 -14.2668 122.794 -17.1633 126.411 -17.1633H134.379C137.997 -17.1633 140.929 -14.2668 140.929 -10.6939Z" fill="url(#paint4_linear_1_447)" fill-opacity="0.1"/>
<path d="M140.901 10.1149V17.9847C140.901 21.5576 137.968 24.4541 134.351 24.4541H126.383C122.765 24.4541 119.833 21.5576 119.833 17.9847V10.1149C119.833 6.5419 122.765 3.64543 126.383 3.64543H134.351C137.968 3.64543 140.901 6.5419 140.901 10.1149Z" fill="url(#paint5_linear_1_447)" fill-opacity="0.1"/>
<path d="M140.932 30.9233V38.7931C140.932 42.366 137.997 45.2626 134.379 45.2626H126.411C122.794 45.2626 119.861 42.3662 119.861 38.7932V30.9234C119.861 27.3504 122.794 24.4539 126.411 24.4539H134.379C137.997 24.4539 140.932 27.3503 140.932 30.9233Z" fill="url(#paint6_linear_1_447)" fill-opacity="0.1"/>
<path d="M140.931 51.7321V59.6018C140.931 63.1748 137.997 66.0714 134.379 66.0714H126.411C122.794 66.0714 119.861 63.1749 119.861 59.6019V51.7321C119.861 48.1591 122.794 45.2626 126.411 45.2626H134.379C137.997 45.2626 140.931 48.1591 140.931 51.7321Z" fill="url(#paint7_linear_1_447)" fill-opacity="0.1"/>
<path d="M119.866 -10.6939V-2.82407C119.866 0.748905 116.933 3.64537 113.316 3.64537H105.348C101.73 3.64537 98.7976 0.748905 98.7976 -2.82407V-10.6939C98.7976 -14.2668 101.73 -17.1633 105.348 -17.1633H113.316C116.933 -17.1633 119.866 -14.2668 119.866 -10.6939Z" fill="url(#paint8_linear_1_447)" fill-opacity="0.1"/>
<path d="M119.866 -31.5026V-23.6328C119.866 -20.0598 116.933 -17.1633 113.316 -17.1633H105.348C101.73 -17.1633 98.7976 -20.0598 98.7976 -23.6328V-31.5026C98.7976 -35.0756 101.73 -37.972 105.348 -37.972H113.316C116.933 -37.972 119.866 -35.0756 119.866 -31.5026Z" fill="url(#paint9_linear_1_447)" fill-opacity="0.1"/>
<path d="M119.838 10.1149V17.9847C119.838 21.5576 116.905 24.4541 113.287 24.4541H105.319C101.702 24.4541 98.7691 21.5576 98.7691 17.9847V10.1149C98.7691 6.5419 101.702 3.64543 105.319 3.64543H113.287C116.905 3.64543 119.838 6.5419 119.838 10.1149Z" fill="url(#paint10_linear_1_447)" fill-opacity="0.1"/>
<path d="M98.7956 -10.722V-2.85228C98.7956 0.720707 95.8629 3.61722 92.2453 3.61722H84.2773C80.6597 3.61722 77.7271 0.720707 77.7271 -2.85228V-10.722C77.7271 -14.295 80.6597 -17.1915 84.2773 -17.1915H92.2453C95.8629 -17.1915 98.7956 -14.295 98.7956 -10.722Z" fill="url(#paint11_linear_1_447)" fill-opacity="0.1"/>
<path d="M98.7671 -31.5306V-23.6608C98.7671 -20.0878 95.8345 -17.1913 92.2169 -17.1913H84.2489C80.6313 -17.1913 77.6986 -20.0878 77.6986 -23.6608V-31.5306C77.6986 -35.1035 80.6313 -38 84.2489 -38H92.2169C95.8345 -38 98.7671 -35.1035 98.7671 -31.5306Z" fill="url(#paint12_linear_1_447)" fill-opacity="0.1"/>
<path d="M98.7671 10.0867V17.9565C98.7671 21.5294 95.8345 24.426 92.2169 24.426H84.2488C80.6312 24.426 77.6986 21.5294 77.6986 17.9565V10.0867C77.6986 6.51371 80.6312 3.61725 84.2488 3.61725H92.2169C95.8345 3.61725 98.7671 6.51371 98.7671 10.0867Z" fill="url(#paint13_linear_1_447)" fill-opacity="0.1"/>
<path d="M77.6986 -31.5306V-23.6608C77.6986 -20.0878 74.764 -17.1913 71.1464 -17.1913H63.1784C59.5608 -17.1913 56.6281 -20.0878 56.6281 -23.6607V-31.5305C56.6281 -35.1035 59.5608 -38 63.1784 -38H71.1464C74.764 -38 77.6986 -35.1035 77.6986 -31.5306Z" fill="url(#paint14_linear_1_447)" fill-opacity="0.1"/>
<path d="M138.606 94.2178V100.379C138.606 103.163 136.321 105.42 133.502 105.42H127.264C124.445 105.42 122.16 103.163 122.16 100.379V94.2178C122.16 91.4337 124.445 89.1767 127.264 89.1767H133.502C136.321 89.1767 138.606 91.4337 138.606 94.2178Z" fill="url(#paint15_linear_1_447)" fill-opacity="0.1"/>
<path d="M138.606 73.409V79.5704C138.606 82.3546 136.321 84.6116 133.502 84.6116H127.264C124.445 84.6116 122.16 82.3546 122.16 79.5704V73.409C122.16 70.6249 124.445 68.3679 127.264 68.3679H133.502C136.321 68.3679 138.606 70.6249 138.606 73.409Z" fill="url(#paint16_linear_1_447)" fill-opacity="0.1"/>
<path d="M115.724 94.918V99.707C115.724 101.872 113.947 103.628 111.755 103.628H106.906C104.713 103.628 102.936 101.872 102.936 99.707V94.918C102.936 92.7525 104.713 90.9971 106.906 90.9971H111.755C113.947 90.9971 115.724 92.7525 115.724 94.918Z" fill="url(#paint17_linear_1_447)" fill-opacity="0.1"/>
<path d="M113.231 116.651V119.564C113.231 120.894 112.139 121.972 110.792 121.972H107.843C106.496 121.972 105.405 120.894 105.405 119.564V116.651C105.405 115.321 106.496 114.242 107.843 114.242H110.792C112.139 114.242 113.231 115.321 113.231 116.651Z" fill="url(#paint18_linear_1_447)" fill-opacity="0.1"/>
<path d="M119.838 30.9234V38.7932C119.838 42.3662 116.905 45.2626 113.287 45.2626H105.319C101.702 45.2626 98.7692 42.3662 98.7692 38.7932V30.9234C98.7692 27.3504 101.702 24.4541 105.319 24.4541H113.287C116.905 24.4541 119.838 27.3504 119.838 30.9234Z" fill="url(#paint19_linear_1_447)" fill-opacity="0.1"/>
<path d="M117.536 52.6002V58.7616C117.536 61.5457 115.251 63.8027 112.432 63.8027H106.194C103.375 63.8027 101.09 61.5457 101.09 58.7616V52.6002C101.09 49.816 103.375 47.559 106.194 47.559H112.432C115.251 47.559 117.536 49.816 117.536 52.6002Z" fill="url(#paint20_linear_1_447)" fill-opacity="0.1"/>
<path d="M117.536 73.4089V79.5703C117.536 82.3544 115.251 84.6114 112.432 84.6114H106.194C103.375 84.6114 101.089 82.3544 101.089 79.5703V73.4089C101.089 70.6248 103.375 68.3678 106.194 68.3678H112.432C115.251 68.3678 117.536 70.6248 117.536 73.4089Z" fill="url(#paint21_linear_1_447)" fill-opacity="0.1"/>
<path d="M94.6545 94.8897V99.6788C94.6545 101.844 92.8772 103.6 90.6847 103.6H85.8358C83.6433 103.6 81.866 101.844 81.866 99.6788V94.8897C81.866 92.7243 83.6433 90.9689 85.8358 90.9689H90.6847C92.8772 90.9689 94.6545 92.7243 94.6545 94.8897Z" fill="url(#paint22_linear_1_447)" fill-opacity="0.1"/>
<path d="M92.1604 116.679V119.591C92.1604 120.922 91.0686 122 89.7218 122H86.7728C85.426 122 84.3342 120.922 84.3342 119.591V116.679C84.3342 115.349 85.426 114.27 86.7728 114.27H89.7218C91.0686 114.27 92.1604 115.349 92.1604 116.679Z" fill="url(#paint23_linear_1_447)" fill-opacity="0.1"/>
<path d="M96.4725 31.7917V37.9531C96.4725 40.7372 94.1874 42.9942 91.3685 42.9942H85.1301C82.3112 42.9942 80.0261 40.7372 80.0261 37.9531V31.7917C80.0261 29.0075 82.3112 26.7506 85.1301 26.7506H91.3685C94.1874 26.7506 96.4725 29.0075 96.4725 31.7917Z" fill="url(#paint24_linear_1_447)" fill-opacity="0.1"/>
<path d="M96.4441 52.6002V58.7616C96.4441 61.5458 94.159 63.8027 91.3401 63.8027H85.1017C82.2828 63.8027 79.9977 61.5458 79.9977 58.7616V52.6002C79.9977 49.816 82.2828 47.5591 85.1017 47.5591H91.3401C94.159 47.5591 96.4441 49.816 96.4441 52.6002Z" fill="url(#paint25_linear_1_447)" fill-opacity="0.1"/>
<path d="M94.6545 74.0812V78.8703C94.6545 81.0357 92.8771 82.7912 90.6846 82.7912H85.8358C83.6433 82.7912 81.8659 81.0357 81.8659 78.8703V74.0812C81.8659 71.9157 83.6433 70.1603 85.8358 70.1603H90.6846C92.8771 70.1603 94.6545 71.9157 94.6545 74.0812Z" fill="url(#paint26_linear_1_447)" fill-opacity="0.1"/>
<path d="M71.0906 95.8422V98.7549C71.0906 100.085 69.9988 101.163 68.652 101.163H65.703C64.3562 101.163 63.2644 100.085 63.2644 98.7549V95.8422C63.2644 94.512 64.3562 93.4337 65.703 93.4337H68.652C69.9988 93.4337 71.0906 94.512 71.0906 95.8422Z" fill="url(#paint27_linear_1_447)" fill-opacity="0.1"/>
<path d="M71.0906 116.651V119.563C71.0906 120.894 69.9988 121.972 68.652 121.972H65.703C64.3562 121.972 63.2644 120.894 63.2644 119.563V116.651C63.2644 115.321 64.3562 114.242 65.703 114.242H68.652C69.9988 114.242 71.0906 115.321 71.0906 116.651Z" fill="url(#paint28_linear_1_447)" fill-opacity="0.1"/>
<path d="M75.3736 -9.88167V-3.72029C75.3736 -0.93615 73.0884 1.32085 70.2695 1.32085H64.0312C61.2123 1.32085 58.9271 -0.93615 58.9271 -3.72029V-9.88167C58.9271 -12.6658 61.2123 -14.9228 64.0312 -14.9228H70.2695C73.0884 -14.9228 75.3736 -12.6658 75.3736 -9.88167Z" fill="url(#paint29_linear_1_447)" fill-opacity="0.1"/>
<path d="M75.402 10.955V17.1164C75.402 19.9005 73.1169 22.1575 70.2979 22.1575H64.0596C61.2407 22.1575 58.9555 19.9005 58.9555 17.1164V10.955C58.9555 8.17086 61.2407 5.91386 64.0596 5.91386H70.2979C73.1169 5.91386 75.402 8.17086 75.402 10.955Z" fill="url(#paint30_linear_1_447)" fill-opacity="0.1"/>
<path d="M75.402 31.7637V37.9251C75.402 40.7093 73.1169 42.9663 70.2979 42.9663H64.0596C61.2407 42.9663 58.9555 40.7093 58.9555 37.9251V31.7637C58.9555 28.9796 61.2407 26.7226 64.0596 26.7226H70.2979C73.1169 26.7226 75.402 28.9796 75.402 31.7637Z" fill="url(#paint31_linear_1_447)" fill-opacity="0.1"/>
<path d="M73.555 53.2724V58.0614C73.555 60.2269 71.7777 61.9823 69.5852 61.9823H64.7363C62.5438 61.9823 60.7664 60.2269 60.7664 58.0614V53.2724C60.7664 51.1069 62.5438 49.3515 64.7363 49.3515H69.5852C71.7777 49.3515 73.555 51.1069 73.555 53.2724Z" fill="url(#paint32_linear_1_447)" fill-opacity="0.1"/>
<path d="M73.555 74.0811V78.8702C73.555 81.0356 71.7776 82.7911 69.5851 82.7911H64.7363C62.5438 82.7911 60.7664 81.0356 60.7664 78.8702V74.0811C60.7664 71.9157 62.5438 70.1602 64.7363 70.1602H69.5851C71.7776 70.1602 73.555 71.9157 73.555 74.0811Z" fill="url(#paint33_linear_1_447)" fill-opacity="0.1"/>
<path d="M49.991 95.8421V98.7548C49.991 100.085 48.8992 101.163 47.5523 101.163H44.6033C43.2565 101.163 42.1647 100.085 42.1647 98.7548V95.8421C42.1647 94.5119 43.2565 93.4336 44.6033 93.4336H47.5523C48.8992 93.4336 49.991 94.5119 49.991 95.8421Z" fill="url(#paint34_linear_1_447)" fill-opacity="0.1"/>
<path d="M50.0194 116.651V119.564C50.0194 120.894 48.9276 121.972 47.5808 121.972H44.6318C43.285 121.972 42.1931 120.894 42.1931 119.564V116.651C42.1931 115.321 43.285 114.242 44.6318 114.242H47.5808C48.9276 114.242 50.0194 115.321 50.0194 116.651Z" fill="url(#paint35_linear_1_447)" fill-opacity="0.1"/>
<path d="M54.3031 -9.85351V-3.69213C54.3031 -0.907993 52.0179 1.34901 49.199 1.34901H42.9607C40.1418 1.34901 37.8566 -0.907993 37.8566 -3.69213V-9.85351C37.8566 -12.6377 40.1418 -14.8947 42.9607 -14.8947H49.199C52.0179 -14.8947 54.3031 -12.6377 54.3031 -9.85351Z" fill="url(#paint36_linear_1_447)" fill-opacity="0.1"/>
<path d="M54.3031 -30.6906V-24.5292C54.3031 -21.7451 52.0179 -19.4881 49.199 -19.4881H42.9607C40.1418 -19.4881 37.8566 -21.7451 37.8566 -24.5292V-30.6906C37.8566 -33.4748 40.1418 -35.7318 42.9607 -35.7318H49.199C52.0179 -35.7318 54.3031 -33.4748 54.3031 -30.6906Z" fill="url(#paint37_linear_1_447)" fill-opacity="0.1"/>
<path d="M52.4916 11.6551V16.4442C52.4916 18.6097 50.7142 20.3651 48.5217 20.3651H43.6729C41.4804 20.3651 39.703 18.6097 39.703 16.4442V11.6551C39.703 9.48968 41.4804 7.73425 43.6729 7.73425H48.5217C50.7142 7.73425 52.4916 9.48968 52.4916 11.6551Z" fill="url(#paint38_linear_1_447)" fill-opacity="0.1"/>
<path d="M52.4916 32.4639V37.2529C52.4916 39.4184 50.7142 41.1738 48.5217 41.1738H43.6729C41.4804 41.1738 39.703 39.4184 39.703 37.2529V32.4639C39.703 30.2984 41.4804 28.543 43.6729 28.543H48.5217C50.7142 28.543 52.4916 30.2984 52.4916 32.4639Z" fill="url(#paint39_linear_1_447)" fill-opacity="0.1"/>
<path d="M52.4916 53.2724V58.0615C52.4916 60.2269 50.7142 61.9823 48.5218 61.9823H43.6729C41.4804 61.9823 39.703 60.2269 39.703 58.0615V53.2724C39.703 51.1069 41.4804 49.3515 43.6729 49.3515H48.5218C50.7142 49.3515 52.4916 51.1069 52.4916 53.2724Z" fill="url(#paint40_linear_1_447)" fill-opacity="0.1"/>
<path d="M49.991 75.0334V77.946C49.991 79.2762 48.8992 80.3546 47.5523 80.3546H44.6033C43.2565 80.3546 42.1647 79.2762 42.1647 77.946V75.0334C42.1647 73.7032 43.2565 72.6249 44.6033 72.6249H47.5523C48.8992 72.6249 49.991 73.7032 49.991 75.0334Z" fill="url(#paint41_linear_1_447)" fill-opacity="0.1"/>
<path d="M0.0284119 77.9462V75.0336C0.0284119 73.7034 1.12022 72.625 2.46704 72.625H5.41603C6.76285 72.625 7.85466 73.7034 7.85466 75.0336V77.9462C7.85466 79.2764 6.76285 80.3547 5.41603 80.3547H2.46704C1.12022 80.3547 0.0284119 79.2764 0.0284119 77.9462Z" fill="url(#paint42_linear_1_447)" fill-opacity="0.1"/>
<path d="M0.0284119 57.1093V54.1967C0.0284119 52.8665 1.12022 51.7881 2.46704 51.7881H5.41608C6.76289 51.7881 7.85469 52.8665 7.85469 54.1967V57.1093C7.85469 58.4395 6.76289 59.5179 5.41608 59.5179H2.46704C1.12022 59.5179 0.0284119 58.4395 0.0284119 57.1093Z" fill="url(#paint43_linear_1_447)" fill-opacity="0.1"/>
<path d="M0 36.3006V33.3879C0 32.0577 1.09181 30.9794 2.43861 30.9794H5.38762C6.73442 30.9794 7.82625 32.0577 7.82625 33.3879V36.3006C7.82625 37.6308 6.73442 38.7091 5.38762 38.7091H2.43861C1.09181 38.7091 0 37.6308 0 36.3006Z" fill="url(#paint44_linear_1_447)" fill-opacity="0.1"/>
<path d="M0.0284119 15.4921V12.5794C0.0284119 11.2492 1.12022 10.1709 2.46704 10.1709H5.41603C6.76285 10.1709 7.85466 11.2492 7.85466 12.5794V15.4921C7.85466 16.8223 6.76285 17.9006 5.41603 17.9006H2.46704C1.12022 17.9006 0.0284119 16.8223 0.0284119 15.4921Z" fill="url(#paint45_linear_1_447)" fill-opacity="0.1"/>
<path d="M18.6054 -4.39231V-9.18136C18.6054 -11.3468 20.3828 -13.1023 22.5752 -13.1023H27.4241C29.6166 -13.1023 31.394 -11.3468 31.394 -9.18136V-4.39231C31.394 -2.22687 29.6166 -0.471401 27.4241 -0.471401H22.5752C20.3828 -0.471401 18.6054 -2.22687 18.6054 -4.39231Z" fill="url(#paint46_linear_1_447)" fill-opacity="0.1"/>
<path d="M21.0991 98.7549V95.8422C21.0991 94.512 22.1909 93.4337 23.5377 93.4337H26.4867C27.8335 93.4337 28.9254 94.512 28.9254 95.8422V98.7549C28.9254 100.085 27.8335 101.163 26.4867 101.163H23.5377C22.1909 101.163 21.0991 100.085 21.0991 98.7549Z" fill="url(#paint47_linear_1_447)" fill-opacity="0.1"/>
<path d="M21.0991 77.9461V75.0335C21.0991 73.7033 22.1909 72.6249 23.5377 72.6249H26.4867C27.8335 72.6249 28.9253 73.7033 28.9253 75.0335V77.9461C28.9253 79.2763 27.8335 80.3546 26.4867 80.3546H23.5377C22.1909 80.3546 21.0991 79.2763 21.0991 77.9461Z" fill="url(#paint48_linear_1_447)" fill-opacity="0.1"/>
<path d="M21.0991 57.1376V54.2249C21.0991 52.8947 22.1909 51.8164 23.5377 51.8164H26.4867C27.8335 51.8164 28.9254 52.8947 28.9254 54.2249V57.1376C28.9254 58.4678 27.8335 59.5461 26.4867 59.5461H23.5377C22.1909 59.5461 21.0991 58.4678 21.0991 57.1376Z" fill="url(#paint49_linear_1_447)" fill-opacity="0.1"/>
<path d="M21.0991 36.3006V33.3879C21.0991 32.0577 22.1909 30.9794 23.5377 30.9794H26.4867C27.8335 30.9794 28.9253 32.0577 28.9253 33.3879V36.3006C28.9253 37.6308 27.8335 38.7091 26.4867 38.7091H23.5377C22.1909 38.7091 21.0991 37.6308 21.0991 36.3006Z" fill="url(#paint50_linear_1_447)" fill-opacity="0.1"/>
<path d="M18.6054 16.416V11.6269C18.6054 9.46149 20.3828 7.70602 22.5753 7.70602H27.4241C29.6166 7.70602 31.394 9.46149 31.394 11.6269V16.416C31.394 18.5814 29.6166 20.3369 27.4241 20.3369H22.5753C20.3828 20.3369 18.6054 18.5814 18.6054 16.416Z" fill="url(#paint51_linear_1_447)" fill-opacity="0.1"/>
<defs>
<linearGradient id="paint0_linear_1_447" x1="81" y1="122" x2="81" y2="-38" gradientUnits="userSpaceOnUse">
<stop stop-color="#FF7F30"/>
<stop offset="1" stop-color="white"/>
</linearGradient>
<linearGradient id="paint1_linear_1_447" x1="81" y1="122" x2="81" y2="-38" gradientUnits="userSpaceOnUse">
<stop stop-color="#FF7F30"/>
<stop offset="1" stop-color="white"/>
</linearGradient>
<linearGradient id="paint2_linear_1_447" x1="81" y1="122" x2="81" y2="-38" gradientUnits="userSpaceOnUse">
<stop stop-color="#FF7F30"/>
<stop offset="1" stop-color="white"/>
</linearGradient>
<linearGradient id="paint3_linear_1_447" x1="81" y1="122" x2="81" y2="-38" gradientUnits="userSpaceOnUse">
<stop stop-color="#FF7F30"/>
<stop offset="1" stop-color="white"/>
</linearGradient>
<linearGradient id="paint4_linear_1_447" x1="81" y1="122" x2="81" y2="-38" gradientUnits="userSpaceOnUse">
<stop stop-color="#FF7F30"/>
<stop offset="1" stop-color="white"/>
</linearGradient>
<linearGradient id="paint5_linear_1_447" x1="81" y1="122" x2="81" y2="-38" gradientUnits="userSpaceOnUse">
<stop stop-color="#FF7F30"/>
<stop offset="1" stop-color="white"/>
</linearGradient>
<linearGradient id="paint6_linear_1_447" x1="81" y1="122" x2="81" y2="-38" gradientUnits="userSpaceOnUse">
<stop stop-color="#FF7F30"/>
<stop offset="1" stop-color="white"/>
</linearGradient>
<linearGradient id="paint7_linear_1_447" x1="81" y1="122" x2="81" y2="-38" gradientUnits="userSpaceOnUse">
<stop stop-color="#FF7F30"/>
<stop offset="1" stop-color="white"/>
</linearGradient>
<linearGradient id="paint8_linear_1_447" x1="81" y1="122" x2="81" y2="-38" gradientUnits="userSpaceOnUse">
<stop stop-color="#FF7F30"/>
<stop offset="1" stop-color="white"/>
</linearGradient>
<linearGradient id="paint9_linear_1_447" x1="81" y1="122" x2="81" y2="-38" gradientUnits="userSpaceOnUse">
<stop stop-color="#FF7F30"/>
<stop offset="1" stop-color="white"/>
</linearGradient>
<linearGradient id="paint10_linear_1_447" x1="81" y1="122" x2="81" y2="-38" gradientUnits="userSpaceOnUse">
<stop stop-color="#FF7F30"/>
<stop offset="1" stop-color="white"/>
</linearGradient>
<linearGradient id="paint11_linear_1_447" x1="81" y1="122" x2="81" y2="-38" gradientUnits="userSpaceOnUse">
<stop stop-color="#FF7F30"/>
<stop offset="1" stop-color="white"/>
</linearGradient>
<linearGradient id="paint12_linear_1_447" x1="81" y1="122" x2="81" y2="-38" gradientUnits="userSpaceOnUse">
<stop stop-color="#FF7F30"/>
<stop offset="1" stop-color="white"/>
</linearGradient>
<linearGradient id="paint13_linear_1_447" x1="81" y1="122" x2="81" y2="-38" gradientUnits="userSpaceOnUse">
<stop stop-color="#FF7F30"/>
<stop offset="1" stop-color="white"/>
</linearGradient>
<linearGradient id="paint14_linear_1_447" x1="81" y1="122" x2="81" y2="-38" gradientUnits="userSpaceOnUse">
<stop stop-color="#FF7F30"/>
<stop offset="1" stop-color="white"/>
</linearGradient>
<linearGradient id="paint15_linear_1_447" x1="81" y1="122" x2="81" y2="-38" gradientUnits="userSpaceOnUse">
<stop stop-color="#FF7F30"/>
<stop offset="1" stop-color="white"/>
</linearGradient>
<linearGradient id="paint16_linear_1_447" x1="81" y1="122" x2="81" y2="-38" gradientUnits="userSpaceOnUse">
<stop stop-color="#FF7F30"/>
<stop offset="1" stop-color="white"/>
</linearGradient>
<linearGradient id="paint17_linear_1_447" x1="81" y1="122" x2="81" y2="-38" gradientUnits="userSpaceOnUse">
<stop stop-color="#FF7F30"/>
<stop offset="1" stop-color="white"/>
</linearGradient>
<linearGradient id="paint18_linear_1_447" x1="81" y1="122" x2="81" y2="-38" gradientUnits="userSpaceOnUse">
<stop stop-color="#FF7F30"/>
<stop offset="1" stop-color="white"/>
</linearGradient>
<linearGradient id="paint19_linear_1_447" x1="81" y1="122" x2="81" y2="-38" gradientUnits="userSpaceOnUse">
<stop stop-color="#FF7F30"/>
<stop offset="1" stop-color="white"/>
</linearGradient>
<linearGradient id="paint20_linear_1_447" x1="81" y1="122" x2="81" y2="-38" gradientUnits="userSpaceOnUse">
<stop stop-color="#FF7F30"/>
<stop offset="1" stop-color="white"/>
</linearGradient>
<linearGradient id="paint21_linear_1_447" x1="81" y1="122" x2="81" y2="-38" gradientUnits="userSpaceOnUse">
<stop stop-color="#FF7F30"/>
<stop offset="1" stop-color="white"/>
</linearGradient>
<linearGradient id="paint22_linear_1_447" x1="81" y1="122" x2="81" y2="-38" gradientUnits="userSpaceOnUse">
<stop stop-color="#FF7F30"/>
<stop offset="1" stop-color="white"/>
</linearGradient>
<linearGradient id="paint23_linear_1_447" x1="81" y1="122" x2="81" y2="-38" gradientUnits="userSpaceOnUse">
<stop stop-color="#FF7F30"/>
<stop offset="1" stop-color="white"/>
</linearGradient>
<linearGradient id="paint24_linear_1_447" x1="81" y1="122" x2="81" y2="-38" gradientUnits="userSpaceOnUse">
<stop stop-color="#FF7F30"/>
<stop offset="1" stop-color="white"/>
</linearGradient>
<linearGradient id="paint25_linear_1_447" x1="81" y1="122" x2="81" y2="-38" gradientUnits="userSpaceOnUse">
<stop stop-color="#FF7F30"/>
<stop offset="1" stop-color="white"/>
</linearGradient>
<linearGradient id="paint26_linear_1_447" x1="81" y1="122" x2="81" y2="-38" gradientUnits="userSpaceOnUse">
<stop stop-color="#FF7F30"/>
<stop offset="1" stop-color="white"/>
</linearGradient>
<linearGradient id="paint27_linear_1_447" x1="81" y1="122" x2="81" y2="-38" gradientUnits="userSpaceOnUse">
<stop stop-color="#FF7F30"/>
<stop offset="1" stop-color="white"/>
</linearGradient>
<linearGradient id="paint28_linear_1_447" x1="81" y1="122" x2="81" y2="-38" gradientUnits="userSpaceOnUse">
<stop stop-color="#FF7F30"/>
<stop offset="1" stop-color="white"/>
</linearGradient>
<linearGradient id="paint29_linear_1_447" x1="81" y1="122" x2="81" y2="-38" gradientUnits="userSpaceOnUse">
<stop stop-color="#FF7F30"/>
<stop offset="1" stop-color="white"/>
</linearGradient>
<linearGradient id="paint30_linear_1_447" x1="81" y1="122" x2="81" y2="-38" gradientUnits="userSpaceOnUse">
<stop stop-color="#FF7F30"/>
<stop offset="1" stop-color="white"/>
</linearGradient>
<linearGradient id="paint31_linear_1_447" x1="81" y1="122" x2="81" y2="-38" gradientUnits="userSpaceOnUse">
<stop stop-color="#FF7F30"/>
<stop offset="1" stop-color="white"/>
</linearGradient>
<linearGradient id="paint32_linear_1_447" x1="81" y1="122" x2="81" y2="-38" gradientUnits="userSpaceOnUse">
<stop stop-color="#FF7F30"/>
<stop offset="1" stop-color="white"/>
</linearGradient>
<linearGradient id="paint33_linear_1_447" x1="81" y1="122" x2="81" y2="-38" gradientUnits="userSpaceOnUse">
<stop stop-color="#FF7F30"/>
<stop offset="1" stop-color="white"/>
</linearGradient>
<linearGradient id="paint34_linear_1_447" x1="81" y1="122" x2="81" y2="-38" gradientUnits="userSpaceOnUse">
<stop stop-color="#FF7F30"/>
<stop offset="1" stop-color="white"/>
</linearGradient>
<linearGradient id="paint35_linear_1_447" x1="81" y1="122" x2="81" y2="-38" gradientUnits="userSpaceOnUse">
<stop stop-color="#FF7F30"/>
<stop offset="1" stop-color="white"/>
</linearGradient>
<linearGradient id="paint36_linear_1_447" x1="81" y1="122" x2="81" y2="-38" gradientUnits="userSpaceOnUse">
<stop stop-color="#FF7F30"/>
<stop offset="1" stop-color="white"/>
</linearGradient>
<linearGradient id="paint37_linear_1_447" x1="81" y1="122" x2="81" y2="-38" gradientUnits="userSpaceOnUse">
<stop stop-color="#FF7F30"/>
<stop offset="1" stop-color="white"/>
</linearGradient>
<linearGradient id="paint38_linear_1_447" x1="81" y1="122" x2="81" y2="-38" gradientUnits="userSpaceOnUse">
<stop stop-color="#FF7F30"/>
<stop offset="1" stop-color="white"/>
</linearGradient>
<linearGradient id="paint39_linear_1_447" x1="81" y1="122" x2="81" y2="-38" gradientUnits="userSpaceOnUse">
<stop stop-color="#FF7F30"/>
<stop offset="1" stop-color="white"/>
</linearGradient>
<linearGradient id="paint40_linear_1_447" x1="81" y1="122" x2="81" y2="-38" gradientUnits="userSpaceOnUse">
<stop stop-color="#FF7F30"/>
<stop offset="1" stop-color="white"/>
</linearGradient>
<linearGradient id="paint41_linear_1_447" x1="81" y1="122" x2="81" y2="-38" gradientUnits="userSpaceOnUse">
<stop stop-color="#FF7F30"/>
<stop offset="1" stop-color="white"/>
</linearGradient>
<linearGradient id="paint42_linear_1_447" x1="81" y1="122" x2="81" y2="-38" gradientUnits="userSpaceOnUse">
<stop stop-color="#FF7F30"/>
<stop offset="1" stop-color="white"/>
</linearGradient>
<linearGradient id="paint43_linear_1_447" x1="81" y1="122" x2="81" y2="-38" gradientUnits="userSpaceOnUse">
<stop stop-color="#FF7F30"/>
<stop offset="1" stop-color="white"/>
</linearGradient>
<linearGradient id="paint44_linear_1_447" x1="81" y1="122" x2="81" y2="-38" gradientUnits="userSpaceOnUse">
<stop stop-color="#FF7F30"/>
<stop offset="1" stop-color="white"/>
</linearGradient>
<linearGradient id="paint45_linear_1_447" x1="81" y1="122" x2="81" y2="-38" gradientUnits="userSpaceOnUse">
<stop stop-color="#FF7F30"/>
<stop offset="1" stop-color="white"/>
</linearGradient>
<linearGradient id="paint46_linear_1_447" x1="81" y1="122" x2="81" y2="-38" gradientUnits="userSpaceOnUse">
<stop stop-color="#FF7F30"/>
<stop offset="1" stop-color="white"/>
</linearGradient>
<linearGradient id="paint47_linear_1_447" x1="81" y1="122" x2="81" y2="-38" gradientUnits="userSpaceOnUse">
<stop stop-color="#FF7F30"/>
<stop offset="1" stop-color="white"/>
</linearGradient>
<linearGradient id="paint48_linear_1_447" x1="81" y1="122" x2="81" y2="-38" gradientUnits="userSpaceOnUse">
<stop stop-color="#FF7F30"/>
<stop offset="1" stop-color="white"/>
</linearGradient>
<linearGradient id="paint49_linear_1_447" x1="81" y1="122" x2="81" y2="-38" gradientUnits="userSpaceOnUse">
<stop stop-color="#FF7F30"/>
<stop offset="1" stop-color="white"/>
</linearGradient>
<linearGradient id="paint50_linear_1_447" x1="81" y1="122" x2="81" y2="-38" gradientUnits="userSpaceOnUse">
<stop stop-color="#FF7F30"/>
<stop offset="1" stop-color="white"/>
</linearGradient>
<linearGradient id="paint51_linear_1_447" x1="81" y1="122" x2="81" y2="-38" gradientUnits="userSpaceOnUse">
<stop stop-color="#FF7F30"/>
<stop offset="1" stop-color="white"/>
</linearGradient>
</defs>
</svg>
