<svg width="43" height="29" viewBox="0 0 43 29" fill="none" xmlns="http://www.w3.org/2000/svg">
<path d="M42.1561 22.8414L37.5136 27.2067C36.4022 28.3298 34.8248 29 33.1399 29C31.455 29 29.8955 28.3479 28.6946 27.1343L24.1237 22.8232C23.0303 21.7908 22.9765 20.0881 23.9983 18.9831C25.02 17.8782 26.7228 17.8239 27.7983 18.8563L30.4512 21.356V9.98064C30.4512 7.48095 28.4436 5.45222 25.97 5.45222H24.1775C22.6897 5.45222 21.4888 4.2386 21.4888 2.73517C21.4888 1.23173 22.6897 0.0181137 24.1775 0.0181137H25.97C31.4012 0.0181137 35.8286 4.49219 35.8286 9.98064V21.356L38.4815 18.8563C39.557 17.8239 41.2598 17.8963 42.2816 18.9831C43.2853 20.0881 43.2316 21.7908 42.1561 22.8232V22.8414ZM18.818 23.5659H17.0255C14.5519 23.5659 12.5443 21.5372 12.5443 19.0375V7.66209L15.1972 10.1618C15.717 10.6508 16.3802 10.8863 17.0255 10.8863C17.7425 10.8863 18.4595 10.5965 18.9972 10.0169C20.001 8.91193 19.9473 7.20924 18.8718 6.17676L14.3009 1.86571C13.1179 0.670206 11.5405 0 9.85559 0C8.17065 0 6.6112 0.652092 5.48193 1.79325L0.857333 6.17676C-0.23608 7.20924 -0.289854 8.91193 0.73186 10.0169C1.75357 11.1218 3.43851 11.1761 4.53192 10.1437L7.18479 7.64397V19.0194C7.18479 24.5078 11.6122 28.9819 17.0434 28.9819H18.8359C20.3237 28.9819 21.5246 27.7683 21.5246 26.2648C21.5246 24.7614 20.3237 23.5478 18.8359 23.5478L18.818 23.5659Z" fill="#FF7F30"/>
</svg>
