<svg width="35" height="29" viewBox="0 0 35 29" fill="none" xmlns="http://www.w3.org/2000/svg">
<path d="M34.9362 13.5172L32.6221 25.1172C32.4031 26.2119 31.8128 27.1968 30.9516 27.9046C30.0903 28.6124 29.0112 28.9995 27.8976 29H4.82101C3.5424 29 2.31615 28.4908 1.41204 27.5844C0.507926 26.6779 0 25.4485 0 24.1667V4.83333C0 3.55145 0.507926 2.32208 1.41204 1.41565C2.31615 0.509225 3.5424 0 4.82101 0H11.249C11.564 0.00246633 11.8714 0.09771 12.1329 0.273889L16.5521 3.22222H25.712C26.9906 3.22222 28.2169 3.73145 29.121 4.63787C29.6427 5.16096 30.0326 5.7916 30.269 6.47782C30.558 7.31695 29.8136 8.05556 28.926 8.05556H28.5838C27.8853 8.05556 27.3416 7.41087 26.8484 6.91633C26.547 6.61419 26.1382 6.44444 25.712 6.44444H16.07C15.755 6.44198 15.4476 6.34674 15.1862 6.17056L11.0189 3.39036C10.8546 3.28073 10.6615 3.22222 10.464 3.22222H4.82101C4.3948 3.22222 3.98605 3.39196 3.68468 3.69411C3.38331 3.99625 3.214 4.40604 3.214 4.83333V24.1667C3.214 24.594 3.38331 25.0038 3.68468 25.3059C3.98605 25.608 4.3948 25.7778 4.82101 25.7778C4.98919 25.7778 5.13398 25.659 5.16693 25.4941L7.55291 13.5494C7.77192 12.4548 8.36221 11.4698 9.22347 10.762C10.0847 10.0542 11.1638 9.66719 12.2775 9.66667H31.7865C32.2627 9.66548 32.7331 9.77038 33.1639 9.97378C33.5947 10.1772 33.975 10.474 34.2773 10.8428C34.5775 11.212 34.7923 11.6434 34.9062 12.1059C35.0202 12.5683 35.0304 13.0503 34.9362 13.5172Z" fill="#FF7F30"/>
</svg>
