<svg width="35" height="29" viewBox="0 0 35 29" fill="none" xmlns="http://www.w3.org/2000/svg">
<path d="M34.4867 18.2178L28.8444 3.29875C28.8429 3.29585 28.8429 3.29295 28.8415 3.29005L28.84 3.2886C28.0963 1.32095 26.1756 0 24.0625 0C21.9494 0 20.0287 1.32095 19.2835 3.29005C19.0677 3.86135 18.9583 4.4631 18.9583 5.075V11.6H16.0417V5.075C16.0417 2.2765 13.7521 0 10.9375 0C8.82438 0 6.90375 1.32095 6.15854 3.29005C6.15708 3.29295 6.15708 3.29585 6.15563 3.29875L0.513333 18.2135L0.511875 18.2149C0.172083 19.1154 0 20.0593 0 21.025C0 25.4228 3.59917 29 8.02083 29C12.4425 29 16.0417 25.4228 16.0417 21.025V20.3H18.9583V21.025C18.9583 25.4228 22.5575 29 26.9792 29C31.4008 29 35 25.4228 35 21.025C35 20.0593 34.8279 19.1154 34.4867 18.2178ZM8.02083 26.1C5.20625 26.1 2.91667 23.8235 2.91667 21.025C2.91667 20.4102 3.02604 19.8084 3.24188 19.2386C3.98563 17.2724 5.90625 15.95 8.02083 15.95C10.8354 15.95 13.125 18.2265 13.125 21.025C13.125 23.8235 10.8354 26.1 8.02083 26.1ZM26.9792 26.1C24.1646 26.1 21.875 23.8235 21.875 21.025C21.875 18.2265 24.1646 15.95 26.9792 15.95C29.0938 15.95 31.0144 17.2724 31.7581 19.2386C31.974 19.8084 32.0833 20.4102 32.0833 21.025C32.0833 23.8235 29.7938 26.1 26.9792 26.1Z" fill="#FF7F30"/>
</svg>
