<svg width="32" height="32" viewBox="0 0 32 32" fill="none" xmlns="http://www.w3.org/2000/svg">
<path d="M0.585962 8.748C-0.195321 7.968 -0.195321 6.7 0.585962 5.92L3.25246 3.25333C3.82575 2.68 4.6857 2.50933 5.43232 2.82C6.18027 3.12933 6.66691 3.85867 6.66691 4.668V16.668C6.66691 17.7733 5.77096 18.668 4.66703 18.668C3.5631 18.668 2.66716 17.7733 2.66716 16.668V9.22133C1.96454 9.46933 1.14859 9.30933 0.585962 8.748ZM19.9994 10.6667V5.33333C19.9994 2.392 22.3912 0 25.3324 0C28.2735 0 30.6654 2.392 30.6654 5.33333V10.6667C30.6654 13.608 28.2735 16 25.3324 16C22.3912 16 19.9994 13.608 19.9994 10.6667ZM23.9991 10.6667C23.9991 11.4013 24.5964 12 25.3324 12C26.0683 12 26.6656 11.4013 26.6656 10.6667V5.33333C26.6656 4.59867 26.0683 4 25.3324 4C24.5964 4 23.9991 4.59867 23.9991 5.33333V10.6667ZM8.00015 12V6.66667C8.00015 3.72533 10.392 1.33333 13.3331 1.33333C16.2743 1.33333 18.6661 3.72533 18.6661 6.66667V12C18.6661 14.9413 16.2743 17.3333 13.3331 17.3333C10.392 17.3333 8.00015 14.9413 8.00015 12ZM11.9999 12C11.9999 12.7347 12.5972 13.3333 13.3331 13.3333C14.0691 13.3333 14.6664 12.7347 14.6664 12V6.66667C14.6664 5.932 14.0691 5.33333 13.3331 5.33333C12.5972 5.33333 11.9999 5.932 11.9999 6.66667V12ZM31.964 18.9587C31.7586 17.8733 30.7014 17.16 29.6254 17.368L1.62723 22.7013C0.541965 22.908 -0.171322 23.9547 0.0366643 25.04C0.219319 25.9987 1.05793 26.6667 1.9992 26.6667C2.12453 26.6667 2.24986 26.6547 2.37518 26.6307L30.3734 21.2973C31.4586 21.0907 32.1719 20.044 31.964 18.9587ZM29.6214 24.7027L12.2892 28.036C11.2053 28.2453 10.4933 29.2933 10.704 30.3773C10.888 31.3347 11.7252 32 12.6652 32C12.7905 32 12.9172 31.988 13.0452 31.964L30.3774 28.6307C31.4613 28.4213 32.1733 27.3733 31.9626 26.2893C31.7546 25.2053 30.7067 24.4933 29.6214 24.7027Z" fill="#FF7F30"/>
</svg>
