<svg width="16" height="16" viewBox="0 0 16 16" fill="none" xmlns="http://www.w3.org/2000/svg">
<path d="M7.99308 0C3.57482 0.00382455 -0.00382149 3.58862 3.06266e-06 8.00692C0.00382761 12.4252 3.58863 16.0038 8.00692 16C12.4225 15.9962 16 12.4156 16 8.00001C15.9924 3.58218 12.4109 0.00379214 7.99308 0ZM11.2775 7.20483L11.2706 7.21174L8.15906 12.8401C8.10218 12.9475 7.99016 13.0141 7.86865 13.0129H7.77184C7.62586 12.9662 7.52944 12.8272 7.53676 12.6741L7.67489 9.76162C7.68628 9.52151 7.49468 9.32062 7.25431 9.32062H4.99917C4.88376 9.31935 4.77693 9.25943 4.71567 9.16158C4.65493 9.05929 4.65493 8.93197 4.71567 8.82968L7.82717 3.15985C7.90197 3.02126 8.06241 2.95252 8.21439 2.99391C8.35891 3.04262 8.45443 3.18027 8.44947 3.3327L8.3173 6.24611C8.30642 6.4859 8.49788 6.68625 8.73792 6.68625H10.994C11.1134 6.68606 11.2229 6.75282 11.2775 6.8591C11.3493 6.96317 11.3493 7.10079 11.2775 7.20483Z" fill="#FF7F30"/>
</svg>
