<svg width="13" height="17" viewBox="0 0 13 17" fill="none" xmlns="http://www.w3.org/2000/svg">
<path d="M12.1715 6.25962H11.1282V4.86858C11.1282 2.18402 8.94421 0 6.25962 0C3.57502 0 1.39104 2.18402 1.39104 4.86858V6.25962H0.347767C0.155545 6.25962 0 6.41516 0 6.60738V15.3013C0 16.0685 0.623842 16.6923 1.39104 16.6923H11.1282C11.8954 16.6923 12.5192 16.0685 12.5192 15.3013V6.60738C12.5192 6.41516 12.3637 6.25962 12.1715 6.25962ZM7.30086 13.5241C7.31172 13.6223 7.28016 13.7208 7.21427 13.7945C7.14838 13.8681 7.05397 13.9103 6.95515 13.9103H5.56411C5.4653 13.9103 5.37088 13.8681 5.30499 13.7945C5.2391 13.7208 5.20751 13.6223 5.2184 13.5241L5.43778 11.5514C5.08154 11.2922 4.86861 10.8823 4.86861 10.4327C4.86861 9.66553 5.49245 9.04166 6.25965 9.04166C7.02684 9.04166 7.65068 9.6655 7.65068 10.4327C7.65068 10.8823 7.43776 11.2922 7.08152 11.5514L7.30086 13.5241ZM9.04166 6.25962H3.47758V4.86858C3.47758 3.33458 4.72562 2.08654 6.25962 2.08654C7.79361 2.08654 9.04166 3.33458 9.04166 4.86858V6.25962Z" fill="white"/>
</svg>
