<svg width="18" height="22" viewBox="0 0 18 22" fill="none" xmlns="http://www.w3.org/2000/svg">
<path d="M6.87607 21.7353C5.22401 21.8254 3.5858 21.3934 2.19847 20.5017C1.59977 20.0552 1.09701 19.4953 0.719537 18.8546C0.342068 18.2138 0.0974566 17.5051 0 16.7699H4.45151C4.52571 16.9785 4.64719 17.1675 4.80664 17.3225C4.96609 17.4776 5.15928 17.5945 5.37143 17.6643C5.93225 17.8704 6.52739 17.9698 7.12553 17.9573C7.83204 18.0011 8.5281 17.7716 9.06674 17.3173C9.59361 16.7896 9.93522 16.1085 10.0412 15.3743L10.4076 13.6781H10.2517C9.75956 14.1872 9.17513 14.6004 8.52881 14.8963C7.80058 15.2481 7.00048 15.4301 6.19002 15.4283C5.10463 15.4605 4.03966 15.132 3.16518 14.4953C2.33486 13.8704 1.7262 13.0012 1.42667 12.0126C1.08822 10.9121 1.03992 9.74429 1.28634 8.62011L2.97028 0H7.30485L5.74565 8.0881C5.58759 8.69594 5.5716 9.33141 5.69888 9.94628C5.81476 10.4468 6.10788 10.8899 6.52525 11.1953C6.98163 11.5104 7.52808 11.6725 8.08445 11.658C8.62696 11.671 9.1638 11.5463 9.64364 11.2956C10.1051 11.047 10.4923 10.6827 10.7663 10.2393C11.0913 9.71945 11.3062 9.13973 11.3977 8.53529L13.0817 0H17.3383L14.2667 15.4206C14.0299 17.1907 13.2076 18.8335 11.9279 20.093C10.5185 21.2597 8.71046 21.8475 6.87607 21.7353Z" fill="white"/>
</svg>
