<svg width="34" height="29" viewBox="0 0 34 29" fill="none" xmlns="http://www.w3.org/2000/svg">
<path d="M28.1562 0H5.84375C2.62438 0 0 2.65814 0 5.91895V23.0811C-6.0842e-07 26.3419 2.62437 29 5.84375 29H28.1562C31.3756 29 34 26.3419 34 23.0811V5.91895C34 2.65814 31.3756 0 28.1562 0ZM30.8125 23.0811C30.8125 24.5662 29.6225 25.7715 28.1562 25.7715H5.84375C4.3775 25.7715 3.1875 24.5662 3.1875 23.0811V9.68339H30.8125V23.0811ZM5.08658 4.05377C5.68158 3.45111 6.74408 3.45111 7.33908 4.05377C7.63658 4.3551 7.80658 4.77481 7.80658 5.19451C7.80658 5.61422 7.63658 6.03393 7.33908 6.33525C7.04158 6.63658 6.6272 6.80877 6.21283 6.80877C5.79845 6.80877 5.38408 6.63658 5.08658 6.33525C4.78908 6.03393 4.61908 5.61422 4.61908 5.19451C4.61908 4.77481 4.78908 4.3551 5.08658 4.05377ZM9.50674 4.05377C10.1017 3.45111 11.1642 3.45111 11.7592 4.05377C12.0567 4.3551 12.2267 4.77481 12.2267 5.19451C12.2267 5.61422 12.0567 6.03393 11.7592 6.33525C11.4617 6.63658 11.0474 6.80877 10.633 6.80877C10.2186 6.80877 9.80424 6.63658 9.50674 6.33525C9.20924 6.03393 9.03924 5.61422 9.03924 5.19451C9.03924 4.77481 9.20924 4.3551 9.50674 4.05377ZM13.9269 4.05377C14.5219 3.45111 15.5844 3.45111 16.1794 4.05377C16.4769 4.3551 16.6469 4.77481 16.6469 5.19451C16.6469 5.61422 16.4769 6.03393 16.1794 6.33525C15.8819 6.63658 15.4675 6.80877 15.0532 6.80877C14.6388 6.80877 14.2244 6.63658 13.9269 6.33525C13.6294 6.03393 13.4594 5.61422 13.4594 5.19451C13.4594 4.77481 13.6294 4.3551 13.9269 4.05377Z" fill="#FF7F30"/>
</svg>
