<svg width="16" height="17" viewBox="0 0 16 17" fill="none" xmlns="http://www.w3.org/2000/svg">
<path d="M7.8544 16.3867C6.39599 16.4255 4.95188 16.0937 3.66016 15.4229C2.4905 14.7827 1.54458 13.8068 0.947172 12.6241C0.283766 11.2377 -0.0394507 9.7161 0.00384055 8.18293C-0.0355374 6.66748 0.287698 5.16426 0.947172 3.79578C1.54978 2.60761 2.50072 1.62682 3.67577 0.981528C4.96054 0.305706 6.39962 -0.031527 7.8544 0.00231831C9.27598 -0.0279779 10.6802 0.315232 11.9239 0.99694C13.0871 1.65204 14.0242 2.63797 14.6135 3.82663C15.2424 5.09499 15.5577 6.49292 15.5335 7.90536C15.5334 8.20409 15.5178 8.50262 15.4867 8.79976C15.4867 9.09275 15.4243 9.33948 15.3853 9.57079H3.05988V6.57149H11.3626C11.2542 6.07535 11.0618 5.6009 10.7935 5.16821C10.5038 4.70844 10.0981 4.33113 9.61631 4.07335C9.07277 3.78545 8.46301 3.642 7.84663 3.657C7.18462 3.64162 6.5322 3.81564 5.96779 4.15816C5.41975 4.50933 4.98645 5.01017 4.72043 5.59998C4.40242 6.29701 4.24783 7.05612 4.26825 7.82055C4.24782 8.73038 4.36878 9.63792 4.62688 10.5114C4.82105 11.1811 5.22168 11.774 5.77289 12.2077C6.37085 12.6175 7.08879 12.8208 7.81543 12.786C8.43204 12.8234 9.04648 12.6842 9.58511 12.385C10.0319 12.0684 10.4021 11.6576 10.6688 11.1822H15.2684C14.9929 12.119 14.5493 12.9992 13.9587 13.7806C13.3287 14.6009 12.5039 15.255 11.5575 15.685C10.3922 16.1912 9.1264 16.4311 7.8544 16.3867Z" fill="white"/>
</svg>
