<svg width="14" height="16" viewBox="0 0 14 16" fill="none" xmlns="http://www.w3.org/2000/svg">
<path d="M0 15.7907V0H4.33457V12.0126H6.97739C7.47741 12.0385 7.97008 11.8852 8.36508 11.5809C8.53939 11.4207 8.67535 11.224 8.76301 11.0053C8.85068 10.7865 8.88787 10.5512 8.87184 10.3164C8.88392 10.0843 8.84485 9.85239 8.75735 9.63672C8.66986 9.42105 8.536 9.22675 8.36508 9.0673C7.97363 8.75494 7.47976 8.59579 6.97739 8.62011H3.18856V4.90374H7.54651C8.56476 4.88326 9.57215 5.11379 10.4778 5.57453C11.3184 6.00526 12.0104 6.67356 12.4658 7.4944C12.9313 8.36377 13.1747 9.3326 13.1747 10.3164C13.1747 11.3001 12.9313 12.269 12.4658 13.1383C12.0071 13.9645 11.3168 14.6419 10.4778 15.089C9.57878 15.5704 8.5686 15.8122 7.54651 15.7907H0Z" fill="white"/>
</svg>
