<svg width="46" height="35" viewBox="0 0 46 35" fill="none" xmlns="http://www.w3.org/2000/svg">
<path fill-rule="evenodd" clip-rule="evenodd" d="M19.2416 5.12534L0.00584775 10.2538L0.00291804 20.2483L0 30.2428L3.73217 32.6226C7.22293 34.8484 7.46738 35.0022 7.51105 35C7.53672 34.9987 16.2059 32.692 26.7759 29.874L45.9942 24.7505L45.9971 14.7559L46 4.76141L42.2678 2.38225C40.2151 1.07372 38.5225 0.00170742 38.5065 9.33524e-07C38.4904 -0.00169395 29.8212 2.30471 19.2416 5.12534ZM40.8295 11.5377C40.2132 12.2802 39.709 12.8908 39.7089 12.8947C39.7088 12.8986 40.2129 13.2408 40.8292 13.6551L41.9497 14.4084L41.9497 16.295L41.9497 18.1816L40.6921 18.5169C40.0004 18.7013 39.4252 18.8546 39.414 18.8576C39.3946 18.8628 39.3935 18.7897 39.3935 17.4425L39.3935 16.022L38.4752 15.4242C37.9702 15.0953 37.5139 14.7989 37.4613 14.7653L37.3656 14.7043L36.404 14.9603C35.8752 15.101 35.4149 15.224 35.3812 15.2334L35.32 15.2507V17.6011C35.32 18.8939 35.3175 19.9516 35.3144 19.9516C35.3113 19.9516 34.7404 20.1031 34.0457 20.2882C33.351 20.4734 32.7757 20.6249 32.7673 20.6249C32.7548 20.6249 32.7521 19.6037 32.7521 14.9024C32.7521 11.4682 32.7563 9.1774 32.7627 9.17346C32.775 9.1659 35.2933 8.49372 35.3093 8.49372C35.3157 8.49372 35.32 9.38094 35.32 10.7052C35.32 11.9215 35.3224 12.9167 35.3254 12.9167C35.3591 12.9167 37.352 12.3759 37.3711 12.3616C37.3854 12.3508 37.8463 11.8097 38.3953 11.159L39.3935 9.97596V8.68922C39.3935 7.98153 39.3965 7.40209 39.3965 7.40209C39.3965 7.40209 39.9719 7.24889 40.6716 7.06215L41.9439 6.72262L41.9469 8.45524L41.9498 10.1879L40.8295 11.5377ZM32.1528 11.6591C32.1506 11.6614 30.76 12.0333 29.0626 12.4857L25.9764 13.3083L25.9735 16.7103L25.9705 20.1123L26.0493 20.0904C26.0927 20.0783 27.5017 19.7025 29.1804 19.2552C30.8592 18.8079 32.2419 18.4391 32.2531 18.4356C32.2725 18.4296 32.2735 18.4902 32.2735 19.5967C32.2735 20.2388 32.2705 20.7642 32.2668 20.7642C32.2632 20.7642 30.6808 21.1851 28.7506 21.6996C26.8203 22.2141 25.2332 22.6355 25.2235 22.6359C25.2139 22.6364 24.8042 22.4146 24.3131 22.1429L23.4202 21.6491L23.4173 17.3935L23.4143 13.138L24.3167 12.1593L25.2191 11.1805L26.4498 10.8524C27.1267 10.672 28.6864 10.2562 29.9158 9.92855L32.151 9.33277L32.1539 10.4939C32.1556 11.1325 32.1551 11.6569 32.1528 11.6591ZM22.6673 13.0253V14.1904L22.5069 14.2331C22.4186 14.2566 21.7423 14.4368 21.0041 14.6336L19.6618 14.9914L19.6588 18.3886C19.6564 21.1646 19.6587 21.7858 19.671 21.7858C19.6793 21.7858 20.3527 21.6081 21.1675 21.3911C21.9822 21.174 22.653 20.9964 22.6581 20.9964C22.6633 20.9964 22.6661 21.5198 22.6645 22.1595L22.6615 23.3226L18.3837 24.4633C16.0308 25.0907 14.1029 25.6046 14.1029 25.6046C14.1029 25.6046 14.1 25.0808 14.1 24.4401V23.2752L14.3597 23.2057C14.5025 23.1675 15.1774 22.9878 15.8594 22.8064L17.0994 22.4765L17.0996 19.078C17.0997 17.2089 17.0953 15.6795 17.0899 15.6795C17.0846 15.6795 16.4137 15.8572 15.5992 16.0742C14.7846 16.2913 14.1141 16.4689 14.109 16.4689C14.104 16.4689 14.1012 15.9455 14.1028 15.3057L14.1058 14.1425L18.3778 13.0026C20.7274 12.3756 22.6538 11.8621 22.6586 11.8615C22.6634 11.8608 22.6673 12.3845 22.6673 13.0253ZM12.2272 15.9197L13.4697 16.868V17.9045V18.941L12.5768 20.0816C12.0857 20.7089 11.684 21.2249 11.6841 21.2283C11.6842 21.2316 12.0861 21.5031 12.5771 21.8317L13.4698 22.429L13.4668 24.0826L13.4638 25.7362L12.2091 26.0706C11.519 26.2545 10.9425 26.4079 10.9281 26.4115L10.9018 26.4181L10.9013 25.2251L10.9009 24.0321L9.8906 23.3762C9.33496 23.0154 8.87165 22.722 8.86101 22.7241C8.85037 22.7262 8.39188 22.8476 7.84215 22.994C7.2924 23.1403 6.83938 23.2601 6.83543 23.2601C6.83147 23.2601 6.82822 24.2235 6.82822 25.4011C6.82822 27.4301 6.82715 27.5425 6.8078 27.5482C6.72159 27.5739 4.29609 28.217 4.28556 28.217C4.2753 28.217 4.27202 26.8278 4.27202 22.4903V16.7635L7.62485 15.8687C9.4689 15.3765 10.9793 14.9733 10.9812 14.9726C10.9831 14.9719 11.5438 15.3981 12.2272 15.9197ZM8.34862 18.0049L6.86342 18.4018L6.86333 19.6633L6.86324 20.9248L6.90118 20.9146C6.92204 20.909 7.58779 20.7317 8.38062 20.5208C9.17345 20.3098 9.83335 20.1324 9.84705 20.1265C9.86077 20.1206 10.1141 19.8085 10.4101 19.4329L10.9482 18.7501L10.9483 18.5754L10.9485 18.4006L10.4145 18.0074C10.1208 17.7911 9.86999 17.6127 9.85715 17.6111C9.84431 17.6094 9.16547 17.7866 8.34862 18.0049Z" fill="#97A2AF"/>
</svg>
