<svg width="29" height="29" viewBox="0 0 29 29" fill="none" xmlns="http://www.w3.org/2000/svg">
<path d="M0 8.47615V9.86253C0 10.492 0.515926 11.0022 1.15236 11.0022H2.55415C3.19057 11.0022 3.7065 10.492 3.7065 9.86253V8.47615C3.7065 7.84672 3.19057 7.33646 2.55415 7.33646H1.15236C0.515926 7.33646 0 7.84672 0 8.47615Z" fill="#FF7F30"/>
<path d="M0 12.1418V13.5282C0 14.1577 0.515926 14.6679 1.15236 14.6679H2.55414C3.19057 14.6679 3.70649 14.1577 3.70649 13.5282V12.1418C3.70649 11.5124 3.19057 11.0022 2.55415 11.0022H1.15236C0.515926 11.0022 0 11.5124 0 12.1418Z" fill="#FF7F30"/>
<path d="M0 15.8076V17.194C0 17.8234 0.515926 18.3337 1.15236 18.3337H2.55414C3.19057 18.3337 3.7065 17.8234 3.7065 17.194V15.8076C3.7065 15.1782 3.19057 14.6679 2.55414 14.6679H1.15236C0.515926 14.6679 0 15.1782 0 15.8076Z" fill="#FF7F30"/>
<path d="M0 19.4734V20.8598C0 21.4892 0.515926 21.9995 1.15236 21.9995H2.55414C3.19057 21.9995 3.70649 21.4892 3.70649 20.8598V19.4734C3.70649 18.844 3.19057 18.3337 2.55414 18.3337H1.15236C0.515926 18.3337 0 18.844 0 19.4734Z" fill="#FF7F30"/>
<path d="M3.70685 4.81038V6.19675C3.70685 6.82619 4.22278 7.33644 4.85921 7.33644H6.26099C6.89742 7.33644 7.41335 6.82619 7.41335 6.19675V4.81038C7.41335 4.18094 6.89742 3.67069 6.26099 3.67069H4.85921C4.22278 3.67069 3.70685 4.18094 3.70685 4.81038Z" fill="#FF7F30"/>
<path d="M3.71185 8.47614V9.86252C3.71185 10.492 4.22778 11.0022 4.8642 11.0022H6.266C6.90242 11.0022 7.41835 10.492 7.41835 9.86252V8.47614C7.41835 7.84671 6.90242 7.33645 6.266 7.33645H4.8642C4.22778 7.33645 3.71185 7.84671 3.71185 8.47614Z" fill="#FF7F30"/>
<path d="M3.70649 12.1418V13.5282C3.70649 14.1577 4.22278 14.6679 4.8592 14.6679H6.26099C6.89742 14.6679 7.41334 14.1577 7.41334 13.5282V12.1419C7.41334 11.5124 6.89742 11.0022 6.26099 11.0022H4.8592C4.22278 11.0022 3.70649 11.5124 3.70649 12.1418Z" fill="#FF7F30"/>
<path d="M3.7065 15.8076V17.194C3.7065 17.8234 4.22278 18.3337 4.8592 18.3337H6.26099C6.89742 18.3337 7.41335 17.8234 7.41335 17.194V15.8076C7.41335 15.1782 6.89742 14.6679 6.26099 14.6679H4.8592C4.22278 14.6679 3.7065 15.1782 3.7065 15.8076Z" fill="#FF7F30"/>
<path d="M7.41245 4.81038V6.19675C7.41245 6.82619 7.92838 7.33644 8.56481 7.33644H9.96659C10.603 7.33644 11.1189 6.82619 11.1189 6.19675V4.81038C11.1189 4.18094 10.603 3.67069 9.96659 3.67069H8.56481C7.92838 3.67069 7.41245 4.18094 7.41245 4.81038Z" fill="#FF7F30"/>
<path d="M7.41245 1.14461V2.53099C7.41245 3.16042 7.92838 3.67069 8.56481 3.67069H9.96659C10.603 3.67069 11.1189 3.16042 11.1189 2.53099V1.14461C11.1189 0.51518 10.603 0.00492498 9.96659 0.00492498H8.56481C7.92838 0.00492498 7.41245 0.51518 7.41245 1.14461Z" fill="#FF7F30"/>
<path d="M7.41745 8.47614V9.86252C7.41745 10.492 7.93337 11.0022 8.5698 11.0022H9.97159C10.608 11.0022 11.124 10.492 11.124 9.86252V8.47614C11.124 7.84671 10.608 7.33645 9.97159 7.33645H8.5698C7.93337 7.33645 7.41745 7.84671 7.41745 8.47614Z" fill="#FF7F30"/>
<path d="M11.1193 4.80541V6.19179C11.1193 6.82122 11.6352 7.33148 12.2717 7.33148H13.6734C14.3099 7.33148 14.8258 6.82122 14.8258 6.19179V4.80541C14.8258 4.17598 14.3099 3.66572 13.6734 3.66572H12.2717C11.6352 3.66572 11.1193 4.17598 11.1193 4.80541Z" fill="#FF7F30"/>
<path d="M11.1243 1.13969V2.52606C11.1243 3.15549 11.6402 3.66576 12.2767 3.66576H13.6784C14.3149 3.66576 14.8308 3.15549 14.8308 2.52606V1.13969C14.8308 0.510255 14.3149 0 13.6784 0H12.2767C11.6402 0 11.1243 0.510255 11.1243 1.13969Z" fill="#FF7F30"/>
<path d="M11.1243 8.47118V9.85755C11.1243 10.487 11.6402 10.9972 12.2767 10.9972H13.6784C14.3149 10.9972 14.8308 10.487 14.8308 9.85755V8.47118C14.8308 7.84174 14.3149 7.33149 13.6784 7.33149H12.2767C11.6402 7.33149 11.1243 7.84174 11.1243 8.47118Z" fill="#FF7F30"/>
<path d="M14.8308 1.13969V2.52606C14.8308 3.15549 15.3471 3.66576 15.9835 3.66576H17.3853C18.0217 3.66576 18.5376 3.1555 18.5376 2.52607V1.1397C18.5376 0.510262 18.0217 7.62806e-06 17.3853 7.62806e-06H15.9835C15.3471 7.62806e-06 14.8308 0.510255 14.8308 1.13969Z" fill="#FF7F30"/>
<path d="M4.11556 23.2921V24.3775C4.11556 24.868 4.51758 25.2656 5.0135 25.2656H6.11098C6.6069 25.2656 7.00892 24.868 7.00892 24.3775V23.2921C7.00892 22.8016 6.6069 22.404 6.11098 22.404H5.0135C4.51758 22.404 4.11556 22.8016 4.11556 23.2921Z" fill="#FF7F30"/>
<path d="M4.11556 19.6263V20.7117C4.11556 21.2022 4.51758 21.5998 5.0135 21.5998H6.11098C6.6069 21.5998 7.00893 21.2022 7.00893 20.7117V19.6263C7.00893 19.1359 6.6069 18.7383 6.11098 18.7383H5.0135C4.51758 18.7383 4.11556 19.1359 4.11556 19.6263Z" fill="#FF7F30"/>
<path d="M8.14107 23.4154V24.2591C8.14107 24.6406 8.45375 24.9498 8.83947 24.9498H9.69251C10.0782 24.9498 10.3909 24.6406 10.3909 24.2591V23.4154C10.3909 23.034 10.0782 22.7247 9.69251 22.7247H8.83947C8.45375 22.7247 8.14107 23.034 8.14107 23.4154Z" fill="#FF7F30"/>
<path d="M8.57975 27.244V27.7571C8.57975 27.9915 8.77182 28.1814 9.00876 28.1814H9.52757C9.76451 28.1814 9.95658 27.9915 9.95658 27.7571V27.244C9.95658 27.0097 9.76451 26.8197 9.52757 26.8197H9.00876C8.77182 26.8197 8.57975 27.0097 8.57975 27.244Z" fill="#FF7F30"/>
<path d="M7.41745 12.1419V13.5282C7.41745 14.1577 7.93337 14.6679 8.5698 14.6679H9.97159C10.608 14.6679 11.1239 14.1577 11.1239 13.5282V12.1419C11.1239 11.5124 10.608 11.0022 9.97159 11.0022H8.5698C7.93337 11.0022 7.41745 11.5124 7.41745 12.1419Z" fill="#FF7F30"/>
<path d="M7.82238 15.9605V17.046C7.82238 17.5364 8.22439 17.934 8.72031 17.934H9.8178C10.3137 17.934 10.7157 17.5364 10.7157 17.046V15.9605C10.7157 15.4701 10.3137 15.0725 9.8178 15.0725H8.72031C8.22439 15.0725 7.82238 15.4701 7.82238 15.9605Z" fill="#FF7F30"/>
<path d="M7.82238 19.6263V20.7117C7.82238 21.2022 8.2244 21.5998 8.72032 21.5998H9.8178C10.3137 21.5998 10.7157 21.2022 10.7157 20.7117V19.6263C10.7157 19.1358 10.3137 18.7382 9.8178 18.7382H8.72032C8.2244 18.7382 7.82238 19.1358 7.82238 19.6263Z" fill="#FF7F30"/>
<path d="M11.8478 23.4105V24.2541C11.8478 24.6356 12.1605 24.9449 12.5462 24.9449H13.3993C13.785 24.9449 14.0977 24.6356 14.0977 24.2541V23.4105C14.0977 23.029 13.785 22.7198 13.3993 22.7198H12.5462C12.1605 22.7198 11.8478 23.029 11.8478 23.4105Z" fill="#FF7F30"/>
<path d="M12.2866 27.2489V27.762C12.2866 27.9964 12.4787 28.1863 12.7156 28.1863H13.2344C13.4714 28.1863 13.6634 27.9964 13.6634 27.762V27.2489C13.6634 27.0146 13.4714 26.8246 13.2344 26.8246H12.7156C12.4787 26.8246 12.2866 27.0146 12.2866 27.2489Z" fill="#FF7F30"/>
<path d="M11.528 12.2948V13.3802C11.528 13.8707 11.93 14.2683 12.4259 14.2683H13.5234C14.0193 14.2683 14.4213 13.8707 14.4213 13.3802V12.2948C14.4213 11.8044 14.0193 11.4068 13.5234 11.4068H12.4259C11.93 11.4068 11.528 11.8044 11.528 12.2948Z" fill="#FF7F30"/>
<path d="M11.533 15.9605V17.046C11.533 17.5364 11.935 17.934 12.4309 17.934H13.5284C14.0243 17.934 14.4263 17.5364 14.4263 17.046V15.9605C14.4263 15.4701 14.0243 15.0725 13.5284 15.0725H12.4309C11.935 15.0725 11.533 15.4701 11.533 15.9605Z" fill="#FF7F30"/>
<path d="M11.8478 19.7447V20.5884C11.8478 20.9699 12.1605 21.2791 12.5462 21.2791H13.3993C13.785 21.2791 14.0977 20.9699 14.0977 20.5884V19.7447C14.0977 19.3633 13.785 19.054 13.3993 19.054H12.5462C12.1605 19.054 11.8478 19.3633 11.8478 19.7447Z" fill="#FF7F30"/>
<path d="M15.9933 23.5783V24.0914C15.9933 24.3257 16.1854 24.5157 16.4223 24.5157H16.9411C17.1781 24.5157 17.3702 24.3257 17.3702 24.0914V23.5783C17.3702 23.3439 17.1781 23.154 16.9411 23.154H16.4223C16.1854 23.154 15.9933 23.3439 15.9933 23.5783Z" fill="#FF7F30"/>
<path d="M15.9933 27.244V27.7571C15.9933 27.9914 16.1854 28.1814 16.4223 28.1814H16.9411C17.1781 28.1814 17.3702 27.9914 17.3702 27.7571V27.244C17.3702 27.0097 17.1781 26.8197 16.9411 26.8197H16.4223C16.1854 26.8197 15.9933 27.0097 15.9933 27.244Z" fill="#FF7F30"/>
<path d="M15.2398 4.95346V6.03887C15.2398 6.52934 15.6418 6.92694 16.1378 6.92694H17.2352C17.7312 6.92694 18.1332 6.52934 18.1332 6.03887V4.95346C18.1332 4.46299 17.7312 4.06538 17.2352 4.06538H16.1378C15.6418 4.06538 15.2398 4.46299 15.2398 4.95346Z" fill="#FF7F30"/>
<path d="M15.2348 8.62414V9.70956C15.2348 10.2 15.6369 10.5976 16.1328 10.5976H17.2302C17.7262 10.5976 18.1282 10.2 18.1282 9.70956V8.62414C18.1282 8.13367 17.7262 7.73607 17.2302 7.73607H16.1328C15.6369 7.73607 15.2348 8.13367 15.2348 8.62414Z" fill="#FF7F30"/>
<path d="M15.2348 12.2899V13.3753C15.2348 13.8658 15.6369 14.2634 16.1328 14.2634H17.2302C17.7262 14.2634 18.1282 13.8658 18.1282 13.3753V12.2899C18.1282 11.7994 17.7262 11.4018 17.2302 11.4018H16.1328C15.6369 11.4018 15.2348 11.7994 15.2348 12.2899Z" fill="#FF7F30"/>
<path d="M15.5598 16.079V16.9226C15.5598 17.3041 15.8724 17.6133 16.2582 17.6133H17.1112C17.4969 17.6133 17.8096 17.3041 17.8096 16.9226V16.079C17.8096 15.6975 17.4969 15.3882 17.1112 15.3882H16.2582C15.8724 15.3882 15.5598 15.6975 15.5598 16.079Z" fill="#FF7F30"/>
<path d="M15.5598 19.7447V20.5884C15.5598 20.9699 15.8725 21.2791 16.2582 21.2791H17.1112C17.4969 21.2791 17.8096 20.9699 17.8096 20.5884V19.7447C17.8096 19.3633 17.4969 19.054 17.1112 19.054H16.2582C15.8725 19.054 15.5598 19.3633 15.5598 19.7447Z" fill="#FF7F30"/>
<path d="M19.7053 23.5783V24.0914C19.7053 24.3257 19.8974 24.5157 20.1343 24.5157H20.6531C20.8901 24.5157 21.0821 24.3257 21.0821 24.0914V23.5783C21.0821 23.3439 20.8901 23.154 20.6531 23.154H20.1343C19.8974 23.154 19.7053 23.3439 19.7053 23.5783Z" fill="#FF7F30"/>
<path d="M19.7003 27.244V27.7571C19.7003 27.9915 19.8924 28.1814 20.1293 28.1814H20.6481C20.8851 28.1814 21.0771 27.9915 21.0771 27.7571V27.244C21.0771 27.0097 20.8851 26.8197 20.6481 26.8197H20.1293C19.8924 26.8197 19.7003 27.0097 19.7003 27.244Z" fill="#FF7F30"/>
<path d="M18.9467 4.95842V6.04383C18.9467 6.5343 19.3487 6.9319 19.8446 6.9319H20.9421C21.438 6.9319 21.84 6.5343 21.84 6.04383V4.95842C21.84 4.46795 21.438 4.07034 20.9421 4.07034H19.8446C19.3487 4.07034 18.9467 4.46795 18.9467 4.95842Z" fill="#FF7F30"/>
<path d="M18.9467 1.28765V2.37307C18.9467 2.86354 19.3487 3.26114 19.8446 3.26114H20.9421C21.438 3.26114 21.84 2.86354 21.84 2.37307V1.28765C21.84 0.797186 21.438 0.399582 20.9421 0.399582H19.8446C19.3487 0.399582 18.9467 0.797186 18.9467 1.28765Z" fill="#FF7F30"/>
<path d="M19.2654 8.74748V9.59114C19.2654 9.97262 19.5781 10.2819 19.9638 10.2819H20.8168C21.2025 10.2819 21.5152 9.97262 21.5152 9.59114V8.74748C21.5152 8.366 21.2025 8.05676 20.8168 8.05676H19.9638C19.5781 8.05676 19.2654 8.366 19.2654 8.74748Z" fill="#FF7F30"/>
<path d="M19.2654 12.4132V13.2569C19.2654 13.6384 19.5781 13.9476 19.9638 13.9476H20.8168C21.2025 13.9476 21.5152 13.6384 21.5152 13.2569V12.4132C21.5152 12.0318 21.2025 11.7225 20.8168 11.7225H19.9638C19.5781 11.7225 19.2654 12.0318 19.2654 12.4132Z" fill="#FF7F30"/>
<path d="M19.2654 16.079V16.9226C19.2654 17.3041 19.5781 17.6133 19.9638 17.6133H20.8168C21.2025 17.6133 21.5152 17.3041 21.5152 16.9226V16.079C21.5152 15.6975 21.2025 15.3882 20.8168 15.3882H19.9638C19.5781 15.3882 19.2654 15.6975 19.2654 16.079Z" fill="#FF7F30"/>
<path d="M19.7053 19.9125V20.4256C19.7053 20.6599 19.8974 20.8499 20.1343 20.8499H20.6531C20.8901 20.8499 21.0821 20.6599 21.0821 20.4256V19.9125C21.0821 19.6782 20.8901 19.4882 20.6531 19.4882H20.1343C19.8974 19.4882 19.7053 19.6782 19.7053 19.9125Z" fill="#FF7F30"/>
<path d="M28.495 20.4256V19.9125C28.495 19.6782 28.3029 19.4882 28.066 19.4882H27.5472C27.3102 19.4882 27.1182 19.6782 27.1182 19.9125V20.4256C27.1182 20.66 27.3102 20.8499 27.5472 20.8499H28.066C28.3029 20.8499 28.495 20.66 28.495 20.4256Z" fill="#FF7F30"/>
<path d="M28.495 16.7549V16.2418C28.495 16.0075 28.3029 15.8175 28.066 15.8175H27.5472C27.3102 15.8175 27.1182 16.0075 27.1182 16.2418V16.7549C27.1182 16.9892 27.3102 17.1792 27.5472 17.1792H28.066C28.3029 17.1792 28.495 16.9892 28.495 16.7549Z" fill="#FF7F30"/>
<path d="M28.5 13.0891V12.576C28.5 12.3417 28.3079 12.1517 28.071 12.1517H27.5522C27.3152 12.1517 27.1232 12.3417 27.1232 12.576V13.0891C27.1232 13.3235 27.3152 13.5134 27.5522 13.5134H28.071C28.3079 13.5134 28.5 13.3235 28.5 13.0891Z" fill="#FF7F30"/>
<path d="M28.495 9.42341V8.91031C28.495 8.67597 28.3029 8.486 28.066 8.486H27.5472C27.3102 8.486 27.1182 8.67597 27.1182 8.91031V9.42341C27.1182 9.65774 27.3102 9.84771 27.5472 9.84771H28.066C28.3029 9.84771 28.495 9.65774 28.495 9.42341Z" fill="#FF7F30"/>
<path d="M25.2268 5.92049V5.07682C25.2268 4.69535 24.9141 4.3861 24.5284 4.3861H23.6754C23.2897 4.3861 22.977 4.69535 22.977 5.07682V5.92049C22.977 6.30196 23.2897 6.61121 23.6754 6.61121H24.5284C24.9141 6.61121 25.2268 6.30196 25.2268 5.92049Z" fill="#FF7F30"/>
<path d="M24.7881 24.0914V23.5783C24.7881 23.3439 24.5961 23.154 24.3591 23.154H23.8403C23.6034 23.154 23.4113 23.3439 23.4113 23.5783V24.0914C23.4113 24.3257 23.6034 24.5157 23.8403 24.5157H24.3591C24.5961 24.5157 24.7881 24.3257 24.7881 24.0914Z" fill="#FF7F30"/>
<path d="M24.7881 20.4256V19.9125C24.7881 19.6782 24.5961 19.4882 24.3591 19.4882H23.8403C23.6034 19.4882 23.4113 19.6782 23.4113 19.9125V20.4256C23.4113 20.6599 23.6034 20.8499 23.8403 20.8499H24.3591C24.5961 20.8499 24.7881 20.6599 24.7881 20.4256Z" fill="#FF7F30"/>
<path d="M24.7881 16.7599V16.2468C24.7881 16.0124 24.5961 15.8225 24.3591 15.8225H23.8403C23.6034 15.8225 23.4113 16.0124 23.4113 16.2468V16.7599C23.4113 16.9942 23.6034 17.1842 23.8403 17.1842H24.3591C24.5961 17.1842 24.7881 16.9942 24.7881 16.7599Z" fill="#FF7F30"/>
<path d="M24.7881 13.0891V12.576C24.7881 12.3417 24.5961 12.1517 24.3591 12.1517H23.8403C23.6034 12.1517 23.4113 12.3417 23.4113 12.576V13.0891C23.4113 13.3235 23.6034 13.5134 23.8403 13.5134H24.3591C24.5961 13.5134 24.7881 13.3235 24.7881 13.0891Z" fill="#FF7F30"/>
<path d="M25.2268 9.58617V8.74251C25.2268 8.36104 24.9141 8.05178 24.5284 8.05178H23.6754C23.2897 8.05178 22.977 8.36104 22.977 8.74251V9.58617C22.977 9.96765 23.2897 10.2769 23.6754 10.2769H24.5284C24.9141 10.2769 25.2268 9.96765 25.2268 9.58617Z" fill="#FF7F30"/>
</svg>
