<svg width="16" height="17" viewBox="0 0 16 17" fill="none" xmlns="http://www.w3.org/2000/svg">
<path d="M6.91516 16.3869C5.64775 16.4133 4.39792 16.0902 3.30561 15.4539C2.22743 14.7924 1.3789 13.8214 0.87327 12.6705C-0.29109 9.80309 -0.29109 6.60176 0.87327 3.73431C1.37757 2.58057 2.22623 1.60673 3.30561 0.943192C4.39728 0.30459 5.64705 -0.0211016 6.91516 0.00253576C7.81605 -0.025122 8.70932 0.173849 9.51124 0.580807C10.2233 0.966968 10.8596 1.47618 11.39 2.08431H11.546L11.9981 0.303237H15.6934V16.0939H11.9981L11.546 14.336H11.39C10.8633 14.9437 10.226 15.4485 9.51124 15.824C8.70666 16.2222 7.81437 16.4157 6.91516 16.3869ZM7.84288 12.5857C8.47375 12.5933 9.09439 12.4278 9.63595 12.1077C10.1982 11.7573 10.643 11.2503 10.9145 10.6504C11.2571 9.87339 11.4196 9.03037 11.39 8.18315C11.4182 7.34352 11.2557 6.50833 10.9145 5.73899C10.6406 5.14272 10.1961 4.63881 9.63595 4.28945C9.09587 3.9659 8.47422 3.80016 7.84288 3.81142C7.20922 3.80121 6.58535 3.96682 6.04201 4.28945C5.47625 4.63227 5.03009 5.1381 4.76346 5.73899C4.42866 6.51007 4.269 7.3444 4.29572 8.18315C4.20812 9.36573 4.56019 10.5392 5.2858 11.4832C5.60177 11.8456 5.99486 12.1345 6.43693 12.3291C6.879 12.5237 7.35911 12.6193 7.84288 12.6089V12.5857Z" fill="white"/>
</svg>
