<svg width="92" height="92" viewBox="0 0 92 92" fill="none" xmlns="http://www.w3.org/2000/svg">
<path fill-rule="evenodd" clip-rule="evenodd" d="M26.1632 26.1632C23 29.3265 23 34.4177 23 44.6V46.4C23 56.5823 23 61.6735 26.1632 64.8368C29.3265 68 34.4177 68 44.6 68H46.4C56.5823 68 61.6735 68 64.8368 64.8368C68 61.6735 68 56.5823 68 46.4V44.6C68 34.4177 68 29.3265 64.8368 26.1632C61.6735 23 56.5823 23 46.4 23H44.6C34.4177 23 29.3265 23 26.1632 26.1632ZM30.5938 36.6876C30.8376 48.3876 36.6875 55.4188 46.9438 55.4188H47.5251V48.7251C51.2939 49.1 54.1437 51.8563 55.2874 55.4188H60.6126C59.1501 50.0938 55.3061 47.1501 52.9061 46.0251C55.3061 44.6376 58.6812 41.2626 59.4874 36.6876H54.6498C53.5998 40.4001 50.4876 43.7751 47.5251 44.0938V36.6876H42.6875V49.6625C39.6875 48.9126 35.9001 45.2751 35.7313 36.6876H30.5938Z" fill="white"/>
</svg>
