<svg width="47" height="47" viewBox="0 0 47 47" fill="none" xmlns="http://www.w3.org/2000/svg">
<rect width="47" height="47" rx="23.5" fill="black"/>
<path d="M19.8139 27.3312L29.1225 20.4208C29.5789 20.0821 30.2312 20.2142 30.4486 20.7404C31.5931 23.5156 31.0818 26.8507 28.8047 29.1406C26.5278 31.4303 23.3596 31.9325 20.4638 30.7888L17.3004 32.2618C21.8377 35.3805 27.3473 34.6092 30.7903 31.1445C33.5212 28.3981 34.3671 24.6545 33.5762 21.2787L33.5833 21.2858C32.4365 16.3265 33.8653 14.3442 36.7922 10.2907C36.8614 10.1946 36.9307 10.0985 37 10L33.1484 13.8733V13.8613L19.8115 27.3337" fill="white"/>
<path d="M17.8929 29.0108C14.6363 25.8823 15.1978 21.0407 17.9765 18.2488C20.0313 16.1823 23.3978 15.339 26.3366 16.5788L29.4929 15.1131C28.9243 14.6998 28.1955 14.2553 27.3592 13.943C23.5794 12.3788 19.0541 13.1572 15.9815 16.2448C13.0259 19.217 12.0965 23.7871 13.6926 27.6869C14.8848 30.6014 12.9304 32.663 10.9616 34.7438C10.2639 35.4814 9.56387 36.2191 9 37L17.8905 29.0131" fill="white"/>
</svg>
