<svg width="47" height="47" viewBox="0 0 47 47" fill="none" xmlns="http://www.w3.org/2000/svg">
<rect width="47" height="47" rx="23.5" fill="#FF7F30"/>
<path d="M9 18.4762V19.8625C9 20.492 9.51593 21.0022 10.1524 21.0022H11.5541C12.1906 21.0022 12.7065 20.492 12.7065 19.8625V18.4762C12.7065 17.8467 12.1906 17.3365 11.5541 17.3365H10.1524C9.51593 17.3365 9 17.8467 9 18.4762Z" fill="white"/>
<path d="M9 22.1418V23.5282C9 24.1577 9.51593 24.6679 10.1524 24.6679H11.5541C12.1906 24.6679 12.7065 24.1577 12.7065 23.5282V22.1418C12.7065 21.5124 12.1906 21.0022 11.5541 21.0022H10.1524C9.51593 21.0022 9 21.5124 9 22.1418Z" fill="white"/>
<path d="M9 25.8076V27.194C9 27.8234 9.51593 28.3337 10.1524 28.3337H11.5541C12.1906 28.3337 12.7065 27.8234 12.7065 27.194V25.8076C12.7065 25.1782 12.1906 24.6679 11.5541 24.6679H10.1524C9.51593 24.6679 9 25.1782 9 25.8076Z" fill="white"/>
<path d="M9 29.4734V30.8598C9 31.4892 9.51593 31.9995 10.1524 31.9995H11.5541C12.1906 31.9995 12.7065 31.4892 12.7065 30.8598V29.4734C12.7065 28.844 12.1906 28.3337 11.5541 28.3337H10.1524C9.51593 28.3337 9 28.844 9 29.4734Z" fill="white"/>
<path d="M12.7068 14.8104V16.1968C12.7068 16.8262 13.2228 17.3364 13.8592 17.3364H15.261C15.8974 17.3364 16.4133 16.8262 16.4133 16.1968V14.8104C16.4133 14.1809 15.8974 13.6707 15.261 13.6707H13.8592C13.2228 13.6707 12.7068 14.1809 12.7068 14.8104Z" fill="white"/>
<path d="M12.7118 18.4761V19.8625C12.7118 20.492 13.2278 21.0022 13.8642 21.0022H15.266C15.9024 21.0022 16.4184 20.492 16.4184 19.8625V18.4761C16.4184 17.8467 15.9024 17.3365 15.266 17.3365H13.8642C13.2278 17.3365 12.7118 17.8467 12.7118 18.4761Z" fill="white"/>
<path d="M12.7065 22.1418V23.5282C12.7065 24.1577 13.2228 24.6679 13.8592 24.6679H15.261C15.8974 24.6679 16.4133 24.1577 16.4133 23.5282V22.1419C16.4133 21.5124 15.8974 21.0022 15.261 21.0022H13.8592C13.2228 21.0022 12.7065 21.5124 12.7065 22.1418Z" fill="white"/>
<path d="M12.7065 25.8076V27.194C12.7065 27.8234 13.2228 28.3337 13.8592 28.3337H15.261C15.8974 28.3337 16.4134 27.8234 16.4134 27.194V25.8076C16.4134 25.1782 15.8974 24.6679 15.261 24.6679H13.8592C13.2228 24.6679 12.7065 25.1782 12.7065 25.8076Z" fill="white"/>
<path d="M16.4124 14.8104V16.1968C16.4124 16.8262 16.9284 17.3364 17.5648 17.3364H18.9666C19.603 17.3364 20.1189 16.8262 20.1189 16.1968V14.8104C20.1189 14.1809 19.603 13.6707 18.9666 13.6707H17.5648C16.9284 13.6707 16.4124 14.1809 16.4124 14.8104Z" fill="white"/>
<path d="M16.4124 11.1446V12.531C16.4124 13.1604 16.9284 13.6707 17.5648 13.6707H18.9666C19.603 13.6707 20.1189 13.1604 20.1189 12.531V11.1446C20.1189 10.5152 19.603 10.0049 18.9666 10.0049H17.5648C16.9284 10.0049 16.4124 10.5152 16.4124 11.1446Z" fill="white"/>
<path d="M16.4174 18.4761V19.8625C16.4174 20.492 16.9334 21.0022 17.5698 21.0022H18.9716C19.608 21.0022 20.124 20.492 20.124 19.8625V18.4761C20.124 17.8467 19.608 17.3365 18.9716 17.3365H17.5698C16.9334 17.3365 16.4174 17.8467 16.4174 18.4761Z" fill="white"/>
<path d="M20.1193 14.8054V16.1918C20.1193 16.8212 20.6352 17.3315 21.2717 17.3315H22.6734C23.3099 17.3315 23.8258 16.8212 23.8258 16.1918V14.8054C23.8258 14.176 23.3099 13.6657 22.6734 13.6657H21.2717C20.6352 13.6657 20.1193 14.176 20.1193 14.8054Z" fill="white"/>
<path d="M20.1243 11.1397V12.5261C20.1243 13.1555 20.6402 13.6658 21.2767 13.6658H22.6784C23.3149 13.6658 23.8308 13.1555 23.8308 12.5261V11.1397C23.8308 10.5103 23.3149 10 22.6784 10H21.2767C20.6402 10 20.1243 10.5103 20.1243 11.1397Z" fill="white"/>
<path d="M20.1243 18.4712V19.8575C20.1243 20.487 20.6402 20.9972 21.2767 20.9972H22.6784C23.3149 20.9972 23.8308 20.487 23.8308 19.8575V18.4712C23.8308 17.8417 23.3149 17.3315 22.6784 17.3315H21.2767C20.6402 17.3315 20.1243 17.8417 20.1243 18.4712Z" fill="white"/>
<path d="M23.8308 11.1397V12.5261C23.8308 13.1555 24.3471 13.6658 24.9835 13.6658H26.3853C27.0217 13.6658 27.5376 13.1555 27.5376 12.5261V11.1397C27.5376 10.5103 27.0217 10 26.3853 10H24.9835C24.3471 10 23.8308 10.5103 23.8308 11.1397Z" fill="white"/>
<path d="M13.1156 33.2921V34.3775C13.1156 34.868 13.5176 35.2656 14.0135 35.2656H15.111C15.6069 35.2656 16.0089 34.868 16.0089 34.3775V33.2921C16.0089 32.8016 15.6069 32.404 15.111 32.404H14.0135C13.5176 32.404 13.1156 32.8016 13.1156 33.2921Z" fill="white"/>
<path d="M13.1156 29.6263V30.7117C13.1156 31.2022 13.5176 31.5998 14.0135 31.5998H15.111C15.6069 31.5998 16.0089 31.2022 16.0089 30.7117V29.6263C16.0089 29.1359 15.6069 28.7383 15.111 28.7383H14.0135C13.5176 28.7383 13.1156 29.1359 13.1156 29.6263Z" fill="white"/>
<path d="M17.1411 33.4154V34.2591C17.1411 34.6406 17.4538 34.9498 17.8395 34.9498H18.6925C19.0782 34.9498 19.3909 34.6406 19.3909 34.2591V33.4154C19.3909 33.034 19.0782 32.7247 18.6925 32.7247H17.8395C17.4538 32.7247 17.1411 33.034 17.1411 33.4154Z" fill="white"/>
<path d="M17.5797 37.244V37.7571C17.5797 37.9915 17.7718 38.1814 18.0088 38.1814H18.5276C18.7645 38.1814 18.9566 37.9915 18.9566 37.7571V37.244C18.9566 37.0097 18.7645 36.8197 18.5276 36.8197H18.0088C17.7718 36.8197 17.5797 37.0097 17.5797 37.244Z" fill="white"/>
<path d="M16.4174 22.1419V23.5282C16.4174 24.1577 16.9334 24.6679 17.5698 24.6679H18.9716C19.608 24.6679 20.1239 24.1577 20.1239 23.5282V22.1419C20.1239 21.5124 19.608 21.0022 18.9716 21.0022H17.5698C16.9334 21.0022 16.4174 21.5124 16.4174 22.1419Z" fill="white"/>
<path d="M16.8224 25.9605V27.046C16.8224 27.5364 17.2244 27.934 17.7203 27.934H18.8178C19.3137 27.934 19.7157 27.5364 19.7157 27.046V25.9605C19.7157 25.4701 19.3137 25.0725 18.8178 25.0725H17.7203C17.2244 25.0725 16.8224 25.4701 16.8224 25.9605Z" fill="white"/>
<path d="M16.8224 29.6263V30.7117C16.8224 31.2022 17.2244 31.5998 17.7203 31.5998H18.8178C19.3137 31.5998 19.7157 31.2022 19.7157 30.7117V29.6263C19.7157 29.1358 19.3137 28.7382 18.8178 28.7382H17.7203C17.2244 28.7382 16.8224 29.1358 16.8224 29.6263Z" fill="white"/>
<path d="M20.8478 33.4105V34.2541C20.8478 34.6356 21.1605 34.9449 21.5462 34.9449H22.3993C22.785 34.9449 23.0977 34.6356 23.0977 34.2541V33.4105C23.0977 33.029 22.785 32.7198 22.3993 32.7198H21.5462C21.1605 32.7198 20.8478 33.029 20.8478 33.4105Z" fill="white"/>
<path d="M21.2866 37.2489V37.762C21.2866 37.9964 21.4787 38.1863 21.7156 38.1863H22.2344C22.4714 38.1863 22.6634 37.9964 22.6634 37.762V37.2489C22.6634 37.0146 22.4714 36.8246 22.2344 36.8246H21.7156C21.4787 36.8246 21.2866 37.0146 21.2866 37.2489Z" fill="white"/>
<path d="M20.528 22.2948V23.3802C20.528 23.8707 20.93 24.2683 21.4259 24.2683H22.5234C23.0193 24.2683 23.4213 23.8707 23.4213 23.3802V22.2948C23.4213 21.8044 23.0193 21.4068 22.5234 21.4068H21.4259C20.93 21.4068 20.528 21.8044 20.528 22.2948Z" fill="white"/>
<path d="M20.533 25.9605V27.046C20.533 27.5364 20.935 27.934 21.4309 27.934H22.5284C23.0243 27.934 23.4263 27.5364 23.4263 27.046V25.9605C23.4263 25.4701 23.0243 25.0725 22.5284 25.0725H21.4309C20.935 25.0725 20.533 25.4701 20.533 25.9605Z" fill="white"/>
<path d="M20.8478 29.7447V30.5884C20.8478 30.9699 21.1605 31.2791 21.5462 31.2791H22.3993C22.785 31.2791 23.0977 30.9699 23.0977 30.5884V29.7447C23.0977 29.3633 22.785 29.054 22.3993 29.054H21.5462C21.1605 29.054 20.8478 29.3633 20.8478 29.7447Z" fill="white"/>
<path d="M24.9933 33.5783V34.0914C24.9933 34.3257 25.1854 34.5157 25.4223 34.5157H25.9411C26.1781 34.5157 26.3702 34.3257 26.3702 34.0914V33.5783C26.3702 33.3439 26.1781 33.154 25.9411 33.154H25.4223C25.1854 33.154 24.9933 33.3439 24.9933 33.5783Z" fill="white"/>
<path d="M24.9933 37.244V37.7571C24.9933 37.9914 25.1854 38.1814 25.4223 38.1814H25.9411C26.1781 38.1814 26.3702 37.9914 26.3702 37.7571V37.244C26.3702 37.0097 26.1781 36.8197 25.9411 36.8197H25.4223C25.1854 36.8197 24.9933 37.0097 24.9933 37.244Z" fill="white"/>
<path d="M24.2398 14.9535V16.0389C24.2398 16.5293 24.6418 16.9269 25.1378 16.9269H26.2352C26.7312 16.9269 27.1332 16.5293 27.1332 16.0389V14.9535C27.1332 14.463 26.7312 14.0654 26.2352 14.0654H25.1378C24.6418 14.0654 24.2398 14.463 24.2398 14.9535Z" fill="white"/>
<path d="M24.2348 18.6241V19.7096C24.2348 20.2 24.6369 20.5976 25.1328 20.5976H26.2302C26.7262 20.5976 27.1282 20.2 27.1282 19.7096V18.6241C27.1282 18.1337 26.7262 17.7361 26.2302 17.7361H25.1328C24.6369 17.7361 24.2348 18.1337 24.2348 18.6241Z" fill="white"/>
<path d="M24.2348 22.2899V23.3753C24.2348 23.8658 24.6369 24.2634 25.1328 24.2634H26.2302C26.7262 24.2634 27.1282 23.8658 27.1282 23.3753V22.2899C27.1282 21.7994 26.7262 21.4018 26.2302 21.4018H25.1328C24.6369 21.4018 24.2348 21.7994 24.2348 22.2899Z" fill="white"/>
<path d="M24.5598 26.079V26.9226C24.5598 27.3041 24.8724 27.6133 25.2582 27.6133H26.1112C26.4969 27.6133 26.8096 27.3041 26.8096 26.9226V26.079C26.8096 25.6975 26.4969 25.3882 26.1112 25.3882H25.2582C24.8724 25.3882 24.5598 25.6975 24.5598 26.079Z" fill="white"/>
<path d="M24.5598 29.7447V30.5884C24.5598 30.9699 24.8725 31.2791 25.2582 31.2791H26.1112C26.4969 31.2791 26.8096 30.9699 26.8096 30.5884V29.7447C26.8096 29.3633 26.4969 29.054 26.1112 29.054H25.2582C24.8725 29.054 24.5598 29.3633 24.5598 29.7447Z" fill="white"/>
<path d="M28.7053 33.5783V34.0914C28.7053 34.3257 28.8974 34.5157 29.1343 34.5157H29.6531C29.8901 34.5157 30.0821 34.3257 30.0821 34.0914V33.5783C30.0821 33.3439 29.8901 33.154 29.6531 33.154H29.1343C28.8974 33.154 28.7053 33.3439 28.7053 33.5783Z" fill="white"/>
<path d="M28.7003 37.244V37.7571C28.7003 37.9915 28.8924 38.1814 29.1293 38.1814H29.6481C29.8851 38.1814 30.0771 37.9915 30.0771 37.7571V37.244C30.0771 37.0097 29.8851 36.8197 29.6481 36.8197H29.1293C28.8924 36.8197 28.7003 37.0097 28.7003 37.244Z" fill="white"/>
<path d="M27.9467 14.9584V16.0438C27.9467 16.5343 28.3487 16.9319 28.8446 16.9319H29.9421C30.438 16.9319 30.84 16.5343 30.84 16.0438V14.9584C30.84 14.4679 30.438 14.0703 29.9421 14.0703H28.8446C28.3487 14.0703 27.9467 14.4679 27.9467 14.9584Z" fill="white"/>
<path d="M27.9467 11.2877V12.3731C27.9467 12.8635 28.3487 13.2611 28.8446 13.2611H29.9421C30.438 13.2611 30.84 12.8635 30.84 12.3731V11.2877C30.84 10.7972 30.438 10.3996 29.9421 10.3996H28.8446C28.3487 10.3996 27.9467 10.7972 27.9467 11.2877Z" fill="white"/>
<path d="M28.2654 18.7475V19.5911C28.2654 19.9726 28.5781 20.2819 28.9638 20.2819H29.8168C30.2025 20.2819 30.5152 19.9726 30.5152 19.5911V18.7475C30.5152 18.366 30.2025 18.0568 29.8168 18.0568H28.9638C28.5781 18.0568 28.2654 18.366 28.2654 18.7475Z" fill="white"/>
<path d="M28.2654 22.4132V23.2569C28.2654 23.6384 28.5781 23.9476 28.9638 23.9476H29.8168C30.2025 23.9476 30.5152 23.6384 30.5152 23.2569V22.4132C30.5152 22.0318 30.2025 21.7225 29.8168 21.7225H28.9638C28.5781 21.7225 28.2654 22.0318 28.2654 22.4132Z" fill="white"/>
<path d="M28.2654 26.079V26.9226C28.2654 27.3041 28.5781 27.6133 28.9638 27.6133H29.8168C30.2025 27.6133 30.5152 27.3041 30.5152 26.9226V26.079C30.5152 25.6975 30.2025 25.3882 29.8168 25.3882H28.9638C28.5781 25.3882 28.2654 25.6975 28.2654 26.079Z" fill="white"/>
<path d="M28.7053 29.9125V30.4256C28.7053 30.6599 28.8974 30.8499 29.1343 30.8499H29.6531C29.8901 30.8499 30.0821 30.6599 30.0821 30.4256V29.9125C30.0821 29.6782 29.8901 29.4882 29.6531 29.4882H29.1343C28.8974 29.4882 28.7053 29.6782 28.7053 29.9125Z" fill="white"/>
<path d="M37.495 30.4256V29.9125C37.495 29.6782 37.3029 29.4882 37.066 29.4882H36.5472C36.3102 29.4882 36.1182 29.6782 36.1182 29.9125V30.4256C36.1182 30.66 36.3102 30.8499 36.5472 30.8499H37.066C37.3029 30.8499 37.495 30.66 37.495 30.4256Z" fill="white"/>
<path d="M37.495 26.7549V26.2418C37.495 26.0075 37.3029 25.8175 37.066 25.8175H36.5472C36.3102 25.8175 36.1182 26.0075 36.1182 26.2418V26.7549C36.1182 26.9892 36.3102 27.1792 36.5472 27.1792H37.066C37.3029 27.1792 37.495 26.9892 37.495 26.7549Z" fill="white"/>
<path d="M37.5 23.0891V22.576C37.5 22.3417 37.3079 22.1517 37.071 22.1517H36.5522C36.3152 22.1517 36.1232 22.3417 36.1232 22.576V23.0891C36.1232 23.3235 36.3152 23.5134 36.5522 23.5134H37.071C37.3079 23.5134 37.5 23.3235 37.5 23.0891Z" fill="white"/>
<path d="M37.495 19.4234V18.9103C37.495 18.676 37.3029 18.486 37.066 18.486H36.5472C36.3102 18.486 36.1182 18.676 36.1182 18.9103V19.4234C36.1182 19.6577 36.3102 19.8477 36.5472 19.8477H37.066C37.3029 19.8477 37.495 19.6577 37.495 19.4234Z" fill="white"/>
<path d="M34.2268 15.9205V15.0768C34.2268 14.6954 33.9141 14.3861 33.5284 14.3861H32.6754C32.2897 14.3861 31.977 14.6954 31.977 15.0768V15.9205C31.977 16.302 32.2897 16.6112 32.6754 16.6112H33.5284C33.9141 16.6112 34.2268 16.302 34.2268 15.9205Z" fill="white"/>
<path d="M33.7881 34.0914V33.5783C33.7881 33.3439 33.5961 33.154 33.3591 33.154H32.8403C32.6034 33.154 32.4113 33.3439 32.4113 33.5783V34.0914C32.4113 34.3257 32.6034 34.5157 32.8403 34.5157H33.3591C33.5961 34.5157 33.7881 34.3257 33.7881 34.0914Z" fill="white"/>
<path d="M33.7881 30.4256V29.9125C33.7881 29.6782 33.5961 29.4882 33.3591 29.4882H32.8403C32.6034 29.4882 32.4113 29.6782 32.4113 29.9125V30.4256C32.4113 30.6599 32.6034 30.8499 32.8403 30.8499H33.3591C33.5961 30.8499 33.7881 30.6599 33.7881 30.4256Z" fill="white"/>
<path d="M33.7881 26.7599V26.2468C33.7881 26.0124 33.5961 25.8225 33.3591 25.8225H32.8403C32.6034 25.8225 32.4113 26.0124 32.4113 26.2468V26.7599C32.4113 26.9942 32.6034 27.1842 32.8403 27.1842H33.3591C33.5961 27.1842 33.7881 26.9942 33.7881 26.7599Z" fill="white"/>
<path d="M33.7881 23.0891V22.576C33.7881 22.3417 33.5961 22.1517 33.3591 22.1517H32.8403C32.6034 22.1517 32.4113 22.3417 32.4113 22.576V23.0891C32.4113 23.3235 32.6034 23.5134 32.8403 23.5134H33.3591C33.5961 23.5134 33.7881 23.3235 33.7881 23.0891Z" fill="white"/>
<path d="M34.2268 19.5862V18.7425C34.2268 18.361 33.9141 18.0518 33.5284 18.0518H32.6754C32.2897 18.0518 31.977 18.361 31.977 18.7425V19.5862C31.977 19.9676 32.2897 20.2769 32.6754 20.2769H33.5284C33.9141 20.2769 34.2268 19.9676 34.2268 19.5862Z" fill="white"/>
</svg>
