<svg width="318" height="318" viewBox="0 0 318 318" fill="none" xmlns="http://www.w3.org/2000/svg">
<g filter="url(#filter0_d_377_918)">
<rect x="51" y="115.683" width="216.439" height="149.268" fill="white"/>
<path d="M82.0977 281.122H235.098C248.619 281.108 261.583 275.73 271.144 266.169C280.706 256.608 286.083 243.644 286.098 230.122V102.622C286.083 89.1004 280.706 76.1366 271.144 66.5753C261.583 57.014 248.619 51.6362 235.098 51.6221H222.348V38.8721C222.348 35.4906 221.004 32.2475 218.613 29.8565C216.222 27.4654 212.979 26.1221 209.598 26.1221C206.216 26.1221 202.973 27.4654 200.582 29.8565C198.191 32.2475 196.848 35.4906 196.848 38.8721V51.6221H120.348V38.8721C120.348 35.4906 119.004 32.2475 116.613 29.8565C114.222 27.4654 110.979 26.1221 107.598 26.1221C104.216 26.1221 100.973 27.4654 98.582 29.8565C96.191 32.2475 94.8477 35.4906 94.8477 38.8721V51.6221H82.0977C68.5763 51.6373 55.613 57.0153 46.052 66.5764C36.4909 76.1375 31.1128 89.1007 31.0977 102.622V230.122C31.1128 243.643 36.4909 256.607 46.052 266.168C55.613 275.729 68.5763 281.107 82.0977 281.122ZM56.5977 140.872H260.598V230.122C260.59 236.883 257.901 243.364 253.12 248.145C248.34 252.925 241.858 255.614 235.098 255.622H82.0977C75.3367 255.615 68.8546 252.927 64.0739 248.146C59.2932 243.365 56.6044 236.883 56.5977 230.122V140.872Z" fill="white"/>
<path d="M134.098 106.085V108.532C134.098 109.643 134.998 110.544 136.109 110.544H138.557C139.668 110.544 140.569 109.643 140.569 108.532V106.085C140.569 104.974 139.668 104.073 138.557 104.073H136.109C134.998 104.073 134.098 104.974 134.098 106.085Z" fill="#FF7F30"/>
<path d="M134.098 112.556V115.003C134.098 116.114 134.998 117.015 136.109 117.015H138.557C139.668 117.015 140.569 116.114 140.569 115.003V112.556C140.569 111.444 139.668 110.544 138.557 110.544H136.109C134.998 110.544 134.098 111.444 134.098 112.556Z" fill="#FF7F30"/>
<path d="M134.098 119.027V121.474C134.098 122.585 134.998 123.486 136.109 123.486H138.557C139.668 123.486 140.569 122.585 140.569 121.474V119.027C140.569 117.915 139.668 117.015 138.557 117.015H136.109C134.998 117.015 134.098 117.915 134.098 119.027Z" fill="#FF7F30"/>
<path d="M134.098 125.498V127.945C134.098 129.056 134.998 129.957 136.109 129.957H138.557C139.668 129.957 140.569 129.056 140.569 127.945V125.498C140.569 124.386 139.668 123.486 138.557 123.486H136.109C134.998 123.486 134.098 124.386 134.098 125.498Z" fill="#FF7F30"/>
<path d="M140.569 99.6136V102.061C140.569 103.172 141.47 104.073 142.581 104.073H145.028C146.139 104.073 147.04 103.172 147.04 102.061V99.6136C147.04 98.5025 146.139 97.6018 145.028 97.6018H142.581C141.47 97.6018 140.569 98.5025 140.569 99.6136Z" fill="#FF7F30"/>
<path d="M140.578 106.085V108.532C140.578 109.643 141.479 110.544 142.59 110.544H145.037C146.148 110.544 147.049 109.643 147.049 108.532V106.085C147.049 104.974 146.148 104.073 145.037 104.073H142.59C141.479 104.073 140.578 104.974 140.578 106.085Z" fill="#FF7F30"/>
<path d="M140.569 112.556V115.003C140.569 116.114 141.47 117.015 142.581 117.015H145.028C146.139 117.015 147.04 116.114 147.04 115.003V112.556C147.04 111.444 146.139 110.544 145.028 110.544H142.581C141.47 110.544 140.569 111.444 140.569 112.556Z" fill="#FF7F30"/>
<path d="M140.569 119.027V121.474C140.569 122.585 141.47 123.486 142.581 123.486H145.028C146.139 123.486 147.04 122.585 147.04 121.474V119.027C147.04 117.915 146.139 117.015 145.028 117.015H142.581C141.47 117.015 140.569 117.915 140.569 119.027Z" fill="#FF7F30"/>
<path d="M147.039 99.6136V102.061C147.039 103.172 147.939 104.073 149.05 104.073H151.498C152.609 104.073 153.509 103.172 153.509 102.061V99.6136C153.509 98.5025 152.609 97.6018 151.498 97.6018H149.05C147.939 97.6018 147.039 98.5025 147.039 99.6136Z" fill="#FF7F30"/>
<path d="M147.039 93.1426V95.5899C147.039 96.701 147.939 97.6018 149.05 97.6018H151.498C152.609 97.6018 153.509 96.701 153.509 95.5899V93.1426C153.509 92.0315 152.609 91.1308 151.498 91.1308H149.05C147.939 91.1308 147.039 92.0315 147.039 93.1426Z" fill="#FF7F30"/>
<path d="M147.047 106.085V108.532C147.047 109.643 147.948 110.544 149.059 110.544H151.506C152.617 110.544 153.518 109.643 153.518 108.532V106.085C153.518 104.974 152.617 104.073 151.506 104.073H149.059C147.948 104.073 147.047 104.974 147.047 106.085Z" fill="#FF7F30"/>
<path d="M153.51 99.6049V102.052C153.51 103.163 154.411 104.064 155.522 104.064H157.969C159.08 104.064 159.981 103.163 159.981 102.052V99.6049C159.981 98.4937 159.08 97.593 157.969 97.593H155.522C154.411 97.593 153.51 98.4937 153.51 99.6049Z" fill="#FF7F30"/>
<path d="M153.519 93.1339V95.5812C153.519 96.6923 154.419 97.5931 155.531 97.5931H157.978C159.089 97.5931 159.99 96.6923 159.99 95.5812V93.1339C159.99 92.0228 159.089 91.1221 157.978 91.1221H155.531C154.419 91.1221 153.519 92.0228 153.519 93.1339Z" fill="#FF7F30"/>
<path d="M153.519 106.076V108.523C153.519 109.634 154.419 110.535 155.531 110.535H157.978C159.089 110.535 159.99 109.634 159.99 108.523V106.076C159.99 104.965 159.089 104.064 157.978 104.064H155.531C154.419 104.064 153.519 104.965 153.519 106.076Z" fill="#FF7F30"/>
<path d="M159.99 93.1339V95.5812C159.99 96.6923 160.891 97.5931 162.002 97.5931H164.449C165.56 97.5931 166.461 96.6923 166.461 95.5812V93.1339C166.461 92.0228 165.56 91.1221 164.449 91.1221H162.002C160.891 91.1221 159.99 92.0228 159.99 93.1339Z" fill="#FF7F30"/>
<path d="M141.283 132.239V134.155C141.283 135.02 141.985 135.722 142.85 135.722H144.766C145.632 135.722 146.334 135.02 146.334 134.155V132.239C146.334 131.373 145.632 130.671 144.766 130.671H142.85C141.985 130.671 141.283 131.373 141.283 132.239Z" fill="#FF7F30"/>
<path d="M141.283 125.768V127.684C141.283 128.549 141.985 129.251 142.85 129.251H144.766C145.632 129.251 146.334 128.549 146.334 127.684V125.768C146.334 124.902 145.632 124.2 144.766 124.2H142.85C141.985 124.2 141.283 124.902 141.283 125.768Z" fill="#FF7F30"/>
<path d="M148.311 132.456V133.946C148.311 134.619 148.856 135.165 149.53 135.165H151.019C151.693 135.165 152.238 134.619 152.238 133.946V132.456C152.238 131.783 151.693 131.237 151.019 131.237H149.53C148.856 131.237 148.311 131.783 148.311 132.456Z" fill="#FF7F30"/>
<path d="M149.076 139.215V140.12C149.076 140.534 149.412 140.869 149.825 140.869H150.731C151.145 140.869 151.48 140.534 151.48 140.12V139.215C151.48 138.801 151.145 138.466 150.731 138.466H149.825C149.412 138.466 149.076 138.801 149.076 139.215Z" fill="#FF7F30"/>
<path d="M147.047 112.556V115.003C147.047 116.114 147.948 117.015 149.059 117.015H151.506C152.617 117.015 153.518 116.114 153.518 115.003V112.556C153.518 111.444 152.617 110.544 151.506 110.544H149.059C147.948 110.544 147.047 111.444 147.047 112.556Z" fill="#FF7F30"/>
<path d="M147.754 119.297V121.213C147.754 122.078 148.456 122.78 149.322 122.78H151.238C152.104 122.78 152.805 122.078 152.805 121.213V119.297C152.805 118.431 152.104 117.729 151.238 117.729H149.322C148.456 117.729 147.754 118.431 147.754 119.297Z" fill="#FF7F30"/>
<path d="M147.754 125.768V127.684C147.754 128.549 148.456 129.251 149.322 129.251H151.238C152.104 129.251 152.805 128.549 152.805 127.684V125.768C152.805 124.902 152.104 124.2 151.238 124.2H149.322C148.456 124.2 147.754 124.902 147.754 125.768Z" fill="#FF7F30"/>
<path d="M154.782 132.448V133.937C154.782 134.61 155.328 135.156 156.001 135.156H157.49C158.164 135.156 158.71 134.61 158.71 133.937V132.448C158.71 131.774 158.164 131.228 157.49 131.228H156.001C155.328 131.228 154.782 131.774 154.782 132.448Z" fill="#FF7F30"/>
<path d="M155.548 139.223V140.129C155.548 140.543 155.883 140.878 156.297 140.878H157.203C157.616 140.878 157.952 140.543 157.952 140.129V139.223C157.952 138.81 157.616 138.474 157.203 138.474H156.297C155.883 138.474 155.548 138.81 155.548 139.223Z" fill="#FF7F30"/>
<path d="M154.224 112.826V114.742C154.224 115.607 154.925 116.309 155.791 116.309H157.707C158.573 116.309 159.275 115.607 159.275 114.742V112.826C159.275 111.96 158.573 111.258 157.707 111.258H155.791C154.925 111.258 154.224 111.96 154.224 112.826Z" fill="#FF7F30"/>
<path d="M154.232 119.297V121.213C154.232 122.078 154.934 122.78 155.8 122.78H157.716C158.582 122.78 159.284 122.078 159.284 121.213V119.297C159.284 118.431 158.582 117.729 157.716 117.729H155.8C154.934 117.729 154.232 118.431 154.232 119.297Z" fill="#FF7F30"/>
<path d="M154.782 125.977V127.466C154.782 128.139 155.328 128.685 156.001 128.685H157.49C158.164 128.685 158.71 128.139 158.71 127.466V125.977C158.71 125.303 158.164 124.757 157.49 124.757H156.001C155.328 124.757 154.782 125.303 154.782 125.977Z" fill="#FF7F30"/>
<path d="M162.019 132.744V133.649C162.019 134.063 162.355 134.398 162.768 134.398H163.674C164.088 134.398 164.423 134.063 164.423 133.649V132.744C164.423 132.33 164.088 131.995 163.674 131.995H162.768C162.355 131.995 162.019 132.33 162.019 132.744Z" fill="#FF7F30"/>
<path d="M162.019 139.215V140.12C162.019 140.534 162.355 140.869 162.768 140.869H163.674C164.088 140.869 164.423 140.534 164.423 140.12V139.215C164.423 138.801 164.088 138.466 163.674 138.466H162.768C162.355 138.466 162.019 138.801 162.019 139.215Z" fill="#FF7F30"/>
<path d="M160.704 99.8662V101.782C160.704 102.648 161.406 103.35 162.271 103.35H164.187C165.053 103.35 165.755 102.648 165.755 101.782V99.8662C165.755 99.0004 165.053 98.2985 164.187 98.2985H162.271C161.406 98.2985 160.704 99.0004 160.704 99.8662Z" fill="#FF7F30"/>
<path d="M160.695 106.346V108.262C160.695 109.128 161.397 109.83 162.263 109.83H164.179C165.044 109.83 165.746 109.128 165.746 108.262V106.346C165.746 105.48 165.044 104.778 164.179 104.778H162.263C161.397 104.778 160.695 105.48 160.695 106.346Z" fill="#FF7F30"/>
<path d="M160.695 112.817V114.733C160.695 115.599 161.397 116.301 162.263 116.301H164.179C165.044 116.301 165.746 115.599 165.746 114.733V112.817C165.746 111.951 165.044 111.249 164.179 111.249H162.263C161.397 111.249 160.695 111.951 160.695 112.817Z" fill="#FF7F30"/>
<path d="M161.262 119.506V120.995C161.262 121.668 161.808 122.214 162.482 122.214H163.971C164.644 122.214 165.19 121.668 165.19 120.995V119.506C165.19 118.832 164.644 118.286 163.971 118.286H162.482C161.808 118.286 161.262 118.832 161.262 119.506Z" fill="#FF7F30"/>
<path d="M161.262 125.977V127.466C161.262 128.139 161.808 128.685 162.482 128.685H163.971C164.644 128.685 165.19 128.139 165.19 127.466V125.977C165.19 125.303 164.644 124.757 163.971 124.757H162.482C161.808 124.757 161.262 125.303 161.262 125.977Z" fill="#FF7F30"/>
<path d="M168.5 132.744V133.649C168.5 134.063 168.835 134.398 169.249 134.398H170.154C170.568 134.398 170.903 134.063 170.903 133.649V132.744C170.903 132.33 170.568 131.995 170.154 131.995H169.249C168.835 131.995 168.5 132.33 168.5 132.744Z" fill="#FF7F30"/>
<path d="M168.491 139.215V140.12C168.491 140.534 168.826 140.869 169.24 140.869H170.146C170.559 140.869 170.895 140.534 170.895 140.12V139.215C170.895 138.801 170.559 138.466 170.146 138.466H169.24C168.826 138.466 168.491 138.801 168.491 139.215Z" fill="#FF7F30"/>
<path d="M167.175 99.8749V101.791C167.175 102.657 167.877 103.359 168.743 103.359H170.659C171.525 103.359 172.227 102.657 172.227 101.791V99.8749C172.227 99.0091 171.525 98.3073 170.659 98.3073H168.743C167.877 98.3073 167.175 99.0091 167.175 99.8749Z" fill="#FF7F30"/>
<path d="M167.175 93.3951V95.3111C167.175 96.1769 167.877 96.8788 168.743 96.8788H170.659C171.525 96.8788 172.227 96.1769 172.227 95.3111V93.3951C172.227 92.5293 171.525 91.8274 170.659 91.8274H168.743C167.877 91.8274 167.175 92.5293 167.175 93.3951Z" fill="#FF7F30"/>
<path d="M167.732 106.564V108.053C167.732 108.726 168.278 109.272 168.951 109.272H170.44C171.114 109.272 171.66 108.726 171.66 108.053V106.564C171.66 105.89 171.114 105.344 170.44 105.344H168.951C168.278 105.344 167.732 105.89 167.732 106.564Z" fill="#FF7F30"/>
<path d="M167.732 113.035V114.524C167.732 115.197 168.278 115.743 168.951 115.743H170.44C171.114 115.743 171.66 115.197 171.66 114.524V113.035C171.66 112.361 171.114 111.815 170.44 111.815H168.951C168.278 111.815 167.732 112.361 167.732 113.035Z" fill="#FF7F30"/>
<path d="M167.732 119.506V120.995C167.732 121.668 168.278 122.214 168.951 122.214H170.44C171.114 122.214 171.66 121.668 171.66 120.995V119.506C171.66 118.832 171.114 118.286 170.44 118.286H168.951C168.278 118.286 167.732 118.832 167.732 119.506Z" fill="#FF7F30"/>
<path d="M168.5 126.273V127.178C168.5 127.592 168.835 127.927 169.249 127.927H170.154C170.568 127.927 170.903 127.592 170.903 127.178V126.273C170.903 125.859 170.568 125.524 170.154 125.524H169.249C168.835 125.524 168.5 125.859 168.5 126.273Z" fill="#FF7F30"/>
<path d="M183.845 127.179V126.273C183.845 125.859 183.51 125.524 183.096 125.524H182.19C181.777 125.524 181.441 125.859 181.441 126.273V127.179C181.441 127.592 181.777 127.928 182.19 127.928H183.096C183.51 127.928 183.845 127.592 183.845 127.179Z" fill="#FF7F30"/>
<path d="M183.845 120.699V119.793C183.845 119.379 183.51 119.044 183.096 119.044H182.19C181.777 119.044 181.441 119.379 181.441 119.793V120.699C181.441 121.112 181.777 121.448 182.19 121.448H183.096C183.51 121.448 183.845 121.112 183.845 120.699Z" fill="#FF7F30"/>
<path d="M183.854 114.228V113.322C183.854 112.908 183.518 112.573 183.105 112.573H182.199C181.785 112.573 181.45 112.908 181.45 113.322V114.228C181.45 114.641 181.785 114.977 182.199 114.977H183.105C183.518 114.977 183.854 114.641 183.854 114.228Z" fill="#FF7F30"/>
<path d="M183.845 107.757V106.851C183.845 106.437 183.51 106.102 183.096 106.102H182.19C181.777 106.102 181.441 106.437 181.441 106.851V107.757C181.441 108.17 181.777 108.506 182.19 108.506H183.096C183.51 108.506 183.845 108.17 183.845 107.757Z" fill="#FF7F30"/>
<path d="M178.139 101.573V100.084C178.139 99.4106 177.593 98.8647 176.92 98.8647H175.431C174.757 98.8647 174.212 99.4106 174.212 100.084V101.573C174.212 102.247 174.757 102.793 175.431 102.793H176.92C177.593 102.793 178.139 102.247 178.139 101.573Z" fill="#FF7F30"/>
<path d="M177.373 133.649V132.744C177.373 132.33 177.038 131.995 176.624 131.995H175.719C175.305 131.995 174.97 132.33 174.97 132.744V133.649C174.97 134.063 175.305 134.398 175.719 134.398H176.624C177.038 134.398 177.373 134.063 177.373 133.649Z" fill="#FF7F30"/>
<path d="M177.373 127.178V126.273C177.373 125.859 177.038 125.524 176.624 125.524H175.719C175.305 125.524 174.97 125.859 174.97 126.273V127.178C174.97 127.592 175.305 127.927 175.719 127.927H176.624C177.038 127.927 177.373 127.592 177.373 127.178Z" fill="#FF7F30"/>
<path d="M177.373 120.708V119.802C177.373 119.388 177.038 119.053 176.624 119.053H175.719C175.305 119.053 174.97 119.388 174.97 119.802V120.708C174.97 121.121 175.305 121.457 175.719 121.457H176.624C177.038 121.457 177.373 121.121 177.373 120.708Z" fill="#FF7F30"/>
<path d="M177.373 114.228V113.322C177.373 112.908 177.038 112.573 176.624 112.573H175.719C175.305 112.573 174.97 112.908 174.97 113.322V114.228C174.97 114.641 175.305 114.977 175.719 114.977H176.624C177.038 114.977 177.373 114.641 177.373 114.228Z" fill="#FF7F30"/>
<path d="M178.139 108.044V106.555C178.139 105.881 177.593 105.336 176.92 105.336H175.431C174.757 105.336 174.212 105.881 174.212 106.555V108.044C174.212 108.718 174.757 109.263 175.431 109.263H176.92C177.593 109.263 178.139 108.718 178.139 108.044Z" fill="#FF7F30"/>
<path d="M90.9159 205.415V199.882L103.056 189.334C103.693 188.776 104.171 188.232 104.489 187.702C104.834 187.171 105.007 186.587 105.007 185.95C105.007 184.862 104.702 184.04 104.091 183.482C103.481 182.925 102.499 182.646 101.146 182.646C100.403 182.646 99.7525 182.779 99.1953 183.044C98.638 183.31 98.1736 183.695 97.8021 184.199C97.4306 184.676 97.1785 185.274 97.0458 185.99H90.9159C91.1282 184.106 91.6722 182.514 92.5479 181.213C93.4236 179.913 94.5912 178.918 96.0507 178.228C97.5102 177.512 99.2085 177.153 101.146 177.153C103.401 177.153 105.285 177.512 106.798 178.228C108.337 178.945 109.478 179.94 110.221 181.213C110.964 182.461 111.336 183.894 111.336 185.512C111.336 186.388 111.19 187.237 110.898 188.06C110.633 188.883 110.208 189.679 109.624 190.448C109.067 191.218 108.35 191.974 107.475 192.717L99.2749 199.882H111.734V205.415H90.9159ZM119.338 205.415V186.229H113.725V180.696H117.945C118.449 180.696 118.834 180.563 119.099 180.298C119.391 180.006 119.537 179.608 119.537 179.104V177.551H125.468V205.415H119.338ZM136.846 210.191V200.32H151.773V189.174H146.161V192.876C146.161 194.813 145.909 196.472 145.404 197.852C144.927 199.232 144.29 200.386 143.494 201.315H138.16C139.062 200.28 139.699 199.152 140.071 197.931C140.442 196.711 140.628 195.026 140.628 192.876V184.278H157.465V200.32H160.451V210.191H155.157V205.415H142.14V210.191H136.846ZM172.054 205.813C169.905 205.813 168.047 205.388 166.482 204.539C164.943 203.663 163.748 202.416 162.899 200.797C162.077 199.152 161.665 197.175 161.665 194.867C161.665 192.531 162.077 190.554 162.899 188.936C163.748 187.29 164.956 186.043 166.521 185.194C168.087 184.318 169.931 183.88 172.054 183.88C174.098 183.88 175.889 184.331 177.428 185.234C178.994 186.136 180.188 187.396 181.01 189.015C181.833 190.607 182.244 192.425 182.244 194.468C182.244 194.867 182.218 195.265 182.165 195.663C182.138 196.061 182.098 196.392 182.045 196.658H165.686V192.677H176.712C176.579 192.014 176.327 191.377 175.955 190.767C175.584 190.156 175.066 189.665 174.403 189.294C173.739 188.922 172.957 188.737 172.054 188.737C171.099 188.737 170.263 188.962 169.547 189.413C168.83 189.864 168.273 190.515 167.875 191.364C167.503 192.186 167.318 193.168 167.318 194.309C167.318 195.716 167.477 196.923 167.795 197.931C168.114 198.913 168.618 199.67 169.308 200.2C169.998 200.705 170.9 200.957 172.015 200.957C173.049 200.957 173.832 200.784 174.363 200.439C174.894 200.068 175.371 199.524 175.796 198.807H181.846C181.501 200.081 180.931 201.249 180.135 202.31C179.365 203.345 178.304 204.194 176.95 204.858C175.597 205.494 173.965 205.813 172.054 205.813ZM198.72 205.415V184.278H204.412V205.415H198.72ZM185.585 205.415V184.278H191.277V205.415H185.585ZM189.446 197.494V192.2H200.551V197.494H189.446ZM208.743 205.415V184.278H214.435V200.36H217.938C218.734 200.36 219.358 200.174 219.809 199.802C220.26 199.404 220.485 198.834 220.485 198.091C220.485 197.374 220.26 196.83 219.809 196.459C219.358 196.061 218.734 195.862 217.938 195.862H213.002V190.806H218.774C220.207 190.806 221.481 191.125 222.595 191.762C223.736 192.372 224.612 193.235 225.222 194.349C225.859 195.437 226.178 196.684 226.178 198.091C226.178 199.497 225.859 200.771 225.222 201.912C224.612 203.027 223.736 203.889 222.595 204.499C221.481 205.11 220.207 205.415 218.774 205.415H208.743Z" fill="black"/>
<path d="M134.538 237.272C133.728 237.272 133.028 237.112 132.438 236.792C131.858 236.462 131.408 235.992 131.088 235.382C130.778 234.762 130.623 234.017 130.623 233.147C130.623 232.267 130.778 231.522 131.088 230.912C131.408 230.292 131.858 229.822 132.438 229.502C133.028 229.172 133.728 229.007 134.538 229.007C135.258 229.007 135.873 229.137 136.383 229.397C136.893 229.657 137.298 230.007 137.598 230.447C137.898 230.877 138.108 231.362 138.228 231.902H136.083C135.933 231.582 135.733 231.342 135.483 231.182C135.233 231.012 134.913 230.927 134.523 230.927C134.173 230.927 133.863 231.012 133.593 231.182C133.333 231.342 133.128 231.587 132.978 231.917C132.838 232.247 132.768 232.657 132.768 233.147C132.768 233.627 132.838 234.032 132.978 234.362C133.128 234.692 133.333 234.942 133.593 235.112C133.863 235.272 134.173 235.352 134.523 235.352C134.913 235.352 135.233 235.272 135.483 235.112C135.733 234.942 135.933 234.697 136.083 234.377H138.228C138.108 234.917 137.898 235.407 137.598 235.847C137.298 236.277 136.893 236.622 136.383 236.882C135.873 237.142 135.258 237.272 134.538 237.272ZM140.262 240.122L141.462 237.122L138.237 229.157H140.547L142.542 234.467H142.617L144.582 229.157H146.832L142.482 240.122H140.262ZM151.129 237.272C150.309 237.272 149.609 237.102 149.029 236.762C148.449 236.422 147.999 235.912 147.679 235.232C147.369 234.542 147.214 233.692 147.214 232.682C147.214 231.342 147.369 230.212 147.679 229.292C147.999 228.372 148.474 227.682 149.104 227.222C149.734 226.762 150.509 226.532 151.429 226.532C152.109 226.532 152.699 226.487 153.199 226.397C153.699 226.297 154.109 226.167 154.429 226.007V227.987C154.169 228.137 153.809 228.252 153.349 228.332C152.889 228.412 152.324 228.452 151.654 228.452C151.144 228.452 150.719 228.537 150.379 228.707C150.039 228.877 149.774 229.122 149.584 229.442C149.404 229.752 149.274 230.132 149.194 230.582H149.269C149.459 230.312 149.749 230.097 150.139 229.937C150.529 229.777 151.014 229.697 151.594 229.697C152.264 229.697 152.859 229.852 153.379 230.162C153.909 230.462 154.319 230.897 154.609 231.467C154.899 232.027 155.044 232.687 155.044 233.447C155.044 234.217 154.884 234.892 154.564 235.472C154.254 236.042 153.799 236.487 153.199 236.807C152.609 237.117 151.919 237.272 151.129 237.272ZM151.129 235.367C151.489 235.367 151.799 235.292 152.059 235.142C152.329 234.982 152.534 234.762 152.674 234.482C152.824 234.192 152.899 233.847 152.899 233.447C152.899 233.047 152.824 232.707 152.674 232.427C152.534 232.137 152.329 231.917 152.059 231.767C151.799 231.607 151.489 231.527 151.129 231.527C150.769 231.527 150.454 231.607 150.184 231.767C149.914 231.917 149.709 232.137 149.569 232.427C149.429 232.707 149.359 233.047 149.359 233.447C149.359 233.847 149.429 234.192 149.569 234.482C149.709 234.762 149.914 234.982 150.184 235.142C150.454 235.292 150.769 235.367 151.129 235.367ZM159.929 237.272C159.109 237.272 158.409 237.102 157.829 236.762C157.249 236.422 156.799 235.912 156.479 235.232C156.169 234.542 156.014 233.692 156.014 232.682C156.014 231.342 156.169 230.212 156.479 229.292C156.799 228.372 157.274 227.682 157.904 227.222C158.534 226.762 159.309 226.532 160.229 226.532C160.909 226.532 161.499 226.487 161.999 226.397C162.499 226.297 162.909 226.167 163.229 226.007V227.987C162.969 228.137 162.609 228.252 162.149 228.332C161.689 228.412 161.124 228.452 160.454 228.452C159.944 228.452 159.519 228.537 159.179 228.707C158.839 228.877 158.574 229.122 158.384 229.442C158.204 229.752 158.074 230.132 157.994 230.582H158.069C158.259 230.312 158.549 230.097 158.939 229.937C159.329 229.777 159.814 229.697 160.394 229.697C161.064 229.697 161.659 229.852 162.179 230.162C162.709 230.462 163.119 230.897 163.409 231.467C163.699 232.027 163.844 232.687 163.844 233.447C163.844 234.217 163.684 234.892 163.364 235.472C163.054 236.042 162.599 236.487 161.999 236.807C161.409 237.117 160.719 237.272 159.929 237.272ZM159.929 235.367C160.289 235.367 160.599 235.292 160.859 235.142C161.129 234.982 161.334 234.762 161.474 234.482C161.624 234.192 161.699 233.847 161.699 233.447C161.699 233.047 161.624 232.707 161.474 232.427C161.334 232.137 161.129 231.917 160.859 231.767C160.599 231.607 160.289 231.527 159.929 231.527C159.569 231.527 159.254 231.607 158.984 231.767C158.714 231.917 158.509 232.137 158.369 232.427C158.229 232.707 158.159 233.047 158.159 233.447C158.159 233.847 158.229 234.192 158.369 234.482C158.509 234.762 158.714 234.982 158.984 235.142C159.254 235.292 159.569 235.367 159.929 235.367ZM168.654 237.272C167.844 237.272 167.144 237.112 166.554 236.792C165.974 236.462 165.524 235.992 165.204 235.382C164.894 234.762 164.739 234.017 164.739 233.147C164.739 232.267 164.894 231.522 165.204 230.912C165.524 230.292 165.974 229.822 166.554 229.502C167.144 229.172 167.844 229.007 168.654 229.007C169.454 229.007 170.149 229.172 170.739 229.502C171.329 229.822 171.779 230.292 172.089 230.912C172.409 231.522 172.569 232.267 172.569 233.147C172.569 234.017 172.409 234.762 172.089 235.382C171.779 235.992 171.329 236.462 170.739 236.792C170.149 237.112 169.454 237.272 168.654 237.272ZM168.654 235.352C168.984 235.352 169.279 235.277 169.539 235.127C169.809 234.967 170.024 234.722 170.184 234.392C170.344 234.052 170.424 233.637 170.424 233.147C170.424 232.647 170.344 232.232 170.184 231.902C170.024 231.572 169.809 231.327 169.539 231.167C169.279 231.007 168.984 230.927 168.654 230.927C168.314 230.927 168.009 231.007 167.739 231.167C167.479 231.327 167.269 231.572 167.109 231.902C166.959 232.232 166.884 232.647 166.884 233.147C166.884 233.637 166.959 234.052 167.109 234.392C167.269 234.722 167.479 234.967 167.739 235.127C168.009 235.277 168.314 235.352 168.654 235.352ZM175.097 237.122V231.152H172.637V229.157H179.717V231.152H177.242V237.122H175.097ZM182.476 237.272C181.916 237.272 181.426 237.167 181.006 236.957C180.586 236.747 180.261 236.457 180.031 236.087C179.811 235.707 179.701 235.277 179.701 234.797C179.701 234.317 179.816 233.892 180.046 233.522C180.286 233.142 180.636 232.847 181.096 232.637C181.556 232.427 182.116 232.322 182.776 232.322H185.191V233.822H182.866C182.526 233.822 182.266 233.897 182.086 234.047C181.916 234.197 181.831 234.392 181.831 234.632C181.831 234.902 181.931 235.117 182.131 235.277C182.331 235.437 182.626 235.517 183.016 235.517C183.336 235.517 183.616 235.457 183.856 235.337C184.106 235.207 184.301 235.032 184.441 234.812C184.581 234.592 184.651 234.337 184.651 234.047V231.947C184.651 231.587 184.531 231.312 184.291 231.122C184.061 230.932 183.741 230.837 183.331 230.837C183.041 230.837 182.786 230.902 182.566 231.032C182.356 231.162 182.211 231.322 182.131 231.512H180.001C180.161 230.792 180.526 230.197 181.096 229.727C181.666 229.247 182.431 229.007 183.391 229.007C184.101 229.007 184.706 229.122 185.206 229.352C185.716 229.582 186.106 229.927 186.376 230.387C186.656 230.837 186.796 231.382 186.796 232.022V237.122H184.951L184.726 236.237H184.651C184.461 236.507 184.186 236.747 183.826 236.957C183.466 237.167 183.016 237.272 182.476 237.272Z" fill="black"/>
</g>
<defs>
<filter id="filter0_d_377_918" x="9.53674e-05" y="0.000119209" width="317.195" height="317.195" filterUnits="userSpaceOnUse" color-interpolation-filters="sRGB">
<feFlood flood-opacity="0" result="BackgroundImageFix"/>
<feColorMatrix in="SourceAlpha" type="matrix" values="0 0 0 0 0 0 0 0 0 0 0 0 0 0 0 0 0 0 127 0" result="hardAlpha"/>
<feOffset dy="4.97561"/>
<feGaussianBlur stdDeviation="15.5488"/>
<feComposite in2="hardAlpha" operator="out"/>
<feColorMatrix type="matrix" values="0 0 0 0 0 0 0 0 0 0 0 0 0 0 0 0 0 0 0.1 0"/>
<feBlend mode="normal" in2="BackgroundImageFix" result="effect1_dropShadow_377_918"/>
<feBlend mode="normal" in="SourceGraphic" in2="effect1_dropShadow_377_918" result="shape"/>
</filter>
</defs>
</svg>
