<svg width="150" height="201" viewBox="0 0 150 201" fill="none" xmlns="http://www.w3.org/2000/svg">
<path fill-rule="evenodd" clip-rule="evenodd" d="M26.0916 0H93.0986L149.889 59.1946V174.329C149.889 188.752 138.221 200.42 123.848 200.42H26.0916C11.6686 200.42 4.1216e-09 188.752 4.1216e-09 174.329V26.0916C-0.000253226 11.6686 11.6683 0 26.0916 0Z" fill="#FF7F30"/>
<path d="M38 94.2532V97.8929C38 99.5454 39.3396 100.885 40.9921 100.885H44.6318C46.2843 100.885 47.6239 99.5454 47.6239 97.8929V94.2532C47.6239 92.6007 46.2843 91.261 44.6318 91.261H40.9921C39.3396 91.261 38 92.6007 38 94.2532Z" fill="white"/>
<path d="M38 103.877V107.517C38 109.169 39.3396 110.509 40.9921 110.509H44.6318C46.2843 110.509 47.6239 109.169 47.6239 107.517V103.877C47.6239 102.225 46.2843 100.885 44.6318 100.885H40.9921C39.3396 100.885 38 102.225 38 103.877Z" fill="white"/>
<path d="M38 113.501V117.141C38 118.793 39.3396 120.133 40.9921 120.133H44.6318C46.2843 120.133 47.6239 118.793 47.6239 117.141V113.501C47.6239 111.849 46.2843 110.509 44.6318 110.509H40.9921C39.3396 110.509 38 111.849 38 113.501Z" fill="white"/>
<path d="M38 123.125V126.765C38 128.417 39.3396 129.757 40.9921 129.757H44.6318C46.2843 129.757 47.6239 128.417 47.6239 126.765V123.125C47.6239 121.473 46.2843 120.133 44.6318 120.133H40.9921C39.3396 120.133 38 121.473 38 123.125Z" fill="white"/>
<path d="M47.6248 84.6291V88.2689C47.6248 89.9214 48.9644 91.261 50.6169 91.261H54.2566C55.9091 91.261 57.2487 89.9214 57.2487 88.2689V84.6291C57.2487 82.9766 55.9091 81.637 54.2566 81.637H50.6169C48.9644 81.637 47.6248 82.9766 47.6248 84.6291Z" fill="white"/>
<path d="M47.6378 94.2531V97.8929C47.6378 99.5454 48.9774 100.885 50.6299 100.885H54.2696C55.9221 100.885 57.2617 99.5454 57.2617 97.8929V94.2531C57.2617 92.6006 55.9221 91.261 54.2696 91.261H50.6299C48.9774 91.261 47.6378 92.6006 47.6378 94.2531Z" fill="white"/>
<path d="M47.6239 103.877V107.517C47.6239 109.169 48.9644 110.509 50.6169 110.509H54.2566C55.9091 110.509 57.2487 109.169 57.2487 107.517V103.877C57.2487 102.225 55.9091 100.885 54.2566 100.885H50.6169C48.9644 100.885 47.6239 102.225 47.6239 103.877Z" fill="white"/>
<path d="M47.6239 113.501V117.141C47.6239 118.793 48.9644 120.133 50.6169 120.133H54.2566C55.9091 120.133 57.2487 118.793 57.2487 117.141V113.501C57.2487 111.849 55.9091 110.509 54.2566 110.509H50.6169C48.9644 110.509 47.6239 111.849 47.6239 113.501Z" fill="white"/>
<path d="M57.2464 84.6291V88.2689C57.2464 89.9214 58.586 91.261 60.2384 91.261H63.8782C65.5306 91.261 66.8702 89.9214 66.8702 88.2689V84.6291C66.8702 82.9766 65.5306 81.637 63.8782 81.637H60.2384C58.586 81.637 57.2464 82.9766 57.2464 84.6291Z" fill="white"/>
<path d="M57.2464 75.005V78.6448C57.2464 80.2973 58.586 81.637 60.2384 81.637H63.8782C65.5306 81.637 66.8702 80.2973 66.8702 78.6448V75.005C66.8702 73.3525 65.5306 72.0129 63.8782 72.0129H60.2384C58.586 72.0129 57.2464 73.3525 57.2464 75.005Z" fill="white"/>
<path d="M57.2593 94.2531V97.8929C57.2593 99.5454 58.5989 100.885 60.2514 100.885H63.8912C65.5436 100.885 66.8832 99.5454 66.8832 97.8929V94.2531C66.8832 92.6006 65.5436 91.261 63.8912 91.261H60.2514C58.5989 91.261 57.2593 92.6006 57.2593 94.2531Z" fill="white"/>
<path d="M66.8712 84.6161V88.2558C66.8712 89.9083 68.2108 91.248 69.8633 91.248H73.503C75.1555 91.248 76.495 89.9083 76.495 88.2558V84.6161C76.495 82.9636 75.1555 81.6239 73.503 81.6239H69.8633C68.2108 81.6239 66.8712 82.9636 66.8712 84.6161Z" fill="white"/>
<path d="M66.8841 74.9921V78.6319C66.8841 80.2844 68.2237 81.624 69.8762 81.624H73.5159C75.1684 81.624 76.508 80.2844 76.508 78.6319V74.9921C76.508 73.3396 75.1684 72 73.5159 72H69.8762C68.2237 72 66.8841 73.3396 66.8841 74.9921Z" fill="white"/>
<path d="M66.8841 94.2401V97.8799C66.8841 99.5324 68.2237 100.872 69.8762 100.872H73.516C75.1684 100.872 76.508 99.5324 76.508 97.8799V94.2401C76.508 92.5876 75.1684 91.248 73.516 91.248H69.8762C68.2237 91.248 66.8841 92.5876 66.8841 94.2401Z" fill="white"/>
<path d="M76.508 74.9921V78.6319C76.508 80.2844 77.8485 81.624 79.501 81.624H83.1407C84.7932 81.624 86.1328 80.2844 86.1328 78.6319V74.9921C86.1328 73.3396 84.7932 72 83.1407 72H79.501C77.8485 72 76.508 73.3396 76.508 74.9921Z" fill="white"/>
<path d="M48.686 133.151V136C48.686 137.288 49.7298 138.332 51.0175 138.332H53.8671C55.1548 138.332 56.1986 137.288 56.1986 136V133.151C56.1986 131.863 55.1548 130.819 53.8671 130.819H51.0175C49.7298 130.819 48.686 131.863 48.686 133.151Z" fill="white"/>
<path d="M48.686 123.527V126.376C48.686 127.664 49.7299 128.708 51.0175 128.708H53.8671C55.1548 128.708 56.1986 127.664 56.1986 126.376V123.527C56.1986 122.239 55.1548 121.195 53.8671 121.195H51.0175C49.7299 121.195 48.686 122.239 48.686 123.527Z" fill="white"/>
<path d="M59.1382 133.475V135.69C59.1382 136.691 59.9501 137.503 60.9516 137.503H63.1665C64.168 137.503 64.9799 136.691 64.9799 135.69V133.475C64.9799 132.473 64.168 131.661 63.1665 131.661H60.9516C59.9501 131.661 59.1382 132.473 59.1382 133.475Z" fill="white"/>
<path d="M60.2772 143.526V144.873C60.2772 145.488 60.776 145.987 61.3912 145.987H62.7382C63.3535 145.987 63.8522 145.488 63.8522 144.873V143.526C63.8522 142.911 63.3535 142.412 62.7382 142.412H61.3912C60.776 142.412 60.2772 142.911 60.2772 143.526Z" fill="white"/>
<path d="M57.2593 103.877V107.517C57.2593 109.169 58.5989 110.509 60.2514 110.509H63.8911C65.5436 110.509 66.8832 109.169 66.8832 107.517V103.877C66.8832 102.225 65.5436 100.885 63.8912 100.885H60.2514C58.5989 100.885 57.2593 102.225 57.2593 103.877Z" fill="white"/>
<path d="M58.3107 113.903V116.752C58.3107 118.04 59.3546 119.084 60.6422 119.084H63.4918C64.7795 119.084 65.8233 118.04 65.8233 116.752V113.903C65.8233 112.615 64.7795 111.571 63.4918 111.571H60.6422C59.3546 111.571 58.3107 112.615 58.3107 113.903Z" fill="white"/>
<path d="M58.3107 123.527V126.376C58.3107 127.664 59.3546 128.708 60.6422 128.708H63.4918C64.7795 128.708 65.8233 127.664 65.8233 126.376V123.527C65.8233 122.239 64.7795 121.195 63.4918 121.195H60.6422C59.3546 121.195 58.3107 122.239 58.3107 123.527Z" fill="white"/>
<path d="M68.7628 133.462V135.676C68.7628 136.678 69.5746 137.49 70.5761 137.49H72.7911C73.7926 137.49 74.6044 136.678 74.6044 135.676V133.462C74.6044 132.46 73.7926 131.648 72.7911 131.648H70.5761C69.5746 131.648 68.7628 132.46 68.7628 133.462Z" fill="white"/>
<path d="M69.902 143.539V144.886C69.902 145.501 70.4008 146 71.016 146H72.363C72.9783 146 73.477 145.501 73.477 144.886V143.539C73.477 142.924 72.9783 142.425 72.363 142.425H71.016C70.4008 142.425 69.902 142.924 69.902 143.539Z" fill="white"/>
<path d="M67.9323 104.279V107.128C67.9323 108.416 68.9761 109.46 70.2638 109.46H73.1134C74.401 109.46 75.4449 108.416 75.4449 107.128V104.279C75.4449 102.991 74.401 101.947 73.1134 101.947H70.2638C68.9761 101.947 67.9323 102.991 67.9323 104.279Z" fill="white"/>
<path d="M67.9453 113.903V116.752C67.9453 118.04 68.9891 119.084 70.2768 119.084H73.1264C74.414 119.084 75.4578 118.04 75.4578 116.752V113.903C75.4578 112.615 74.414 111.571 73.1264 111.571H70.2768C68.9891 111.571 67.9453 112.615 67.9453 113.903Z" fill="white"/>
<path d="M68.7628 123.838V126.053C68.7628 127.054 69.5747 127.866 70.5762 127.866H72.7911C73.7926 127.866 74.6045 127.054 74.6045 126.053V123.838C74.6045 122.836 73.7926 122.024 72.7911 122.024H70.5762C69.5747 122.024 68.7628 122.836 68.7628 123.838Z" fill="white"/>
<path d="M79.5265 133.902V135.249C79.5265 135.864 80.0252 136.363 80.6404 136.363H81.9875C82.6027 136.363 83.1015 135.864 83.1015 135.249V133.902C83.1015 133.287 82.6027 132.788 81.9875 132.788H80.6404C80.0252 132.788 79.5265 133.287 79.5265 133.902Z" fill="white"/>
<path d="M79.5265 143.526V144.873C79.5265 145.488 80.0252 145.987 80.6404 145.987H81.9875C82.6027 145.987 83.1014 145.488 83.1014 144.873V143.526C83.1014 142.911 82.6027 142.412 81.9875 142.412H80.6404C80.0252 142.412 79.5265 142.911 79.5265 143.526Z" fill="white"/>
<path d="M77.5701 85.0047V87.8544C77.5701 89.142 78.6139 90.1859 79.9016 90.1859H82.7512C84.0388 90.1859 85.0827 89.142 85.0827 87.8544V85.0047C85.0827 83.7171 84.0388 82.6732 82.7512 82.6732H79.9016C78.6139 82.6732 77.5701 83.7171 77.5701 85.0047Z" fill="white"/>
<path d="M77.5571 94.6417V97.4913C77.5571 98.779 78.6009 99.8229 79.8886 99.8229H82.7382C84.0258 99.8229 85.0697 98.779 85.0697 97.4913V94.6417C85.0697 93.354 84.0258 92.3102 82.7382 92.3102H79.8886C78.6009 92.3102 77.5571 93.354 77.5571 94.6417Z" fill="white"/>
<path d="M77.5571 104.266V107.115C77.5571 108.403 78.6009 109.447 79.8886 109.447H82.7382C84.0258 109.447 85.0697 108.403 85.0697 107.115V104.266C85.0697 102.978 84.0258 101.934 82.7382 101.934H79.8886C78.6009 101.934 77.5571 102.978 77.5571 104.266Z" fill="white"/>
<path d="M78.4008 114.213V116.428C78.4008 117.43 79.2127 118.242 80.2142 118.242H82.4291C83.4306 118.242 84.2425 117.43 84.2425 116.428V114.213C84.2425 113.212 83.4306 112.4 82.4291 112.4H80.2142C79.2127 112.4 78.4008 113.212 78.4008 114.213Z" fill="white"/>
<path d="M78.4008 123.838V126.052C78.4008 127.054 79.2127 127.866 80.2142 127.866H82.4291C83.4306 127.866 84.2425 127.054 84.2425 126.052V123.838C84.2425 122.836 83.4306 122.024 82.4291 122.024H80.2142C79.2127 122.024 78.4008 122.836 78.4008 123.838Z" fill="white"/>
<path d="M89.1646 133.902V135.249C89.1646 135.864 89.6633 136.363 90.2786 136.363H91.6257C92.2409 136.363 92.7396 135.864 92.7396 135.249V133.902C92.7396 133.287 92.2409 132.788 91.6257 132.788H90.2786C89.6633 132.788 89.1646 133.287 89.1646 133.902Z" fill="white"/>
<path d="M89.1516 143.526V144.873C89.1516 145.488 89.6504 145.987 90.2656 145.987H91.6127C92.2279 145.987 92.7266 145.488 92.7266 144.873V143.526C92.7266 142.911 92.2279 142.412 91.6127 142.412H90.2656C89.6504 142.412 89.1516 142.911 89.1516 143.526Z" fill="white"/>
<path d="M87.1949 85.0178V87.8674C87.1949 89.1551 88.2387 90.1989 89.5264 90.1989H92.376C93.6636 90.1989 94.7075 89.1551 94.7075 87.8674V85.0178C94.7075 83.7301 93.6636 82.6862 92.376 82.6862H89.5264C88.2387 82.6862 87.1949 83.7301 87.1949 85.0178Z" fill="white"/>
<path d="M87.1949 75.3806V78.2302C87.1949 79.5179 88.2387 80.5618 89.5264 80.5618H92.376C93.6636 80.5618 94.7075 79.5179 94.7075 78.2302V75.3806C94.7075 74.0929 93.6636 73.0491 92.376 73.0491H89.5264C88.2387 73.0491 87.1949 74.0929 87.1949 75.3806Z" fill="white"/>
<path d="M88.0224 94.9655V97.1805C88.0224 98.182 88.8343 98.9939 89.8358 98.9939H92.0507C93.0522 98.9939 93.8641 98.182 93.8641 97.1805V94.9655C93.8641 93.964 93.0522 93.1521 92.0507 93.1521H89.8358C88.8343 93.1521 88.0224 93.964 88.0224 94.9655Z" fill="white"/>
<path d="M88.0224 104.59V106.804C88.0224 107.806 88.8343 108.618 89.8358 108.618H92.0507C93.0522 108.618 93.8641 107.806 93.8641 106.804V104.59C93.8641 103.588 93.0522 102.776 92.0507 102.776H89.8358C88.8343 102.776 88.0224 103.588 88.0224 104.59Z" fill="white"/>
<path d="M88.0224 114.213V116.428C88.0224 117.43 88.8342 118.242 89.8357 118.242H92.0507C93.0522 118.242 93.864 117.43 93.864 116.428V114.213C93.864 113.212 93.0522 112.4 92.0507 112.4H89.8357C88.8342 112.4 88.0224 113.212 88.0224 114.213Z" fill="white"/>
<path d="M89.1646 124.278V125.625C89.1646 126.24 89.6633 126.739 90.2786 126.739H91.6256C92.2408 126.739 92.7396 126.24 92.7396 125.625V124.278C92.7396 123.663 92.2408 123.164 91.6256 123.164H90.2786C89.6633 123.164 89.1646 123.663 89.1646 124.278Z" fill="white"/>
<path d="M111.987 125.625V124.278C111.987 123.663 111.488 123.164 110.873 123.164H109.526C108.911 123.164 108.412 123.663 108.412 124.278V125.625C108.412 126.24 108.911 126.739 109.526 126.739H110.873C111.488 126.739 111.987 126.24 111.987 125.625Z" fill="white"/>
<path d="M111.987 115.988V114.641C111.987 114.026 111.488 113.527 110.873 113.527H109.526C108.911 113.527 108.412 114.026 108.412 114.641V115.988C108.412 116.603 108.911 117.102 109.526 117.102H110.873C111.488 117.102 111.987 116.603 111.987 115.988Z" fill="white"/>
<path d="M112 106.364V105.017C112 104.402 111.501 103.903 110.886 103.903H109.539C108.924 103.903 108.425 104.402 108.425 105.017V106.364C108.425 106.979 108.924 107.478 109.539 107.478H110.886C111.501 107.478 112 106.979 112 106.364Z" fill="white"/>
<path d="M111.987 96.7401V95.393C111.987 94.7778 111.488 94.279 110.873 94.279H109.526C108.911 94.279 108.412 94.7778 108.412 95.393V96.7401C108.412 97.3553 108.911 97.854 109.526 97.854H110.873C111.488 97.854 111.987 97.3553 111.987 96.7401Z" fill="white"/>
<path d="M103.501 87.5436V85.3286C103.501 84.3271 102.689 83.5152 101.688 83.5152H99.4729C98.4714 83.5152 97.6596 84.3271 97.6596 85.3286V87.5436C97.6596 88.5451 98.4714 89.357 99.4729 89.357H101.688C102.689 89.357 103.501 88.5451 103.501 87.5436Z" fill="white"/>
<path d="M102.362 135.249V133.902C102.362 133.287 101.863 132.788 101.248 132.788H99.9011C99.2859 132.788 98.7872 133.287 98.7872 133.902V135.249C98.7872 135.864 99.2859 136.363 99.9011 136.363H101.248C101.863 136.363 102.362 135.864 102.362 135.249Z" fill="white"/>
<path d="M102.362 125.625V124.278C102.362 123.663 101.863 123.164 101.248 123.164H99.9011C99.2859 123.164 98.7872 123.663 98.7872 124.278V125.625C98.7872 126.24 99.2859 126.739 99.9011 126.739H101.248C101.863 126.739 102.362 126.24 102.362 125.625Z" fill="white"/>
<path d="M102.362 116.001V114.654C102.362 114.039 101.863 113.54 101.248 113.54H99.9011C99.2859 113.54 98.7872 114.039 98.7872 114.654V116.001C98.7872 116.616 99.2859 117.115 99.9011 117.115H101.248C101.863 117.115 102.362 116.616 102.362 116.001Z" fill="white"/>
<path d="M102.362 106.364V105.017C102.362 104.402 101.863 103.903 101.248 103.903H99.9011C99.2859 103.903 98.7872 104.402 98.7872 105.017V106.364C98.7872 106.979 99.2859 107.478 99.9011 107.478H101.248C101.863 107.478 102.362 106.979 102.362 106.364Z" fill="white"/>
<path d="M103.501 97.1674V94.9525C103.501 93.9509 102.689 93.139 101.688 93.139H99.4729C98.4714 93.139 97.6595 93.9509 97.6595 94.9525V97.1674C97.6595 98.1689 98.4714 98.9808 99.4729 98.9808H101.688C102.689 98.9808 103.501 98.1689 103.501 97.1674Z" fill="white"/>
<path opacity="0.302" fill-rule="evenodd" clip-rule="evenodd" d="M93.043 0V58.7439H149.884L93.043 0Z" fill="black"/>
</svg>
