<svg width="331" height="331" viewBox="0 0 331 331" fill="none" xmlns="http://www.w3.org/2000/svg">
<g opacity="0.25">
<g clip-path="url(#clip0_377_586)">
<rect y="105.232" width="249" height="249" rx="30" transform="rotate(-25 0 105.232)" fill="white"/>
<rect width="249" height="147" transform="translate(19.0195 146.016) rotate(-25)" fill="#222222"/>
<circle cx="38.1768" cy="116.117" r="11" transform="rotate(-25 38.1768 116.117)" fill="#ADB1B7"/>
<path d="M109.959 285.435C109.838 285.175 109.792 284.917 109.819 284.661C109.838 284.402 109.924 284.168 110.076 283.957C110.219 283.743 110.42 283.576 110.68 283.455L113.29 282.238C113.55 282.116 113.808 282.07 114.064 282.098C114.322 282.117 114.557 282.202 114.768 282.354C114.982 282.497 115.149 282.698 115.27 282.958L115.279 282.976C115.4 283.236 115.448 283.497 115.423 283.759C115.401 284.012 115.316 284.246 115.167 284.463C115.021 284.671 114.818 284.835 114.558 284.956L111.948 286.174C111.688 286.295 111.432 286.344 111.179 286.323C110.917 286.298 110.682 286.212 110.474 286.066C110.258 285.917 110.089 285.713 109.968 285.453L109.959 285.435ZM112.371 284.31C112.25 284.05 112.204 283.792 112.231 283.537C112.25 283.278 112.336 283.043 112.488 282.832C112.631 282.619 112.832 282.451 113.092 282.33L118.204 279.946C118.463 279.825 118.721 279.779 118.977 279.806C119.236 279.825 119.471 279.911 119.681 280.063C119.895 280.206 120.063 280.407 120.184 280.667L120.192 280.685C120.313 280.945 120.361 281.206 120.336 281.468C120.314 281.72 120.229 281.955 120.08 282.172C119.934 282.38 119.731 282.544 119.471 282.665L114.36 285.049C114.1 285.17 113.844 285.22 113.591 285.198C113.329 285.173 113.094 285.087 112.886 284.941C112.67 284.792 112.501 284.588 112.38 284.328L112.371 284.31ZM117.279 282.021C117.158 281.762 117.111 281.504 117.139 281.248C117.158 280.989 117.244 280.754 117.396 280.544C117.539 280.33 117.74 280.162 118 280.041L123.111 277.658C123.371 277.537 123.629 277.49 123.885 277.518C124.144 277.537 124.379 277.622 124.589 277.774C124.803 277.917 124.97 278.119 125.092 278.378L125.1 278.397C125.221 278.656 125.269 278.917 125.244 279.179C125.222 279.432 125.137 279.667 124.988 279.883C124.842 280.091 124.639 280.256 124.379 280.377L119.268 282.76C119.008 282.881 118.752 282.931 118.499 282.909C118.237 282.884 118.002 282.799 117.794 282.653C117.578 282.504 117.409 282.299 117.288 282.04L117.279 282.021ZM122.187 279.733C122.066 279.473 122.019 279.215 122.047 278.96C122.066 278.701 122.152 278.466 122.303 278.255C122.447 278.041 122.648 277.874 122.908 277.753L125.518 276.536C125.778 276.414 126.036 276.368 126.291 276.396C126.55 276.415 126.785 276.5 126.996 276.652C127.209 276.795 127.377 276.997 127.498 277.256L127.506 277.274C127.628 277.534 127.676 277.795 127.651 278.057C127.629 278.31 127.543 278.545 127.394 278.761C127.248 278.969 127.046 279.133 126.786 279.255L124.176 280.472C123.916 280.593 123.659 280.643 123.407 280.621C123.145 280.596 122.91 280.51 122.702 280.364C122.486 280.215 122.317 280.011 122.196 279.751L122.187 279.733ZM124.599 278.608C124.478 278.348 124.431 278.091 124.459 277.835C124.478 277.576 124.564 277.341 124.715 277.13C124.859 276.917 125.06 276.749 125.32 276.628L127.93 275.411C128.19 275.29 128.447 275.243 128.703 275.271C128.962 275.29 129.197 275.375 129.408 275.527C129.621 275.67 129.789 275.872 129.91 276.132L129.918 276.15C130.04 276.41 130.088 276.67 130.063 276.932C130.041 277.185 129.955 277.42 129.806 277.636C129.66 277.844 129.458 278.009 129.198 278.13L126.588 279.347C126.328 279.468 126.071 279.518 125.818 279.496C125.557 279.471 125.322 279.385 125.114 279.24C124.898 279.091 124.729 278.886 124.607 278.626L124.599 278.608ZM132.264 275.034C132.143 274.774 132.096 274.516 132.124 274.261C132.143 274.002 132.229 273.767 132.38 273.556C132.524 273.342 132.725 273.175 132.985 273.054L138.096 270.67C138.356 270.549 138.614 270.502 138.87 270.53C139.129 270.549 139.363 270.635 139.574 270.787C139.788 270.93 139.955 271.131 140.076 271.391L140.085 271.409C140.206 271.669 140.254 271.93 140.229 272.191C140.207 272.444 140.122 272.679 139.973 272.896C139.827 273.104 139.624 273.268 139.364 273.389L134.253 275.773C133.993 275.894 133.736 275.944 133.484 275.922C133.222 275.897 132.987 275.811 132.779 275.665C132.563 275.516 132.394 275.312 132.273 275.052L132.264 275.034ZM137.172 272.745C137.051 272.485 137.004 272.228 137.032 271.972C137.051 271.713 137.136 271.478 137.288 271.268C137.431 271.054 137.633 270.886 137.893 270.765L143.004 268.382C143.264 268.26 143.522 268.214 143.778 268.242C144.036 268.261 144.271 268.346 144.482 268.498C144.696 268.641 144.863 268.843 144.984 269.102L144.993 269.12C145.114 269.38 145.162 269.641 145.137 269.903C145.115 270.156 145.03 270.391 144.881 270.607C144.735 270.815 144.532 270.979 144.272 271.101L139.16 273.484C138.901 273.605 138.644 273.655 138.391 273.633C138.13 273.608 137.895 273.523 137.687 273.377C137.47 273.228 137.302 273.023 137.18 272.763L137.172 272.745ZM142.08 270.457C141.959 270.197 141.912 269.939 141.94 269.683C141.959 269.424 142.044 269.19 142.196 268.979C142.339 268.765 142.541 268.598 142.801 268.477L147.912 266.093C148.172 265.972 148.43 265.925 148.685 265.953C148.944 265.972 149.179 266.058 149.39 266.209C149.604 266.353 149.771 266.554 149.892 266.814L149.901 266.832C150.022 267.092 150.07 267.352 150.045 267.614C150.023 267.867 149.938 268.102 149.788 268.319C149.643 268.526 149.44 268.691 149.18 268.812L144.068 271.196C143.809 271.317 143.552 271.366 143.299 271.345C143.037 271.319 142.803 271.234 142.595 271.088C142.378 270.939 142.209 270.735 142.088 270.475L142.08 270.457ZM146.988 268.168C146.867 267.908 146.82 267.651 146.848 267.395C146.867 267.136 146.952 266.901 147.104 266.69C147.247 266.477 147.449 266.309 147.708 266.188L150.319 264.971C150.578 264.85 150.836 264.803 151.092 264.831C151.351 264.85 151.586 264.935 151.796 265.087C152.01 265.23 152.177 265.432 152.299 265.692L152.307 265.71C152.428 265.97 152.476 266.23 152.451 266.492C152.429 266.745 152.344 266.98 152.195 267.196C152.049 267.404 151.846 267.569 151.586 267.69L148.976 268.907C148.716 269.028 148.46 269.078 148.207 269.056C147.945 269.031 147.711 268.945 147.503 268.8C147.286 268.651 147.117 268.446 146.996 268.186L146.988 268.168ZM149.4 267.043C149.279 266.784 149.232 266.526 149.26 266.27C149.279 266.011 149.364 265.776 149.516 265.566C149.659 265.352 149.861 265.184 150.12 265.063L155.232 262.68C155.492 262.559 155.75 262.512 156.005 262.54C156.264 262.559 156.499 262.644 156.71 262.796C156.923 262.939 157.091 263.141 157.212 263.4L157.22 263.419C157.342 263.678 157.39 263.939 157.365 264.201C157.343 264.454 157.257 264.689 157.108 264.905C156.962 265.113 156.76 265.278 156.5 265.399L151.388 267.782C151.128 267.903 150.872 267.953 150.619 267.931C150.357 267.906 150.123 267.821 149.915 267.675C149.698 267.526 149.529 267.321 149.408 267.062L149.4 267.043ZM154.308 264.755C154.186 264.495 154.14 264.237 154.168 263.982C154.187 263.723 154.272 263.488 154.424 263.277C154.567 263.063 154.768 262.896 155.028 262.775L157.638 261.558C157.898 261.436 158.156 261.39 158.412 261.418C158.671 261.437 158.905 261.522 159.116 261.674C159.33 261.817 159.497 262.018 159.618 262.278L159.627 262.296C159.748 262.556 159.796 262.817 159.771 263.079C159.749 263.332 159.664 263.567 159.515 263.783C159.369 263.991 159.166 264.155 158.906 264.277L156.296 265.494C156.036 265.615 155.78 265.664 155.527 265.643C155.265 265.618 155.03 265.532 154.823 265.386C154.606 265.237 154.437 265.033 154.316 264.773L154.308 264.755ZM161.973 261.181C161.851 260.921 161.805 260.663 161.833 260.407C161.852 260.148 161.937 259.914 162.089 259.703C162.232 259.489 162.433 259.322 162.693 259.2L167.805 256.817C168.065 256.696 168.322 256.649 168.578 256.677C168.837 256.696 169.072 256.781 169.282 256.933C169.496 257.076 169.664 257.278 169.785 257.538L169.793 257.556C169.915 257.816 169.963 258.076 169.938 258.338C169.916 258.591 169.83 258.826 169.681 259.042C169.535 259.25 169.332 259.415 169.073 259.536L163.961 261.919C163.701 262.041 163.445 262.09 163.192 262.068C162.93 262.043 162.695 261.958 162.488 261.812C162.271 261.663 162.102 261.459 161.981 261.199L161.973 261.181ZM166.88 258.892C166.759 258.632 166.713 258.374 166.74 258.119C166.76 257.86 166.845 257.625 166.997 257.414C167.14 257.201 167.341 257.033 167.601 256.912L172.713 254.528C172.973 254.407 173.23 254.361 173.486 254.388C173.745 254.407 173.98 254.493 174.19 254.645C174.404 254.788 174.572 254.989 174.693 255.249L174.701 255.267C174.822 255.527 174.87 255.788 174.845 256.05C174.824 256.302 174.738 256.537 174.589 256.754C174.443 256.962 174.24 257.126 173.981 257.247L168.869 259.631C168.609 259.752 168.353 259.802 168.1 259.78C167.838 259.755 167.603 259.669 167.396 259.523C167.179 259.374 167.01 259.17 166.889 258.91L166.88 258.892ZM171.788 256.603C171.667 256.344 171.62 256.086 171.648 255.83C171.667 255.571 171.753 255.336 171.905 255.126C172.048 254.912 172.249 254.744 172.509 254.623L175.119 253.406C175.379 253.285 175.637 253.238 175.892 253.266C176.151 253.285 176.386 253.371 176.597 253.523C176.811 253.666 176.978 253.867 177.099 254.127L177.108 254.145C177.229 254.405 177.277 254.666 177.252 254.927C177.23 255.18 177.145 255.415 176.996 255.632C176.85 255.839 176.647 256.004 176.387 256.125L173.777 257.342C173.517 257.463 173.261 257.513 173.008 257.491C172.746 257.466 172.511 257.381 172.303 257.235C172.087 257.086 171.918 256.881 171.797 256.622L171.788 256.603ZM174.2 255.479C174.079 255.219 174.032 254.961 174.06 254.705C174.079 254.446 174.165 254.212 174.317 254.001C174.46 253.787 174.661 253.62 174.921 253.499L177.531 252.281C177.791 252.16 178.049 252.114 178.304 252.142C178.563 252.161 178.798 252.246 179.009 252.398C179.223 252.541 179.39 252.742 179.511 253.002L179.52 253.02C179.641 253.28 179.689 253.541 179.664 253.803C179.642 254.056 179.557 254.29 179.407 254.507C179.262 254.715 179.059 254.879 178.799 255L176.189 256.218C175.929 256.339 175.673 256.388 175.42 256.367C175.158 256.341 174.923 256.256 174.715 256.11C174.499 255.961 174.33 255.757 174.209 255.497L174.2 255.479ZM181.865 251.904C181.744 251.645 181.698 251.387 181.725 251.131C181.744 250.872 181.83 250.637 181.982 250.427C182.125 250.213 182.326 250.045 182.586 249.924L187.698 247.541C187.957 247.42 188.215 247.373 188.471 247.401C188.73 247.42 188.965 247.505 189.175 247.657C189.389 247.8 189.557 248.002 189.678 248.261L189.686 248.28C189.807 248.539 189.855 248.8 189.83 249.062C189.808 249.315 189.723 249.55 189.574 249.766C189.428 249.974 189.225 250.139 188.965 250.26L183.854 252.643C183.594 252.764 183.338 252.814 183.085 252.792C182.823 252.767 182.588 252.682 182.38 252.536C182.164 252.387 181.995 252.182 181.874 251.923L181.865 251.904ZM186.773 249.616C186.652 249.356 186.605 249.098 186.633 248.843C186.652 248.584 186.738 248.349 186.89 248.138C187.033 247.924 187.234 247.757 187.494 247.636L190.104 246.419C190.364 246.297 190.622 246.251 190.877 246.279C191.136 246.298 191.371 246.383 191.582 246.535C191.795 246.678 191.963 246.88 192.084 247.139L192.093 247.157C192.214 247.417 192.262 247.678 192.237 247.94C192.215 248.193 192.129 248.428 191.98 248.644C191.835 248.852 191.632 249.016 191.372 249.138L188.762 250.355C188.502 250.476 188.246 250.526 187.993 250.504C187.731 250.479 187.496 250.393 187.288 250.247C187.072 250.098 186.903 249.894 186.782 249.634L186.773 249.616ZM189.185 248.491C189.064 248.231 189.017 247.974 189.045 247.718C189.064 247.459 189.15 247.224 189.302 247.013C189.445 246.8 189.646 246.632 189.906 246.511L192.516 245.294C192.776 245.173 193.034 245.126 193.289 245.154C193.548 245.173 193.783 245.258 193.994 245.41C194.207 245.553 194.375 245.755 194.496 246.015L194.505 246.033C194.626 246.293 194.674 246.553 194.649 246.815C194.627 247.068 194.541 247.303 194.392 247.519C194.247 247.727 194.044 247.892 193.784 248.013L191.174 249.23C190.914 249.351 190.658 249.401 190.405 249.379C190.143 249.354 189.908 249.268 189.7 249.123C189.484 248.974 189.315 248.769 189.194 248.509L189.185 248.491ZM191.597 247.366C191.476 247.107 191.429 246.849 191.457 246.593C191.476 246.334 191.562 246.099 191.714 245.889C191.857 245.675 192.058 245.507 192.318 245.386L194.928 244.169C195.188 244.048 195.446 244.001 195.701 244.029C195.96 244.048 196.195 244.134 196.406 244.286C196.619 244.429 196.787 244.63 196.908 244.89L196.917 244.908C197.038 245.168 197.086 245.429 197.061 245.69C197.039 245.943 196.953 246.178 196.804 246.395C196.658 246.602 196.456 246.767 196.196 246.888L193.586 248.105C193.326 248.226 193.07 248.276 192.817 248.254C192.555 248.229 192.32 248.144 192.112 247.998C191.896 247.849 191.727 247.644 191.606 247.385L191.597 247.366ZM199.262 243.792C199.141 243.532 199.094 243.275 199.122 243.019C199.141 242.76 199.227 242.525 199.379 242.315C199.522 242.101 199.723 241.933 199.983 241.812L205.094 239.428C205.354 239.307 205.612 239.261 205.868 239.289C206.127 239.308 206.361 239.393 206.572 239.545C206.786 239.688 206.953 239.889 207.075 240.149L207.083 240.167C207.204 240.427 207.252 240.688 207.227 240.95C207.205 241.203 207.12 241.437 206.971 241.654C206.825 241.862 206.622 242.026 206.362 242.147L201.251 244.531C200.991 244.652 200.735 244.702 200.482 244.68C200.22 244.655 199.985 244.569 199.777 244.424C199.561 244.275 199.392 244.07 199.271 243.81L199.262 243.792ZM204.17 241.504C204.049 241.244 204.002 240.986 204.03 240.73C204.049 240.471 204.135 240.237 204.286 240.026C204.429 239.812 204.631 239.645 204.891 239.523L210.002 237.14C210.262 237.019 210.52 236.972 210.776 237C211.035 237.019 211.269 237.104 211.48 237.256C211.694 237.399 211.861 237.601 211.982 237.861L211.991 237.879C212.112 238.139 212.16 238.399 212.135 238.661C212.113 238.914 212.028 239.149 211.879 239.365C211.733 239.573 211.53 239.738 211.27 239.859L206.159 242.242C205.899 242.364 205.642 242.413 205.389 242.391C205.128 242.366 204.893 242.281 204.685 242.135C204.469 241.986 204.3 241.782 204.178 241.522L204.17 241.504ZM209.078 239.215C208.957 238.955 208.91 238.697 208.938 238.442C208.957 238.183 209.042 237.948 209.194 237.737C209.337 237.524 209.539 237.356 209.799 237.235L212.409 236.018C212.669 235.897 212.926 235.85 213.182 235.878C213.441 235.897 213.676 235.982 213.886 236.134C214.1 236.277 214.268 236.479 214.389 236.738L214.397 236.757C214.518 237.016 214.567 237.277 214.541 237.539C214.52 237.792 214.434 238.027 214.285 238.243C214.139 238.451 213.936 238.616 213.677 238.737L211.066 239.954C210.807 240.075 210.55 240.125 210.297 240.103C210.036 240.078 209.801 239.992 209.593 239.846C209.376 239.697 209.208 239.493 209.086 239.233L209.078 239.215ZM211.49 238.09C211.369 237.83 211.322 237.573 211.35 237.317C211.369 237.058 211.454 236.823 211.606 236.613C211.749 236.399 211.951 236.231 212.211 236.11L214.821 234.893C215.081 234.772 215.338 234.725 215.594 234.753C215.853 234.772 216.088 234.858 216.298 235.009C216.512 235.152 216.68 235.354 216.801 235.614L216.809 235.632C216.93 235.892 216.979 236.152 216.953 236.414C216.932 236.667 216.846 236.902 216.697 237.119C216.551 237.326 216.348 237.491 216.089 237.612L213.478 238.829C213.219 238.95 212.962 239 212.709 238.978C212.448 238.953 212.213 238.868 212.005 238.722C211.788 238.573 211.619 238.368 211.498 238.108L211.49 238.09ZM213.902 236.966C213.781 236.706 213.734 236.448 213.762 236.192C213.781 235.933 213.866 235.698 214.018 235.488C214.161 235.274 214.363 235.107 214.623 234.985L219.734 232.602C219.994 232.481 220.252 232.434 220.507 232.462C220.766 232.481 221.001 232.566 221.212 232.718C221.426 232.861 221.593 233.063 221.714 233.323L221.723 233.341C221.844 233.601 221.892 233.861 221.867 234.123C221.845 234.376 221.76 234.611 221.61 234.827C221.465 235.035 221.262 235.2 221.002 235.321L215.89 237.704C215.631 237.826 215.374 237.875 215.121 237.853C214.86 237.828 214.625 237.743 214.417 237.597C214.2 237.448 214.031 237.243 213.91 236.984L213.902 236.966ZM218.81 234.677C218.689 234.417 218.642 234.159 218.67 233.904C218.689 233.645 218.774 233.41 218.926 233.199C219.069 232.986 219.271 232.818 219.53 232.697L222.141 231.48C222.4 231.359 222.658 231.312 222.914 231.34C223.173 231.359 223.408 231.444 223.618 231.596C223.832 231.739 224 231.941 224.121 232.2L224.129 232.219C224.25 232.478 224.298 232.739 224.273 233.001C224.251 233.254 224.166 233.489 224.017 233.705C223.871 233.913 223.668 234.078 223.408 234.199L220.798 235.416C220.538 235.537 220.282 235.587 220.029 235.565C219.767 235.54 219.533 235.454 219.325 235.308C219.108 235.159 218.939 234.955 218.818 234.695L218.81 234.677ZM221.222 233.552C221.101 233.292 221.054 233.035 221.082 232.779C221.101 232.52 221.186 232.285 221.338 232.075C221.481 231.861 221.683 231.693 221.942 231.572L227.054 229.189C227.314 229.067 227.572 229.021 227.827 229.049C228.086 229.068 228.321 229.153 228.532 229.305C228.745 229.448 228.913 229.649 229.034 229.909L229.043 229.927C229.164 230.187 229.212 230.448 229.187 230.71C229.165 230.963 229.079 231.197 228.93 231.414C228.784 231.622 228.582 231.786 228.322 231.908L223.21 234.291C222.95 234.412 222.694 234.462 222.441 234.44C222.179 234.415 221.945 234.33 221.737 234.184C221.52 234.035 221.351 233.83 221.23 233.57L221.222 233.552ZM115.031 296.31C114.91 296.051 114.863 295.793 114.891 295.537C114.91 295.278 114.995 295.043 115.147 294.833C115.29 294.619 115.492 294.451 115.751 294.33L118.362 293.113C118.621 292.992 118.879 292.945 119.135 292.973C119.394 292.992 119.629 293.078 119.839 293.23C120.053 293.373 120.221 293.574 120.342 293.834L120.35 293.852C120.471 294.112 120.519 294.373 120.494 294.634C120.473 294.887 120.387 295.122 120.238 295.339C120.092 295.547 119.889 295.711 119.629 295.832L117.019 297.049C116.759 297.17 116.503 297.22 116.25 297.198C115.988 297.173 115.754 297.088 115.546 296.942C115.329 296.793 115.16 296.588 115.039 296.329L115.031 296.31ZM117.443 295.186C117.322 294.926 117.275 294.668 117.303 294.412C117.322 294.153 117.407 293.919 117.559 293.708C117.702 293.494 117.904 293.327 118.163 293.206L120.774 291.988C121.033 291.867 121.291 291.821 121.547 291.849C121.806 291.868 122.041 291.953 122.251 292.105C122.465 292.248 122.633 292.449 122.754 292.709L122.762 292.727C122.883 292.987 122.931 293.248 122.906 293.51C122.884 293.763 122.799 293.997 122.65 294.214C122.504 294.422 122.301 294.586 122.041 294.707L119.431 295.925C119.171 296.046 118.915 296.095 118.662 296.074C118.4 296.048 118.166 295.963 117.958 295.817C117.741 295.668 117.572 295.464 117.451 295.204L117.443 295.186ZM119.855 294.061C119.734 293.801 119.687 293.543 119.715 293.288C119.734 293.029 119.819 292.794 119.971 292.583C120.114 292.37 120.316 292.202 120.575 292.081L123.186 290.864C123.445 290.743 123.703 290.696 123.959 290.724C124.218 290.743 124.453 290.828 124.663 290.98C124.877 291.123 125.045 291.325 125.166 291.584L125.174 291.603C125.295 291.862 125.343 292.123 125.318 292.385C125.296 292.638 125.211 292.873 125.062 293.089C124.916 293.297 124.713 293.462 124.453 293.583L121.843 294.8C121.583 294.921 121.327 294.971 121.074 294.949C120.812 294.924 120.578 294.838 120.37 294.692C120.153 294.543 119.984 294.339 119.863 294.079L119.855 294.061ZM122.267 292.936C122.146 292.676 122.099 292.419 122.127 292.163C122.146 291.904 122.231 291.669 122.383 291.459C122.526 291.245 122.728 291.077 122.987 290.956L125.598 289.739C125.857 289.618 126.115 289.571 126.371 289.599C126.63 289.618 126.865 289.704 127.075 289.855C127.289 289.998 127.457 290.2 127.578 290.46L127.586 290.478C127.707 290.738 127.755 290.998 127.73 291.26C127.708 291.513 127.623 291.748 127.474 291.965C127.328 292.172 127.125 292.337 126.865 292.458L124.255 293.675C123.995 293.796 123.739 293.846 123.486 293.824C123.224 293.799 122.99 293.714 122.782 293.568C122.565 293.419 122.396 293.214 122.275 292.954L122.267 292.936ZM124.679 291.812C124.558 291.552 124.511 291.294 124.539 291.038C124.558 290.779 124.643 290.544 124.795 290.334C124.938 290.12 125.14 289.953 125.399 289.831L128.01 288.614C128.269 288.493 128.527 288.447 128.783 288.474C129.042 288.493 129.277 288.579 129.487 288.731C129.701 288.874 129.868 289.075 129.99 289.335L129.998 289.353C130.119 289.613 130.167 289.874 130.142 290.135C130.12 290.388 130.035 290.623 129.886 290.84C129.74 291.048 129.537 291.212 129.277 291.333L126.667 292.55C126.407 292.672 126.151 292.721 125.898 292.699C125.636 292.674 125.402 292.589 125.194 292.443C124.977 292.294 124.808 292.089 124.687 291.83L124.679 291.812ZM132.344 288.237C132.223 287.977 132.176 287.72 132.204 287.464C132.223 287.205 132.308 286.97 132.46 286.76C132.603 286.546 132.805 286.378 133.064 286.257L138.176 283.874C138.436 283.752 138.694 283.706 138.949 283.734C139.208 283.753 139.443 283.838 139.654 283.99C139.867 284.133 140.035 284.334 140.156 284.594L140.165 284.612C140.286 284.872 140.334 285.133 140.309 285.395C140.287 285.648 140.201 285.883 140.052 286.099C139.906 286.307 139.704 286.471 139.444 286.593L134.332 288.976C134.072 289.097 133.816 289.147 133.563 289.125C133.301 289.1 133.067 289.015 132.859 288.869C132.642 288.72 132.473 288.515 132.352 288.255L132.344 288.237ZM137.252 285.949C137.13 285.689 137.084 285.431 137.112 285.175C137.131 284.916 137.216 284.682 137.368 284.471C137.511 284.257 137.712 284.09 137.972 283.969L140.582 282.751C140.842 282.63 141.1 282.584 141.356 282.612C141.615 282.631 141.85 282.716 142.06 282.868C142.274 283.011 142.441 283.212 142.563 283.472L142.571 283.49C142.692 283.75 142.74 284.011 142.715 284.273C142.693 284.526 142.608 284.76 142.459 284.977C142.313 285.185 142.11 285.349 141.85 285.47L139.24 286.688C138.98 286.809 138.724 286.858 138.471 286.837C138.209 286.811 137.974 286.726 137.767 286.58C137.55 286.431 137.381 286.227 137.26 285.967L137.252 285.949ZM139.664 284.824C139.542 284.564 139.496 284.306 139.524 284.051C139.543 283.792 139.628 283.557 139.78 283.346C139.923 283.133 140.124 282.965 140.384 282.844L142.994 281.627C143.254 281.506 143.512 281.459 143.768 281.487C144.027 281.506 144.261 281.591 144.472 281.743C144.686 281.886 144.853 282.088 144.975 282.347L144.983 282.366C145.104 282.625 145.152 282.886 145.127 283.148C145.105 283.401 145.02 283.636 144.871 283.852C144.725 284.06 144.522 284.225 144.262 284.346L141.652 285.563C141.392 285.684 141.136 285.734 140.883 285.712C140.621 285.687 140.386 285.601 140.179 285.455C139.962 285.306 139.793 285.102 139.672 284.842L139.664 284.824ZM142.076 283.699C141.954 283.439 141.908 283.182 141.936 282.926C141.955 282.667 142.04 282.432 142.192 282.222C142.335 282.008 142.536 281.84 142.796 281.719L147.908 279.336C148.168 279.214 148.425 279.168 148.681 279.196C148.94 279.215 149.175 279.3 149.385 279.452C149.599 279.595 149.767 279.796 149.888 280.056L149.896 280.074C150.018 280.334 150.066 280.595 150.041 280.857C150.019 281.11 149.933 281.344 149.784 281.561C149.638 281.769 149.435 281.933 149.176 282.055L144.064 284.438C143.804 284.559 143.548 284.609 143.295 284.587C143.033 284.562 142.798 284.477 142.591 284.331C142.374 284.182 142.205 283.977 142.084 283.717L142.076 283.699ZM146.983 281.411C146.862 281.151 146.816 280.893 146.843 280.637C146.862 280.378 146.948 280.144 147.1 279.933C147.243 279.719 147.444 279.552 147.704 279.431L152.816 277.047C153.075 276.926 153.333 276.879 153.589 276.907C153.848 276.926 154.083 277.012 154.293 277.163C154.507 277.306 154.675 277.508 154.796 277.768L154.804 277.786C154.925 278.046 154.973 278.306 154.948 278.568C154.927 278.821 154.841 279.056 154.692 279.273C154.546 279.48 154.343 279.645 154.084 279.766L148.972 282.149C148.712 282.271 148.456 282.32 148.203 282.298C147.941 282.273 147.706 282.188 147.499 282.042C147.282 281.893 147.113 281.689 146.992 281.429L146.983 281.411ZM151.891 279.122C151.77 278.862 151.723 278.605 151.751 278.349C151.77 278.09 151.856 277.855 152.008 277.644C152.151 277.431 152.352 277.263 152.612 277.142L157.724 274.758C157.983 274.637 158.241 274.591 158.497 274.618C158.756 274.638 158.991 274.723 159.201 274.875C159.415 275.018 159.583 275.219 159.704 275.479L159.712 275.497C159.833 275.757 159.881 276.018 159.856 276.28C159.834 276.533 159.749 276.767 159.6 276.984C159.454 277.192 159.251 277.356 158.991 277.477L153.88 279.861C153.62 279.982 153.364 280.032 153.111 280.01C152.849 279.985 152.614 279.899 152.406 279.754C152.19 279.604 152.021 279.4 151.9 279.14L151.891 279.122ZM156.799 276.834C156.678 276.574 156.631 276.316 156.659 276.06C156.678 275.801 156.764 275.566 156.916 275.356C157.059 275.142 157.26 274.975 157.52 274.853L160.13 273.636C160.39 273.515 160.648 273.468 160.903 273.496C161.162 273.515 161.397 273.601 161.608 273.753C161.821 273.896 161.989 274.097 162.11 274.357L162.119 274.375C162.24 274.635 162.288 274.896 162.263 275.157C162.241 275.41 162.155 275.645 162.006 275.862C161.861 276.07 161.658 276.234 161.398 276.355L158.788 277.572C158.528 277.693 158.272 277.743 158.019 277.721C157.757 277.696 157.522 277.611 157.314 277.465C157.098 277.316 156.929 277.111 156.808 276.852L156.799 276.834ZM164.464 273.259C164.343 272.999 164.296 272.742 164.324 272.486C164.343 272.227 164.429 271.992 164.581 271.782C164.724 271.568 164.925 271.4 165.185 271.279L170.296 268.896C170.556 268.774 170.814 268.728 171.07 268.756C171.329 268.775 171.564 268.86 171.774 269.012C171.988 269.155 172.155 269.356 172.277 269.616L172.285 269.634C172.406 269.894 172.454 270.155 172.429 270.417C172.407 270.67 172.322 270.904 172.173 271.121C172.027 271.329 171.824 271.493 171.564 271.615L166.453 273.998C166.193 274.119 165.937 274.169 165.684 274.147C165.422 274.122 165.187 274.037 164.979 273.891C164.763 273.742 164.594 273.537 164.473 273.277L164.464 273.259ZM169.372 270.971C169.251 270.711 169.204 270.453 169.232 270.197C169.251 269.938 169.337 269.704 169.488 269.493C169.632 269.279 169.833 269.112 170.093 268.991L175.204 266.607C175.464 266.486 175.722 266.439 175.978 266.467C176.237 266.486 176.471 266.572 176.682 266.723C176.896 266.866 177.063 267.068 177.184 267.328L177.193 267.346C177.314 267.606 177.362 267.866 177.337 268.128C177.315 268.381 177.23 268.616 177.081 268.833C176.935 269.04 176.732 269.205 176.472 269.326L171.361 271.71C171.101 271.831 170.844 271.88 170.592 271.858C170.33 271.833 170.095 271.748 169.887 271.602C169.671 271.453 169.502 271.249 169.381 270.989L169.372 270.971ZM174.28 268.682C174.159 268.422 174.112 268.165 174.14 267.909C174.159 267.65 174.244 267.415 174.396 267.204C174.539 266.991 174.741 266.823 175.001 266.702L177.611 265.485C177.871 265.364 178.128 265.317 178.384 265.345C178.643 265.364 178.878 265.449 179.088 265.601C179.302 265.744 179.47 265.946 179.591 266.206L179.599 266.224C179.72 266.483 179.769 266.744 179.743 267.006C179.722 267.259 179.636 267.494 179.487 267.71C179.341 267.918 179.138 268.083 178.879 268.204L176.268 269.421C176.009 269.542 175.752 269.592 175.499 269.57C175.238 269.545 175.003 269.459 174.795 269.314C174.578 269.164 174.41 268.96 174.288 268.7L174.28 268.682ZM176.692 267.557C176.571 267.298 176.524 267.04 176.552 266.784C176.571 266.525 176.656 266.29 176.808 266.08C176.951 265.866 177.153 265.698 177.413 265.577L182.524 263.194C182.784 263.073 183.042 263.026 183.297 263.054C183.556 263.073 183.791 263.158 184.002 263.31C184.216 263.453 184.383 263.655 184.504 263.914L184.513 263.933C184.634 264.192 184.682 264.453 184.657 264.715C184.635 264.968 184.55 265.203 184.401 265.419C184.255 265.627 184.052 265.791 183.792 265.913L178.68 268.296C178.421 268.417 178.164 268.467 177.911 268.445C177.65 268.42 177.415 268.335 177.207 268.189C176.99 268.04 176.822 267.835 176.7 267.576L176.692 267.557ZM181.6 265.269C181.479 265.009 181.432 264.751 181.46 264.495C181.479 264.237 181.564 264.002 181.716 263.791C181.859 263.577 182.061 263.41 182.32 263.289L187.432 260.905C187.692 260.784 187.95 260.737 188.205 260.765C188.464 260.784 188.699 260.87 188.91 261.022C189.124 261.165 189.291 261.366 189.412 261.626L189.421 261.644C189.542 261.904 189.59 262.165 189.565 262.426C189.543 262.679 189.457 262.914 189.308 263.131C189.163 263.338 188.96 263.503 188.7 263.624L183.588 266.008C183.329 266.129 183.072 266.178 182.819 266.157C182.557 266.132 182.323 266.046 182.115 265.9C181.898 265.751 181.729 265.547 181.608 265.287L181.6 265.269ZM186.508 262.98C186.386 262.72 186.34 262.463 186.368 262.207C186.387 261.948 186.472 261.713 186.624 261.503C186.767 261.289 186.969 261.121 187.228 261L189.839 259.783C190.098 259.662 190.356 259.615 190.612 259.643C190.871 259.662 191.106 259.748 191.316 259.899C191.53 260.042 191.697 260.244 191.819 260.504L191.827 260.522C191.948 260.782 191.996 261.042 191.971 261.304C191.949 261.557 191.864 261.792 191.715 262.009C191.569 262.216 191.366 262.381 191.106 262.502L188.496 263.719C188.236 263.84 187.98 263.89 187.727 263.868C187.465 263.843 187.231 263.758 187.023 263.612C186.806 263.463 186.637 263.258 186.516 262.998L186.508 262.98ZM188.92 261.855C188.798 261.596 188.752 261.338 188.78 261.082C188.799 260.823 188.884 260.588 189.036 260.378C189.179 260.164 189.381 259.997 189.64 259.875L192.25 258.658C192.51 258.537 192.768 258.49 193.024 258.518C193.283 258.537 193.518 258.623 193.728 258.775C193.942 258.918 194.109 259.119 194.231 259.379L194.239 259.397C194.36 259.657 194.408 259.918 194.383 260.179C194.361 260.432 194.276 260.667 194.127 260.884C193.981 261.092 193.778 261.256 193.518 261.377L190.908 262.594C190.648 262.715 190.392 262.765 190.139 262.743C189.877 262.718 189.643 262.633 189.435 262.487C189.218 262.338 189.049 262.133 188.928 261.874L188.92 261.855ZM196.585 258.281C196.463 258.021 196.417 257.764 196.445 257.508C196.464 257.249 196.549 257.014 196.701 256.804C196.844 256.59 197.046 256.422 197.305 256.301L202.417 253.918C202.677 253.796 202.935 253.75 203.19 253.778C203.449 253.797 203.684 253.882 203.895 254.034C204.108 254.177 204.276 254.378 204.397 254.638L204.405 254.656C204.527 254.916 204.575 255.177 204.55 255.439C204.528 255.692 204.442 255.926 204.293 256.143C204.147 256.351 203.945 256.515 203.685 256.636L198.573 259.02C198.313 259.141 198.057 259.191 197.804 259.169C197.542 259.144 197.308 259.059 197.1 258.913C196.883 258.764 196.714 258.559 196.593 258.299L196.585 258.281ZM201.493 255.993C201.371 255.733 201.325 255.475 201.353 255.219C201.372 254.96 201.457 254.726 201.609 254.515C201.752 254.301 201.953 254.134 202.213 254.013L204.823 252.795C205.083 252.674 205.341 252.628 205.597 252.655C205.856 252.674 206.09 252.76 206.301 252.912C206.515 253.055 206.682 253.256 206.803 253.516L206.812 253.534C206.933 253.794 206.981 254.055 206.956 254.317C206.934 254.57 206.849 254.804 206.7 255.021C206.554 255.229 206.351 255.393 206.091 255.514L203.481 256.731C203.221 256.853 202.965 256.902 202.712 256.88C202.45 256.855 202.215 256.77 202.008 256.624C201.791 256.475 201.622 256.271 201.501 256.011L201.493 255.993ZM203.904 254.868C203.783 254.608 203.737 254.35 203.765 254.095C203.784 253.836 203.869 253.601 204.021 253.39C204.164 253.176 204.365 253.009 204.625 252.888L207.235 251.671C207.495 251.55 207.753 251.503 208.009 251.531C208.268 251.55 208.502 251.635 208.713 251.787C208.927 251.93 209.094 252.132 209.215 252.391L209.224 252.41C209.345 252.669 209.393 252.93 209.368 253.192C209.346 253.445 209.261 253.68 209.112 253.896C208.966 254.104 208.763 254.268 208.503 254.39L205.893 255.607C205.633 255.728 205.377 255.778 205.124 255.756C204.862 255.731 204.627 255.645 204.42 255.499C204.203 255.35 204.034 255.146 203.913 254.886L203.904 254.868ZM206.316 253.743C206.195 253.483 206.149 253.226 206.177 252.97C206.196 252.711 206.281 252.476 206.433 252.266C206.576 252.052 206.777 251.884 207.037 251.763L212.149 249.38C212.409 249.258 212.666 249.212 212.922 249.24C213.181 249.259 213.416 249.344 213.626 249.496C213.84 249.639 214.008 249.84 214.129 250.1L214.137 250.118C214.258 250.378 214.307 250.639 214.281 250.901C214.26 251.154 214.174 251.388 214.025 251.605C213.879 251.813 213.676 251.977 213.417 252.098L208.305 254.482C208.045 254.603 207.789 254.653 207.536 254.631C207.274 254.606 207.039 254.521 206.832 254.375C206.615 254.226 206.446 254.021 206.325 253.761L206.316 253.743ZM211.224 251.455C211.103 251.195 211.057 250.937 211.084 250.681C211.103 250.422 211.189 250.188 211.341 249.977C211.484 249.763 211.685 249.596 211.945 249.475L217.057 247.091C217.316 246.97 217.574 246.923 217.83 246.951C218.089 246.97 218.324 247.055 218.534 247.207C218.748 247.35 218.916 247.552 219.037 247.812L219.045 247.83C219.166 248.09 219.214 248.35 219.189 248.612C219.168 248.865 219.082 249.1 218.933 249.316C218.787 249.524 218.584 249.689 218.324 249.81L213.213 252.193C212.953 252.315 212.697 252.364 212.444 252.342C212.182 252.317 211.947 252.232 211.739 252.086C211.523 251.937 211.354 251.733 211.233 251.473L211.224 251.455ZM216.132 249.166C216.011 248.906 215.964 248.648 215.992 248.393C216.011 248.134 216.097 247.899 216.249 247.688C216.392 247.475 216.593 247.307 216.853 247.186L219.463 245.969C219.723 245.848 219.981 245.801 220.236 245.829C220.495 245.848 220.73 245.933 220.941 246.085C221.155 246.228 221.322 246.43 221.443 246.69L221.452 246.708C221.573 246.967 221.621 247.228 221.596 247.49C221.574 247.743 221.489 247.978 221.339 248.194C221.194 248.402 220.991 248.567 220.731 248.688L218.121 249.905C217.861 250.026 217.605 250.076 217.352 250.054C217.09 250.029 216.855 249.943 216.647 249.798C216.431 249.648 216.262 249.444 216.141 249.184L216.132 249.166ZM218.544 248.041C218.423 247.782 218.376 247.524 218.404 247.268C218.423 247.009 218.509 246.774 218.661 246.564C218.804 246.35 219.005 246.182 219.265 246.061L224.376 243.678C224.636 243.557 224.894 243.51 225.15 243.538C225.409 243.557 225.644 243.642 225.854 243.794C226.068 243.937 226.235 244.139 226.357 244.398L226.365 244.416C226.486 244.676 226.534 244.937 226.509 245.199C226.487 245.452 226.402 245.687 226.253 245.903C226.107 246.111 225.904 246.275 225.644 246.397L220.533 248.78C220.273 248.901 220.017 248.951 219.764 248.929C219.502 248.904 219.267 248.819 219.059 248.673C218.843 248.524 218.674 248.319 218.553 248.059L218.544 248.041ZM228.705 243.303C228.584 243.043 228.537 242.786 228.565 242.53C228.584 242.271 228.67 242.036 228.822 241.826C228.965 241.612 229.166 241.444 229.426 241.323L232.036 240.106C232.296 239.985 232.554 239.938 232.809 239.966C233.068 239.985 233.303 240.071 233.514 240.222C233.727 240.365 233.895 240.567 234.016 240.827L234.025 240.845C234.146 241.105 234.194 241.365 234.169 241.627C234.147 241.88 234.061 242.115 233.912 242.332C233.766 242.539 233.564 242.704 233.304 242.825L230.694 244.042C230.434 244.163 230.178 244.213 229.925 244.191C229.663 244.166 229.428 244.081 229.22 243.935C229.004 243.786 228.835 243.581 228.714 243.321L228.705 243.303ZM231.117 242.178C230.996 241.919 230.949 241.661 230.977 241.405C230.996 241.146 231.082 240.911 231.234 240.701C231.377 240.487 231.578 240.32 231.838 240.198L236.949 237.815C237.209 237.694 237.467 237.647 237.723 237.675C237.982 237.694 238.216 237.779 238.427 237.931C238.641 238.074 238.808 238.276 238.929 238.536L238.938 238.554C239.059 238.813 239.107 239.074 239.082 239.336C239.06 239.589 238.975 239.824 238.826 240.04C238.68 240.248 238.477 240.413 238.217 240.534L233.106 242.917C232.846 243.038 232.589 243.088 232.337 243.066C232.075 243.041 231.84 242.956 231.632 242.81C231.416 242.661 231.247 242.456 231.126 242.197L231.117 242.178ZM236.025 239.89C235.904 239.63 235.857 239.372 235.885 239.117C235.904 238.858 235.99 238.623 236.141 238.412C236.284 238.198 236.486 238.031 236.746 237.91L241.857 235.526C242.117 235.405 242.375 235.358 242.631 235.386C242.89 235.405 243.124 235.491 243.335 235.643C243.549 235.786 243.716 235.987 243.837 236.247L243.846 236.265C243.967 236.525 244.015 236.786 243.99 237.047C243.968 237.3 243.883 237.535 243.734 237.752C243.588 237.96 243.385 238.124 243.125 238.245L238.014 240.629C237.754 240.75 237.497 240.8 237.244 240.778C236.983 240.753 236.748 240.667 236.54 240.521C236.323 240.372 236.155 240.168 236.033 239.908L236.025 239.89Z" fill="#ADB1B7"/>
</g>
</g>
<defs>
<clipPath id="clip0_377_586">
<rect y="105.232" width="249" height="249" rx="30" transform="rotate(-25 0 105.232)" fill="white"/>
</clipPath>
</defs>
</svg>
