<svg width="192" height="258" viewBox="0 0 192 258" fill="none" xmlns="http://www.w3.org/2000/svg">
<path fill-rule="evenodd" clip-rule="evenodd" d="M33.4219 0H119.254L192 75.9883V223.786C192 242.301 177.053 257.28 158.642 257.28H33.4219C14.9468 257.28 5.27954e-09 242.301 5.27954e-09 223.786V33.4939C-0.000324369 14.979 14.9465 0 33.4219 0Z" fill="#3E4855"/>
<path d="M62 115.449V118.794C62 120.312 63.231 121.543 64.7495 121.543H68.0941C69.6126 121.543 70.8436 120.312 70.8436 118.794V115.449C70.8436 113.93 69.6126 112.699 68.0941 112.699H64.7495C63.231 112.699 62 113.93 62 115.449Z" fill="white"/>
<path d="M62 124.292V127.637C62 129.156 63.231 130.387 64.7495 130.387H68.0941C69.6126 130.387 70.8436 129.156 70.8436 127.637V124.292C70.8436 122.774 69.6126 121.543 68.0941 121.543H64.7495C63.231 121.543 62 122.774 62 124.292Z" fill="white"/>
<path d="M62 133.136V136.481C62 137.999 63.231 139.23 64.7495 139.23H68.0941C69.6126 139.23 70.8436 137.999 70.8436 136.481V133.136C70.8436 131.618 69.6126 130.387 68.0941 130.387H64.7495C63.231 130.387 62 131.618 62 133.136Z" fill="white"/>
<path d="M62 141.98V145.325C62 146.843 63.231 148.074 64.7495 148.074H68.0941C69.6126 148.074 70.8436 146.843 70.8436 145.325V141.98C70.8436 140.461 69.6126 139.23 68.0941 139.23H64.7495C63.231 139.23 62 140.461 62 141.98Z" fill="white"/>
<path d="M70.8444 106.605V109.95C70.8444 111.468 72.0754 112.699 73.5939 112.699H76.9385C78.457 112.699 79.688 111.468 79.688 109.95V106.605C79.688 105.087 78.457 103.856 76.9385 103.856H73.5939C72.0754 103.856 70.8444 105.087 70.8444 106.605Z" fill="white"/>
<path d="M70.8563 115.449V118.793C70.8563 120.312 72.0873 121.543 73.6058 121.543H76.9504C78.4689 121.543 79.6999 120.312 79.6999 118.793V115.449C79.6999 113.93 78.4689 112.699 76.9504 112.699H73.6058C72.0873 112.699 70.8563 113.93 70.8563 115.449Z" fill="white"/>
<path d="M70.8436 124.292V127.637C70.8436 129.156 72.0754 130.387 73.5939 130.387H76.9385C78.457 130.387 79.688 129.156 79.688 127.637V124.292C79.688 122.774 78.457 121.543 76.9385 121.543H73.5939C72.0754 121.543 70.8436 122.774 70.8436 124.292Z" fill="white"/>
<path d="M70.8436 133.136V136.481C70.8436 137.999 72.0754 139.23 73.5939 139.23H76.9385C78.457 139.23 79.688 137.999 79.688 136.481V133.136C79.688 131.618 78.457 130.387 76.9385 130.387H73.5939C72.0754 130.387 70.8436 131.618 70.8436 133.136Z" fill="white"/>
<path d="M79.6858 106.605V109.95C79.6858 111.468 80.9168 112.699 82.4353 112.699H85.7799C87.2984 112.699 88.5294 111.468 88.5294 109.95V106.605C88.5294 105.087 87.2984 103.856 85.7799 103.856H82.4353C80.9168 103.856 79.6858 105.087 79.6858 106.605Z" fill="white"/>
<path d="M79.6858 97.7614V101.106C79.6858 102.625 80.9168 103.856 82.4353 103.856H85.7799C87.2984 103.856 88.5294 102.625 88.5294 101.106V97.7614C88.5294 96.2429 87.2984 95.0119 85.7799 95.0119H82.4353C80.9168 95.0119 79.6858 96.2429 79.6858 97.7614Z" fill="white"/>
<path d="M79.6978 115.449V118.793C79.6978 120.312 80.9288 121.543 82.4473 121.543H85.7919C87.3104 121.543 88.5414 120.312 88.5414 118.793V115.449C88.5414 113.93 87.3104 112.699 85.7919 112.699H82.4473C80.9288 112.699 79.6978 113.93 79.6978 115.449Z" fill="white"/>
<path d="M88.5303 106.593V109.938C88.5303 111.456 89.7612 112.687 91.2797 112.687H94.6244C96.1428 112.687 97.3738 111.456 97.3738 109.938V106.593C97.3738 105.075 96.1428 103.844 94.6244 103.844H91.2797C89.7612 103.844 88.5303 105.075 88.5303 106.593Z" fill="white"/>
<path d="M88.5422 97.7495V101.094C88.5422 102.613 89.7732 103.844 91.2917 103.844H94.6363C96.1548 103.844 97.3858 102.613 97.3858 101.094V97.7495C97.3858 96.231 96.1548 95 94.6363 95H91.2917C89.7732 95 88.5422 96.231 88.5422 97.7495Z" fill="white"/>
<path d="M88.5422 115.437V118.781C88.5422 120.3 89.7732 121.531 91.2917 121.531H94.6363C96.1548 121.531 97.3858 120.3 97.3858 118.781V115.437C97.3858 113.918 96.1548 112.687 94.6363 112.687H91.2917C89.7732 112.687 88.5422 113.918 88.5422 115.437Z" fill="white"/>
<path d="M97.3858 97.7495V101.094C97.3858 102.613 98.6176 103.844 100.136 103.844H103.481C104.999 103.844 106.23 102.613 106.23 101.094V97.7495C106.23 96.231 104.999 95 103.481 95H100.136C98.6176 95 97.3858 96.231 97.3858 97.7495Z" fill="white"/>
<path d="M71.8196 151.193V153.811C71.8196 154.994 72.7788 155.954 73.962 155.954H76.5806C77.7638 155.954 78.723 154.994 78.723 153.811V151.193C78.723 150.009 77.7638 149.05 76.5806 149.05H73.962C72.7788 149.05 71.8196 150.009 71.8196 151.193Z" fill="white"/>
<path d="M71.8196 142.349V144.967C71.8196 146.151 72.7788 147.11 73.962 147.11H76.5806C77.7638 147.11 78.7231 146.151 78.7231 144.967V142.349C78.7231 141.166 77.7638 140.206 76.5806 140.206H73.962C72.7788 140.206 71.8196 141.166 71.8196 142.349Z" fill="white"/>
<path d="M81.4243 151.49V153.525C81.4243 154.446 82.1704 155.192 83.0907 155.192H85.126C86.0463 155.192 86.7923 154.446 86.7923 153.525V151.49C86.7923 150.57 86.0463 149.824 85.126 149.824H83.0907C82.1704 149.824 81.4243 150.57 81.4243 151.49Z" fill="white"/>
<path d="M82.471 160.727V161.965C82.471 162.53 82.9293 162.988 83.4946 162.988H84.7324C85.2978 162.988 85.7561 162.53 85.7561 161.965V160.727C85.7561 160.161 85.2978 159.703 84.7324 159.703H83.4946C82.9293 159.703 82.471 160.161 82.471 160.727Z" fill="white"/>
<path d="M79.6978 124.292V127.637C79.6978 129.156 80.9288 130.387 82.4473 130.387H85.7919C87.3104 130.387 88.5413 129.156 88.5413 127.637V124.292C88.5413 122.774 87.3104 121.543 85.7919 121.543H82.4473C80.9288 121.543 79.6978 122.774 79.6978 124.292Z" fill="white"/>
<path d="M80.6639 133.505V136.124C80.6639 137.307 81.6231 138.266 82.8064 138.266H85.4249C86.6082 138.266 87.5674 137.307 87.5674 136.124V133.505C87.5674 132.322 86.6082 131.363 85.4249 131.363H82.8064C81.6231 131.363 80.6639 132.322 80.6639 133.505Z" fill="white"/>
<path d="M80.6639 142.349V144.967C80.6639 146.151 81.6231 147.11 82.8064 147.11H85.4249C86.6082 147.11 87.5674 146.151 87.5674 144.967V142.349C87.5674 141.166 86.6082 140.206 85.4249 140.206H82.8064C81.6231 140.206 80.6639 141.166 80.6639 142.349Z" fill="white"/>
<path d="M90.2685 151.478V153.514C90.2685 154.434 91.0145 155.18 91.9348 155.18H93.9702C94.8905 155.18 95.6365 154.434 95.6365 153.514V151.478C95.6365 150.558 94.8905 149.812 93.9702 149.812H91.9348C91.0145 149.812 90.2685 150.558 90.2685 151.478Z" fill="white"/>
<path d="M91.3154 160.738V161.976C91.3154 162.542 91.7737 163 92.339 163H93.5769C94.1422 163 94.6005 162.542 94.6005 161.976V160.738C94.6005 160.173 94.1422 159.715 93.5769 159.715H92.339C91.7737 159.715 91.3154 160.173 91.3154 160.738Z" fill="white"/>
<path d="M89.5054 124.661V127.28C89.5054 128.463 90.4646 129.423 91.6478 129.423H94.2664C95.4496 129.423 96.4088 128.463 96.4088 127.28V124.661C96.4088 123.478 95.4496 122.519 94.2664 122.519H91.6478C90.4646 122.519 89.5054 123.478 89.5054 124.661Z" fill="white"/>
<path d="M89.5173 133.505V136.124C89.5173 137.307 90.4765 138.266 91.6597 138.266H94.2783C95.4615 138.266 96.4207 137.307 96.4207 136.124V133.505C96.4207 132.322 95.4615 131.363 94.2783 131.363H91.6597C90.4765 131.363 89.5173 132.322 89.5173 133.505Z" fill="white"/>
<path d="M90.2685 142.635V144.67C90.2685 145.59 91.0145 146.336 91.9348 146.336H93.9702C94.8905 146.336 95.6365 145.59 95.6365 144.67V142.635C95.6365 141.714 94.8905 140.968 93.9702 140.968H91.9348C91.0145 140.968 90.2685 141.714 90.2685 142.635Z" fill="white"/>
<path d="M100.159 151.883V153.121C100.159 153.686 100.618 154.144 101.183 154.144H102.421C102.986 154.144 103.445 153.686 103.445 153.121V151.883C103.445 151.318 102.986 150.859 102.421 150.859H101.183C100.618 150.859 100.159 151.318 100.159 151.883Z" fill="white"/>
<path d="M100.159 160.727V161.964C100.159 162.53 100.618 162.988 101.183 162.988H102.421C102.986 162.988 103.445 162.53 103.445 161.964V160.727C103.445 160.161 102.986 159.703 102.421 159.703H101.183C100.618 159.703 100.159 160.161 100.159 160.727Z" fill="white"/>
<path d="M98.3617 106.95V109.569C98.3617 110.752 99.3209 111.711 100.504 111.711H103.123C104.306 111.711 105.265 110.752 105.265 109.569V106.95C105.265 105.767 104.306 104.808 103.123 104.808H100.504C99.3209 104.808 98.3617 105.767 98.3617 106.95Z" fill="white"/>
<path d="M98.3498 115.806V118.424C98.3498 119.608 99.309 120.567 100.492 120.567H103.111C104.294 120.567 105.253 119.608 105.253 118.424V115.806C105.253 114.623 104.294 113.663 103.111 113.663H100.492C99.309 113.663 98.3498 114.623 98.3498 115.806Z" fill="white"/>
<path d="M98.3498 124.65V127.268C98.3498 128.451 99.309 129.411 100.492 129.411H103.111C104.294 129.411 105.253 128.451 105.253 127.268V124.65C105.253 123.466 104.294 122.507 103.111 122.507H100.492C99.309 122.507 98.3498 123.466 98.3498 124.65Z" fill="white"/>
<path d="M99.1251 133.791V135.826C99.1251 136.746 99.8711 137.492 100.791 137.492H102.827C103.747 137.492 104.493 136.746 104.493 135.826V133.791C104.493 132.87 103.747 132.124 102.827 132.124H100.791C99.8711 132.124 99.1251 132.87 99.1251 133.791Z" fill="white"/>
<path d="M99.1251 142.634V144.67C99.1251 145.59 99.8711 146.336 100.791 146.336H102.827C103.747 146.336 104.493 145.59 104.493 144.67V142.634C104.493 141.714 103.747 140.968 102.827 140.968H100.791C99.8711 140.968 99.1251 141.714 99.1251 142.634Z" fill="white"/>
<path d="M109.016 151.883V153.121C109.016 153.686 109.474 154.144 110.04 154.144H111.278C111.843 154.144 112.301 153.686 112.301 153.121V151.883C112.301 151.318 111.843 150.859 111.278 150.859H110.04C109.474 150.859 109.016 151.318 109.016 151.883Z" fill="white"/>
<path d="M109.004 160.727V161.965C109.004 162.53 109.463 162.988 110.028 162.988H111.266C111.831 162.988 112.289 162.53 112.289 161.965V160.727C112.289 160.161 111.831 159.703 111.266 159.703H110.028C109.463 159.703 109.004 160.161 109.004 160.727Z" fill="white"/>
<path d="M107.206 106.962V109.581C107.206 110.764 108.165 111.723 109.349 111.723H111.967C113.15 111.723 114.11 110.764 114.11 109.581V106.962C114.11 105.779 113.15 104.82 111.967 104.82H109.349C108.165 104.82 107.206 105.779 107.206 106.962Z" fill="white"/>
<path d="M107.206 98.1065V100.725C107.206 101.908 108.165 102.868 109.349 102.868H111.967C113.15 102.868 114.11 101.908 114.11 100.725V98.1065C114.11 96.9232 113.15 95.964 111.967 95.964H109.349C108.165 95.964 107.206 96.9232 107.206 98.1065Z" fill="white"/>
<path d="M107.966 116.103V118.139C107.966 119.059 108.713 119.805 109.633 119.805H111.668C112.588 119.805 113.335 119.059 113.335 118.139V116.103C113.335 115.183 112.588 114.437 111.668 114.437H109.633C108.713 114.437 107.966 115.183 107.966 116.103Z" fill="white"/>
<path d="M107.966 124.947V126.983C107.966 127.903 108.713 128.649 109.633 128.649H111.668C112.588 128.649 113.335 127.903 113.335 126.983V124.947C113.335 124.027 112.588 123.281 111.668 123.281H109.633C108.713 123.281 107.966 124.027 107.966 124.947Z" fill="white"/>
<path d="M107.966 133.791V135.826C107.966 136.746 108.713 137.492 109.633 137.492H111.668C112.588 137.492 113.335 136.746 113.335 135.826V133.791C113.335 132.87 112.588 132.124 111.668 132.124H109.633C108.713 132.124 107.966 132.87 107.966 133.791Z" fill="white"/>
<path d="M109.016 143.039V144.277C109.016 144.842 109.474 145.301 110.04 145.301H111.278C111.843 145.301 112.301 144.842 112.301 144.277V143.039C112.301 142.474 111.843 142.016 111.278 142.016H110.04C109.474 142.016 109.016 142.474 109.016 143.039Z" fill="white"/>
<path d="M129.988 144.277V143.039C129.988 142.474 129.53 142.016 128.964 142.016H127.727C127.161 142.016 126.703 142.474 126.703 143.039V144.277C126.703 144.842 127.161 145.301 127.727 145.301H128.964C129.53 145.301 129.988 144.842 129.988 144.277Z" fill="white"/>
<path d="M129.988 135.421V134.184C129.988 133.618 129.53 133.16 128.964 133.16H127.727C127.161 133.16 126.703 133.618 126.703 134.184V135.421C126.703 135.987 127.161 136.445 127.727 136.445H128.964C129.53 136.445 129.988 135.987 129.988 135.421Z" fill="white"/>
<path d="M130 126.578V125.34C130 124.775 129.542 124.316 128.976 124.316H127.739C127.173 124.316 126.715 124.775 126.715 125.34V126.578C126.715 127.143 127.173 127.601 127.739 127.601H128.976C129.542 127.601 130 127.143 130 126.578Z" fill="white"/>
<path d="M129.988 117.734V116.496C129.988 115.931 129.53 115.473 128.964 115.473H127.727C127.161 115.473 126.703 115.931 126.703 116.496V117.734C126.703 118.299 127.161 118.758 127.727 118.758H128.964C129.53 118.758 129.988 118.299 129.988 117.734Z" fill="white"/>
<path d="M122.19 109.283V107.248C122.19 106.328 121.444 105.582 120.524 105.582H118.489C117.568 105.582 116.822 106.328 116.822 107.248V109.283C116.822 110.204 117.568 110.95 118.489 110.95H120.524C121.444 110.95 122.19 110.204 122.19 109.283Z" fill="white"/>
<path d="M121.144 153.121V151.883C121.144 151.318 120.685 150.859 120.12 150.859H118.882C118.317 150.859 117.858 151.318 117.858 151.883V153.121C117.858 153.686 118.317 154.144 118.882 154.144H120.12C120.685 154.144 121.144 153.686 121.144 153.121Z" fill="white"/>
<path d="M121.144 144.277V143.039C121.144 142.474 120.685 142.016 120.12 142.016H118.882C118.317 142.016 117.859 142.474 117.859 143.039V144.277C117.859 144.842 118.317 145.301 118.882 145.301H120.12C120.685 145.301 121.144 144.842 121.144 144.277Z" fill="white"/>
<path d="M121.144 135.433V134.196C121.144 133.63 120.685 133.172 120.12 133.172H118.882C118.317 133.172 117.858 133.63 117.858 134.196V135.433C117.858 135.999 118.317 136.457 118.882 136.457H120.12C120.685 136.457 121.144 135.999 121.144 135.433Z" fill="white"/>
<path d="M121.144 126.578V125.34C121.144 124.775 120.685 124.316 120.12 124.316H118.882C118.317 124.316 117.859 124.775 117.859 125.34V126.578C117.859 127.143 118.317 127.601 118.882 127.601H120.12C120.685 127.601 121.144 127.143 121.144 126.578Z" fill="white"/>
<path d="M122.19 118.127V116.091C122.19 115.171 121.444 114.425 120.524 114.425H118.489C117.568 114.425 116.822 115.171 116.822 116.091V118.127C116.822 119.047 117.568 119.793 118.489 119.793H120.524C121.444 119.793 122.19 119.047 122.19 118.127Z" fill="white"/>
<path opacity="0.302" fill-rule="evenodd" clip-rule="evenodd" d="M119.187 0V75.4097H191.997L119.187 0Z" fill="black"/>
<path d="M23.275 213V202.5H31.225V213H29.95V203.625H24.55V213H23.275ZM33.2529 216V205.2H34.1529L34.3029 206.25H34.3779C34.6479 205.87 34.9979 205.575 35.4279 205.365C35.8679 205.155 36.3679 205.05 36.9279 205.05C37.5879 205.05 38.1679 205.21 38.6679 205.53C39.1779 205.84 39.5779 206.3 39.8679 206.91C40.1579 207.52 40.3029 208.25 40.3029 209.1C40.3029 209.95 40.1579 210.68 39.8679 211.29C39.5779 211.9 39.1779 212.365 38.6679 212.685C38.1679 212.995 37.5879 213.15 36.9279 213.15C36.3879 213.15 35.9079 213.05 35.4879 212.85C35.0679 212.65 34.7229 212.375 34.4529 212.025H34.3779V216H33.2529ZM36.7779 212.1C37.2579 212.1 37.6779 211.985 38.0379 211.755C38.3979 211.525 38.6779 211.185 38.8779 210.735C39.0779 210.285 39.1779 209.74 39.1779 209.1C39.1779 208.14 38.9579 207.4 38.5179 206.88C38.0879 206.36 37.5079 206.1 36.7779 206.1C36.2979 206.1 35.8779 206.215 35.5179 206.445C35.1579 206.675 34.8779 207.015 34.6779 207.465C34.4779 207.915 34.3779 208.46 34.3779 209.1C34.3779 209.74 34.4779 210.285 34.6779 210.735C34.8779 211.185 35.1579 211.525 35.5179 211.755C35.8779 211.985 36.2979 212.1 36.7779 212.1ZM44.9523 213.15C44.2423 213.15 43.6173 212.995 43.0773 212.685C42.5373 212.365 42.1123 211.905 41.8023 211.305C41.5023 210.695 41.3523 209.96 41.3523 209.1C41.3523 208.24 41.5023 207.51 41.8023 206.91C42.1123 206.3 42.5373 205.84 43.0773 205.53C43.6173 205.21 44.2423 205.05 44.9523 205.05C45.6623 205.05 46.2873 205.21 46.8273 205.53C47.3673 205.84 47.7873 206.3 48.0873 206.91C48.3973 207.51 48.5523 208.24 48.5523 209.1C48.5523 209.96 48.3973 210.695 48.0873 211.305C47.7873 211.905 47.3673 212.365 46.8273 212.685C46.2873 212.995 45.6623 213.15 44.9523 213.15ZM44.9523 212.1C45.4323 212.1 45.8573 211.985 46.2273 211.755C46.6073 211.525 46.9023 211.185 47.1123 210.735C47.3223 210.275 47.4273 209.73 47.4273 209.1C47.4273 208.47 47.3223 207.93 47.1123 207.48C46.9023 207.02 46.6073 206.675 46.2273 206.445C45.8573 206.215 45.4323 206.1 44.9523 206.1C44.4723 206.1 44.0423 206.215 43.6623 206.445C43.2923 206.675 43.0023 207.02 42.7923 207.48C42.5823 207.93 42.4773 208.47 42.4773 209.1C42.4773 209.73 42.5823 210.275 42.7923 210.735C43.0023 211.185 43.2923 211.525 43.6623 211.755C44.0423 211.985 44.4723 212.1 44.9523 212.1ZM51.4029 213V206.25H48.7029V205.2H55.2279V206.25H52.5279V213H51.4029ZM58.9715 213.15C58.2615 213.15 57.6365 212.995 57.0965 212.685C56.5565 212.365 56.1315 211.905 55.8215 211.305C55.5215 210.695 55.3715 209.96 55.3715 209.1C55.3715 208.24 55.5215 207.51 55.8215 206.91C56.1315 206.3 56.5565 205.84 57.0965 205.53C57.6365 205.21 58.2615 205.05 58.9715 205.05C59.6815 205.05 60.3065 205.21 60.8465 205.53C61.3865 205.84 61.8065 206.3 62.1065 206.91C62.4165 207.51 62.5715 208.24 62.5715 209.1C62.5715 209.96 62.4165 210.695 62.1065 211.305C61.8065 211.905 61.3865 212.365 60.8465 212.685C60.3065 212.995 59.6815 213.15 58.9715 213.15ZM58.9715 212.1C59.4515 212.1 59.8765 211.985 60.2465 211.755C60.6265 211.525 60.9215 211.185 61.1315 210.735C61.3415 210.275 61.4465 209.73 61.4465 209.1C61.4465 208.47 61.3415 207.93 61.1315 207.48C60.9215 207.02 60.6265 206.675 60.2465 206.445C59.8765 206.215 59.4515 206.1 58.9715 206.1C58.4915 206.1 58.0615 206.215 57.6815 206.445C57.3115 206.675 57.0215 207.02 56.8115 207.48C56.6015 207.93 56.4965 208.47 56.4965 209.1C56.4965 209.73 56.6015 210.275 56.8115 210.735C57.0215 211.185 57.3115 211.525 57.6815 211.755C58.0615 211.985 58.4915 212.1 58.9715 212.1ZM64.0012 213V205.2H65.1262V208.875L68.8012 205.2H70.2262L66.4012 209.025L70.4512 213H69.0262L65.1262 209.175V213H64.0012ZM74.06 213.15C73.35 213.15 72.725 212.995 72.185 212.685C71.645 212.365 71.22 211.905 70.91 211.305C70.61 210.695 70.46 209.96 70.46 209.1C70.46 208.24 70.61 207.51 70.91 206.91C71.22 206.3 71.645 205.84 72.185 205.53C72.725 205.21 73.35 205.05 74.06 205.05C74.77 205.05 75.395 205.21 75.935 205.53C76.475 205.84 76.895 206.3 77.195 206.91C77.505 207.51 77.66 208.24 77.66 209.1C77.66 209.96 77.505 210.695 77.195 211.305C76.895 211.905 76.475 212.365 75.935 212.685C75.395 212.995 74.77 213.15 74.06 213.15ZM74.06 212.1C74.54 212.1 74.965 211.985 75.335 211.755C75.715 211.525 76.01 211.185 76.22 210.735C76.43 210.275 76.535 209.73 76.535 209.1C76.535 208.47 76.43 207.93 76.22 207.48C76.01 207.02 75.715 206.675 75.335 206.445C74.965 206.215 74.54 206.1 74.06 206.1C73.58 206.1 73.15 206.215 72.77 206.445C72.4 206.675 72.11 207.02 71.9 207.48C71.69 207.93 71.585 208.47 71.585 209.1C71.585 209.73 71.69 210.275 71.9 210.735C72.11 211.185 72.4 211.525 72.77 211.755C73.15 211.985 73.58 212.1 74.06 212.1ZM77.9699 213.075V211.905H78.1199C78.4499 211.905 78.7049 211.8 78.8849 211.59C79.0649 211.37 79.1949 211.01 79.2749 210.51C79.3549 210 79.3949 209.28 79.3949 208.35V205.2H84.8699V213H83.7449V206.25H80.5199V208.35C80.5199 209.49 80.4449 210.4 80.2949 211.08C80.1549 211.76 79.9099 212.265 79.5599 212.595C79.2199 212.915 78.7399 213.075 78.1199 213.075H77.9699ZM85.3205 215.85V214.8H91.6205V215.85H85.3205ZM95.2938 213.15C94.5838 213.15 93.9588 212.995 93.4188 212.685C92.8788 212.365 92.4538 211.905 92.1438 211.305C91.8438 210.695 91.6938 209.96 91.6938 209.1C91.6938 208.24 91.8438 207.51 92.1438 206.91C92.4538 206.3 92.8788 205.84 93.4188 205.53C93.9588 205.21 94.5838 205.05 95.2938 205.05C95.7938 205.05 96.2538 205.135 96.6738 205.305C97.1038 205.465 97.4738 205.71 97.7838 206.04C98.1038 206.36 98.3488 206.755 98.5188 207.225H97.3188C97.0888 206.845 96.8038 206.565 96.4638 206.385C96.1338 206.195 95.7438 206.1 95.2938 206.1C94.8138 206.1 94.3838 206.215 94.0038 206.445C93.6338 206.675 93.3438 207.02 93.1338 207.48C92.9238 207.93 92.8188 208.47 92.8188 209.1C92.8188 209.73 92.9238 210.275 93.1338 210.735C93.3438 211.185 93.6338 211.525 94.0038 211.755C94.3838 211.985 94.8138 212.1 95.2938 212.1C95.7438 212.1 96.1338 212.005 96.4638 211.815C96.8038 211.625 97.0888 211.345 97.3188 210.975H98.5188C98.3488 211.445 98.1038 211.845 97.7838 212.175C97.4738 212.495 97.1038 212.74 96.6738 212.91C96.2538 213.07 95.7938 213.15 95.2938 213.15ZM102.801 213.15C102.091 213.15 101.466 212.995 100.926 212.685C100.386 212.365 99.9614 211.905 99.6514 211.305C99.3514 210.695 99.2014 209.96 99.2014 209.1C99.2014 208.24 99.3514 207.51 99.6514 206.91C99.9614 206.3 100.386 205.84 100.926 205.53C101.466 205.21 102.091 205.05 102.801 205.05C103.511 205.05 104.136 205.21 104.676 205.53C105.216 205.84 105.636 206.3 105.936 206.91C106.246 207.51 106.401 208.24 106.401 209.1C106.401 209.96 106.246 210.695 105.936 211.305C105.636 211.905 105.216 212.365 104.676 212.685C104.136 212.995 103.511 213.15 102.801 213.15ZM102.801 212.1C103.281 212.1 103.706 211.985 104.076 211.755C104.456 211.525 104.751 211.185 104.961 210.735C105.171 210.275 105.276 209.73 105.276 209.1C105.276 208.47 105.171 207.93 104.961 207.48C104.751 207.02 104.456 206.675 104.076 206.445C103.706 206.215 103.281 206.1 102.801 206.1C102.321 206.1 101.891 206.215 101.511 206.445C101.141 206.675 100.851 207.02 100.641 207.48C100.431 207.93 100.326 208.47 100.326 209.1C100.326 209.73 100.431 210.275 100.641 210.735C100.851 211.185 101.141 211.525 101.511 211.755C101.891 211.985 102.321 212.1 102.801 212.1ZM107.831 213V205.2H111.431C111.881 205.2 112.276 205.29 112.616 205.47C112.956 205.64 113.216 205.89 113.396 206.22C113.586 206.55 113.681 206.935 113.681 207.375C113.681 207.745 113.591 208.075 113.411 208.365C113.241 208.655 113.006 208.875 112.706 209.025C113.046 209.175 113.316 209.41 113.516 209.73C113.726 210.04 113.831 210.38 113.831 210.75C113.831 211.22 113.736 211.625 113.546 211.965C113.356 212.305 113.081 212.565 112.721 212.745C112.361 212.915 111.931 213 111.431 213H107.831ZM111.431 211.95C111.811 211.95 112.116 211.845 112.346 211.635C112.586 211.415 112.706 211.12 112.706 210.75C112.706 210.38 112.586 210.09 112.346 209.88C112.116 209.66 111.811 209.55 111.431 209.55H108.956V211.95H111.431ZM111.431 208.5C111.801 208.5 112.091 208.4 112.301 208.2C112.521 207.99 112.631 207.715 112.631 207.375C112.631 207.035 112.521 206.765 112.301 206.565C112.091 206.355 111.801 206.25 111.431 206.25H108.956V208.5H111.431ZM118.476 213.15C117.766 213.15 117.141 212.995 116.601 212.685C116.061 212.365 115.636 211.905 115.326 211.305C115.026 210.695 114.876 209.96 114.876 209.1C114.876 208.25 115.026 207.52 115.326 206.91C115.626 206.3 116.041 205.84 116.571 205.53C117.111 205.21 117.721 205.05 118.401 205.05C119.161 205.05 119.806 205.235 120.336 205.605C120.866 205.975 121.261 206.445 121.521 207.015C121.791 207.575 121.926 208.145 121.926 208.725C121.926 208.875 121.916 209.02 121.896 209.16C121.886 209.29 121.871 209.395 121.851 209.475H115.611V208.425H120.786C120.746 208.005 120.631 207.62 120.441 207.27C120.261 206.92 119.996 206.64 119.646 206.43C119.306 206.21 118.891 206.1 118.401 206.1C117.851 206.1 117.396 206.23 117.036 206.49C116.676 206.75 116.411 207.105 116.241 207.555C116.081 207.995 116.001 208.51 116.001 209.1C116.001 209.74 116.101 210.285 116.301 210.735C116.501 211.185 116.786 211.525 117.156 211.755C117.536 211.985 117.976 212.1 118.476 212.1C118.926 212.1 119.316 212.005 119.646 211.815C119.986 211.625 120.271 211.345 120.501 210.975H121.701C121.531 211.445 121.286 211.845 120.966 212.175C120.656 212.495 120.286 212.74 119.856 212.91C119.436 213.07 118.976 213.15 118.476 213.15ZM132.869 214.8V213H123.344V205.2H124.469V211.95H127.544V205.2H128.669V211.95H131.744V205.2H132.869V211.95H133.919V214.8H132.869ZM136.998 213.15C136.458 213.15 135.983 213.045 135.573 212.835C135.163 212.625 134.848 212.34 134.628 211.98C134.408 211.61 134.298 211.2 134.298 210.75C134.298 210.3 134.413 209.895 134.643 209.535C134.873 209.165 135.208 208.875 135.648 208.665C136.088 208.455 136.613 208.35 137.223 208.35H139.788V209.4H137.223C136.633 209.4 136.183 209.52 135.873 209.76C135.573 210 135.423 210.33 135.423 210.75C135.423 211.16 135.563 211.49 135.843 211.74C136.123 211.98 136.508 212.1 136.998 212.1C137.488 212.1 137.913 212.005 138.273 211.815C138.633 211.615 138.908 211.35 139.098 211.02C139.298 210.69 139.398 210.325 139.398 209.925V207.825C139.398 207.305 139.223 206.89 138.873 206.58C138.533 206.26 138.083 206.1 137.523 206.1C137.053 206.1 136.663 206.2 136.353 206.4C136.053 206.6 135.843 206.875 135.723 207.225H134.523C134.703 206.525 135.058 205.99 135.588 205.62C136.118 205.24 136.763 205.05 137.523 205.05C138.143 205.05 138.678 205.165 139.128 205.395C139.578 205.625 139.923 205.95 140.163 206.37C140.403 206.79 140.523 207.275 140.523 207.825V213H139.623L139.473 211.95H139.398C139.228 212.25 138.923 212.525 138.483 212.775C138.043 213.025 137.548 213.15 136.998 213.15ZM147.416 213V205.2H148.541V213H147.416ZM142.241 213V205.2H143.366V213H142.241ZM142.976 209.625V208.575H147.806V209.625H142.976ZM150.335 213V205.2H151.46V211.59H151.535L155.285 205.2H156.785V213H155.66V206.61H155.585L151.835 213H150.335ZM163.015 213V206.25H160.915C160.465 206.25 160.1 206.375 159.82 206.625C159.55 206.865 159.415 207.19 159.415 207.6C159.415 208.01 159.55 208.34 159.82 208.59C160.1 208.83 160.465 208.95 160.915 208.95H163.405V210H160.84C160.35 210 159.91 209.9 159.52 209.7C159.13 209.5 158.825 209.22 158.605 208.86C158.395 208.49 158.29 208.07 158.29 207.6C158.29 207.13 158.395 206.715 158.605 206.355C158.825 205.985 159.13 205.7 159.52 205.5C159.91 205.3 160.35 205.2 160.84 205.2H164.14V213H163.015ZM158.14 213L160.735 209.745H162.01L159.415 213H158.14ZM164.586 215.85V214.8H170.886V215.85H164.586ZM26.275 232.15C25.565 232.15 24.94 231.995 24.4 231.685C23.86 231.365 23.435 230.905 23.125 230.305C22.825 229.695 22.675 228.96 22.675 228.1C22.675 227.24 22.825 226.51 23.125 225.91C23.435 225.3 23.86 224.84 24.4 224.53C24.94 224.21 25.565 224.05 26.275 224.05C26.985 224.05 27.61 224.21 28.15 224.53C28.69 224.84 29.11 225.3 29.41 225.91C29.72 226.51 29.875 227.24 29.875 228.1C29.875 228.96 29.72 229.695 29.41 230.305C29.11 230.905 28.69 231.365 28.15 231.685C27.61 231.995 26.985 232.15 26.275 232.15ZM26.275 231.1C26.755 231.1 27.18 230.985 27.55 230.755C27.93 230.525 28.225 230.185 28.435 229.735C28.645 229.275 28.75 228.73 28.75 228.1C28.75 227.47 28.645 226.93 28.435 226.48C28.225 226.02 27.93 225.675 27.55 225.445C27.18 225.215 26.755 225.1 26.275 225.1C25.795 225.1 25.365 225.215 24.985 225.445C24.615 225.675 24.325 226.02 24.115 226.48C23.905 226.93 23.8 227.47 23.8 228.1C23.8 228.73 23.905 229.275 24.115 229.735C24.325 230.185 24.615 230.525 24.985 230.755C25.365 230.985 25.795 231.1 26.275 231.1ZM32.7256 232V225.25H30.0256V224.2H36.5506V225.25H33.8506V232H32.7256ZM36.1732 234.85V233.8H42.4732V234.85H36.1732ZM44.3465 232V223.975H42.3215V222.85H43.7465C43.9365 222.85 44.0815 222.8 44.1815 222.7C44.2915 222.59 44.3465 222.44 44.3465 222.25V221.5H45.6215V232H44.3465ZM47.2709 232V230.875L51.9959 226.075C52.2859 225.785 52.5059 225.505 52.6559 225.235C52.8159 224.955 52.8959 224.66 52.8959 224.35C52.8959 223.75 52.7109 223.29 52.3409 222.97C51.9809 222.64 51.4659 222.475 50.7959 222.475C50.3859 222.475 50.0159 222.555 49.6859 222.715C49.3659 222.875 49.1059 223.095 48.9059 223.375C48.7159 223.645 48.5959 223.945 48.5459 224.275H47.2709C47.3709 223.695 47.5709 223.185 47.8709 222.745C48.1709 222.305 48.5659 221.965 49.0559 221.725C49.5559 221.475 50.1359 221.35 50.7959 221.35C51.4859 221.35 52.0859 221.475 52.5959 221.725C53.1059 221.975 53.4959 222.325 53.7659 222.775C54.0359 223.225 54.1709 223.75 54.1709 224.35C54.1709 224.62 54.1209 224.89 54.0209 225.16C53.9309 225.43 53.7909 225.705 53.6009 225.985C53.4209 226.255 53.1859 226.535 52.8959 226.825L48.9059 230.875H54.3209V232H47.2709ZM54.4773 234.85V233.8H60.7773V234.85H54.4773ZM65.2006 232.15C64.3606 232.15 63.6206 231.95 62.9806 231.55C62.3406 231.14 61.8356 230.53 61.4656 229.72C61.1056 228.91 60.9256 227.92 60.9256 226.75C60.9256 225.64 61.0956 224.68 61.4356 223.87C61.7856 223.06 62.2806 222.44 62.9206 222.01C63.5606 221.57 64.3206 221.35 65.2006 221.35C66.0406 221.35 66.7806 221.555 67.4206 221.965C68.0606 222.365 68.5606 222.97 68.9206 223.78C69.2906 224.59 69.4756 225.58 69.4756 226.75C69.4756 227.86 69.3056 228.825 68.9656 229.645C68.6256 230.455 68.1306 231.075 67.4806 231.505C66.8406 231.935 66.0806 232.15 65.2006 232.15ZM65.2006 231.025C65.8106 231.025 66.3406 230.855 66.7906 230.515C67.2406 230.165 67.5856 229.67 67.8256 229.03C68.0756 228.38 68.2006 227.62 68.2006 226.75C68.2006 225.81 68.0656 225.02 67.7956 224.38C67.5356 223.74 67.1806 223.265 66.7306 222.955C66.2806 222.635 65.7706 222.475 65.2006 222.475C64.5906 222.475 64.0606 222.65 63.6106 223C63.1606 223.34 62.8106 223.835 62.5606 224.485C62.3206 225.125 62.2006 225.88 62.2006 226.75C62.2006 227.69 62.3306 228.48 62.5906 229.12C62.8606 229.76 63.2206 230.24 63.6706 230.56C64.1206 230.87 64.6306 231.025 65.2006 231.025ZM74.0494 232.15C73.4194 232.15 72.8444 232.035 72.3244 231.805C71.8144 231.575 71.3944 231.24 71.0644 230.8C70.7344 230.36 70.5294 229.835 70.4494 229.225H71.7244C71.7744 229.575 71.9044 229.885 72.1144 230.155C72.3344 230.425 72.6094 230.64 72.9394 230.8C73.2794 230.95 73.6494 231.025 74.0494 231.025C74.5394 231.025 74.9594 230.945 75.3094 230.785C75.6594 230.615 75.9244 230.39 76.1044 230.11C76.2844 229.82 76.3744 229.5 76.3744 229.15C76.3744 228.61 76.1694 228.165 75.7594 227.815C75.3494 227.455 74.7794 227.275 74.0494 227.275H73.2994V226.225H74.0494C74.5094 226.225 74.9044 226.145 75.2344 225.985C75.5644 225.815 75.8094 225.59 75.9694 225.31C76.1394 225.03 76.2244 224.71 76.2244 224.35C76.2244 223.8 76.0344 223.35 75.6544 223C75.2744 222.65 74.7394 222.475 74.0494 222.475C73.6794 222.475 73.3344 222.555 73.0144 222.715C72.7044 222.865 72.4494 223.075 72.2494 223.345C72.0494 223.615 71.9244 223.925 71.8744 224.275H70.5994C70.6994 223.655 70.9044 223.13 71.2144 222.7C71.5344 222.26 71.9344 221.925 72.4144 221.695C72.9044 221.465 73.4494 221.35 74.0494 221.35C74.7594 221.35 75.3744 221.48 75.8944 221.74C76.4144 221.99 76.8094 222.345 77.0794 222.805C77.3594 223.255 77.4994 223.77 77.4994 224.35C77.4994 224.92 77.3644 225.405 77.0944 225.805C76.8344 226.195 76.4444 226.485 75.9244 226.675C76.4744 226.855 76.8994 227.17 77.1994 227.62C77.4994 228.06 77.6494 228.57 77.6494 229.15C77.6494 229.71 77.5094 230.22 77.2294 230.68C76.9494 231.13 76.5344 231.49 75.9844 231.76C75.4444 232.02 74.7994 232.15 74.0494 232.15ZM77.8791 234.85V233.8H84.1791V234.85H77.8791ZM84.2523 232V230.875L88.9773 226.075C89.2673 225.785 89.4873 225.505 89.6373 225.235C89.7973 224.955 89.8773 224.66 89.8773 224.35C89.8773 223.75 89.6923 223.29 89.3223 222.97C88.9623 222.64 88.4473 222.475 87.7773 222.475C87.3673 222.475 86.9973 222.555 86.6673 222.715C86.3473 222.875 86.0873 223.095 85.8873 223.375C85.6973 223.645 85.5773 223.945 85.5273 224.275H84.2523C84.3523 223.695 84.5523 223.185 84.8523 222.745C85.1523 222.305 85.5473 221.965 86.0373 221.725C86.5373 221.475 87.1173 221.35 87.7773 221.35C88.4673 221.35 89.0673 221.475 89.5773 221.725C90.0873 221.975 90.4773 222.325 90.7473 222.775C91.0173 223.225 91.1523 223.75 91.1523 224.35C91.1523 224.62 91.1023 224.89 91.0023 225.16C90.9123 225.43 90.7723 225.705 90.5823 225.985C90.4023 226.255 90.1673 226.535 89.8773 226.825L85.8873 230.875H91.3023V232H84.2523ZM96.3297 232.15C95.4897 232.15 94.7497 231.95 94.1097 231.55C93.4697 231.14 92.9647 230.53 92.5947 229.72C92.2347 228.91 92.0547 227.92 92.0547 226.75C92.0547 225.64 92.2247 224.68 92.5647 223.87C92.9147 223.06 93.4097 222.44 94.0497 222.01C94.6897 221.57 95.4497 221.35 96.3297 221.35C97.1697 221.35 97.9097 221.555 98.5497 221.965C99.1897 222.365 99.6897 222.97 100.05 223.78C100.42 224.59 100.605 225.58 100.605 226.75C100.605 227.86 100.435 228.825 100.095 229.645C99.7547 230.455 99.2597 231.075 98.6097 231.505C97.9697 231.935 97.2097 232.15 96.3297 232.15ZM96.3297 231.025C96.9397 231.025 97.4697 230.855 97.9197 230.515C98.3697 230.165 98.7147 229.67 98.9547 229.03C99.2047 228.38 99.3297 227.62 99.3297 226.75C99.3297 225.81 99.1947 225.02 98.9247 224.38C98.6647 223.74 98.3097 223.265 97.8597 222.955C97.4097 222.635 96.8997 222.475 96.3297 222.475C95.7197 222.475 95.1897 222.65 94.7397 223C94.2897 223.34 93.9397 223.835 93.6897 224.485C93.4497 225.125 93.3297 225.88 93.3297 226.75C93.3297 227.69 93.4597 228.48 93.7197 229.12C93.9897 229.76 94.3497 230.24 94.7997 230.56C95.2497 230.87 95.7597 231.025 96.3297 231.025ZM101.509 232V230.875L106.234 226.075C106.524 225.785 106.744 225.505 106.894 225.235C107.054 224.955 107.134 224.66 107.134 224.35C107.134 223.75 106.949 223.29 106.579 222.97C106.219 222.64 105.704 222.475 105.034 222.475C104.624 222.475 104.254 222.555 103.924 222.715C103.604 222.875 103.344 223.095 103.144 223.375C102.954 223.645 102.834 223.945 102.784 224.275H101.509C101.609 223.695 101.809 223.185 102.109 222.745C102.409 222.305 102.804 221.965 103.294 221.725C103.794 221.475 104.374 221.35 105.034 221.35C105.724 221.35 106.324 221.475 106.834 221.725C107.344 221.975 107.734 222.325 108.004 222.775C108.274 223.225 108.409 223.75 108.409 224.35C108.409 224.62 108.359 224.89 108.259 225.16C108.169 225.43 108.029 225.705 107.839 225.985C107.659 226.255 107.424 226.535 107.134 226.825L103.144 230.875H108.559V232H101.509ZM112.911 232.15C112.171 232.15 111.521 232 110.961 231.7C110.411 231.4 109.986 230.975 109.686 230.425C109.386 229.865 109.236 229.215 109.236 228.475C109.236 228.145 109.271 227.815 109.341 227.485C109.411 227.155 109.521 226.815 109.671 226.465C109.831 226.105 110.036 225.725 110.286 225.325L112.686 221.5H114.111L111.336 225.775H111.411C111.621 225.605 111.866 225.475 112.146 225.385C112.426 225.295 112.731 225.25 113.061 225.25C113.751 225.25 114.361 225.4 114.891 225.7C115.431 225.99 115.846 226.395 116.136 226.915C116.436 227.435 116.586 228.03 116.586 228.7C116.586 229.35 116.436 229.94 116.136 230.47C115.836 230.99 115.406 231.4 114.846 231.7C114.286 232 113.641 232.15 112.911 232.15ZM112.911 231.025C113.381 231.025 113.796 230.93 114.156 230.74C114.526 230.55 114.811 230.28 115.011 229.93C115.211 229.58 115.311 229.17 115.311 228.7C115.311 228.23 115.211 227.82 115.011 227.47C114.811 227.12 114.526 226.85 114.156 226.66C113.796 226.47 113.381 226.375 112.911 226.375C112.441 226.375 112.021 226.47 111.651 226.66C111.291 226.85 111.011 227.12 110.811 227.47C110.611 227.82 110.511 228.23 110.511 228.7C110.511 229.17 110.611 229.58 110.811 229.93C111.011 230.28 111.291 230.55 111.651 230.74C112.021 230.93 112.441 231.025 112.911 231.025Z" fill="white"/>
<path d="M126.263 165.435V151.435L126.868 150.217H129.895L130.5 155.696H131.711L133.526 157.522L135.342 156.913L138.368 158.739L141.395 159.348V167.87L138.368 176.391H127.474L119.605 162.391L122.026 160.565L126.263 165.435Z" fill="white"/>
<path d="M139.258 157.642C138.874 157.642 138.508 157.724 138.176 157.872C137.773 156.821 136.783 156.076 135.628 156.076C135.199 156.076 134.793 156.179 134.431 156.362C133.973 155.451 133.055 154.828 131.999 154.828C131.688 154.828 131.39 154.883 131.112 154.982V151.847C131.112 150.277 129.882 149 128.369 149C126.857 149 125.627 150.277 125.627 151.847V163.127L123.652 160.797C123.638 160.781 123.624 160.765 123.609 160.75C123.09 160.215 122.4 159.918 121.666 159.915C121.661 159.915 121.656 159.915 121.652 159.915C120.919 159.915 120.232 160.206 119.718 160.737C118.811 161.672 118.761 163.061 119.581 164.547C120.642 166.469 121.795 168.281 122.813 169.881C123.557 171.05 124.259 172.154 124.773 173.066C125.218 173.859 126.401 176.427 126.413 176.453C126.566 176.787 126.893 177 127.251 177H138.979C139.382 177 139.739 176.732 139.862 176.337C140.081 175.635 142 169.417 142 167.016V160.489C142 158.919 140.77 157.642 139.258 157.642ZM138.371 160.489C138.371 159.973 138.769 159.554 139.258 159.554C139.747 159.554 140.145 159.973 140.145 160.489V167.016C140.145 168.611 138.955 172.902 138.299 175.087H127.835C127.451 174.262 126.73 172.734 126.378 172.107C125.838 171.148 125.122 170.023 124.364 168.831C123.361 167.256 122.225 165.47 121.193 163.601C120.924 163.112 120.677 162.454 121.03 162.089C121.195 161.919 121.417 161.83 121.657 161.827C121.89 161.829 122.11 161.919 122.279 162.084L125.856 166.303C126.11 166.603 126.519 166.709 126.88 166.569C127.242 166.429 127.482 166.072 127.482 165.674V151.847C127.482 151.332 127.88 150.913 128.369 150.913C128.859 150.913 129.257 151.332 129.257 151.847V160.776C129.257 161.304 129.672 161.733 130.184 161.733C130.696 161.733 131.112 161.304 131.112 160.776V157.675C131.112 157.16 131.51 156.741 131.999 156.741C132.488 156.741 132.886 157.16 132.886 157.675V162.024C132.886 162.552 133.301 162.98 133.814 162.98C134.326 162.98 134.741 162.552 134.741 162.024V158.923C134.741 158.408 135.139 157.988 135.628 157.988C136.118 157.988 136.516 158.408 136.516 158.923V163.272C136.516 163.8 136.931 164.228 137.443 164.228C137.955 164.228 138.371 163.8 138.371 163.272L138.371 160.489Z" fill="black"/>
</svg>
