<svg width="448" height="124" viewBox="0 0 448 124" fill="none" xmlns="http://www.w3.org/2000/svg">
<ellipse cx="62.3751" cy="59.759" rx="47.4337" ry="44.8193" fill="white"/>
<path fill-rule="evenodd" clip-rule="evenodd" d="M62 124C27.8131 124 0 96.1869 0 62C0 27.8131 27.8131 0 62 0C96.1869 0 124 27.8131 124 62C124 96.1869 96.1869 124 62 124ZM73.3981 94.9603C82.2101 91.9043 89.4294 85.4101 93.4393 77.0883H79.2389C78.4426 81.8756 77.2639 86.2902 75.741 90.0976C75.0231 91.892 74.2389 93.5142 73.3981 94.9603ZM30.5609 77.0885C34.5708 85.4098 41.7899 91.9043 50.6019 94.9605C49.7613 93.5142 48.9769 91.892 48.259 90.0979C46.7359 86.2904 45.5574 81.8758 44.7611 77.0885H30.5609ZM50.6019 29.0397C41.7899 32.0957 34.5708 38.5902 30.5609 46.9117H44.7611C45.5574 42.1244 46.7359 37.7098 48.259 33.9024C48.9769 32.108 49.7611 30.4858 50.6019 29.0397ZM62 27.125C59.4575 27.125 56.474 30.635 54.2142 36.2845C52.9674 39.4017 51.979 42.9994 51.2692 46.9117H72.7311C72.0212 42.9997 71.0331 39.4017 69.7861 36.2845C67.526 30.635 64.5425 27.125 62 27.125ZM27.125 62C27.125 64.9937 27.5045 67.9002 28.2173 70.6747H43.949C43.6943 67.8532 43.5591 64.9503 43.5591 62C43.5591 59.0497 43.6943 56.1468 43.949 53.3253H28.2173C27.5045 56.0998 27.125 59.0063 27.125 62ZM50.3852 70.6747H73.6151C73.8858 67.8711 74.0273 64.9646 74.0273 62C74.0273 59.0354 73.8861 56.1289 73.6151 53.3253H50.3852C50.1144 56.1289 49.973 59.0354 49.973 62C49.973 64.9646 50.1142 67.8711 50.3852 70.6747ZM62 96.875C64.5425 96.875 67.526 93.365 69.7858 87.7155C71.0329 84.5983 72.021 81.0006 72.7309 77.0883H51.2689C51.9788 81.0003 52.9671 84.5983 54.2139 87.7155C56.474 93.365 59.4575 96.875 62 96.875ZM96.875 62C96.875 59.0063 96.4955 56.0998 95.7827 53.3253H80.0507C80.3055 56.1468 80.4406 59.0497 80.4406 62C80.4406 64.9503 80.3055 67.8532 80.0507 70.6747H95.7827C96.4955 67.9002 96.875 64.9937 96.875 62ZM93.4391 46.9115C89.4294 38.5899 82.2101 32.0954 73.3978 29.0395C74.2385 30.4858 75.0229 32.108 75.7407 33.9024C77.2639 37.7098 78.4423 42.1242 79.2387 46.9117L93.4391 46.9115ZM103.289 62C103.289 84.7666 84.7666 103.289 62 103.289C39.2332 103.289 20.7111 84.7666 20.7111 62C20.7111 39.2334 39.2332 20.7111 62 20.7111C84.7668 20.7111 103.289 39.2334 103.289 62Z" fill="#FF7F30"/>
<rect x="129" y="26" width="319" height="82" rx="41" fill="white"/>
<rect x="131.5" y="28.5" width="314" height="77" rx="38.5" stroke="#7E8B9B" stroke-opacity="0.28" stroke-width="5"/>
<path d="M178.144 77V60.264H192V77H188.896V63.112H181.216V77H178.144ZM203.021 77.32C201.442 77.32 200.056 76.9787 198.861 76.296C197.688 75.6133 196.77 74.632 196.109 73.352C195.469 72.0507 195.149 70.472 195.149 68.616C195.149 66.7813 195.469 65.2133 196.109 63.912C196.77 62.6107 197.688 61.6293 198.861 60.968C200.056 60.2853 201.442 59.944 203.021 59.944C204.6 59.944 205.976 60.2853 207.149 60.968C208.344 61.6293 209.272 62.6107 209.933 63.912C210.594 65.2133 210.925 66.7813 210.925 68.616C210.925 70.472 210.594 72.0507 209.933 73.352C209.272 74.632 208.344 75.6133 207.149 76.296C205.976 76.9787 204.6 77.32 203.021 77.32ZM203.021 74.504C203.96 74.504 204.792 74.2907 205.517 73.864C206.242 73.416 206.808 72.744 207.213 71.848C207.64 70.952 207.853 69.8747 207.853 68.616C207.853 67.3787 207.64 66.312 207.213 65.416C206.808 64.52 206.242 63.8587 205.517 63.432C204.792 62.984 203.96 62.76 203.021 62.76C202.104 62.76 201.282 62.984 200.557 63.432C199.832 63.8587 199.256 64.52 198.829 65.416C198.424 66.312 198.221 67.3787 198.221 68.616C198.221 69.8747 198.424 70.952 198.829 71.848C199.256 72.744 199.832 73.416 200.557 73.864C201.282 74.2907 202.104 74.504 203.021 74.504ZM221.17 77.32C219.591 77.32 218.204 76.9787 217.01 76.296C215.836 75.6133 214.919 74.632 214.258 73.352C213.618 72.0507 213.298 70.472 213.298 68.616C213.298 66.7813 213.618 65.2133 214.258 63.912C214.919 62.6107 215.836 61.6293 217.01 60.968C218.204 60.2853 219.591 59.944 221.17 59.944C222.386 59.944 223.474 60.1573 224.434 60.584C225.394 60.9893 226.204 61.576 226.866 62.344C227.527 63.0907 228.028 63.9867 228.37 65.032H225.17C224.743 64.264 224.199 63.6987 223.538 63.336C222.876 62.952 222.087 62.76 221.17 62.76C220.231 62.76 219.399 62.984 218.674 63.432C217.948 63.88 217.383 64.552 216.978 65.448C216.572 66.3227 216.37 67.3787 216.37 68.616C216.37 69.8747 216.572 70.952 216.978 71.848C217.383 72.7227 217.948 73.384 218.674 73.832C219.399 74.28 220.231 74.504 221.17 74.504C222.087 74.504 222.876 74.312 223.538 73.928C224.199 73.544 224.743 72.968 225.17 72.2H228.37C228.028 73.2667 227.527 74.184 226.866 74.952C226.204 75.6987 225.394 76.2853 224.434 76.712C223.474 77.1173 222.386 77.32 221.17 77.32ZM234.15 77V63.112H228.55V60.264H242.854V63.112H237.254V77H234.15ZM248.977 77.32C247.825 77.32 246.801 77.096 245.905 76.648C245.031 76.2 244.359 75.5813 243.889 74.792C243.42 74.0027 243.185 73.1173 243.185 72.136C243.185 71.1547 243.431 70.28 243.921 69.512C244.412 68.7227 245.127 68.104 246.065 67.656C247.025 67.208 248.177 66.984 249.521 66.984H254.897V69.544H249.585C248.476 69.544 247.644 69.768 247.089 70.216C246.535 70.664 246.257 71.272 246.257 72.04C246.257 72.8293 246.524 73.4587 247.057 73.928C247.612 74.376 248.38 74.6 249.361 74.6C250.279 74.6 251.079 74.4187 251.761 74.056C252.465 73.6933 252.999 73.2027 253.361 72.584C253.745 71.944 253.937 71.2293 253.937 70.44V65.96C253.937 64.9573 253.607 64.168 252.945 63.592C252.284 62.9947 251.409 62.696 250.321 62.696C249.447 62.696 248.711 62.888 248.113 63.272C247.537 63.6347 247.132 64.136 246.897 64.776H243.697C244.081 63.2827 244.849 62.1093 246.001 61.256C247.153 60.3813 248.615 59.944 250.385 59.944C251.751 59.944 252.935 60.1893 253.937 60.68C254.94 61.1707 255.708 61.8747 256.241 62.792C256.775 63.7093 257.041 64.7867 257.041 66.024V77H254.481L254.097 74.856H253.937C253.575 75.496 252.945 76.072 252.049 76.584C251.175 77.0747 250.151 77.32 248.977 77.32ZM260.825 77V60.264H268.857C269.86 60.264 270.735 60.456 271.481 60.84C272.228 61.2027 272.804 61.736 273.209 62.44C273.615 63.1227 273.817 63.944 273.817 64.904C273.817 65.736 273.625 66.4613 273.241 67.08C272.857 67.6773 272.335 68.136 271.673 68.456C272.42 68.776 273.017 69.2667 273.465 69.928C273.913 70.5893 274.137 71.3253 274.137 72.136C274.137 73.16 273.924 74.0453 273.497 74.792C273.092 75.5173 272.495 76.072 271.705 76.456C270.916 76.8187 269.967 77 268.857 77H260.825ZM268.665 74.344C269.412 74.344 269.999 74.1413 270.425 73.736C270.873 73.3307 271.097 72.7653 271.097 72.04C271.097 71.3147 270.873 70.7493 270.425 70.344C269.999 69.9387 269.412 69.736 268.665 69.736H263.833V74.344H268.665ZM268.601 67.176C269.327 67.176 269.892 66.984 270.297 66.6C270.703 66.216 270.905 65.6933 270.905 65.032C270.905 64.3707 270.703 63.8587 270.297 63.496C269.892 63.112 269.327 62.92 268.601 62.92H263.833V67.176H268.601ZM297.575 80.84V77H277.255V60.264H280.327V74.12H286.151V60.264H289.223V74.12H295.047V60.264H298.151V74.12H300.423V80.84H297.575ZM302.904 77V60.264H305.912V72.872H306.072L313.496 60.264H317.272V77H314.264V64.36H314.104L306.68 77H302.904ZM321.24 77V60.264H324.312V67.976L331.672 60.264H335.384L327.64 68.424L335.864 77H332.088L324.312 68.936V77H321.24ZM337.295 77V60.264H340.303V72.872H340.463L347.887 60.264H351.663V77H348.655V64.36H348.495L341.071 77H337.295Z" fill="black"/>
<circle cx="405.5" cy="66.5" r="25.5" fill="#FF7F30"/>
<path d="M418.317 77.0173L412.393 71.094C413.617 69.2495 414.334 67.041 414.334 64.6668C414.334 58.2337 409.1 53 402.667 53C396.234 53 391 58.2337 391 64.6668C391 71.0999 396.234 76.3336 402.667 76.3336C405.041 76.3336 407.25 75.6172 409.094 74.3934L415.017 80.3166C415.927 81.2278 417.407 81.2278 418.317 80.3166C419.228 79.4054 419.228 77.9284 418.317 77.0173ZM394.5 64.6668C394.5 60.1634 398.163 56.5 402.667 56.5C407.17 56.5 410.834 60.1634 410.834 64.6668C410.834 69.1702 407.17 72.8335 402.667 72.8335C398.163 72.8335 394.5 69.1702 394.5 64.6668Z" fill="white"/>
</svg>
