<svg width="292" height="244" viewBox="0 0 292 244" fill="none" xmlns="http://www.w3.org/2000/svg">
<g clip-path="url(#clip0_377_719)">
<rect x="129.168" y="28" width="144" height="44" rx="22" transform="rotate(24.3847 129.168 28)" fill="#212122"/>
<path d="M147.856 69.3212L149.494 65.7072L154.959 68.1843L156.808 64.104L154.753 63.1726L154.139 64.5278C153.818 65.237 153.45 65.8024 153.036 66.2239C152.633 66.6498 152.208 66.9667 151.762 67.1746L149.81 66.2895C150.312 66.0603 150.732 65.7531 151.071 65.3679C151.409 64.9826 151.757 64.3965 152.113 63.6096L153.54 60.4619L159.705 63.2562L157.042 69.129L158.135 69.6244L156.497 73.2384L154.559 72.3599L155.352 70.6111L150.586 68.451L149.794 70.1998L147.856 69.3212ZM158.298 71.9466L161.805 64.2085L163.816 65.1201L161.656 69.8854L161.729 69.9184L166.702 66.428L168.99 67.4651L165.482 75.2032L163.486 74.2982L165.652 69.5184L165.58 69.4854L160.6 72.9903L158.298 71.9466ZM169.953 77.4055C168.875 76.9167 168.153 76.326 167.787 75.6334C167.427 74.9311 167.363 74.1291 167.596 73.2276L169.811 74.2316C169.761 74.5486 169.804 74.8143 169.941 75.0287C170.088 75.2474 170.361 75.4471 170.759 75.6277C171.021 75.7466 171.258 75.8187 171.469 75.8441C171.684 75.8598 171.862 75.8291 172.002 75.7522C172.152 75.6796 172.265 75.5608 172.34 75.3956C172.441 75.1722 172.428 74.9555 172.301 74.7455C172.173 74.5355 171.91 74.3403 171.512 74.1597L170.696 73.7898L171.39 72.2596L172.133 72.5965C172.376 72.7066 172.586 72.7726 172.763 72.7945C172.945 72.8067 173.099 72.777 173.225 72.7053C173.361 72.6381 173.467 72.5219 173.542 72.3567C173.643 72.1333 173.632 71.9236 173.51 71.7278C173.393 71.5222 173.149 71.3358 172.78 71.1684C172.45 71.0187 172.15 70.9704 171.88 71.0237C171.614 71.0672 171.407 71.2016 171.258 71.4269L169.116 70.4558C169.549 69.6803 170.141 69.1875 170.892 68.9775C171.653 68.772 172.553 68.9048 173.593 69.376C174.283 69.6886 174.826 70.0522 175.224 70.4667C175.626 70.8715 175.869 71.3038 175.954 71.7637C176.052 72.2182 176 72.6689 175.797 73.1158C175.608 73.5336 175.345 73.83 175.008 74.0051C174.685 74.175 174.301 74.2588 173.857 74.2566C174.191 74.6305 174.405 75.0258 174.497 75.4424C174.593 75.8493 174.547 76.2616 174.358 76.6793C174.155 77.1262 173.85 77.4624 173.444 77.6879C173.037 77.9135 172.532 78.0067 171.929 77.9676C171.34 77.9232 170.682 77.7358 169.953 77.4055ZM176.75 80.4867C176.206 80.2401 175.776 79.9223 175.461 79.5333C175.145 79.1443 174.957 78.7195 174.897 78.2587C174.85 77.7927 174.933 77.3265 175.144 76.8602C175.356 76.3938 175.654 76.0316 176.041 75.7734C176.441 75.5099 176.911 75.3775 177.451 75.376C177.99 75.3746 178.58 75.5192 179.222 75.8098L181.568 76.8734L180.907 78.3306L178.648 77.3067C178.318 77.157 178.032 77.1154 177.792 77.1818C177.56 77.2527 177.392 77.4047 177.286 77.6379C177.167 77.9002 177.17 78.1531 177.294 78.3966C177.417 78.6401 177.669 78.8478 178.048 79.0195C178.359 79.1604 178.657 79.2255 178.943 79.2146C179.243 79.1984 179.51 79.1142 179.743 78.9622C179.975 78.8101 180.156 78.5932 180.284 78.3114L181.208 76.2713C181.367 75.9215 181.371 75.6015 181.222 75.3112C181.082 75.0253 180.813 74.7921 180.415 74.6116C180.133 74.4838 179.857 74.4347 179.586 74.4641C179.324 74.4979 179.113 74.5895 178.952 74.7389L176.882 73.8008C177.355 73.1718 177.971 72.7545 178.732 72.5489C179.497 72.3336 180.346 72.4373 181.279 72.8601C181.969 73.1728 182.506 73.5509 182.89 73.9946C183.284 74.4426 183.511 74.9496 183.571 75.5154C183.645 76.0758 183.541 76.667 183.259 77.2887L181.013 82.2435L179.221 81.4309L179.392 80.4721L179.319 80.439C179.016 80.6177 178.643 80.7297 178.2 80.7752C177.758 80.8207 177.275 80.7245 176.75 80.4867ZM182.509 82.9215L186.017 75.1834L188.028 76.095L185.868 80.8602L185.94 80.8933L190.913 77.4029L193.201 78.44L189.693 86.1781L187.697 85.2731L189.864 80.4933L189.791 80.4603L184.811 83.9652L182.509 82.9215ZM190.105 75.7366C189.386 75.4107 188.896 74.9544 188.635 74.3676C188.378 73.7711 188.37 73.1174 188.61 72.4066L190.097 73.0804C190.012 73.37 190.018 73.63 190.112 73.8603C190.211 74.0809 190.411 74.2594 190.713 74.3959C191.004 74.5281 191.265 74.5587 191.497 74.4878C191.742 74.4116 191.946 74.2464 192.108 73.9919L193.594 74.6657C193.218 75.315 192.716 75.7375 192.089 75.9332C191.475 76.1236 190.814 76.0581 190.105 75.7366ZM196.095 89.0801L199.603 81.342L201.687 82.2866L198.179 90.0247L196.095 89.0801ZM191.286 86.9002L194.794 79.1621L196.878 80.1067L193.37 87.8448L191.286 86.9002ZM194.014 84.641L194.893 82.7028L198.959 84.5458L198.08 86.484L194.014 84.641ZM203.152 92.4547C202.365 92.098 201.756 91.6343 201.323 91.0636C200.905 90.4875 200.675 89.8328 200.633 89.0992C200.605 88.3604 200.782 87.5683 201.165 86.7231C201.553 85.8682 202.032 85.2127 202.601 84.7565C203.185 84.2951 203.834 84.0389 204.548 83.9878C205.267 83.9271 206.015 84.0728 206.792 84.4251C207.54 84.7642 208.121 85.2267 208.535 85.8124C208.958 86.4025 209.186 87.0622 209.219 87.7913C209.256 88.5108 209.105 89.2445 208.765 89.9926C208.699 90.1383 208.624 90.2796 208.538 90.4165C208.462 90.5579 208.393 90.6727 208.329 90.761L202.34 88.0461L203 86.5888L207.037 88.4186C207.099 88.1537 207.112 87.8787 207.077 87.5936C207.043 87.3085 206.935 87.0429 206.753 86.7968C206.572 86.5507 206.316 86.3527 205.986 86.203C205.636 86.0445 205.293 85.9883 204.956 86.0346C204.619 86.0808 204.307 86.2264 204.02 86.4712C203.747 86.7107 203.516 87.0394 203.327 87.4571C203.094 87.972 202.952 88.4405 202.901 88.8625C202.854 89.2748 202.914 89.6353 203.078 89.9442C203.247 90.2432 203.535 90.4853 203.944 90.6702C204.322 90.842 204.638 90.9087 204.889 90.8705C205.145 90.8226 205.41 90.7027 205.685 90.5109L207.9 91.5149C207.562 91.924 207.159 92.2568 206.692 92.5133C206.238 92.7645 205.709 92.8992 205.103 92.9175C204.502 92.926 203.852 92.7718 203.152 92.4547ZM206.851 97.4689L211.679 86.8163L213.472 87.6288L213.301 88.5877L213.374 88.6207C213.768 88.4481 214.177 88.3466 214.601 88.3162C215.039 88.2804 215.505 88.3748 216.001 88.5994C216.661 88.8989 217.174 89.3186 217.538 89.8585C217.916 90.393 218.11 91.0253 218.119 91.7554C218.127 92.4854 217.936 93.2828 217.544 94.1474C217.156 95.0024 216.685 95.6671 216.13 96.1418C215.576 96.6164 214.97 96.8925 214.314 96.9699C213.673 97.0421 213.022 96.9285 212.361 96.629C211.856 96.4 211.47 96.1139 211.204 95.7708C210.948 95.4321 210.775 95.0902 210.685 94.7451L210.612 94.7121L208.934 98.4135L206.851 97.4689ZM212.755 94.5589C213.085 94.7086 213.409 94.7679 213.728 94.7367C214.061 94.7001 214.373 94.5546 214.664 94.3C214.969 94.0402 215.23 93.6722 215.445 93.1962C215.771 92.4773 215.855 91.8654 215.698 91.3606C215.54 90.8559 215.209 90.489 214.703 90.26C214.383 90.1146 214.056 90.0602 213.723 90.0968C213.4 90.1377 213.088 90.2833 212.788 90.5334C212.487 90.7835 212.226 91.1515 212.006 91.6372C211.79 92.1133 211.685 92.5517 211.691 92.9525C211.701 93.3435 211.797 93.674 211.979 93.944C212.176 94.2086 212.434 94.4136 212.755 94.5589Z" fill="white"/>
</g>
<g clip-path="url(#clip1_377_719)">
<rect x="38.9766" y="67.845" width="144" height="44" rx="22" transform="rotate(-28.1087 38.9766 67.845)" fill="#3267F6"/>
<path d="M80.3467 77.4921L76.3438 69.9982L79.0676 68.5433L83.2177 72.2037L83.2882 72.1661L82.5535 66.6813L85.2349 65.2491L89.2378 72.743L87.2902 73.7833L84.7875 69.0978L84.7169 69.1355L85.4696 74.7557L84.1148 75.4794L79.8621 71.7287L79.7915 71.7664L82.2942 76.4519L80.3467 77.4921ZM94.1828 70.2831C93.4207 70.6901 92.6817 70.8914 91.9657 70.8868C91.2542 70.8678 90.5946 70.6518 89.987 70.2386C89.3837 69.8111 88.8635 69.1881 88.4263 68.3695C87.984 67.5416 87.7555 66.7627 87.7406 66.033C87.7301 65.2889 87.9219 64.618 88.3162 64.0204C88.7055 63.4134 89.2765 62.9089 90.0292 62.5069C90.7536 62.1199 91.4741 61.9406 92.1907 61.969C92.9167 61.9924 93.5788 62.2132 94.177 62.6313C94.7702 63.04 95.2603 63.6066 95.6473 64.3311C95.7226 64.4722 95.7886 64.6184 95.8452 64.7695C95.9112 64.9157 95.9599 65.0408 95.9913 65.145L90.1909 68.2432L89.4371 66.8319L93.3463 64.7438C93.1737 64.5337 92.9637 64.3557 92.7164 64.2096C92.469 64.0636 92.1926 63.9875 91.887 63.9814C91.5815 63.9754 91.2687 64.0578 90.9488 64.2286C90.6101 64.4095 90.3565 64.6478 90.1879 64.9435C90.0193 65.2391 89.9448 65.5751 89.9645 65.9516C89.9886 66.3136 90.1087 66.6969 90.3248 67.1015C90.5911 67.6001 90.8762 67.9981 91.1801 68.2953C91.479 68.5831 91.8009 68.7558 92.1461 68.8133C92.4862 68.8614 92.8538 68.7799 93.249 68.5688C93.6159 68.3728 93.8608 68.1634 93.9837 67.9406C94.1015 67.7084 94.1678 67.425 94.1826 67.0906L96.3278 65.9448C96.4467 66.4617 96.4656 66.9837 96.3843 67.5108C96.3075 68.0235 96.0919 68.5256 95.7377 69.0171C95.3785 69.4992 94.8602 69.9212 94.1828 70.2831ZM103.562 65.0919L99.559 57.5979L101.577 56.52L105.58 64.0139L103.562 65.0919ZM98.9046 67.5795L94.9017 60.0856L96.9199 59.0076L100.923 66.5016L98.9046 67.5795ZM98.7734 64.0399L97.7708 62.1628L101.708 60.0596L102.711 61.9367L98.7734 64.0399ZM110.536 61.5483C109.773 61.9554 109.034 62.1566 108.319 62.1521C107.607 62.1331 106.947 61.917 106.34 61.5039C105.736 61.0764 105.216 60.4533 104.779 59.6348C104.337 58.8068 104.108 58.028 104.093 57.2983C104.083 56.5541 104.275 55.8832 104.669 55.2857C105.058 54.6787 105.629 54.1742 106.382 53.7721C107.106 53.3851 107.827 53.2059 108.543 53.2343C109.269 53.2577 109.932 53.4784 110.53 53.8965C111.123 54.3053 111.613 54.8719 112 55.5963C112.075 55.7375 112.141 55.8836 112.198 56.0348C112.264 56.1809 112.313 56.3061 112.344 56.4102L106.544 59.5085L105.79 58.0972L109.699 56.0091C109.526 55.799 109.316 55.6209 109.069 55.4749C108.822 55.3288 108.545 55.2528 108.24 55.2467C107.934 55.2406 107.621 55.323 107.302 55.4939C106.963 55.6748 106.709 55.9131 106.541 56.2087C106.372 56.5043 106.298 56.8404 106.317 57.2169C106.341 57.5789 106.461 57.9622 106.678 58.3667C106.944 58.8654 107.229 59.2633 107.533 59.5606C107.832 59.8484 108.154 60.021 108.499 60.0785C108.839 60.1266 109.207 60.0451 109.602 59.8341C109.969 59.6381 110.214 59.4287 110.336 59.2058C110.454 58.9736 110.521 58.6903 110.535 58.3558L112.681 57.21C112.799 57.727 112.818 58.249 112.737 58.7761C112.66 59.2888 112.445 59.7909 112.091 60.2824C111.731 60.7645 111.213 61.1865 110.536 61.5483ZM115.193 61.0558L113.324 57.5558L118.616 54.729L116.505 50.7774L114.515 51.8403L115.216 53.1528C115.583 53.8396 115.808 54.4754 115.89 55.0601C115.982 55.6398 115.975 56.1697 115.869 56.6498L113.978 57.6599C114.102 57.1221 114.114 56.6016 114.014 56.0985C113.915 55.5953 113.662 54.9627 113.255 54.2006L111.626 51.1522L117.596 47.9635L120.634 53.651L121.693 53.0856L123.562 56.5856L121.685 57.5882L120.78 55.8947L116.166 58.3597L117.07 60.0532L115.193 61.0558ZM122.519 54.9662L123.531 49.4917L118.727 47.3592L121.028 46.1304L125.238 48.0355L123.512 44.8037L125.417 43.786L127.143 47.0179L127.901 42.4593L130.201 41.2305L129.303 46.4085L134.416 48.6114L132.045 49.8778L127.633 47.9352L129.42 51.28L127.515 52.2976L125.728 48.9529L124.89 53.6998L122.519 54.9662ZM138.035 46.8598C137.273 47.2668 136.534 47.4681 135.818 47.4635C135.106 47.4445 134.447 47.2285 133.839 46.8153C133.236 46.3878 132.715 45.7648 132.278 44.9462C131.836 44.1183 131.607 43.3394 131.593 42.6097C131.582 41.8656 131.774 41.1947 132.168 40.5971C132.557 39.9901 133.128 39.4856 133.881 39.0836C134.606 38.6966 135.326 38.5173 136.043 38.5457C136.769 38.5691 137.431 38.7899 138.029 39.208C138.622 39.6167 139.112 40.1833 139.499 40.9078C139.575 41.0489 139.641 41.1951 139.697 41.3462C139.763 41.4924 139.812 41.6175 139.843 41.7217L134.043 44.8199L133.289 43.4086L137.198 41.3205C137.026 41.1104 136.816 40.9324 136.568 40.7863C136.321 40.6403 136.045 40.5642 135.739 40.5581C135.433 40.5521 135.121 40.6345 134.801 40.8053C134.462 40.9862 134.208 41.2245 134.04 41.5202C133.871 41.8158 133.797 42.1518 133.816 42.5283C133.841 42.8903 133.961 43.2736 134.177 43.6782C134.443 44.1768 134.728 44.5748 135.032 44.872C135.331 45.1598 135.653 45.3325 135.998 45.39C136.338 45.4381 136.706 45.3566 137.101 45.1455C137.468 44.9495 137.713 44.7401 137.836 44.5173C137.953 44.2851 138.02 44.0017 138.035 43.6673L140.18 42.5215C140.299 43.0384 140.317 43.5604 140.236 44.0875C140.159 44.6002 139.944 45.1023 139.59 45.5938C139.23 46.0759 138.712 46.4979 138.035 46.8598ZM144.264 46.9788L138.754 36.6623L140.49 35.7351L141.146 36.4547L141.217 36.417C141.32 35.999 141.488 35.6127 141.722 35.2581C141.96 34.889 142.319 34.5763 142.799 34.32C143.439 33.9782 144.084 33.8272 144.734 33.867C145.388 33.8923 146.008 34.1238 146.592 34.5613C147.177 34.9989 147.693 35.6364 148.14 36.4738C148.582 37.3017 148.823 38.0803 148.861 38.8093C148.9 39.5384 148.751 40.1866 148.413 40.7541C148.079 41.3071 147.593 41.7544 146.953 42.0962C146.464 42.3575 146.002 42.4892 145.568 42.4914C145.143 42.4885 144.766 42.4176 144.438 42.2785L144.368 42.3162L146.282 45.9008L144.264 46.9788ZM145.55 40.5234C145.87 40.3525 146.115 40.1312 146.284 39.8594C146.458 39.5732 146.532 39.2371 146.508 38.8513C146.487 38.451 146.354 38.0203 146.108 37.5593C145.736 36.8631 145.302 36.4238 144.805 36.2415C144.309 36.0593 143.816 36.0988 143.327 36.3601C143.016 36.526 142.774 36.752 142.6 37.0382C142.436 37.3194 142.362 37.6555 142.377 38.0464C142.392 38.4373 142.526 38.8679 142.777 39.3383C143.023 39.7994 143.307 40.1496 143.628 40.3891C143.945 40.6192 144.266 40.7442 144.591 40.764C144.92 40.7695 145.24 40.6893 145.55 40.5234Z" fill="white"/>
</g>
<g clip-path="url(#clip2_377_719)">
<rect x="13.4961" y="53" width="166" height="44" rx="22" transform="rotate(17.8592 13.4961 53)" fill="#0A2240"/>
<path d="M30.0254 87.9116C29.4569 87.7284 28.9937 87.4615 28.636 87.1109C28.2783 86.7603 28.0432 86.3595 27.9307 85.9086C27.8317 85.4509 27.8607 84.9783 28.0177 84.491C28.1747 84.0037 28.4305 83.6098 28.785 83.3094C29.153 83.0021 29.6048 82.8171 30.1406 82.7544C30.6763 82.6916 31.2792 82.7682 31.9493 82.9841L34.4011 83.7741L33.9104 85.297L31.5499 84.5365C31.2047 84.4252 30.9162 84.4163 30.6844 84.5097C30.4628 84.6064 30.3127 84.7766 30.2342 85.0203C30.1458 85.2944 30.177 85.5454 30.3278 85.7732C30.4785 86.0011 30.7518 86.1788 31.1478 86.3064C31.4726 86.4111 31.7765 86.4418 32.0595 86.3984C32.3558 86.3482 32.611 86.2344 32.8251 86.0568C33.0392 85.8792 33.1937 85.6432 33.2886 85.3488L33.9756 83.2168C34.0933 82.8513 34.0614 82.5328 33.8799 82.2614C33.7086 81.9933 33.4148 81.7921 32.9985 81.658C32.7041 81.5631 32.4239 81.5457 32.158 81.6057C31.9023 81.669 31.7028 81.784 31.5594 81.9508L29.3969 81.254C29.7948 80.5753 30.36 80.0906 31.0925 79.7999C31.8282 79.4991 32.6834 79.5057 33.6581 79.8197C34.3789 80.0519 34.9555 80.3666 35.3879 80.7637C35.8305 81.164 36.1136 81.6419 36.2372 82.1972C36.3743 82.7457 36.3381 83.3448 36.1288 83.9946L34.4604 89.1724L32.5873 88.5689L32.6483 87.5968L32.5722 87.5722C32.291 87.7842 31.9333 87.9379 31.4991 88.0334C31.0649 88.1288 30.5737 88.0882 30.0254 87.9116ZM34.6124 91.2386L35.8293 87.4618L41.5401 89.3019L42.9141 85.0378L40.7668 84.3459L40.3104 85.7622C40.0716 86.5033 39.7707 87.1068 39.4077 87.5726C39.0549 88.0416 38.6689 88.4048 38.2498 88.662L36.2091 88.0045C36.6819 87.7197 37.0646 87.3667 37.3572 86.9455C37.6498 86.5243 37.9286 85.9025 38.1936 85.0801L39.2535 81.7907L45.6953 83.8663L43.7179 90.0036L44.8601 90.3716L43.6432 94.1484L41.6177 93.4958L42.2065 91.6683L37.2266 90.0637L36.6378 91.8912L34.6124 91.2386ZM45.2853 92.6603L47.8908 84.5737L50.83 85.5207L51.0829 91.0486L51.1591 91.0732L54.5916 86.7327L57.4851 87.665L54.8796 95.7516L52.7779 95.0744L54.407 90.0184L54.3309 89.9939L50.8134 94.4415L49.3514 93.9704L49.0921 88.3059L49.016 88.2814L47.3869 93.3374L45.2853 92.6603ZM56.525 96.2818L59.1305 88.1952L61.2321 88.8723L59.6276 93.8522L59.7037 93.8767L64.2475 89.8439L66.6384 90.6143L64.0329 98.7009L61.9465 98.0286L63.556 93.0335L63.4798 93.009L58.9312 97.0571L56.525 96.2818ZM70.7082 100.852L73.3137 92.7651L75.4915 93.4668L72.8859 101.553L70.7082 100.852ZM65.6826 99.2324L68.2882 91.1458L70.4659 91.8475L67.8604 99.9341L65.6826 99.2324ZM68.1363 96.6778L68.7889 94.6523L73.0378 96.0214L72.3852 98.0468L68.1363 96.6778ZM74.5428 102.087L77.1484 94.0006L79.25 94.6778L77.6454 99.6576L77.7216 99.6822L82.2653 95.6493L84.6563 96.4197L82.0507 104.506L79.9643 103.834L81.5738 98.8389L81.4977 98.8144L76.949 102.862L74.5428 102.087ZM87.2607 106.353C86.4383 106.088 85.7799 105.697 85.2856 105.179C84.8047 104.654 84.5016 104.03 84.3762 103.306C84.2643 102.575 84.3507 101.768 84.6353 100.884C84.9231 99.991 85.3242 99.2853 85.8385 98.7674C86.3662 98.2426 86.9768 97.9126 87.6703 97.7775C88.3773 97.6354 89.142 97.6969 89.9643 97.9619C90.6953 98.1974 91.2772 98.5306 91.7099 98.9614C92.1427 99.3922 92.4393 99.88 92.6 100.425C92.7639 100.96 92.8185 101.521 92.7636 102.108L90.5859 101.406C90.5383 101.033 90.4137 100.723 90.2123 100.479C90.0141 100.225 89.717 100.034 89.321 99.9063C88.9657 99.7918 88.6231 99.7767 88.2934 99.861C87.9771 99.9384 87.6888 100.12 87.4286 100.406C87.1785 100.695 86.9733 101.089 86.813 101.586C86.656 102.073 86.5946 102.507 86.6288 102.888C86.6731 103.272 86.7995 103.593 87.0078 103.851C87.2296 104.102 87.5182 104.284 87.8735 104.399C88.2695 104.526 88.6205 104.55 88.9267 104.469C89.2361 104.378 89.5193 104.195 89.7763 103.919L91.954 104.621C91.6555 105.13 91.282 105.559 90.8335 105.907C90.3883 106.246 89.8642 106.464 89.2614 106.561C88.6586 106.658 87.9916 106.589 87.2607 106.353ZM93.5535 108.213L95.5064 102.151L93.0089 101.347L93.6615 99.3212L100.85 101.637L100.197 103.663L97.6842 102.853L95.7312 108.914L93.5535 108.213ZM98.1491 113.055L101.736 101.923L103.609 102.526L103.548 103.499L103.624 103.523C103.997 103.307 104.391 103.16 104.809 103.081C105.24 102.996 105.714 103.037 106.232 103.203C106.922 103.426 107.479 103.785 107.902 104.28C108.339 104.768 108.603 105.374 108.695 106.098C108.787 106.823 108.687 107.637 108.396 108.54C108.108 109.434 107.715 110.148 107.218 110.682C106.721 111.217 106.151 111.56 105.508 111.711C104.879 111.856 104.219 111.817 103.528 111.595C103 111.424 102.585 111.184 102.281 110.873C101.988 110.566 101.778 110.246 101.649 109.913L101.573 109.889L100.327 113.757L98.1491 113.055ZM103.684 109.493C104.029 109.604 104.359 109.626 104.672 109.559C104.998 109.485 105.291 109.305 105.552 109.019C105.825 108.726 106.042 108.331 106.203 107.834C106.445 107.082 106.459 106.465 106.245 105.981C106.031 105.498 105.66 105.171 105.132 105.001C104.797 104.893 104.466 104.876 104.14 104.95C103.823 105.027 103.53 105.207 103.26 105.49C102.989 105.773 102.772 106.168 102.609 106.676C102.448 107.173 102.394 107.62 102.445 108.018C102.499 108.405 102.633 108.723 102.844 108.97C103.069 109.211 103.349 109.385 103.684 109.493ZM110.689 113.902C110.121 113.719 109.657 113.452 109.3 113.101C108.942 112.751 108.707 112.35 108.594 111.899C108.495 111.441 108.524 110.969 108.681 110.481C108.838 109.994 109.094 109.6 109.449 109.3C109.817 108.992 110.269 108.807 110.804 108.745C111.34 108.682 111.943 108.759 112.613 108.974L115.065 109.764L114.574 111.287L112.214 110.527C111.869 110.416 111.58 110.407 111.348 110.5C111.127 110.597 110.976 110.767 110.898 111.011C110.81 111.285 110.841 111.536 110.992 111.764C111.142 111.991 111.416 112.169 111.812 112.297C112.136 112.401 112.44 112.432 112.723 112.389C113.02 112.339 113.275 112.225 113.489 112.047C113.703 111.87 113.857 111.634 113.952 111.339L114.639 109.207C114.757 108.842 114.725 108.523 114.544 108.252C114.372 107.984 114.079 107.782 113.662 107.648C113.368 107.553 113.088 107.536 112.822 107.596C112.566 107.659 112.367 107.774 112.223 107.941L110.061 107.244C110.459 106.566 111.024 106.081 111.756 105.79C112.492 105.489 113.347 105.496 114.322 105.81C115.043 106.042 115.619 106.357 116.052 106.754C116.494 107.154 116.777 107.632 116.901 108.188C117.038 108.736 117.002 109.335 116.793 109.985L115.124 115.163L113.251 114.559L113.312 113.587L113.236 113.563C112.955 113.775 112.597 113.928 112.163 114.024C111.729 114.119 111.237 114.079 110.689 113.902ZM117.978 116.082L119.931 110.021L117.433 109.216L118.086 107.191L125.274 109.507L124.621 111.532L122.108 110.723L120.155 116.784L117.978 116.082ZM126.654 119.046C125.831 118.781 125.173 118.389 124.679 117.871C124.198 117.347 123.895 116.722 123.769 115.998C123.657 115.267 123.744 114.46 124.028 113.577C124.316 112.684 124.717 111.978 125.232 111.46C125.759 110.935 126.37 110.605 127.064 110.47C127.77 110.328 128.535 110.39 129.357 110.655C130.17 110.916 130.821 111.311 131.312 111.839C131.807 112.357 132.11 112.981 132.222 113.712C132.347 114.436 132.266 115.245 131.978 116.138C131.693 117.022 131.287 117.726 130.76 118.251C130.245 118.768 129.635 119.098 128.928 119.24C128.224 119.372 127.466 119.307 126.654 119.046ZM127.282 117.096C127.617 117.204 127.941 117.225 128.254 117.158C128.58 117.083 128.879 116.905 129.149 116.622C129.423 116.329 129.64 115.934 129.8 115.437C129.964 114.929 130.018 114.482 129.964 114.094C129.909 113.707 129.771 113.388 129.549 113.137C129.338 112.89 129.064 112.712 128.729 112.604C128.384 112.493 128.048 112.474 127.722 112.548C127.406 112.626 127.112 112.806 126.842 113.088C126.582 113.374 126.37 113.771 126.206 114.279C126.046 114.776 125.986 115.222 126.027 115.616C126.082 116.004 126.215 116.321 126.427 116.569C126.652 116.809 126.937 116.985 127.282 117.096ZM130.972 123.631L134.559 112.499L136.433 113.102L136.371 114.074L136.448 114.099C136.82 113.883 137.215 113.735 137.632 113.657C138.063 113.572 138.537 113.612 139.055 113.779C139.746 114.002 140.302 114.36 140.726 114.855C141.162 115.344 141.427 115.95 141.518 116.674C141.61 117.398 141.51 118.212 141.219 119.116C140.931 120.009 140.538 120.723 140.041 121.258C139.544 121.793 138.974 122.136 138.331 122.287C137.702 122.432 137.042 122.393 136.352 122.17C135.824 122 135.408 121.76 135.105 121.449C134.811 121.142 134.601 120.822 134.473 120.489L134.397 120.465L133.15 124.333L130.972 123.631ZM136.508 120.069C136.853 120.18 137.182 120.202 137.495 120.135C137.821 120.061 138.115 119.881 138.375 119.595C138.649 119.302 138.866 118.907 139.026 118.409C139.268 117.658 139.282 117.041 139.068 116.557C138.854 116.073 138.483 115.747 137.955 115.576C137.62 115.469 137.289 115.452 136.963 115.526C136.647 115.603 136.353 115.783 136.083 116.066C135.812 116.349 135.595 116.744 135.432 117.251C135.272 117.749 135.217 118.196 135.268 118.594C135.323 118.981 135.456 119.299 135.667 119.546C135.892 119.787 136.173 119.961 136.508 120.069Z" fill="white"/>
</g>
<g clip-path="url(#clip3_377_719)">
<rect x="140.93" y="98.6484" width="144" height="44" rx="22" transform="rotate(-14.7442 140.93 98.6484)" fill="#7E8B9B"/>
<path d="M172.025 122.727L169.048 111.416L170.951 110.915L171.424 111.767L171.501 111.747C171.698 111.364 171.951 111.027 172.261 110.736C172.578 110.432 172.999 110.211 173.526 110.072C174.227 109.888 174.889 109.89 175.513 110.079C176.143 110.255 176.693 110.623 177.16 111.184C177.628 111.745 177.982 112.484 178.224 113.402C178.463 114.31 178.517 115.123 178.386 115.841C178.255 116.56 177.96 117.156 177.5 117.63C177.048 118.091 176.471 118.414 175.769 118.598C175.233 118.739 174.753 118.761 174.33 118.663C173.918 118.562 173.568 118.405 173.28 118.194L173.203 118.215L174.237 122.145L172.025 122.727ZM174.768 116.744C175.119 116.652 175.408 116.493 175.636 116.267C175.871 116.029 176.021 115.719 176.086 115.338C176.159 114.944 176.129 114.494 175.996 113.989C175.795 113.225 175.474 112.698 175.033 112.406C174.592 112.114 174.103 112.038 173.567 112.179C173.227 112.269 172.939 112.433 172.704 112.671C172.479 112.907 172.329 113.217 172.253 113.6C172.178 113.984 172.208 114.434 172.344 114.95C172.477 115.455 172.672 115.862 172.929 116.169C173.184 116.466 173.467 116.662 173.779 116.756C174.098 116.838 174.428 116.833 174.768 116.744ZM183.045 116.683C182.467 116.835 181.933 116.86 181.443 116.758C180.953 116.655 180.539 116.444 180.201 116.125C179.871 115.793 179.641 115.379 179.51 114.884C179.38 114.389 179.383 113.919 179.52 113.475C179.665 113.018 179.946 112.618 180.363 112.277C180.781 111.935 181.33 111.675 182.011 111.496L184.502 110.84L184.909 112.388L182.511 113.019C182.16 113.111 181.912 113.259 181.767 113.463C181.632 113.663 181.598 113.888 181.663 114.135C181.736 114.414 181.898 114.608 182.147 114.719C182.397 114.83 182.723 114.832 183.125 114.727C183.456 114.64 183.728 114.502 183.943 114.313C184.166 114.111 184.319 113.877 184.404 113.612C184.489 113.347 184.492 113.065 184.413 112.766L183.843 110.6C183.745 110.229 183.547 109.978 183.248 109.847C182.959 109.713 182.603 109.702 182.18 109.813C181.881 109.892 181.635 110.028 181.444 110.222C181.262 110.413 181.156 110.618 181.125 110.835L178.928 111.414C178.898 110.628 179.113 109.915 179.573 109.275C180.031 108.625 180.755 108.17 181.745 107.909C182.477 107.717 183.133 107.671 183.711 107.773C184.299 107.871 184.795 108.121 185.199 108.523C185.61 108.911 185.902 109.435 186.076 110.095L187.46 115.356L185.557 115.857L185.085 115.005L185.008 115.025C184.885 115.355 184.666 115.678 184.352 115.992C184.038 116.306 183.602 116.537 183.045 116.683ZM192.23 114.266C191.085 114.567 190.153 114.565 189.432 114.258C188.709 113.941 188.153 113.359 187.765 112.513L190.117 111.894C190.278 112.171 190.48 112.35 190.721 112.43C190.973 112.507 191.311 112.49 191.734 112.378C192.012 112.305 192.241 112.212 192.421 112.098C192.598 111.974 192.717 111.838 192.777 111.69C192.847 111.539 192.86 111.376 192.813 111.201C192.751 110.964 192.604 110.804 192.373 110.721C192.142 110.639 191.814 110.653 191.392 110.764L190.525 110.992L190.097 109.368L190.887 109.16C191.144 109.092 191.349 109.011 191.501 108.916C191.649 108.81 191.75 108.69 191.803 108.555C191.866 108.417 191.874 108.26 191.828 108.085C191.766 107.848 191.625 107.692 191.407 107.617C191.186 107.531 190.88 107.54 190.488 107.644C190.137 107.736 189.873 107.888 189.698 108.1C189.519 108.301 189.443 108.536 189.47 108.805L187.195 109.404C187.042 108.528 187.19 107.772 187.64 107.135C188.101 106.496 188.883 106.031 189.987 105.74C190.719 105.548 191.37 105.487 191.94 105.557C192.508 105.617 192.969 105.799 193.325 106.103C193.688 106.393 193.932 106.776 194.057 107.25C194.174 107.694 194.157 108.09 194.006 108.438C193.862 108.774 193.618 109.081 193.272 109.359C193.767 109.439 194.182 109.611 194.516 109.876C194.848 110.13 195.072 110.479 195.189 110.923C195.314 111.398 195.29 111.851 195.116 112.282C194.943 112.714 194.611 113.105 194.118 113.455C193.633 113.792 193.004 114.063 192.23 114.266ZM197.807 115.942L194.831 104.631L196.734 104.13L197.206 104.982L197.284 104.962C197.481 104.579 197.734 104.242 198.044 103.951C198.361 103.647 198.782 103.426 199.308 103.287C200.01 103.103 200.672 103.105 201.295 103.294C201.926 103.47 202.475 103.838 202.943 104.399C203.41 104.96 203.765 105.699 204.006 106.617C204.245 107.525 204.299 108.338 204.169 109.056C204.038 109.775 203.742 110.371 203.283 110.845C202.83 111.306 202.253 111.628 201.552 111.813C201.016 111.954 200.536 111.976 200.113 111.877C199.7 111.776 199.35 111.62 199.063 111.409L198.986 111.429L200.02 115.36L197.807 115.942ZM200.551 109.959C200.902 109.866 201.191 109.708 201.418 109.482C201.653 109.244 201.804 108.934 201.869 108.553C201.941 108.159 201.911 107.709 201.778 107.204C201.577 106.44 201.257 105.913 200.816 105.62C200.375 105.328 199.886 105.253 199.35 105.394C199.009 105.484 198.722 105.648 198.487 105.886C198.262 106.122 198.112 106.431 198.036 106.815C197.961 107.199 197.991 107.649 198.127 108.165C198.26 108.67 198.455 109.076 198.712 109.384C198.967 109.681 199.25 109.876 199.562 109.971C199.881 110.052 200.211 110.048 200.551 109.959ZM208.828 109.898C208.25 110.05 207.716 110.075 207.226 109.972C206.735 109.87 206.321 109.659 205.984 109.34C205.654 109.007 205.423 108.594 205.293 108.098C205.163 107.603 205.166 107.134 205.303 106.69C205.447 106.232 205.728 105.833 206.146 105.492C206.563 105.15 207.112 104.89 207.793 104.711L210.284 104.055L210.692 105.602L208.293 106.234C207.943 106.326 207.695 106.474 207.55 106.677C207.415 106.878 207.38 107.102 207.446 107.35C207.519 107.629 207.68 107.823 207.93 107.934C208.18 108.045 208.506 108.047 208.908 107.941C209.238 107.854 209.511 107.717 209.726 107.528C209.948 107.326 210.102 107.092 210.187 106.827C210.271 106.562 210.274 106.28 210.196 105.981L209.626 103.815C209.528 103.443 209.329 103.192 209.03 103.062C208.741 102.928 208.386 102.917 207.963 103.028C207.664 103.107 207.418 103.243 207.226 103.437C207.045 103.628 206.939 103.832 206.908 104.05L204.711 104.628C204.68 103.842 204.895 103.129 205.356 102.49C205.814 101.84 206.537 101.385 207.528 101.124C208.26 100.931 208.915 100.886 209.494 100.987C210.082 101.086 210.578 101.336 210.982 101.737C211.393 102.125 211.685 102.65 211.859 103.31L213.243 108.571L211.34 109.072L210.868 108.22L210.79 108.24C210.668 108.57 210.449 108.892 210.135 109.207C209.82 109.521 209.385 109.752 208.828 109.898ZM218.617 107.322C217.771 107.545 217.002 107.559 216.312 107.366C215.621 107.173 215.019 106.769 214.504 106.154C213.997 105.527 213.606 104.692 213.332 103.65C212.968 102.268 212.821 101.06 212.891 100.027C212.972 98.991 213.274 98.1503 213.799 97.5048C214.324 96.8593 215.061 96.4116 216.01 96.1619C216.712 95.9773 217.308 95.7707 217.8 95.5421C218.288 95.3032 218.676 95.0578 218.963 94.8059L219.5 96.8483C219.273 97.0737 218.932 97.29 218.48 97.4974C218.027 97.7048 217.455 97.8995 216.764 98.0813C216.238 98.2198 215.822 98.4229 215.518 98.6905C215.213 98.9582 215.006 99.2828 214.897 99.6645C214.796 100.033 214.765 100.46 214.804 100.946L214.882 100.926C215.004 100.596 215.245 100.295 215.604 100.024C215.963 99.7535 216.442 99.5394 217.04 99.3819C217.731 99.2 218.387 99.1984 219.007 99.377C219.636 99.5426 220.177 99.88 220.63 100.389C221.082 100.888 221.41 101.53 221.617 102.314C221.826 103.108 221.844 103.848 221.671 104.533C221.506 105.205 221.158 105.787 220.626 106.28C220.101 106.76 219.431 107.108 218.617 107.322ZM218.099 105.357C218.471 105.259 218.77 105.098 218.998 104.872C219.233 104.634 219.384 104.351 219.453 104.025C219.529 103.685 219.513 103.309 219.404 102.896C219.295 102.483 219.126 102.153 218.895 101.905C218.672 101.644 218.401 101.472 218.081 101.391C217.77 101.296 217.428 101.298 217.057 101.396C216.686 101.494 216.382 101.662 216.147 101.9C215.909 102.128 215.758 102.411 215.692 102.748C215.624 103.075 215.644 103.444 215.752 103.857C215.861 104.27 216.027 104.606 216.25 104.868C216.47 105.118 216.742 105.29 217.064 105.381C217.383 105.463 217.728 105.455 218.099 105.357ZM227.617 104.953C226.781 105.173 226.016 105.198 225.32 105.028C224.633 104.845 224.041 104.483 223.545 103.94C223.057 103.385 222.695 102.659 222.459 101.761C222.22 100.853 222.177 100.043 222.332 99.3294C222.493 98.603 222.83 97.996 223.341 97.5084C223.86 97.0079 224.538 96.6476 225.373 96.4277C226.198 96.2106 226.96 96.1921 227.658 96.3723C228.354 96.5423 228.946 96.9049 229.434 97.4603C229.929 98.0027 230.297 98.7278 230.536 99.6355C230.772 100.533 230.809 101.345 230.647 102.071C230.493 102.785 230.156 103.392 229.637 103.892C229.116 104.383 228.442 104.736 227.617 104.953ZM227.096 102.973C227.436 102.883 227.72 102.726 227.948 102.501C228.183 102.262 228.338 101.951 228.413 101.567C228.486 101.173 228.456 100.723 228.323 100.218C228.187 99.7021 227.992 99.2957 227.737 98.9987C227.483 98.7017 227.195 98.5074 226.873 98.4156C226.561 98.3212 226.235 98.3187 225.894 98.4083C225.544 98.5006 225.251 98.6659 225.016 98.9043C224.791 99.1399 224.641 99.4496 224.565 99.8335C224.5 100.215 224.536 100.663 224.671 101.179C224.804 101.684 224.994 102.092 225.241 102.402C225.496 102.699 225.779 102.895 226.091 102.989C226.41 103.071 226.745 103.065 227.096 102.973ZM234.222 103.05L232.602 96.8914L230.064 97.5592L229.522 95.5012L236.826 93.5792L237.367 95.6372L234.814 96.309L236.435 102.467L234.222 103.05ZM243.811 97.8295C243.613 97.9588 243.373 98.0937 243.09 98.2343C242.807 98.3749 242.506 98.4873 242.186 98.5715C241.474 98.7588 240.838 98.7938 240.278 98.6765C239.728 98.5566 239.267 98.2919 238.894 97.8825C238.532 97.4705 238.261 96.924 238.082 96.2432L237.345 93.4426L239.558 92.8603L240.295 95.6609C240.395 96.0426 240.593 96.3105 240.887 96.4647C241.189 96.6058 241.582 96.6126 242.067 96.485C242.366 96.4063 242.603 96.3219 242.778 96.2317C242.95 96.1313 243.119 95.9986 243.285 95.8335L242.312 92.1354L244.525 91.5531L246.687 99.7694L244.474 100.352L243.811 97.8295ZM248.362 99.3285L246.2 91.1123L248.335 90.5503L249.667 95.61L249.744 95.5897L251.399 89.7441L253.828 89.1047L255.99 97.321L253.871 97.8789L252.535 92.8037L252.458 92.824L250.807 98.6851L248.362 99.3285ZM257.667 96.8799L255.504 88.6636L257.717 88.0813L258.674 91.7175L260.75 87.2832L263.303 86.6113L261.042 91.4748L265.697 94.7665L263.051 95.4628L258.886 92.5221L259.879 96.2976L257.667 96.8799Z" fill="white"/>
</g>
<path fill-rule="evenodd" clip-rule="evenodd" d="M251.45 123.058C251.823 120.801 251.18 118.493 249.707 116.745C248.224 115.009 246.056 114 243.775 114H57.0769C54.7951 114 52.6273 115.009 51.1441 116.745C49.6713 118.493 49.0282 120.801 49.4016 123.058C49.4016 123.058 60.0019 187.996 65.219 220.018C67.4802 233.85 79.3977 244 93.3689 244H207.483C221.454 244 233.371 233.85 235.633 220.018L251.45 123.058ZM142.647 158.2V199.8C142.647 204.106 146.132 207.6 150.426 207.6C154.72 207.6 158.205 204.106 158.205 199.8V158.2C158.205 153.894 154.72 150.4 150.426 150.4C146.132 150.4 142.647 153.894 142.647 158.2ZM184.135 158.2V199.8C184.135 204.106 187.62 207.6 191.914 207.6C196.208 207.6 199.693 204.106 199.693 199.8V158.2C199.693 153.894 196.208 150.4 191.914 150.4C187.62 150.4 184.135 153.894 184.135 158.2ZM101.158 158.2V199.8C101.158 204.106 104.643 207.6 108.937 207.6C113.231 207.6 116.716 204.106 116.716 199.8V158.2C116.716 153.894 113.231 150.4 108.937 150.4C104.643 150.4 101.158 153.894 101.158 158.2Z" fill="#FF7F30"/>
<path fill-rule="evenodd" clip-rule="evenodd" d="M254.147 114H46.7049C42.4108 114 38.9258 117.494 38.9258 121.8C38.9258 126.105 42.4108 129.6 46.7049 129.6H254.147C258.441 129.6 261.926 126.105 261.926 121.8C261.926 117.494 258.441 114 254.147 114Z" fill="#FF7F30"/>
<defs>
<clipPath id="clip0_377_719">
<rect x="129.168" y="28" width="144" height="44" rx="22" transform="rotate(24.3847 129.168 28)" fill="white"/>
</clipPath>
<clipPath id="clip1_377_719">
<rect x="38.9766" y="67.845" width="144" height="44" rx="22" transform="rotate(-28.1087 38.9766 67.845)" fill="white"/>
</clipPath>
<clipPath id="clip2_377_719">
<rect x="13.4961" y="53" width="166" height="44" rx="22" transform="rotate(17.8592 13.4961 53)" fill="white"/>
</clipPath>
<clipPath id="clip3_377_719">
<rect x="140.93" y="98.6484" width="144" height="44" rx="22" transform="rotate(-14.7442 140.93 98.6484)" fill="white"/>
</clipPath>
</defs>
</svg>
