<svg preserveAspectRatio="none" width="100%" height="100%" overflow="visible" style="display: block;" viewBox="0 0 576.505 1188.79" fill="none" xmlns="http://www.w3.org/2000/svg">
<g id="Vector">
<path d="M0 48.0758V106.558C0 133.11 21.7743 154.634 48.616 154.634H107.737C134.578 154.634 156.338 133.11 156.338 106.558V48.0761C156.338 21.5244 134.578 0 107.737 0H48.616C21.7743 0 0 21.524 0 48.0758Z" fill="url(#paint0_linear_0_23)" fill-opacity="0.13"/>
<path d="M49.0297 994.615V1016.26C49.0297 1026.14 57.1307 1034.16 67.1237 1034.16H89.0049C98.9979 1034.16 107.099 1026.14 107.099 1016.26V994.615C107.099 984.729 98.9979 976.716 89.0049 976.716H67.1237C57.1307 976.716 49.0297 984.729 49.0297 994.615Z" fill="url(#paint1_linear_0_23)" fill-opacity="0.13"/>
<path d="M49.0297 1149.25V1170.89C49.0297 1180.78 57.1307 1188.79 67.1237 1188.79H89.0046C98.9976 1188.79 107.099 1180.78 107.099 1170.89V1149.25C107.099 1139.36 98.9976 1131.35 89.0046 1131.35H67.1237C57.1307 1131.35 49.0297 1139.36 49.0297 1149.25Z" fill="url(#paint2_linear_0_23)" fill-opacity="0.13"/>
<path d="M17.2511 208.954V254.741C17.2511 275.43 34.2066 292.203 55.1222 292.203H101.409C122.325 292.203 139.28 275.43 139.28 254.741V208.954C139.28 188.264 122.325 171.492 101.409 171.492H55.1222C34.2066 171.492 17.2511 188.264 17.2511 208.954Z" fill="url(#paint3_linear_0_23)" fill-opacity="0.13"/>
<path d="M17.0402 363.797V409.583C17.0402 430.273 33.9957 447.045 54.9113 447.045H101.198C122.114 447.045 139.069 430.273 139.069 409.583V363.797C139.069 343.107 122.114 326.335 101.198 326.335H54.9113C33.9957 326.335 17.0402 343.107 17.0402 363.797Z" fill="url(#paint4_linear_0_23)" fill-opacity="0.13"/>
<path d="M17.0402 518.431V564.218C17.0402 584.908 33.9957 601.68 54.9113 601.68H101.198C122.114 601.68 139.069 584.908 139.069 564.218V518.431C139.069 497.742 122.114 480.969 101.198 480.969H54.9113C33.9957 480.969 17.0402 497.742 17.0402 518.431Z" fill="url(#paint5_linear_0_23)" fill-opacity="0.13"/>
<path d="M30.7449 678.268V713.856C30.7449 729.948 43.9323 742.993 60.2 742.993H96.1776C112.445 742.993 125.633 729.948 125.633 713.856V678.268C125.633 662.176 112.445 649.13 96.1776 649.13H60.2C43.9323 649.13 30.7449 662.176 30.7449 678.268Z" fill="url(#paint6_linear_0_23)" fill-opacity="0.13"/>
<path d="M30.7449 832.902V868.491C30.7449 884.583 43.9326 897.628 60.2003 897.628H96.1776C112.445 897.628 125.633 884.583 125.633 868.491V832.902C125.633 816.811 112.445 803.765 96.1776 803.765H60.2003C43.9326 803.765 30.7449 816.811 30.7449 832.902Z" fill="url(#paint7_linear_0_23)" fill-opacity="0.13"/>
<path d="M205.584 994.614V1016.26C205.584 1026.14 213.685 1034.16 223.678 1034.16H245.559C255.552 1034.16 263.653 1026.14 263.653 1016.26V994.614C263.653 984.729 255.552 976.716 245.559 976.716H223.678C213.685 976.716 205.584 984.729 205.584 994.614Z" fill="url(#paint8_linear_0_23)" fill-opacity="0.13"/>
<path d="M205.373 1149.25V1170.89C205.373 1180.78 213.474 1188.79 223.467 1188.79H245.348C255.341 1188.79 263.442 1180.78 263.442 1170.89V1149.25C263.442 1139.36 255.341 1131.35 245.348 1131.35H223.467C213.474 1131.35 205.373 1139.36 205.373 1149.25Z" fill="url(#paint9_linear_0_23)" fill-opacity="0.13"/>
<path d="M173.589 209.163V254.95C173.589 275.64 190.545 292.412 211.46 292.412H257.747C278.662 292.412 295.618 275.64 295.618 254.95V209.163C295.618 188.474 278.662 171.701 257.747 171.701H211.46C190.545 171.701 173.589 188.474 173.589 209.163Z" fill="url(#paint10_linear_0_23)" fill-opacity="0.13"/>
<path d="M173.589 54.3175V100.104C173.589 120.794 190.544 137.566 211.46 137.566H257.747C278.662 137.566 295.618 120.794 295.618 100.104V54.3175C295.618 33.6278 278.662 16.8555 257.747 16.8555H211.46C190.544 16.8555 173.589 33.6278 173.589 54.3175Z" fill="url(#paint11_linear_0_23)" fill-opacity="0.13"/>
<path d="M187.03 368.999V404.588C187.03 420.68 200.218 433.725 216.486 433.725H252.463C268.731 433.725 281.918 420.68 281.918 404.588V368.999C281.918 352.907 268.731 339.862 252.463 339.862H216.486C200.218 339.862 187.03 352.907 187.03 368.999Z" fill="url(#paint12_linear_0_23)" fill-opacity="0.13"/>
<path d="M187.03 523.634V559.223C187.03 575.315 200.218 588.36 216.486 588.36H252.463C268.731 588.36 281.918 575.315 281.918 559.223V523.634C281.918 507.542 268.731 494.497 252.463 494.497H216.486C200.218 494.497 187.03 507.542 187.03 523.634Z" fill="url(#paint13_linear_0_23)" fill-opacity="0.13"/>
<path d="M187.03 678.268V713.857C187.03 729.948 200.218 742.993 216.485 742.993H252.463C268.731 742.993 281.918 729.948 281.918 713.857V678.268C281.918 662.176 268.731 649.131 252.463 649.131H216.485C200.218 649.131 187.03 662.176 187.03 678.268Z" fill="url(#paint14_linear_0_23)" fill-opacity="0.13"/>
<path d="M205.584 839.979V861.624C205.584 871.509 213.685 879.522 223.678 879.522H245.559C255.552 879.522 263.653 871.509 263.653 861.624V839.979C263.653 830.094 255.552 822.081 245.559 822.081H223.678C213.685 822.081 205.584 830.094 205.584 839.979Z" fill="url(#paint15_linear_0_23)" fill-opacity="0.13"/>
<path d="M576.294 861.625V839.98C576.294 830.095 568.193 822.082 558.2 822.082H536.319C526.326 822.082 518.225 830.095 518.225 839.98V861.625C518.225 871.51 526.326 879.523 536.319 879.523H558.2C568.193 879.523 576.294 871.51 576.294 861.625Z" fill="url(#paint16_linear_0_23)" fill-opacity="0.13"/>
<path d="M576.294 706.781V685.136C576.294 675.251 568.193 667.238 558.2 667.238H536.319C526.326 667.238 518.225 675.251 518.225 685.136V706.781C518.225 716.666 526.326 724.679 536.319 724.679H558.2C568.193 724.679 576.294 716.666 576.294 706.781Z" fill="url(#paint17_linear_0_23)" fill-opacity="0.13"/>
<path d="M576.505 552.146V530.501C576.505 520.616 568.404 512.603 558.411 512.603H536.53C526.537 512.603 518.436 520.616 518.436 530.501V552.146C518.436 562.031 526.537 570.044 536.53 570.044H558.411C568.404 570.044 576.505 562.031 576.505 552.146Z" fill="url(#paint18_linear_0_23)" fill-opacity="0.13"/>
<path d="M576.294 397.513V375.868C576.294 365.983 568.193 357.97 558.2 357.97H536.319C526.326 357.97 518.225 365.983 518.225 375.868V397.513C518.225 407.398 526.326 415.411 536.319 415.411H558.2C568.193 415.411 576.294 407.398 576.294 397.513Z" fill="url(#paint19_linear_0_23)" fill-opacity="0.13"/>
<path d="M438.457 249.747V214.158C438.457 198.066 425.27 185.021 409.002 185.021H373.024C356.757 185.021 343.569 198.066 343.569 214.158V249.747C343.569 265.839 356.757 278.884 373.024 278.884H409.002C425.27 278.884 438.457 265.839 438.457 249.747Z" fill="url(#paint20_linear_0_23)" fill-opacity="0.13"/>
<path d="M419.955 1016.26V994.615C419.955 984.73 411.854 976.716 401.861 976.716H379.98C369.987 976.716 361.886 984.73 361.886 994.615V1016.26C361.886 1026.14 369.987 1034.16 379.98 1034.16H401.861C411.854 1034.16 419.955 1026.14 419.955 1016.26Z" fill="url(#paint21_linear_0_23)" fill-opacity="0.13"/>
<path d="M419.955 861.624V839.98C419.955 830.095 411.854 822.081 401.861 822.081H379.98C369.987 822.081 361.886 830.095 361.886 839.98V861.624C361.886 871.509 369.987 879.523 379.98 879.523H401.861C411.854 879.523 419.955 871.509 419.955 861.624Z" fill="url(#paint22_linear_0_23)" fill-opacity="0.13"/>
<path d="M419.955 706.991V685.346C419.955 675.461 411.854 667.448 401.861 667.448H379.98C369.987 667.448 361.886 675.461 361.886 685.346V706.991C361.886 716.876 369.987 724.889 379.98 724.889H401.861C411.854 724.889 419.955 716.876 419.955 706.991Z" fill="url(#paint23_linear_0_23)" fill-opacity="0.13"/>
<path d="M419.955 552.146V530.501C419.955 520.616 411.854 512.603 401.861 512.603H379.98C369.987 512.603 361.886 520.616 361.886 530.501V552.146C361.886 562.031 369.987 570.044 379.98 570.044H401.861C411.854 570.044 419.955 562.031 419.955 552.146Z" fill="url(#paint24_linear_0_23)" fill-opacity="0.13"/>
<path d="M438.457 404.378V368.79C438.457 352.698 425.269 339.653 409.002 339.653H373.024C356.757 339.653 343.569 352.698 343.569 368.79V404.378C343.569 420.47 356.757 433.516 373.024 433.516H409.002C425.269 433.516 438.457 420.47 438.457 404.378Z" fill="url(#paint25_linear_0_23)" fill-opacity="0.13"/>
</g>
<defs>
<linearGradient id="paint0_linear_0_23" x1="0" y1="594.396" x2="576.505" y2="594.396" gradientUnits="userSpaceOnUse">
<stop stop-color="white"/>
<stop offset="1" stop-color="#84909F"/>
</linearGradient>
<linearGradient id="paint1_linear_0_23" x1="0" y1="594.396" x2="576.505" y2="594.396" gradientUnits="userSpaceOnUse">
<stop stop-color="white"/>
<stop offset="1" stop-color="#84909F"/>
</linearGradient>
<linearGradient id="paint2_linear_0_23" x1="0" y1="594.396" x2="576.505" y2="594.396" gradientUnits="userSpaceOnUse">
<stop stop-color="white"/>
<stop offset="1" stop-color="#84909F"/>
</linearGradient>
<linearGradient id="paint3_linear_0_23" x1="0" y1="594.396" x2="576.505" y2="594.396" gradientUnits="userSpaceOnUse">
<stop stop-color="white"/>
<stop offset="1" stop-color="#84909F"/>
</linearGradient>
<linearGradient id="paint4_linear_0_23" x1="0" y1="594.396" x2="576.505" y2="594.396" gradientUnits="userSpaceOnUse">
<stop stop-color="white"/>
<stop offset="1" stop-color="#84909F"/>
</linearGradient>
<linearGradient id="paint5_linear_0_23" x1="0" y1="594.396" x2="576.505" y2="594.396" gradientUnits="userSpaceOnUse">
<stop stop-color="white"/>
<stop offset="1" stop-color="#84909F"/>
</linearGradient>
<linearGradient id="paint6_linear_0_23" x1="0" y1="594.396" x2="576.505" y2="594.396" gradientUnits="userSpaceOnUse">
<stop stop-color="white"/>
<stop offset="1" stop-color="#84909F"/>
</linearGradient>
<linearGradient id="paint7_linear_0_23" x1="0" y1="594.396" x2="576.505" y2="594.396" gradientUnits="userSpaceOnUse">
<stop stop-color="white"/>
<stop offset="1" stop-color="#84909F"/>
</linearGradient>
<linearGradient id="paint8_linear_0_23" x1="0" y1="594.396" x2="576.505" y2="594.396" gradientUnits="userSpaceOnUse">
<stop stop-color="white"/>
<stop offset="1" stop-color="#84909F"/>
</linearGradient>
<linearGradient id="paint9_linear_0_23" x1="0" y1="594.396" x2="576.505" y2="594.396" gradientUnits="userSpaceOnUse">
<stop stop-color="white"/>
<stop offset="1" stop-color="#84909F"/>
</linearGradient>
<linearGradient id="paint10_linear_0_23" x1="0" y1="594.396" x2="576.505" y2="594.396" gradientUnits="userSpaceOnUse">
<stop stop-color="white"/>
<stop offset="1" stop-color="#84909F"/>
</linearGradient>
<linearGradient id="paint11_linear_0_23" x1="0" y1="594.396" x2="576.505" y2="594.396" gradientUnits="userSpaceOnUse">
<stop stop-color="white"/>
<stop offset="1" stop-color="#84909F"/>
</linearGradient>
<linearGradient id="paint12_linear_0_23" x1="0" y1="594.396" x2="576.505" y2="594.396" gradientUnits="userSpaceOnUse">
<stop stop-color="white"/>
<stop offset="1" stop-color="#84909F"/>
</linearGradient>
<linearGradient id="paint13_linear_0_23" x1="0" y1="594.396" x2="576.505" y2="594.396" gradientUnits="userSpaceOnUse">
<stop stop-color="white"/>
<stop offset="1" stop-color="#84909F"/>
</linearGradient>
<linearGradient id="paint14_linear_0_23" x1="0" y1="594.396" x2="576.505" y2="594.396" gradientUnits="userSpaceOnUse">
<stop stop-color="white"/>
<stop offset="1" stop-color="#84909F"/>
</linearGradient>
<linearGradient id="paint15_linear_0_23" x1="0" y1="594.396" x2="576.505" y2="594.396" gradientUnits="userSpaceOnUse">
<stop stop-color="white"/>
<stop offset="1" stop-color="#84909F"/>
</linearGradient>
<linearGradient id="paint16_linear_0_23" x1="0" y1="594.396" x2="576.505" y2="594.396" gradientUnits="userSpaceOnUse">
<stop stop-color="white"/>
<stop offset="1" stop-color="#84909F"/>
</linearGradient>
<linearGradient id="paint17_linear_0_23" x1="0" y1="594.396" x2="576.505" y2="594.396" gradientUnits="userSpaceOnUse">
<stop stop-color="white"/>
<stop offset="1" stop-color="#84909F"/>
</linearGradient>
<linearGradient id="paint18_linear_0_23" x1="0" y1="594.396" x2="576.505" y2="594.396" gradientUnits="userSpaceOnUse">
<stop stop-color="white"/>
<stop offset="1" stop-color="#84909F"/>
</linearGradient>
<linearGradient id="paint19_linear_0_23" x1="0" y1="594.396" x2="576.505" y2="594.396" gradientUnits="userSpaceOnUse">
<stop stop-color="white"/>
<stop offset="1" stop-color="#84909F"/>
</linearGradient>
<linearGradient id="paint20_linear_0_23" x1="0" y1="594.396" x2="576.505" y2="594.396" gradientUnits="userSpaceOnUse">
<stop stop-color="white"/>
<stop offset="1" stop-color="#84909F"/>
</linearGradient>
<linearGradient id="paint21_linear_0_23" x1="0" y1="594.396" x2="576.505" y2="594.396" gradientUnits="userSpaceOnUse">
<stop stop-color="white"/>
<stop offset="1" stop-color="#84909F"/>
</linearGradient>
<linearGradient id="paint22_linear_0_23" x1="0" y1="594.396" x2="576.505" y2="594.396" gradientUnits="userSpaceOnUse">
<stop stop-color="white"/>
<stop offset="1" stop-color="#84909F"/>
</linearGradient>
<linearGradient id="paint23_linear_0_23" x1="0" y1="594.396" x2="576.505" y2="594.396" gradientUnits="userSpaceOnUse">
<stop stop-color="white"/>
<stop offset="1" stop-color="#84909F"/>
</linearGradient>
<linearGradient id="paint24_linear_0_23" x1="0" y1="594.396" x2="576.505" y2="594.396" gradientUnits="userSpaceOnUse">
<stop stop-color="white"/>
<stop offset="1" stop-color="#84909F"/>
</linearGradient>
<linearGradient id="paint25_linear_0_23" x1="0" y1="594.396" x2="576.505" y2="594.396" gradientUnits="userSpaceOnUse">
<stop stop-color="white"/>
<stop offset="1" stop-color="#84909F"/>
</linearGradient>
</defs>
</svg>
