<svg preserveAspectRatio="none" width="100%" height="100%" overflow="visible" style="display: block;" viewBox="0 0 32 32" fill="none" xmlns="http://www.w3.org/2000/svg">
<g id="Email">
<rect width="32" height="32" rx="16" fill="var(--fill-0, black)" fill-opacity="0.25"/>
<path id="Vector" d="M25.1942 14.7078C24.8587 12.2625 23.5655 10.0507 21.5992 8.55888C19.6329 7.06704 17.1545 6.41742 14.7093 6.75292C12.264 7.08841 10.0522 8.38155 8.56034 10.3478C7.06851 12.3141 6.41888 14.7925 6.75438 17.2378C7.03079 19.2617 7.96085 21.1399 9.40301 22.5865C10.8452 24.0331 12.7205 24.9689 14.7435 25.2515C15.1574 25.3057 15.5745 25.333 15.992 25.3332C17.6787 25.3359 19.3339 24.8756 20.777 24.0024C20.8783 23.9414 20.9666 23.8611 21.0368 23.7659C21.1071 23.6708 21.1579 23.5628 21.1864 23.448C21.2148 23.3333 21.2204 23.214 21.2028 23.0971C21.1852 22.9802 21.1448 22.8678 21.0838 22.7666C21.0228 22.6653 20.9424 22.577 20.8473 22.5068C20.7521 22.4365 20.6441 22.3857 20.5293 22.3572C20.2976 22.2997 20.0524 22.3366 19.8479 22.4598C18.8207 23.0764 17.6608 23.438 16.4651 23.5144C15.2695 23.5908 14.073 23.3798 12.9757 22.8991C11.8783 22.4183 10.9121 21.6817 10.1577 20.751C9.40337 19.8203 8.88287 18.7224 8.63976 17.5493C8.39665 16.3762 8.43799 15.1619 8.76034 14.008C9.08269 12.8542 9.67666 11.7943 10.4926 10.917C11.3085 10.0397 12.3226 9.37062 13.4501 8.9656C14.5776 8.56059 15.7857 8.43147 16.9734 8.58903C18.0765 8.7357 19.1332 9.12592 20.0669 9.73142C21.0005 10.3369 21.7878 11.1425 22.3717 12.0899C22.9556 13.0372 23.3214 14.1026 23.4427 15.2088C23.564 16.315 23.4377 17.4343 23.0729 18.4857C22.9783 18.7385 22.8073 18.9556 22.5837 19.1068C22.3601 19.258 22.0949 19.3359 21.8251 19.3296C21.4694 19.3291 21.1285 19.1876 20.877 18.9362C20.6255 18.6847 20.484 18.3437 20.4835 17.9881V12.4269C20.4835 12.1881 20.3887 11.9591 20.2198 11.7903C20.051 11.6214 19.822 11.5266 19.5832 11.5266C19.3444 11.5266 19.1154 11.6214 18.9465 11.7903C18.7777 11.9591 18.6828 12.1881 18.6828 12.4269V12.4353C18.0003 11.9202 17.1851 11.6101 16.3327 11.5413C15.4804 11.4726 14.6261 11.6481 13.8698 12.0472C13.1135 12.4463 12.4865 13.0526 12.0623 13.795C11.638 14.5375 11.434 15.3855 11.4741 16.2396C11.5142 17.0938 11.7967 17.919 12.2887 18.6184C12.7807 19.3179 13.4617 19.8627 14.252 20.1892C15.0424 20.5157 15.9094 20.6104 16.7516 20.4621C17.5938 20.3138 18.3763 19.9287 19.0076 19.3518C19.2626 19.8831 19.6622 20.3317 20.1605 20.6463C20.6589 20.9608 21.2358 21.1286 21.8251 21.1303C22.4693 21.1365 23.0994 20.942 23.628 20.5737C24.1565 20.2054 24.5573 19.6816 24.7746 19.0751C25.2598 17.6734 25.4037 16.1762 25.1942 14.7078ZM15.9818 18.7294C15.4476 18.7294 14.9253 18.571 14.4812 18.2742C14.037 17.9774 13.6908 17.5555 13.4863 17.062C13.2819 16.5684 13.2284 16.0253 13.3326 15.5014C13.4368 14.9774 13.6941 14.4961 14.0718 14.1184C14.4496 13.7406 14.9309 13.4834 15.4548 13.3792C15.9788 13.275 16.5219 13.3284 17.0154 13.5329C17.509 13.7373 17.9308 14.0835 18.2276 14.5277C18.5244 14.9719 18.6828 15.4941 18.6828 16.0283C18.682 16.7445 18.3972 17.431 17.8908 17.9374C17.3845 18.4438 16.6979 18.7286 15.9818 18.7294Z" fill="var(--fill-0, white)"/>
</g>
</svg>
