<svg preserveAspectRatio="none" width="100%" height="100%" overflow="visible" style="display: block;" viewBox="0 0 32 32" fill="none" xmlns="http://www.w3.org/2000/svg">
<g id="Dialog 4">
<rect width="32" height="32" rx="16" fill="var(--fill-0, black)" fill-opacity="0.25"/>
<g id="Vector">
<path d="M15.8336 18.5242C17.5787 18.5242 19.0897 17.9071 20.3244 16.6896C21.559 15.4722 22.1849 13.9827 22.1849 12.2619C22.1849 10.5417 21.559 9.05201 20.3242 7.83426C19.0893 6.61711 17.5785 6 15.8336 6C14.0884 6 12.5777 6.61711 11.3431 7.83446C10.1084 9.05181 9.48232 10.5415 9.48232 12.2619C9.48232 13.9827 10.1084 15.4724 11.3433 16.6898C12.5781 17.9069 14.089 18.5242 15.8336 18.5242Z" fill="var(--fill-0, white)"/>
<path d="M26.9467 25.9926C26.9111 25.486 26.8391 24.9333 26.733 24.3497C26.626 23.7618 26.4882 23.206 26.3232 22.698C26.1528 22.1729 25.9211 21.6544 25.6346 21.1575C25.3372 20.6417 24.988 20.1927 24.5961 19.8231C24.1863 19.4365 23.6845 19.1257 23.1043 18.8989C22.5261 18.6734 21.8854 18.5591 21.1999 18.5591C20.9308 18.5591 20.6704 18.668 20.1677 18.9908C19.8583 19.1897 19.4963 19.4198 19.0924 19.6743C18.7469 19.8913 18.279 20.0947 17.701 20.2787C17.1371 20.4587 16.5645 20.5499 15.9994 20.5499C15.4343 20.5499 14.8619 20.4587 14.2974 20.2787C13.72 20.0949 13.2521 19.8915 12.907 19.6745C12.5069 19.4224 12.1448 19.1923 11.8307 18.9906C11.3286 18.6678 11.068 18.5589 10.7989 18.5589C10.1132 18.5589 9.47267 18.6734 8.89467 18.8991C8.31487 19.1255 7.81292 19.4363 7.40271 19.8233C7.01101 20.1931 6.66156 20.6419 6.36461 21.1575C6.07833 21.6544 5.84657 22.1727 5.67597 22.6982C5.5112 23.2062 5.37339 23.7618 5.26636 24.3497C5.16034 24.9325 5.08832 25.4854 5.05271 25.9932C5.0177 26.4907 5 27.007 5 27.5285C5 28.8857 5.43757 29.9844 6.30044 30.7947C7.15264 31.5943 8.28026 32 9.65152 32H22.3485C23.7197 32 24.847 31.5945 25.6994 30.7947C26.5624 29.985 27 28.8861 27 27.5283C26.9998 27.0044 26.9819 26.4877 26.9467 25.9926Z" fill="var(--fill-0, white)"/>
</g>
</g>
</svg>
