<svg width="205" height="45" viewBox="0 0 205 45" fill="none" xmlns="http://www.w3.org/2000/svg">
<path d="M0 13.2463V15.4129C0 16.3966 0.806276 17.194 1.80087 17.194H3.99155C4.98615 17.194 5.79242 16.3966 5.79242 15.4129V13.2463C5.79242 12.2627 4.98615 11.4652 3.99155 11.4652H1.80087C0.806276 11.4652 0 12.2627 0 13.2463Z" fill="#FF7F30"/>
<path d="M0 18.975V21.1416C0 22.1252 0.806276 22.9226 1.80087 22.9226H3.99154C4.98614 22.9226 5.79241 22.1252 5.79241 21.1416V18.975C5.79241 17.9913 4.98615 17.194 3.99155 17.194H1.80087C0.806276 17.194 0 17.9913 0 18.975Z" fill="#FF7F30"/>
<path d="M0 24.7037V26.8703C0 27.854 0.806276 28.6514 1.80087 28.6514H3.99154C4.98614 28.6514 5.79242 27.854 5.79242 26.8703V24.7037C5.79242 23.7201 4.98614 22.9226 3.99154 22.9226H1.80087C0.806276 22.9226 0 23.7201 0 24.7037Z" fill="#FF7F30"/>
<path d="M0 30.4325V32.5991C0 33.5828 0.806276 34.3802 1.80087 34.3802H3.99154C4.98614 34.3802 5.79241 33.5828 5.79241 32.5991V30.4325C5.79241 29.4488 4.98614 28.6514 3.99154 28.6514H1.80087C0.806276 28.6514 0 29.4488 0 30.4325Z" fill="#FF7F30"/>
<path d="M5.79297 7.51753V9.68413C5.79297 10.6678 6.59925 11.4652 7.59385 11.4652H9.78452C10.7791 11.4652 11.5854 10.6678 11.5854 9.68413V7.51753C11.5854 6.53387 10.7791 5.73646 9.78452 5.73646H7.59385C6.59925 5.73646 5.79297 6.53387 5.79297 7.51753Z" fill="#FF7F30"/>
<path d="M5.80078 13.2463V15.4129C5.80078 16.3965 6.60706 17.194 7.60165 17.194H9.79233C10.7869 17.194 11.5932 16.3965 11.5932 15.4129V13.2463C11.5932 12.2626 10.7869 11.4652 9.79233 11.4652H7.60165C6.60706 11.4652 5.80078 12.2626 5.80078 13.2463Z" fill="#FF7F30"/>
<path d="M5.79241 18.975V21.1416C5.79241 22.1252 6.59925 22.9227 7.59384 22.9227H9.78451C10.7791 22.9227 11.5854 22.1252 11.5854 21.1416V18.975C11.5854 17.9913 10.7791 17.1939 9.78451 17.1939H7.59384C6.59925 17.1939 5.79241 17.9913 5.79241 18.975Z" fill="#FF7F30"/>
<path d="M5.79242 24.7037V26.8703C5.79242 27.854 6.59925 28.6514 7.59384 28.6514H9.78451C10.7791 28.6514 11.5854 27.854 11.5854 26.8703V24.7037C11.5854 23.7201 10.7791 22.9227 9.78451 22.9227H7.59384C6.59925 22.9227 5.79242 23.7201 5.79242 24.7037Z" fill="#FF7F30"/>
<path d="M11.584 7.51753V9.68413C11.584 10.6678 12.3903 11.4652 13.3849 11.4652H15.5755C16.5701 11.4652 17.3764 10.6678 17.3764 9.68413V7.51753C17.3764 6.53387 16.5701 5.73646 15.5755 5.73646H13.3849C12.3903 5.73646 11.584 6.53387 11.584 7.51753Z" fill="#FF7F30"/>
<path d="M11.584 1.78877V3.95537C11.584 4.93903 12.3903 5.73646 13.3849 5.73646H15.5755C16.5701 5.73646 17.3764 4.93903 17.3764 3.95537V1.78877C17.3764 0.80511 16.5701 0.00769663 15.5755 0.00769663H13.3849C12.3903 0.00769663 11.584 0.80511 11.584 1.78877Z" fill="#FF7F30"/>
<path d="M11.5918 13.2463V15.4129C11.5918 16.3965 12.3981 17.194 13.3927 17.194H15.5834C16.5779 17.194 17.3842 16.3965 17.3842 15.4129V13.2463C17.3842 12.2626 16.5779 11.4652 15.5834 11.4652H13.3927C12.3981 11.4652 11.5918 12.2626 11.5918 13.2463Z" fill="#FF7F30"/>
<path d="M17.377 7.50977V9.67636C17.377 10.66 18.1832 11.4574 19.1778 11.4574H21.3685C22.3631 11.4574 23.1694 10.66 23.1694 9.67636V7.50977C23.1694 6.52611 22.3631 5.7287 21.3685 5.7287H19.1778C18.1832 5.7287 17.377 6.52611 17.377 7.50977Z" fill="#FF7F30"/>
<path d="M17.3848 1.78107V3.94766C17.3848 4.93133 18.191 5.72875 19.1856 5.72875H21.3763C22.3709 5.72875 23.1772 4.93133 23.1772 3.94766V1.78107C23.1772 0.797413 22.3709 0 21.3763 0H19.1856C18.191 0 17.3848 0.797413 17.3848 1.78107Z" fill="#FF7F30"/>
<path d="M17.3848 13.2385V15.4051C17.3848 16.3888 18.191 17.1862 19.1856 17.1862H21.3763C22.3709 17.1862 23.1772 16.3888 23.1772 15.4051V13.2385C23.1772 12.2549 22.3709 11.4575 21.3763 11.4575H19.1856C18.191 11.4575 17.3848 12.2549 17.3848 13.2385Z" fill="#FF7F30"/>
<path d="M23.1772 1.78107V3.94766C23.1772 4.93132 23.984 5.72875 24.9786 5.72875H27.1693C28.1639 5.72875 28.9702 4.93134 28.9702 3.94768V1.78109C28.9702 0.797425 28.1639 1.19209e-05 27.1693 1.19209e-05H24.9786C23.984 1.19209e-05 23.1772 0.797413 23.1772 1.78107Z" fill="#FF7F30"/>
<path d="M6.43169 36.4003V38.0966C6.43169 38.863 7.05995 39.4844 7.83496 39.4844H9.55009C10.3251 39.4844 10.9534 38.863 10.9534 38.0966V36.4003C10.9534 35.6338 10.3251 35.0124 9.55009 35.0124H7.83496C7.05995 35.0124 6.43169 35.6338 6.43169 36.4003Z" fill="#FF7F30"/>
<path d="M6.43169 30.6715V32.3678C6.43169 33.1343 7.05996 33.7556 7.83497 33.7556H9.55009C10.3251 33.7556 10.9534 33.1343 10.9534 32.3678V30.6715C10.9534 29.905 10.3251 29.2837 9.55009 29.2837H7.83497C7.05996 29.2837 6.43169 29.905 6.43169 30.6715Z" fill="#FF7F30"/>
<path d="M12.7227 36.5931V37.9115C12.7227 38.5077 13.2113 38.991 13.8141 38.991H15.1472C15.75 38.991 16.2386 38.5077 16.2386 37.9115V36.5931C16.2386 35.9969 15.75 35.5136 15.1472 35.5136H13.8141C13.2113 35.5136 12.7227 35.9969 12.7227 36.5931Z" fill="#FF7F30"/>
<path d="M13.4082 42.5762V43.3781C13.4082 43.7443 13.7084 44.0412 14.0787 44.0412H14.8894C15.2597 44.0412 15.5599 43.7443 15.5599 43.3781V42.5762C15.5599 42.21 15.2597 41.9132 14.8894 41.9132H14.0787C13.7084 41.9132 13.4082 42.21 13.4082 42.5762Z" fill="#FF7F30"/>
<path d="M11.5918 18.975V21.1416C11.5918 22.1252 12.3981 22.9227 13.3927 22.9227H15.5833C16.5779 22.9227 17.3842 22.1252 17.3842 21.1416V18.975C17.3842 17.9913 16.5779 17.194 15.5834 17.194H13.3927C12.3981 17.194 11.5918 17.9913 11.5918 18.975Z" fill="#FF7F30"/>
<path d="M12.2246 24.9427V26.639C12.2246 27.4055 12.8529 28.0268 13.6279 28.0268H15.343C16.118 28.0268 16.7463 27.4055 16.7463 26.639V24.9427C16.7463 24.1762 16.118 23.5549 15.343 23.5549H13.6279C12.8529 23.5549 12.2246 24.1762 12.2246 24.9427Z" fill="#FF7F30"/>
<path d="M12.2246 30.6715V32.3678C12.2246 33.1342 12.8529 33.7556 13.6279 33.7556H15.343C16.118 33.7556 16.7463 33.1342 16.7463 32.3678V30.6715C16.7463 29.905 16.118 29.2836 15.343 29.2836H13.6279C12.8529 29.2836 12.2246 29.905 12.2246 30.6715Z" fill="#FF7F30"/>
<path d="M18.5155 36.5853V37.9037C18.5155 38.4999 19.0041 38.9832 19.6069 38.9832H20.94C21.5428 38.9832 22.0315 38.4999 22.0315 37.9037V36.5853C22.0315 35.9891 21.5428 35.5058 20.94 35.5058H19.6069C19.0041 35.5058 18.5155 35.9891 18.5155 36.5853Z" fill="#FF7F30"/>
<path d="M19.2012 42.5839V43.3858C19.2012 43.752 19.5013 44.0489 19.8716 44.0489H20.6824C21.0527 44.0489 21.3529 43.752 21.3529 43.3858V42.5839C21.3529 42.2177 21.0527 41.9208 20.6824 41.9208H19.8716C19.5013 41.9208 19.2012 42.2177 19.2012 42.5839Z" fill="#FF7F30"/>
<path d="M18.0156 19.214V20.9103C18.0156 21.6768 18.6439 22.2981 19.4189 22.2981H21.134C21.909 22.2981 22.5373 21.6768 22.5373 20.9103V19.214C22.5373 18.4475 21.909 17.8262 21.134 17.8262H19.4189C18.6439 17.8262 18.0156 18.4475 18.0156 19.214Z" fill="#FF7F30"/>
<path d="M18.0234 24.9427V26.639C18.0234 27.4055 18.6517 28.0268 19.4267 28.0268H21.1418C21.9168 28.0268 22.5451 27.4055 22.5451 26.639V24.9427C22.5451 24.1762 21.9168 23.5549 21.1418 23.5549H19.4267C18.6517 23.5549 18.0234 24.1762 18.0234 24.9427Z" fill="#FF7F30"/>
<path d="M18.5155 30.8566V32.175C18.5155 32.7712 19.0041 33.2545 19.6069 33.2545H20.94C21.5428 33.2545 22.0315 32.7712 22.0315 32.175V30.8566C22.0315 30.2604 21.5428 29.7771 20.94 29.7771H19.6069C19.0041 29.7771 18.5155 30.2604 18.5155 30.8566Z" fill="#FF7F30"/>
<path d="M24.9939 36.8475V37.6494C24.9939 38.0156 25.2941 38.3125 25.6644 38.3125H26.4752C26.8455 38.3125 27.1456 38.0156 27.1456 37.6494V36.8475C27.1456 36.4813 26.8455 36.1844 26.4752 36.1844H25.6644C25.2941 36.1844 24.9939 36.4813 24.9939 36.8475Z" fill="#FF7F30"/>
<path d="M24.9939 42.5762V43.3781C24.9939 43.7443 25.2941 44.0412 25.6644 44.0412H26.4752C26.8455 44.0412 27.1456 43.7443 27.1456 43.3781V42.5762C27.1456 42.21 26.8455 41.9131 26.4752 41.9131H25.6644C25.2941 41.9131 24.9939 42.21 24.9939 42.5762Z" fill="#FF7F30"/>
<path d="M23.8164 7.74113V9.43739C23.8164 10.2039 24.4447 10.8252 25.2197 10.8252H26.9348C27.7098 10.8252 28.3381 10.2039 28.3381 9.43739V7.74113C28.3381 6.97464 27.7098 6.35328 26.9348 6.35328H25.2197C24.4447 6.35328 23.8164 6.97464 23.8164 7.74113Z" fill="#FF7F30"/>
<path d="M23.8086 13.4776V15.1738C23.8086 15.9403 24.4369 16.5617 25.2119 16.5617H26.927C27.702 16.5617 28.3303 15.9403 28.3303 15.1738V13.4776C28.3303 12.7111 27.702 12.0897 26.927 12.0897H25.2119C24.4369 12.0897 23.8086 12.7111 23.8086 13.4776Z" fill="#FF7F30"/>
<path d="M23.8086 19.2063V20.9026C23.8086 21.6691 24.4369 22.2905 25.2119 22.2905H26.927C27.702 22.2905 28.3303 21.6691 28.3303 20.9026V19.2063C28.3303 18.4399 27.702 17.8185 26.927 17.8185H25.2119C24.4369 17.8185 23.8086 18.4399 23.8086 19.2063Z" fill="#FF7F30"/>
<path d="M24.3164 25.1278V26.4462C24.3164 27.0424 24.8051 27.5257 25.4078 27.5257H26.741C27.3437 27.5257 27.8324 27.0424 27.8324 26.4462V25.1278C27.8324 24.5316 27.3437 24.0483 26.741 24.0483H25.4078C24.8051 24.0483 24.3164 24.5316 24.3164 25.1278Z" fill="#FF7F30"/>
<path d="M24.3164 30.8565V32.175C24.3164 32.7712 24.8051 33.2544 25.4079 33.2544H26.741C27.3437 33.2544 27.8324 32.7712 27.8324 32.175V30.8565C27.8324 30.2604 27.3437 29.7771 26.741 29.7771H25.4079C24.8051 29.7771 24.3164 30.2604 24.3164 30.8565Z" fill="#FF7F30"/>
<path d="M30.7949 36.8475V37.6493C30.7949 38.0156 31.0951 38.3124 31.4654 38.3124H32.2762C32.6464 38.3124 32.9466 38.0156 32.9466 37.6493V36.8475C32.9466 36.4813 32.6464 36.1844 32.2762 36.1844H31.4654C31.0951 36.1844 30.7949 36.4813 30.7949 36.8475Z" fill="#FF7F30"/>
<path d="M30.7871 42.5762V43.3781C30.7871 43.7443 31.0873 44.0412 31.4576 44.0412H32.2683C32.6386 44.0412 32.9388 43.7443 32.9388 43.3781V42.5762C32.9388 42.21 32.6386 41.9132 32.2683 41.9132H31.4576C31.0873 41.9132 30.7871 42.21 30.7871 42.5762Z" fill="#FF7F30"/>
<path d="M29.6094 7.74888V9.44514C29.6094 10.2116 30.2376 10.833 31.0127 10.833H32.7278C33.5028 10.833 34.1311 10.2116 34.1311 9.44514V7.74888C34.1311 6.98239 33.5028 6.36103 32.7278 6.36103H31.0127C30.2376 6.36103 29.6094 6.98239 29.6094 7.74888Z" fill="#FF7F30"/>
<path d="M29.6094 2.01231V3.70857C29.6094 4.47506 30.2376 5.09643 31.0126 5.09643H32.7278C33.5028 5.09643 34.131 4.47506 34.131 3.70857V2.01231C34.131 1.24582 33.5028 0.624456 32.7278 0.624456H31.0126C30.2376 0.624456 29.6094 1.24582 29.6094 2.01231Z" fill="#FF7F30"/>
<path d="M30.1074 13.6703V14.9888C30.1074 15.585 30.5961 16.0682 31.1989 16.0682H32.532C33.1348 16.0682 33.6234 15.585 33.6234 14.9888V13.6703C33.6234 13.0742 33.1348 12.5909 32.532 12.5909H31.1989C30.5961 12.5909 30.1074 13.0742 30.1074 13.6703Z" fill="#FF7F30"/>
<path d="M30.1074 19.3991V20.7176C30.1074 21.3137 30.5961 21.797 31.1989 21.797H32.532C33.1348 21.797 33.6234 21.3137 33.6234 20.7176V19.3991C33.6234 18.8029 33.1348 18.3197 32.532 18.3197H31.1989C30.5961 18.3197 30.1074 18.8029 30.1074 19.3991Z" fill="#FF7F30"/>
<path d="M30.1074 25.1278V26.4463C30.1074 27.0424 30.5961 27.5257 31.1989 27.5257H32.532C33.1348 27.5257 33.6234 27.0424 33.6234 26.4463V25.1278C33.6234 24.5316 33.1348 24.0484 32.532 24.0484H31.1989C30.5961 24.0484 30.1074 24.5316 30.1074 25.1278Z" fill="#FF7F30"/>
<path d="M30.7949 31.1187V31.9206C30.7949 32.2868 31.0951 32.5837 31.4654 32.5837H32.2762C32.6464 32.5837 32.9466 32.2868 32.9466 31.9206V31.1187C32.9466 30.7525 32.6464 30.4556 32.2762 30.4556H31.4654C31.0951 30.4556 30.7949 30.7525 30.7949 31.1187Z" fill="#FF7F30"/>
<path d="M44.5312 31.9206V31.1188C44.5312 30.7526 44.2311 30.4557 43.8608 30.4557H43.05C42.6797 30.4557 42.3796 30.7526 42.3796 31.1188V31.9206C42.3796 32.2868 42.6797 32.5837 43.05 32.5837H43.8608C44.2311 32.5837 44.5312 32.2868 44.5312 31.9206Z" fill="#FF7F30"/>
<path d="M44.5312 26.1841V25.3823C44.5312 25.016 44.2311 24.7192 43.8608 24.7192H43.05C42.6797 24.7192 42.3796 25.016 42.3796 25.3823V26.1841C42.3796 26.5503 42.6797 26.8472 43.05 26.8472H43.8608C44.2311 26.8472 44.5312 26.5503 44.5312 26.1841Z" fill="#FF7F30"/>
<path d="M44.5391 20.4554V19.6535C44.5391 19.2873 44.2389 18.9904 43.8686 18.9904H43.0578C42.6875 18.9904 42.3874 19.2873 42.3874 19.6535V20.4554C42.3874 20.8216 42.6875 21.1184 43.0578 21.1184H43.8686C44.2389 21.1184 44.5391 20.8216 44.5391 20.4554Z" fill="#FF7F30"/>
<path d="M44.5312 14.7267V13.9248C44.5312 13.5586 44.2311 13.2617 43.8608 13.2617H43.05C42.6797 13.2617 42.3796 13.5586 42.3796 13.9248V14.7267C42.3796 15.0929 42.6797 15.3897 43.05 15.3897H43.8608C44.2311 15.3897 44.5312 15.0929 44.5312 14.7267Z" fill="#FF7F30"/>
<path d="M39.4238 9.25238V7.93393C39.4238 7.33777 38.9352 6.85448 38.3324 6.85448H36.9993C36.3965 6.85448 35.9078 7.33777 35.9078 7.93393V9.25238C35.9078 9.84854 36.3965 10.3318 36.9993 10.3318H38.3324C38.9352 10.3318 39.4238 9.84854 39.4238 9.25238Z" fill="#FF7F30"/>
<path d="M38.7382 37.6494V36.8475C38.7382 36.4813 38.4381 36.1844 38.0678 36.1844H37.257C36.8867 36.1844 36.5865 36.4813 36.5865 36.8475V37.6494C36.5865 38.0156 36.8867 38.3125 37.257 38.3125H38.0678C38.4381 38.3125 38.7382 38.0156 38.7382 37.6494Z" fill="#FF7F30"/>
<path d="M38.7382 31.9206V31.1187C38.7382 30.7525 38.4381 30.4556 38.0678 30.4556H37.257C36.8867 30.4556 36.5866 30.7525 36.5866 31.1187V31.9206C36.5866 32.2868 36.8867 32.5837 37.257 32.5837H38.0678C38.4381 32.5837 38.7382 32.2868 38.7382 31.9206Z" fill="#FF7F30"/>
<path d="M38.7382 26.1919V25.39C38.7382 25.0238 38.4381 24.7269 38.0678 24.7269H37.257C36.8867 24.7269 36.5865 25.0238 36.5865 25.39V26.1919C36.5865 26.5581 36.8867 26.855 37.257 26.855H38.0678C38.4381 26.855 38.7382 26.5581 38.7382 26.1919Z" fill="#FF7F30"/>
<path d="M38.7382 20.4554V19.6535C38.7382 19.2873 38.4381 18.9904 38.0678 18.9904H37.257C36.8867 18.9904 36.5866 19.2873 36.5866 19.6535V20.4554C36.5866 20.8216 36.8867 21.1184 37.257 21.1184H38.0678C38.4381 21.1184 38.7382 20.8216 38.7382 20.4554Z" fill="#FF7F30"/>
<path d="M39.4238 14.981V13.6626C39.4238 13.0664 38.9352 12.5831 38.3324 12.5831H36.9993C36.3965 12.5831 35.9078 13.0664 35.9078 13.6626V14.981C35.9078 15.5772 36.3965 16.0605 36.9993 16.0605H38.3324C38.9352 16.0605 39.4238 15.5772 39.4238 14.981Z" fill="#FF7F30"/>
<path d="M59.5996 34.2416V25.822H73.5232V13.1H67.8712V16.7855C67.8846 18.2519 67.7986 19.7176 67.6139 21.1727C67.4832 22.2686 67.2215 23.3452 66.8343 24.3801C66.4894 25.2521 66.0022 26.0621 65.392 26.778H61.0886C61.6593 26.0443 62.1116 25.2276 62.4295 24.357C62.7866 23.3303 63.0272 22.2674 63.1468 21.1881C63.3098 19.7262 63.3853 18.2562 63.3729 16.7855V9.11377H78.1852V25.822H80.9216V34.2416H76.5559V29.9315H63.9264V34.2416H59.5996Z" fill="black"/>
<path d="M90.919 35.8759C89.267 35.966 87.6288 35.534 86.2414 34.6423C85.6427 34.1959 85.14 33.6359 84.7625 32.9952C84.385 32.3545 84.1404 31.6458 84.043 30.9105H88.4945C88.5687 31.1191 88.6902 31.3081 88.8496 31.4632C89.0091 31.6182 89.2022 31.7351 89.4144 31.8049C89.9752 32.011 90.5704 32.1104 91.1685 32.0979C91.875 32.1417 92.5711 31.9122 93.1097 31.4579C93.6366 30.9302 93.9782 30.2491 94.0842 29.5149L94.4506 27.8187H94.2947C93.8025 28.3278 93.2181 28.741 92.5718 29.0369C91.8436 29.3887 91.0435 29.5707 90.233 29.5689C89.1476 29.6011 88.0826 29.2726 87.2081 28.636C86.3778 28.011 85.7692 27.1418 85.4696 26.1533C85.1312 25.0527 85.0829 23.8849 85.3293 22.7607L87.0132 14.1406H91.3478L89.7886 22.2287C89.6306 22.8366 89.6146 23.472 89.7418 24.0869C89.8577 24.5875 90.1508 25.0305 90.5682 25.336C91.0246 25.651 91.571 25.8131 92.1274 25.7986C92.6699 25.8116 93.2068 25.6869 93.6866 25.4362C94.1481 25.1876 94.5352 24.8233 94.8092 24.3799C95.1343 23.8601 95.3491 23.2804 95.4407 22.6759L97.1246 14.1406H101.381L98.3096 29.5612C98.0729 31.3313 97.2505 32.9742 95.9708 34.2336C94.5615 35.4003 92.7534 35.9881 90.919 35.8759Z" fill="black"/>
<path d="M101.803 29.9313L104.921 14.1406H110.542L112.257 23.7708H112.405L117.972 14.1406H123.834L120.716 29.9313H116.592L118.533 20.0544H118.385L112.702 29.9313H109.801L108.055 20.0544H107.907L105.95 29.9313H101.803Z" fill="black"/>
<path d="M132.052 30.2014C130.784 30.2277 129.535 29.9047 128.442 29.2684C127.364 28.6069 126.516 27.6359 126.01 26.485C124.846 23.6175 124.846 20.4162 126.01 17.5488C126.514 16.395 127.363 15.4212 128.442 14.7576C129.534 14.119 130.784 13.7934 132.052 13.817C132.953 13.7893 133.846 13.9883 134.648 14.3953C135.36 14.7814 135.996 15.2906 136.527 15.8988H136.683L137.135 14.1177H140.83V29.9084H137.135L136.683 28.1504H136.527C136 28.7582 135.363 29.2629 134.648 29.6385C133.843 30.0367 132.951 30.2301 132.052 30.2014ZM132.98 26.4002C133.61 26.4077 134.231 26.2423 134.773 25.9221C135.335 25.5718 135.78 25.0648 136.051 24.4649C136.394 23.6878 136.556 22.8448 136.527 21.9976C136.555 21.158 136.392 20.3228 136.051 19.5534C135.777 18.9572 135.333 18.4533 134.773 18.1039C134.233 17.7803 133.611 17.6146 132.98 17.6259C132.346 17.6157 131.722 17.7813 131.179 18.1039C130.613 18.4467 130.167 18.9525 129.9 19.5534C129.565 20.3245 129.406 21.1589 129.432 21.9976C129.345 23.1802 129.697 24.3537 130.423 25.2976C130.738 25.6601 131.132 25.9489 131.574 26.1436C132.016 26.3382 132.496 26.4337 132.98 26.4233V26.4002Z" fill="black"/>
<path d="M147.894 29.9313V18.096H142.936V14.1406H157.124V18.096H152.166V29.9313H147.894Z" fill="black"/>
<path d="M165.427 30.2011C163.968 30.24 162.524 29.9081 161.232 29.2373C160.063 28.5971 159.117 27.6213 158.519 26.4385C157.856 25.0522 157.533 23.5306 157.576 21.9974C157.537 20.4819 157.86 18.9787 158.519 17.6102C159.122 16.4221 160.073 15.4413 161.248 14.796C162.533 14.1202 163.972 13.7829 165.427 13.8168C166.848 13.7865 168.253 14.1297 169.496 14.8114C170.659 15.4665 171.597 16.4524 172.186 17.6411C172.815 18.9094 173.13 20.3074 173.106 21.7198C173.106 22.0185 173.09 22.3171 173.059 22.6142C173.059 22.9072 172.997 23.1539 172.958 23.3852H160.632V20.3859H168.935C168.826 19.8898 168.634 19.4154 168.366 18.9827C168.076 18.5229 167.67 18.1456 167.189 17.8878C166.645 17.5999 166.035 17.4565 165.419 17.4715C164.757 17.4561 164.104 17.6301 163.54 17.9726C162.992 18.3238 162.559 18.8246 162.293 19.4144C161.975 20.1115 161.82 20.8706 161.841 21.635C161.82 22.5448 161.941 23.4524 162.199 24.3259C162.393 24.9955 162.794 25.5885 163.345 26.0222C163.943 26.432 164.661 26.6352 165.388 26.6004C166.004 26.6379 166.619 26.4987 167.157 26.1995C167.604 25.8829 167.974 25.4721 168.241 24.9967H172.841C172.565 25.9335 172.122 26.8136 171.531 27.5951C170.901 28.4153 170.076 29.0694 169.13 29.4995C167.964 30.0057 166.699 30.2455 165.427 30.2011Z" fill="black"/>
<path d="M174.025 30.2013V25.953H174.478C174.742 25.9733 175.008 25.9339 175.255 25.8377C175.503 25.7415 175.724 25.5911 175.904 25.3978C176.273 24.8885 176.492 24.2879 176.536 23.663C176.663 22.5161 176.718 21.3625 176.699 20.2088V14.1177H189.477V29.9083H185.15V18.0962H181.057V20.8873C181.089 22.5659 180.924 24.2424 180.566 25.8836C180.311 27.0976 179.691 28.2073 178.789 29.0679C177.765 29.898 176.461 30.3115 175.14 30.2245L174.025 30.2013Z" fill="black"/>
<path d="M191.16 29.9313V14.1406H195.495V26.1533H198.138C198.638 26.1791 199.13 26.0258 199.525 25.7215C199.7 25.5613 199.836 25.3647 199.923 25.1459C200.011 24.9271 200.048 24.6918 200.032 24.457C200.044 24.2249 200.005 23.993 199.918 23.7773C199.83 23.5617 199.696 23.3674 199.525 23.2079C199.134 22.8956 198.64 22.7364 198.138 22.7607H194.349V19.0444H198.707C199.725 19.0239 200.732 19.2544 201.638 19.7152C202.479 20.1459 203.171 20.8142 203.626 21.635C204.091 22.5044 204.335 23.4732 204.335 24.457C204.335 25.4408 204.091 26.4096 203.626 27.279C203.167 28.1051 202.477 28.7826 201.638 29.2297C200.739 29.711 199.729 29.9528 198.707 29.9313H191.16Z" fill="black"/>
</svg>
