<svg preserveAspectRatio="none" width="100%" height="100%" overflow="visible" style="display: block;" viewBox="0 0 3313 1081" fill="none" xmlns="http://www.w3.org/2000/svg">
<g id="Unions">
<g id="Vector">
<path d="M3313 325.077V378.247C3313 402.387 3293.21 421.956 3268.8 421.956H3215.04C3190.64 421.956 3170.85 402.387 3170.85 378.247V325.077C3170.85 300.937 3190.64 281.367 3215.04 281.367H3268.8C3293.21 281.367 3313 300.937 3313 325.077Z" fill="url(#paint0_linear_440_4)" fill-opacity="0.1"/>
<path d="M3313 465.663V518.833C3313 542.973 3293.21 562.542 3268.8 562.542H3215.04C3190.64 562.542 3170.85 542.973 3170.85 518.833V465.663C3170.85 441.523 3190.64 421.956 3215.04 421.956H3268.8C3293.21 421.956 3313 441.523 3313 465.663Z" fill="url(#paint1_linear_440_4)" fill-opacity="0.1"/>
<path d="M3313 606.252V659.422C3313 683.562 3293.21 703.132 3268.8 703.132H3215.04C3190.64 703.132 3170.85 683.562 3170.85 659.422V606.252C3170.85 582.112 3190.64 562.542 3215.04 562.542H3268.8C3293.21 562.542 3313 582.112 3313 606.252Z" fill="url(#paint2_linear_440_4)" fill-opacity="0.1"/>
<path d="M3313 746.842V800.012C3313 824.152 3293.21 843.721 3268.8 843.721H3215.04C3190.64 843.721 3170.85 824.152 3170.85 800.012V746.842C3170.85 722.702 3190.64 703.132 3215.04 703.132H3268.8C3293.21 703.132 3313 722.702 3313 746.842Z" fill="url(#paint3_linear_440_4)" fill-opacity="0.1"/>
<path d="M3170.84 184.487V237.657C3170.84 261.797 3151.05 281.367 3126.64 281.367H3072.88C3048.47 281.367 3028.68 261.797 3028.68 237.657V184.487C3028.68 160.347 3048.47 140.778 3072.88 140.778H3126.64C3151.05 140.778 3170.84 160.347 3170.84 184.487Z" fill="url(#paint4_linear_440_4)" fill-opacity="0.1"/>
<path d="M3170.64 325.076V378.246C3170.64 402.386 3150.86 421.956 3126.45 421.956H3072.69C3048.28 421.956 3028.49 402.386 3028.49 378.246V325.076C3028.49 300.936 3048.28 281.367 3072.69 281.367H3126.45C3150.86 281.367 3170.64 300.936 3170.64 325.076Z" fill="url(#paint5_linear_440_4)" fill-opacity="0.1"/>
<path d="M3170.85 465.663V518.833C3170.85 542.973 3151.05 562.543 3126.64 562.543H3072.88C3048.47 562.543 3028.68 542.974 3028.68 518.834V465.664C3028.68 441.524 3048.47 421.954 3072.88 421.954H3126.64C3151.05 421.954 3170.85 441.523 3170.85 465.663Z" fill="url(#paint6_linear_440_4)" fill-opacity="0.1"/>
<path d="M3170.85 606.252V659.422C3170.85 683.562 3151.05 703.132 3126.64 703.132H3072.88C3048.47 703.132 3028.68 683.563 3028.68 659.423V606.253C3028.68 582.113 3048.47 562.543 3072.88 562.543H3126.64C3151.05 562.543 3170.85 582.112 3170.85 606.252Z" fill="url(#paint7_linear_440_4)" fill-opacity="0.1"/>
<path d="M3028.72 184.487V237.657C3028.72 261.797 3008.93 281.367 2984.52 281.367H2930.76C2906.35 281.367 2886.57 261.797 2886.57 237.657V184.487C2886.57 160.347 2906.35 140.778 2930.76 140.778H2984.52C3008.93 140.778 3028.72 160.347 3028.72 184.487Z" fill="url(#paint8_linear_440_4)" fill-opacity="0.1"/>
<path d="M3028.72 43.8981V97.0683C3028.72 121.208 3008.93 140.778 2984.52 140.778H2930.76C2906.35 140.778 2886.57 121.208 2886.57 97.0683V43.8981C2886.57 19.7581 2906.35 0.188882 2930.76 0.188882H2984.52C3008.93 0.188882 3028.72 19.7581 3028.72 43.8981Z" fill="url(#paint9_linear_440_4)" fill-opacity="0.1"/>
<path d="M3028.53 325.076V378.246C3028.53 402.386 3008.74 421.956 2984.33 421.956H2930.57C2906.16 421.956 2886.38 402.386 2886.38 378.246V325.076C2886.38 300.936 2906.16 281.367 2930.57 281.367H2984.33C3008.74 281.367 3028.53 300.936 3028.53 325.076Z" fill="url(#paint10_linear_440_4)" fill-opacity="0.1"/>
<path d="M2886.55 184.297V237.467C2886.55 261.607 2866.77 281.176 2842.36 281.176H2788.6C2764.19 281.176 2744.4 261.607 2744.4 237.467V184.297C2744.4 160.157 2764.19 140.588 2788.6 140.588H2842.36C2866.77 140.588 2886.55 160.157 2886.55 184.297Z" fill="url(#paint11_linear_440_4)" fill-opacity="0.1"/>
<path d="M2886.36 43.7092V96.8793C2886.36 121.019 2866.58 140.589 2842.17 140.589H2788.41C2764 140.589 2744.21 121.019 2744.21 96.8793V43.7092C2744.21 19.5693 2764 0 2788.41 0H2842.17C2866.58 0 2886.36 19.5693 2886.36 43.7092Z" fill="url(#paint12_linear_440_4)" fill-opacity="0.1"/>
<path d="M2886.36 324.886V378.056C2886.36 402.196 2866.58 421.765 2842.17 421.765H2788.41C2764 421.765 2744.21 402.196 2744.21 378.056V324.886C2744.21 300.746 2764 281.177 2788.41 281.177H2842.17C2866.58 281.177 2886.36 300.746 2886.36 324.886Z" fill="url(#paint13_linear_440_4)" fill-opacity="0.1"/>
<path d="M2744.21 43.7092V96.8793C2744.21 121.019 2724.41 140.589 2700 140.589H2646.24C2621.83 140.589 2602.05 121.02 2602.05 96.8796V43.7095C2602.05 19.5695 2621.83 0.000292551 2646.24 0.000292551H2700C2724.41 0.000292551 2744.21 19.5692 2744.21 43.7092Z" fill="url(#paint14_linear_440_4)" fill-opacity="0.1"/>
<path d="M3155.16 893.297V934.924C3155.16 953.735 3139.74 968.984 3120.72 968.984H3078.63C3059.61 968.984 3044.19 953.735 3044.19 934.924V893.297C3044.19 874.486 3059.61 859.237 3078.63 859.237H3120.72C3139.74 859.237 3155.16 874.486 3155.16 893.297Z" fill="url(#paint15_linear_440_4)" fill-opacity="0.1"/>
<path d="M3155.16 752.707V794.335C3155.16 813.145 3139.74 828.394 3120.72 828.394H3078.63C3059.61 828.394 3044.19 813.145 3044.19 794.335V752.707C3044.19 733.897 3059.61 718.648 3078.63 718.648H3120.72C3139.74 718.648 3155.16 733.897 3155.16 752.707Z" fill="url(#paint16_linear_440_4)" fill-opacity="0.1"/>
<path d="M3000.77 898.027V930.383C3000.77 945.014 2988.78 956.874 2973.99 956.874H2941.27C2926.48 956.874 2914.49 945.014 2914.49 930.383V898.027C2914.49 883.397 2926.48 871.537 2941.27 871.537H2973.99C2988.78 871.537 3000.77 883.397 3000.77 898.027Z" fill="url(#paint17_linear_440_4)" fill-opacity="0.1"/>
<path d="M2983.95 1044.86V1064.54C2983.95 1073.53 2976.58 1080.81 2967.5 1080.81H2947.6C2938.51 1080.81 2931.15 1073.53 2931.15 1064.54V1044.86C2931.15 1035.87 2938.51 1028.59 2947.6 1028.59H2967.5C2976.58 1028.59 2983.95 1035.87 2983.95 1044.86Z" fill="url(#paint18_linear_440_4)" fill-opacity="0.1"/>
<path d="M3028.53 465.664V518.834C3028.53 542.974 3008.74 562.543 2984.33 562.543H2930.57C2906.16 562.543 2886.38 542.974 2886.38 518.834V465.664C2886.38 441.524 2906.16 421.956 2930.57 421.956H2984.33C3008.74 421.956 3028.53 441.524 3028.53 465.664Z" fill="url(#paint19_linear_440_4)" fill-opacity="0.1"/>
<path d="M3013 612.117V653.745C3013 672.556 2997.58 687.805 2978.56 687.805H2936.47C2917.45 687.805 2902.03 672.556 2902.03 653.745V612.117C2902.03 593.307 2917.45 578.058 2936.47 578.058H2978.56C2997.58 578.058 3013 593.307 3013 612.117Z" fill="url(#paint20_linear_440_4)" fill-opacity="0.1"/>
<path d="M3013 752.707V794.334C3013 813.145 2997.58 828.394 2978.56 828.394H2936.47C2917.45 828.394 2902.03 813.145 2902.03 794.334V752.707C2902.03 733.896 2917.45 718.647 2936.47 718.647H2978.56C2997.58 718.647 3013 733.896 3013 752.707Z" fill="url(#paint21_linear_440_4)" fill-opacity="0.1"/>
<path d="M2858.61 897.836V930.193C2858.61 944.823 2846.62 956.683 2831.83 956.683H2799.11C2784.32 956.683 2772.33 944.823 2772.33 930.193V897.836C2772.33 883.206 2784.32 871.346 2799.11 871.346H2831.83C2846.62 871.346 2858.61 883.206 2858.61 897.836Z" fill="url(#paint22_linear_440_4)" fill-opacity="0.1"/>
<path d="M2841.79 1045.05V1064.73C2841.79 1073.71 2834.42 1081 2825.33 1081H2805.43C2796.35 1081 2788.98 1073.71 2788.98 1064.73V1045.05C2788.98 1036.06 2796.35 1028.78 2805.43 1028.78H2825.33C2834.42 1028.78 2841.79 1036.06 2841.79 1045.05Z" fill="url(#paint23_linear_440_4)" fill-opacity="0.1"/>
<path d="M2870.88 471.53V513.158C2870.88 531.968 2855.46 547.217 2836.44 547.217H2794.35C2775.33 547.217 2759.91 531.968 2759.91 513.158V471.53C2759.91 452.72 2775.33 437.471 2794.35 437.471H2836.44C2855.46 437.471 2870.88 452.72 2870.88 471.53Z" fill="url(#paint24_linear_440_4)" fill-opacity="0.1"/>
<path d="M2870.69 612.117V653.746C2870.69 672.556 2855.27 687.805 2836.25 687.805H2794.16C2775.14 687.805 2759.72 672.556 2759.72 653.746V612.117C2759.72 593.307 2775.14 578.059 2794.16 578.059H2836.25C2855.27 578.059 2870.69 593.307 2870.69 612.117Z" fill="url(#paint25_linear_440_4)" fill-opacity="0.1"/>
<path d="M2858.61 757.249V789.605C2858.61 804.235 2846.62 816.095 2831.83 816.095H2799.11C2784.32 816.095 2772.33 804.235 2772.33 789.605V757.249C2772.33 742.618 2784.32 730.758 2799.11 730.758H2831.83C2846.62 730.758 2858.61 742.618 2858.61 757.249Z" fill="url(#paint26_linear_440_4)" fill-opacity="0.1"/>
<path d="M2699.63 904.271V923.95C2699.63 932.937 2692.26 940.223 2683.17 940.223H2663.27C2654.19 940.223 2646.82 932.937 2646.82 923.95V904.271C2646.82 895.284 2654.19 887.999 2663.27 887.999H2683.17C2692.26 887.999 2699.63 895.284 2699.63 904.271Z" fill="url(#paint27_linear_440_4)" fill-opacity="0.1"/>
<path d="M2699.63 1044.86V1064.54C2699.63 1073.53 2692.26 1080.81 2683.17 1080.81H2663.27C2654.19 1080.81 2646.82 1073.53 2646.82 1064.54V1044.86C2646.82 1035.87 2654.19 1028.59 2663.27 1028.59H2683.17C2692.26 1028.59 2699.63 1035.87 2699.63 1044.86Z" fill="url(#paint28_linear_440_4)" fill-opacity="0.1"/>
<path d="M2728.52 189.974V231.602C2728.52 250.413 2713.11 265.661 2694.09 265.661H2652C2632.98 265.661 2617.56 250.413 2617.56 231.602V189.974C2617.56 171.164 2632.98 155.915 2652 155.915H2694.09C2713.11 155.915 2728.52 171.164 2728.52 189.974Z" fill="url(#paint29_linear_440_4)" fill-opacity="0.1"/>
<path d="M2728.72 330.752V372.38C2728.72 391.19 2713.3 406.439 2694.28 406.439H2652.19C2633.17 406.439 2617.75 391.19 2617.75 372.38V330.752C2617.75 311.942 2633.17 296.693 2652.19 296.693H2694.28C2713.3 296.693 2728.72 311.942 2728.72 330.752Z" fill="url(#paint30_linear_440_4)" fill-opacity="0.1"/>
<path d="M2728.72 471.341V512.969C2728.72 531.779 2713.3 547.028 2694.28 547.028H2652.19C2633.17 547.028 2617.75 531.779 2617.75 512.969V471.341C2617.75 452.531 2633.17 437.282 2652.19 437.282H2694.28C2713.3 437.282 2728.72 452.531 2728.72 471.341Z" fill="url(#paint31_linear_440_4)" fill-opacity="0.1"/>
<path d="M2716.25 616.659V649.015C2716.25 663.645 2704.26 675.506 2689.47 675.506H2656.75C2641.96 675.506 2629.97 663.645 2629.97 649.015V616.659C2629.97 602.029 2641.96 590.168 2656.75 590.168H2689.47C2704.26 590.168 2716.25 602.029 2716.25 616.659Z" fill="url(#paint32_linear_440_4)" fill-opacity="0.1"/>
<path d="M2716.25 757.248V789.604C2716.25 804.234 2704.26 816.095 2689.47 816.095H2656.75C2641.96 816.095 2629.97 804.234 2629.97 789.604V757.248C2629.97 742.618 2641.96 730.757 2656.75 730.757H2689.47C2704.26 730.757 2716.25 742.618 2716.25 757.248Z" fill="url(#paint33_linear_440_4)" fill-opacity="0.1"/>
<path d="M2557.26 904.271V923.95C2557.26 932.937 2549.9 940.222 2540.81 940.222H2520.91C2511.83 940.222 2504.46 932.937 2504.46 923.95V904.271C2504.46 895.284 2511.83 887.998 2520.91 887.998H2540.81C2549.9 887.998 2557.26 895.284 2557.26 904.271Z" fill="url(#paint34_linear_440_4)" fill-opacity="0.1"/>
<path d="M2557.46 1044.86V1064.54C2557.46 1073.53 2550.09 1080.81 2541 1080.81H2521.11C2512.02 1080.81 2504.65 1073.53 2504.65 1064.54V1044.86C2504.65 1035.87 2512.02 1028.59 2521.11 1028.59H2541C2550.09 1028.59 2557.46 1035.87 2557.46 1044.86Z" fill="url(#paint35_linear_440_4)" fill-opacity="0.1"/>
<path d="M2586.36 190.165V231.793C2586.36 250.603 2570.94 265.852 2551.92 265.852H2509.83C2490.81 265.852 2475.39 250.603 2475.39 231.793V190.165C2475.39 171.354 2490.81 156.105 2509.83 156.105H2551.92C2570.94 156.105 2586.36 171.354 2586.36 190.165Z" fill="url(#paint36_linear_440_4)" fill-opacity="0.1"/>
<path d="M2586.36 49.384V91.0118C2586.36 109.822 2570.94 125.071 2551.92 125.071H2509.83C2490.81 125.071 2475.39 109.822 2475.39 91.0118V49.384C2475.39 30.5736 2490.81 15.3247 2509.83 15.3247H2551.92C2570.94 15.3247 2586.36 30.5736 2586.36 49.384Z" fill="url(#paint37_linear_440_4)" fill-opacity="0.1"/>
<path d="M2574.14 335.482V367.839C2574.14 382.469 2562.14 394.329 2547.35 394.329H2514.64C2499.84 394.329 2487.85 382.469 2487.85 367.839V335.482C2487.85 320.852 2499.84 308.992 2514.64 308.992H2547.35C2562.14 308.992 2574.14 320.852 2574.14 335.482Z" fill="url(#paint38_linear_440_4)" fill-opacity="0.1"/>
<path d="M2574.14 476.071V508.428C2574.14 523.058 2562.14 534.918 2547.35 534.918H2514.64C2499.84 534.918 2487.85 523.058 2487.85 508.428V476.071C2487.85 461.441 2499.84 449.581 2514.64 449.581H2547.35C2562.14 449.581 2574.14 461.441 2574.14 476.071Z" fill="url(#paint39_linear_440_4)" fill-opacity="0.1"/>
<path d="M2574.14 616.659V649.015C2574.14 663.646 2562.14 675.506 2547.35 675.506H2514.64C2499.84 675.506 2487.85 663.646 2487.85 649.015V616.659C2487.85 602.029 2499.84 590.169 2514.64 590.169H2547.35C2562.14 590.169 2574.14 602.029 2574.14 616.659Z" fill="url(#paint40_linear_440_4)" fill-opacity="0.1"/>
<path d="M2557.26 763.682V783.36C2557.26 792.348 2549.9 799.633 2540.81 799.633H2520.91C2511.83 799.633 2504.46 792.348 2504.46 783.36V763.682C2504.46 754.695 2511.83 747.409 2520.91 747.409H2540.81C2549.9 747.409 2557.26 754.695 2557.26 763.682Z" fill="url(#paint41_linear_440_4)" fill-opacity="0.1"/>
<path d="M2220.16 783.362V763.683C2220.16 754.696 2227.53 747.41 2236.62 747.41H2256.51C2265.6 747.41 2272.97 754.696 2272.97 763.683V783.362C2272.97 792.349 2265.6 799.634 2256.51 799.634H2236.62C2227.53 799.634 2220.16 792.349 2220.16 783.362Z" fill="url(#paint42_linear_440_4)" fill-opacity="0.1"/>
<path d="M2220.16 642.582V622.904C2220.16 613.917 2227.53 606.631 2236.62 606.631H2256.51C2265.6 606.631 2272.97 613.917 2272.97 622.904V642.582C2272.97 651.569 2265.6 658.855 2256.51 658.855H2236.62C2227.53 658.855 2220.16 651.569 2220.16 642.582Z" fill="url(#paint43_linear_440_4)" fill-opacity="0.1"/>
<path d="M2219.97 501.993V482.315C2219.97 473.328 2227.34 466.042 2236.42 466.042H2256.32C2265.41 466.042 2272.77 473.328 2272.77 482.315V501.993C2272.77 510.98 2265.41 518.266 2256.32 518.266H2236.42C2227.34 518.266 2219.97 510.98 2219.97 501.993Z" fill="url(#paint44_linear_440_4)" fill-opacity="0.1"/>
<path d="M2220.16 361.406V341.727C2220.16 332.74 2227.53 325.455 2236.62 325.455H2256.51C2265.6 325.455 2272.97 332.74 2272.97 341.727V361.406C2272.97 370.393 2265.6 377.678 2256.51 377.678H2236.62C2227.53 377.678 2220.16 370.393 2220.16 361.406Z" fill="url(#paint45_linear_440_4)" fill-opacity="0.1"/>
<path d="M2345.5 227.062V194.706C2345.5 180.076 2357.49 168.215 2372.29 168.215H2405C2419.8 168.215 2431.79 180.076 2431.79 194.706V227.062C2431.79 241.692 2419.8 253.553 2405 253.553H2372.29C2357.49 253.553 2345.5 241.692 2345.5 227.062Z" fill="url(#paint46_linear_440_4)" fill-opacity="0.1"/>
<path d="M2362.33 923.95V904.272C2362.33 895.284 2369.69 887.999 2378.78 887.999H2398.68C2407.77 887.999 2415.13 895.284 2415.13 904.272V923.95C2415.13 932.937 2407.77 940.223 2398.68 940.223H2378.78C2369.69 940.223 2362.33 932.937 2362.33 923.95Z" fill="url(#paint47_linear_440_4)" fill-opacity="0.1"/>
<path d="M2362.33 783.361V763.682C2362.33 754.695 2369.69 747.41 2378.78 747.41H2398.68C2407.77 747.41 2415.13 754.695 2415.13 763.682V783.361C2415.13 792.348 2407.77 799.633 2398.68 799.633H2378.78C2369.69 799.633 2362.33 792.348 2362.33 783.361Z" fill="url(#paint48_linear_440_4)" fill-opacity="0.1"/>
<path d="M2362.33 642.773V623.095C2362.33 614.107 2369.69 606.822 2378.78 606.822H2398.68C2407.77 606.822 2415.13 614.107 2415.13 623.095V642.773C2415.13 651.76 2407.77 659.046 2398.68 659.046H2378.78C2369.69 659.046 2362.33 651.76 2362.33 642.773Z" fill="url(#paint49_linear_440_4)" fill-opacity="0.1"/>
<path d="M2362.33 501.993V482.315C2362.33 473.328 2369.69 466.042 2378.78 466.042H2398.68C2407.77 466.042 2415.13 473.328 2415.13 482.315V501.993C2415.13 510.98 2407.77 518.266 2398.68 518.266H2378.78C2369.69 518.266 2362.33 510.98 2362.33 501.993Z" fill="url(#paint50_linear_440_4)" fill-opacity="0.1"/>
<path d="M2345.5 367.648V335.292C2345.5 320.662 2357.5 308.801 2372.29 308.801H2405C2419.8 308.801 2431.79 320.662 2431.79 335.292V367.648C2431.79 382.278 2419.8 394.139 2405 394.139H2372.29C2357.5 394.139 2345.5 382.278 2345.5 367.648Z" fill="url(#paint51_linear_440_4)" fill-opacity="0.1"/>
</g>
<g id="Vector_2">
<path d="M0 755.923V702.753C0 678.613 19.7868 659.044 44.195 659.044H97.9564C122.365 659.044 142.151 678.613 142.151 702.753V755.923C142.151 780.063 122.365 799.633 97.9564 799.633H44.195C19.7868 799.633 0 780.063 0 755.923Z" fill="url(#paint52_linear_440_4)" fill-opacity="0.1"/>
<path d="M0 615.337V562.167C0 538.027 19.7868 518.458 44.195 518.458H97.9561C122.364 518.458 142.151 538.027 142.151 562.167V615.337C142.151 639.477 122.365 659.044 97.9564 659.044H44.195C19.7868 659.044 0 639.477 0 615.337Z" fill="url(#paint53_linear_440_4)" fill-opacity="0.1"/>
<path d="M0 474.748V421.578C0 397.438 19.7868 377.868 44.195 377.868H97.9561C122.364 377.868 142.151 397.438 142.151 421.578V474.748C142.151 498.888 122.364 518.458 97.9561 518.458H44.195C19.7868 518.458 0 498.888 0 474.748Z" fill="url(#paint54_linear_440_4)" fill-opacity="0.1"/>
<path d="M0 334.158V280.988C0 256.848 19.7868 237.279 44.195 237.279H97.9561C122.364 237.279 142.151 256.848 142.151 280.988V334.158C142.151 358.298 122.364 377.868 97.9561 377.868H44.195C19.7868 377.868 0 358.298 0 334.158Z" fill="url(#paint55_linear_440_4)" fill-opacity="0.1"/>
<path d="M142.165 896.513V843.343C142.165 819.203 161.952 799.633 186.36 799.633H240.121C264.529 799.633 284.316 819.203 284.316 843.343V896.513C284.316 920.653 264.529 940.222 240.121 940.222H186.36C161.952 940.222 142.165 920.653 142.165 896.513Z" fill="url(#paint56_linear_440_4)" fill-opacity="0.1"/>
<path d="M142.357 755.924V702.754C142.357 678.614 162.143 659.044 186.552 659.044H240.313C264.721 659.044 284.508 678.614 284.508 702.754V755.924C284.508 780.064 264.721 799.633 240.313 799.633H186.552C162.143 799.633 142.357 780.064 142.357 755.924Z" fill="url(#paint57_linear_440_4)" fill-opacity="0.1"/>
<path d="M142.151 615.337V562.167C142.151 538.027 161.952 518.457 186.36 518.457H240.121C264.529 518.457 284.316 538.026 284.316 562.166V615.336C284.316 639.476 264.529 659.046 240.121 659.046H186.36C161.952 659.046 142.151 639.477 142.151 615.337Z" fill="url(#paint58_linear_440_4)" fill-opacity="0.1"/>
<path d="M142.151 474.748V421.578C142.151 397.438 161.952 377.868 186.36 377.868H240.121C264.529 377.868 284.316 397.437 284.316 421.577V474.747C284.316 498.887 264.529 518.457 240.121 518.457H186.36C161.952 518.457 142.151 498.888 142.151 474.748Z" fill="url(#paint59_linear_440_4)" fill-opacity="0.1"/>
<path d="M284.282 896.513V843.343C284.282 819.203 304.069 799.633 328.477 799.633H382.238C406.646 799.633 426.433 819.203 426.433 843.343V896.513C426.433 920.653 406.646 940.222 382.238 940.222H328.477C304.069 940.222 284.282 920.653 284.282 896.513Z" fill="url(#paint60_linear_440_4)" fill-opacity="0.1"/>
<path d="M284.282 1037.1V983.932C284.282 959.792 304.069 940.222 328.477 940.222H382.238C406.646 940.222 426.433 959.792 426.433 983.932V1037.1C426.433 1061.24 406.646 1080.81 382.238 1080.81H328.477C304.068 1080.81 284.282 1061.24 284.282 1037.1Z" fill="url(#paint61_linear_440_4)" fill-opacity="0.1"/>
<path d="M284.473 755.924V702.754C284.473 678.614 304.26 659.044 328.668 659.044H382.43C406.838 659.044 426.625 678.614 426.625 702.754V755.924C426.625 780.064 406.838 799.633 382.43 799.633H328.668C304.26 799.633 284.473 780.064 284.473 755.924Z" fill="url(#paint62_linear_440_4)" fill-opacity="0.1"/>
<path d="M426.446 896.703V843.533C426.446 819.393 446.233 799.824 470.642 799.824H524.403C548.811 799.824 568.598 819.393 568.598 843.533V896.703C568.598 920.843 548.811 940.412 524.403 940.412H470.642C446.233 940.412 426.446 920.843 426.446 896.703Z" fill="url(#paint63_linear_440_4)" fill-opacity="0.1"/>
<path d="M426.638 1037.29V984.121C426.638 959.981 446.425 940.411 470.833 940.411H524.594C549.003 940.411 568.789 959.981 568.789 984.121V1037.29C568.789 1061.43 549.003 1081 524.594 1081H470.833C446.425 1081 426.638 1061.43 426.638 1037.29Z" fill="url(#paint64_linear_440_4)" fill-opacity="0.1"/>
<path d="M426.638 756.114V702.944C426.638 678.804 446.425 659.235 470.833 659.235H524.595C549.003 659.235 568.79 678.804 568.79 702.944V756.114C568.79 780.254 549.003 799.823 524.595 799.823H470.833C446.425 799.823 426.638 780.254 426.638 756.114Z" fill="url(#paint65_linear_440_4)" fill-opacity="0.1"/>
<path d="M568.789 1037.29V984.121C568.789 959.981 588.59 940.411 612.998 940.411H666.759C691.167 940.411 710.954 959.98 710.954 984.12V1037.29C710.954 1061.43 691.167 1081 666.759 1081H612.998C588.59 1081 568.789 1061.43 568.789 1037.29Z" fill="url(#paint66_linear_440_4)" fill-opacity="0.1"/>
<path d="M157.84 187.703V146.076C157.84 127.265 173.258 112.016 192.277 112.016H234.368C253.387 112.016 268.805 127.265 268.805 146.076V187.703C268.805 206.514 253.387 221.763 234.368 221.763H192.277C173.258 221.763 157.84 206.514 157.84 187.703Z" fill="url(#paint67_linear_440_4)" fill-opacity="0.1"/>
<path d="M157.84 328.293V286.665C157.84 267.855 173.258 252.606 192.277 252.606H234.368C253.387 252.606 268.806 267.855 268.806 286.665V328.293C268.806 347.103 253.387 362.352 234.368 362.352H192.277C173.258 362.352 157.84 347.103 157.84 328.293Z" fill="url(#paint68_linear_440_4)" fill-opacity="0.1"/>
<path d="M312.226 182.973V150.617C312.226 135.986 324.218 124.126 339.01 124.126H371.726C386.519 124.126 398.511 135.986 398.511 150.617V182.973C398.511 197.603 386.519 209.463 371.726 209.463H339.01C324.218 209.463 312.226 197.603 312.226 182.973Z" fill="url(#paint69_linear_440_4)" fill-opacity="0.1"/>
<path d="M329.05 36.14V16.4615C329.05 7.47433 336.416 0.188736 345.503 0.188736H365.4C374.488 0.188736 381.854 7.47433 381.854 16.4615V36.14C381.854 45.1271 374.488 52.4127 365.4 52.4127H345.503C336.416 52.4127 329.05 45.1271 329.05 36.14Z" fill="url(#paint70_linear_440_4)" fill-opacity="0.1"/>
<path d="M284.473 615.336V562.166C284.473 538.026 304.26 518.457 328.668 518.457H382.429C406.838 518.457 426.624 538.026 426.624 562.166V615.336C426.624 639.476 406.838 659.044 382.43 659.044H328.668C304.26 659.044 284.473 639.476 284.473 615.336Z" fill="url(#paint71_linear_440_4)" fill-opacity="0.1"/>
<path d="M300.003 468.883V427.255C300.003 408.444 315.421 393.195 334.441 393.195H376.531C395.551 393.195 410.969 408.444 410.969 427.255V468.883C410.969 487.693 395.551 502.942 376.531 502.942H334.441C315.421 502.942 300.003 487.693 300.003 468.883Z" fill="url(#paint72_linear_440_4)" fill-opacity="0.1"/>
<path d="M300.003 328.293V286.666C300.003 267.855 315.422 252.606 334.441 252.606H376.531C395.551 252.606 410.969 267.855 410.969 286.666V328.293C410.969 347.104 395.551 362.353 376.531 362.353H334.441C315.422 362.353 300.003 347.104 300.003 328.293Z" fill="url(#paint73_linear_440_4)" fill-opacity="0.1"/>
<path d="M454.387 183.164V150.807C454.387 136.177 466.378 124.317 481.171 124.317H513.887C528.68 124.317 540.672 136.177 540.672 150.807V183.164C540.672 197.794 528.68 209.654 513.887 209.654H481.171C466.378 209.654 454.387 197.794 454.387 183.164Z" fill="url(#paint74_linear_440_4)" fill-opacity="0.1"/>
<path d="M471.214 35.9515V16.2728C471.214 7.28561 478.581 2.12193e-05 487.668 2.12193e-05H507.565C516.652 2.12193e-05 524.019 7.28561 524.019 16.2728V35.9515C524.019 44.9387 516.652 52.2243 507.565 52.2243H487.668C478.581 52.2243 471.214 44.9387 471.214 35.9515Z" fill="url(#paint75_linear_440_4)" fill-opacity="0.1"/>
<path d="M442.12 609.47V567.842C442.12 549.032 457.538 533.783 476.558 533.783H518.648C537.668 533.783 553.086 549.032 553.086 567.842V609.47C553.086 628.28 537.668 643.529 518.648 643.529H476.558C457.538 643.529 442.12 628.28 442.12 609.47Z" fill="url(#paint76_linear_440_4)" fill-opacity="0.1"/>
<path d="M442.312 468.883V427.254C442.312 408.444 457.73 393.195 476.749 393.195H518.84C537.859 393.195 553.278 408.444 553.278 427.254V468.883C553.278 487.693 537.859 502.941 518.84 502.941H476.749C457.73 502.941 442.312 487.693 442.312 468.883Z" fill="url(#paint77_linear_440_4)" fill-opacity="0.1"/>
<path d="M454.387 323.751V291.395C454.387 276.765 466.379 264.905 481.172 264.905H513.887C528.68 264.905 540.672 276.765 540.672 291.395V323.751C540.672 338.382 528.68 350.242 513.887 350.242H481.172C466.379 350.242 454.387 338.382 454.387 323.751Z" fill="url(#paint78_linear_440_4)" fill-opacity="0.1"/>
<path d="M613.374 176.729V157.05C613.374 148.063 620.741 140.777 629.828 140.777H649.725C658.812 140.777 666.179 148.063 666.179 157.05V176.729C666.179 185.716 658.812 193.001 649.725 193.001H629.828C620.741 193.001 613.374 185.716 613.374 176.729Z" fill="url(#paint79_linear_440_4)" fill-opacity="0.1"/>
<path d="M613.374 36.1409V16.4622C613.374 7.47499 620.741 0.189497 629.828 0.189497H649.725C658.812 0.189497 666.179 7.47499 666.179 16.4622V36.1409C666.179 45.1281 658.812 52.4134 649.725 52.4134H629.828C620.741 52.4134 613.374 45.1281 613.374 36.1409Z" fill="url(#paint80_linear_440_4)" fill-opacity="0.1"/>
<path d="M584.477 891.026V849.398C584.477 830.587 599.895 815.339 618.914 815.339H661.005C680.024 815.339 695.443 830.587 695.443 849.398V891.026C695.443 909.836 680.024 925.085 661.005 925.085H618.914C599.895 925.085 584.477 909.836 584.477 891.026Z" fill="url(#paint81_linear_440_4)" fill-opacity="0.1"/>
<path d="M584.285 750.248V708.62C584.285 689.81 599.703 674.561 618.723 674.561H660.813C679.833 674.561 695.251 689.81 695.251 708.62V750.248C695.251 769.058 679.833 784.307 660.813 784.307H618.723C599.703 784.307 584.285 769.058 584.285 750.248Z" fill="url(#paint82_linear_440_4)" fill-opacity="0.1"/>
<path d="M584.285 609.659V568.031C584.285 549.221 599.703 533.972 618.723 533.972H660.813C679.833 533.972 695.251 549.221 695.251 568.031V609.659C695.251 628.469 679.833 643.718 660.813 643.718H618.723C599.703 643.718 584.285 628.469 584.285 609.659Z" fill="url(#paint83_linear_440_4)" fill-opacity="0.1"/>
<path d="M596.747 464.341V431.985C596.747 417.355 608.739 405.494 623.532 405.494H656.248C671.041 405.494 683.033 417.355 683.033 431.985V464.341C683.033 478.971 671.041 490.832 656.248 490.832H623.532C608.739 490.832 596.747 478.971 596.747 464.341Z" fill="url(#paint84_linear_440_4)" fill-opacity="0.1"/>
<path d="M596.747 323.752V291.396C596.747 276.766 608.739 264.905 623.532 264.905H656.248C671.041 264.905 683.033 276.766 683.033 291.396V323.752C683.033 338.382 671.041 350.243 656.248 350.243H623.532C608.739 350.243 596.747 338.382 596.747 323.752Z" fill="url(#paint85_linear_440_4)" fill-opacity="0.1"/>
<path d="M755.736 176.729V157.05C755.736 148.063 763.102 140.778 772.189 140.778H792.087C801.174 140.778 808.54 148.063 808.54 157.05V176.729C808.54 185.716 801.174 193.002 792.087 193.002H772.189C763.102 193.002 755.736 185.716 755.736 176.729Z" fill="url(#paint86_linear_440_4)" fill-opacity="0.1"/>
<path d="M755.544 36.14V16.4615C755.544 7.47433 762.911 0.188736 771.998 0.188736H791.895C800.982 0.188736 808.348 7.47433 808.348 16.4615V36.14C808.348 45.1271 800.982 52.4127 791.895 52.4127H771.998C762.911 52.4127 755.544 45.1271 755.544 36.14Z" fill="url(#paint87_linear_440_4)" fill-opacity="0.1"/>
<path d="M726.641 890.835V849.207C726.641 830.397 742.06 815.148 761.079 815.148H803.169C822.189 815.148 837.607 830.397 837.607 849.207V890.835C837.607 909.646 822.189 924.895 803.169 924.895H761.079C742.06 924.895 726.641 909.646 726.641 890.835Z" fill="url(#paint88_linear_440_4)" fill-opacity="0.1"/>
<path d="M726.641 1031.62V989.988C726.641 971.178 742.059 955.929 761.079 955.929H803.169C822.189 955.929 837.607 971.178 837.607 989.988V1031.62C837.607 1050.43 822.189 1065.68 803.169 1065.68H761.079C742.059 1065.68 726.641 1050.43 726.641 1031.62Z" fill="url(#paint89_linear_440_4)" fill-opacity="0.1"/>
<path d="M738.864 745.518V713.161C738.864 698.531 750.856 686.671 765.649 686.671H798.365C813.158 686.671 825.15 698.531 825.15 713.161V745.518C825.15 760.148 813.158 772.008 798.365 772.008H765.649C750.856 772.008 738.864 760.148 738.864 745.518Z" fill="url(#paint90_linear_440_4)" fill-opacity="0.1"/>
<path d="M738.864 604.929V572.572C738.864 557.942 750.856 546.082 765.649 546.082H798.365C813.158 546.082 825.15 557.942 825.15 572.572V604.929C825.15 619.559 813.158 631.419 798.365 631.419H765.649C750.856 631.419 738.864 619.559 738.864 604.929Z" fill="url(#paint91_linear_440_4)" fill-opacity="0.1"/>
<path d="M738.864 464.341V431.985C738.864 417.354 750.856 405.494 765.649 405.494H798.365C813.158 405.494 825.149 417.354 825.149 431.985V464.341C825.149 478.971 813.158 490.831 798.365 490.831H765.649C750.856 490.831 738.864 478.971 738.864 464.341Z" fill="url(#paint92_linear_440_4)" fill-opacity="0.1"/>
<path d="M755.736 317.318V297.64C755.736 288.652 763.102 281.367 772.189 281.367H792.086C801.174 281.367 808.54 288.652 808.54 297.64V317.318C808.54 326.305 801.174 333.591 792.086 333.591H772.189C763.102 333.591 755.736 326.305 755.736 317.318Z" fill="url(#paint93_linear_440_4)" fill-opacity="0.1"/>
<path d="M1092.84 297.638V317.317C1092.84 326.304 1085.47 333.59 1076.38 333.59H1056.49C1047.4 333.59 1040.03 326.304 1040.03 317.317V297.638C1040.03 288.651 1047.4 281.366 1056.49 281.366H1076.38C1085.47 281.366 1092.84 288.651 1092.84 297.638Z" fill="url(#paint94_linear_440_4)" fill-opacity="0.1"/>
<path d="M1092.84 438.418V458.096C1092.84 467.083 1085.47 474.369 1076.38 474.369H1056.49C1047.4 474.369 1040.03 467.083 1040.03 458.096V438.418C1040.03 429.431 1047.4 422.145 1056.49 422.145H1076.38C1085.47 422.145 1092.84 429.431 1092.84 438.418Z" fill="url(#paint95_linear_440_4)" fill-opacity="0.1"/>
<path d="M1093.03 579.007V598.685C1093.03 607.672 1085.66 614.958 1076.58 614.958H1056.68C1047.59 614.958 1040.23 607.672 1040.23 598.685V579.007C1040.23 570.02 1047.59 562.734 1056.68 562.734H1076.58C1085.66 562.734 1093.03 570.02 1093.03 579.007Z" fill="url(#paint96_linear_440_4)" fill-opacity="0.1"/>
<path d="M1092.84 719.594V739.273C1092.84 748.26 1085.47 755.545 1076.38 755.545H1056.49C1047.4 755.545 1040.03 748.26 1040.03 739.273V719.594C1040.03 710.607 1047.4 703.322 1056.49 703.322H1076.38C1085.47 703.322 1092.84 710.607 1092.84 719.594Z" fill="url(#paint97_linear_440_4)" fill-opacity="0.1"/>
<path d="M967.497 853.938V886.294C967.497 900.924 955.505 912.785 940.712 912.785H907.996C893.203 912.785 881.212 900.924 881.212 886.294V853.938C881.212 839.308 893.203 827.447 907.996 827.447H940.712C955.505 827.447 967.497 839.308 967.497 853.938Z" fill="url(#paint98_linear_440_4)" fill-opacity="0.1"/>
<path d="M950.672 157.05V176.728C950.672 185.716 943.306 193.001 934.219 193.001H914.321C905.234 193.001 897.867 185.716 897.867 176.728V157.05C897.867 148.063 905.234 140.777 914.321 140.777H934.219C943.306 140.777 950.672 148.063 950.672 157.05Z" fill="url(#paint99_linear_440_4)" fill-opacity="0.1"/>
<path d="M950.672 297.639V317.318C950.672 326.305 943.306 333.59 934.219 333.59H914.321C905.234 333.59 897.868 326.305 897.868 317.318V297.639C897.868 288.652 905.234 281.367 914.321 281.367H934.219C943.306 281.367 950.672 288.652 950.672 297.639Z" fill="url(#paint100_linear_440_4)" fill-opacity="0.1"/>
<path d="M950.672 438.227V457.905C950.672 466.893 943.306 474.178 934.219 474.178H914.321C905.234 474.178 897.867 466.893 897.867 457.905V438.227C897.867 429.24 905.234 421.954 914.321 421.954H934.219C943.306 421.954 950.672 429.24 950.672 438.227Z" fill="url(#paint101_linear_440_4)" fill-opacity="0.1"/>
<path d="M950.672 579.007V598.685C950.672 607.672 943.306 614.958 934.219 614.958H914.321C905.234 614.958 897.868 607.672 897.868 598.685V579.007C897.868 570.02 905.234 562.734 914.321 562.734H934.219C943.306 562.734 950.672 570.02 950.672 579.007Z" fill="url(#paint102_linear_440_4)" fill-opacity="0.1"/>
<path d="M967.497 713.352V745.708C967.497 760.338 955.505 772.199 940.712 772.199H907.996C893.203 772.199 881.211 760.338 881.211 745.708V713.352C881.211 698.722 893.203 686.861 907.996 686.861H940.712C955.505 686.861 967.497 698.722 967.497 713.352Z" fill="url(#paint103_linear_440_4)" fill-opacity="0.1"/>
</g>
</g>
<defs>
<linearGradient id="paint0_linear_440_4" x1="2766.49" y1="1081" x2="2766.49" y2="0" gradientUnits="userSpaceOnUse">
<stop stop-color="#7E8B9B"/>
<stop offset="1" stop-color="white"/>
</linearGradient>
<linearGradient id="paint1_linear_440_4" x1="2766.49" y1="1081" x2="2766.49" y2="0" gradientUnits="userSpaceOnUse">
<stop stop-color="#7E8B9B"/>
<stop offset="1" stop-color="white"/>
</linearGradient>
<linearGradient id="paint2_linear_440_4" x1="2766.49" y1="1081" x2="2766.49" y2="0" gradientUnits="userSpaceOnUse">
<stop stop-color="#7E8B9B"/>
<stop offset="1" stop-color="white"/>
</linearGradient>
<linearGradient id="paint3_linear_440_4" x1="2766.49" y1="1081" x2="2766.49" y2="0" gradientUnits="userSpaceOnUse">
<stop stop-color="#7E8B9B"/>
<stop offset="1" stop-color="white"/>
</linearGradient>
<linearGradient id="paint4_linear_440_4" x1="2766.49" y1="1081" x2="2766.49" y2="0" gradientUnits="userSpaceOnUse">
<stop stop-color="#7E8B9B"/>
<stop offset="1" stop-color="white"/>
</linearGradient>
<linearGradient id="paint5_linear_440_4" x1="2766.49" y1="1081" x2="2766.49" y2="0" gradientUnits="userSpaceOnUse">
<stop stop-color="#7E8B9B"/>
<stop offset="1" stop-color="white"/>
</linearGradient>
<linearGradient id="paint6_linear_440_4" x1="2766.49" y1="1081" x2="2766.49" y2="0" gradientUnits="userSpaceOnUse">
<stop stop-color="#7E8B9B"/>
<stop offset="1" stop-color="white"/>
</linearGradient>
<linearGradient id="paint7_linear_440_4" x1="2766.49" y1="1081" x2="2766.49" y2="0" gradientUnits="userSpaceOnUse">
<stop stop-color="#7E8B9B"/>
<stop offset="1" stop-color="white"/>
</linearGradient>
<linearGradient id="paint8_linear_440_4" x1="2766.49" y1="1081" x2="2766.49" y2="0" gradientUnits="userSpaceOnUse">
<stop stop-color="#7E8B9B"/>
<stop offset="1" stop-color="white"/>
</linearGradient>
<linearGradient id="paint9_linear_440_4" x1="2766.49" y1="1081" x2="2766.49" y2="0" gradientUnits="userSpaceOnUse">
<stop stop-color="#7E8B9B"/>
<stop offset="1" stop-color="white"/>
</linearGradient>
<linearGradient id="paint10_linear_440_4" x1="2766.49" y1="1081" x2="2766.49" y2="0" gradientUnits="userSpaceOnUse">
<stop stop-color="#7E8B9B"/>
<stop offset="1" stop-color="white"/>
</linearGradient>
<linearGradient id="paint11_linear_440_4" x1="2766.49" y1="1081" x2="2766.49" y2="0" gradientUnits="userSpaceOnUse">
<stop stop-color="#7E8B9B"/>
<stop offset="1" stop-color="white"/>
</linearGradient>
<linearGradient id="paint12_linear_440_4" x1="2766.49" y1="1081" x2="2766.49" y2="0" gradientUnits="userSpaceOnUse">
<stop stop-color="#7E8B9B"/>
<stop offset="1" stop-color="white"/>
</linearGradient>
<linearGradient id="paint13_linear_440_4" x1="2766.49" y1="1081" x2="2766.49" y2="0" gradientUnits="userSpaceOnUse">
<stop stop-color="#7E8B9B"/>
<stop offset="1" stop-color="white"/>
</linearGradient>
<linearGradient id="paint14_linear_440_4" x1="2766.49" y1="1081" x2="2766.49" y2="0" gradientUnits="userSpaceOnUse">
<stop stop-color="#7E8B9B"/>
<stop offset="1" stop-color="white"/>
</linearGradient>
<linearGradient id="paint15_linear_440_4" x1="2766.49" y1="1081" x2="2766.49" y2="0" gradientUnits="userSpaceOnUse">
<stop stop-color="#7E8B9B"/>
<stop offset="1" stop-color="white"/>
</linearGradient>
<linearGradient id="paint16_linear_440_4" x1="2766.49" y1="1081" x2="2766.49" y2="0" gradientUnits="userSpaceOnUse">
<stop stop-color="#7E8B9B"/>
<stop offset="1" stop-color="white"/>
</linearGradient>
<linearGradient id="paint17_linear_440_4" x1="2766.49" y1="1081" x2="2766.49" y2="0" gradientUnits="userSpaceOnUse">
<stop stop-color="#7E8B9B"/>
<stop offset="1" stop-color="white"/>
</linearGradient>
<linearGradient id="paint18_linear_440_4" x1="2766.49" y1="1081" x2="2766.49" y2="0" gradientUnits="userSpaceOnUse">
<stop stop-color="#7E8B9B"/>
<stop offset="1" stop-color="white"/>
</linearGradient>
<linearGradient id="paint19_linear_440_4" x1="2766.49" y1="1081" x2="2766.49" y2="0" gradientUnits="userSpaceOnUse">
<stop stop-color="#7E8B9B"/>
<stop offset="1" stop-color="white"/>
</linearGradient>
<linearGradient id="paint20_linear_440_4" x1="2766.49" y1="1081" x2="2766.49" y2="0" gradientUnits="userSpaceOnUse">
<stop stop-color="#7E8B9B"/>
<stop offset="1" stop-color="white"/>
</linearGradient>
<linearGradient id="paint21_linear_440_4" x1="2766.49" y1="1081" x2="2766.49" y2="0" gradientUnits="userSpaceOnUse">
<stop stop-color="#7E8B9B"/>
<stop offset="1" stop-color="white"/>
</linearGradient>
<linearGradient id="paint22_linear_440_4" x1="2766.49" y1="1081" x2="2766.49" y2="0" gradientUnits="userSpaceOnUse">
<stop stop-color="#7E8B9B"/>
<stop offset="1" stop-color="white"/>
</linearGradient>
<linearGradient id="paint23_linear_440_4" x1="2766.49" y1="1081" x2="2766.49" y2="0" gradientUnits="userSpaceOnUse">
<stop stop-color="#7E8B9B"/>
<stop offset="1" stop-color="white"/>
</linearGradient>
<linearGradient id="paint24_linear_440_4" x1="2766.49" y1="1081" x2="2766.49" y2="0" gradientUnits="userSpaceOnUse">
<stop stop-color="#7E8B9B"/>
<stop offset="1" stop-color="white"/>
</linearGradient>
<linearGradient id="paint25_linear_440_4" x1="2766.49" y1="1081" x2="2766.49" y2="0" gradientUnits="userSpaceOnUse">
<stop stop-color="#7E8B9B"/>
<stop offset="1" stop-color="white"/>
</linearGradient>
<linearGradient id="paint26_linear_440_4" x1="2766.49" y1="1081" x2="2766.49" y2="0" gradientUnits="userSpaceOnUse">
<stop stop-color="#7E8B9B"/>
<stop offset="1" stop-color="white"/>
</linearGradient>
<linearGradient id="paint27_linear_440_4" x1="2766.49" y1="1081" x2="2766.49" y2="0" gradientUnits="userSpaceOnUse">
<stop stop-color="#7E8B9B"/>
<stop offset="1" stop-color="white"/>
</linearGradient>
<linearGradient id="paint28_linear_440_4" x1="2766.49" y1="1081" x2="2766.49" y2="0" gradientUnits="userSpaceOnUse">
<stop stop-color="#7E8B9B"/>
<stop offset="1" stop-color="white"/>
</linearGradient>
<linearGradient id="paint29_linear_440_4" x1="2766.49" y1="1081" x2="2766.49" y2="0" gradientUnits="userSpaceOnUse">
<stop stop-color="#7E8B9B"/>
<stop offset="1" stop-color="white"/>
</linearGradient>
<linearGradient id="paint30_linear_440_4" x1="2766.49" y1="1081" x2="2766.49" y2="0" gradientUnits="userSpaceOnUse">
<stop stop-color="#7E8B9B"/>
<stop offset="1" stop-color="white"/>
</linearGradient>
<linearGradient id="paint31_linear_440_4" x1="2766.49" y1="1081" x2="2766.49" y2="0" gradientUnits="userSpaceOnUse">
<stop stop-color="#7E8B9B"/>
<stop offset="1" stop-color="white"/>
</linearGradient>
<linearGradient id="paint32_linear_440_4" x1="2766.49" y1="1081" x2="2766.49" y2="0" gradientUnits="userSpaceOnUse">
<stop stop-color="#7E8B9B"/>
<stop offset="1" stop-color="white"/>
</linearGradient>
<linearGradient id="paint33_linear_440_4" x1="2766.49" y1="1081" x2="2766.49" y2="0" gradientUnits="userSpaceOnUse">
<stop stop-color="#7E8B9B"/>
<stop offset="1" stop-color="white"/>
</linearGradient>
<linearGradient id="paint34_linear_440_4" x1="2766.49" y1="1081" x2="2766.49" y2="0" gradientUnits="userSpaceOnUse">
<stop stop-color="#7E8B9B"/>
<stop offset="1" stop-color="white"/>
</linearGradient>
<linearGradient id="paint35_linear_440_4" x1="2766.49" y1="1081" x2="2766.49" y2="0" gradientUnits="userSpaceOnUse">
<stop stop-color="#7E8B9B"/>
<stop offset="1" stop-color="white"/>
</linearGradient>
<linearGradient id="paint36_linear_440_4" x1="2766.49" y1="1081" x2="2766.49" y2="0" gradientUnits="userSpaceOnUse">
<stop stop-color="#7E8B9B"/>
<stop offset="1" stop-color="white"/>
</linearGradient>
<linearGradient id="paint37_linear_440_4" x1="2766.49" y1="1081" x2="2766.49" y2="0" gradientUnits="userSpaceOnUse">
<stop stop-color="#7E8B9B"/>
<stop offset="1" stop-color="white"/>
</linearGradient>
<linearGradient id="paint38_linear_440_4" x1="2766.49" y1="1081" x2="2766.49" y2="0" gradientUnits="userSpaceOnUse">
<stop stop-color="#7E8B9B"/>
<stop offset="1" stop-color="white"/>
</linearGradient>
<linearGradient id="paint39_linear_440_4" x1="2766.49" y1="1081" x2="2766.49" y2="0" gradientUnits="userSpaceOnUse">
<stop stop-color="#7E8B9B"/>
<stop offset="1" stop-color="white"/>
</linearGradient>
<linearGradient id="paint40_linear_440_4" x1="2766.49" y1="1081" x2="2766.49" y2="0" gradientUnits="userSpaceOnUse">
<stop stop-color="#7E8B9B"/>
<stop offset="1" stop-color="white"/>
</linearGradient>
<linearGradient id="paint41_linear_440_4" x1="2766.49" y1="1081" x2="2766.49" y2="0" gradientUnits="userSpaceOnUse">
<stop stop-color="#7E8B9B"/>
<stop offset="1" stop-color="white"/>
</linearGradient>
<linearGradient id="paint42_linear_440_4" x1="2766.49" y1="1081" x2="2766.49" y2="0" gradientUnits="userSpaceOnUse">
<stop stop-color="#7E8B9B"/>
<stop offset="1" stop-color="white"/>
</linearGradient>
<linearGradient id="paint43_linear_440_4" x1="2766.49" y1="1081" x2="2766.49" y2="0" gradientUnits="userSpaceOnUse">
<stop stop-color="#7E8B9B"/>
<stop offset="1" stop-color="white"/>
</linearGradient>
<linearGradient id="paint44_linear_440_4" x1="2766.49" y1="1081" x2="2766.49" y2="0" gradientUnits="userSpaceOnUse">
<stop stop-color="#7E8B9B"/>
<stop offset="1" stop-color="white"/>
</linearGradient>
<linearGradient id="paint45_linear_440_4" x1="2766.49" y1="1081" x2="2766.49" y2="0" gradientUnits="userSpaceOnUse">
<stop stop-color="#7E8B9B"/>
<stop offset="1" stop-color="white"/>
</linearGradient>
<linearGradient id="paint46_linear_440_4" x1="2766.49" y1="1081" x2="2766.49" y2="0" gradientUnits="userSpaceOnUse">
<stop stop-color="#7E8B9B"/>
<stop offset="1" stop-color="white"/>
</linearGradient>
<linearGradient id="paint47_linear_440_4" x1="2766.49" y1="1081" x2="2766.49" y2="0" gradientUnits="userSpaceOnUse">
<stop stop-color="#7E8B9B"/>
<stop offset="1" stop-color="white"/>
</linearGradient>
<linearGradient id="paint48_linear_440_4" x1="2766.49" y1="1081" x2="2766.49" y2="0" gradientUnits="userSpaceOnUse">
<stop stop-color="#7E8B9B"/>
<stop offset="1" stop-color="white"/>
</linearGradient>
<linearGradient id="paint49_linear_440_4" x1="2766.49" y1="1081" x2="2766.49" y2="0" gradientUnits="userSpaceOnUse">
<stop stop-color="#7E8B9B"/>
<stop offset="1" stop-color="white"/>
</linearGradient>
<linearGradient id="paint50_linear_440_4" x1="2766.49" y1="1081" x2="2766.49" y2="0" gradientUnits="userSpaceOnUse">
<stop stop-color="#7E8B9B"/>
<stop offset="1" stop-color="white"/>
</linearGradient>
<linearGradient id="paint51_linear_440_4" x1="2766.49" y1="1081" x2="2766.49" y2="0" gradientUnits="userSpaceOnUse">
<stop stop-color="#7E8B9B"/>
<stop offset="1" stop-color="white"/>
</linearGradient>
<linearGradient id="paint52_linear_440_4" x1="546.515" y1="0" x2="546.515" y2="1081" gradientUnits="userSpaceOnUse">
<stop stop-color="#7E8B9B"/>
<stop offset="1" stop-color="white"/>
</linearGradient>
<linearGradient id="paint53_linear_440_4" x1="546.515" y1="0" x2="546.515" y2="1081" gradientUnits="userSpaceOnUse">
<stop stop-color="#7E8B9B"/>
<stop offset="1" stop-color="white"/>
</linearGradient>
<linearGradient id="paint54_linear_440_4" x1="546.515" y1="0" x2="546.515" y2="1081" gradientUnits="userSpaceOnUse">
<stop stop-color="#7E8B9B"/>
<stop offset="1" stop-color="white"/>
</linearGradient>
<linearGradient id="paint55_linear_440_4" x1="546.515" y1="0" x2="546.515" y2="1081" gradientUnits="userSpaceOnUse">
<stop stop-color="#7E8B9B"/>
<stop offset="1" stop-color="white"/>
</linearGradient>
<linearGradient id="paint56_linear_440_4" x1="546.515" y1="0" x2="546.515" y2="1081" gradientUnits="userSpaceOnUse">
<stop stop-color="#7E8B9B"/>
<stop offset="1" stop-color="white"/>
</linearGradient>
<linearGradient id="paint57_linear_440_4" x1="546.515" y1="0" x2="546.515" y2="1081" gradientUnits="userSpaceOnUse">
<stop stop-color="#7E8B9B"/>
<stop offset="1" stop-color="white"/>
</linearGradient>
<linearGradient id="paint58_linear_440_4" x1="546.515" y1="0" x2="546.515" y2="1081" gradientUnits="userSpaceOnUse">
<stop stop-color="#7E8B9B"/>
<stop offset="1" stop-color="white"/>
</linearGradient>
<linearGradient id="paint59_linear_440_4" x1="546.515" y1="0" x2="546.515" y2="1081" gradientUnits="userSpaceOnUse">
<stop stop-color="#7E8B9B"/>
<stop offset="1" stop-color="white"/>
</linearGradient>
<linearGradient id="paint60_linear_440_4" x1="546.515" y1="0" x2="546.515" y2="1081" gradientUnits="userSpaceOnUse">
<stop stop-color="#7E8B9B"/>
<stop offset="1" stop-color="white"/>
</linearGradient>
<linearGradient id="paint61_linear_440_4" x1="546.515" y1="0" x2="546.515" y2="1081" gradientUnits="userSpaceOnUse">
<stop stop-color="#7E8B9B"/>
<stop offset="1" stop-color="white"/>
</linearGradient>
<linearGradient id="paint62_linear_440_4" x1="546.515" y1="0" x2="546.515" y2="1081" gradientUnits="userSpaceOnUse">
<stop stop-color="#7E8B9B"/>
<stop offset="1" stop-color="white"/>
</linearGradient>
<linearGradient id="paint63_linear_440_4" x1="546.515" y1="0" x2="546.515" y2="1081" gradientUnits="userSpaceOnUse">
<stop stop-color="#7E8B9B"/>
<stop offset="1" stop-color="white"/>
</linearGradient>
<linearGradient id="paint64_linear_440_4" x1="546.515" y1="0" x2="546.515" y2="1081" gradientUnits="userSpaceOnUse">
<stop stop-color="#7E8B9B"/>
<stop offset="1" stop-color="white"/>
</linearGradient>
<linearGradient id="paint65_linear_440_4" x1="546.515" y1="0" x2="546.515" y2="1081" gradientUnits="userSpaceOnUse">
<stop stop-color="#7E8B9B"/>
<stop offset="1" stop-color="white"/>
</linearGradient>
<linearGradient id="paint66_linear_440_4" x1="546.515" y1="0" x2="546.515" y2="1081" gradientUnits="userSpaceOnUse">
<stop stop-color="#7E8B9B"/>
<stop offset="1" stop-color="white"/>
</linearGradient>
<linearGradient id="paint67_linear_440_4" x1="546.515" y1="0" x2="546.515" y2="1081" gradientUnits="userSpaceOnUse">
<stop stop-color="#7E8B9B"/>
<stop offset="1" stop-color="white"/>
</linearGradient>
<linearGradient id="paint68_linear_440_4" x1="546.515" y1="0" x2="546.515" y2="1081" gradientUnits="userSpaceOnUse">
<stop stop-color="#7E8B9B"/>
<stop offset="1" stop-color="white"/>
</linearGradient>
<linearGradient id="paint69_linear_440_4" x1="546.515" y1="0" x2="546.515" y2="1081" gradientUnits="userSpaceOnUse">
<stop stop-color="#7E8B9B"/>
<stop offset="1" stop-color="white"/>
</linearGradient>
<linearGradient id="paint70_linear_440_4" x1="546.515" y1="0" x2="546.515" y2="1081" gradientUnits="userSpaceOnUse">
<stop stop-color="#7E8B9B"/>
<stop offset="1" stop-color="white"/>
</linearGradient>
<linearGradient id="paint71_linear_440_4" x1="546.515" y1="0" x2="546.515" y2="1081" gradientUnits="userSpaceOnUse">
<stop stop-color="#7E8B9B"/>
<stop offset="1" stop-color="white"/>
</linearGradient>
<linearGradient id="paint72_linear_440_4" x1="546.515" y1="0" x2="546.515" y2="1081" gradientUnits="userSpaceOnUse">
<stop stop-color="#7E8B9B"/>
<stop offset="1" stop-color="white"/>
</linearGradient>
<linearGradient id="paint73_linear_440_4" x1="546.515" y1="0" x2="546.515" y2="1081" gradientUnits="userSpaceOnUse">
<stop stop-color="#7E8B9B"/>
<stop offset="1" stop-color="white"/>
</linearGradient>
<linearGradient id="paint74_linear_440_4" x1="546.515" y1="0" x2="546.515" y2="1081" gradientUnits="userSpaceOnUse">
<stop stop-color="#7E8B9B"/>
<stop offset="1" stop-color="white"/>
</linearGradient>
<linearGradient id="paint75_linear_440_4" x1="546.515" y1="0" x2="546.515" y2="1081" gradientUnits="userSpaceOnUse">
<stop stop-color="#7E8B9B"/>
<stop offset="1" stop-color="white"/>
</linearGradient>
<linearGradient id="paint76_linear_440_4" x1="546.515" y1="0" x2="546.515" y2="1081" gradientUnits="userSpaceOnUse">
<stop stop-color="#7E8B9B"/>
<stop offset="1" stop-color="white"/>
</linearGradient>
<linearGradient id="paint77_linear_440_4" x1="546.515" y1="0" x2="546.515" y2="1081" gradientUnits="userSpaceOnUse">
<stop stop-color="#7E8B9B"/>
<stop offset="1" stop-color="white"/>
</linearGradient>
<linearGradient id="paint78_linear_440_4" x1="546.515" y1="0" x2="546.515" y2="1081" gradientUnits="userSpaceOnUse">
<stop stop-color="#7E8B9B"/>
<stop offset="1" stop-color="white"/>
</linearGradient>
<linearGradient id="paint79_linear_440_4" x1="546.515" y1="0" x2="546.515" y2="1081" gradientUnits="userSpaceOnUse">
<stop stop-color="#7E8B9B"/>
<stop offset="1" stop-color="white"/>
</linearGradient>
<linearGradient id="paint80_linear_440_4" x1="546.515" y1="0" x2="546.515" y2="1081" gradientUnits="userSpaceOnUse">
<stop stop-color="#7E8B9B"/>
<stop offset="1" stop-color="white"/>
</linearGradient>
<linearGradient id="paint81_linear_440_4" x1="546.515" y1="0" x2="546.515" y2="1081" gradientUnits="userSpaceOnUse">
<stop stop-color="#7E8B9B"/>
<stop offset="1" stop-color="white"/>
</linearGradient>
<linearGradient id="paint82_linear_440_4" x1="546.515" y1="0" x2="546.515" y2="1081" gradientUnits="userSpaceOnUse">
<stop stop-color="#7E8B9B"/>
<stop offset="1" stop-color="white"/>
</linearGradient>
<linearGradient id="paint83_linear_440_4" x1="546.515" y1="0" x2="546.515" y2="1081" gradientUnits="userSpaceOnUse">
<stop stop-color="#7E8B9B"/>
<stop offset="1" stop-color="white"/>
</linearGradient>
<linearGradient id="paint84_linear_440_4" x1="546.515" y1="0" x2="546.515" y2="1081" gradientUnits="userSpaceOnUse">
<stop stop-color="#7E8B9B"/>
<stop offset="1" stop-color="white"/>
</linearGradient>
<linearGradient id="paint85_linear_440_4" x1="546.515" y1="0" x2="546.515" y2="1081" gradientUnits="userSpaceOnUse">
<stop stop-color="#7E8B9B"/>
<stop offset="1" stop-color="white"/>
</linearGradient>
<linearGradient id="paint86_linear_440_4" x1="546.515" y1="0" x2="546.515" y2="1081" gradientUnits="userSpaceOnUse">
<stop stop-color="#7E8B9B"/>
<stop offset="1" stop-color="white"/>
</linearGradient>
<linearGradient id="paint87_linear_440_4" x1="546.515" y1="0" x2="546.515" y2="1081" gradientUnits="userSpaceOnUse">
<stop stop-color="#7E8B9B"/>
<stop offset="1" stop-color="white"/>
</linearGradient>
<linearGradient id="paint88_linear_440_4" x1="546.515" y1="0" x2="546.515" y2="1081" gradientUnits="userSpaceOnUse">
<stop stop-color="#7E8B9B"/>
<stop offset="1" stop-color="white"/>
</linearGradient>
<linearGradient id="paint89_linear_440_4" x1="546.515" y1="0" x2="546.515" y2="1081" gradientUnits="userSpaceOnUse">
<stop stop-color="#7E8B9B"/>
<stop offset="1" stop-color="white"/>
</linearGradient>
<linearGradient id="paint90_linear_440_4" x1="546.515" y1="0" x2="546.515" y2="1081" gradientUnits="userSpaceOnUse">
<stop stop-color="#7E8B9B"/>
<stop offset="1" stop-color="white"/>
</linearGradient>
<linearGradient id="paint91_linear_440_4" x1="546.515" y1="0" x2="546.515" y2="1081" gradientUnits="userSpaceOnUse">
<stop stop-color="#7E8B9B"/>
<stop offset="1" stop-color="white"/>
</linearGradient>
<linearGradient id="paint92_linear_440_4" x1="546.515" y1="0" x2="546.515" y2="1081" gradientUnits="userSpaceOnUse">
<stop stop-color="#7E8B9B"/>
<stop offset="1" stop-color="white"/>
</linearGradient>
<linearGradient id="paint93_linear_440_4" x1="546.515" y1="0" x2="546.515" y2="1081" gradientUnits="userSpaceOnUse">
<stop stop-color="#7E8B9B"/>
<stop offset="1" stop-color="white"/>
</linearGradient>
<linearGradient id="paint94_linear_440_4" x1="546.515" y1="0" x2="546.515" y2="1081" gradientUnits="userSpaceOnUse">
<stop stop-color="#7E8B9B"/>
<stop offset="1" stop-color="white"/>
</linearGradient>
<linearGradient id="paint95_linear_440_4" x1="546.515" y1="0" x2="546.515" y2="1081" gradientUnits="userSpaceOnUse">
<stop stop-color="#7E8B9B"/>
<stop offset="1" stop-color="white"/>
</linearGradient>
<linearGradient id="paint96_linear_440_4" x1="546.515" y1="0" x2="546.515" y2="1081" gradientUnits="userSpaceOnUse">
<stop stop-color="#7E8B9B"/>
<stop offset="1" stop-color="white"/>
</linearGradient>
<linearGradient id="paint97_linear_440_4" x1="546.515" y1="0" x2="546.515" y2="1081" gradientUnits="userSpaceOnUse">
<stop stop-color="#7E8B9B"/>
<stop offset="1" stop-color="white"/>
</linearGradient>
<linearGradient id="paint98_linear_440_4" x1="546.515" y1="0" x2="546.515" y2="1081" gradientUnits="userSpaceOnUse">
<stop stop-color="#7E8B9B"/>
<stop offset="1" stop-color="white"/>
</linearGradient>
<linearGradient id="paint99_linear_440_4" x1="546.515" y1="0" x2="546.515" y2="1081" gradientUnits="userSpaceOnUse">
<stop stop-color="#7E8B9B"/>
<stop offset="1" stop-color="white"/>
</linearGradient>
<linearGradient id="paint100_linear_440_4" x1="546.515" y1="0" x2="546.515" y2="1081" gradientUnits="userSpaceOnUse">
<stop stop-color="#7E8B9B"/>
<stop offset="1" stop-color="white"/>
</linearGradient>
<linearGradient id="paint101_linear_440_4" x1="546.515" y1="0" x2="546.515" y2="1081" gradientUnits="userSpaceOnUse">
<stop stop-color="#7E8B9B"/>
<stop offset="1" stop-color="white"/>
</linearGradient>
<linearGradient id="paint102_linear_440_4" x1="546.515" y1="0" x2="546.515" y2="1081" gradientUnits="userSpaceOnUse">
<stop stop-color="#7E8B9B"/>
<stop offset="1" stop-color="white"/>
</linearGradient>
<linearGradient id="paint103_linear_440_4" x1="546.515" y1="0" x2="546.515" y2="1081" gradientUnits="userSpaceOnUse">
<stop stop-color="#7E8B9B"/>
<stop offset="1" stop-color="white"/>
</linearGradient>
</defs>
</svg>
